<svg width="314" height="115" viewBox="0 0 314 115" fill="none" xmlns="http://www.w3.org/2000/svg">
<g clip-path="url(#clip0_8997_281216)">
<path d="M266.657 10.543H153.345C151.715 10.543 150.395 11.8637 150.395 13.493V93.0789C150.395 94.7081 151.715 96.0289 153.345 96.0289H266.657C268.286 96.0289 269.607 94.7081 269.607 93.0789V13.493C269.607 11.8637 268.286 10.543 266.657 10.543Z" fill="#7DBF9D"/>
<path d="M153.345 10.543H266.657C267.439 10.543 268.19 10.8538 268.743 11.407C269.296 11.9602 269.607 12.7106 269.607 13.493V83.6396H150.395V13.493C150.395 12.7106 150.705 11.9602 151.259 11.407C151.812 10.8538 152.562 10.543 153.345 10.543Z" fill="#999999"/>
<path d="M264.79 15.0859H154.25V78.4088H264.79V15.0859Z" fill="white"/>
<path d="M220.283 114.889H199.063C198.469 114.888 197.882 114.762 197.341 114.517C196.8 114.272 196.318 113.914 195.926 113.467C195.535 113.021 195.243 112.496 195.07 111.928C194.898 111.36 194.849 110.761 194.926 110.172L196.785 96.0293H222.664L224.424 110.208C224.496 110.794 224.442 111.389 224.267 111.954C224.092 112.518 223.799 113.038 223.407 113.481C223.016 113.923 222.535 114.278 221.996 114.52C221.458 114.763 220.874 114.888 220.283 114.889Z" fill="#999999"/>
<path opacity="0.8" d="M210.003 93.0002C211.828 93.0002 213.307 91.521 213.307 89.6964C213.307 87.8717 211.828 86.3926 210.003 86.3926C208.178 86.3926 206.699 87.8717 206.699 89.6964C206.699 91.521 208.178 93.0002 210.003 93.0002Z" fill="#99ABC5"/>
<path opacity="0.8" d="M279.999 18.8711H211.996V49.0183H279.999V18.8711Z" fill="#99ABC5"/>
<path d="M142.617 54.3867H207.454" stroke="#666883" stroke-width="0.484558" stroke-miterlimit="10"/>
<path d="M142.617 59.4121H207.454" stroke="#666883" stroke-width="0.484558" stroke-miterlimit="10"/>
<path d="M142.617 64.5059H207.454" stroke="#666883" stroke-width="0.484558" stroke-miterlimit="10"/>
<path d="M142.617 69.5996H207.454" stroke="#666883" stroke-width="0.484558" stroke-miterlimit="10"/>
<path d="M145.096 24.3781C145.933 24.3781 146.611 23.7001 146.611 22.8639C146.611 22.0276 145.933 21.3496 145.096 21.3496C144.26 21.3496 143.582 22.0276 143.582 22.8639C143.582 23.7001 144.26 24.3781 145.096 24.3781Z" fill="#7DBF9D"/>
<path d="M149.362 24.3781C150.198 24.3781 150.876 23.7001 150.876 22.8639C150.876 22.0276 150.198 21.3496 149.362 21.3496C148.526 21.3496 147.848 22.0276 147.848 22.8639C147.848 23.7001 148.526 24.3781 149.362 24.3781Z" fill="#7DBF9D"/>
<path d="M153.631 24.3781C154.468 24.3781 155.146 23.7001 155.146 22.8639C155.146 22.0276 154.468 21.3496 153.631 21.3496C152.795 21.3496 152.117 22.0276 152.117 22.8639C152.117 23.7001 152.795 24.3781 153.631 24.3781Z" fill="#7DBF9D"/>
<path d="M157.897 24.3781C158.733 24.3781 159.411 23.7001 159.411 22.8639C159.411 22.0276 158.733 21.3496 157.897 21.3496C157.061 21.3496 156.383 22.0276 156.383 22.8639C156.383 23.7001 157.061 24.3781 157.897 24.3781Z" fill="#7DBF9D"/>
<path d="M162.167 24.3781C163.003 24.3781 163.681 23.7001 163.681 22.8639C163.681 22.0276 163.003 21.3496 162.167 21.3496C161.33 21.3496 160.652 22.0276 160.652 22.8639C160.652 23.7001 161.33 24.3781 162.167 24.3781Z" fill="#7DBF9D"/>
<path d="M166.432 24.3781C167.269 24.3781 167.946 23.7001 167.946 22.8639C167.946 22.0276 167.269 21.3496 166.432 21.3496C165.596 21.3496 164.918 22.0276 164.918 22.8639C164.918 23.7001 165.596 24.3781 166.432 24.3781Z" fill="#7DBF9D"/>
<path d="M145.096 33.1886C145.933 33.1886 146.611 32.5107 146.611 31.6744C146.611 30.8381 145.933 30.1602 145.096 30.1602C144.26 30.1602 143.582 30.8381 143.582 31.6744C143.582 32.5107 144.26 33.1886 145.096 33.1886Z" fill="#7DBF9D"/>
<path d="M149.362 33.1886C150.198 33.1886 150.876 32.5107 150.876 31.6744C150.876 30.8381 150.198 30.1602 149.362 30.1602C148.526 30.1602 147.848 30.8381 147.848 31.6744C147.848 32.5107 148.526 33.1886 149.362 33.1886Z" fill="#7DBF9D"/>
<path d="M153.631 33.1886C154.468 33.1886 155.146 32.5107 155.146 31.6744C155.146 30.8381 154.468 30.1602 153.631 30.1602C152.795 30.1602 152.117 30.8381 152.117 31.6744C152.117 32.5107 152.795 33.1886 153.631 33.1886Z" fill="#7DBF9D"/>
<path d="M157.897 33.1886C158.733 33.1886 159.411 32.5107 159.411 31.6744C159.411 30.8381 158.733 30.1602 157.897 30.1602C157.061 30.1602 156.383 30.8381 156.383 31.6744C156.383 32.5107 157.061 33.1886 157.897 33.1886Z" fill="#7DBF9D"/>
<path d="M162.167 33.1886C163.003 33.1886 163.681 32.5107 163.681 31.6744C163.681 30.8381 163.003 30.1602 162.167 30.1602C161.33 30.1602 160.652 30.8381 160.652 31.6744C160.652 32.5107 161.33 33.1886 162.167 33.1886Z" fill="#7DBF9D"/>
<path d="M166.432 33.1886C167.269 33.1886 167.946 32.5107 167.946 31.6744C167.946 30.8381 167.269 30.1602 166.432 30.1602C165.596 30.1602 164.918 30.8381 164.918 31.6744C164.918 32.5107 165.596 33.1886 166.432 33.1886Z" fill="#7DBF9D"/>
<path d="M147.295 28.7824C148.132 28.7824 148.81 28.1044 148.81 27.2681C148.81 26.4319 148.132 25.7539 147.295 25.7539C146.459 25.7539 145.781 26.4319 145.781 27.2681C145.781 28.1044 146.459 28.7824 147.295 28.7824Z" fill="#7DBF9D"/>
<path d="M151.565 28.7824C152.401 28.7824 153.079 28.1044 153.079 27.2681C153.079 26.4319 152.401 25.7539 151.565 25.7539C150.729 25.7539 150.051 26.4319 150.051 27.2681C150.051 28.1044 150.729 28.7824 151.565 28.7824Z" fill="#7DBF9D"/>
<path d="M155.831 28.7824C156.667 28.7824 157.345 28.1044 157.345 27.2681C157.345 26.4319 156.667 25.7539 155.831 25.7539C154.994 25.7539 154.316 26.4319 154.316 27.2681C154.316 28.1044 154.994 28.7824 155.831 28.7824Z" fill="#7DBF9D"/>
<path d="M160.1 28.7824C160.936 28.7824 161.614 28.1044 161.614 27.2681C161.614 26.4319 160.936 25.7539 160.1 25.7539C159.264 25.7539 158.586 26.4319 158.586 27.2681C158.586 28.1044 159.264 28.7824 160.1 28.7824Z" fill="#7DBF9D"/>
<path d="M164.366 28.7824C165.202 28.7824 165.88 28.1044 165.88 27.2681C165.88 26.4319 165.202 25.7539 164.366 25.7539C163.53 25.7539 162.852 26.4319 162.852 27.2681C162.852 28.1044 163.53 28.7824 164.366 28.7824Z" fill="#7DBF9D"/>
<path d="M168.635 28.7824C169.472 28.7824 170.15 28.1044 170.15 27.2681C170.15 26.4319 169.472 25.7539 168.635 25.7539C167.799 25.7539 167.121 26.4319 167.121 27.2681C167.121 28.1044 167.799 28.7824 168.635 28.7824Z" fill="#7DBF9D"/>
<path d="M147.295 37.5929C148.132 37.5929 148.81 36.915 148.81 36.0787C148.81 35.2424 148.132 34.5645 147.295 34.5645C146.459 34.5645 145.781 35.2424 145.781 36.0787C145.781 36.915 146.459 37.5929 147.295 37.5929Z" fill="#7DBF9D"/>
<path d="M151.565 37.5929C152.401 37.5929 153.079 36.915 153.079 36.0787C153.079 35.2424 152.401 34.5645 151.565 34.5645C150.729 34.5645 150.051 35.2424 150.051 36.0787C150.051 36.915 150.729 37.5929 151.565 37.5929Z" fill="#7DBF9D"/>
<path d="M155.831 37.5929C156.667 37.5929 157.345 36.915 157.345 36.0787C157.345 35.2424 156.667 34.5645 155.831 34.5645C154.994 34.5645 154.316 35.2424 154.316 36.0787C154.316 36.915 154.994 37.5929 155.831 37.5929Z" fill="#7DBF9D"/>
<path d="M160.1 37.5929C160.936 37.5929 161.614 36.915 161.614 36.0787C161.614 35.2424 160.936 34.5645 160.1 34.5645C159.264 34.5645 158.586 35.2424 158.586 36.0787C158.586 36.915 159.264 37.5929 160.1 37.5929Z" fill="#7DBF9D"/>
<path d="M164.366 37.5929C165.202 37.5929 165.88 36.915 165.88 36.0787C165.88 35.2424 165.202 34.5645 164.366 34.5645C163.53 34.5645 162.852 35.2424 162.852 36.0787C162.852 36.915 163.53 37.5929 164.366 37.5929Z" fill="#7DBF9D"/>
<path d="M168.635 37.5929C169.472 37.5929 170.15 36.915 170.15 36.0787C170.15 35.2424 169.472 34.5645 168.635 34.5645C167.799 34.5645 167.121 35.2424 167.121 36.0787C167.121 36.915 167.799 37.5929 168.635 37.5929Z" fill="#7DBF9D"/>
</g>
<path d="M116.128 109.643C116.014 109.95 115.257 111.731 115.391 112.139C115.635 112.877 119.355 114.131 119.592 114.023C119.83 113.915 120.072 113.574 119.959 113.408C119.847 113.242 118.52 112.334 118.378 112.11C118.236 111.886 118.248 111.011 118.505 110.643" fill="#1F161E"/>
<path d="M132.609 47.6367C133.55 48.5339 147.188 61.3186 147.188 68.0361C147.188 70.0682 143.308 99.852 142.872 100.458H139.501C139.501 100.458 138.017 75.6441 139.198 70.7949C138.322 70.4024 130.294 67.444 126.733 64.2725C123.171 61.101 125.719 48.8972 132.609 47.6367Z" fill="#1F161E"/>
<path d="M132.61 47.6383C133.67 47.8356 119.015 110.732 119.015 110.732H115.375C115.375 110.732 116.757 51.2023 117.55 48.3044C121.326 47.1022 129.759 47.1022 132.61 47.6383Z" fill="#EF5350"/>
<path d="M113.078 23.5146C116.962 20.6168 130.25 20.6167 144.017 21.1977C145.645 21.2672 150.264 10.9228 152.233 9.45146C154.402 7.83207 157.858 9.29446 157.858 10.1557C157.858 12.0353 155.394 12.0802 154.873 12.688C154.351 13.2958 149.692 27.7672 145.757 29.898C144.485 30.5888 135.077 30.36 134.42 31.2594C133.762 32.1588 133.16 47.0788 132.611 47.6328C132.062 48.1868 119.057 48.6466 117.56 48.3057C117.477 47.1461 115.726 37.5284 115.287 36.7748C115.046 36.7524 111.546 42.9608 111.548 43.7436C111.548 44.7753 117.537 53.4195 120.047 54.8999C120.697 55.2812 120.602 56.3668 120.483 56.6314C120.365 56.8961 119.468 58.2015 118.908 58.2015C118.348 58.2015 105.296 49.9094 105.001 43.6606C104.923 41.9717 108.073 27.2603 113.078 23.5146Z" fill="#5E4521"/>
<path d="M139.955 100.078C139.955 100.408 139.849 102.359 140.114 102.689C140.591 103.283 144.487 103.046 144.671 102.855C144.856 102.664 144.97 102.258 144.807 102.142C144.644 102.025 143.098 101.677 142.899 101.523C142.7 101.368 142.407 100.545 142.52 100.105" fill="#1F161E"/>
<path d="M124.66 22.5892C124.732 23.4729 120.145 23.9529 120.069 23.0042L119.594 17.0963L124.186 16.6836L124.66 22.5892Z" fill="#F8CDBA"/>
<path d="M119.875 20.6259C119.833 20.1011 120.823 18.1879 121.721 18.4144C120.611 18.1071 119.964 16.7793 119.602 17.0978L119.875 20.6259Z" fill="black"/>
<path d="M123.58 18.7227C126.887 18.7227 129.567 15.8869 129.567 12.3887C129.567 8.89053 126.887 6.05469 123.58 6.05469C120.274 6.05469 117.594 8.89053 117.594 12.3887C117.594 15.8869 120.274 18.7227 123.58 18.7227Z" fill="#F8CDBA"/>
<path d="M129.724 13.2398C130.273 13.1902 130.699 12.9049 130.674 12.6025C130.65 12.3001 130.185 12.0952 129.636 12.1447C129.086 12.1942 128.66 12.4795 128.685 12.7819C128.709 13.0843 129.174 13.2893 129.724 13.2398Z" fill="#FA9E9F"/>
<path d="M123.466 13.8042C124.015 13.7547 124.441 13.4694 124.417 13.167C124.392 12.8646 123.927 12.6596 123.378 12.7091C122.828 12.7587 122.403 13.044 122.427 13.3464C122.451 13.6488 122.916 13.8537 123.466 13.8042Z" fill="#FA9E9F"/>
<path d="M127.16 11.7754C127.372 12.0401 128.419 13.1324 127.448 13.7021" stroke="#1F161E" stroke-width="0.380963" stroke-miterlimit="10" stroke-linecap="round"/>
<path d="M125.552 15.2607C125.253 15.2764 124.761 14.9355 124.492 14.6035" stroke="#1F161E" stroke-width="0.380963" stroke-miterlimit="10" stroke-linecap="round"/>
<path d="M117.581 9.22455C117.405 7.03321 120.161 5.14243 122.171 4.96299C125.368 4.67366 127.159 4.74991 128.912 4.1376C131.422 3.26285 131.376 6.82911 131.41 7.23508C131.545 8.94194 131.043 10.0544 129.29 10.4851C129.122 9.89523 128.866 9.3373 128.533 8.83204C128.022 8.67449 127.476 8.71343 126.99 8.94194C126.551 9.15054 122.917 11.3778 120.117 11.6335C119.788 12.2189 119.241 15.6887 119.6 17.0995C118.781 17.2228 117.043 14.5358 116.844 13.0622C116.785 12.5572 116.838 12.0446 117 11.5655C117.162 11.0863 117.428 10.6541 117.776 10.3034C117.721 9.99388 117.596 9.39726 117.581 9.22455Z" fill="black"/>
<path d="M119.967 14.4132C120.695 14.4132 121.286 13.7886 121.286 13.0181C121.286 12.2477 120.695 11.623 119.967 11.623C119.239 11.623 118.648 12.2477 118.648 13.0181C118.648 13.7886 119.239 14.4132 119.967 14.4132Z" fill="#F8CDBA"/>
<path d="M120.034 54.8972C117.524 53.4169 111.537 44.7727 111.535 43.7409C111.535 43.2385 112.97 40.5089 114.066 38.6181L107.054 34.6055C105.701 38.867 104.961 42.8325 105.002 43.6602C105.294 49.909 118.336 58.1876 118.896 58.1876C119.455 58.1876 120.352 56.8934 120.471 56.6175C120.589 56.3417 120.687 55.2785 120.034 54.8972Z" fill="#F8CDBA"/>
<path d="M152.233 9.45927C150.264 10.9306 145.644 21.2705 144.008 21.2055C141.237 21.0888 142.833 21.1472 140.175 21.0978L140.16 30.4217C143.245 30.4217 144.869 30.379 145.746 29.9058C149.683 27.775 154.345 13.3081 154.862 12.6958C155.379 12.0835 157.847 12.0431 157.847 10.1636C157.857 9.30227 154.395 7.83988 152.233 9.45927Z" fill="#F8CDBA"/>
<defs>
<clipPath id="clip0_8997_281216">
<rect width="137.383" height="104.345" fill="white" transform="translate(142.617 10.543)"/>
</clipPath>
</defs>
</svg>
