<svg width="440" height="160" viewBox="0 0 440 160" fill="none" xmlns="http://www.w3.org/2000/svg">
<g clip-path="url(#clip0_8997_281159)">
<g clip-path="url(#clip1_8997_281159)">
<path d="M309.488 64.7931V49.6521C309.488 48.9355 309.204 48.2482 308.697 47.7414C308.19 47.2347 307.503 46.95 306.786 46.95H305.527H217.294V44.2704C217.294 44.2231 217.305 44.178 217.305 44.133V36.8102C217.305 35.2587 216.247 34 214.941 34H192.364C191.058 34 190 35.2587 190 36.8102V46.9432L204.535 152.203H210.953L312.979 80.524L309.488 64.7931Z" fill="#EF5350"/>
<path d="M319.475 54.4902H213.258C208.327 54.4902 204.33 58.4876 204.33 63.4185V150.044C204.33 154.975 208.327 158.973 213.258 158.973H319.475C324.406 158.973 328.403 154.975 328.403 150.044V63.4185C328.403 58.4876 324.406 54.4902 319.475 54.4902Z" fill="#FFCC80"/>
<path d="M266.367 82.6211V133.142" stroke="white" stroke-width="7.43086" stroke-miterlimit="10"/>
<path d="M241.107 107.881H291.628" stroke="white" stroke-width="7.43086" stroke-miterlimit="10"/>
</g>
<g clip-path="url(#clip2_8997_281159)">
<path d="M348.62 158.787C348.122 158.799 345.157 159.021 344.649 158.607C343.726 157.859 343.975 151.579 344.26 151.277C344.544 150.975 345.155 150.778 345.339 151.04C345.524 151.302 346.087 153.783 346.336 154.109C346.586 154.436 347.832 154.875 348.501 154.678" fill="#1F161E"/>
<path d="M407.856 143.744C407.171 142.934 383.704 125.543 379.079 125.633C374.454 125.723 360.921 153.807 361.177 154.752C361.434 155.697 368.597 154.146 369.62 153.286C370.642 152.426 377.785 144.866 379.56 141.044C380.258 142.056 386.008 148.718 387.726 149.793C389.443 150.867 407.856 143.744 407.856 143.744Z" fill="#1F161E"/>
<path d="M347.871 158.954C348.26 159.263 416.016 160.51 421.616 158.954C427.216 157.398 428.695 157.553 428.617 154.286C428.54 151.02 417.647 142.695 416.248 142.695C414.104 142.695 392.044 144.441 374.548 150.896C367.567 152.038 348.369 154.192 348.369 154.192C348.055 155.334 347.492 157.438 347.871 158.954Z" fill="#FFCC80"/>
<path d="M432.263 112.286C435.915 113.905 440.408 134.816 439.797 135.501C439.186 136.187 434.008 138.545 434.008 138.545C433.908 143.637 429.595 155.824 428.301 156.355C419.205 153.767 413.611 145.701 413.611 143.492C413.611 141.283 406.684 142.976 406.151 142.36C405.902 142.105 405.619 141.885 405.311 141.707C405.311 141.707 409.05 138.466 411.975 136.361C411.873 135.461 411.09 118.594 412.1 117.009C414.109 113.865 427.71 110.269 432.263 112.286Z" fill="#EF9A9A"/>
<path d="M434.039 138.539C433.042 139.01 423.984 142.915 420.02 143.742" stroke="#1F161E" stroke-width="0.137129" stroke-miterlimit="10" stroke-linecap="round"/>
<path d="M428.363 125.051C428.834 126.048 431.734 131.795 431.38 132.386C431.026 132.977 414.516 140.669 413.064 141.137" stroke="#1F161E" stroke-width="0.137129" stroke-miterlimit="10" stroke-linecap="round"/>
<path d="M414.67 123.572C414.577 125.702 414.637 136.113 414.991 139.958" stroke="#1F161E" stroke-width="0.137129" stroke-miterlimit="10" stroke-linecap="round"/>
<path d="M413.065 141.139C413.214 141.45 414.256 144.46 414.366 145.113C414.476 145.766 410.212 146.629 408.726 146.556C407.24 146.484 405.428 145.105 405.428 143.475C405.428 141.844 407.659 140.69 413.065 141.139Z" fill="#EED0C3"/>
<path d="M419.07 114.532C419.219 115.243 423.139 114.48 422.982 113.717L421.99 108.975L418.08 109.79L419.07 114.532Z" fill="#EED0C3"/>
<path d="M422.581 111.803C422.494 111.381 421.222 110.127 420.529 110.526C421.379 110.01 421.604 108.808 421.99 108.965L422.581 111.803Z" fill="black"/>
<path d="M417.573 111.451C420.439 111.451 422.762 109.128 422.762 106.263C422.762 103.397 420.439 101.074 417.573 101.074C414.708 101.074 412.385 103.397 412.385 106.263C412.385 109.128 414.708 111.451 417.573 111.451Z" fill="#EED0C3"/>
<path d="M412.676 108.459C413.144 108.361 413.481 108.084 413.431 107.84C413.38 107.596 412.959 107.478 412.491 107.575C412.024 107.673 411.686 107.95 411.737 108.194C411.788 108.438 412.208 108.556 412.676 108.459Z" fill="#EF9A9A"/>
<path d="M418.002 107.347C418.47 107.25 418.808 106.973 418.757 106.729C418.706 106.485 418.285 106.366 417.818 106.464C417.35 106.561 417.012 106.838 417.063 107.082C417.114 107.326 417.534 107.445 418.002 107.347Z" fill="#EF9A9A"/>
<path d="M414.458 106.668C414.348 106.917 413.733 108.044 414.67 108.249" stroke="#1F161E" stroke-width="0.172035" stroke-miterlimit="10" stroke-linecap="round"/>
<path d="M416.609 109.003C416.859 108.943 417.19 108.552 417.34 108.223" stroke="#1F161E" stroke-width="0.172035" stroke-miterlimit="10" stroke-linecap="round"/>
<path d="M421.81 102.288C421.441 100.525 418.708 99.7246 416.998 100.081C414.275 100.65 411.096 102.006 410.587 102.325C409.737 102.839 409.795 103.846 409.864 104.175C410.151 105.546 410.829 106.294 412.385 106.197C412.388 105.688 412.472 105.183 412.634 104.701C413.022 104.451 413.486 104.346 413.943 104.404C414.355 104.459 417.895 105.305 420.279 104.806C420.69 105.185 421.959 107.77 421.994 108.967C422.7 108.86 423.512 106.319 423.328 105.115C423.259 104.705 423.094 104.316 422.847 103.981C422.6 103.646 422.278 103.373 421.907 103.185C421.872 102.926 421.837 102.427 421.81 102.288Z" fill="black"/>
<path d="M420.72 106.997C421.351 106.997 421.862 106.485 421.862 105.855C421.862 105.224 421.351 104.713 420.72 104.713C420.089 104.713 419.578 105.224 419.578 105.855C419.578 106.485 420.089 106.997 420.72 106.997Z" fill="#EED0C3"/>
</g>
<path d="M152.443 97.8223C153.992 99.2989 176.439 120.342 176.439 131.398C176.439 134.743 170.053 183.765 169.334 184.762H163.787C163.787 184.762 161.344 143.921 163.288 135.939C161.846 135.293 148.633 130.424 142.771 125.204C136.909 119.984 141.103 99.897 152.443 97.8223Z" fill="#1F161E"/>
<path d="M152.444 97.8229C154.188 98.1478 130.067 201.671 130.067 201.671H124.076C124.076 201.671 126.351 103.689 127.656 98.9193C133.871 96.9406 147.751 96.9406 152.444 97.8229Z" fill="#DC9E83"/>
<path d="M120.296 58.1181C126.689 53.3484 148.559 53.3484 171.219 54.3045C173.898 54.419 181.501 37.3928 184.743 34.9711C188.312 32.3056 194 34.7126 194 36.1302C194 39.2239 189.945 39.2977 189.087 40.2982C188.229 41.2986 180.559 65.1175 174.083 68.6247C171.99 69.7617 156.504 69.3852 155.423 70.8655C154.341 72.3459 153.35 96.9032 152.446 97.815C151.543 98.7269 130.136 99.4837 127.673 98.9225C127.537 97.0139 124.655 81.1839 123.932 79.9434C123.534 79.9065 117.774 90.1252 117.777 91.4136C117.777 93.1118 127.634 107.34 131.766 109.776C132.837 110.404 132.68 112.191 132.484 112.626C132.289 113.062 130.813 115.21 129.892 115.21C128.971 115.21 107.487 101.562 107.002 91.277C106.873 88.4971 112.058 64.2832 120.296 58.1181Z" fill="#5E4521"/>
<path d="M139.359 56.5972C139.477 58.0518 131.927 58.8418 131.801 57.2802L131.02 47.5562L138.577 46.877L139.359 56.5972Z" fill="#EED0C3"/>
<path d="M131.487 53.3642C131.417 52.5004 133.047 49.3513 134.526 49.7242C132.698 49.2184 131.634 47.0329 131.037 47.5572L131.487 53.3642Z" fill="black"/>
<path d="M137.578 50.2336C143.02 50.2336 147.432 45.566 147.432 39.8082C147.432 34.0504 143.02 29.3828 137.578 29.3828C132.136 29.3828 127.725 34.0504 127.725 39.8082C127.725 45.566 132.136 50.2336 137.578 50.2336Z" fill="#EED0C3"/>
<path d="M147.693 41.2075C148.597 41.126 149.298 40.6564 149.258 40.1587C149.218 39.661 148.452 39.3236 147.548 39.4051C146.643 39.4866 145.943 39.9562 145.983 40.4539C146.023 40.9517 146.788 41.2891 147.693 41.2075Z" fill="#FA9E9F"/>
<path d="M137.394 42.1353C138.298 42.0537 138.999 41.5842 138.959 41.0864C138.919 40.5887 138.153 40.2513 137.249 40.3329C136.344 40.4144 135.644 40.884 135.684 41.3817C135.724 41.8794 136.49 42.2168 137.394 42.1353Z" fill="#FA9E9F"/>
<path d="M143.473 38.7969C143.822 39.2325 145.545 41.0304 143.947 41.9681" stroke="#1F161E" stroke-width="0.398704" stroke-miterlimit="10" stroke-linecap="round"/>
<path d="M140.829 44.5348C140.337 44.5606 139.527 43.9995 139.084 43.4531" stroke="#1F161E" stroke-width="0.398704" stroke-miterlimit="10" stroke-linecap="round"/>
<path d="M127.708 34.5993C127.418 30.9925 131.954 27.8804 135.262 27.585C140.524 27.1088 143.472 27.2343 146.358 26.2265C150.489 24.7867 150.412 30.6565 150.468 31.3247C150.692 34.1341 149.865 35.9652 146.979 36.674C146.702 35.7032 146.282 34.7848 145.733 33.9532C144.893 33.6939 143.993 33.758 143.193 34.1341C142.471 34.4774 136.49 38.1433 131.881 38.5642C131.34 39.5277 130.44 45.2388 131.03 47.5609C129.683 47.7639 126.822 43.3412 126.494 40.9158C126.396 40.0846 126.484 39.2408 126.751 38.4522C127.018 37.6636 127.455 36.9522 128.029 36.375C127.938 35.8655 127.732 34.8835 127.708 34.5993Z" fill="black"/>
<path d="M131.633 43.1374C132.832 43.1374 133.804 42.1093 133.804 40.8412C133.804 39.573 132.832 38.5449 131.633 38.5449C130.435 38.5449 129.463 39.573 129.463 40.8412C129.463 42.1093 130.435 43.1374 131.633 43.1374Z" fill="#F8CDBA"/>
<path d="M131.749 109.774C127.618 107.337 117.764 93.1095 117.76 91.4113C117.76 90.5844 120.123 86.0916 121.927 82.9795L110.384 76.375C108.158 83.3892 106.94 89.9162 107.006 91.2784C107.488 101.564 128.954 115.19 129.875 115.19C130.796 115.19 132.272 113.06 132.468 112.605C132.663 112.151 132.823 110.401 131.749 109.774Z" fill="#EED0C3"/>
<path d="M184.742 34.9867C181.501 37.4084 173.898 54.4272 171.204 54.3202C166.644 54.1282 169.271 54.2242 164.896 54.1429L164.871 69.4894C169.948 69.4894 172.621 69.4192 174.065 68.6403C180.545 65.1332 188.218 41.3216 189.069 40.3138C189.92 39.306 193.982 39.2395 193.982 36.1459C193.999 34.7283 188.301 32.3213 184.742 34.9867Z" fill="#EED0C3"/>
</g>
<defs>
<clipPath id="clip0_8997_281159">
<rect width="440" height="160" fill="white"/>
</clipPath>
<clipPath id="clip1_8997_281159">
<rect width="138.403" height="124.974" fill="white" transform="translate(190 34)"/>
</clipPath>
<clipPath id="clip2_8997_281159">
<rect width="95.8507" height="59.7209" fill="white" transform="translate(344 100)"/>
</clipPath>
</defs>
</svg>
