<svg width="314" height="115" viewBox="0 0 314 115" fill="none" xmlns="http://www.w3.org/2000/svg">
<g clip-path="url(#clip0_8997_281215)">
<g opacity="0.76">
<path d="M199.839 46.8223H182.682C173.663 46.8223 166.352 54.1336 166.352 63.1526V98.6694C166.352 107.688 173.663 115 182.682 115H199.839C208.858 115 216.169 107.688 216.169 98.6694V63.1526C216.169 54.1336 208.858 46.8223 199.839 46.8223Z" fill="#C7C9E3"/>
</g>
<path d="M193.71 42.0533C197.933 42.0668 201.98 43.7504 204.966 46.7366C207.952 49.7229 209.636 53.7693 209.649 57.9925V93.5093C209.636 97.7325 207.952 101.779 204.966 104.765C201.98 107.751 197.933 109.435 193.71 109.448H176.553C172.33 109.435 168.283 107.751 165.297 104.765C162.311 101.779 160.627 97.7325 160.614 93.5093V57.9925C160.627 53.7693 162.311 49.7229 165.297 46.7366C168.283 43.7504 172.33 42.0668 176.553 42.0533H193.71ZM193.71 41.6621H176.553C167.571 41.6621 160.223 49.0109 160.223 57.9925V93.5093C160.223 102.491 167.571 109.84 176.553 109.84H193.71C202.692 109.84 210.041 102.491 210.041 93.5093V57.9925C210.041 49.0109 202.692 41.6621 193.71 41.6621Z" fill="black"/>
<path d="M185.132 41.6621H176.553C167.571 41.6621 160.223 49.0109 160.223 57.9925V61.4563H185.132V41.6621Z" fill="#F7D999"/>
<path d="M160.273 61.4707H209.984" stroke="black" stroke-width="0.39124" stroke-miterlimit="10"/>
<path d="M185.077 60.948V10.6592H137.203V-9.0332" stroke="#C7C9E3" stroke-width="0.652067" stroke-linecap="round" stroke-linejoin="round"/>
<path d="M184.141 86.2077C185.177 86.2077 186.016 85.3681 186.016 84.3324C186.016 83.2967 185.177 82.457 184.141 82.457C183.105 82.457 182.266 83.2967 182.266 84.3324C182.266 85.3681 183.105 86.2077 184.141 86.2077Z" fill="#999CBF"/>
<path d="M189.422 86.2077C190.458 86.2077 191.298 85.3681 191.298 84.3324C191.298 83.2967 190.458 82.457 189.422 82.457C188.386 82.457 187.547 83.2967 187.547 84.3324C187.547 85.3681 188.386 86.2077 189.422 86.2077Z" fill="#999CBF"/>
<path d="M194.707 86.2077C195.743 86.2077 196.583 85.3681 196.583 84.3324C196.583 83.2967 195.743 82.457 194.707 82.457C193.672 82.457 192.832 83.2967 192.832 84.3324C192.832 85.3681 193.672 86.2077 194.707 86.2077Z" fill="#999CBF"/>
<path d="M199.993 86.2077C201.028 86.2077 201.868 85.3681 201.868 84.3324C201.868 83.2967 201.028 82.457 199.993 82.457C198.957 82.457 198.117 83.2967 198.117 84.3324C198.117 85.3681 198.957 86.2077 199.993 86.2077Z" fill="#999CBF"/>
<path d="M205.274 86.2077C206.31 86.2077 207.149 85.3681 207.149 84.3324C207.149 83.2967 206.31 82.457 205.274 82.457C204.238 82.457 203.398 83.2967 203.398 84.3324C203.398 85.3681 204.238 86.2077 205.274 86.2077Z" fill="#999CBF"/>
<path d="M210.555 86.2077C211.591 86.2077 212.43 85.3681 212.43 84.3324C212.43 83.2967 211.591 82.457 210.555 82.457C209.519 82.457 208.68 83.2967 208.68 84.3324C208.68 85.3681 209.519 86.2077 210.555 86.2077Z" fill="#999CBF"/>
<path d="M184.141 97.1159C185.177 97.1159 186.016 96.2763 186.016 95.2406C186.016 94.2049 185.177 93.3652 184.141 93.3652C183.105 93.3652 182.266 94.2049 182.266 95.2406C182.266 96.2763 183.105 97.1159 184.141 97.1159Z" fill="#999CBF"/>
<path d="M189.422 97.1159C190.458 97.1159 191.298 96.2763 191.298 95.2406C191.298 94.2049 190.458 93.3652 189.422 93.3652C188.386 93.3652 187.547 94.2049 187.547 95.2406C187.547 96.2763 188.386 97.1159 189.422 97.1159Z" fill="#999CBF"/>
<path d="M194.707 97.1159C195.743 97.1159 196.583 96.2763 196.583 95.2406C196.583 94.2049 195.743 93.3652 194.707 93.3652C193.672 93.3652 192.832 94.2049 192.832 95.2406C192.832 96.2763 193.672 97.1159 194.707 97.1159Z" fill="#999CBF"/>
<path d="M199.993 97.1159C201.028 97.1159 201.868 96.2763 201.868 95.2406C201.868 94.2049 201.028 93.3652 199.993 93.3652C198.957 93.3652 198.117 94.2049 198.117 95.2406C198.117 96.2763 198.957 97.1159 199.993 97.1159Z" fill="#999CBF"/>
<path d="M205.274 97.1159C206.31 97.1159 207.149 96.2763 207.149 95.2406C207.149 94.2049 206.31 93.3652 205.274 93.3652C204.238 93.3652 203.398 94.2049 203.398 95.2406C203.398 96.2763 204.238 97.1159 205.274 97.1159Z" fill="#999CBF"/>
<path d="M210.555 97.1159C211.591 97.1159 212.43 96.2763 212.43 95.2406C212.43 94.2049 211.591 93.3652 210.555 93.3652C209.519 93.3652 208.68 94.2049 208.68 95.2406C208.68 96.2763 209.519 97.1159 210.555 97.1159Z" fill="#999CBF"/>
<path d="M186.868 91.6608C187.903 91.6608 188.743 90.8212 188.743 89.7855C188.743 88.7498 187.903 87.9102 186.868 87.9102C185.832 87.9102 184.992 88.7498 184.992 89.7855C184.992 90.8212 185.832 91.6608 186.868 91.6608Z" fill="#999CBF"/>
<path d="M192.149 91.6608C193.185 91.6608 194.024 90.8212 194.024 89.7855C194.024 88.7498 193.185 87.9102 192.149 87.9102C191.113 87.9102 190.273 88.7498 190.273 89.7855C190.273 90.8212 191.113 91.6608 192.149 91.6608Z" fill="#999CBF"/>
<path d="M197.434 91.6608C198.47 91.6608 199.309 90.8212 199.309 89.7855C199.309 88.7498 198.47 87.9102 197.434 87.9102C196.398 87.9102 195.559 88.7498 195.559 89.7855C195.559 90.8212 196.398 91.6608 197.434 91.6608Z" fill="#999CBF"/>
<path d="M202.715 91.6608C203.751 91.6608 204.591 90.8212 204.591 89.7855C204.591 88.7498 203.751 87.9102 202.715 87.9102C201.679 87.9102 200.84 88.7498 200.84 89.7855C200.84 90.8212 201.679 91.6608 202.715 91.6608Z" fill="#999CBF"/>
<path d="M208 91.6608C209.036 91.6608 209.876 90.8212 209.876 89.7855C209.876 88.7498 209.036 87.9102 208 87.9102C206.965 87.9102 206.125 88.7498 206.125 89.7855C206.125 90.8212 206.965 91.6608 208 91.6608Z" fill="#999CBF"/>
<path d="M213.282 91.6608C214.317 91.6608 215.157 90.8212 215.157 89.7855C215.157 88.7498 214.317 87.9102 213.282 87.9102C212.246 87.9102 211.406 88.7498 211.406 89.7855C211.406 90.8212 212.246 91.6608 213.282 91.6608Z" fill="#999CBF"/>
<path d="M186.868 102.571C187.903 102.571 188.743 101.731 188.743 100.696C188.743 99.6599 187.903 98.8203 186.868 98.8203C185.832 98.8203 184.992 99.6599 184.992 100.696C184.992 101.731 185.832 102.571 186.868 102.571Z" fill="#999CBF"/>
<path d="M192.149 102.571C193.185 102.571 194.024 101.731 194.024 100.696C194.024 99.6599 193.185 98.8203 192.149 98.8203C191.113 98.8203 190.273 99.6599 190.273 100.696C190.273 101.731 191.113 102.571 192.149 102.571Z" fill="#999CBF"/>
<path d="M197.434 102.571C198.47 102.571 199.309 101.731 199.309 100.696C199.309 99.6599 198.47 98.8203 197.434 98.8203C196.398 98.8203 195.559 99.6599 195.559 100.696C195.559 101.731 196.398 102.571 197.434 102.571Z" fill="#999CBF"/>
<path d="M202.715 102.571C203.751 102.571 204.591 101.731 204.591 100.696C204.591 99.6599 203.751 98.8203 202.715 98.8203C201.679 98.8203 200.84 99.6599 200.84 100.696C200.84 101.731 201.679 102.571 202.715 102.571Z" fill="#999CBF"/>
<path d="M208 102.571C209.036 102.571 209.876 101.731 209.876 100.696C209.876 99.6599 209.036 98.8203 208 98.8203C206.965 98.8203 206.125 99.6599 206.125 100.696C206.125 101.731 206.965 102.571 208 102.571Z" fill="#999CBF"/>
<path d="M213.282 102.571C214.317 102.571 215.157 101.731 215.157 100.696C215.157 99.6599 214.317 98.8203 213.282 98.8203C212.246 98.8203 211.406 99.6599 211.406 100.696C211.406 101.731 212.246 102.571 213.282 102.571Z" fill="#999CBF"/>
<path d="M133.999 50.2695C133.528 52.5179 130.104 80.4068 131.224 87.068C132.343 93.7292 150.596 107.687 151.395 107.931C152.327 107.247 153.698 105.006 153.698 105.006C153.698 105.006 140.314 89.4914 140.059 88.8693C139.803 88.2471 142.991 52.3185 142.991 52.3185L133.999 50.2695Z" fill="#1F161E"/>
<path d="M155.798 55.3461L142.142 111.044H137.543L142.204 52.9395L155.798 55.3461Z" fill="#EF5350"/>
<path d="M146.097 23.4551C147.983 23.4551 157.816 23.7736 159.593 27.2346C161.37 30.6956 159.695 46.6928 158.591 47.3131C157.995 47.6465 157.833 47.3224 157.659 48.0004C157.486 48.6785 155.797 55.3452 155.797 55.3452C154.724 55.375 139.08 53.0187 134.003 50.2637C134.032 49.4981 134.278 47.5068 134.278 47.3541C133.604 47.6297 132.788 47.6875 132.565 47.3541C130.583 44.3532 133.537 28.708 135.657 25.56C136.558 24.2095 143.072 23.4644 146.097 23.4551Z" fill="#FFF3E0"/>
<path d="M152.57 47.7451C153.032 47.7451 157.009 50.5392 156.668 51.912C156.948 50.8093 157.827 47.4023 157.827 47.4023C157.449 47.475 152.909 47.7507 152.57 47.7451Z" fill="#1F161E"/>
<path d="M148.531 25.2799C148.531 25.8871 143.742 25.8871 143.742 25.2799V19.1328H148.531V25.2799Z" fill="#EED0C3"/>
<path d="M145.785 20.5876C146.158 20.5876 148.533 21.6382 148.533 22.2231V19.1328C147.94 19.1328 145.785 20.5876 145.785 20.5876Z" fill="#1F161E"/>
<path d="M145.127 21.0381C147.7 21.0381 149.786 18.9524 149.786 16.3794C149.786 13.8065 147.7 11.7207 145.127 11.7207C142.555 11.7207 140.469 13.8065 140.469 16.3794C140.469 18.9524 142.555 21.0381 145.127 21.0381Z" fill="#EED0C3"/>
<path d="M143.554 9.56836C141.162 9.56836 139.672 11.0697 139.672 12.9939C139.672 14.594 140.059 15.4993 140.516 15.7284C140.804 14.1749 141.432 13.4559 141.952 13.1467C142.356 13.4559 143.047 14.2047 143.971 14.4357C144.895 14.6667 147.3 14.622 149.243 16.0339C149.878 15.4565 150.511 14.7058 150.511 13.821C150.511 12.9362 150.12 11.826 147.82 11.1852C146.3 10.7624 146.087 9.56836 143.554 9.56836Z" fill="#1F161E"/>
<path d="M140.777 17.7615C141.227 17.7615 141.593 17.5714 141.593 17.3368C141.593 17.1023 141.227 16.9121 140.777 16.9121C140.326 16.9121 139.961 17.1023 139.961 17.3368C139.961 17.5714 140.326 17.7615 140.777 17.7615Z" fill="#FA9E9F"/>
<path d="M145.906 17.7615C146.356 17.7615 146.722 17.5714 146.722 17.3368C146.722 17.1023 146.356 16.9121 145.906 16.9121C145.455 16.9121 145.09 17.1023 145.09 17.3368C145.09 17.5714 145.455 17.7615 145.906 17.7615Z" fill="#FA9E9F"/>
<path d="M142.77 16.457C142.617 16.675 141.838 17.5896 142.66 17.9584" stroke="#1F161E" stroke-width="0.186274" stroke-miterlimit="10" stroke-linecap="round"/>
<path d="M144.305 19.0266C144.551 19.0266 144.929 18.7211 145.128 18.4473" stroke="#1F161E" stroke-width="0.186274" stroke-miterlimit="10" stroke-linecap="round"/>
<path d="M149.436 17.9912C150.031 17.9912 150.513 17.5092 150.513 16.9146C150.513 16.3199 150.031 15.8379 149.436 15.8379C148.841 15.8379 148.359 16.3199 148.359 16.9146C148.359 17.5092 148.841 17.9912 149.436 17.9912Z" fill="#EED0C3"/>
<path d="M152.68 32.6211C152.596 33.6493 152.268 38.7309 152.391 39.3996C150.828 39.9435 136.519 46.7295 134.043 47.4746" stroke="#1F161E" stroke-width="0.186274" stroke-miterlimit="10" stroke-linecap="round"/>
<path d="M136.061 31.0176C135.731 32.1688 134.621 37.3937 135.402 39.8209" stroke="#1F161E" stroke-width="0.186274" stroke-miterlimit="10" stroke-linecap="round"/>
<path d="M139.715 45.0977C140.46 45.6211 147.602 48.7822 157.476 47.59" stroke="#1F161E" stroke-width="0.186274" stroke-miterlimit="10" stroke-linecap="round"/>
<path d="M139.031 39.8214C139.51 39.8978 137.949 38.6516 137.064 39.1155C136.18 39.5793 134.987 41.6786 135.231 42.1648C135.264 42.253 135.317 42.3328 135.384 42.3981C135.452 42.4635 135.534 42.5128 135.623 42.5425C135.712 42.5722 135.807 42.5814 135.901 42.5696C135.994 42.5577 136.084 42.525 136.163 42.474C136.403 42.3194 138.197 39.6873 139.031 39.8214Z" fill="#EED0C3"/>
<path d="M153.543 105.234C153.799 105.421 156.062 106.952 156.08 107.917C156.099 108.882 153.972 112.08 153.543 112.171C153.115 112.262 152.809 111.901 152.809 111.255C152.809 110.608 153.618 109.476 153.51 108.973C153.402 108.47 152.357 107.55 151.82 107.533" fill="#1F161E"/>
<path d="M141.705 111.043C141.705 111.486 141.962 114.269 141.448 114.528C140.934 114.787 135.26 114.94 135.003 114.683C134.746 114.426 134.59 113.884 134.817 113.729C135.044 113.574 137.238 113.135 137.536 112.93C137.835 112.725 138.246 111.626 138.095 111.043" fill="#1F161E"/>
<g clip-path="url(#clip1_8997_281215)">
<path d="M223.482 111.811C223.011 111.823 220.205 112.033 219.723 111.641C218.85 110.933 219.086 104.989 219.355 104.703C219.624 104.417 220.202 104.231 220.377 104.479C220.552 104.727 221.085 107.075 221.321 107.384C221.557 107.693 222.737 108.108 223.369 107.922" fill="#1F161E"/>
<path d="M279.548 97.5701C278.899 96.8032 256.688 80.3431 252.311 80.4281C247.933 80.513 235.124 107.095 235.367 107.989C235.61 108.883 242.39 107.415 243.357 106.601C244.325 105.787 251.086 98.6321 252.766 95.0144C253.427 95.9725 258.869 102.278 260.495 103.295C262.12 104.312 279.548 97.5701 279.548 97.5701Z" fill="#1F161E"/>
<path d="M222.772 111.969C223.14 112.261 287.272 113.441 292.572 111.969C297.872 110.496 299.272 110.643 299.199 107.551C299.126 104.46 288.815 96.5801 287.491 96.5801C285.462 96.5801 264.582 98.232 248.023 104.342C241.415 105.422 223.244 107.461 223.244 107.461C222.947 108.542 222.413 110.534 222.772 111.969Z" fill="#FFCC80"/>
<path d="M302.651 67.7962C306.108 69.3277 310.36 89.1199 309.782 89.7689C309.204 90.4178 304.303 92.6503 304.303 92.6503C304.208 97.4691 300.126 109.004 298.901 109.507C290.292 107.057 284.997 99.4231 284.997 97.3323C284.997 95.2414 278.441 96.8438 277.936 96.2609C277.7 96.0192 277.433 95.8112 277.141 95.6426C277.141 95.6426 280.68 92.5748 283.449 90.583C283.352 89.7311 282.611 73.7666 283.567 72.2658C285.469 69.29 298.342 65.887 302.651 67.7962Z" fill="#254B38"/>
<path d="M304.332 92.6445C303.388 93.0905 294.815 96.7861 291.062 97.5696" stroke="#1F161E" stroke-width="0.129793" stroke-miterlimit="10" stroke-linecap="round"/>
<path d="M298.957 79.8789C299.403 80.8229 302.147 86.2623 301.812 86.8216C301.477 87.3809 285.85 94.6611 284.477 95.1048" stroke="#1F161E" stroke-width="0.129793" stroke-miterlimit="10" stroke-linecap="round"/>
<path d="M285.998 78.4805C285.91 80.4958 285.967 90.3506 286.302 93.9895" stroke="#1F161E" stroke-width="0.129793" stroke-miterlimit="10" stroke-linecap="round"/>
<path d="M284.478 95.1041C284.62 95.3991 285.606 98.2474 285.71 98.8657C285.814 99.484 281.779 100.3 280.372 100.232C278.966 100.164 277.25 98.8586 277.25 97.3153C277.25 95.7719 279.362 94.6793 284.478 95.1041Z" fill="#EED0C3"/>
<path d="M290.163 69.9223C290.305 70.5948 294.015 69.8727 293.866 69.1506L292.927 64.6621L289.227 65.4338L290.163 69.9223Z" fill="#EED0C3"/>
<path d="M293.485 67.3394C293.403 66.9406 292.199 65.7536 291.543 66.1312C292.348 65.6427 292.56 64.5052 292.926 64.6539L293.485 67.3394Z" fill="black"/>
<path d="M288.747 67.0054C291.459 67.0054 293.658 64.8067 293.658 62.0945C293.658 59.3823 291.459 57.1836 288.747 57.1836C286.035 57.1836 283.836 59.3823 283.836 62.0945C283.836 64.8067 286.035 67.0054 288.747 67.0054Z" fill="#EED0C3"/>
<path d="M284.109 64.1748C284.552 64.0824 284.871 63.8203 284.823 63.5894C284.775 63.3584 284.377 63.2461 283.934 63.3385C283.492 63.4309 283.172 63.6931 283.22 63.924C283.268 64.1549 283.666 64.2672 284.109 64.1748Z" fill="#FA9E9F"/>
<path d="M289.152 63.1201C289.595 63.0277 289.914 62.7656 289.866 62.5347C289.818 62.3037 289.42 62.1914 288.977 62.2839C288.535 62.3763 288.215 62.6384 288.263 62.8693C288.311 63.1002 288.709 63.2125 289.152 63.1201Z" fill="#FA9E9F"/>
<path d="M285.796 62.4805C285.692 62.7165 285.109 63.7831 285.996 63.9766" stroke="#1F161E" stroke-width="0.162831" stroke-miterlimit="10" stroke-linecap="round"/>
<path d="M287.832 64.6879C288.068 64.6312 288.382 64.2607 288.523 63.9492" stroke="#1F161E" stroke-width="0.162831" stroke-miterlimit="10" stroke-linecap="round"/>
<path d="M292.754 58.3332C292.405 56.6648 289.819 55.9072 288.2 56.2447C285.623 56.7828 282.614 58.0665 282.133 58.3686C281.328 58.8547 281.382 59.8081 281.448 60.1196C281.72 61.4175 282.362 62.1255 283.834 62.0335C283.837 61.5519 283.916 61.0738 284.07 60.6175C284.437 60.3812 284.876 60.2818 285.309 60.3367C285.698 60.3886 289.049 61.1886 291.306 60.7167C291.695 61.0754 292.896 63.5225 292.929 64.6553C293.597 64.5538 294.366 62.1491 294.192 61.0093C294.126 60.6208 293.97 60.2532 293.736 59.936C293.503 59.6187 293.198 59.3607 292.846 59.1827C292.813 58.9373 292.78 58.4653 292.754 58.3332Z" fill="black"/>
<path d="M291.725 62.7905C292.322 62.7905 292.806 62.3066 292.806 61.7097C292.806 61.1128 292.322 60.6289 291.725 60.6289C291.128 60.6289 290.645 61.1128 290.645 61.7097C290.645 62.3066 291.128 62.7905 291.725 62.7905Z" fill="#EED0C3"/>
</g>
</g>
<defs>
<clipPath id="clip0_8997_281215">
<path d="M0 8C0 3.58172 3.58172 0 8 0H306C310.418 0 314 3.58172 314 8V115H0V8Z" fill="white"/>
</clipPath>
<clipPath id="clip1_8997_281215">
<rect width="90.7227" height="56.5259" fill="white" transform="translate(219.109 56.166)"/>
</clipPath>
</defs>
</svg>
