<svg width="314" height="115" viewBox="0 0 314 115" fill="none" xmlns="http://www.w3.org/2000/svg">
<path d="M0 8C0 3.58172 3.58172 0 8 0H306C310.418 0 314 3.58172 314 8V115H0V8Z" fill="#EAEAF5"/>
<path d="M203.318 13H118.139V69.0351H203.318V13Z" stroke="black" stroke-width="0.16102" stroke-miterlimit="10"/>
<path d="M118.139 15.9785H203.318" stroke="black" stroke-width="0.16102" stroke-miterlimit="10"/>
<path d="M149.94 20.9707H124.338V46.5729H149.94V20.9707Z" stroke="black" stroke-width="0.16102" stroke-miterlimit="10"/>
<path d="M154.852 23.2246H193.98" stroke="black" stroke-width="0.16102" stroke-miterlimit="10"/>
<path d="M154.852 27.0898H193.98" stroke="black" stroke-width="0.16102" stroke-miterlimit="10"/>
<path d="M154.852 30.9531H193.98" stroke="black" stroke-width="0.16102" stroke-miterlimit="10"/>
<path d="M154.852 34.8184H193.98" stroke="black" stroke-width="0.16102" stroke-miterlimit="10"/>
<path opacity="0.44" d="M137.14 27.7324L130.168 39.8089H144.112L137.14 27.7324Z" fill="#EF6C00"/>
<path d="M119.99 15.2539C120.39 15.2539 120.715 14.9295 120.715 14.5293C120.715 14.1291 120.39 13.8047 119.99 13.8047C119.59 13.8047 119.266 14.1291 119.266 14.5293C119.266 14.9295 119.59 15.2539 119.99 15.2539Z" fill="#EF9A9A"/>
<path d="M122.486 15.2539C122.886 15.2539 123.211 14.9295 123.211 14.5293C123.211 14.1291 122.886 13.8047 122.486 13.8047C122.086 13.8047 121.762 14.1291 121.762 14.5293C121.762 14.9295 122.086 15.2539 122.486 15.2539Z" fill="#51698F"/>
<path d="M124.982 15.2539C125.383 15.2539 125.707 14.9295 125.707 14.5293C125.707 14.1291 125.383 13.8047 124.982 13.8047C124.582 13.8047 124.258 14.1291 124.258 14.5293C124.258 14.9295 124.582 15.2539 124.982 15.2539Z" fill="#EF6C00"/>
<path d="M155.656 58.6902L158.071 56.5566H155.607L155.656 58.6902Z" fill="#EF9A9A"/>
<path d="M168.589 48.5859H156.57C154.731 48.5859 153.24 50.0768 153.24 51.9158V53.4681C153.24 55.3071 154.731 56.798 156.57 56.798H168.589C170.428 56.798 171.919 55.3071 171.919 53.4681V51.9158C171.919 50.0768 170.428 48.5859 168.589 48.5859Z" fill="#EF9A9A"/>
<path d="M160.084 53.416C160.484 53.416 160.809 53.0916 160.809 52.6914C160.809 52.2912 160.484 51.9668 160.084 51.9668C159.684 51.9668 159.359 52.2912 159.359 52.6914C159.359 53.0916 159.684 53.416 160.084 53.416Z" fill="white"/>
<path d="M162.58 53.416C162.98 53.416 163.305 53.0916 163.305 52.6914C163.305 52.2912 162.98 51.9668 162.58 51.9668C162.18 51.9668 161.855 52.2912 161.855 52.6914C161.855 53.0916 162.18 53.416 162.58 53.416Z" fill="white"/>
<path d="M165.076 53.416C165.476 53.416 165.801 53.0916 165.801 52.6914C165.801 52.2912 165.476 51.9668 165.076 51.9668C164.676 51.9668 164.352 52.2912 164.352 52.6914C164.352 53.0916 164.676 53.416 165.076 53.416Z" fill="white"/>
<path d="M232.14 34.5359L229.725 32.4023H232.188L232.14 34.5359Z" fill="#51698F"/>
<path d="M219.208 32.6445H231.227C233.066 32.6445 234.557 31.1537 234.557 29.3146V27.7624C234.557 25.9233 233.066 24.4325 231.227 24.4325H219.208C217.369 24.4325 215.878 25.9233 215.878 27.7624V29.3146C215.878 31.1537 217.369 32.6445 219.208 32.6445Z" fill="#51698F"/>
<path d="M227.713 29.2636C228.113 29.2636 228.437 28.9392 228.437 28.539C228.437 28.1389 228.113 27.8145 227.713 27.8145C227.313 27.8145 226.988 28.1389 226.988 28.539C226.988 28.9392 227.313 29.2636 227.713 29.2636Z" fill="white"/>
<path d="M225.217 29.2636C225.617 29.2636 225.941 28.9392 225.941 28.539C225.941 28.1389 225.617 27.8145 225.217 27.8145C224.817 27.8145 224.492 28.1389 224.492 28.539C224.492 28.9392 224.817 29.2636 225.217 29.2636Z" fill="white"/>
<path d="M222.721 29.2636C223.121 29.2636 223.445 28.9392 223.445 28.539C223.445 28.1389 223.121 27.8145 222.721 27.8145C222.321 27.8145 221.996 28.1389 221.996 28.539C221.996 28.9392 222.321 29.2636 222.721 29.2636Z" fill="white"/>
<path d="M120.875 52.4496C121.498 52.4496 122.002 51.945 122.002 51.3225C122.002 50.7 121.498 50.1953 120.875 50.1953C120.253 50.1953 119.748 50.7 119.748 51.3225C119.748 51.945 120.253 52.4496 120.875 52.4496Z" fill="#EF9A9A"/>
<path d="M221.105 99.3027C220.282 98.4058 219.533 95.8633 219.646 95.2031" stroke="white" stroke-width="0.0644081" stroke-linecap="round" stroke-linejoin="round"/>
<path d="M237.204 58.6504C236.796 60.5939 233.837 84.7019 234.805 90.46C235.772 96.218 251.551 108.283 252.242 108.494C253.047 107.903 254.232 105.966 254.232 105.966C254.232 105.966 242.662 92.5548 242.442 92.017C242.221 91.4792 244.976 60.4216 244.976 60.4216L237.204 58.6504Z" fill="#1F161E"/>
<path d="M256.048 63.0374L244.243 111.184H240.268L244.296 60.957L256.048 63.0374Z" fill="#EF9A9A"/>
<path d="M247.662 35.4707C249.292 35.4707 257.792 35.746 259.328 38.7378C260.864 41.7296 259.417 55.558 258.462 56.0942C257.947 56.3824 257.807 56.1022 257.657 56.6884C257.507 57.2745 256.047 63.0374 256.047 63.0374C255.119 63.0631 241.597 61.0262 237.207 58.6448C237.233 57.983 237.446 56.2617 237.446 56.1296C236.863 56.3679 236.157 56.4178 235.964 56.1296C234.251 53.5356 236.805 40.0115 238.637 37.2902C239.416 36.1228 245.047 35.4788 247.662 35.4707Z" fill="#FFCC80"/>
<path d="M253.26 56.4682C253.659 56.4682 257.097 58.8835 256.802 60.0702C257.044 59.1169 257.804 56.1719 257.804 56.1719C257.477 56.2347 253.553 56.473 253.26 56.4682Z" fill="#1F161E"/>
<path d="M249.767 37.048C249.767 37.573 245.627 37.573 245.627 37.048V31.7344H249.767V37.048Z" fill="#F8CDBA"/>
<path d="M247.393 32.9919C247.715 32.9919 249.768 33.9001 249.768 34.4057V31.7344C249.256 31.7344 247.393 32.9919 247.393 32.9919Z" fill="#1F161E"/>
<path d="M246.826 33.3804C249.05 33.3804 250.853 31.5774 250.853 29.3533C250.853 27.1292 249.05 25.3262 246.826 25.3262C244.602 25.3262 242.799 27.1292 242.799 29.3533C242.799 31.5774 244.602 33.3804 246.826 33.3804Z" fill="#F8CDBA"/>
<path d="M245.463 23.4668C243.396 23.4668 242.107 24.7646 242.107 26.428C242.107 27.8111 242.442 28.5937 242.837 28.7917C243.086 27.4488 243.629 26.8273 244.078 26.56C244.428 26.8273 245.025 27.4746 245.824 27.6743C246.622 27.8739 248.701 27.8353 250.381 29.0558C250.93 28.5567 251.477 27.9077 251.477 27.1429C251.477 26.378 251.139 25.4184 249.15 24.8645C247.837 24.4989 247.653 23.4668 245.463 23.4668Z" fill="#1F161E"/>
<path d="M243.063 30.5507C243.452 30.5507 243.768 30.3863 243.768 30.1835C243.768 29.9808 243.452 29.8164 243.063 29.8164C242.673 29.8164 242.357 29.9808 242.357 30.1835C242.357 30.3863 242.673 30.5507 243.063 30.5507Z" fill="#C62828"/>
<path d="M247.498 30.5507C247.888 30.5507 248.204 30.3863 248.204 30.1835C248.204 29.9808 247.888 29.8164 247.498 29.8164C247.109 29.8164 246.793 29.9808 246.793 30.1835C246.793 30.3863 247.109 30.5507 247.498 30.5507Z" fill="#C62828"/>
<path d="M244.784 29.4219C244.652 29.6103 243.979 30.4009 244.689 30.7197" stroke="#1F161E" stroke-width="0.16102" stroke-miterlimit="10" stroke-linecap="round"/>
<path d="M246.111 31.6434C246.324 31.6434 246.651 31.3793 246.823 31.1426" stroke="#1F161E" stroke-width="0.16102" stroke-miterlimit="10" stroke-linecap="round"/>
<path d="M250.548 30.7481C251.062 30.7481 251.479 30.3314 251.479 29.8174C251.479 29.3034 251.062 28.8867 250.548 28.8867C250.034 28.8867 249.617 29.3034 249.617 29.8174C249.617 30.3314 250.034 30.7481 250.548 30.7481Z" fill="#F8CDBA"/>
<path d="M253.352 43.3945C253.28 44.2834 252.996 48.676 253.103 49.2541C251.752 49.7242 239.382 55.5902 237.242 56.2343" stroke="#1F161E" stroke-width="0.16102" stroke-miterlimit="10" stroke-linecap="round"/>
<path d="M238.987 42.0078C238.702 43.0029 237.743 47.5195 238.417 49.6176" stroke="#1F161E" stroke-width="0.16102" stroke-miterlimit="10" stroke-linecap="round"/>
<path d="M242.145 54.1797C242.789 54.6322 248.962 57.3647 257.498 56.3341" stroke="#1F161E" stroke-width="0.16102" stroke-miterlimit="10" stroke-linecap="round"/>
<path d="M241.553 49.6179C241.967 49.6839 240.617 48.6067 239.853 49.0077C239.088 49.4086 238.057 51.2233 238.268 51.6436C238.297 51.7198 238.342 51.7888 238.4 51.8453C238.459 51.9018 238.529 51.9444 238.607 51.9701C238.684 51.9957 238.766 52.0037 238.847 51.9935C238.927 51.9832 239.005 51.955 239.073 51.9108C239.281 51.7772 240.832 49.502 241.553 49.6179Z" fill="#F8CDBA"/>
<path d="M254.101 106.164C254.321 106.325 256.278 107.649 256.294 108.483C256.31 109.317 254.471 112.082 254.101 112.16C253.73 112.239 253.466 111.927 253.466 111.368C253.466 110.809 254.165 109.83 254.072 109.396C253.978 108.961 253.075 108.166 252.611 108.151" fill="#1F161E"/>
<path d="M243.866 111.184C243.866 111.567 244.088 113.972 243.644 114.196C243.199 114.42 238.295 114.552 238.072 114.33C237.85 114.108 237.715 113.639 237.911 113.506C238.108 113.372 240.005 112.992 240.262 112.815C240.52 112.638 240.876 111.688 240.745 111.184" fill="#1F161E"/>
<path d="M153.189 93.3242H111V114.724H153.189V93.3242Z" fill="#8C6631"/>
<path d="M163.004 85.9219C163.139 86.727 165.435 105.133 165.807 105.438C166.179 105.742 170.129 106.417 170.467 105.911C170.535 105.106 170.628 92.2693 170.838 91.1212" fill="#1F161E"/>
<path d="M118.578 82.0817C116.986 81.2975 120.306 96.8424 129.045 96.8424C137.783 96.8424 152.493 83.5309 154.874 83.5309C160.131 83.5309 172.577 93.8523 173.552 93.8523C174.299 93.1052 175.794 91.7977 175.794 91.276C175.794 90.7543 163.878 71.1484 154.963 71.1484C151.505 71.1533 122.174 83.8578 118.578 82.0817Z" fill="#EF6C00"/>
<path d="M123.496 82.3451C125.243 81.9489 127.417 80.9232 129.341 79.875C124.107 81.5866 119.817 82.6929 118.579 82.081C117.735 81.6655 118.27 85.8263 120.253 89.8341C119.894 89.0596 119.382 83.2854 123.496 82.3451Z" fill="#1F161E"/>
<path d="M127.348 55.0752C128.725 55.1122 135.892 54.9013 137.856 56.7723C139.314 58.1603 143.845 70.0968 144.544 74.2881C141.5 75.8355 119.55 86.3453 112.756 81.724C112.607 78.1333 113.304 63.8588 117.747 56.373C119.371 55.291 126.025 55.0414 127.348 55.0752Z" fill="#51698F"/>
<path d="M130.14 51.6602H125.953V56.1591C125.953 57.2862 130.14 57.2765 130.14 56.1591V51.6602Z" fill="#F8CDBA"/>
<path d="M125.953 54.3751C125.953 53.8759 127.336 52.6216 128.191 52.6667C128.212 52.1112 126.238 51.3125 126.238 51.3125L125.953 52.0806V54.3751Z" fill="#1F161E"/>
<path d="M134.524 51.66C134.618 51.2245 134.666 50.7803 134.666 50.3348C134.666 47.0145 132.072 44.3223 128.869 44.3223C125.666 44.3223 123.072 47.0145 123.072 50.3348C123.072 50.7803 123.12 51.2245 123.214 51.66H134.524Z" fill="#1F161E"/>
<path d="M132.996 47.6064C132.286 47.4985 131.577 46.9397 131.083 46.5742C128.265 48.6385 126.46 48.6659 126.265 48.6659C126.07 48.6659 125.277 49.8059 124.911 49.9347L124.879 49.9154C124.988 50.5152 125.22 51.0859 125.561 51.5912C125.902 52.0965 126.344 52.5253 126.86 52.8504C127.376 53.1755 127.953 53.3898 128.556 53.4796C129.159 53.5695 129.774 53.533 130.362 53.3724C130.951 53.2117 131.499 52.9306 131.972 52.5467C132.446 52.1628 132.835 51.6847 133.113 51.1426C133.392 50.6005 133.555 50.0063 133.592 49.3978C133.629 48.7893 133.539 48.1798 133.328 47.608C133.217 47.6211 133.106 47.6206 132.996 47.6064Z" fill="#F8CDBA"/>
<path d="M125.73 45.0705C126.674 45.0705 127.44 44.3049 127.44 43.3604C127.44 42.416 126.674 41.6504 125.73 41.6504C124.785 41.6504 124.02 42.416 124.02 43.3604C124.02 44.3049 124.785 45.0705 125.73 45.0705Z" fill="#1F161E"/>
<path d="M126.49 48.5742C126.306 48.583 126.131 48.6625 126.004 48.7964C125.876 48.9303 125.805 49.1082 125.805 49.2932C125.805 49.4782 125.876 49.6561 126.004 49.7899C126.131 49.9238 126.306 50.0034 126.49 50.0121" stroke="#1F161E" stroke-width="0.16102" stroke-miterlimit="10" stroke-linecap="round"/>
<path d="M131.971 48.666C132.182 48.9478 132.724 49.4421 131.971 49.9655" stroke="#1F161E" stroke-width="0.16102" stroke-miterlimit="10" stroke-linecap="round"/>
<path d="M129.688 50.3418C129.688 50.5527 129.778 51.0567 130.23 51.1872" stroke="#1F161E" stroke-width="0.16102" stroke-miterlimit="10" stroke-linecap="round"/>
<path d="M128.284 50.3923C128.651 50.3923 128.948 50.238 128.948 50.0477C128.948 49.8574 128.651 49.7031 128.284 49.7031C127.918 49.7031 127.621 49.8574 127.621 50.0477C127.621 50.238 127.918 50.3923 128.284 50.3923Z" fill="#C62828"/>
<path d="M133.216 50.3923C133.583 50.3923 133.88 50.238 133.88 50.0477C133.88 49.8574 133.583 49.7031 133.216 49.7031C132.85 49.7031 132.553 49.8574 132.553 50.0477C132.553 50.238 132.85 50.3923 133.216 50.3923Z" fill="#C62828"/>
<path d="M137.705 67.5165L142.18 66.3652C142.61 67.0963 144.703 74.2794 144.703 74.2794L137.795 77.1906C137.885 75.83 138.158 69.5985 137.705 67.5165Z" fill="#F8CDBA"/>
<path d="M122.016 66.3906C122.016 66.9317 121.56 68.9911 121.291 69.9588" stroke="#1F161E" stroke-width="0.16102" stroke-miterlimit="10" stroke-linecap="round"/>
<path d="M137.704 67.5161C137.596 66.6643 136.965 61.8643 135.891 59.3379" stroke="#1F161E" stroke-width="0.16102" stroke-miterlimit="10" stroke-linecap="round"/>
<path d="M137.705 67.5165L142.18 66.3652C142.61 67.0963 144.703 74.2794 144.703 74.2794L137.795 77.1906C137.885 75.83 138.158 69.5985 137.705 67.5165Z" fill="#F8CDBA"/>
<path d="M173.686 93.4717C173.785 93.6327 175.119 95.2687 175.59 95.2864C176.062 95.3041 178.927 93.3638 178.801 92.9468C178.676 92.5297 176.879 92.8018 176.569 92.6553C176.26 92.5088 175.569 91.8196 175.457 91.5137" fill="#1F161E"/>
<path d="M166.641 105.607C166.608 105.786 166.426 107.894 166.753 108.235C167.079 108.576 170.488 109.169 170.686 108.781C170.884 108.393 169.398 107.341 169.284 107.023C169.17 106.704 169.145 105.734 169.284 105.432" fill="#1F161E"/>
<path d="M161.298 74.7303H146.135L149.745 65.1641H164.908L161.298 74.7303Z" fill="#969696"/>
<path d="M148.661 74.3691H133.498V74.7298H148.661V74.3691Z" fill="#969696"/>
<path d="M121.291 69.9589C121 71.0474 119.584 75.717 120.161 76.5221C120.737 77.3272 135.174 75.5028 139.037 74.3C140.021 73.978 140.75 73.1342 141.187 73.0247C141.747 72.9299 142.323 73.0454 142.803 73.3492C143.283 73.6529 143.634 74.1235 143.789 74.6704C142.246 75.4175 119.974 86.7887 112.757 81.7279C111.393 80.7505 113.786 68.835 113.895 68.2344C115.114 68.3809 121.291 69.9589 121.291 69.9589Z" fill="#F8CDBA"/>
<path d="M137.91 74.5911C138.345 74.4881 138.725 74.3867 139.037 74.29C140.021 73.968 140.751 73.1242 141.187 73.0148C141.747 72.9199 142.323 73.0354 142.803 73.3392C143.283 73.643 143.635 74.1135 143.789 74.6604" stroke="#1F161E" stroke-width="0.16102" stroke-miterlimit="10" stroke-linecap="round"/>
</svg>
