<svg width="314" height="115" viewBox="0 0 314 115" fill="none" xmlns="http://www.w3.org/2000/svg">
<g clip-path="url(#clip0_8997_281222)">
<g clip-path="url(#clip1_8997_281222)">
<path d="M182.748 45.4434H74.0508V116.949H182.748V45.4434Z" stroke="black" stroke-width="0.103079" stroke-miterlimit="10"/>
<path d="M74.0508 49.2441H182.748" stroke="black" stroke-width="0.103079" stroke-miterlimit="10"/>
<path d="M147.906 55.6133H82.2656V88.2842H147.906V55.6133Z" fill="#F2F2F2"/>
<path d="M83.7461 93.5098H133.678" stroke="black" stroke-width="0.103079" stroke-miterlimit="10"/>
<path d="M83.7461 98.4414H133.678" stroke="black" stroke-width="0.103079" stroke-miterlimit="10"/>
<path d="M83.7461 103.373H133.678" stroke="black" stroke-width="0.103079" stroke-miterlimit="10"/>
<path d="M83.7461 108.305H133.678" stroke="black" stroke-width="0.103079" stroke-miterlimit="10"/>
<path d="M76.4129 48.3199C76.9236 48.3199 77.3375 47.906 77.3375 47.3953C77.3375 46.8847 76.9236 46.4707 76.4129 46.4707C75.9022 46.4707 75.4883 46.8847 75.4883 47.3953C75.4883 47.906 75.9022 48.3199 76.4129 48.3199Z" fill="#AB8DE5"/>
<path d="M79.5984 48.3199C80.1091 48.3199 80.5231 47.906 80.5231 47.3953C80.5231 46.8847 80.1091 46.4707 79.5984 46.4707C79.0878 46.4707 78.6738 46.8847 78.6738 47.3953C78.6738 47.906 79.0878 48.3199 79.5984 48.3199Z" fill="#73E5E2"/>
<path d="M82.784 48.3199C83.2946 48.3199 83.7086 47.906 83.7086 47.3953C83.7086 46.8847 83.2946 46.4707 82.784 46.4707C82.2733 46.4707 81.8594 46.8847 81.8594 47.3953C81.8594 47.906 82.2733 48.3199 82.784 48.3199Z" fill="#50B89D"/>
<path d="M120.24 71.9193L110.326 66.1953V77.6433L120.24 71.9193Z" fill="#AF92FC"/>
<path d="M179.244 55.5938H151.516V71.0556H179.244V55.5938Z" fill="#F2F2F2"/>
<path d="M179.244 75.3848H151.516V90.8466H179.244V75.3848Z" fill="#F2F2F2"/>
<path d="M179.244 95.1758H151.516V110.638H179.244V95.1758Z" fill="#F2F2F2"/>
</g>
<g clip-path="url(#clip2_8997_281222)">
<path d="M134.299 37.8711C134.299 37.8711 137.999 34.8382 138.454 34.8382C138.908 34.8382 154.899 47.5337 157.449 50.8333C158.649 50.6846 161.549 49.834 161.549 49.834C161.549 49.834 143.347 24.7383 141.147 24.7383C138.948 24.7383 121.402 31.9388 121.402 31.9388L122.852 37.0861L134.299 37.8711Z" fill="#1F161E"/>
<path d="M91.2693 24.5073C93.1266 24.5073 94.6323 23.0016 94.6323 21.1443C94.6323 19.2869 93.1266 17.7812 91.2693 17.7812C89.4119 17.7812 87.9062 19.2869 87.9062 21.1443C87.9062 23.0016 89.4119 24.5073 91.2693 24.5073Z" fill="#EED0C3"/>
<path d="M103.746 30.5378C104.291 31.1282 108.922 37.5765 108.878 38.3943C108.834 39.2121 104.472 50.9258 104.109 51.3806C104.61 51.8791 106.652 53.1058 107.153 53.1058C107.654 53.1058 119.958 37.758 119.958 36.7062C119.958 35.6545 112.346 23.5253 107.955 23.2148" fill="#FB8C00"/>
<path d="M85.0098 17.2821C85.0098 14.4046 87.4522 13.3856 88.7686 13.3856C91.3641 13.3856 95.2431 14.5664 98.0945 14.5664C102.936 14.5664 105.855 11 108.82 11C113.545 11 116.079 14.1597 117.324 15.0321C119.838 16.7945 128.407 18.054 128.407 24.1394C128.407 29.713 125.731 32.7306 122.458 32.7306C119.184 32.7306 102.404 26.7852 102.404 26.7852C102.404 26.7852 97.0252 24.686 96.6622 24.229C96.2992 23.772 94.0011 22.6546 94.1236 19.1386C93.5332 18.7209 90.3932 20.1051 88.6089 19.0773C88.2156 19.6353 87.9758 20.2868 87.9136 20.9666C87.4806 20.9819 85.0098 20.2865 85.0098 17.2821Z" fill="#1F161E"/>
<path d="M87.3978 32.2258C89.3658 25.6922 102.601 22.5326 106.708 22.6047C110.814 22.6769 108.713 27.3256 122.084 30.9816C123.477 32.7309 124.592 42.75 123.337 45.7456H86.5013C86.5013 45.7456 86.2739 34.2331 87.3978 32.2258Z" fill="#FB8C00"/>
<path d="M97.6053 25.432C98.0602 26.0027 96.1163 27.529 95.6724 26.9627L92.4668 22.9349L94.4019 21.4043L97.6053 25.432Z" fill="#EED0C3"/>
<path d="M157.885 50.4567C157.974 50.7672 158.418 52.6192 158.77 52.8488C159.409 53.2643 163.194 51.8889 163.323 51.6549C163.452 51.421 163.45 51.0121 163.257 50.9508C163.065 50.8896 161.438 51.023 161.189 50.9377C160.939 50.8524 160.428 50.1724 160.417 49.7285" fill="#1F161E"/>
<path d="M177.961 42.412C178.285 42.412 180.183 42.2611 180.508 42.5257C181.099 43.0067 180.946 47.0323 180.758 47.2269C180.57 47.4215 180.183 47.544 180.064 47.3778C179.946 47.2116 179.581 45.6285 179.424 45.4098C179.266 45.1912 178.464 44.92 178.037 45.0447" fill="#1F161E"/>
<path d="M88.503 23.3189C88.8429 23.1062 89.0286 22.7903 88.9178 22.6132C88.807 22.436 88.4417 22.4648 88.1018 22.6775C87.7619 22.8901 87.5762 23.2061 87.687 23.3832C87.7978 23.5603 88.1631 23.5315 88.503 23.3189Z" fill="#EF9A9A"/>
<path d="M92.3663 20.9029C92.7062 20.6902 92.8919 20.3743 92.7811 20.1971C92.6703 20.02 92.305 20.0488 91.9651 20.2615C91.6252 20.4741 91.4394 20.7901 91.5502 20.9672C91.661 21.1443 92.0264 21.1155 92.3663 20.9029Z" fill="#EF9A9A"/>
<path d="M89.3868 21.3965C89.3737 21.6326 89.2141 22.691 90.0122 22.5794" stroke="#1F161E" stroke-width="0.150876" stroke-miterlimit="10" stroke-linecap="round"/>
<path d="M91.7539 22.6095C91.9354 22.4892 92.0797 22.0869 92.1016 21.7852" stroke="#1F161E" stroke-width="0.150876" stroke-miterlimit="10" stroke-linecap="round"/>
<path d="M93.8951 20.0344C94.383 20.0344 94.7785 19.6389 94.7785 19.151C94.7785 18.6631 94.383 18.2676 93.8951 18.2676C93.4072 18.2676 93.0117 18.6631 93.0117 19.151C93.0117 19.6389 93.4072 20.0344 93.8951 20.0344Z" fill="#EED0C3"/>
<path d="M83.7248 46.6833C82.9376 45.6512 82.7539 43.2218 82.7539 41.5316C83.3181 36.0935 84.7219 31.3573 87.606 26.3062C87.9559 25.7661 89.2984 25.9389 89.5477 26.3062C90.3721 29.6889 91.9377 40.5454 87.2758 46.7729C86.1169 46.7729 84.7 46.6833 83.7248 46.6833Z" fill="#FB8C00"/>
<path d="M88.6937 26.7508C89.5644 26.7508 90.2703 26.0449 90.2703 25.1742C90.2703 24.3035 89.5644 23.5977 88.6937 23.5977C87.823 23.5977 87.1172 24.3035 87.1172 25.1742C87.1172 26.0449 87.823 26.7508 88.6937 26.7508Z" fill="#EED0C3"/>
<path d="M104.738 55.8279C106.051 55.8279 107.115 54.7638 107.115 53.4511C107.115 52.1384 106.051 51.0742 104.738 51.0742C103.425 51.0742 102.361 52.1384 102.361 53.4511C102.361 54.7638 103.425 55.8279 104.738 55.8279Z" fill="#EED0C3"/>
<path d="M113.393 45.7485C116.648 41.6486 119.952 37.2556 119.952 36.7134C119.952 36.2083 118.168 33.1011 115.828 29.9961" stroke="#1F161E" stroke-width="0.218661" stroke-linecap="round" stroke-linejoin="round"/>
<path d="M103.746 30.5371C104.291 31.1275 108.922 37.5758 108.878 38.3936C108.854 38.8309 107.566 42.4454 106.344 45.7494" stroke="#1F161E" stroke-width="0.218661" stroke-linecap="round" stroke-linejoin="round"/>
<path d="M90.4709 34.1777C90.5234 38.0174 89.9833 42.3885 87.9629 45.7493" stroke="#1F161E" stroke-width="0.218661" stroke-linecap="round" stroke-linejoin="round"/>
<path d="M123.529 36.3652C124.531 36.3915 178.232 42.1401 178.232 42.1401V45.2232L123.348 45.7414" fill="#EF9A9A"/>
</g>
<g clip-path="url(#clip3_8997_281222)">
<path d="M172.292 108.888C171.806 108.901 168.92 109.117 168.424 108.714C167.526 107.985 167.769 101.87 168.046 101.576C168.323 101.282 168.917 101.09 169.097 101.345C169.277 101.6 169.825 104.016 170.068 104.334C170.311 104.652 171.525 105.079 172.175 104.887" fill="#1F161E"/>
<path d="M229.971 94.2409C229.304 93.4519 206.454 76.5184 201.95 76.6058C197.447 76.6932 184.269 104.039 184.519 104.959C184.769 105.88 191.744 104.369 192.739 103.532C193.735 102.694 200.69 95.3334 202.419 91.6117C203.099 92.5974 208.697 99.0843 210.37 100.131C212.042 101.177 229.971 94.2409 229.971 94.2409Z" fill="#1F161E"/>
<path d="M171.561 109.052C171.939 109.353 237.916 110.567 243.368 109.052C248.821 107.537 250.261 107.688 250.186 104.507C250.11 101.327 239.504 93.2207 238.142 93.2207C236.054 93.2207 214.573 94.9201 197.538 101.206C190.74 102.317 172.046 104.415 172.046 104.415C171.74 105.527 171.192 107.576 171.561 109.052Z" fill="#FFCC80"/>
<path d="M253.736 63.609C257.293 65.1846 261.668 85.5461 261.073 86.2137C260.478 86.8813 255.436 89.178 255.436 89.178C255.338 94.1354 251.138 106.002 249.878 106.519C241.022 103.999 235.574 96.1456 235.574 93.9946C235.574 91.8436 228.83 93.4921 228.31 92.8924C228.068 92.6438 227.793 92.4298 227.492 92.2564C227.492 92.2564 231.134 89.1003 233.982 87.0513C233.882 86.1749 233.12 69.7512 234.103 68.2071C236.06 65.1457 249.303 61.6449 253.736 63.609Z" fill="#EF9A9A"/>
<path d="M255.466 89.1738C254.495 89.6327 245.675 93.4345 241.814 94.2405" stroke="#1F161E" stroke-width="0.133526" stroke-miterlimit="10" stroke-linecap="round"/>
<path d="M249.94 76.0391C250.398 77.0102 253.222 82.6061 252.877 83.1815C252.532 83.7569 236.456 91.2465 235.043 91.7029" stroke="#1F161E" stroke-width="0.133526" stroke-miterlimit="10" stroke-linecap="round"/>
<path d="M236.606 74.5996C236.516 76.6729 236.574 86.8112 236.919 90.5547" stroke="#1F161E" stroke-width="0.133526" stroke-miterlimit="10" stroke-linecap="round"/>
<path d="M235.042 91.7044C235.187 92.0078 236.202 94.9381 236.309 95.5742C236.416 96.2103 232.264 97.0503 230.817 96.9799C229.37 96.9095 227.605 95.5669 227.605 93.9792C227.605 92.3914 229.778 91.2674 235.042 91.7044Z" fill="#EED0C3"/>
<path d="M240.89 65.7962C241.035 66.4881 244.852 65.7452 244.699 65.0023L243.732 60.3848L239.926 61.1786L240.89 65.7962Z" fill="#EED0C3"/>
<path d="M244.309 63.1378C244.224 62.7275 242.985 61.5063 242.311 61.8948C243.138 61.3922 243.357 60.2221 243.733 60.375L244.309 63.1378Z" fill="black"/>
<path d="M239.433 62.7957C242.223 62.7957 244.485 60.5338 244.485 57.7435C244.485 54.9533 242.223 52.6914 239.433 52.6914C236.643 52.6914 234.381 54.9533 234.381 57.7435C234.381 60.5338 236.643 62.7957 239.433 62.7957Z" fill="#EED0C3"/>
<path d="M234.664 59.8835C235.12 59.7884 235.449 59.5188 235.399 59.2812C235.35 59.0436 234.94 58.9281 234.485 59.0232C234.029 59.1182 233.7 59.3879 233.75 59.6255C233.8 59.863 234.209 59.9785 234.664 59.8835Z" fill="#EF9A9A"/>
<path d="M239.85 58.7995C240.305 58.7044 240.634 58.4348 240.585 58.1972C240.535 57.9597 240.126 57.8441 239.67 57.9392C239.215 58.0343 238.886 58.3039 238.935 58.5415C238.985 58.779 239.394 58.8946 239.85 58.7995Z" fill="#EF9A9A"/>
<path d="M236.399 58.1406C236.293 58.3834 235.693 59.4807 236.606 59.6798" stroke="#1F161E" stroke-width="0.167514" stroke-miterlimit="10" stroke-linecap="round"/>
<path d="M238.494 60.4122C238.737 60.354 239.06 59.9728 239.205 59.6523" stroke="#1F161E" stroke-width="0.167514" stroke-miterlimit="10" stroke-linecap="round"/>
<path d="M243.559 53.874C243.2 52.1576 240.539 51.3783 238.874 51.7255C236.223 52.279 233.127 53.5997 232.632 53.9105C231.804 54.4106 231.86 55.3914 231.928 55.7118C232.207 57.0471 232.867 57.7754 234.382 57.6807C234.385 57.1853 234.467 56.6935 234.625 56.2241C235.003 55.981 235.454 55.8787 235.9 55.9352C236.3 55.9886 239.748 56.8116 242.069 56.3261C242.469 56.6951 243.705 59.2126 243.739 60.378C244.426 60.2736 245.217 57.7997 245.038 56.6271C244.97 56.2275 244.81 55.8493 244.569 55.5229C244.329 55.1965 244.015 54.9311 243.654 54.748C243.62 54.4955 243.586 54.01 243.559 53.874Z" fill="black"/>
<path d="M242.499 58.4601C243.113 58.4601 243.611 57.9623 243.611 57.3482C243.611 56.7341 243.113 56.2363 242.499 56.2363C241.885 56.2363 241.387 56.7341 241.387 57.3482C241.387 57.9623 241.885 58.4601 242.499 58.4601Z" fill="#EED0C3"/>
</g>
</g>
<defs>
<clipPath id="clip0_8997_281222">
<path d="M0 8C0 3.58172 3.58172 0 8 0H306C310.418 0 314 3.58172 314 8V115H0V8Z" fill="white"/>
</clipPath>
<clipPath id="clip1_8997_281222">
<rect width="108.8" height="71.6091" fill="white" transform="translate(74 45.3906)"/>
</clipPath>
<clipPath id="clip2_8997_281222">
<rect width="98.1702" height="44.8256" fill="white" transform="translate(82.7539 11)"/>
</clipPath>
<clipPath id="clip3_8997_281222">
<rect width="93.3322" height="58.1518" fill="white" transform="translate(167.793 51.6445)"/>
</clipPath>
</defs>
</svg>
