<svg width="440" height="160" viewBox="0 0 440 160" fill="none" xmlns="http://www.w3.org/2000/svg">
<g clip-path="url(#clip0_8997_281128)">
<g clip-path="url(#clip1_8997_281128)">
<path d="M403 118.145H127V160H403V118.145Z" fill="#254B38"/>
<path d="M177.861 126.422H136.996V152.195H177.861V126.422Z" fill="#CCCCCC"/>
<path d="M153.424 78.4629H360.509C365.286 78.4629 369.867 80.3586 373.245 83.7329C376.622 87.1072 378.52 91.6837 378.52 96.4558V96.8156C378.52 101.588 376.622 106.164 373.245 109.538C369.867 112.913 365.286 114.808 360.509 114.808H153.424V78.4629Z" fill="#3B7858"/>
<path d="M389.622 35H166.939V52.1472H389.622V35Z" fill="#94CAAE"/>
<path d="M393.674 52.1934H149.682V75.1055H393.674V52.1934Z" fill="#7DBF9D"/>
<path d="M373.809 48.2791C376.411 48.2791 378.521 46.1717 378.521 43.5722C378.521 40.9726 376.411 38.8652 373.809 38.8652C371.207 38.8652 369.098 40.9726 369.098 43.5722C369.098 46.1717 371.207 48.2791 373.809 48.2791Z" fill="#E2E2E2"/>
<path d="M182.846 63.6523H359.127" stroke="black" stroke-width="2" stroke-miterlimit="10" stroke-linecap="round"/>
<path d="M180.434 38.9375V48.211" stroke="black" stroke-width="2" stroke-miterlimit="10" stroke-linecap="round"/>
<path d="M187.428 38.9375V48.211" stroke="black" stroke-width="2" stroke-miterlimit="10" stroke-linecap="round"/>
<path d="M194.424 38.9375V48.211" stroke="black" stroke-width="2" stroke-miterlimit="10" stroke-linecap="round"/>
<path d="M158.975 55.6348H153.424V71.6664H158.975V55.6348Z" fill="#CCCCCC"/>
<path d="M166.939 55.6348H161.389V71.6664H166.939V55.6348Z" fill="#CCCCCC"/>
<path d="M141.768 78.4629H358.759C369.626 78.4629 378.52 86.6352 378.52 96.6249C378.52 106.615 369.626 114.787 358.759 114.787H141.768" stroke="#CCCCCC" stroke-width="19.81" stroke-miterlimit="10"/>
<path d="M307.774 130.765L302.112 120.973L296.453 130.765V91.8066H307.774V130.765Z" fill="#A7532F"/>
<path d="M190.631 139.309H378.896" stroke="#CCCCCC" stroke-width="19.81" stroke-miterlimit="10"/>
</g>
<path d="M424.12 76.6582C424.729 79.5671 429.159 115.65 427.711 124.268C426.262 132.886 402.647 150.944 401.613 151.26C400.408 150.376 398.634 147.476 398.634 147.476C398.634 147.476 415.95 127.403 416.28 126.598C416.61 125.794 412.487 79.3092 412.487 79.3092L424.12 76.6582Z" fill="#1F161E"/>
<path d="M395.917 83.227L413.585 155.289H419.535L413.505 80.1133L395.917 83.227Z" fill="#EF5350"/>
<path d="M408.465 41.9668C406.026 41.9668 393.303 42.3789 391.004 46.8567C388.705 51.3345 390.872 72.0317 392.301 72.8342C393.072 73.2656 393.282 72.8463 393.506 73.7235C393.73 74.6008 395.916 83.2262 395.916 83.2262C397.304 83.2648 417.543 80.2161 424.113 76.6517C424.075 75.6612 423.756 73.0849 423.756 72.8872C424.629 73.2439 425.684 73.3186 425.974 72.8872C428.538 69.0047 424.716 48.763 421.973 44.6901C420.807 42.9429 412.379 41.9788 408.465 41.9668Z" fill="#FFF3E0"/>
<path d="M400.09 73.3927C399.492 73.3927 394.347 77.0077 394.788 78.7839C394.426 77.3571 393.289 72.9492 393.289 72.9492C393.778 73.0432 399.651 73.3999 400.09 73.3927Z" fill="#1F161E"/>
<path d="M405.316 44.328C405.316 45.1137 411.512 45.1137 411.512 44.328V36.375H405.316V44.328Z" fill="#EED0C3"/>
<path d="M408.871 38.2572C408.389 38.2572 405.316 39.6165 405.316 40.3732V36.375C406.083 36.375 408.871 38.2572 408.871 38.2572Z" fill="#1F161E"/>
<path d="M409.719 38.8381C406.39 38.8381 403.691 36.1395 403.691 32.8106C403.691 29.4818 406.39 26.7832 409.719 26.7832C413.048 26.7832 415.746 29.4818 415.746 32.8106C415.746 36.1395 413.048 38.8381 409.719 38.8381Z" fill="#EED0C3"/>
<path d="M411.759 24C414.853 24 416.781 25.9425 416.781 28.432C416.781 30.5022 416.28 31.6735 415.69 31.9699C415.316 29.96 414.504 29.0297 413.831 28.6296C413.308 29.0297 412.414 29.9985 411.219 30.2974C410.024 30.5962 406.912 30.5384 404.399 32.3652C403.577 31.618 402.757 30.6468 402.757 29.5021C402.757 28.3573 403.263 26.9209 406.24 26.0919C408.206 25.5448 408.481 24 411.759 24Z" fill="#1F161E"/>
<path d="M415.351 34.6009C414.768 34.6009 414.295 34.3549 414.295 34.0514C414.295 33.748 414.768 33.502 415.351 33.502C415.934 33.502 416.406 33.748 416.406 34.0514C416.406 34.3549 415.934 34.6009 415.351 34.6009Z" fill="#EF9A9A"/>
<path d="M408.714 34.6009C408.131 34.6009 407.658 34.3549 407.658 34.0514C407.658 33.748 408.131 33.502 408.714 33.502C409.297 33.502 409.77 33.748 409.77 34.0514C409.77 34.3549 409.297 34.6009 408.714 34.6009Z" fill="#EF9A9A"/>
<path d="M412.773 32.9121C412.971 33.1941 413.978 34.3774 412.915 34.8546" stroke="#1F161E" stroke-width="0.221977" stroke-miterlimit="10" stroke-linecap="round"/>
<path d="M410.789 36.2378C410.471 36.2378 409.982 35.8426 409.724 35.4883" stroke="#1F161E" stroke-width="0.221977" stroke-miterlimit="10" stroke-linecap="round"/>
<path d="M404.15 34.8973C403.381 34.8973 402.757 34.2736 402.757 33.5043C402.757 32.735 403.381 32.1113 404.15 32.1113C404.919 32.1113 405.543 32.735 405.543 33.5043C405.543 34.2736 404.919 34.8973 404.15 34.8973Z" fill="#EED0C3"/>
<path d="M399.95 53.8262C400.059 55.1565 400.483 61.731 400.324 62.5962C402.346 63.2999 420.86 72.0796 424.062 73.0436" stroke="#1F161E" stroke-width="0.221977" stroke-miterlimit="10" stroke-linecap="round"/>
<path d="M421.45 51.752C421.877 53.2413 423.313 60.0014 422.304 63.1417" stroke="#1F161E" stroke-width="0.221977" stroke-miterlimit="10" stroke-linecap="round"/>
<path d="M416.727 69.9688C415.763 70.646 406.523 74.7358 393.747 73.1933" stroke="#1F161E" stroke-width="0.221977" stroke-miterlimit="10" stroke-linecap="round"/>
<path d="M417.612 63.1414C416.993 63.2402 419.012 61.6279 420.157 62.228C421.302 62.8281 422.844 65.5442 422.529 66.1732C422.486 66.2873 422.418 66.3905 422.331 66.4751C422.243 66.5597 422.138 66.6235 422.022 66.6619C421.906 66.7003 421.784 66.7122 421.663 66.6969C421.542 66.6815 421.426 66.6393 421.324 66.5732C421.013 66.3732 418.692 62.9679 417.612 63.1414Z" fill="#EED0C3"/>
<path d="M398.829 147.773C398.499 148.014 395.571 149.995 395.547 151.244C395.523 152.492 398.275 156.63 398.829 156.748C399.384 156.866 399.779 156.399 399.779 155.563C399.779 154.726 398.733 153.261 398.873 152.61C399.013 151.96 400.365 150.769 401.059 150.747" fill="#1F161E"/>
<path d="M414.149 155.287C414.149 155.861 413.816 159.461 414.481 159.796C415.147 160.131 422.487 160.329 422.82 159.996C423.153 159.664 423.355 158.962 423.061 158.762C422.767 158.562 419.928 157.994 419.542 157.728C419.157 157.463 418.624 156.041 418.819 155.287" fill="#1F161E"/>
<path d="M120.97 154.537C120.83 154.913 119.905 157.091 120.068 157.59C120.366 158.492 124.916 160.025 125.206 159.894C125.496 159.762 125.792 159.345 125.655 159.142C125.517 158.939 123.894 157.828 123.721 157.554C123.547 157.28 123.563 156.21 123.876 155.76" fill="#1F161E"/>
<path d="M141.126 78.7129C142.277 79.81 158.954 95.4438 158.954 103.658C158.954 106.143 154.21 142.565 153.675 143.305H149.554C149.554 143.305 147.739 112.962 149.183 107.032C148.112 106.552 138.295 102.934 133.94 99.0561C129.585 95.1778 132.701 80.2543 141.126 78.7129Z" fill="#1F161E"/>
<path d="M141.125 78.7128C142.421 78.9542 124.5 155.867 124.5 155.867H120.049C120.049 155.867 121.739 83.0711 122.709 79.5274C127.326 78.0573 137.638 78.0573 141.125 78.7128Z" fill="#DC9E83"/>
<path d="M117.242 49.2154C121.991 45.6717 138.24 45.6717 155.075 46.3821C157.066 46.4671 162.715 33.8174 165.123 32.0182C167.775 30.0379 172 31.8262 172 32.8794C172 35.1779 168.988 35.2327 168.35 35.976C167.713 36.7193 162.015 54.4157 157.203 57.0213C155.648 57.8661 144.143 57.5864 143.339 58.6862C142.536 59.7861 141.799 78.031 141.128 78.7085C140.457 79.386 124.552 79.9482 122.722 79.5313C122.621 78.1133 120.48 66.3523 119.943 65.4307C119.648 65.4033 115.368 72.9953 115.37 73.9525C115.37 75.2142 122.694 85.7849 125.763 87.5951C126.559 88.0614 126.442 89.3889 126.297 89.7125C126.152 90.0362 125.055 91.6325 124.371 91.6325C123.687 91.6325 107.725 81.4924 107.365 73.851C107.269 71.7857 111.121 53.7958 117.242 49.2154Z" fill="#5E4521"/>
<path d="M150.106 142.842C150.106 143.245 149.976 145.631 150.3 146.034C150.883 146.761 155.648 146.47 155.874 146.237C156.099 146.004 156.239 145.508 156.04 145.365C155.84 145.223 153.95 144.797 153.706 144.608C153.463 144.419 153.105 143.412 153.242 142.875" fill="#1F161E"/>
<path d="M131.405 48.085C131.493 49.1657 125.883 49.7526 125.79 48.5924L125.209 41.368L130.824 40.8633L131.405 48.085Z" fill="#F8CDBA"/>
<path d="M125.555 45.6829C125.503 45.0411 126.714 42.7015 127.813 42.9785C126.455 42.6027 125.664 40.979 125.221 41.3685L125.555 45.6829Z" fill="black"/>
<path d="M130.083 43.3564C134.126 43.3564 137.403 39.8886 137.403 35.6108C137.403 31.3331 134.126 27.8652 130.083 27.8652C126.039 27.8652 122.762 31.3331 122.762 35.6108C122.762 39.8886 126.039 43.3564 130.083 43.3564Z" fill="#F8CDBA"/>
<path d="M137.598 36.6494C138.27 36.5888 138.79 36.2399 138.761 35.8701C138.731 35.5003 138.162 35.2497 137.49 35.3102C136.818 35.3708 136.298 35.7197 136.327 36.0895C136.357 36.4593 136.926 36.7099 137.598 36.6494Z" fill="#FA9E9F"/>
<path d="M129.944 37.3408C130.615 37.2802 131.136 36.9313 131.106 36.5615C131.076 36.1918 130.508 35.9411 129.836 36.0017C129.164 36.0622 128.643 36.4111 128.673 36.7809C128.703 37.1507 129.272 37.4013 129.944 37.3408Z" fill="#FA9E9F"/>
<path d="M134.461 34.8594C134.72 35.183 136.001 36.5188 134.813 37.2154" stroke="#1F161E" stroke-width="0.465864" stroke-miterlimit="10" stroke-linecap="round"/>
<path d="M132.495 39.122C132.13 39.1412 131.528 38.7243 131.199 38.3184" stroke="#1F161E" stroke-width="0.465864" stroke-miterlimit="10" stroke-linecap="round"/>
<path d="M122.749 31.7404C122.534 29.0607 125.904 26.7486 128.362 26.5292C132.271 26.1753 134.461 26.2686 136.605 25.5198C139.675 24.4501 139.618 28.8112 139.659 29.3076C139.825 31.3949 139.211 32.7553 137.067 33.2819C136.861 32.5606 136.549 31.8783 136.141 31.2605C135.517 31.0678 134.848 31.1154 134.254 31.3949C133.717 31.6499 129.274 34.3735 125.85 34.6862C125.448 35.4021 124.779 39.6451 125.217 41.3703C124.216 41.5212 122.091 38.2353 121.847 36.4333C121.775 35.8158 121.84 35.1889 122.038 34.603C122.236 34.0171 122.561 33.4886 122.988 33.0597C122.92 32.6812 122.767 31.9516 122.749 31.7404Z" fill="black"/>
<path d="M125.665 38.0839C126.556 38.0839 127.278 37.3201 127.278 36.3779C127.278 35.4357 126.556 34.6719 125.665 34.6719C124.775 34.6719 124.053 35.4357 124.053 36.3779C124.053 37.3201 124.775 38.0839 125.665 38.0839Z" fill="#F8CDBA"/>
<path d="M125.75 87.5913C122.68 85.781 115.359 75.2104 115.357 73.9487C115.357 73.3343 117.112 69.9963 118.452 67.6842L109.877 62.7773C108.223 67.9886 107.318 72.8379 107.367 73.8499C107.725 81.4913 123.673 91.6149 124.358 91.6149C125.042 91.6149 126.138 90.0323 126.284 89.695C126.429 89.3576 126.548 88.0575 125.75 87.5913Z" fill="#F8CDBA"/>
<path d="M165.123 32.0279C162.715 33.8272 157.066 46.4714 155.065 46.3919C151.676 46.2493 153.628 46.3206 150.378 46.2602L150.359 57.662C154.131 57.662 156.117 57.6098 157.19 57.0311C162.004 54.4255 167.705 36.7346 168.337 35.9858C168.97 35.237 171.987 35.1876 171.987 32.8892C172 31.8359 167.767 30.0477 165.123 32.0279Z" fill="#F8CDBA"/>
</g>
<defs>
<clipPath id="clip0_8997_281128">
<rect width="440" height="160" fill="white"/>
</clipPath>
<clipPath id="clip1_8997_281128">
<rect width="276" height="125" fill="white" transform="translate(127 35)"/>
</clipPath>
</defs>
</svg>
