<svg width="603" height="867" viewBox="0 0 603 867" fill="none" xmlns="http://www.w3.org/2000/svg">
<path d="M109.593 458.604C107.457 468.795 91.9396 595.197 97.0136 625.388C102.088 655.579 184.816 718.839 188.438 719.945C192.66 716.846 198.873 706.69 198.873 706.69C198.873 706.69 138.213 636.372 137.057 633.552C135.9 630.732 150.345 467.891 150.345 467.891L109.593 458.604Z" fill="#1F161E"/>
<path d="M208.39 481.615L146.497 734.057H125.652L146.776 470.707L208.39 481.615Z" fill="#7DBF9D"/>
<path d="M164.43 337.084C172.974 337.084 217.543 338.528 225.597 354.214C233.651 369.9 226.061 442.405 221.055 445.217C218.353 446.728 217.619 445.259 216.834 448.332C216.048 451.405 208.391 481.621 208.391 481.621C203.528 481.756 132.627 471.076 109.613 458.59C109.748 455.12 110.862 446.095 110.862 445.402C107.806 446.652 104.108 446.914 103.095 445.402C94.1121 431.801 107.502 360.892 117.11 346.624C121.196 340.503 150.72 337.126 164.43 337.084Z" fill="#999CBF"/>
<path d="M193.773 447.165C195.867 447.165 213.892 459.829 212.347 466.051C213.614 461.053 217.598 445.611 217.598 445.611C215.885 445.941 195.31 447.19 193.773 447.165Z" fill="#1F161E"/>
<path d="M175.46 345.352C175.46 348.104 153.754 348.104 153.754 345.352V317.491H175.46V345.352Z" fill="#EED0C3"/>
<path d="M163.016 324.085C164.704 324.085 175.468 328.846 175.468 331.497V317.491C172.784 317.491 163.016 324.085 163.016 324.085Z" fill="#1F161E"/>
<path d="M160.041 326.121C171.702 326.121 181.156 316.668 181.156 305.007C181.156 293.345 171.702 283.892 160.041 283.892C148.379 283.892 138.926 293.345 138.926 305.007C138.926 316.668 148.379 326.121 160.041 326.121Z" fill="#EED0C3"/>
<path d="M152.891 274.138C142.051 274.138 135.297 280.942 135.297 289.664C135.297 296.916 137.053 301.019 139.121 302.057C140.43 295.016 143.275 291.757 145.631 290.356C147.463 291.757 150.595 295.151 154.782 296.198C158.97 297.245 169.869 297.042 178.675 303.442C181.554 300.825 184.424 297.422 184.424 293.412C184.424 289.402 182.651 284.37 172.225 281.466C165.336 279.549 164.373 274.138 152.891 274.138Z" fill="#1F161E"/>
<path d="M140.307 311.271C142.35 311.271 144.005 310.409 144.005 309.346C144.005 308.283 142.35 307.421 140.307 307.421C138.265 307.421 136.609 308.283 136.609 309.346C136.609 310.409 138.265 311.271 140.307 311.271Z" fill="#FA9E9F"/>
<path d="M163.569 311.271C165.611 311.271 167.267 310.409 167.267 309.346C167.267 308.283 165.611 307.421 163.569 307.421C161.527 307.421 159.871 308.283 159.871 309.346C159.871 310.409 161.527 311.271 163.569 311.271Z" fill="#FA9E9F"/>
<path d="M149.349 305.363C148.657 306.351 145.128 310.496 148.851 312.168" stroke="#1F161E" stroke-width="0.844259" stroke-miterlimit="10" stroke-linecap="round"/>
<path d="M156.305 317.009C157.419 317.009 159.133 315.625 160.036 314.384" stroke="#1F161E" stroke-width="0.844259" stroke-miterlimit="10" stroke-linecap="round"/>
<path d="M179.56 312.321C182.255 312.321 184.439 310.136 184.439 307.441C184.439 304.746 182.255 302.562 179.56 302.562C176.864 302.562 174.68 304.746 174.68 307.441C174.68 310.136 176.864 312.321 179.56 312.321Z" fill="#EED0C3"/>
<path d="M194.265 378.623C193.885 383.283 192.399 406.315 192.956 409.346C185.873 411.811 121.017 442.567 109.797 445.944" stroke="#1F161E" stroke-width="0.844259" stroke-miterlimit="10" stroke-linecap="round"/>
<path d="M118.943 371.354C117.449 376.571 112.417 400.253 115.954 411.253" stroke="#1F161E" stroke-width="0.844259" stroke-miterlimit="10" stroke-linecap="round"/>
<path d="M135.492 435.177C138.869 437.549 171.238 451.876 215.992 446.473" stroke="#1F161E" stroke-width="0.844259" stroke-miterlimit="10" stroke-linecap="round"/>
<path d="M132.392 411.25C134.562 411.596 127.487 405.948 123.477 408.05C119.467 410.153 114.064 419.667 115.17 421.871C115.319 422.271 115.555 422.632 115.863 422.928C116.17 423.225 116.539 423.448 116.945 423.583C117.35 423.717 117.78 423.759 118.203 423.705C118.626 423.652 119.032 423.504 119.391 423.272C120.48 422.572 128.61 410.642 132.392 411.25Z" fill="#EED0C3"/>
<path d="M198.188 707.732C199.345 708.577 209.603 715.516 209.687 719.89C209.772 724.263 200.13 738.759 198.188 739.173C196.247 739.586 194.862 737.948 194.862 735.019C194.862 732.089 198.526 726.956 198.036 724.677C197.547 722.397 192.81 718.227 190.379 718.151" fill="#1F161E"/>
<path d="M144.527 734.062C144.527 736.072 145.692 748.685 143.362 749.859C141.032 751.032 115.316 751.724 114.151 750.559C112.986 749.394 112.276 746.937 113.306 746.237C114.336 745.536 124.282 743.544 125.633 742.615C126.984 741.686 128.849 736.705 128.165 734.062" fill="#1F161E"/>
<g opacity="0.76">
<path d="M422.37 401.48H334.371C288.113 401.48 250.613 438.98 250.613 485.238V667.402C250.613 713.661 288.113 751.16 334.371 751.16H422.37C468.628 751.16 506.127 713.661 506.127 667.402V485.238C506.127 438.98 468.628 401.48 422.37 401.48Z" fill="#C7C9E3"/>
</g>
<path d="M390.94 377.017C412.601 377.086 433.354 385.721 448.671 401.038C463.987 416.354 472.622 437.108 472.691 458.769V640.933C472.622 662.593 463.987 683.347 448.671 698.664C433.354 713.98 412.601 722.615 390.94 722.684H302.941C281.281 722.615 260.527 713.98 245.211 698.664C229.894 683.347 221.259 662.593 221.19 640.933V458.769C221.259 437.108 229.894 416.354 245.211 401.038C260.527 385.721 281.281 377.086 302.941 377.017H390.94ZM390.94 375.011H302.941C256.875 375.011 219.184 412.702 219.184 458.769V640.933C219.184 686.999 256.875 724.691 302.941 724.691H390.94C437.006 724.691 474.698 686.999 474.698 640.933V458.769C474.698 412.702 437.006 375.011 390.94 375.011Z" fill="black"/>
<path d="M346.941 375.011H302.941C256.875 375.011 219.184 412.702 219.184 458.769V476.534H346.941V375.011Z" fill="#F7D999"/>
<path d="M219.457 476.602H474.423" stroke="black" stroke-width="2.00666" stroke-miterlimit="10"/>
<path d="M346.662 473.93V216.002H101.121V115" stroke="#C7C9E3" stroke-width="3.34443" stroke-linecap="round" stroke-linejoin="round"/>
<path d="M341.853 603.481C347.165 603.481 351.472 599.175 351.472 593.863C351.472 588.551 347.165 584.244 341.853 584.244C336.541 584.244 332.234 588.551 332.234 593.863C332.234 599.175 336.541 603.481 341.853 603.481Z" fill="#999CBF"/>
<path d="M368.951 603.481C374.263 603.481 378.569 599.175 378.569 593.863C378.569 588.551 374.263 584.244 368.951 584.244C363.638 584.244 359.332 588.551 359.332 593.863C359.332 599.175 363.638 603.481 368.951 603.481Z" fill="#999CBF"/>
<path d="M396.052 603.481C401.364 603.481 405.671 599.175 405.671 593.863C405.671 588.551 401.364 584.244 396.052 584.244C390.74 584.244 386.434 588.551 386.434 593.863C386.434 599.175 390.74 603.481 396.052 603.481Z" fill="#999CBF"/>
<path d="M423.146 603.481C428.458 603.481 432.764 599.175 432.764 593.863C432.764 588.551 428.458 584.244 423.146 584.244C417.834 584.244 413.527 588.551 413.527 593.863C413.527 599.175 417.834 603.481 423.146 603.481Z" fill="#999CBF"/>
<path d="M450.251 603.481C455.564 603.481 459.87 599.175 459.87 593.863C459.87 588.551 455.564 584.244 450.251 584.244C444.939 584.244 440.633 588.551 440.633 593.863C440.633 599.175 444.939 603.481 450.251 603.481Z" fill="#999CBF"/>
<path d="M477.345 603.481C482.657 603.481 486.964 599.175 486.964 593.863C486.964 588.551 482.657 584.244 477.345 584.244C472.033 584.244 467.727 588.551 467.727 593.863C467.727 599.175 472.033 603.481 477.345 603.481Z" fill="#999CBF"/>
<path d="M341.853 659.444C347.165 659.444 351.472 655.138 351.472 649.826C351.472 644.513 347.165 640.207 341.853 640.207C336.541 640.207 332.234 644.513 332.234 649.826C332.234 655.138 336.541 659.444 341.853 659.444Z" fill="#999CBF"/>
<path d="M368.951 659.444C374.263 659.444 378.569 655.138 378.569 649.826C378.569 644.513 374.263 640.207 368.951 640.207C363.638 640.207 359.332 644.513 359.332 649.826C359.332 655.138 363.638 659.444 368.951 659.444Z" fill="#999CBF"/>
<path d="M396.052 659.444C401.364 659.444 405.671 655.138 405.671 649.826C405.671 644.513 401.364 640.207 396.052 640.207C390.74 640.207 386.434 644.513 386.434 649.826C386.434 655.138 390.74 659.444 396.052 659.444Z" fill="#999CBF"/>
<path d="M423.146 659.444C428.458 659.444 432.764 655.138 432.764 649.826C432.764 644.513 428.458 640.207 423.146 640.207C417.834 640.207 413.527 644.513 413.527 649.826C413.527 655.138 417.834 659.444 423.146 659.444Z" fill="#999CBF"/>
<path d="M450.251 659.444C455.564 659.444 459.87 655.138 459.87 649.826C459.87 644.513 455.564 640.207 450.251 640.207C444.939 640.207 440.633 644.513 440.633 649.826C440.633 655.138 444.939 659.444 450.251 659.444Z" fill="#999CBF"/>
<path d="M477.345 659.444C482.657 659.444 486.964 655.138 486.964 649.826C486.964 644.513 482.657 640.207 477.345 640.207C472.033 640.207 467.727 644.513 467.727 649.826C467.727 655.138 472.033 659.444 477.345 659.444Z" fill="#999CBF"/>
<path d="M355.841 631.454C361.153 631.454 365.46 627.148 365.46 621.835C365.46 616.523 361.153 612.217 355.841 612.217C350.529 612.217 346.223 616.523 346.223 621.835C346.223 627.148 350.529 631.454 355.841 631.454Z" fill="#999CBF"/>
<path d="M382.927 631.454C388.239 631.454 392.546 627.148 392.546 621.835C392.546 616.523 388.239 612.217 382.927 612.217C377.615 612.217 373.309 616.523 373.309 621.835C373.309 627.148 377.615 631.454 382.927 631.454Z" fill="#999CBF"/>
<path d="M410.04 631.454C415.353 631.454 419.659 627.148 419.659 621.835C419.659 616.523 415.353 612.217 410.04 612.217C404.728 612.217 400.422 616.523 400.422 621.835C400.422 627.148 404.728 631.454 410.04 631.454Z" fill="#999CBF"/>
<path d="M437.134 631.454C442.446 631.454 446.753 627.148 446.753 621.835C446.753 616.523 442.446 612.217 437.134 612.217C431.822 612.217 427.516 616.523 427.516 621.835C427.516 627.148 431.822 631.454 437.134 631.454Z" fill="#999CBF"/>
<path d="M464.244 631.454C469.556 631.454 473.862 627.148 473.862 621.835C473.862 616.523 469.556 612.217 464.244 612.217C458.931 612.217 454.625 616.523 454.625 621.835C454.625 627.148 458.931 631.454 464.244 631.454Z" fill="#999CBF"/>
<path d="M491.33 631.454C496.642 631.454 500.948 627.148 500.948 621.835C500.948 616.523 496.642 612.217 491.33 612.217C486.017 612.217 481.711 616.523 481.711 621.835C481.711 627.148 486.017 631.454 491.33 631.454Z" fill="#999CBF"/>
<path d="M355.841 687.421C361.153 687.421 365.46 683.114 365.46 677.802C365.46 672.49 361.153 668.184 355.841 668.184C350.529 668.184 346.223 672.49 346.223 677.802C346.223 683.114 350.529 687.421 355.841 687.421Z" fill="#999CBF"/>
<path d="M382.927 687.421C388.239 687.421 392.546 683.114 392.546 677.802C392.546 672.49 388.239 668.184 382.927 668.184C377.615 668.184 373.309 672.49 373.309 677.802C373.309 683.114 377.615 687.421 382.927 687.421Z" fill="#999CBF"/>
<path d="M410.04 687.421C415.353 687.421 419.659 683.114 419.659 677.802C419.659 672.49 415.353 668.184 410.04 668.184C404.728 668.184 400.422 672.49 400.422 677.802C400.422 683.114 404.728 687.421 410.04 687.421Z" fill="#999CBF"/>
<path d="M437.134 687.421C442.446 687.421 446.753 683.114 446.753 677.802C446.753 672.49 442.446 668.184 437.134 668.184C431.822 668.184 427.516 672.49 427.516 677.802C427.516 683.114 431.822 687.421 437.134 687.421Z" fill="#999CBF"/>
<path d="M464.244 687.421C469.556 687.421 473.862 683.114 473.862 677.802C473.862 672.49 469.556 668.184 464.244 668.184C458.931 668.184 454.625 672.49 454.625 677.802C454.625 683.114 458.931 687.421 464.244 687.421Z" fill="#999CBF"/>
<path d="M491.33 687.421C496.642 687.421 500.948 683.114 500.948 677.802C500.948 672.49 496.642 668.184 491.33 668.184C486.017 668.184 481.711 672.49 481.711 677.802C481.711 683.114 486.017 687.421 491.33 687.421Z" fill="#999CBF"/>
</svg>
