<svg width="20" height="20" viewBox="0 0 20 20" fill="none" xmlns="http://www.w3.org/2000/svg">
<g id="close">
<path id="Icon" fill-rule="evenodd" clip-rule="evenodd" d="M3.58001 15.2442C3.25458 15.5697 3.25458 16.0973 3.58001 16.4227C3.90545 16.7482 4.43309 16.7482 4.75853 16.4227L10.0026 11.1787L15.2467 16.4227C15.5721 16.7482 16.0998 16.7482 16.4252 16.4227C16.7506 16.0973 16.7506 15.5697 16.4252 15.2442L11.1811 10.0002L16.4252 4.75609C16.7506 4.43065 16.7506 3.90301 16.4252 3.57757C16.0998 3.25214 15.5721 3.25214 15.2467 3.57757L10.0026 8.82166L4.75853 3.57757C4.43309 3.25214 3.90545 3.25214 3.58001 3.57757C3.25458 3.90301 3.25458 4.43065 3.58001 4.75609L8.8241 10.0002L3.58001 15.2442Z" fill="#8C979A"/>
</g>
</svg>
