<svg width="586" height="160" viewBox="0 0 586 160" fill="none" xmlns="http://www.w3.org/2000/svg">
<rect width="586" height="160" fill="#FFCDD2"/>
<path d="M259.336 96.7709C279.507 96.7709 295.859 93.1565 295.859 88.6979C295.859 84.2394 279.507 80.625 259.336 80.625C239.166 80.625 222.814 84.2394 222.814 88.6979C222.814 93.1565 239.166 96.7709 259.336 96.7709Z" fill="black"/>
<path d="M259.337 88.6973L238.816 152.899" stroke="black" stroke-width="4" stroke-miterlimit="10" stroke-linecap="round"/>
<path d="M259.336 88.6973L279.851 152.899" stroke="black" stroke-width="4" stroke-miterlimit="10" stroke-linecap="round"/>
<path d="M245.553 131.823L268.429 117.158" stroke="black" stroke-width="2" stroke-miterlimit="10" stroke-linecap="round"/>
<path d="M250.152 117.158L273.023 131.823" stroke="black" stroke-width="2" stroke-miterlimit="10" stroke-linecap="round"/>
<g clip-path="url(#clip0_7013_221912)">
<path d="M117.064 127.557C117.064 127.557 110.393 122.077 109.573 122.077C108.753 122.077 79.9221 145.018 75.3252 150.98C73.1608 150.711 67.9331 149.174 67.9331 149.174C67.9331 149.174 100.75 103.826 104.716 103.826C108.682 103.826 140.316 116.838 140.316 116.838L137.703 126.139L117.064 127.557Z" fill="#1F161E"/>
<path d="M194.647 103.406C191.299 103.406 188.584 100.685 188.584 97.3289C188.584 93.9727 191.299 91.252 194.647 91.252C197.996 91.252 200.711 93.9727 200.711 97.3289C200.711 100.685 197.996 103.406 194.647 103.406Z" fill="#FFEBEE"/>
<path d="M172.152 114.305C171.171 115.372 162.821 127.024 162.899 128.502C162.978 129.979 170.843 151.146 171.498 151.968C170.595 152.869 166.913 155.085 166.01 155.085C165.107 155.085 142.923 127.352 142.923 125.451C142.923 123.551 156.647 101.633 164.563 101.072" fill="#546B7D"/>
<path d="M205.932 90.3519C205.932 85.152 201.528 83.3108 199.155 83.3108C194.475 83.3108 187.481 85.4444 182.34 85.4444C173.611 85.4444 168.348 79 163.002 79C154.483 79 149.913 84.7095 147.67 86.286C143.136 89.4707 127.686 91.7466 127.686 102.743C127.686 112.815 132.511 118.267 138.413 118.267C144.315 118.267 174.569 107.524 174.569 107.524C174.569 107.524 184.268 103.731 184.922 102.905C185.577 102.079 189.72 100.06 189.5 93.7064C190.564 92.9518 196.225 95.4529 199.442 93.5958C200.152 94.604 200.584 95.7812 200.696 97.0097C201.477 97.0373 205.932 95.7808 205.932 90.3519Z" fill="#1F161E"/>
<path d="M201.627 117.354C198.079 105.548 174.215 99.8386 166.811 99.969C159.407 100.099 163.196 108.5 139.088 115.106C136.577 118.267 134.566 136.372 136.829 141.785H203.243C203.243 141.785 203.653 120.982 201.627 117.354Z" fill="#546B7D"/>
<path d="M183.224 105.079C182.404 106.11 185.908 108.868 186.709 107.845L192.488 100.567L188.999 97.8008L183.224 105.079Z" fill="#FFEBEE"/>
<path d="M74.541 150.3C74.3794 150.861 73.5791 154.208 72.9443 154.623C71.7931 155.373 64.9688 152.888 64.7362 152.465C64.5036 152.043 64.5075 151.304 64.8544 151.193C65.2014 151.082 68.1345 151.323 68.584 151.169C69.0334 151.015 69.9559 149.786 69.9757 148.984" fill="#1F161E"/>
<path d="M38.3418 135.763C37.7583 135.763 34.3363 135.49 33.7489 135.968C32.6844 136.838 32.9604 144.112 33.2994 144.464C33.6385 144.815 34.3363 145.036 34.5492 144.736C34.7621 144.436 35.4204 141.575 35.7043 141.18C35.9882 140.785 37.435 140.295 38.2038 140.52" fill="#1F161E"/>
<path d="M199.634 101.26C199.021 100.876 198.686 100.305 198.886 99.9849C199.086 99.6649 199.744 99.7169 200.357 100.101C200.97 100.485 201.305 101.056 201.105 101.376C200.905 101.696 200.247 101.644 199.634 101.26Z" fill="#999CBF"/>
<path d="M192.667 96.893C192.054 96.5087 191.719 95.9378 191.919 95.6177C192.119 95.2977 192.778 95.3497 193.39 95.734C194.003 96.1182 194.338 96.6891 194.138 97.0092C193.938 97.3292 193.28 97.2772 192.667 96.893Z" fill="#999CBF"/>
<path d="M198.043 97.7871C198.067 98.2138 198.355 100.126 196.916 99.9247" stroke="#1F161E" stroke-width="0.69" stroke-miterlimit="10" stroke-linecap="round"/>
<path d="M193.773 99.9779C193.446 99.7606 193.186 99.0335 193.147 98.4883" stroke="#1F161E" stroke-width="0.69" stroke-miterlimit="10" stroke-linecap="round"/>
<path d="M189.913 95.3274C189.033 95.3274 188.32 94.6127 188.32 93.7311C188.32 92.8494 189.033 92.1348 189.913 92.1348C190.793 92.1348 191.506 92.8494 191.506 93.7311C191.506 94.6127 190.793 95.3274 189.913 95.3274Z" fill="#FFEBEE"/>
<path d="M208.25 143.481C209.669 141.616 210 137.226 210 134.172C208.983 124.345 206.452 115.787 201.252 106.659C200.621 105.683 198.2 105.996 197.751 106.659C196.265 112.772 193.442 132.39 201.847 143.643C203.937 143.643 206.491 143.481 208.25 143.481Z" fill="#546B7D"/>
<path d="M199.292 107.461C197.722 107.461 196.45 106.186 196.45 104.613C196.45 103.039 197.722 101.764 199.292 101.764C200.862 101.764 202.135 103.039 202.135 104.613C202.135 106.186 200.862 107.461 199.292 107.461Z" fill="#FFEBEE"/>
<path d="M170.363 160.004C167.996 160.004 166.078 158.081 166.078 155.709C166.078 153.337 167.996 151.414 170.363 151.414C172.73 151.414 174.648 153.337 174.648 155.709C174.648 158.081 172.73 160.004 170.363 160.004Z" fill="#FFEBEE"/>
<path d="M154.758 141.789C148.888 134.38 142.93 126.442 142.93 125.462C142.93 124.55 146.148 118.935 150.366 113.324" stroke="#1F161E" stroke-linecap="round" stroke-linejoin="round"/>
<path d="M172.152 114.305C171.171 115.372 162.821 127.024 162.899 128.501C162.943 129.292 165.265 135.823 167.469 141.793" stroke="#1F161E" stroke-linecap="round" stroke-linejoin="round"/>
<path d="M196.087 120.883C195.993 127.821 196.967 135.72 200.609 141.793" stroke="#1F161E" stroke-linecap="round" stroke-linejoin="round"/>
<path d="M136.481 124.834C134.676 124.881 37.8532 135.269 37.8532 135.269V140.84L136.809 141.777" fill="#999CBF"/>
</g>
<path d="M420.303 139.242C420.87 139.242 424.213 139.035 424.78 139.511C425.803 140.373 425.418 147.443 425.091 147.795C424.763 148.147 424.072 148.338 423.869 148.043C423.666 147.749 423.065 144.945 422.796 144.568C422.527 144.192 419.483 143.558 418.725 143.765" fill="#1F161E"/>
<path d="M292.97 137.027L292.85 154.494" stroke="black" stroke-width="3" stroke-miterlimit="10" stroke-linecap="round"/>
<path d="M326.156 114.541C325.551 115.676 326.031 122.411 296.575 143.36C295.967 143.617 295.422 144.002 294.977 144.489C294.532 144.976 294.196 145.553 293.994 146.181C293.994 146.181 294.45 147.837 295.742 147.398C297.034 146.959 319.272 138.775 330.281 131.017C333.089 129.104 338.743 121.044 338.743 121.044L326.156 114.541Z" fill="#FFEBEE"/>
<path d="M343.212 113.008C344.065 114.478 350.1 127.305 350.1 128.614C350.1 129.923 349.172 143.21 346.654 151.175C345.705 151.303 342.512 151.821 342.512 153.73C342.512 154.256 343.651 155.963 346.314 155.959C347.171 155.959 350.315 154.977 350.969 153.929C351.624 152.881 358.839 131.762 358.971 129.14C359.104 126.519 358.512 117.402 357.658 115.696C356.805 113.989 343.212 113.008 343.212 113.008Z" fill="#1F161E"/>
<path d="M369.955 117.643C367.101 120.563 362.185 149.949 363.825 153.424C365.465 156.899 369.955 156.419 369.955 156.419C369.955 156.419 420.635 148.864 421.277 148.077C421.919 147.29 422.06 139.454 420.49 138.385C418.92 137.316 395.543 136.057 391.265 137.043C386.986 138.029 379.647 119.647 379.647 119.647L369.955 117.643Z" fill="#1F161E"/>
<path d="M425.861 144.83C426.429 144.83 429.771 144.623 430.339 145.099C431.362 145.961 430.976 153.031 430.649 153.383C430.322 153.735 429.63 153.925 429.427 153.631C429.224 153.337 428.624 150.537 428.355 150.156C428.085 149.775 425.041 149.146 424.283 149.353" fill="#1F161E"/>
<path d="M337.227 86.7988C335.951 86.9769 332.965 92.353 334.282 100.566C329.726 105.636 329.788 107.989 325.17 116.338C327.361 117.995 336.427 124.208 336.427 124.208C336.427 124.208 343.386 114.346 344.024 114.458C346.418 115.444 361.639 119.963 375.663 119.934C378.84 119.934 393.846 103.283 393.187 101.531C392.529 99.7794 362.19 83.3238 337.227 86.7988Z" fill="#7DBF9D"/>
<path d="M391.344 101.066C392.417 101.398 405.646 107.279 405.48 115.037C405.265 124.952 392.831 141.57 391.344 143.471C394.153 143.553 422.508 143.222 426.061 144.133C427.217 144.382 426.476 149.104 426.061 149.754C425.647 150.404 399.723 157.565 368.61 159.694C366.709 159.823 366.216 157.048 365.884 155.644C365.553 154.239 370.664 127.814 376.628 117.704C377.308 116.532 391.344 101.066 391.344 101.066Z" fill="#EBEEF3"/>
<path d="M293.932 149.39C296.452 149.39 298.496 148.124 298.496 146.561C298.496 144.999 296.452 143.732 293.932 143.732C291.411 143.732 289.367 144.999 289.367 146.561C289.367 148.124 291.411 149.39 293.932 149.39Z" fill="#FFEBEE"/>
<path d="M318.957 80.324C318.393 80.2743 316.509 77.9258 317.515 72.674C318.733 71.0793 322.763 70.574 322.9 72.3799C323.036 74.1857 320.676 80.4855 318.957 80.324Z" fill="#1F161E"/>
<path d="M334.974 93.7822C336.167 94.4201 338.971 89.3794 337.682 88.696L329.668 84.4258L326.955 89.5161L334.974 93.7822Z" fill="#FFEBEE"/>
<path d="M334.455 86.9733C333.739 86.5963 330.612 86.5591 330.512 87.7354C330.599 86.2484 329.05 84.6621 329.684 84.4219L334.455 86.9733Z" fill="black"/>
<path d="M326.059 90.1996C330.195 90.1996 333.547 86.8469 333.547 82.7111C333.547 78.5754 330.195 75.2227 326.059 75.2227C321.923 75.2227 318.57 78.5754 318.57 82.7111C318.57 86.8469 321.923 90.1996 326.059 90.1996Z" fill="#FFEBEE"/>
<path d="M318.785 85.3819C319.47 85.2879 319.985 84.9233 319.936 84.5675C319.887 84.2117 319.293 83.9995 318.608 84.0935C317.924 84.1875 317.409 84.5521 317.458 84.9079C317.506 85.2637 318.101 85.4759 318.785 85.3819Z" fill="#FA9E9F"/>
<path d="M326.567 84.3116C327.251 84.2176 327.766 83.853 327.717 83.4972C327.668 83.1414 327.074 82.9292 326.39 83.0232C325.705 83.1172 325.19 83.4818 325.239 83.8376C325.288 84.1934 325.882 84.4056 326.567 84.3116Z" fill="#FA9E9F"/>
<path d="M321.533 82.9844C321.35 83.3447 320.348 84.8813 321.673 85.2955" stroke="#1F161E" stroke-width="0.69" stroke-miterlimit="10" stroke-linecap="round"/>
<path d="M324.398 86.5618C324.767 86.4997 325.281 85.9695 325.529 85.5098" stroke="#1F161E" stroke-width="0.69" stroke-miterlimit="10" stroke-linecap="round"/>
<path d="M328.784 66.5739C338.692 66.5739 345.807 68.2016 350.446 68.2016C357.583 68.2016 363.216 65 371.214 65C374.862 65 384.215 68.0981 384.215 78.5853C384.215 84.5288 380.901 96.3331 366.707 96.3331C354.555 96.3331 352.434 91.1931 347.51 91.1931C342.316 91.1931 332.657 93.6409 331.025 87.0181C330.673 85.2578 330.275 83.0999 329.298 81.3272C323.856 79.4343 322.087 79.6 319.532 78.0841C315.829 76.3238 315.655 66.5739 328.784 66.5739Z" fill="#1F161E"/>
<path d="M330.633 84.0899C331.543 84.0899 332.281 83.3518 332.281 82.4414C332.281 81.531 331.543 80.793 330.633 80.793C329.722 80.793 328.984 81.531 328.984 82.4414C328.984 83.3518 329.722 84.0899 330.633 84.0899Z" fill="#FFEBEE"/>
<defs>
<clipPath id="clip0_7013_221912">
<rect width="177" height="81" fill="white" transform="matrix(-1 0 0 1 210 79)"/>
</clipPath>
</defs>
</svg>
