<svg width="314" height="115" viewBox="0 0 314 115" fill="none" xmlns="http://www.w3.org/2000/svg">
<g clip-path="url(#clip0_7013_221937)">
<path d="M0 8C0 3.58172 3.58172 0 8 0H306C310.418 0 314 3.58172 314 8V115H0V8Z" fill="#FFCDD2"/>
<path d="M178.015 66.4273C193.523 66.4273 206.095 63.6484 206.095 60.2205C206.095 56.7925 193.523 54.0137 178.015 54.0137C162.507 54.0137 149.936 56.7925 149.936 60.2205C149.936 63.6484 162.507 66.4273 178.015 66.4273Z" fill="black"/>
<path d="M178.016 60.2207L162.238 109.581" stroke="black" stroke-width="3.07536" stroke-miterlimit="10" stroke-linecap="round"/>
<path d="M178.016 60.2207L193.788 109.581" stroke="black" stroke-width="3.07536" stroke-miterlimit="10" stroke-linecap="round"/>
<path d="M167.418 93.3761L185.006 82.1016" stroke="black" stroke-width="1.53768" stroke-miterlimit="10" stroke-linecap="round"/>
<path d="M170.953 82.1016L188.537 93.3761" stroke="black" stroke-width="1.53768" stroke-miterlimit="10" stroke-linecap="round"/>
<g clip-path="url(#clip1_7013_221937)">
<path d="M68.6323 90.0969C68.6323 90.0969 63.5036 85.8834 62.8732 85.8834C62.2427 85.8834 40.0762 103.521 36.5419 108.105C34.8778 107.899 30.8586 106.717 30.8586 106.717C30.8586 106.717 56.0895 71.8516 59.1388 71.8516C62.1881 71.8516 86.5098 81.8552 86.5098 81.8552L84.5001 89.0063L68.6323 90.0969Z" fill="#1F161E"/>
<path d="M128.282 71.528C125.707 71.528 123.62 69.4362 123.62 66.8558C123.62 64.2754 125.707 62.1836 128.282 62.1836C130.856 62.1836 132.943 64.2754 132.943 66.8558C132.943 69.4362 130.856 71.528 128.282 71.528Z" fill="#FFEBEE"/>
<path d="M110.986 79.9062C110.232 80.7264 103.812 89.6851 103.872 90.8212C103.933 91.9574 109.98 108.231 110.483 108.863C109.789 109.556 106.958 111.26 106.264 111.26C105.57 111.26 88.5137 89.9372 88.5137 88.476C88.5137 87.0148 99.065 70.1638 105.151 69.7324" fill="#546B7D"/>
<path d="M136.959 61.4914C136.959 57.4936 133.573 56.078 131.749 56.078C128.151 56.078 122.773 57.7184 118.821 57.7184C112.11 57.7184 108.063 52.7637 103.953 52.7637C97.403 52.7637 93.8899 57.1534 92.1652 58.3655C88.6794 60.814 76.8005 62.5638 76.8005 71.0182C76.8005 78.7617 80.5106 82.9539 85.0482 82.9539C89.5857 82.9539 112.846 74.694 112.846 74.694C112.846 74.694 120.303 71.7776 120.806 71.1427C121.309 70.5078 124.495 68.9555 124.325 64.0706C125.144 63.4903 129.496 65.4133 131.97 63.9855C132.515 64.7606 132.847 65.6658 132.934 66.6102C133.534 66.6315 136.959 65.6655 136.959 61.4914Z" fill="#1F161E"/>
<path d="M133.649 82.253C130.921 73.1759 112.574 68.7862 106.881 68.8864C101.189 68.9867 104.102 75.4452 85.5665 80.5245C83.6357 82.9548 82.0898 96.8742 83.8297 101.036H134.892C134.892 101.036 135.207 85.0418 133.649 82.253Z" fill="#546B7D"/>
<path d="M119.5 72.8125C118.869 73.6054 121.564 75.7258 122.179 74.939L126.623 69.3433L123.941 67.2168L119.5 72.8125Z" fill="#FFEBEE"/>
<path d="M35.9395 107.582C35.8152 108.013 35.1999 110.586 34.7118 110.905C33.8268 111.483 28.5799 109.572 28.4011 109.247C28.2222 108.922 28.2253 108.354 28.492 108.268C28.7587 108.183 31.0139 108.369 31.3594 108.25C31.705 108.132 32.4143 107.187 32.4294 106.57" fill="#1F161E"/>
<path d="M8.10742 96.4052C7.65882 96.4052 5.02781 96.1956 4.57618 96.5632C3.75778 97.2315 3.96995 102.824 4.23063 103.095C4.4913 103.365 5.02781 103.535 5.19149 103.304C5.35517 103.073 5.86137 100.874 6.07961 100.57C6.29785 100.266 7.41026 99.8896 8.00133 100.063" fill="#1F161E"/>
<path d="M132.116 69.8777C131.645 69.5822 131.387 69.1433 131.541 68.8972C131.695 68.6511 132.201 68.6912 132.672 68.9866C133.143 69.282 133.401 69.721 133.247 69.967C133.094 70.2131 132.587 70.1731 132.116 69.8777Z" fill="#999CBF"/>
<path d="M126.759 66.5202C126.287 66.2248 126.03 65.7859 126.184 65.5398C126.337 65.2937 126.844 65.3337 127.315 65.6292C127.786 65.9246 128.043 66.3635 127.89 66.6096C127.736 66.8557 127.23 66.8157 126.759 66.5202Z" fill="#999CBF"/>
<path d="M130.894 67.209C130.912 67.5371 131.133 69.0074 130.027 68.8525" stroke="#1F161E" stroke-width="0.5305" stroke-miterlimit="10" stroke-linecap="round"/>
<path d="M127.609 68.8914C127.358 68.7243 127.158 68.1653 127.127 67.7461" stroke="#1F161E" stroke-width="0.5305" stroke-miterlimit="10" stroke-linecap="round"/>
<path d="M124.643 65.3159C123.966 65.3159 123.418 64.7664 123.418 64.0886C123.418 63.4108 123.966 62.8613 124.643 62.8613C125.319 62.8613 125.867 63.4108 125.867 64.0886C125.867 64.7664 125.319 65.3159 124.643 65.3159Z" fill="#FFEBEE"/>
<path d="M138.74 102.338C139.831 100.904 140.086 97.5286 140.086 95.1804C139.304 87.6252 137.358 81.0452 133.36 74.0278C132.875 73.2774 131.014 73.5174 130.668 74.0278C129.526 78.7273 127.355 93.8103 133.818 102.462C135.424 102.462 137.388 102.338 138.74 102.338Z" fill="#546B7D"/>
<path d="M131.854 74.6462C130.647 74.6462 129.668 73.6656 129.668 72.4559C129.668 71.2463 130.647 70.2656 131.854 70.2656C133.061 70.2656 134.039 71.2463 134.039 72.4559C134.039 73.6656 133.061 74.6462 131.854 74.6462Z" fill="#FFEBEE"/>
<path d="M109.611 115.044C107.792 115.044 106.317 113.565 106.317 111.742C106.317 109.918 107.792 108.439 109.611 108.439C111.431 108.439 112.906 109.918 112.906 111.742C112.906 113.565 111.431 115.044 109.611 115.044Z" fill="#FFEBEE"/>
<path d="M97.6133 101.039C93.1 95.343 88.5199 89.24 88.5199 88.4866C88.5199 87.7848 90.9933 83.4681 94.2366 79.1543" stroke="#1F161E" stroke-width="0.76884" stroke-linecap="round" stroke-linejoin="round"/>
<path d="M110.986 79.9062C110.232 80.7265 103.812 89.6851 103.872 90.8213C103.906 91.4288 105.691 96.4504 107.385 101.041" stroke="#1F161E" stroke-width="0.76884" stroke-linecap="round" stroke-linejoin="round"/>
<path d="M129.389 84.9648C129.316 90.2993 130.064 96.372 132.865 101.041" stroke="#1F161E" stroke-width="0.76884" stroke-linecap="round" stroke-linejoin="round"/>
<path d="M83.5609 88.002C82.1727 88.0384 7.73161 96.0249 7.73161 96.0249V100.308L83.8125 101.028" fill="#999CBF"/>
</g>
<path d="M301.774 99.0813C302.21 99.0813 304.78 98.9221 305.216 99.2883C306.003 99.9507 305.707 105.386 305.455 105.657C305.203 105.928 304.672 106.074 304.516 105.848C304.36 105.622 303.898 103.466 303.691 103.176C303.484 102.887 301.143 102.399 300.561 102.559" fill="#1F161E"/>
<path d="M203.876 97.377L203.783 110.806" stroke="black" stroke-width="2.30652" stroke-miterlimit="10" stroke-linecap="round"/>
<path d="M229.389 80.0898C228.924 80.9624 229.294 86.1402 206.646 102.247C206.179 102.445 205.76 102.741 205.418 103.115C205.075 103.489 204.818 103.933 204.662 104.416C204.662 104.416 205.012 105.689 206.006 105.352C206.999 105.014 224.097 98.7219 232.561 92.7575C234.72 91.2863 239.067 85.0894 239.067 85.0894L229.389 80.0898Z" fill="#FFEBEE"/>
<path d="M242.503 78.9102C243.159 80.0406 247.799 89.9028 247.799 90.9091C247.799 91.9153 247.085 102.131 245.149 108.255C244.42 108.353 241.965 108.751 241.965 110.219C241.965 110.624 242.841 111.936 244.888 111.933C245.547 111.933 247.964 111.178 248.467 110.372C248.971 109.567 254.518 93.3292 254.62 91.3135C254.722 89.2977 254.266 82.2888 253.61 80.9768C252.954 79.6649 242.503 78.9102 242.503 78.9102Z" fill="#1F161E"/>
<path d="M263.064 82.4746C260.87 84.7196 257.09 107.313 258.351 109.985C259.612 112.657 263.064 112.287 263.064 112.287C263.064 112.287 302.029 106.479 302.522 105.874C303.016 105.269 303.124 99.2438 301.917 98.4222C300.71 97.6006 282.737 96.6325 279.448 97.3904C276.158 98.1483 270.516 84.0159 270.516 84.0159L263.064 82.4746Z" fill="#1F161E"/>
<path d="M306.047 103.376C306.484 103.376 309.053 103.217 309.49 103.583C310.276 104.246 309.98 109.681 309.728 109.952C309.477 110.223 308.945 110.369 308.789 110.143C308.633 109.917 308.171 107.764 307.964 107.471C307.757 107.178 305.417 106.694 304.834 106.854" fill="#1F161E"/>
<path d="M237.903 58.76C236.922 58.8969 234.626 63.0303 235.639 69.345C232.136 73.2428 232.183 75.0515 228.633 81.4713C230.317 82.7451 237.288 87.5217 237.288 87.5217C237.288 87.5217 242.638 79.9396 243.128 80.0256C244.969 80.7835 256.672 84.2577 267.454 84.2354C269.897 84.2354 281.434 71.434 280.927 70.087C280.421 68.74 257.095 56.0883 237.903 58.76Z" fill="#7DBF9D"/>
<path d="M279.51 69.7305C280.335 69.9852 290.506 74.5071 290.379 80.4715C290.213 88.095 280.653 100.871 279.51 102.333C281.669 102.396 303.47 102.142 306.202 102.842C307.09 103.033 306.52 106.663 306.202 107.163C305.884 107.663 285.952 113.169 262.031 114.806C260.569 114.905 260.19 112.771 259.936 111.692C259.681 110.612 263.61 90.2955 268.196 82.5223C268.718 81.6211 279.51 69.7305 279.51 69.7305Z" fill="#EBEEF3"/>
<path d="M204.615 106.883C206.553 106.883 208.124 105.909 208.124 104.708C208.124 103.507 206.553 102.533 204.615 102.533C202.677 102.533 201.105 103.507 201.105 104.708C201.105 105.909 202.677 106.883 204.615 106.883Z" fill="#FFEBEE"/>
<path d="M223.855 53.7834C223.422 53.7451 221.973 51.9396 222.747 47.9017C223.683 46.6757 226.782 46.2872 226.887 47.6756C226.992 49.064 225.177 53.9076 223.855 53.7834Z" fill="#1F161E"/>
<path d="M236.169 64.1292C237.086 64.6196 239.242 60.7441 238.252 60.2187L232.09 56.9355L230.004 60.8492L236.169 64.1292Z" fill="#FFEBEE"/>
<path d="M235.77 58.8932C235.219 58.6035 232.815 58.5748 232.739 59.4792C232.806 58.336 231.615 57.1163 232.102 56.9316L235.77 58.8932Z" fill="black"/>
<path d="M229.316 61.3742C232.496 61.3742 235.073 58.7966 235.073 55.6168C235.073 52.4371 232.496 49.8594 229.316 49.8594C226.136 49.8594 223.559 52.4371 223.559 55.6168C223.559 58.7966 226.136 61.3742 229.316 61.3742Z" fill="#FFEBEE"/>
<path d="M223.724 57.6703C224.25 57.598 224.646 57.3177 224.608 57.0442C224.571 56.7706 224.114 56.6074 223.588 56.6797C223.061 56.752 222.665 57.0323 222.703 57.3059C222.74 57.5794 223.197 57.7426 223.724 57.6703Z" fill="#FA9E9F"/>
<path d="M229.706 56.848C230.232 56.7758 230.628 56.4954 230.591 56.2219C230.553 55.9483 230.096 55.7852 229.57 55.8574C229.044 55.9297 228.648 56.21 228.685 56.4836C228.723 56.7571 229.18 56.9203 229.706 56.848Z" fill="#FA9E9F"/>
<path d="M225.835 55.8262C225.695 56.1032 224.924 57.2846 225.943 57.6031" stroke="#1F161E" stroke-width="0.5305" stroke-miterlimit="10" stroke-linecap="round"/>
<path d="M228.039 58.5784C228.322 58.5306 228.717 58.123 228.908 57.7695" stroke="#1F161E" stroke-width="0.5305" stroke-miterlimit="10" stroke-linecap="round"/>
<path d="M231.411 43.2101C239.028 43.2101 244.499 44.4616 248.066 44.4616C253.552 44.4616 257.883 42 264.032 42C266.838 42 274.028 44.3819 274.028 52.4449C274.028 57.0145 271.481 66.0901 260.568 66.0901C251.224 66.0901 249.594 62.1383 245.808 62.1383C241.814 62.1383 234.388 64.0203 233.134 58.9284C232.863 57.575 232.557 55.9159 231.806 54.553C227.622 53.0977 226.262 53.2251 224.297 52.0596C221.45 50.7062 221.316 43.2101 231.411 43.2101Z" fill="#1F161E"/>
<path d="M232.832 56.6774C233.532 56.6774 234.099 56.1099 234.099 55.41C234.099 54.71 233.532 54.1426 232.832 54.1426C232.132 54.1426 231.564 54.71 231.564 55.41C231.564 56.1099 232.132 56.6774 232.832 56.6774Z" fill="#FFEBEE"/>
</g>
<defs>
<clipPath id="clip0_7013_221937">
<path d="M0 8C0 3.58172 3.58172 0 8 0H306C310.418 0 314 3.58172 314 8V115H0V8Z" fill="white"/>
</clipPath>
<clipPath id="clip1_7013_221937">
<rect width="136.085" height="62.2761" fill="white" transform="matrix(-1 0 0 1 140.084 52.7637)"/>
</clipPath>
</defs>
</svg>
