<svg width="440" height="160" viewBox="0 0 440 160" fill="none" xmlns="http://www.w3.org/2000/svg">
<g clip-path="url(#clip0_8997_281106)">
<path d="M392.876 133.022C393.626 133.022 398.039 132.749 398.788 133.377C400.139 134.515 399.63 143.85 399.198 144.314C398.766 144.779 397.853 145.031 397.585 144.643C397.317 144.254 396.524 140.552 396.168 140.055C395.813 139.557 391.794 138.72 390.793 138.994" fill="#1F161E"/>
<path d="M224.758 130.098L224.6 153.158" stroke="black" stroke-width="3" stroke-miterlimit="10" stroke-linecap="round"/>
<path d="M268.57 100.408C267.772 101.907 268.406 110.798 229.514 138.458C228.712 138.798 227.993 139.306 227.405 139.949C226.817 140.591 226.375 141.353 226.107 142.182C226.107 142.182 226.709 144.369 228.415 143.79C230.121 143.21 259.482 132.404 274.017 122.162C277.725 119.635 285.189 108.994 285.189 108.994L268.57 100.408Z" fill="#F8CDBA"/>
<path d="M291.092 98.3848C292.219 100.326 300.186 117.262 300.186 118.99C300.186 120.718 298.961 138.261 295.636 148.777C294.384 148.947 290.168 149.63 290.168 152.151C290.168 152.846 291.672 155.099 295.188 155.093C296.32 155.093 300.471 153.797 301.335 152.414C302.199 151.03 311.725 123.146 311.9 119.685C312.075 116.223 311.293 104.187 310.166 101.934C309.04 99.6808 291.092 98.3848 291.092 98.3848Z" fill="#1F161E"/>
<path d="M326.4 104.504C322.632 108.359 316.141 147.158 318.307 151.746C320.472 156.334 326.4 155.7 326.4 155.7C326.4 155.7 393.313 145.725 394.16 144.686C395.008 143.647 395.194 133.301 393.121 131.89C391.049 130.479 360.185 128.817 354.536 130.118C348.887 131.42 339.197 107.151 339.197 107.151L326.4 104.504Z" fill="#1F161E"/>
<path d="M400.216 140.399C400.965 140.399 405.379 140.126 406.128 140.754C407.478 141.892 406.97 151.227 406.538 151.691C406.106 152.156 405.193 152.408 404.925 152.02C404.657 151.631 403.864 147.935 403.508 147.431C403.153 146.928 399.134 146.097 398.133 146.371" fill="#1F161E"/>
<path d="M283.188 63.7808C281.504 64.016 277.561 71.1141 279.3 81.9581C273.285 88.6516 273.367 91.7577 267.27 102.782C270.162 104.97 282.133 113.172 282.133 113.172C282.133 113.172 291.32 100.152 292.162 100.299C295.323 101.601 315.42 107.567 333.936 107.529C338.13 107.529 357.943 85.5455 357.073 83.2323C356.204 80.9191 316.147 59.1928 283.188 63.7808Z" fill="#C7C9E3"/>
<path d="M354.639 82.6191C356.055 83.0566 373.522 90.8219 373.303 101.064C373.019 114.156 356.602 136.096 354.639 138.606C358.347 138.715 395.784 138.278 400.476 139.481C402.002 139.809 401.023 146.043 400.476 146.901C399.929 147.76 365.702 157.215 324.622 160.026C322.112 160.195 321.462 156.531 321.024 154.678C320.587 152.824 327.335 117.935 335.209 104.586C336.106 103.039 354.639 82.6191 354.639 82.6191Z" fill="#EBEEF3"/>
<path d="M226.026 146.421C229.355 146.421 232.053 144.749 232.053 142.686C232.053 140.623 229.355 138.951 226.026 138.951C222.698 138.951 220 140.623 220 142.686C220 144.749 222.698 146.421 226.026 146.421Z" fill="#F8CDBA"/>
<path d="M259.068 55.2334C258.324 55.1678 255.836 52.0672 257.165 45.1331C258.773 43.0277 264.094 42.3606 264.274 44.7448C264.455 47.1291 261.338 55.4467 259.068 55.2334Z" fill="#1F161E"/>
<path d="M280.212 72.9998C281.787 73.842 285.489 67.1868 283.788 66.2845L273.207 60.6465L269.625 67.3673L280.212 72.9998Z" fill="#F8CDBA"/>
<path d="M279.529 64.0112C278.583 63.5135 274.454 63.4643 274.323 65.0174C274.438 63.0542 272.392 60.9598 273.229 60.6426L279.529 64.0112Z" fill="black"/>
<path d="M268.446 68.2702C273.906 68.2702 278.333 63.8436 278.333 58.3831C278.333 52.9227 273.906 48.4961 268.446 48.4961C262.985 48.4961 258.559 52.9227 258.559 58.3831C258.559 63.8436 262.985 68.2702 268.446 68.2702Z" fill="#F8CDBA"/>
<path d="M258.842 61.91C259.746 61.7859 260.426 61.3045 260.362 60.8348C260.297 60.365 259.512 60.0848 258.609 60.2089C257.705 60.333 257.025 60.8144 257.089 61.2842C257.154 61.7539 257.939 62.0341 258.842 61.91Z" fill="#7DBF9D"/>
<path d="M269.116 60.4979C270.019 60.3738 270.7 59.8924 270.635 59.4226C270.571 58.9529 269.786 58.6727 268.882 58.7968C267.979 58.9209 267.298 59.4023 267.363 59.8721C267.427 60.3418 268.212 60.622 269.116 60.4979Z" fill="#7DBF9D"/>
<path d="M262.468 58.7441C262.227 59.2199 260.904 61.2487 262.653 61.7956" stroke="#1F161E" stroke-width="0.69" stroke-miterlimit="10" stroke-linecap="round"/>
<path d="M266.254 63.4691C266.741 63.3871 267.419 62.6871 267.747 62.0801" stroke="#1F161E" stroke-width="0.69" stroke-miterlimit="10" stroke-linecap="round"/>
<path d="M272.045 37.078C285.126 37.078 294.521 39.2272 300.646 39.2272C310.068 39.2272 317.505 35 328.065 35C332.883 35 345.23 39.0904 345.23 52.9367C345.23 60.784 340.856 76.3692 322.115 76.3692C306.07 76.3692 303.271 69.5828 296.769 69.5828C289.911 69.5828 277.159 72.8147 275.004 64.0706C274.539 61.7464 274.014 58.8974 272.724 56.5568C265.538 54.0577 263.203 54.2765 259.829 52.275C254.94 49.9509 254.71 37.078 272.045 37.078Z" fill="#1F161E"/>
<path d="M274.481 60.2045C275.683 60.2045 276.658 59.2301 276.658 58.028C276.658 56.826 275.683 55.8516 274.481 55.8516C273.279 55.8516 272.305 56.826 272.305 58.028C272.305 59.2301 273.279 60.2045 274.481 60.2045Z" fill="#F8CDBA"/>
<g clip-path="url(#clip1_8997_281106)">
<path d="M181.757 158.345C182.647 158.367 187.936 158.761 188.843 158.026C190.489 156.699 190.044 145.551 189.537 145.016C189.03 144.48 187.94 144.131 187.611 144.596C187.282 145.06 186.276 149.463 185.832 150.043C185.387 150.623 183.163 151.402 181.971 151.052" fill="#1F161E"/>
<path d="M76.0809 131.642C77.3041 130.204 119.169 99.3374 127.42 99.4967C135.671 99.656 159.815 149.503 159.357 151.18C158.899 152.857 146.12 150.105 144.296 148.578C142.472 147.051 129.729 133.634 126.562 126.85C125.316 128.646 115.059 140.471 111.994 142.378C108.93 144.286 76.0809 131.642 76.0809 131.642Z" fill="#1F161E"/>
<path d="M183.097 158.641C182.403 159.19 61.5231 161.402 51.5328 158.641C41.5425 155.879 38.9048 156.154 39.0427 150.357C39.1806 144.559 58.6141 129.783 61.1094 129.783C64.9347 129.783 104.291 132.881 135.503 144.338C147.957 146.365 182.207 150.188 182.207 150.188C182.767 152.215 183.773 155.95 183.097 158.641Z" fill="#FFCC80"/>
<path d="M32.5399 75.8084C26.0235 78.6804 18.0082 115.796 19.0979 117.013C20.1877 118.23 29.4262 122.416 29.4262 122.416C29.6042 131.453 37.2993 153.084 39.6078 154.026C55.8342 149.433 65.8156 135.117 65.8156 131.196C65.8156 127.275 78.1722 130.28 79.1241 129.187C79.5678 128.734 80.0722 128.343 80.623 128.027C80.623 128.027 73.951 122.274 68.7335 118.539C68.9158 116.942 70.3125 87.0045 68.5111 84.19C64.926 78.6096 40.662 72.2283 32.5399 75.8084Z" fill="#51698F"/>
<path d="M29.3676 122.406C31.1468 123.243 47.3065 130.173 54.3789 131.642" stroke="#1F161E" stroke-width="0.55" stroke-miterlimit="10" stroke-linecap="round"/>
<path d="M39.496 98.4648C38.6553 100.235 33.4822 110.435 34.1139 111.484C34.7455 112.533 64.2003 126.185 66.7891 127.017" stroke="#1F161E" stroke-width="0.55" stroke-miterlimit="10" stroke-linecap="round"/>
<path d="M63.9252 95.8418C64.0897 99.621 63.983 118.101 63.3514 124.925" stroke="#1F161E" stroke-width="0.55" stroke-miterlimit="10" stroke-linecap="round"/>
<path d="M66.7897 127.017C66.5229 127.57 64.6636 132.911 64.4679 134.071C64.2722 135.23 71.8783 136.762 74.5293 136.633C77.1803 136.505 80.4141 134.058 80.4141 131.163C80.4141 128.269 76.4331 126.22 66.7897 127.017Z" fill="#EED0C3"/>
<path d="M56.074 79.7957C55.8071 81.0569 48.8148 79.7028 49.095 78.3486L50.8653 69.9316L57.8398 71.3787L56.074 79.7957Z" fill="#EED0C3"/>
<path d="M49.81 74.9496C49.9657 74.2017 52.2342 71.9758 53.4707 72.6839C51.9539 71.7678 51.5536 69.6348 50.8642 69.9136L49.81 74.9496Z" fill="black"/>
<path d="M58.7417 74.3245C53.6296 74.3245 49.4854 70.2014 49.4854 65.1154C49.4854 60.0293 53.6296 55.9062 58.7417 55.9062C63.8538 55.9062 67.998 60.0293 67.998 65.1154C67.998 70.2014 63.8538 74.3245 58.7417 74.3245Z" fill="#EED0C3"/>
<path d="M67.4804 69.0142C66.646 68.8409 66.0432 68.3494 66.134 67.9163C66.2249 67.4833 66.975 67.2727 67.8094 67.446C68.6439 67.6193 69.2467 68.1108 69.1558 68.5439C69.065 68.9769 68.3149 69.1875 67.4804 69.0142Z" fill="#51698F"/>
<path d="M57.9804 67.0415C57.146 66.8682 56.5432 66.3767 56.634 65.9437C56.7249 65.5106 57.475 65.3001 58.3094 65.4733C59.1439 65.6466 59.7467 66.1382 59.6558 66.5712C59.565 67.0042 58.8149 67.2148 57.9804 67.0415Z" fill="#51698F"/>
<path d="M64.3029 65.8379C64.4986 66.2804 65.5973 68.2807 63.9248 68.6436" stroke="#1F161E" stroke-width="0.69" stroke-miterlimit="10" stroke-linecap="round"/>
<path d="M60.4648 69.9789C60.02 69.8727 59.4285 69.1779 59.1616 68.5938" stroke="#1F161E" stroke-width="0.69" stroke-miterlimit="10" stroke-linecap="round"/>
<path d="M51.1854 58.062C51.8438 54.9333 56.7188 53.5128 59.7701 54.1456C64.6274 55.1546 70.2986 57.562 71.206 58.1284C72.7228 59.04 72.6205 60.8279 72.4959 61.412C71.9844 63.8459 70.7746 65.1735 67.999 65.0009C67.9945 64.0979 67.8444 63.2014 67.5542 62.3457C66.8622 61.9026 66.0354 61.7161 65.219 61.8191C64.485 61.9165 58.1688 63.4167 53.9165 62.5316C53.1826 63.2043 50.9186 67.7933 50.8563 69.9175C49.5975 69.7272 48.1474 65.2178 48.4766 63.0804C48.6004 62.3519 48.8943 61.6625 49.3346 61.0676C49.775 60.4727 50.3495 59.9889 51.012 59.6551C51.0742 59.1949 51.1365 58.3098 51.1854 58.062Z" fill="black"/>
<path d="M53.1288 66.4208C52.0037 66.4208 51.0916 65.5134 51.0916 64.394C51.0916 63.2746 52.0037 62.3672 53.1288 62.3672C54.2539 62.3672 55.166 63.2746 55.166 64.394C55.166 65.5134 54.2539 66.4208 53.1288 66.4208Z" fill="#EED0C3"/>
</g>
</g>
<defs>
<clipPath id="clip0_8997_281106">
<rect width="440" height="160" fill="white"/>
</clipPath>
<clipPath id="clip1_8997_281106">
<rect width="171" height="106" fill="white" transform="matrix(-1 0 0 1 190 54)"/>
</clipPath>
</defs>
</svg>
