<svg width="314" height="115" viewBox="0 0 314 115" fill="none" xmlns="http://www.w3.org/2000/svg">
<g clip-path="url(#clip0_8997_281217)">
<path d="M97.3541 56.8145C98.3208 57.7358 112.326 70.8657 112.326 77.7646C112.326 79.8515 108.342 110.439 107.894 111.061H104.432C104.432 111.061 102.908 85.578 104.121 80.5978C103.222 80.1947 94.9767 77.1564 91.319 73.8993C87.6614 70.6422 90.2784 58.109 97.3541 56.8145Z" fill="#1F161E"/>
<path d="M97.3565 56.8155C98.4451 57.0182 83.3944 121.612 83.3944 121.612H79.6562C79.6562 121.612 81.0758 60.4757 81.89 57.4996C85.7675 56.265 94.4282 56.265 97.3565 56.8155Z" fill="#DC9E83"/>
<path d="M77.2964 32.0409C81.285 29.0648 94.9314 29.0648 109.07 29.6614C110.742 29.7328 115.486 19.1092 117.508 17.5981C119.736 15.935 123.284 17.4368 123.284 18.3214C123.284 20.2517 120.755 20.2978 120.219 20.922C119.683 21.5462 114.898 36.4083 110.857 38.5966C109.551 39.306 99.8888 39.0711 99.2138 39.9948C98.5389 40.9185 97.9206 56.2412 97.3567 56.8102C96.7928 57.3791 83.436 57.8513 81.8989 57.5012C81.814 56.3103 80.0157 46.433 79.565 45.659C79.3168 45.636 75.7223 52.012 75.7245 52.8159C75.7245 53.8755 81.875 62.7531 84.4527 64.2734C85.1211 64.665 85.0231 65.7799 84.9012 66.0517C84.7793 66.3235 83.8584 67.6641 83.2836 67.6641C82.7088 67.6641 69.3041 59.1482 69.0015 52.7307C68.9209 50.9962 72.1562 35.8877 77.2964 32.0409Z" fill="#5E4521"/>
<path d="M104.897 110.672C104.897 111.01 104.788 113.015 105.06 113.353C105.55 113.964 109.551 113.719 109.741 113.524C109.93 113.328 110.048 112.911 109.88 112.791C109.712 112.671 108.125 112.314 107.921 112.155C107.716 111.996 107.415 111.151 107.531 110.7" fill="#1F161E"/>
<path d="M89.1878 31.0924C89.2618 32 84.5504 32.4929 84.4721 31.5185L83.9844 25.4512L88.7001 25.0273L89.1878 31.0924Z" fill="#FFEBEE"/>
<path d="M84.2809 29.074C84.2373 28.535 85.254 26.5702 86.1772 26.8028C85.0363 26.4872 84.3723 25.1236 84 25.4507L84.2809 29.074Z" fill="black"/>
<path d="M88.078 27.1214C91.4736 27.1214 94.2263 24.209 94.2263 20.6163C94.2263 17.0237 91.4736 14.1113 88.078 14.1113C84.6824 14.1113 81.9297 17.0237 81.9297 20.6163C81.9297 24.209 84.6824 27.1214 88.078 27.1214Z" fill="#FFEBEE"/>
<path d="M94.3896 21.4896C94.9539 21.4387 95.3911 21.1457 95.3661 20.8351C95.3411 20.5246 94.8634 20.3141 94.2991 20.3649C93.7348 20.4158 93.2976 20.7088 93.3226 21.0193C93.3476 21.3299 93.8254 21.5404 94.3896 21.4896Z" fill="#FA9E9F"/>
<path d="M87.9639 22.0696C88.5282 22.0188 88.9653 21.7258 88.9403 21.4152C88.9153 21.1047 88.4376 20.8941 87.8733 20.945C87.309 20.9959 86.8718 21.2889 86.8968 21.5994C86.9219 21.91 87.3996 22.1205 87.9639 22.0696Z" fill="#FA9E9F"/>
<path d="M91.7578 19.9844C91.9755 20.2562 93.051 21.378 92.0539 21.9631" stroke="#1F161E" stroke-width="0.350688" stroke-miterlimit="10" stroke-linecap="round"/>
<path d="M90.1081 23.5636C89.8011 23.5797 89.296 23.2296 89.0195 22.8887" stroke="#1F161E" stroke-width="0.350688" stroke-miterlimit="10" stroke-linecap="round"/>
<path d="M81.9184 17.3656C81.7377 15.1151 84.568 13.1733 86.6319 12.989C89.9151 12.6918 91.7548 12.7702 93.5553 12.1413C96.133 11.243 96.0851 14.9055 96.12 15.3224C96.2593 17.0754 95.7433 18.2179 93.9428 18.6601C93.7701 18.0544 93.5078 17.4814 93.1656 16.9625C92.6412 16.8007 92.0797 16.8407 91.5806 17.0754C91.1299 17.2896 87.3983 19.5769 84.5223 19.8395C84.1848 20.4407 83.6231 24.0042 83.991 25.4531C83.1507 25.5798 81.3654 22.8202 81.1607 21.3068C81.0999 20.7882 81.1549 20.2617 81.3213 19.7697C81.4877 19.2776 81.7608 18.8337 82.1187 18.4736C82.0621 18.1557 81.9336 17.543 81.9184 17.3656Z" fill="black"/>
<path d="M84.3698 22.6936C85.1177 22.6936 85.724 22.0522 85.724 21.2609C85.724 20.4696 85.1177 19.8281 84.3698 19.8281C83.6219 19.8281 83.0156 20.4696 83.0156 21.2609C83.0156 22.0522 83.6219 22.6936 84.3698 22.6936Z" fill="#FFEBEE"/>
<path d="M84.4398 64.2712C81.8621 62.7509 75.7138 53.8733 75.7116 52.8137C75.7116 52.2977 77.1855 49.4944 78.3111 47.5526L71.1091 43.4316C69.7201 47.8082 68.9602 51.8808 69.0016 52.7308C69.3021 59.1483 82.6959 67.6504 83.2707 67.6504C83.8454 67.6504 84.7664 66.3213 84.8883 66.038C85.0102 65.7546 85.1104 64.6628 84.4398 64.2712Z" fill="#FFEBEE"/>
<path d="M117.508 17.6079C115.486 19.1189 110.742 29.738 109.061 29.6712C106.215 29.5514 107.855 29.6113 105.125 29.5606L105.109 39.1361C108.277 39.1361 109.945 39.0924 110.846 38.6063C114.889 36.418 119.677 21.5606 120.208 20.9318C120.739 20.3029 123.273 20.2615 123.273 18.3311C123.284 17.4466 119.729 15.9447 117.508 17.6079Z" fill="#FFEBEE"/>
<g clip-path="url(#clip1_8997_281217)">
<path d="M239.013 20.168H118.797V98.9823H239.013V20.168Z" stroke="black" stroke-width="0.75277" stroke-miterlimit="10"/>
<path d="M118.797 24.3574H239.013" stroke="black" stroke-width="0.75277" stroke-miterlimit="10"/>
<path d="M229.925 31.3789H127.883V67.3889H229.925V31.3789Z" fill="#F2F2F2"/>
<path d="M151.293 43.6328H206.515" stroke="black" stroke-width="0.75277" stroke-miterlimit="10"/>
<path d="M151.293 73.1484H206.515" stroke="black" stroke-width="0.75277" stroke-miterlimit="10"/>
<path d="M151.293 78.584H206.515" stroke="black" stroke-width="0.75277" stroke-miterlimit="10"/>
<path d="M151.293 84.0195H206.515" stroke="black" stroke-width="0.75277" stroke-miterlimit="10"/>
<path d="M151.293 89.4551H206.515" stroke="black" stroke-width="0.75277" stroke-miterlimit="10"/>
<path d="M121.409 23.3391C121.974 23.3391 122.432 22.8828 122.432 22.3199C122.432 21.7571 121.974 21.3008 121.409 21.3008C120.845 21.3008 120.387 21.7571 120.387 22.3199C120.387 22.8828 120.845 23.3391 121.409 23.3391Z" fill="#999CBF"/>
<path d="M124.933 23.3391C125.498 23.3391 125.955 22.8828 125.955 22.3199C125.955 21.7571 125.498 21.3008 124.933 21.3008C124.368 21.3008 123.91 21.7571 123.91 22.3199C123.91 22.8828 124.368 23.3391 124.933 23.3391Z" fill="#DC9E83"/>
<path d="M128.456 23.3391C129.021 23.3391 129.479 22.8828 129.479 22.3199C129.479 21.7571 129.021 21.3008 128.456 21.3008C127.891 21.3008 127.434 21.7571 127.434 22.3199C127.434 22.8828 127.891 23.3391 128.456 23.3391Z" fill="#7DBF9D"/>
<path d="M177.558 49.3828H164.93V53.7199H177.558V49.3828Z" fill="#EED0C3"/>
<path d="M192.878 49.3828H180.25V53.7199H192.878V49.3828Z" fill="#EED0C3"/>
</g>
<path d="M287.303 105.117H249.664V114.903H287.303V105.117Z" fill="#EAEAF5"/>
<path d="M223.539 92.8594C223.357 93.9444 220.262 118.749 219.761 119.159C219.26 119.569 213.937 120.479 213.481 119.795C213.39 118.71 213.264 101.413 212.982 99.8662" fill="#1F161E"/>
<path d="M283.411 87.6841C285.557 86.6252 281.082 107.574 269.306 107.574C257.53 107.574 237.707 89.6349 234.498 89.6349C227.413 89.6349 210.641 103.547 209.326 103.547C208.319 102.54 206.306 100.778 206.306 100.085C206.306 99.3932 222.363 72.9609 234.378 72.9609C239.037 72.9566 278.565 90.0776 283.411 87.6841Z" fill="#546B7D"/>
<path d="M276.783 88.0399C274.429 87.5061 271.499 86.1238 268.906 84.709C275.961 87.0135 281.742 88.5086 283.41 87.684C284.547 87.1241 283.827 92.7313 281.154 98.1324C281.637 97.0864 282.328 89.2963 276.783 88.0399Z" fill="#1F161E"/>
<path d="M271.593 51.2894C269.737 51.3393 260.079 51.0551 257.431 53.5766C255.468 55.4449 249.361 71.533 248.42 77.1814C252.521 79.2645 282.102 93.43 291.257 87.2001C291.459 82.3589 290.519 63.1266 284.532 53.0384C282.343 51.5802 273.376 51.2417 271.593 51.2894Z" fill="#999CBF"/>
<path d="M267.831 46.6855H273.473V52.7506C273.473 54.2696 267.831 54.2565 267.831 52.7506V46.6855Z" fill="#FFEBEE"/>
<path d="M273.473 50.3417C273.473 49.669 271.609 47.9786 270.456 48.0372C270.428 47.3037 273.089 46.2188 273.089 46.2188L273.473 47.2538V50.3417Z" fill="#1F161E"/>
<path d="M261.919 46.6852C261.792 46.0991 261.728 45.5011 261.728 44.9015C261.728 40.427 265.224 36.7988 269.54 36.7988C273.856 36.7988 277.352 40.427 277.352 44.9015C277.351 45.5011 277.287 46.0991 277.161 46.6852H261.919Z" fill="#1F161E"/>
<path d="M263.979 41.2288C264.936 41.0834 265.891 40.3305 266.557 39.8379C270.355 42.6198 272.787 42.6588 273.05 42.6588C273.312 42.6588 274.382 44.1952 274.875 44.3688L274.918 44.3427C274.77 45.1503 274.457 45.9185 273.997 46.5984C273.536 47.2783 272.94 47.8552 272.245 48.2923C271.55 48.7295 270.772 49.0175 269.96 49.138C269.148 49.2585 268.32 49.2089 267.528 48.9923C266.736 48.7757 265.998 48.3969 265.36 47.8799C264.722 47.3629 264.199 46.719 263.823 45.989C263.447 45.259 263.228 44.4589 263.177 43.6395C263.127 42.82 263.248 41.9991 263.532 41.2288C263.681 41.2473 263.831 41.2473 263.979 41.2288Z" fill="#FFEBEE"/>
<path d="M273.774 37.8082C272.501 37.8082 271.469 36.7765 271.469 35.5037C271.469 34.231 272.501 33.1992 273.774 33.1992C275.046 33.1992 276.078 34.231 276.078 35.5037C276.078 36.7765 275.046 37.8082 273.774 37.8082Z" fill="#1F161E"/>
<path d="M272.748 42.5293C272.997 42.5411 273.232 42.6483 273.404 42.8287C273.576 43.0091 273.672 43.2489 273.672 43.4982C273.672 43.7475 273.576 43.9872 273.404 44.1676C273.232 44.3481 272.997 44.4553 272.748 44.4671" stroke="#1F161E" stroke-width="0.75277" stroke-miterlimit="10" stroke-linecap="round"/>
<path d="M265.359 42.6465C265.075 43.0262 264.344 43.6902 265.359 44.3955" stroke="#1F161E" stroke-width="0.75277" stroke-miterlimit="10" stroke-linecap="round"/>
<path d="M268.438 44.918C268.438 45.2022 268.316 45.8814 267.706 46.0572" stroke="#1F161E" stroke-width="0.75277" stroke-miterlimit="10" stroke-linecap="round"/>
<path d="M270.329 44.9776C269.835 44.9776 269.435 44.7697 269.435 44.5132C269.435 44.2567 269.835 44.0488 270.329 44.0488C270.822 44.0488 271.223 44.2567 271.223 44.5132C271.223 44.7697 270.822 44.9776 270.329 44.9776Z" fill="#FA9E9F"/>
<path d="M263.684 44.9776C263.19 44.9776 262.79 44.7697 262.79 44.5132C262.79 44.2567 263.19 44.0488 263.684 44.0488C264.178 44.0488 264.578 44.2567 264.578 44.5132C264.578 44.7697 264.178 44.9776 263.684 44.9776Z" fill="#FA9E9F"/>
<path d="M257.633 68.0574L251.602 66.5059C251.023 67.4845 248.202 77.1712 248.202 77.1712L257.511 81.0945C257.39 79.2587 257.023 70.8696 257.633 68.0574Z" fill="#FFEBEE"/>
<path d="M278.777 66.541C278.777 67.2701 279.392 70.0455 279.754 71.3496" stroke="#1F161E" stroke-width="0.75277" stroke-miterlimit="10" stroke-linecap="round"/>
<path d="M257.635 68.0583C257.78 66.9104 258.631 60.4418 260.078 57.0371" stroke="#1F161E" stroke-width="0.75277" stroke-miterlimit="10" stroke-linecap="round"/>
<path d="M257.633 68.0574L251.602 66.5059C251.023 67.4845 248.202 77.1712 248.202 77.1712L257.511 81.0945C257.39 79.2587 257.023 70.8696 257.633 68.0574Z" fill="#FFEBEE"/>
<path d="M209.145 103.035C209.01 103.241 207.213 105.455 206.577 105.481C205.942 105.507 202.081 102.89 202.251 102.328C202.42 101.766 204.841 102.13 205.258 101.935C205.675 101.74 206.601 100.811 206.749 100.396" fill="#1F161E"/>
<path d="M225.839 77.7785H246.273L241.408 64.8867H220.974L225.839 77.7785Z" fill="#969696"/>
<path d="M242.866 77.293H263.301V77.779H242.866V77.293Z" fill="#969696"/>
<path d="M279.755 71.3503C280.148 72.8237 282.064 79.1079 281.274 80.1885C280.484 81.2692 261.041 78.8128 255.836 77.194C254.51 76.76 253.527 75.6208 252.939 75.4754C252.185 75.3483 251.412 75.5034 250.766 75.9109C250.12 76.3184 249.646 76.9499 249.436 77.6844C251.515 78.6913 281.53 94.0155 291.256 87.1953C293.094 85.8868 289.867 69.8291 289.722 69.0176C288.079 69.2216 279.755 71.3503 279.755 71.3503Z" fill="#FFEBEE"/>
<path d="M257.359 77.5975C256.773 77.4586 256.261 77.3241 255.84 77.1939C254.515 76.7599 253.532 75.6207 252.944 75.4753C252.19 75.3476 251.416 75.5024 250.769 75.91C250.122 76.3176 249.649 76.9493 249.439 77.6843" stroke="#1F161E" stroke-width="0.75277" stroke-miterlimit="10" stroke-linecap="round"/>
</g>
<defs>
<clipPath id="clip0_8997_281217">
<path d="M0 8C0 3.58172 3.58172 0 8 0H306C310.418 0 314 3.58172 314 8V115H0V8Z" fill="white"/>
</clipPath>
<clipPath id="clip1_8997_281217">
<rect width="120.443" height="79.0408" fill="white" transform="translate(118.684 20.0547)"/>
</clipPath>
</defs>
</svg>
