<svg width="314" height="115" viewBox="0 0 314 115" fill="none" xmlns="http://www.w3.org/2000/svg">
<g clip-path="url(#clip0_8997_281221)">
<g clip-path="url(#clip1_8997_281221)">
<path d="M257.56 11H120.67C116.343 11 112.836 14.5074 112.836 18.834V86.2779C112.836 90.6045 116.343 94.1119 120.67 94.1119H257.56C261.887 94.1119 265.394 90.6045 265.394 86.2779V18.834C265.394 14.5074 261.887 11 257.56 11Z" fill="#FFF3E0"/>
<path d="M201.1 11H120.677C118.599 11.0047 116.607 11.8323 115.138 13.3017C113.668 14.7711 112.841 16.7627 112.836 18.8407V86.2712C112.841 88.3492 113.668 90.3408 115.138 91.8102C116.607 93.2796 118.599 94.1072 120.677 94.1119H201.1V11Z" fill="#99ABC5"/>
<path d="M265.326 17.8327C265.078 15.9455 264.153 14.2126 262.723 12.956C261.294 11.6994 259.456 11.0043 257.553 11L120.676 11C118.772 11.0043 116.935 11.6994 115.506 12.956C114.076 14.2126 113.151 15.9455 112.902 17.8327H265.326Z" fill="#E2E3F1"/>
<path d="M130.197 91.9824V106.768L151.452 91.9824H130.197Z" fill="#99ABC5"/>
<path d="M126.613 45.8359H187.323" stroke="white" stroke-width="2.68826" stroke-miterlimit="10" stroke-linecap="round"/>
<path d="M126.613 55.916H187.323" stroke="white" stroke-width="2.68826" stroke-miterlimit="10" stroke-linecap="round"/>
<path d="M126.613 65.998H187.323" stroke="white" stroke-width="2.68826" stroke-miterlimit="10" stroke-linecap="round"/>
<path d="M126.613 76.0781H187.323" stroke="white" stroke-width="2.68826" stroke-miterlimit="10" stroke-linecap="round"/>
<path d="M182.731 37.995C186.133 37.995 188.891 35.2368 188.891 31.8344C188.891 28.432 186.133 25.6738 182.731 25.6738C179.329 25.6738 176.57 28.432 176.57 31.8344C176.57 35.2368 179.329 37.995 182.731 37.995Z" fill="white"/>
</g>
<g clip-path="url(#clip2_8997_281221)">
<path d="M291.113 111.977C291.134 112.302 291.347 114.203 291.078 114.539C290.583 115.147 286.263 115.116 286.049 114.941C285.836 114.765 285.691 114.374 285.864 114.251C286.037 114.128 287.728 113.707 287.948 113.544C288.168 113.382 288.44 112.563 288.293 112.139" fill="#1F161E"/>
<path d="M269.699 59.4512C268.963 61.0144 262.781 78.0456 262.924 80.5289C263.067 83.0121 277.372 108.6 278.162 108.87C278.952 109.14 282.235 108.196 282.499 107.524C282.764 106.852 277.515 91.5815 277.372 87.6711" fill="#1F161E"/>
<path d="M269.699 59.451C270.07 61.2931 276.221 86.6961 276.221 86.6961L287.5 112.277C288.437 112.705 291.197 112.751 291.68 112.615C292.163 112.479 289.844 87.9827 288.927 84.5115C288.011 81.0402 285.598 56.9414 285.598 56.9414C285.598 56.9414 272.963 57.1368 269.699 59.451Z" fill="#3B7858"/>
<path d="M272.747 32.2715C270.885 33.086 259.016 38.5553 257.996 38.5553C256.976 38.5553 246.127 32.8138 245.489 32.4274C244.882 32.996 243.956 33.8918 244.181 34.1838C244.406 34.4759 256.847 45.3638 257.902 45.3638C258.957 45.3638 269.643 42.3185 270.473 41.482" fill="#303030"/>
<path d="M276.775 31.0827C266.108 29.4448 268.649 58.3541 269.699 59.4497C270.75 60.5453 285.137 57.9128 286.072 56.8765C287.008 55.8402 284.26 31.3571 276.775 31.0827Z" fill="#51698F"/>
<path d="M281.873 107.705C282 108.006 282.825 109.756 282.672 110.153C282.398 110.873 278.277 112.076 278.017 111.969C277.756 111.861 277.489 111.53 277.613 111.365C277.738 111.2 279.212 110.318 279.372 110.098C279.531 109.879 279.522 109.025 279.24 108.662" fill="#1F161E"/>
<path d="M274.896 32.5893C274.896 33.2787 278.179 33.3314 278.179 32.5893V27.9785H274.896V32.5893Z" fill="#F8CDBA"/>
<path d="M278.181 30.2031C278.181 29.8716 276.974 28.0668 276.348 28.26C277.119 28.0032 277.897 27.7924 278.181 27.9702V30.2031Z" fill="black"/>
<path d="M276.008 28.427C278.364 28.427 280.273 26.6389 280.273 24.4332C280.273 22.2275 278.364 20.4395 276.008 20.4395C273.653 20.4395 271.744 22.2275 271.744 24.4332C271.744 26.6389 273.653 28.427 276.008 28.427Z" fill="#F8CDBA"/>
<path d="M271.697 25.3149C272.091 25.3149 272.41 25.1596 272.41 24.968C272.41 24.7764 272.091 24.6211 271.697 24.6211C271.303 24.6211 270.984 24.7764 270.984 24.968C270.984 25.1596 271.303 25.3149 271.697 25.3149Z" fill="#FA9E9F"/>
<path d="M276.17 25.3149C276.563 25.3149 276.882 25.1596 276.882 24.968C276.882 24.7764 276.563 24.6211 276.17 24.6211C275.776 24.6211 275.457 24.7764 275.457 24.968C275.457 25.1596 275.776 25.3149 276.17 25.3149Z" fill="#FA9E9F"/>
<path d="M273.434 24.248C273.3 24.4259 272.615 25.1724 273.337 25.4754" stroke="#1F161E" stroke-width="0.441837" stroke-miterlimit="10" stroke-linecap="round"/>
<path d="M274.781 26.3471C275.069 26.2742 275.319 26.1066 275.485 25.875" stroke="#1F161E" stroke-width="0.441837" stroke-miterlimit="10" stroke-linecap="round"/>
<path d="M278.61 25.5031C279.129 25.5031 279.55 25.1089 279.55 24.6226C279.55 24.1364 279.129 23.7422 278.61 23.7422C278.091 23.7422 277.67 24.1364 277.67 24.6226C277.67 25.1089 278.091 25.5031 278.61 25.5031Z" fill="#F8CDBA"/>
<path d="M285.876 58.0197C290.605 57.8989 294.002 54.7988 294.002 46.8222C294.002 43.5288 288.155 33.6135 286.994 29.8678C286.394 27.9335 286.877 22.2425 283.813 19.3465C282.336 17.9523 275.842 18.2817 274.166 18.9381C272.49 19.5946 272.687 21.5729 272.858 21.8824C273.259 21.5663 274.138 20.9252 274.295 20.9449C275.118 21.0393 277.364 23.4062 278.046 24.493C278.599 25.3712 277.746 30.8251 278.827 32.384C279.907 33.9428 283.733 33.1239 283.733 33.1239" fill="#1F161E"/>
<path d="M276.812 42.6987C277.467 43.465 282.296 51.626 282.296 52.8533C282.296 54.0807 280.863 62.7796 280.577 63.2012C281.232 63.66 282.95 64.9247 282.95 64.9247C282.95 64.9247 288.187 56.2631 288.187 51.3976C288.187 49.6719 284.014 35.6465 280.003 32.4277" fill="#51698F"/>
<path d="M276.812 42.6973C277.467 43.4635 282.296 51.6245 282.296 52.8519C282.296 53.4601 281.942 55.9059 281.553 58.2684" stroke="#1F161E" stroke-width="0.640344" stroke-linecap="round" stroke-linejoin="round"/>
<path d="M278.394 31.0704C278.195 32.6907 283.242 38.3444 285.209 39.9999C287.174 37.6813 285.995 31.9376 285.995 31.9376L281.986 30.2031L278.394 31.0704Z" fill="#1F161E"/>
<path d="M282.951 19.0912C284.094 19.0912 285.021 18.067 285.021 16.8034C285.021 15.5399 284.094 14.5156 282.951 14.5156C281.808 14.5156 280.881 15.5399 280.881 16.8034C280.881 18.067 281.808 19.0912 282.951 19.0912Z" fill="#1F161E"/>
<path d="M270.96 34.7871C269.989 36.7829 269.389 39.3979 269.047 42.1687" stroke="#1F161E" stroke-width="0.640344" stroke-linecap="round" stroke-linejoin="round"/>
<path d="M243.487 34.0982C244.589 34.0982 245.482 33.4082 245.482 32.5569C245.482 31.7057 244.589 31.0156 243.487 31.0156C242.385 31.0156 241.492 31.7057 241.492 32.5569C241.492 33.4082 242.385 34.0982 243.487 34.0982Z" fill="#F8CDBA"/>
<path d="M244.622 27.9707L242.215 35.102" stroke="black" stroke-width="1.92103" stroke-miterlimit="10" stroke-linecap="round"/>
</g>
<g clip-path="url(#clip3_8997_281221)">
<path d="M61.0672 64.6777C60.92 65.099 59.4924 67.0716 58.9567 67.944C58.421 68.8164 57.5221 71.3829 58.3107 71.8041C59.0992 72.2254 60.4212 71.9169 60.8396 70.5658C61.258 69.2146 62.6788 66.1693 63.1753 65.5018C63.6719 64.8343 61.0672 64.6777 61.0672 64.6777Z" fill="#F8CDBA"/>
<path d="M114.662 24.5891C115.354 23.9308 120.957 18.0312 121.012 18.0312C121.534 18.1578 121.876 18.411 121.497 18.952C121.35 19.1614 120.462 20.1443 119.428 21.2538C119.737 21.5149 119.959 21.8649 120.063 22.2564C120.167 22.648 120.148 23.062 120.009 23.4424C119.87 23.8229 119.617 24.1513 119.286 24.3832C118.954 24.6151 118.559 24.7392 118.154 24.7387C117.994 24.7371 117.834 24.7162 117.678 24.6766L116.789 25.7331L115.467 25.1945L115.644 24.9988L114.662 24.5891Z" fill="#F8CDBA"/>
<path d="M105.944 92.8906C105.928 93.1853 105.399 95.6045 105.634 95.9083C106.059 96.4607 109.735 96.4147 109.917 96.2513C110.098 96.0878 110.22 95.7334 110.073 95.6229C109.926 95.5124 108.482 95.1372 108.294 94.9899C108.105 94.8426 107.868 94.0991 107.993 93.7124" fill="#1F161E"/>
<path d="M80.468 58.1719C78.8587 59.3044 62.7658 106.936 63.0279 107.691C63.29 108.446 65.1246 108.865 65.7867 108.446C66.4488 108.027 78.9483 85.3608 79.6196 84.6887C80.2909 84.0166 90.1007 73.7781 91.441 69.7477C92.7813 65.7172 80.468 58.1719 80.468 58.1719Z" fill="#1F161E"/>
<path d="M82.709 55.4648C81.6906 55.9989 78.7318 58.9176 78.7318 62.0227C78.7318 70.7949 86.7782 72.565 89.6473 72.5143C92.5164 72.4637 104.372 72.9586 108.86 71.4463C108.667 73.1473 107.161 88.4958 105.754 92.9659C106.094 93.5966 107.864 94.1536 108.182 93.8866C110.729 91.815 118.244 69.9294 118.099 68.3918C117.773 64.9207 84.5735 55.916 82.709 55.4648Z" fill="#7DBF9D"/>
<path d="M92.48 40.2078C92.6248 40.8385 89.1625 41.6925 89.0039 41.0135L88.0245 36.7828L91.5006 35.9863L92.48 40.2078Z" fill="#F8CDBA"/>
<path d="M88.6109 39.3091C88.5236 38.9316 89.0822 37.4355 89.7949 37.5022C88.9121 37.4009 88.2776 36.5101 88.0247 36.7818L88.6109 39.3091Z" fill="black"/>
<path d="M90.5879 37.568C88.0282 37.568 85.9532 35.4904 85.9532 32.9276C85.9532 30.3647 88.0282 28.2871 90.5879 28.2871C93.1476 28.2871 95.2227 30.3647 95.2227 32.9276C95.2227 35.4904 93.1476 37.568 90.5879 37.568Z" fill="#F8CDBA"/>
<path d="M94.5409 32.6502C94.4907 32.4335 94.7869 32.1796 95.2025 32.0832C95.6181 31.9867 95.9957 32.0842 96.0459 32.3009C96.096 32.5177 95.7998 32.7715 95.3842 32.868C94.9686 32.9644 94.591 32.8669 94.5409 32.6502Z" fill="#FA9E9F"/>
<path d="M89.8065 33.7479C89.7563 33.5312 90.0525 33.2773 90.4681 33.1808C90.8837 33.0844 91.2613 33.1819 91.3115 33.3986C91.3617 33.6153 91.0654 33.8692 90.6498 33.9657C90.2342 34.0621 89.8567 33.9646 89.8065 33.7479Z" fill="#FA9E9F"/>
<path d="M93.2654 32.0879C93.4539 32.2559 94.3712 32.9327 93.6884 33.4529" stroke="#1F161E" stroke-width="0.188517" stroke-miterlimit="10" stroke-linecap="round"/>
<path d="M92.3984 34.7927C92.1685 34.8364 91.757 34.6431 91.5133 34.4336" stroke="#1F161E" stroke-width="0.188517" stroke-miterlimit="10" stroke-linecap="round"/>
<path d="M88.3231 32.2358C88.3117 31.1884 91.9785 28.7715 93.7441 29.5242C92.9275 28.772 91.8683 28.338 90.7592 28.3014C89.65 28.2647 88.5646 28.6277 87.7001 29.3243C86.8356 30.021 86.2495 31.0051 86.0482 32.0978C85.847 33.1905 86.044 34.3192 86.6035 35.2788C87.1001 34.8345 88.3231 33.2232 88.3231 32.2358Z" fill="black"/>
<path d="M87.3621 34.4542C86.7983 34.4542 86.3413 33.9966 86.3413 33.4322C86.3413 32.8677 86.7983 32.4102 87.3621 32.4102C87.9258 32.4102 88.3828 32.8677 88.3828 33.4322C88.3828 33.9966 87.9258 34.4542 87.3621 34.4542Z" fill="#F8CDBA"/>
<path d="M115.034 24.2461C114.542 24.6788 104.78 34.3418 103.132 34.7423C97.5774 36.0912 79.604 41.4797 73.4749 46.4125C67.0745 50.3578 60.2787 64.2584 60.5247 64.751C60.7707 65.2436 63.4858 66.4175 64.0399 66.1712C64.5939 65.9249 72.1806 55.4103 73.353 54.7405C74.5255 54.0706 83.6502 49.5614 83.6502 49.5614C83.2203 50.611 81.9857 55.0581 82.1719 55.675C82.3581 56.2919 86.3331 58.9689 93.5795 59.6272C94.3197 59.1945 96.4785 46.6611 96.4785 46.6611C98.0211 45.9706 108.229 40.5314 110.477 37.7071C111.348 36.6114 117.939 26.4696 117.939 25.9678C117.939 25.4661 115.034 24.2461 115.034 24.2461Z" fill="#999CBF"/>
<path d="M91.6595 49.0722C92.3009 48.8098 96.4414 46.6484 96.4414 46.6484" stroke="#1F161E" stroke-width="0.150267" stroke-miterlimit="10" stroke-linecap="round"/>
<path d="M87.9023 39.625C87.4655 40.1567 84.3711 46.5742 83.6515 49.6402" stroke="#1F161E" stroke-width="0.150267" stroke-miterlimit="10" stroke-linecap="round"/>
<path d="M63.3741 107.645C63.1235 107.875 62.5166 108.894 62.4867 109.274C62.3373 111.093 64.3029 113.926 64.6201 113.928C65.5397 113.928 66.0156 113.44 66.0156 112.87C66.0156 112.299 65.3259 111.601 65.3259 111.219C65.3259 110.837 65.411 108.554 65.4754 108.215" fill="#1F161E"/>
</g>
</g>
<defs>
<clipPath id="clip0_8997_281221">
<path d="M0 8C0 3.58172 3.58172 0 8 0H306C310.418 0 314 3.58172 314 8V115H0V8Z" fill="white"/>
</clipPath>
<clipPath id="clip1_8997_281221">
<rect width="152.559" height="95.7691" fill="white" transform="translate(112.836 11)"/>
</clipPath>
<clipPath id="clip2_8997_281221">
<rect width="52.5082" height="100.534" fill="white" transform="translate(241.492 14.5156)"/>
</clipPath>
<clipPath id="clip3_8997_281221">
<rect width="63.6587" height="95.8979" fill="white" transform="matrix(-1 0 0 1 121.66 18.0312)"/>
</clipPath>
</defs>
</svg>
