<svg width="314" height="115" viewBox="0 0 314 115" fill="none" xmlns="http://www.w3.org/2000/svg">
<g clip-path="url(#clip0_8997_281214)">
<path d="M178.017 66.4273C193.525 66.4273 206.097 63.6484 206.097 60.2205C206.097 56.7925 193.525 54.0137 178.017 54.0137C162.509 54.0137 149.938 56.7925 149.938 60.2205C149.938 63.6484 162.509 66.4273 178.017 66.4273Z" fill="black"/>
<path d="M178.019 60.2207L162.242 109.581" stroke="black" stroke-width="3.07536" stroke-miterlimit="10" stroke-linecap="round"/>
<path d="M178.016 60.2207L193.788 109.581" stroke="black" stroke-width="3.07536" stroke-miterlimit="10" stroke-linecap="round"/>
<path d="M167.418 93.3761L185.006 82.1016" stroke="black" stroke-width="1.53768" stroke-miterlimit="10" stroke-linecap="round"/>
<path d="M170.957 82.1016L188.541 93.3761" stroke="black" stroke-width="1.53768" stroke-miterlimit="10" stroke-linecap="round"/>
<g clip-path="url(#clip1_8997_281214)">
<path d="M68.6381 90.0969C68.6381 90.0969 63.5095 85.8834 62.879 85.8834C62.2486 85.8834 40.082 103.521 36.5478 108.105C34.8837 107.899 30.8644 106.717 30.8644 106.717C30.8644 106.717 56.0954 71.8516 59.1447 71.8516C62.194 71.8516 86.5156 81.8552 86.5156 81.8552L84.506 89.0063L68.6381 90.0969Z" fill="#1F161E"/>
<path d="M128.287 71.528C125.713 71.528 123.626 69.4362 123.626 66.8558C123.626 64.2754 125.713 62.1836 128.287 62.1836C130.862 62.1836 132.949 64.2754 132.949 66.8558C132.949 69.4362 130.862 71.528 128.287 71.528Z" fill="#FFEBEE"/>
<path d="M110.992 79.9062C110.237 80.7264 103.818 89.6851 103.878 90.8212C103.939 91.9574 109.986 108.231 110.489 108.863C109.795 109.556 106.964 111.26 106.27 111.26C105.576 111.26 88.5195 89.9372 88.5195 88.476C88.5195 87.0148 99.0708 70.1638 105.157 69.7324" fill="#546B7D"/>
<path d="M136.961 61.4914C136.961 57.4936 133.575 56.078 131.75 56.078C128.153 56.078 122.775 57.7184 118.823 57.7184C112.112 57.7184 108.065 52.7637 103.955 52.7637C97.4049 52.7637 93.8919 57.1534 92.1672 58.3655C88.6814 60.814 76.8025 62.5638 76.8025 71.0182C76.8025 78.7617 80.5126 82.9539 85.0501 82.9539C89.5877 82.9539 112.848 74.694 112.848 74.694C112.848 74.694 120.305 71.7776 120.808 71.1427C121.311 70.5078 124.497 68.9555 124.327 64.0706C125.146 63.4903 129.498 65.4133 131.972 63.9855C132.517 64.7606 132.849 65.6658 132.936 66.6102C133.536 66.6315 136.961 65.6655 136.961 61.4914Z" fill="#1F161E"/>
<path d="M133.653 82.253C130.925 73.1759 112.578 68.7862 106.885 68.8864C101.193 68.9867 104.106 75.4452 85.5704 80.5245C83.6396 82.9548 82.0937 96.8742 83.8336 101.036H134.896C134.896 101.036 135.211 85.0418 133.653 82.253Z" fill="#546B7D"/>
<path d="M119.502 72.8125C118.871 73.6054 121.566 75.7258 122.181 74.939L126.625 69.3433L123.942 67.2168L119.502 72.8125Z" fill="#FFEBEE"/>
<path d="M35.9453 107.582C35.821 108.013 35.2057 110.586 34.7177 110.905C33.8326 111.483 28.5858 109.572 28.4069 109.247C28.2281 108.922 28.2311 108.354 28.4979 108.268C28.7646 108.183 31.0198 108.369 31.3653 108.25C31.7108 108.132 32.4201 107.187 32.4353 106.57" fill="#1F161E"/>
<path d="M8.11328 96.4052C7.66468 96.4052 5.03367 96.1956 4.58204 96.5632C3.76364 97.2315 3.97581 102.824 4.23649 103.095C4.49716 103.365 5.03367 103.535 5.19735 103.304C5.36103 103.073 5.86723 100.874 6.08547 100.57C6.30371 100.266 7.41612 99.8896 8.00719 100.063" fill="#1F161E"/>
<path d="M132.118 69.8777C131.647 69.5822 131.389 69.1433 131.543 68.8972C131.697 68.6511 132.203 68.6912 132.674 68.9866C133.145 69.282 133.403 69.721 133.249 69.967C133.096 70.2131 132.589 70.1731 132.118 69.8777Z" fill="#999CBF"/>
<path d="M126.763 66.5202C126.291 66.2248 126.034 65.7859 126.187 65.5398C126.341 65.2937 126.848 65.3337 127.319 65.6292C127.79 65.9246 128.047 66.3635 127.894 66.6096C127.74 66.8557 127.234 66.8157 126.763 66.5202Z" fill="#999CBF"/>
<path d="M130.896 67.209C130.914 67.5371 131.135 69.0074 130.029 68.8525" stroke="#1F161E" stroke-width="0.5305" stroke-miterlimit="10" stroke-linecap="round"/>
<path d="M127.613 68.8914C127.362 68.7243 127.162 68.1653 127.131 67.7461" stroke="#1F161E" stroke-width="0.5305" stroke-miterlimit="10" stroke-linecap="round"/>
<path d="M124.647 65.3159C123.97 65.3159 123.422 64.7664 123.422 64.0886C123.422 63.4108 123.97 62.8613 124.647 62.8613C125.323 62.8613 125.871 63.4108 125.871 64.0886C125.871 64.7664 125.323 65.3159 124.647 65.3159Z" fill="#FFEBEE"/>
<path d="M138.744 102.338C139.835 100.904 140.09 97.5286 140.09 95.1804C139.308 87.6252 137.362 81.0452 133.364 74.0278C132.879 73.2774 131.018 73.5174 130.672 74.0278C129.529 78.7273 127.359 93.8103 133.822 102.462C135.428 102.462 137.392 102.338 138.744 102.338Z" fill="#546B7D"/>
<path d="M131.858 74.6462C130.651 74.6462 129.672 73.6656 129.672 72.4559C129.672 71.2463 130.651 70.2656 131.858 70.2656C133.065 70.2656 134.043 71.2463 134.043 72.4559C134.043 73.6656 133.065 74.6462 131.858 74.6462Z" fill="#FFEBEE"/>
<path d="M109.615 115.044C107.796 115.044 106.321 113.565 106.321 111.742C106.321 109.918 107.796 108.439 109.615 108.439C111.435 108.439 112.91 109.918 112.91 111.742C112.91 113.565 111.435 115.044 109.615 115.044Z" fill="#FFEBEE"/>
<path d="M97.6172 101.039C93.1039 95.343 88.5239 89.24 88.5239 88.4866C88.5239 87.7848 90.9972 83.4681 94.2405 79.1543" stroke="#1F161E" stroke-width="0.76884" stroke-linecap="round" stroke-linejoin="round"/>
<path d="M110.992 79.9062C110.237 80.7265 103.818 89.6851 103.878 90.8213C103.912 91.4288 105.697 96.4504 107.391 101.041" stroke="#1F161E" stroke-width="0.76884" stroke-linecap="round" stroke-linejoin="round"/>
<path d="M129.394 84.9648C129.322 90.2993 130.07 96.372 132.871 101.041" stroke="#1F161E" stroke-width="0.76884" stroke-linecap="round" stroke-linejoin="round"/>
<path d="M83.5648 88.002C82.1766 88.0384 7.73552 96.0249 7.73552 96.0249V100.308L83.8164 101.028" fill="#999CBF"/>
</g>
<path d="M301.776 99.0813C302.212 99.0813 304.782 98.9221 305.218 99.2883C306.005 99.9507 305.709 105.386 305.457 105.657C305.205 105.928 304.674 106.074 304.518 105.848C304.362 105.622 303.9 103.466 303.693 103.176C303.486 102.887 301.145 102.399 300.562 102.559" fill="#1F161E"/>
<path d="M203.874 97.377L203.781 110.806" stroke="black" stroke-width="2.30652" stroke-miterlimit="10" stroke-linecap="round"/>
<path d="M229.391 80.0898C228.926 80.9624 229.296 86.1402 206.648 102.247C206.181 102.445 205.762 102.741 205.42 103.115C205.077 103.489 204.82 103.933 204.664 104.416C204.664 104.416 205.014 105.689 206.008 105.352C207.001 105.014 224.099 98.7219 232.563 92.7575C234.722 91.2863 239.069 85.0894 239.069 85.0894L229.391 80.0898Z" fill="#FFEBEE"/>
<path d="M242.503 78.9102C243.159 80.0406 247.799 89.9028 247.799 90.9091C247.799 91.9153 247.085 102.131 245.149 108.255C244.42 108.353 241.965 108.751 241.965 110.219C241.965 110.624 242.841 111.936 244.888 111.933C245.547 111.933 247.964 111.178 248.467 110.372C248.971 109.567 254.518 93.3292 254.62 91.3135C254.722 89.2977 254.266 82.2888 253.61 80.9768C252.954 79.6649 242.503 78.9102 242.503 78.9102Z" fill="#1F161E"/>
<path d="M263.066 82.4746C260.872 84.7196 257.092 107.313 258.353 109.985C259.614 112.657 263.066 112.287 263.066 112.287C263.066 112.287 302.031 106.479 302.524 105.874C303.018 105.269 303.126 99.2438 301.919 98.4222C300.712 97.6006 282.739 96.6325 279.45 97.3904C276.16 98.1483 270.518 84.0159 270.518 84.0159L263.066 82.4746Z" fill="#1F161E"/>
<path d="M306.049 103.376C306.485 103.376 309.055 103.217 309.492 103.583C310.278 104.246 309.982 109.681 309.73 109.952C309.479 110.223 308.947 110.369 308.791 110.143C308.635 109.917 308.173 107.764 307.966 107.471C307.759 107.178 305.419 106.694 304.836 106.854" fill="#1F161E"/>
<path d="M237.903 58.76C236.922 58.8969 234.626 63.0303 235.639 69.345C232.136 73.2428 232.183 75.0515 228.633 81.4713C230.317 82.7451 237.288 87.5217 237.288 87.5217C237.288 87.5217 242.638 79.9396 243.128 80.0256C244.969 80.7835 256.672 84.2577 267.454 84.2354C269.897 84.2354 281.434 71.434 280.927 70.087C280.421 68.74 257.095 56.0883 237.903 58.76Z" fill="#7DBF9D"/>
<path d="M279.508 69.7305C280.333 69.9852 290.504 74.5071 290.377 80.4715C290.211 88.095 280.651 100.871 279.508 102.333C281.667 102.396 303.468 102.142 306.2 102.842C307.089 103.033 306.519 106.663 306.2 107.163C305.882 107.663 285.95 113.169 262.029 114.806C260.567 114.905 260.188 112.771 259.934 111.692C259.679 110.612 263.608 90.2955 268.194 82.5223C268.716 81.6211 279.508 69.7305 279.508 69.7305Z" fill="#EBEEF3"/>
<path d="M204.615 106.883C206.553 106.883 208.124 105.909 208.124 104.708C208.124 103.507 206.553 102.533 204.615 102.533C202.677 102.533 201.105 103.507 201.105 104.708C201.105 105.909 202.677 106.883 204.615 106.883Z" fill="#FFEBEE"/>
<path d="M223.855 53.7834C223.422 53.7451 221.973 51.9396 222.747 47.9017C223.683 46.6757 226.782 46.2872 226.887 47.6756C226.992 49.064 225.177 53.9076 223.855 53.7834Z" fill="#1F161E"/>
<path d="M236.169 64.1292C237.086 64.6196 239.242 60.7441 238.252 60.2187L232.09 56.9355L230.004 60.8492L236.169 64.1292Z" fill="#FFEBEE"/>
<path d="M235.77 58.8932C235.219 58.6035 232.815 58.5748 232.739 59.4792C232.806 58.336 231.615 57.1163 232.102 56.9316L235.77 58.8932Z" fill="black"/>
<path d="M229.316 61.3742C232.496 61.3742 235.073 58.7966 235.073 55.6168C235.073 52.4371 232.496 49.8594 229.316 49.8594C226.136 49.8594 223.559 52.4371 223.559 55.6168C223.559 58.7966 226.136 61.3742 229.316 61.3742Z" fill="#FFEBEE"/>
<path d="M223.722 57.6703C224.248 57.598 224.644 57.3177 224.606 57.0442C224.569 56.7706 224.112 56.6074 223.586 56.6797C223.059 56.752 222.663 57.0323 222.701 57.3059C222.738 57.5794 223.195 57.7426 223.722 57.6703Z" fill="#FA9E9F"/>
<path d="M229.706 56.848C230.232 56.7758 230.628 56.4954 230.591 56.2219C230.553 55.9483 230.096 55.7852 229.57 55.8574C229.044 55.9297 228.648 56.21 228.685 56.4836C228.723 56.7571 229.18 56.9203 229.706 56.848Z" fill="#FA9E9F"/>
<path d="M225.837 55.8262C225.697 56.1032 224.926 57.2846 225.945 57.6031" stroke="#1F161E" stroke-width="0.5305" stroke-miterlimit="10" stroke-linecap="round"/>
<path d="M228.039 58.5784C228.322 58.5306 228.717 58.123 228.908 57.7695" stroke="#1F161E" stroke-width="0.5305" stroke-miterlimit="10" stroke-linecap="round"/>
<path d="M231.413 43.2101C239.03 43.2101 244.501 44.4616 248.067 44.4616C253.554 44.4616 257.885 42 264.034 42C266.84 42 274.03 44.3819 274.03 52.4449C274.03 57.0145 271.483 66.0901 260.569 66.0901C251.226 66.0901 249.596 62.1383 245.81 62.1383C241.816 62.1383 234.39 64.0203 233.136 58.9284C232.865 57.575 232.559 55.9159 231.808 54.553C227.623 53.0977 226.264 53.2251 224.299 52.0596C221.452 50.7062 221.318 43.2101 231.413 43.2101Z" fill="#1F161E"/>
<path d="M232.834 56.6774C233.534 56.6774 234.101 56.1099 234.101 55.41C234.101 54.71 233.534 54.1426 232.834 54.1426C232.134 54.1426 231.566 54.71 231.566 55.41C231.566 56.1099 232.134 56.6774 232.834 56.6774Z" fill="#FFEBEE"/>
</g>
<defs>
<clipPath id="clip0_8997_281214">
<path d="M0 8C0 3.58172 3.58172 0 8 0H306C310.418 0 314 3.58172 314 8V115H0V8Z" fill="white"/>
</clipPath>
<clipPath id="clip1_8997_281214">
<rect width="136.085" height="62.2761" fill="white" transform="matrix(-1 0 0 1 140.086 52.7637)"/>
</clipPath>
</defs>
</svg>
