<svg width="586" height="160" viewBox="0 0 586 160" fill="none" xmlns="http://www.w3.org/2000/svg">
<g clip-path="url(#clip0_8997_281169)">
<g clip-path="url(#clip1_8997_281169)">
<path d="M219.449 25H43.5507C38.8283 25 35 28.8283 35 33.5507V96.8176C35 101.54 38.8283 105.368 43.5507 105.368H219.449C224.172 105.368 228 101.54 228 96.8176V33.5507C228 28.8283 224.172 25 219.449 25Z" fill="#F5F7F9"/>
<path d="M60.0179 65.1842C67.9669 65.1842 74.4108 58.7403 74.4108 50.7913C74.4108 42.8424 67.9669 36.3984 60.0179 36.3984C52.0689 36.3984 45.625 42.8424 45.625 50.7913C45.625 58.7403 52.0689 65.1842 60.0179 65.1842Z" fill="#EF5350"/>
<path d="M86.873 43.4492H150.434" stroke="white" stroke-width="8.69369" stroke-miterlimit="10" stroke-linecap="round"/>
<path d="M86.873 57.5527H188.493" stroke="white" stroke-width="5.6026" stroke-miterlimit="10" stroke-linecap="round"/>
<path d="M86.873 67.9863H165.309" stroke="white" stroke-width="5.6026" stroke-miterlimit="10" stroke-linecap="round"/>
<path d="M86.873 81.123H99.4306" stroke="#999CBF" stroke-width="5.6026" stroke-miterlimit="10" stroke-linecap="round"/>
<path d="M108.896 81.123H121.454" stroke="#999CBF" stroke-width="5.6026" stroke-miterlimit="10" stroke-linecap="round"/>
<path d="M206.392 37.7746L214.607 45.9902L207.777 52.8206L199.561 44.605C198.656 43.6992 198.147 42.4707 198.147 41.1898C198.147 39.9088 198.656 38.6803 199.561 37.7746C200.467 36.8688 201.696 36.36 202.977 36.36C204.258 36.36 205.486 36.8688 206.392 37.7746Z" fill="#999CBF"/>
<path d="M216.014 44.6027L207.799 52.8183L200.968 45.9879L209.184 37.7723C210.09 36.8665 211.318 36.3577 212.599 36.3577C213.88 36.3577 215.109 36.8665 216.014 37.7723C216.92 38.6781 217.429 39.9065 217.429 41.1875C217.429 42.4684 216.92 43.6969 216.014 44.6027Z" fill="#999CBF"/>
</g>
<path d="M311.723 103.965H285.432" stroke="#D8D8D8" stroke-width="1.70637" stroke-linecap="round" stroke-linejoin="round"/>
<path d="M311.723 106.047L285.961 113.286" stroke="#D8D8D8" stroke-width="1.70637" stroke-linecap="round" stroke-linejoin="round"/>
<path d="M290.077 72.4102H299.65C300.599 72.4102 301.369 73.1799 301.369 74.1293C301.369 75.0788 300.599 75.8485 299.65 75.8485H290.077C289.128 75.8485 288.358 75.0788 288.358 74.1293C288.358 73.1799 289.128 72.4102 290.077 72.4102Z" fill="#D8D8D8"/>
<path d="M292.002 84.5293L247.956 84.6615" stroke="#D8D8D8" stroke-width="1.70637" stroke-linecap="round" stroke-linejoin="round"/>
<path d="M237.688 127.564C225.804 127.564 216.17 117.93 216.17 106.047C216.17 94.1629 225.804 84.5293 237.688 84.5293C249.571 84.5293 259.205 94.1629 259.205 106.047C259.205 117.93 249.571 127.564 237.688 127.564Z" stroke="#969696" stroke-width="1.70637" stroke-miterlimit="10"/>
<path d="M237.687 106.048L252.43 75.3457" stroke="#D8D8D8" stroke-width="1.70637" stroke-linecap="round" stroke-linejoin="round"/>
<path d="M285.192 114.217C282.026 114.217 279.459 111.65 279.459 108.483C279.459 105.317 282.026 102.75 285.192 102.75C288.359 102.75 290.926 105.317 290.926 108.483C290.926 111.65 288.359 114.217 285.192 114.217Z" fill="#D8D8D8"/>
<path d="M311.723 127.564C299.839 127.564 290.206 117.93 290.206 106.047C290.206 94.1629 299.839 84.5293 311.723 84.5293C323.607 84.5293 333.24 94.1629 333.24 106.047C333.24 117.93 323.607 127.564 311.723 127.564Z" stroke="#969696" stroke-width="1.70637" stroke-miterlimit="10"/>
<path d="M292.79 110.834C292.943 111.363 294.244 114.605 293.72 115.1C293.195 115.595 286.468 117.796 286.041 117.578C285.615 117.361 285.265 116.768 285.487 116.499C285.708 116.23 288.174 114.929 288.473 114.575C288.771 114.221 288.861 112.771 288.473 112.118" fill="#1F161E"/>
<path d="M285.725 88.041C286.062 88.4676 288.421 91.0528 288.106 91.7012C287.79 92.3496 282.266 96.7947 281.814 96.7307C281.361 96.6667 280.798 96.2487 280.913 95.9202C281.029 95.5917 282.871 93.4971 283.012 93.0663C283.153 92.6354 282.735 91.2405 282.138 90.7712" fill="#1F161E"/>
<path d="M237.687 40.1469C237.687 35.0278 244.38 30.4334 250.267 30.4334C256.512 30.4334 260.505 33.7352 267.292 33.7352C273.06 33.7352 279.804 27.6562 287.163 27.6562C296.612 27.6562 299.662 36.892 299.662 40.4284C299.662 49.3314 291.467 50.9951 289.548 50.9951C287.628 50.9951 261.03 48.8323 260.113 48.8323C259.614 42.86 251.389 43.5682 250.885 41.7594C250.263 42.4931 245.928 45.8888 244.717 45.8888C239.112 45.8888 237.687 41.9983 237.687 40.1469Z" fill="black"/>
<path d="M246.69 71.8864L249.623 73.1543L249.122 74.3133L246.189 73.0454L246.69 71.8864Z" fill="#969696"/>
<path d="M256 58.6561C256.051 58.976 256.397 63.8221 256.26 64.4961L256.128 65.1701C256.128 65.1701 252.289 71.8165 251.986 72.307C251.683 72.7976 253.449 73.5868 253.449 73.5868C253.449 73.5868 260.181 66.5139 260.654 65.9081C261.128 65.3024 263.163 59.1765 263.128 58.4726C263.094 57.7688 256 58.6561 256 58.6561Z" fill="#EED0C3"/>
<path d="M276.529 58.1836C276.042 58.6102 262.656 71.7237 262.767 72.884C262.878 74.0443 281.068 90.097 283.167 90.5833C285.265 91.0696 283.354 84.1844 282.569 83.6085C279.361 81.1161 276.313 78.4232 273.444 75.5459C274.767 74.8719 288.678 67.5601 290.743 66.6984C292.808 65.8367 276.529 58.1836 276.529 58.1836Z" fill="#1F161E"/>
<path d="M280.372 60.67C284.89 57.863 288.012 52.1637 288.768 48.0215C292.607 51.2807 295.115 55.521 295.115 60.6657C295.115 69.846 291.208 83.2367 289.868 86.9694C290.201 88.8293 293.255 111.076 293.255 111.076L288.341 112.275C288.341 112.275 280.504 85.6384 280.372 84.2435C279.306 78.493 280.466 61.4293 280.372 60.67Z" fill="#8C6631"/>
<path d="M254.673 73.4895C254.673 73.4895 254.562 73.016 255.181 72.8538C255.799 72.6917 264.062 67.21 265.419 64.2921C264.749 62.927 261.895 57.8506 260.342 56.4258C258.79 55.0009 266.178 47.3223 266.178 47.3223C266.558 48.0816 273.349 61.9117 272.078 66.7664C271.225 69.6843 259.613 74.9783 256.661 76.4074C253.709 77.8365 254.673 73.4895 254.673 73.4895Z" fill="#EED0C3"/>
<path d="M289.395 48.6324C289.177 48.4319 288.968 48.2314 288.721 48.0352C288.959 48.2357 289.181 48.4319 289.395 48.6324Z" fill="#FBDC8E"/>
<path d="M265.591 40.1465C273.376 40.1465 282.718 42.8639 288.768 48.0214C288.013 52.1636 284.928 57.8671 280.394 60.6699C280.394 60.6699 274.566 58.6307 270.445 57.2358C270.313 56.8561 270.211 56.3826 270.138 56.1906C268.27 57.2059 263.198 60.03 262.933 60.1409C262.758 59.8124 262.472 59.3517 262.212 58.9507V58.9763C261.449 59.0787 258.962 59.6844 256.116 59.2792C255.911 58.2639 254.542 47.4924 254.542 46.5283C254.542 45.5642 255.276 40.1465 265.591 40.1465Z" fill="#FFCDD2"/>
<path d="M251.615 42.373L258.479 43.7381C259.396 43.913 258.479 48.8573 257.502 48.6653L250.634 47.3002L251.615 42.373Z" fill="#EED0C3"/>
<path d="M270.139 56.1908C269.768 55.2907 268.006 50.2569 266.926 48.9941" stroke="#1F161E" stroke-width="0.234626" stroke-miterlimit="10" stroke-linecap="round"/>
<path d="M262.934 60.1496C262.464 59.3561 260.11 55.457 260.11 55.457" stroke="#1F161E" stroke-width="0.234626" stroke-miterlimit="10" stroke-linecap="round"/>
<path d="M248.678 75.0387C248.235 74.0317 248.9 72.7645 250.163 72.2082C251.427 71.6519 252.811 72.0173 253.254 73.0243C253.697 74.0313 253.032 75.2986 251.769 75.8549C250.505 76.4111 249.121 76.0457 248.678 75.0387Z" fill="#EED0C3"/>
<path d="M251.506 73.8202L253.306 74.5225C253.631 74.6492 253.792 75.0153 253.665 75.3401C253.538 75.665 253.172 75.8256 252.847 75.6989L251.047 74.9966C250.722 74.8699 250.562 74.5038 250.688 74.179C250.815 73.8541 251.181 73.6935 251.506 73.8202Z" fill="#969696"/>
<path d="M251.876 75.7097C251.659 74.3247 252.914 72.978 254.678 72.7017C256.443 72.4254 258.049 73.3242 258.266 74.7091C258.482 76.0941 257.228 77.4408 255.464 77.7171C253.699 77.9934 252.093 77.0946 251.876 75.7097Z" fill="#EED0C3"/>
<path d="M260.451 77.3128L255.682 75.4524C255.526 75.3916 255.352 75.3952 255.199 75.4625C255.045 75.5297 254.925 75.6552 254.864 75.8112C254.803 75.9672 254.807 76.1409 254.874 76.2943C254.941 76.4476 255.067 76.5679 255.223 76.6288L259.992 78.4892L260.457 77.2969L260.451 77.3128Z" fill="#969696"/>
<path d="M249.337 43.3796C248.573 43.3796 247.954 42.7607 247.954 41.9974C247.954 41.234 248.573 40.6152 249.337 40.6152C250.1 40.6152 250.719 41.234 250.719 41.9974C250.719 42.7607 250.1 43.3796 249.337 43.3796Z" fill="#EED0C3"/>
<path d="M248.139 41.332C249.508 41.6306 252.025 42.0188 253.799 41.7245C253.951 42.5313 253.938 43.3603 253.762 44.162C253.585 44.9636 253.249 45.7214 252.772 46.39C252.296 47.0585 251.69 47.6241 250.99 48.0527C250.29 48.4814 249.51 48.7644 248.698 48.8848C247.886 49.0051 247.058 48.9603 246.264 48.7531C245.47 48.5459 244.726 48.1806 244.076 47.6789C243.426 47.1772 242.884 46.5496 242.483 45.8336C242.082 45.1176 241.829 44.3279 241.74 43.5119C243.442 43.1664 246.675 42.2321 248.139 41.332Z" fill="#EED0C3"/>
<path d="M243.481 45.0918C243.54 45.4416 243.728 47.3143 245.123 46.6873" stroke="#1F161E" stroke-width="0.234626" stroke-miterlimit="10" stroke-linecap="round"/>
<path d="M247.576 46.8145C247.668 46.6141 247.69 46.3884 247.639 46.174C247.587 45.9596 247.464 45.769 247.291 45.6328" stroke="#1F161E" stroke-width="0.234626" stroke-miterlimit="10" stroke-linecap="round"/>
<path d="M311.722 109.024C310.077 109.024 308.744 107.69 308.744 106.046C308.744 104.401 310.077 103.068 311.722 103.068C313.366 103.068 314.699 104.401 314.699 106.046C314.699 107.69 313.366 109.024 311.722 109.024Z" fill="#D8D8D8"/>
<path d="M237.686 109.024C236.042 109.024 234.709 107.69 234.709 106.046C234.709 104.401 236.042 103.068 237.686 103.068C239.331 103.068 240.664 104.401 240.664 106.046C240.664 107.69 239.331 109.024 237.686 109.024Z" fill="#D8D8D8"/>
<path d="M285.193 108.483L247.956 84.6621" stroke="#D8D8D8" stroke-width="1.70637" stroke-linecap="round" stroke-linejoin="round"/>
<path d="M311.723 106.047L292.001 84.5293" stroke="#D8D8D8" stroke-width="1.70637" stroke-linecap="round" stroke-linejoin="round"/>
<path d="M292 84.5291L294.176 75.7754" stroke="#D8D8D8" stroke-width="1.70637" stroke-linecap="round" stroke-linejoin="round"/>
<path d="M425.723 133.965H399.432" stroke="#D8D8D8" stroke-width="1.70637" stroke-linecap="round" stroke-linejoin="round"/>
<path d="M425.723 136.047L399.961 143.286" stroke="#D8D8D8" stroke-width="1.70637" stroke-linecap="round" stroke-linejoin="round"/>
<path d="M404.077 102.41H413.65C414.599 102.41 415.369 103.18 415.369 104.129C415.369 105.079 414.599 105.848 413.65 105.848H404.077C403.128 105.848 402.358 105.079 402.358 104.129C402.358 103.18 403.128 102.41 404.077 102.41Z" fill="#D8D8D8"/>
<path d="M406 114.529L361.954 114.662" stroke="#D8D8D8" stroke-width="1.70637" stroke-linecap="round" stroke-linejoin="round"/>
<path d="M351.688 157.564C339.804 157.564 330.17 147.93 330.17 136.047C330.17 124.163 339.804 114.529 351.688 114.529C363.571 114.529 373.205 124.163 373.205 136.047C373.205 147.93 363.571 157.564 351.688 157.564Z" stroke="#969696" stroke-width="1.70637" stroke-miterlimit="10"/>
<path d="M351.687 136.048L366.43 105.346" stroke="#D8D8D8" stroke-width="1.70637" stroke-linecap="round" stroke-linejoin="round"/>
<path d="M399.192 144.217C396.026 144.217 393.459 141.65 393.459 138.483C393.459 135.317 396.026 132.75 399.192 132.75C402.359 132.75 404.926 135.317 404.926 138.483C404.926 141.65 402.359 144.217 399.192 144.217Z" fill="#D8D8D8"/>
<path d="M425.723 157.564C413.839 157.564 404.206 147.93 404.206 136.047C404.206 124.163 413.839 114.529 425.723 114.529C437.607 114.529 447.24 124.163 447.24 136.047C447.24 147.93 437.607 157.564 425.723 157.564Z" stroke="#969696" stroke-width="1.70637" stroke-miterlimit="10"/>
<path d="M406.79 140.834C406.943 141.363 408.244 144.605 407.72 145.1C407.195 145.595 400.468 147.796 400.041 147.578C399.615 147.361 399.265 146.768 399.487 146.499C399.708 146.23 402.174 144.929 402.473 144.575C402.771 144.221 402.861 142.771 402.473 142.118" fill="#1F161E"/>
<path d="M399.725 118.041C400.062 118.468 402.421 121.053 402.106 121.701C401.79 122.35 396.266 126.795 395.814 126.731C395.361 126.667 394.798 126.249 394.913 125.92C395.029 125.592 396.871 123.497 397.012 123.066C397.153 122.635 396.735 121.24 396.138 120.771" fill="#1F161E"/>
<path d="M351.687 70.1469C351.687 65.0278 358.38 60.4334 364.267 60.4334C370.512 60.4334 374.505 63.7352 381.292 63.7352C387.06 63.7352 393.804 57.6562 401.163 57.6562C410.612 57.6562 413.662 66.892 413.662 70.4284C413.662 79.3314 405.467 80.9951 403.548 80.9951C401.628 80.9951 375.03 78.8323 374.113 78.8323C373.614 72.86 365.389 73.5682 364.885 71.7594C364.263 72.4931 359.928 75.8888 358.717 75.8888C353.112 75.8888 351.687 71.9983 351.687 70.1469Z" fill="black"/>
<path d="M360.69 101.886L363.623 103.154L363.122 104.313L360.189 103.045L360.69 101.886Z" fill="#969696"/>
<path d="M370 88.6561C370.051 88.976 370.397 93.8221 370.26 94.4961L370.128 95.1701C370.128 95.1701 366.289 101.816 365.986 102.307C365.683 102.798 367.449 103.587 367.449 103.587C367.449 103.587 374.181 96.5139 374.654 95.9081C375.128 95.3024 377.163 89.1765 377.128 88.4726C377.094 87.7688 370 88.6561 370 88.6561Z" fill="#EED0C3"/>
<path d="M390.529 88.1836C390.042 88.6102 376.656 101.724 376.767 102.884C376.878 104.044 395.068 120.097 397.167 120.583C399.265 121.07 397.354 114.184 396.569 113.609C393.361 111.116 390.313 108.423 387.444 105.546C388.767 104.872 402.678 97.5601 404.743 96.6984C406.808 95.8367 390.529 88.1836 390.529 88.1836Z" fill="#1F161E"/>
<path d="M394.372 90.67C398.89 87.863 402.012 82.1637 402.768 78.0215C406.607 81.2807 409.115 85.521 409.115 90.6657C409.115 99.846 405.208 113.237 403.868 116.969C404.201 118.829 407.255 141.076 407.255 141.076L402.341 142.275C402.341 142.275 394.504 115.638 394.372 114.243C393.306 108.493 394.466 91.4293 394.372 90.67Z" fill="#EF5350"/>
<path d="M368.675 103.489C368.675 103.489 368.564 103.016 369.183 102.854C369.801 102.692 378.064 97.21 379.421 94.2921C378.751 92.927 375.897 87.8506 374.344 86.4258C372.792 85.0009 380.18 77.3223 380.18 77.3223C380.56 78.0816 387.351 91.9117 386.08 96.7664C385.227 99.6843 373.615 104.978 370.663 106.407C367.711 107.836 368.675 103.489 368.675 103.489Z" fill="#EED0C3"/>
<path d="M403.395 78.6324C403.177 78.4319 402.968 78.2314 402.721 78.0352C402.959 78.2357 403.181 78.4319 403.395 78.6324Z" fill="#FBDC8E"/>
<path d="M379.591 70.1465C387.376 70.1465 396.718 72.8639 402.768 78.0214C402.013 82.1636 398.928 87.8671 394.394 90.6699C394.394 90.6699 388.566 88.6307 384.445 87.2358C384.313 86.8561 384.211 86.3826 384.138 86.1906C382.27 87.2059 377.198 90.03 376.933 90.1409C376.758 89.8124 376.472 89.3517 376.212 88.9507V88.9763C375.449 89.0787 372.962 89.6844 370.116 89.2792C369.911 88.2639 368.542 77.4924 368.542 76.5283C368.542 75.5642 369.276 70.1465 379.591 70.1465Z" fill="#D6B689"/>
<path d="M365.615 72.373L372.479 73.7381C373.396 73.913 372.479 78.8573 371.502 78.6653L364.634 77.3002L365.615 72.373Z" fill="#EED0C3"/>
<path d="M384.139 86.1908C383.768 85.2907 382.006 80.2569 380.926 78.9941" stroke="#1F161E" stroke-width="0.234626" stroke-miterlimit="10" stroke-linecap="round"/>
<path d="M376.934 90.1496C376.464 89.3561 374.11 85.457 374.11 85.457" stroke="#1F161E" stroke-width="0.234626" stroke-miterlimit="10" stroke-linecap="round"/>
<path d="M362.678 105.039C362.235 104.032 362.9 102.764 364.163 102.208C365.427 101.652 366.811 102.017 367.254 103.024C367.697 104.031 367.032 105.299 365.769 105.855C364.505 106.411 363.121 106.046 362.678 105.039Z" fill="#EED0C3"/>
<path d="M365.508 103.82L367.308 104.523C367.633 104.649 367.794 105.015 367.667 105.34C367.54 105.665 367.174 105.826 366.849 105.699L365.049 104.997C364.724 104.87 364.564 104.504 364.69 104.179C364.817 103.854 365.183 103.694 365.508 103.82Z" fill="#969696"/>
<path d="M365.878 105.71C365.661 104.325 366.916 102.978 368.68 102.702C370.444 102.425 372.051 103.324 372.267 104.709C372.484 106.094 371.23 107.441 369.466 107.717C367.701 107.993 366.095 107.095 365.878 105.71Z" fill="#EED0C3"/>
<path d="M374.451 107.313L369.682 105.452C369.526 105.392 369.352 105.395 369.199 105.462C369.045 105.53 368.925 105.655 368.864 105.811C368.803 105.967 368.807 106.141 368.874 106.294C368.941 106.448 369.067 106.568 369.223 106.629L373.992 108.489L374.457 107.297L374.451 107.313Z" fill="#969696"/>
<path d="M363.337 73.3796C362.573 73.3796 361.954 72.7607 361.954 71.9974C361.954 71.234 362.573 70.6152 363.337 70.6152C364.1 70.6152 364.719 71.234 364.719 71.9974C364.719 72.7607 364.1 73.3796 363.337 73.3796Z" fill="#EED0C3"/>
<path d="M362.139 71.332C363.508 71.6306 366.025 72.0188 367.799 71.7245C367.951 72.5313 367.938 73.3603 367.762 74.162C367.585 74.9636 367.249 75.7214 366.772 76.39C366.296 77.0585 365.69 77.6241 364.99 78.0527C364.29 78.4814 363.51 78.7644 362.698 78.8848C361.886 79.0051 361.058 78.9603 360.264 78.7531C359.47 78.5459 358.726 78.1806 358.076 77.6789C357.426 77.1772 356.884 76.5496 356.483 75.8336C356.082 75.1176 355.829 74.3279 355.74 73.5119C357.442 73.1664 360.675 72.2321 362.139 71.332Z" fill="#EED0C3"/>
<path d="M357.481 75.0918C357.54 75.4416 357.728 77.3143 359.123 76.6873" stroke="#1F161E" stroke-width="0.234626" stroke-miterlimit="10" stroke-linecap="round"/>
<path d="M361.576 76.8145C361.668 76.6141 361.69 76.3884 361.639 76.174C361.587 75.9596 361.464 75.769 361.291 75.6328" stroke="#1F161E" stroke-width="0.234626" stroke-miterlimit="10" stroke-linecap="round"/>
<path d="M425.722 139.024C424.077 139.024 422.744 137.69 422.744 136.046C422.744 134.401 424.077 133.068 425.722 133.068C427.366 133.068 428.699 134.401 428.699 136.046C428.699 137.69 427.366 139.024 425.722 139.024Z" fill="#D8D8D8"/>
<path d="M351.686 139.024C350.042 139.024 348.709 137.69 348.709 136.046C348.709 134.401 350.042 133.068 351.686 133.068C353.331 133.068 354.664 134.401 354.664 136.046C354.664 137.69 353.331 139.024 351.686 139.024Z" fill="#D8D8D8"/>
<path d="M399.193 138.483L361.956 114.662" stroke="#D8D8D8" stroke-width="1.70637" stroke-linecap="round" stroke-linejoin="round"/>
<path d="M425.723 136.047L406.001 114.529" stroke="#D8D8D8" stroke-width="1.70637" stroke-linecap="round" stroke-linejoin="round"/>
<path d="M406 114.529L408.176 105.775" stroke="#D8D8D8" stroke-width="1.70637" stroke-linecap="round" stroke-linejoin="round"/>
</g>
<defs>
<clipPath id="clip0_8997_281169">
<rect width="586" height="160" fill="white"/>
</clipPath>
<clipPath id="clip1_8997_281169">
<rect width="193" height="80.3684" fill="white" transform="translate(35 25)"/>
</clipPath>
</defs>
</svg>
