<svg width="586" height="160" viewBox="0 0 586 160" fill="none" xmlns="http://www.w3.org/2000/svg">
<g clip-path="url(#clip0_8997_281192)">
<path d="M134.666 83.5332C135.95 84.7572 154.556 102.199 154.556 111.364C154.556 114.136 149.263 154.77 148.667 155.596H144.069C144.069 155.596 142.044 121.743 143.655 115.128C142.461 114.592 131.508 110.556 126.649 106.229C121.79 101.902 125.267 85.2529 134.666 83.5332Z" fill="#1F161E"/>
<path d="M134.668 83.5329C136.114 83.8021 116.12 169.611 116.12 169.611H111.154C111.154 169.611 113.04 88.3952 114.122 84.4417C119.273 82.8015 130.778 82.8015 134.668 83.5329Z" fill="#DC9E83"/>
<path d="M108.021 50.6219C113.32 46.6684 131.448 46.6684 150.23 47.4609C152.451 47.5558 158.753 33.4431 161.44 31.4357C164.399 29.2264 169.113 31.2215 169.113 32.3965C169.113 34.9608 165.752 35.022 165.041 35.8513C164.329 36.6806 157.972 56.4237 152.604 59.3307C150.869 60.2732 138.033 59.961 137.137 61.1881C136.24 62.4152 135.419 82.7703 134.67 83.5261C133.921 84.2819 116.177 84.9092 114.135 84.4441C114.023 82.8621 111.634 69.7408 111.035 68.7126C110.705 68.682 105.93 77.1521 105.933 78.2201C105.933 79.6277 114.103 91.4209 117.528 93.4405C118.416 93.9607 118.286 95.4417 118.124 95.8028C117.962 96.1639 116.738 97.9448 115.975 97.9448C115.211 97.9448 97.404 86.632 97.002 78.1068C96.8949 75.8027 101.193 55.7321 108.021 50.6219Z" fill="#5E4521"/>
<path d="M144.687 155.078C144.687 155.528 144.542 158.19 144.904 158.64C145.554 159.451 150.87 159.127 151.122 158.866C151.374 158.606 151.53 158.052 151.307 157.893C151.084 157.734 148.976 157.26 148.704 157.049C148.432 156.838 148.033 155.715 148.186 155.115" fill="#1F161E"/>
<path d="M123.821 49.3617C123.919 50.5673 117.66 51.2222 117.556 49.9278L116.908 41.8677L123.173 41.3047L123.821 49.3617Z" fill="#FFEBEE"/>
<path d="M117.297 46.681C117.239 45.9649 118.59 43.3547 119.816 43.6638C118.301 43.2446 117.418 41.4331 116.924 41.8676L117.297 46.681Z" fill="black"/>
<path d="M122.345 44.0876C126.856 44.0876 130.513 40.2187 130.513 35.4461C130.513 30.6736 126.856 26.8047 122.345 26.8047C117.834 26.8047 114.178 30.6736 114.178 35.4461C114.178 40.2187 117.834 44.0876 122.345 44.0876Z" fill="#FFEBEE"/>
<path d="M130.73 36.6041C131.479 36.5365 132.06 36.1473 132.027 35.7347C131.993 35.3221 131.359 35.0425 130.609 35.1101C129.86 35.1776 129.279 35.5669 129.312 35.9794C129.345 36.392 129.98 36.6716 130.73 36.6041Z" fill="#FA9E9F"/>
<path d="M122.192 37.3755C122.942 37.308 123.523 36.9187 123.49 36.5062C123.456 36.0936 122.822 35.814 122.072 35.8816C121.323 35.9491 120.742 36.3383 120.775 36.7509C120.808 37.1635 121.443 37.4431 122.192 37.3755Z" fill="#FA9E9F"/>
<path d="M127.23 34.6074C127.52 34.9685 128.948 36.4587 127.624 37.236" stroke="#1F161E" stroke-width="0.465864" stroke-miterlimit="10" stroke-linecap="round"/>
<path d="M125.04 39.3634C124.632 39.3848 123.961 38.9197 123.594 38.4668" stroke="#1F161E" stroke-width="0.465864" stroke-miterlimit="10" stroke-linecap="round"/>
<path d="M114.163 31.1278C113.923 28.1382 117.683 25.5586 120.425 25.3138C124.786 24.9191 127.23 25.0231 129.622 24.1877C133.047 22.9943 132.983 27.8597 133.029 28.4136C133.214 30.7422 132.529 32.26 130.137 32.8475C129.908 32.0428 129.559 31.2816 129.104 30.5923C128.408 30.3774 127.662 30.4305 126.999 30.7422C126.4 31.0268 121.443 34.0654 117.622 34.4142C117.174 35.2129 116.428 39.9467 116.917 41.8715C115.8 42.0398 113.429 38.3739 113.157 36.3635C113.076 35.6745 113.149 34.9751 113.37 34.3215C113.591 33.6678 113.954 33.0781 114.429 32.5997C114.354 32.1774 114.184 31.3634 114.163 31.1278Z" fill="black"/>
<path d="M117.418 38.2051C118.412 38.2051 119.217 37.3529 119.217 36.3018C119.217 35.2506 118.412 34.3984 117.418 34.3984C116.425 34.3984 115.619 35.2506 115.619 36.3018C115.619 37.3529 116.425 38.2051 117.418 38.2051Z" fill="#FFEBEE"/>
<path d="M117.513 93.4397C114.088 91.4201 105.921 79.6268 105.918 78.2192C105.918 77.5338 107.876 73.8098 109.371 71.2302L99.8037 65.7559C97.9585 71.5699 96.9491 76.9799 97.0041 78.1091C97.4032 86.6342 115.196 97.9287 115.96 97.9287C116.723 97.9287 117.946 96.1631 118.108 95.7867C118.27 95.4103 118.403 93.9599 117.513 93.4397Z" fill="#FFEBEE"/>
<path d="M161.44 31.4494C158.753 33.4567 152.451 47.5633 150.218 47.4746C146.438 47.3155 148.616 47.395 144.989 47.3277L144.969 60.0481C149.177 60.0481 151.392 59.99 152.59 59.3443C157.96 56.4373 164.32 36.7003 165.026 35.865C165.732 35.0296 169.098 34.9745 169.098 32.4102C169.113 31.2352 164.39 29.2401 161.44 31.4494Z" fill="#FFEBEE"/>
<g clip-path="url(#clip1_8997_281192)">
<path d="M322.849 34.8496H163.15V139.549H322.849V34.8496Z" stroke="black" stroke-miterlimit="10"/>
<path d="M163.15 40.416H322.849" stroke="black" stroke-miterlimit="10"/>
<path d="M310.777 49.7422H175.221V97.5789H310.777V49.7422Z" fill="#F2F2F2"/>
<path d="M206.32 66.0215H279.679" stroke="black" stroke-miterlimit="10"/>
<path d="M206.32 105.23H279.679" stroke="black" stroke-miterlimit="10"/>
<path d="M206.32 112.451H279.679" stroke="black" stroke-miterlimit="10"/>
<path d="M206.32 119.672H279.679" stroke="black" stroke-miterlimit="10"/>
<path d="M206.32 126.893H279.679" stroke="black" stroke-miterlimit="10"/>
<path d="M166.622 39.0613C167.372 39.0613 167.981 38.4551 167.981 37.7074C167.981 36.9597 167.372 36.3535 166.622 36.3535C165.872 36.3535 165.264 36.9597 165.264 37.7074C165.264 38.4551 165.872 39.0613 166.622 39.0613Z" fill="#999CBF"/>
<path d="M171.302 39.0613C172.052 39.0613 172.66 38.4551 172.66 37.7074C172.66 36.9597 172.052 36.3535 171.302 36.3535C170.552 36.3535 169.943 36.9597 169.943 37.7074C169.943 38.4551 170.552 39.0613 171.302 39.0613Z" fill="#DC9E83"/>
<path d="M175.982 39.0613C176.732 39.0613 177.34 38.4551 177.34 37.7074C177.34 36.9597 176.732 36.3535 175.982 36.3535C175.231 36.3535 174.623 36.9597 174.623 37.7074C174.623 38.4551 175.231 39.0613 175.982 39.0613Z" fill="#7DBF9D"/>
<path d="M241.213 73.6602H224.438V79.4216H241.213V73.6602Z" fill="#EED0C3"/>
<path d="M261.563 73.6602H244.787V79.4216H261.563V73.6602Z" fill="#EED0C3"/>
</g>
<path d="M387 147.699H337V160.699H387V147.699Z" fill="#EAEAF5"/>
<path d="M302.295 131.418C302.053 132.859 297.942 165.811 297.276 166.356C296.61 166.9 289.539 168.108 288.934 167.2C288.813 165.759 288.646 142.781 288.271 140.726" fill="#1F161E"/>
<path d="M381.826 124.543C384.677 123.136 378.733 150.965 363.089 150.965C347.445 150.965 321.112 127.135 316.849 127.135C307.437 127.135 285.157 145.615 283.41 145.615C282.073 144.278 279.398 141.937 279.398 141.017C279.398 140.098 300.729 104.984 316.69 104.984C322.879 104.979 375.389 127.723 381.826 124.543Z" fill="#546B7D"/>
<path d="M373.024 125.015C369.896 124.306 366.005 122.469 362.56 120.59C371.932 123.651 379.611 125.637 381.828 124.542C383.338 123.798 382.381 131.247 378.83 138.422C379.473 137.032 380.389 126.684 373.024 125.015Z" fill="#1F161E"/>
<path d="M366.128 76.1951C363.664 76.2614 350.833 75.8838 347.316 79.2334C344.707 81.7154 336.596 103.087 335.345 110.591C340.793 113.358 380.089 132.176 392.251 123.9C392.519 117.469 391.271 91.9199 383.317 78.5185C380.409 76.5814 368.498 76.1317 366.128 76.1951Z" fill="#999CBF"/>
<path d="M361.13 70.0781H368.625V78.1351C368.625 80.1529 361.13 80.1356 361.13 78.1351V70.0781Z" fill="#FFEBEE"/>
<path d="M368.625 74.934C368.625 74.0404 366.149 71.7948 364.618 71.8727C364.581 70.8983 368.115 69.457 368.115 69.457L368.625 70.832V74.934Z" fill="#1F161E"/>
<path d="M353.28 70.0786C353.111 69.3 353.026 68.5057 353.026 67.7091C353.026 61.7651 357.67 56.9453 363.404 56.9453C369.137 56.9453 373.781 61.7651 373.781 67.7091C373.781 68.5057 373.696 69.3 373.528 70.0786H353.28Z" fill="#1F161E"/>
<path d="M356.016 62.8282C357.287 62.6351 358.555 61.6348 359.44 60.9805C364.485 64.676 367.716 64.7279 368.065 64.7279C368.414 64.7279 369.835 66.7688 370.489 66.9994L370.547 66.9648C370.351 68.0377 369.934 69.0581 369.323 69.9613C368.712 70.8645 367.919 71.6308 366.996 72.2116C366.073 72.7924 365.039 73.1749 363.96 73.335C362.882 73.4951 361.781 73.4292 360.729 73.1415C359.677 72.8538 358.697 72.3505 357.85 71.6637C357.002 70.9769 356.307 70.1215 355.808 69.1518C355.309 68.1821 355.017 67.1192 354.95 66.0306C354.884 64.942 355.044 63.8515 355.422 62.8282C355.619 62.8527 355.818 62.8527 356.016 62.8282Z" fill="#FFEBEE"/>
<path d="M369.025 58.2848C367.334 58.2848 365.963 56.9142 365.963 55.2235C365.963 53.5327 367.334 52.1621 369.025 52.1621C370.715 52.1621 372.086 53.5327 372.086 55.2235C372.086 56.9142 370.715 58.2848 369.025 58.2848Z" fill="#1F161E"/>
<path d="M367.661 64.5586C367.992 64.5743 368.304 64.7167 368.533 64.9564C368.761 65.196 368.889 65.5145 368.889 65.8457C368.889 66.1769 368.761 66.4954 368.533 66.735C368.304 66.9747 367.992 67.1171 367.661 67.1328" stroke="#1F161E" stroke-miterlimit="10" stroke-linecap="round"/>
<path d="M357.85 64.7129C357.472 65.2174 356.501 66.0994 357.85 67.0363" stroke="#1F161E" stroke-miterlimit="10" stroke-linecap="round"/>
<path d="M361.939 67.7285C361.939 68.1061 361.778 69.0084 360.968 69.2419" stroke="#1F161E" stroke-miterlimit="10" stroke-linecap="round"/>
<path d="M364.451 67.8099C363.795 67.8099 363.263 67.5338 363.263 67.1931C363.263 66.8524 363.795 66.5762 364.451 66.5762C365.107 66.5762 365.639 66.8524 365.639 67.1931C365.639 67.5338 365.107 67.8099 364.451 67.8099Z" fill="#FA9E9F"/>
<path d="M355.621 67.8099C354.965 67.8099 354.433 67.5338 354.433 67.1931C354.433 66.8524 354.965 66.5762 355.621 66.5762C356.277 66.5762 356.809 66.8524 356.809 67.1931C356.809 67.5338 356.277 67.8099 355.621 67.8099Z" fill="#FA9E9F"/>
<path d="M347.586 98.4693L339.575 96.4082C338.805 97.7083 335.058 110.576 335.058 110.576L347.425 115.788C347.263 113.349 346.776 102.205 347.586 98.4693Z" fill="#FFEBEE"/>
<path d="M375.675 96.4531C375.675 97.4217 376.491 101.109 376.973 102.841" stroke="#1F161E" stroke-miterlimit="10" stroke-linecap="round"/>
<path d="M347.586 98.469C347.779 96.9441 348.909 88.351 350.832 83.8281" stroke="#1F161E" stroke-miterlimit="10" stroke-linecap="round"/>
<path d="M347.586 98.4693L339.575 96.4082C338.805 97.7083 335.058 110.576 335.058 110.576L347.425 115.788C347.263 113.349 346.776 102.205 347.586 98.4693Z" fill="#FFEBEE"/>
<path d="M283.172 144.933C282.993 145.207 280.606 148.147 279.762 148.182C278.917 148.216 273.789 144.74 274.014 143.993C274.239 143.247 277.456 143.731 278.009 143.472C278.563 143.212 279.793 141.978 279.989 141.428" fill="#1F161E"/>
<path d="M305.35 111.382H332.496L326.033 94.2559H298.887L305.35 111.382Z" fill="#969696"/>
<path d="M327.969 110.738H355.115V111.384H327.969V110.738Z" fill="#969696"/>
<path d="M376.972 102.843C377.494 104.8 380.039 113.148 378.99 114.584C377.941 116.019 352.112 112.756 345.197 110.606C343.436 110.029 342.13 108.516 341.349 108.323C340.348 108.154 339.32 108.36 338.462 108.901C337.604 109.443 336.975 110.282 336.696 111.257C339.458 112.595 379.33 132.952 392.25 123.892C394.692 122.154 390.405 100.822 390.212 99.7441C388.03 100.015 376.972 102.843 376.972 102.843Z" fill="#FFEBEE"/>
<path d="M347.219 111.141C346.44 110.956 345.76 110.778 345.201 110.605C343.44 110.028 342.134 108.515 341.353 108.322C340.351 108.152 339.323 108.358 338.464 108.899C337.605 109.441 336.976 110.28 336.697 111.256" stroke="#1F161E" stroke-miterlimit="10" stroke-linecap="round"/>
</g>
<defs>
<clipPath id="clip0_8997_281192">
<rect width="586" height="160" fill="white"/>
</clipPath>
<clipPath id="clip1_8997_281192">
<rect width="160" height="105" fill="white" transform="translate(163 34.6992)"/>
</clipPath>
</defs>
</svg>
