<svg width="314" height="115" viewBox="0 0 314 115" fill="none" xmlns="http://www.w3.org/2000/svg">
<g clip-path="url(#clip0_7013_221940)">
<path d="M0 8C0 3.58172 3.58172 0 8 0H306C310.418 0 314 3.58172 314 8V115H0V8Z" fill="#FFCDD2"/>
<path d="M97.3541 56.8145C98.3208 57.7358 112.326 70.8657 112.326 77.7646C112.326 79.8515 108.342 110.439 107.894 111.061H104.432C104.432 111.061 102.908 85.578 104.121 80.5978C103.222 80.1947 94.9767 77.1564 91.319 73.8993C87.6614 70.6422 90.2784 58.109 97.3541 56.8145Z" fill="#1F161E"/>
<path d="M97.3546 56.8155C98.4431 57.0182 83.3925 121.612 83.3925 121.612H79.6543C79.6543 121.612 81.0738 60.4757 81.8881 57.4996C85.7656 56.265 94.4263 56.265 97.3546 56.8155Z" fill="#DC9E83"/>
<path d="M77.2964 32.0409C81.285 29.0648 94.9314 29.0648 109.07 29.6614C110.742 29.7328 115.486 19.1092 117.508 17.5981C119.736 15.935 123.284 17.4368 123.284 18.3214C123.284 20.2517 120.755 20.2978 120.219 20.922C119.683 21.5462 114.898 36.4083 110.857 38.5966C109.551 39.306 99.8888 39.0711 99.2138 39.9948C98.5389 40.9185 97.9206 56.2412 97.3567 56.8102C96.7928 57.3791 83.436 57.8513 81.8989 57.5012C81.814 56.3103 80.0157 46.433 79.565 45.659C79.3168 45.636 75.7223 52.012 75.7245 52.8159C75.7245 53.8755 81.875 62.7531 84.4527 64.2734C85.1211 64.665 85.0231 65.7799 84.9012 66.0517C84.7793 66.3235 83.8584 67.6641 83.2836 67.6641C82.7088 67.6641 69.3041 59.1482 69.0015 52.7307C68.9209 50.9962 72.1562 35.8877 77.2964 32.0409Z" fill="#5E4521"/>
<path d="M104.897 110.672C104.897 111.01 104.788 113.015 105.06 113.353C105.55 113.964 109.551 113.719 109.741 113.524C109.93 113.328 110.048 112.911 109.88 112.791C109.712 112.671 108.125 112.314 107.921 112.155C107.716 111.996 107.415 111.151 107.531 110.7" fill="#1F161E"/>
<path d="M89.1897 31.0924C89.2638 32 84.5524 32.4929 84.474 31.5185L83.9863 25.4512L88.702 25.0273L89.1897 31.0924Z" fill="#FFEBEE"/>
<path d="M84.2789 29.074C84.2354 28.535 85.2521 26.5702 86.1752 26.8028C85.0344 26.4872 84.3703 25.1236 83.998 25.4507L84.2789 29.074Z" fill="black"/>
<path d="M88.0799 27.1214C91.4755 27.1214 94.2282 24.209 94.2282 20.6163C94.2282 17.0237 91.4755 14.1113 88.0799 14.1113C84.6843 14.1113 81.9316 17.0237 81.9316 20.6163C81.9316 24.209 84.6843 27.1214 88.0799 27.1214Z" fill="#FFEBEE"/>
<path d="M94.3896 21.4896C94.9539 21.4387 95.3911 21.1457 95.3661 20.8351C95.3411 20.5246 94.8634 20.3141 94.2991 20.3649C93.7348 20.4158 93.2976 20.7088 93.3226 21.0193C93.3476 21.3299 93.8254 21.5404 94.3896 21.4896Z" fill="#FA9E9F"/>
<path d="M87.9639 22.0696C88.5282 22.0188 88.9653 21.7258 88.9403 21.4152C88.9153 21.1047 88.4376 20.8941 87.8733 20.945C87.309 20.9959 86.8718 21.2889 86.8968 21.5994C86.9219 21.91 87.3996 22.1205 87.9639 22.0696Z" fill="#FA9E9F"/>
<path d="M91.7559 19.9844C91.9736 20.2562 93.0491 21.378 92.052 21.9631" stroke="#1F161E" stroke-width="0.350688" stroke-miterlimit="10" stroke-linecap="round"/>
<path d="M90.1081 23.5636C89.8011 23.5797 89.296 23.2296 89.0195 22.8887" stroke="#1F161E" stroke-width="0.350688" stroke-miterlimit="10" stroke-linecap="round"/>
<path d="M81.9203 17.3656C81.7396 15.1151 84.5699 13.1733 86.6339 12.989C89.917 12.6918 91.7567 12.7702 93.5572 12.1413C96.135 11.243 96.0871 14.9055 96.1219 15.3224C96.2613 17.0754 95.7453 18.2179 93.9448 18.6601C93.7721 18.0544 93.5097 17.4814 93.1675 16.9625C92.6432 16.8007 92.0816 16.8407 91.5826 17.0754C91.1319 17.2896 87.4002 19.5769 84.5242 19.8395C84.1868 20.4407 83.6251 24.0042 83.993 25.4531C83.1526 25.5798 81.3673 22.8202 81.1627 21.3068C81.1019 20.7882 81.1569 20.2617 81.3233 19.7697C81.4896 19.2776 81.7627 18.8337 82.1206 18.4736C82.064 18.1557 81.9356 17.543 81.9203 17.3656Z" fill="black"/>
<path d="M84.3698 22.6936C85.1177 22.6936 85.724 22.0522 85.724 21.2609C85.724 20.4696 85.1177 19.8281 84.3698 19.8281C83.6219 19.8281 83.0156 20.4696 83.0156 21.2609C83.0156 22.0522 83.6219 22.6936 84.3698 22.6936Z" fill="#FFEBEE"/>
<path d="M84.4418 64.2712C81.864 62.7509 75.7157 53.8733 75.7135 52.8137C75.7135 52.2977 77.1875 49.4944 78.3131 47.5526L71.111 43.4316C69.722 47.8082 68.9622 51.8808 69.0036 52.7308C69.304 59.1483 82.6979 67.6504 83.2726 67.6504C83.8474 67.6504 84.7683 66.3213 84.8903 66.038C85.0122 65.7546 85.1123 64.6628 84.4418 64.2712Z" fill="#FFEBEE"/>
<path d="M117.508 17.6079C115.486 19.1189 110.742 29.738 109.061 29.6712C106.215 29.5514 107.855 29.6113 105.125 29.5606L105.109 39.1361C108.277 39.1361 109.945 39.0924 110.846 38.6063C114.889 36.418 119.677 21.5606 120.208 20.9318C120.739 20.3029 123.273 20.2615 123.273 18.3311C123.284 17.4466 119.729 15.9447 117.508 17.6079Z" fill="#FFEBEE"/>
<g clip-path="url(#clip1_7013_221940)">
<path d="M239.013 20.168H118.797V98.9823H239.013V20.168Z" stroke="black" stroke-width="0.75277" stroke-miterlimit="10"/>
<path d="M118.797 24.3574H239.013" stroke="black" stroke-width="0.75277" stroke-miterlimit="10"/>
<path d="M229.925 31.3789H127.883V67.3889H229.925V31.3789Z" fill="#F2F2F2"/>
<path d="M151.293 43.6328H206.515" stroke="black" stroke-width="0.75277" stroke-miterlimit="10"/>
<path d="M151.293 73.1484H206.515" stroke="black" stroke-width="0.75277" stroke-miterlimit="10"/>
<path d="M151.293 78.584H206.515" stroke="black" stroke-width="0.75277" stroke-miterlimit="10"/>
<path d="M151.293 84.0195H206.515" stroke="black" stroke-width="0.75277" stroke-miterlimit="10"/>
<path d="M151.293 89.4551H206.515" stroke="black" stroke-width="0.75277" stroke-miterlimit="10"/>
<path d="M121.409 23.3391C121.974 23.3391 122.432 22.8828 122.432 22.3199C122.432 21.7571 121.974 21.3008 121.409 21.3008C120.845 21.3008 120.387 21.7571 120.387 22.3199C120.387 22.8828 120.845 23.3391 121.409 23.3391Z" fill="#999CBF"/>
<path d="M124.933 23.3391C125.498 23.3391 125.955 22.8828 125.955 22.3199C125.955 21.7571 125.498 21.3008 124.933 21.3008C124.368 21.3008 123.91 21.7571 123.91 22.3199C123.91 22.8828 124.368 23.3391 124.933 23.3391Z" fill="#DC9E83"/>
<path d="M128.454 23.3391C129.019 23.3391 129.477 22.8828 129.477 22.3199C129.477 21.7571 129.019 21.3008 128.454 21.3008C127.889 21.3008 127.432 21.7571 127.432 22.3199C127.432 22.8828 127.889 23.3391 128.454 23.3391Z" fill="#7DBF9D"/>
<path d="M177.56 49.3828H164.932V53.7199H177.56V49.3828Z" fill="#EED0C3"/>
<path d="M192.878 49.3828H180.25V53.7199H192.878V49.3828Z" fill="#EED0C3"/>
</g>
<path d="M287.303 105.117H249.664V114.903H287.303V105.117Z" fill="#EAEAF5"/>
<path d="M223.539 92.8594C223.357 93.9444 220.262 118.749 219.761 119.159C219.26 119.569 213.937 120.479 213.481 119.795C213.39 118.71 213.264 101.413 212.982 99.8662" fill="#1F161E"/>
<path d="M283.407 87.6841C285.553 86.6252 281.079 107.574 269.302 107.574C257.526 107.574 237.703 89.6349 234.494 89.6349C227.409 89.6349 210.637 103.547 209.322 103.547C208.315 102.54 206.302 100.778 206.302 100.085C206.302 99.3932 222.359 72.9609 234.374 72.9609C239.033 72.9566 278.561 90.0776 283.407 87.6841Z" fill="#546B7D"/>
<path d="M276.781 88.0399C274.427 87.5061 271.497 86.1238 268.904 84.709C275.959 87.0135 281.74 88.5086 283.408 87.684C284.545 87.1241 283.825 92.7313 281.152 98.1324C281.636 97.0864 282.326 89.2963 276.781 88.0399Z" fill="#1F161E"/>
<path d="M271.591 51.2894C269.735 51.3393 260.077 51.0551 257.429 53.5766C255.466 55.4449 249.359 71.533 248.418 77.1814C252.519 79.2645 282.1 93.43 291.255 87.2001C291.457 82.3589 290.517 63.1266 284.53 53.0384C282.341 51.5802 273.374 51.2417 271.591 51.2894Z" fill="#999CBF"/>
<path d="M267.827 46.6855H273.469V52.7506C273.469 54.2696 267.827 54.2565 267.827 52.7506V46.6855Z" fill="#FFEBEE"/>
<path d="M273.469 50.3417C273.469 49.669 271.605 47.9786 270.453 48.0372C270.424 47.3037 273.085 46.2188 273.085 46.2188L273.469 47.2538V50.3417Z" fill="#1F161E"/>
<path d="M261.919 46.6852C261.792 46.0991 261.728 45.5011 261.728 44.9015C261.728 40.427 265.224 36.7988 269.54 36.7988C273.856 36.7988 277.352 40.427 277.352 44.9015C277.351 45.5011 277.287 46.0991 277.161 46.6852H261.919Z" fill="#1F161E"/>
<path d="M263.977 41.2288C264.934 41.0834 265.889 40.3305 266.555 39.8379C270.353 42.6198 272.785 42.6588 273.048 42.6588C273.31 42.6588 274.38 44.1952 274.873 44.3688L274.916 44.3427C274.768 45.1503 274.455 45.9185 273.995 46.5984C273.534 47.2783 272.938 47.8552 272.243 48.2923C271.548 48.7295 270.77 49.0175 269.958 49.138C269.146 49.2585 268.318 49.2089 267.526 48.9923C266.734 48.7757 265.996 48.3969 265.358 47.8799C264.72 47.3629 264.197 46.719 263.821 45.989C263.445 45.259 263.226 44.4589 263.175 43.6395C263.125 42.82 263.246 41.9991 263.53 41.2288C263.679 41.2473 263.829 41.2473 263.977 41.2288Z" fill="#FFEBEE"/>
<path d="M273.77 37.8082C272.497 37.8082 271.465 36.7765 271.465 35.5037C271.465 34.231 272.497 33.1992 273.77 33.1992C275.042 33.1992 276.074 34.231 276.074 35.5037C276.074 36.7765 275.042 37.8082 273.77 37.8082Z" fill="#1F161E"/>
<path d="M272.744 42.5293C272.993 42.5411 273.228 42.6483 273.4 42.8287C273.572 43.0091 273.668 43.2489 273.668 43.4982C273.668 43.7475 273.572 43.9872 273.4 44.1676C273.228 44.3481 272.993 44.4553 272.744 44.4671" stroke="#1F161E" stroke-width="0.75277" stroke-miterlimit="10" stroke-linecap="round"/>
<path d="M265.357 42.6465C265.073 43.0262 264.342 43.6902 265.357 44.3955" stroke="#1F161E" stroke-width="0.75277" stroke-miterlimit="10" stroke-linecap="round"/>
<path d="M268.438 44.918C268.438 45.2022 268.316 45.8814 267.706 46.0572" stroke="#1F161E" stroke-width="0.75277" stroke-miterlimit="10" stroke-linecap="round"/>
<path d="M270.327 44.9776C269.833 44.9776 269.433 44.7697 269.433 44.5132C269.433 44.2567 269.833 44.0488 270.327 44.0488C270.82 44.0488 271.221 44.2567 271.221 44.5132C271.221 44.7697 270.82 44.9776 270.327 44.9776Z" fill="#FA9E9F"/>
<path d="M263.68 44.9776C263.186 44.9776 262.786 44.7697 262.786 44.5132C262.786 44.2567 263.186 44.0488 263.68 44.0488C264.174 44.0488 264.574 44.2567 264.574 44.5132C264.574 44.7697 264.174 44.9776 263.68 44.9776Z" fill="#FA9E9F"/>
<path d="M257.633 68.0574L251.602 66.5059C251.023 67.4845 248.202 77.1712 248.202 77.1712L257.511 81.0945C257.39 79.2587 257.023 70.8696 257.633 68.0574Z" fill="#FFEBEE"/>
<path d="M278.777 66.541C278.777 67.2701 279.392 70.0455 279.754 71.3496" stroke="#1F161E" stroke-width="0.75277" stroke-miterlimit="10" stroke-linecap="round"/>
<path d="M257.633 68.0583C257.778 66.9104 258.629 60.4418 260.076 57.0371" stroke="#1F161E" stroke-width="0.75277" stroke-miterlimit="10" stroke-linecap="round"/>
<path d="M257.633 68.0574L251.602 66.5059C251.023 67.4845 248.202 77.1712 248.202 77.1712L257.511 81.0945C257.39 79.2587 257.023 70.8696 257.633 68.0574Z" fill="#FFEBEE"/>
<path d="M209.143 103.035C209.008 103.241 207.211 105.455 206.576 105.481C205.94 105.507 202.079 102.89 202.249 102.328C202.418 101.766 204.84 102.13 205.256 101.935C205.673 101.74 206.599 100.811 206.747 100.396" fill="#1F161E"/>
<path d="M225.839 77.7785H246.273L241.408 64.8867H220.974L225.839 77.7785Z" fill="#969696"/>
<path d="M242.866 77.293H263.301V77.779H242.866V77.293Z" fill="#969696"/>
<path d="M279.753 71.3503C280.146 72.8237 282.062 79.1079 281.272 80.1885C280.482 81.2692 261.039 78.8128 255.834 77.194C254.508 76.76 253.525 75.6208 252.937 75.4754C252.184 75.3483 251.41 75.5034 250.764 75.9109C250.118 76.3184 249.644 76.9499 249.434 77.6844C251.513 78.6913 281.528 94.0155 291.254 87.1953C293.092 85.8868 289.865 69.8291 289.72 69.0176C288.077 69.2216 279.753 71.3503 279.753 71.3503Z" fill="#FFEBEE"/>
<path d="M257.355 77.5975C256.77 77.4586 256.257 77.3241 255.836 77.1939C254.511 76.7599 253.528 75.6207 252.94 75.4753C252.186 75.3476 251.412 75.5024 250.765 75.91C250.119 76.3176 249.645 76.9493 249.435 77.6843" stroke="#1F161E" stroke-width="0.75277" stroke-miterlimit="10" stroke-linecap="round"/>
</g>
<defs>
<clipPath id="clip0_7013_221940">
<path d="M0 8C0 3.58172 3.58172 0 8 0H306C310.418 0 314 3.58172 314 8V115H0V8Z" fill="white"/>
</clipPath>
<clipPath id="clip1_7013_221940">
<rect width="120.443" height="79.0408" fill="white" transform="translate(118.684 20.0547)"/>
</clipPath>
</defs>
</svg>
