<svg width="586" height="160" viewBox="0 0 586 160" fill="none" xmlns="http://www.w3.org/2000/svg">
<g clip-path="url(#clip0_8997_281182)">
<path d="M286.5 129C296.165 129 304 127.209 304 125C304 122.791 296.165 121 286.5 121C276.835 121 269 122.791 269 125C269 127.209 276.835 129 286.5 129Z" fill="black"/>
<path d="M287 125L276 156" stroke="black" stroke-width="4" stroke-miterlimit="10" stroke-linecap="round"/>
<path d="M287 125L296 156" stroke="black" stroke-width="4" stroke-miterlimit="10" stroke-linecap="round"/>
<path d="M280 146L291 139" stroke="black" stroke-width="2" stroke-miterlimit="10" stroke-linecap="round"/>
<path d="M282 139L293 146" stroke="black" stroke-width="2" stroke-miterlimit="10" stroke-linecap="round"/>
<path d="M330.092 153C330.092 153.585 329.725 157.278 330.456 157.619C331.187 157.96 339.218 158.167 339.582 157.824C339.946 157.481 340.165 156.764 339.846 156.559C339.526 156.354 336.417 155.774 335.995 155.5C335.573 155.225 334.99 153.771 335.204 153" fill="#1F161E"/>
<path d="M303.192 97.5962L308 95.8852C307.792 87.1854 305.742 67.7464 302.83 64.8557C302.145 64.1796 288.606 63 286.191 63C271.777 63 267.501 64.6304 266.416 65.7098C263.049 69.0484 262 84.5173 262 89.9341C262 95.351 277.43 98.161 277.43 98.161L295.516 99.3935C295.516 99.3935 299.483 99.7997 302.914 100C302.99 98.9567 303.192 97.5962 303.192 97.5962Z" fill="#EF9A9A"/>
<path d="M318 103.135C319.312 102.748 332.364 100.631 335.207 103.413C338.051 106.195 347 146.082 347 147H339.794L330.067 126.187" fill="#1F161E"/>
<path d="M270.313 99.2854C269.983 100.92 268 102.674 268 111.578C268 123.891 278.181 124.151 281.836 124.151C293.224 124.151 311.648 120.798 312.892 120.183C313.718 121.552 328.927 152.313 328.998 153H336C336 153 331.66 106.98 323.828 101.761C321.284 100.084 276.153 98.2908 270.313 99.2854Z" fill="#546B7D"/>
<path d="M311.062 90C309.145 90 307.564 90.4267 303.226 91.2251L303 99C307.115 97.4472 308.07 95.2888 309.263 95.2888C312.243 95.2888 313.801 96.7287 315.561 96.7287C316.79 96.7287 319 95.8256 319 94.5977C319 92.0263 313.436 90 311.062 90Z" fill="#EED0C3"/>
<path d="M341.092 146C341.092 146.705 340.725 151.132 341.456 151.543C342.187 151.955 350.218 152.198 350.582 151.789C350.946 151.38 351.165 150.518 350.846 150.272C350.526 150.026 347.417 149.327 346.995 148.998C346.573 148.669 345.99 146.924 346.204 146" fill="#1F161E"/>
<path d="M289 64.2299C289 65.2419 283 65.2714 283 64.2299V56H289V64.2299Z" fill="#EED0C3"/>
<path d="M287 58.3588C286.458 58.3588 283 60.0535 283 61V56C283.862 56 287 58.3588 287 58.3588Z" fill="#1F161E"/>
<path d="M288.5 59C292.642 59 296 55.6421 296 51.5C296 47.3579 292.642 44 288.5 44C284.358 44 281 47.3579 281 51.5C281 55.6421 284.358 59 288.5 59Z" fill="#EED0C3"/>
<path d="M296.247 45.5147C295.306 46.9943 293.337 47.6731 291.204 47.6731C289.387 47.6731 286.741 47.1505 284.858 48.2127C283.839 48.7807 282.671 50.0729 282.436 52.6601C282.436 53.1032 281.928 54.8214 281.928 55.3752C281.928 55.7529 281.497 56 280.78 56C280.409 56 279.677 55.4064 279.677 54.5005C279.677 53.4525 280.099 53.0805 280.099 52.1915C280.099 51.3026 279 50.4478 279 47.977C279 44.4184 281.296 42.2259 282.921 42.2259C284.402 42.2259 284.867 42.5667 285.053 42.7116C285.053 39.4768 289.359 38 291.067 38C293.018 38 293.937 38.7924 293.937 39.8006C293.937 41.408 293.162 42.7741 292.769 43.0808C293.659 42.2885 294.815 41.8522 296.012 41.8567C298.248 41.8567 299 43.3108 299 44.3048C299 46.4661 296.379 48.4683 295.404 48.4683C295.158 47.9543 294.87 47.4613 294.542 46.9943" fill="#1F161E"/>
<path d="M296 53C296.552 53 297 52.7761 297 52.5C297 52.2239 296.552 52 296 52C295.448 52 295 52.2239 295 52.5C295 52.7761 295.448 53 296 53Z" fill="#FA9E9F"/>
<path d="M288 53C288.552 53 289 52.7761 289 52.5C289 52.2239 288.552 52 288 52C287.448 52 287 52.2239 287 52.5C287 52.7761 287.448 53 288 53Z" fill="#FA9E9F"/>
<path d="M293 51C293.318 51.29 294.939 52.5068 293.229 53" stroke="#1F161E" stroke-miterlimit="10" stroke-linecap="round"/>
<path d="M291 55C290.403 55 289.484 54.4727 289 54" stroke="#1F161E" stroke-miterlimit="10" stroke-linecap="round"/>
<path d="M262 89C262 101.402 262.123 105 267.436 105C279.679 105 298.188 95.5819 301.487 95.5819C304.402 95.5819 305.923 96.9919 307.643 96.9919C308.841 96.9919 311 96.1066 311 94.9092C311 92.3932 305.564 90.4127 303.247 90.4127C298.03 90.4127 277.21 95.1271 276.701 95.1271C276.193 95.1271 275.338 94.9199 275.338 94.1181C275.338 92.6623 276.354 89.2987 276.486 89.0054L262 89Z" fill="#EED0C3"/>
<path d="M338.734 97H314L318.481 81.3046C318.593 80.9259 318.822 80.5942 319.134 80.3591C319.447 80.124 319.825 79.9981 320.214 80.0002H341.201C341.477 79.9957 341.75 80.0568 341.998 80.1787C342.247 80.3006 342.464 80.48 342.632 80.7024C342.8 80.9248 342.915 81.1842 342.968 81.4599C343.02 81.7356 343.009 82.02 342.934 82.2903L338.734 97Z" fill="black"/>
<path d="M218.976 150.934C218.976 151.591 218.589 155.749 219.359 156.131C220.13 156.513 228.61 156.747 228.993 156.365C229.376 155.983 229.61 155.173 229.263 154.939C228.916 154.704 225.646 154.057 225.181 153.746C224.717 153.435 224.12 151.81 224.35 150.934" fill="#1F161E"/>
<path d="M183.806 61.1699C183.719 62.24 190.005 98.9776 189.965 100.16C189.924 101.342 180.336 145.789 180.336 145.789L185.566 148.122C185.566 148.122 203.237 110.748 203.533 108.379C203.828 106.009 186.587 61.1597 183.806 61.1699Z" fill="#1F161E"/>
<path d="M183.805 61.1696C184.203 62.2906 218.533 151.358 218.533 151.358H225.294L201.205 56.0742L183.805 61.1696Z" fill="#7DBF9D"/>
<path d="M189.279 20.8438C200.285 20.8438 201.525 40.7768 201.525 43.5844C201.525 46.3919 201.887 55.1865 201.219 56.0578C200.25 56.5164 184.84 61.6628 183.819 61.1532C182.798 60.6437 174.946 20.8438 189.279 20.8438Z" fill="#E3F2EB"/>
<path d="M183.923 43.3145C183.923 44.2163 183.724 50.1422 185.214 51.2887C186.704 52.4352 198.726 53.9179 198.726 55.4873C198.726 56.1599 198.945 56.8834 197.46 57.3777C198.44 57.0465 201.206 56.058 201.206 56.058C201.432 55.5307 201.538 54.9599 201.517 54.3867C201.251 54.1472 183.923 43.3145 183.923 43.3145Z" fill="#1F161E"/>
<path d="M192.081 16.8081L187.315 15.7891C187.315 15.7891 186.785 21.7048 186.723 22.2143C186.662 22.7239 190.576 23.1824 190.637 22.7239C190.698 22.2653 192.081 16.8081 192.081 16.8081Z" fill="#EED0C3"/>
<path d="M187.163 17.4775C187.163 17.3654 188.693 18.3641 189.306 18.6647C189.918 18.9653 187.086 19.2354 186.902 20.336C186.979 19.5207 187.152 17.6609 187.163 17.4775Z" fill="#1F161E"/>
<path d="M191.176 18.9501C194.6 18.9501 197.376 16.1784 197.376 12.7592C197.376 9.34011 194.6 6.56836 191.176 6.56836C187.752 6.56836 184.977 9.34011 184.977 12.7592C184.977 16.1784 187.752 18.9501 191.176 18.9501Z" fill="#EED0C3"/>
<path d="M191.072 38.1383C190.868 39.1574 190.48 44.3496 190.495 45.8629C191.138 47.2794 201.644 51.7328 203.839 52.0996C204.706 52.0742 205.186 51.5901 205.727 51.5901C207.012 51.6156 210.457 51.3965 210.457 51.7684C210.457 52.1404 209.436 54.7543 208.161 54.7543C206.012 54.7543 205.278 54.1938 204.466 54.1429C203.323 54.0715 202.895 54.4843 201.879 54.418C200.864 54.3518 188.046 52.3034 185.867 49.0577C183.607 45.6846 183.142 37.0377 183.153 36.625C183.734 36.783 190.22 38.1383 191.072 38.1383Z" fill="#EED0C3"/>
<path d="M183.153 36.636C182.948 32.8705 183.51 25.4618 187.964 26.0529" stroke="#1F161E" stroke-width="0.55" stroke-miterlimit="10" stroke-linecap="round"/>
<path d="M180.948 145.859C180.755 146.282 178.984 149.966 179.688 151.225C180.392 152.483 185.546 155.011 186.163 154.792C186.781 154.572 186.908 153.895 186.424 153.059C185.939 152.223 184.041 151.373 183.801 150.644C183.561 149.915 184.219 147.943 184.903 147.515" fill="#1F161E"/>
<path d="M193.622 15.332C194.295 15.332 194.841 15.0491 194.841 14.7002C194.841 14.3512 194.295 14.0684 193.622 14.0684C192.948 14.0684 192.402 14.3512 192.402 14.7002C192.402 15.0491 192.948 15.332 193.622 15.332Z" fill="#FA9E9F"/>
<path d="M186.722 16.9776C185.614 16.4681 184.227 14.2567 184.227 11.2555C184.227 3.48511 193.636 3.6125 194.59 3.32716C195.544 3.04182 197.458 2.34375 197.922 2.34375C199.483 2.34375 200.126 6.60348 200.126 7.29135C200.126 9.97661 197.902 11.4237 197.259 11.5103C196.963 10.7562 196.601 10.0298 196.177 9.33969C195.753 9.56898 189.467 11.8874 188.385 12.1472C188.702 13.3039 186.558 15.9688 186.722 16.9776Z" fill="#1F161E"/>
<path d="M197.205 11.5156C197.659 11.5156 198.322 13.299 198.225 13.7015C198.128 14.1041 197.128 14.4149 196.73 14.3996C196.332 14.3843 196.552 11.5156 197.205 11.5156Z" fill="#F8CDBA"/>
<path d="M193.262 16.2324C193.262 16.4384 193.335 16.6378 193.469 16.7947C193.602 16.9516 193.788 17.0557 193.991 17.0884" stroke="#1F161E" stroke-width="0.55" stroke-miterlimit="10" stroke-linecap="round"/>
<path d="M187.811 13.9861C188.69 13.9861 189.403 13.2744 189.403 12.3964C189.403 11.5184 188.69 10.8066 187.811 10.8066C186.932 10.8066 186.219 11.5184 186.219 12.3964C186.219 13.2744 186.932 13.9861 187.811 13.9861Z" fill="#EED0C3"/>
<path d="M230.61 35.8711H199.586V51.7788H230.61V35.8711Z" fill="#B37361"/>
<g clip-path="url(#clip1_8997_281182)">
<path d="M371.172 157.908C371.374 158.686 372.161 159.151 372.929 158.946C373.698 158.742 374.157 157.946 373.955 157.168L359.571 101.774C359.369 100.996 358.583 100.531 357.815 100.735C357.046 100.94 356.587 101.736 356.789 102.514L371.172 157.908Z" fill="#999999"/>
<path d="M356.643 102.516C356.845 101.738 356.386 100.942 355.618 100.737C354.849 100.533 354.063 100.998 353.861 101.776L339.478 157.17C339.276 157.948 339.735 158.744 340.503 158.949C341.271 159.153 342.058 158.688 342.26 157.91L356.643 102.516Z" fill="#999999"/>
<path d="M336.799 102.518C337.001 101.74 336.542 100.944 335.774 100.739C335.006 100.535 334.219 101 334.017 101.778L319.634 157.172C319.432 157.95 319.891 158.746 320.659 158.951C321.428 159.155 322.214 158.69 322.416 157.912L336.799 102.518Z" fill="#E6E6E6"/>
<path d="M351.079 157.91C351.281 158.688 352.067 159.153 352.835 158.948C353.604 158.744 354.063 157.948 353.861 157.17L339.478 101.775C339.276 100.998 338.489 100.533 337.721 100.737C336.953 100.942 336.493 101.738 336.695 102.516L351.079 157.91Z" fill="#E6E6E6"/>
<path d="M255.876 102.397C256.075 101.617 255.611 100.821 254.841 100.62C254.07 100.419 253.284 100.888 253.086 101.669L238.944 157.227C238.745 158.007 239.209 158.803 239.979 159.004C240.75 159.205 241.536 158.735 241.734 157.955L255.876 102.397Z" fill="#999999"/>
<path d="M269.932 157.698C270.131 158.479 270.916 158.948 271.687 158.747C272.457 158.546 272.921 157.75 272.722 156.97L258.58 101.412C258.382 100.632 257.596 100.162 256.826 100.363C256.055 100.564 255.591 101.36 255.79 102.14L269.932 157.698Z" fill="#999999"/>
<path d="M365.505 98H226.398C225.695 98 225.125 98.5769 225.125 99.2886V101.021C225.125 101.732 225.695 102.309 226.398 102.309H365.505C366.208 102.309 366.778 101.732 366.778 101.021V99.2886C366.778 98.5769 366.208 98 365.505 98Z" fill="#E6E6E6"/>
<path d="M235.213 102.52C235.415 101.742 234.956 100.946 234.188 100.741C233.42 100.537 232.633 101.002 232.431 101.78L218.048 157.174C217.846 157.952 218.305 158.748 219.073 158.953C219.842 159.157 220.628 158.692 220.83 157.914L235.213 102.52Z" fill="#E6E6E6"/>
<path d="M249.497 157.91C249.699 158.688 250.485 159.153 251.253 158.948C252.022 158.744 252.481 157.948 252.279 157.17L237.896 101.775C237.694 100.998 236.907 100.533 236.139 100.737C235.371 100.942 234.911 101.738 235.113 102.516L249.497 157.91Z" fill="#E6E6E6"/>
</g>
</g>
<defs>
<clipPath id="clip0_8997_281182">
<rect width="586" height="160" fill="white"/>
</clipPath>
<clipPath id="clip1_8997_281182">
<rect width="156" height="61" fill="white" transform="translate(218 98)"/>
</clipPath>
</defs>
</svg>
