<svg width="314" height="115" viewBox="0 0 314 115" fill="none" xmlns="http://www.w3.org/2000/svg">
<g clip-path="url(#clip0_7013_221941)">
<path d="M0 8C0 3.58172 3.58172 0 8 0H306C310.418 0 314 3.58172 314 8V115H0V8Z" fill="#FFCDD2"/>
<path d="M266.185 105.209C266.185 105.677 266.402 108.427 266.019 108.898C265.323 109.754 259.495 109.523 259.215 109.258C258.935 108.992 258.756 108.427 258.995 108.255C259.235 108.084 261.537 107.556 261.851 107.328C262.165 107.099 262.562 105.937 262.382 105.329" fill="#1F161E"/>
<path d="M247.047 105.209C247.047 105.677 247.267 108.427 246.881 108.898C246.185 109.754 240.36 109.523 240.08 109.258C239.8 108.992 239.618 108.427 239.86 108.255C240.103 108.084 242.399 107.556 242.716 107.328C243.033 107.099 243.427 105.937 243.244 105.329" fill="#1F161E"/>
<path d="M240.849 55.3223C241.095 55.8212 241.22 56.3708 241.215 56.9269C241.215 58.4202 240.381 59.6308 239.356 59.6308C238.331 59.6308 237.497 58.4202 237.497 56.9269C237.492 56.3708 237.617 55.8212 237.863 55.3223H240.849Z" fill="#FFEBEE"/>
<path d="M242.483 105.249C241.912 104.584 240.285 55.3169 240.285 55.3169L246.343 55.1855C246.343 55.1855 251.197 68.6364 251.197 69.2132C251.197 69.79 248.71 81.2051 247.771 84.2145C247.711 85.8505 248.014 104.943 247.528 105.397C247.043 105.851 243.051 105.928 242.483 105.249Z" fill="#1F161E"/>
<path d="M245.023 55.9225C245.023 58.7463 254.16 79.2382 255.907 81.785C256.97 85.177 261.212 104.692 261.829 105.155C262.446 105.617 266.38 106.08 266.843 105.155C267.305 104.23 261.013 59.3574 259.871 53.6783C258.728 47.9993 245.023 50.3035 245.023 55.9225Z" fill="#546B7D"/>
<path d="M258.445 23.6983C256.589 21.5569 240.369 20.2121 238.459 21.6996C234.604 24.6976 237.317 55.1056 237.602 56.2477C237.888 56.8187 239.886 55.6766 239.886 55.6766C240.172 55.9622 254.448 56.5332 259.873 53.678C259.873 52.2504 259.016 46.2544 259.016 46.2544C260.158 46.2544 263.299 45.3979 263.87 44.5413C264.441 43.6848 260.629 26.2137 258.445 23.6983Z" fill="#7DBF9D"/>
<path d="M259.176 46.5391C257.934 46.7589 248.355 47.4699 245.031 47.2043" stroke="#1F161E" stroke-width="0.427778" stroke-miterlimit="10" stroke-linecap="round"/>
<path d="M244.525 44.0562C253.59 42.1004 257.904 43.154 255.018 34.5312" stroke="#1F161E" stroke-width="0.427778" stroke-miterlimit="10" stroke-linecap="round"/>
<path d="M239.413 33.2383C239.461 34.052 240.035 55.7059 240.035 55.7059" stroke="#1F161E" stroke-width="0.427778" stroke-miterlimit="10" stroke-linecap="round"/>
<path d="M244.377 22.1437C244.377 22.8889 248.472 22.9317 248.469 22.1437V17.1699H244.377V22.1437Z" fill="#FFEBEE"/>
<path d="M248.451 20.1316C248.451 19.6891 247.106 17.7961 246.327 18.0559C247.289 17.7133 248.089 16.9138 248.443 17.1594L248.451 20.1316Z" fill="#1F161E"/>
<path d="M244.497 19.1349C241.562 19.1349 239.183 16.756 239.183 13.8214C239.183 10.8868 241.562 8.50781 244.497 8.50781C247.432 8.50781 249.811 10.8868 249.811 13.8214C249.811 16.756 247.432 19.1349 244.497 19.1349Z" fill="#FFEBEE"/>
<path d="M238.709 15.6023C238.683 15.3482 239.057 15.1012 239.545 15.0505C240.032 14.9998 240.449 15.1647 240.476 15.4188C240.502 15.6729 240.128 15.92 239.64 15.9706C239.152 16.0213 238.736 15.8564 238.709 15.6023Z" fill="#FA9E9F"/>
<path d="M244.256 15.0203C244.23 14.7662 244.604 14.5191 245.092 14.4685C245.579 14.4178 245.996 14.5827 246.023 14.8368C246.049 15.0909 245.675 15.3379 245.187 15.3886C244.699 15.4393 244.282 15.2744 244.256 15.0203Z" fill="#FA9E9F"/>
<path d="M241.646 14.332C241.506 14.5833 240.761 15.6597 241.697 15.9681" stroke="#1F161E" stroke-width="0.536667" stroke-miterlimit="10" stroke-linecap="round"/>
<path d="M243.597 16.9374C243.859 16.9031 244.236 16.5376 244.422 16.2207" stroke="#1F161E" stroke-width="0.536667" stroke-miterlimit="10" stroke-linecap="round"/>
<path d="M248.79 14.3335C248.144 14.3335 247.62 13.8093 247.62 13.1628C247.62 12.5163 248.144 11.9922 248.79 11.9922C249.437 11.9922 249.961 12.5163 249.961 13.1628C249.961 13.8093 249.437 14.3335 248.79 14.3335Z" fill="#FFEBEE"/>
<path d="M248.001 14.1931C248.001 15.752 249.714 16.7628 250.302 16.7628C250.393 16.7739 250.486 16.7652 250.573 16.7373C250.661 16.7095 250.742 16.6631 250.81 16.6014C250.878 16.5397 250.932 16.464 250.969 16.3796C251.005 16.2951 251.023 16.2038 251.021 16.1118C251.021 15.458 250.639 14.9012 249.831 14.1931C249.979 13.9504 251.021 12.6713 251.021 10.8497C251.021 8.93952 249.848 7.33774 249.063 7.33774C248.727 7.36006 248.408 7.49293 248.156 7.71557C247.904 7.93821 247.733 8.23808 247.669 8.56834C247.669 5.89872 244.814 4 243.101 4C241.516 4 241.242 4.69096 241.242 5.25058C241.242 6.48118 242.213 7.79743 242.576 8.12007C241.688 7.46623 240.291 6.80667 239.104 6.80667C238.347 6.80667 237.391 7.02081 237.391 8.05726C237.391 9.96168 239.175 11.0638 239.772 11.3722C239.999 10.9286 240.287 10.5191 240.628 10.1558C240.517 10.5156 240.957 11.1694 241.799 11.3151C242.284 11.395 248.001 10.6241 248.001 14.1931Z" fill="#1F161E"/>
<path d="M237.049 49.307H240.241C240.241 49.307 241.215 40.2389 241.215 39.5279C241.215 38.817 236.141 38.9055 236.141 39.5279C236.141 40.1503 237.049 49.307 237.049 49.307Z" fill="#1F161E"/>
<path d="M239.292 42.6055C238.838 42.6055 236.242 43.2193 236.242 44.5556C236.242 46.1973 238.278 46.7569 238.678 46.7569C240.828 46.7569 241.433 46.3886 244.865 46.3886C244.865 45.986 244.791 44.1416 244.314 43.9617C243.732 43.9703 242.079 42.6055 239.292 42.6055Z" fill="#FFEBEE"/>
<path d="M226.631 108.523C227.202 109.173 227.904 109.694 228.692 110.051C229.48 110.408 230.335 110.593 231.199 110.593H276.457C277.316 110.592 278.164 110.41 278.947 110.058C279.73 109.706 280.429 109.193 281 108.552" stroke="#999999" stroke-width="3.11111" stroke-linecap="round" stroke-linejoin="round"/>
<path d="M271.794 115.439C270.732 115.439 269.87 114.577 269.87 113.514C269.87 112.451 270.732 111.59 271.794 111.59C272.857 111.59 273.719 112.451 273.719 113.514C273.719 114.577 272.857 115.439 271.794 115.439Z" fill="#737373"/>
<path d="M235.835 115.439C234.773 115.439 233.911 114.577 233.911 113.514C233.911 112.451 234.773 111.59 235.835 111.59C236.898 111.59 237.76 112.451 237.76 113.514C237.76 114.577 236.898 115.439 235.835 115.439Z" fill="#737373"/>
<g clip-path="url(#clip1_7013_221941)">
<path d="M202.693 104.057L191.361 49.2832" stroke="#999999" stroke-width="3.11111" stroke-linecap="round" stroke-linejoin="round"/>
<path d="M171.813 52.107C172.944 53.1962 175.399 57.026 176.554 57.026C179.758 57.026 189.565 51.0179 190.237 49.3663C190.407 48.9139 189.252 47.7578 188.932 47.7578C188.611 47.7578 182.895 51.1879 179.385 50.8695C177.472 50.6972 176.205 46.8841 174.139 44.6699" fill="#1F161E"/>
<path d="M111.951 56.432C111.712 56.1639 110.44 54.5171 109.983 54.4548C109.161 54.3304 106.024 57.423 106 57.715C105.976 58.007 106.168 58.414 106.388 58.3876C106.608 58.3613 108.162 57.4852 108.451 57.4565C108.74 57.4278 109.553 57.873 109.766 58.311" fill="#1F161E"/>
<path d="M172.476 58.2656C173.478 59.1848 183.838 78.9469 183.838 81.4842C183.838 84.0215 175.522 103.044 174.827 103.451C174.131 103.858 172.077 103.532 171.554 102.96C171.03 102.388 174.184 81.9725 174.184 81.9725L158.786 66.1312L172.476 58.2656Z" fill="#1F161E"/>
<path d="M160.168 50.6713C159.047 51.3343 142.889 60.4709 138.459 64.588C136.054 63.9561 112.257 55.6549 111.942 55.844C111.626 56.0331 109.283 57.8403 109.283 58.2664C109.283 58.6924 133.701 78.275 140.288 78.275C142.693 78.275 165.791 64.7436 172.469 58.2664C173.143 54.64 163.271 48.8329 160.168 50.6713Z" fill="#FFCC80"/>
<path d="M170.539 37.3771C168.108 36.5178 160.192 50.0635 160.192 50.6715C160.192 51.2795 171.371 58.348 172.502 58.2666C173.633 58.1852 182.001 41.4296 170.539 37.3771Z" fill="#999CBF"/>
<path d="M178.302 32.3019C178.63 32.2732 179.718 30.916 179.137 27.8808C178.434 26.9592 176.105 26.6672 176.029 27.7108C175.952 28.7545 177.303 32.3952 178.302 32.3019Z" fill="#1F161E"/>
<path d="M173.427 40.6517C173.345 41.2525 170.041 40.8432 170.13 40.1993L170.68 36.1875L173.977 36.6399L173.427 40.6517Z" fill="#FFEBEE"/>
<path d="M170.351 38.582C170.399 38.2253 171.384 37.1075 171.984 37.3995C171.246 37.0189 170.99 36.0328 170.679 36.1859L170.351 38.582Z" fill="black"/>
<path d="M174.195 38.009C171.808 38.009 169.872 36.0714 169.872 33.6813C169.872 31.2911 171.808 29.3535 174.195 29.3535C176.582 29.3535 178.518 31.2911 178.518 33.6813C178.518 36.0714 176.582 38.009 174.195 38.009Z" fill="#FFEBEE"/>
<path d="M178.367 35.0961C177.973 35.0402 177.676 34.8283 177.705 34.6228C177.734 34.4173 178.078 34.296 178.473 34.3519C178.867 34.4078 179.164 34.6197 179.135 34.8252C179.106 35.0307 178.762 35.152 178.367 35.0961Z" fill="#FA9E9F"/>
<path d="M173.899 34.6052C173.504 34.5509 173.207 34.3402 173.235 34.1346C173.263 33.929 173.606 33.8063 174.001 33.8606C174.397 33.9149 174.694 34.1257 174.666 34.3313C174.638 34.5369 174.294 34.6596 173.899 34.6052Z" fill="#FA9E9F"/>
<path d="M176.807 33.8398C176.915 34.0481 177.491 34.9457 176.721 35.1683" stroke="#1F161E" stroke-width="0.536667" stroke-miterlimit="10" stroke-linecap="round"/>
<path d="M175.154 35.9068C174.939 35.8709 174.645 35.5645 174.502 35.2988" stroke="#1F161E" stroke-width="0.536667" stroke-miterlimit="10" stroke-linecap="round"/>
<path d="M172.621 24.3549C166.9 24.3549 162.793 25.2956 160.117 25.2956C155.998 25.2956 152.746 23.4453 148.127 23.4453C146.023 23.4453 140.636 25.2358 140.636 31.2965C140.636 34.7314 142.549 41.5534 150.743 41.5534C157.757 41.5534 158.979 38.5829 161.824 38.5829C164.822 38.5829 170.398 39.9975 171.338 36.17C171.543 35.1527 171.773 33.9056 172.335 32.8811C175.464 31.7872 176.48 31.883 177.96 31.0069C180.098 29.9896 180.201 24.3549 172.621 24.3549Z" fill="#1F161E"/>
<path d="M171.554 34.4776C171.029 34.4776 170.603 34.0511 170.603 33.5249C170.603 32.9988 171.029 32.5723 171.554 32.5723C172.08 32.5723 172.506 32.9988 172.506 33.5249C172.506 34.0511 172.08 34.4776 171.554 34.4776Z" fill="#FFEBEE"/>
<path d="M171.773 102.846C171.697 103.19 171.152 105.201 171.369 105.608C171.764 106.34 176.117 107.006 176.361 106.848C176.605 106.69 176.823 106.297 176.67 106.13C176.517 105.962 174.886 105.244 174.69 105.034C174.494 104.823 174.363 103.897 174.585 103.466" fill="#1F161E"/>
<path d="M197.865 108.76H153.419" stroke="#999999" stroke-width="3.11111" stroke-linecap="round" stroke-linejoin="round"/>
<path d="M191.695 48.855L188.46 46.7773" stroke="#737373" stroke-width="3.11111" stroke-miterlimit="10" stroke-linecap="round"/>
<path d="M190.657 49.148C189.65 49.148 188.835 48.6829 188.835 48.1092C188.835 47.5354 189.65 47.0703 190.657 47.0703C191.663 47.0703 192.479 47.5354 192.479 48.1092C192.479 48.6829 191.663 49.148 190.657 49.148Z" fill="#FFEBEE"/>
<path d="M192.075 50.3218C191.068 50.3218 190.253 49.8567 190.253 49.283C190.253 48.7093 191.068 48.2441 192.075 48.2441C193.081 48.2441 193.896 48.7093 193.896 49.283C193.896 49.8567 193.081 50.3218 192.075 50.3218Z" fill="#FFEBEE"/>
<path d="M195.158 51.0776L192.717 49.5098" stroke="#737373" stroke-width="3.11111" stroke-miterlimit="10" stroke-linecap="round"/>
<path d="M170.604 52.3917C171.734 53.4785 176.511 57.9857 177.661 57.9857C180.865 57.9857 190.67 51.9776 191.344 50.326C191.514 49.8736 190.359 48.7175 190.039 48.7175C189.719 48.7175 182.728 52.4085 179.218 52.0829C177.305 51.9106 173.609 45.1892 171.543 42.9727" fill="#999CBF"/>
<path d="M203.028 113.965C200.177 113.965 197.866 111.651 197.866 108.797C197.866 105.943 200.177 103.629 203.028 103.629C205.878 103.629 208.189 105.943 208.189 108.797C208.189 111.651 205.878 113.965 203.028 113.965Z" stroke="#737373" stroke-width="3.11111" stroke-miterlimit="10"/>
<path d="M148.258 113.965C145.407 113.965 143.096 111.651 143.096 108.797C143.096 105.943 145.407 103.629 148.258 103.629C151.109 103.629 153.42 105.943 153.42 108.797C153.42 111.651 151.109 113.965 148.258 113.965Z" stroke="#737373" stroke-width="3.11111" stroke-miterlimit="10"/>
<path d="M176.359 49.3798C175.494 48.2452 174.511 46.809 173.672 45.6074" stroke="#1F161E" stroke-width="0.777778" stroke-linecap="round" stroke-linejoin="round"/>
<path d="M170.601 52.3926C171.168 52.9359 172.643 54.3338 174.123 55.5977" stroke="#1F161E" stroke-width="0.777778" stroke-linecap="round" stroke-linejoin="round"/>
<path d="M171.92 53.7852C172.242 54.0796 173.909 56.4493 173.423 57.1698C174.043 56.028 174.215 55.6738 174.215 55.6738" fill="#1F161E"/>
</g>
</g>
<defs>
<clipPath id="clip0_7013_221941">
<path d="M0 8C0 3.58172 3.58172 0 8 0H306C310.418 0 314 3.58172 314 8V115H0V8Z" fill="white"/>
</clipPath>
<clipPath id="clip1_7013_221941">
<rect width="102.667" height="91" fill="white" transform="matrix(-1 0 0 1 208.666 23.4453)"/>
</clipPath>
</defs>
</svg>
