<svg width="440" height="160" viewBox="0 0 440 160" fill="none" xmlns="http://www.w3.org/2000/svg">
<g clip-path="url(#clip0_7013_221837)">
<rect width="440" height="160" fill="#FFCDD2"/>
<path d="M337.952 147.125C337.952 147.727 338.231 151.262 337.74 151.868C336.844 152.969 329.351 152.672 328.992 152.33C328.632 151.989 328.401 151.262 328.709 151.042C329.017 150.822 331.976 150.143 332.38 149.849C332.784 149.555 333.294 148.061 333.063 147.279" fill="#1F161E"/>
<path d="M313.346 147.125C313.346 147.727 313.628 151.262 313.133 151.868C312.237 152.969 304.748 152.672 304.388 152.33C304.029 151.989 303.794 151.262 304.106 151.042C304.418 150.822 307.369 150.143 307.777 149.849C308.184 149.555 308.691 148.061 308.456 147.279" fill="#1F161E"/>
<path d="M305.378 82.9863C305.693 83.6278 305.854 84.3344 305.847 85.0494C305.847 86.9694 304.776 88.5259 303.458 88.5259C302.14 88.5259 301.068 86.9694 301.068 85.0494C301.061 84.3344 301.222 83.6278 301.538 82.9863H305.378Z" fill="#FFEBEE"/>
<path d="M307.478 147.176C306.744 146.32 304.651 82.9775 304.651 82.9775L312.441 82.8086C312.441 82.8086 318.682 100.103 318.682 100.844C318.682 101.586 315.484 116.262 314.276 120.132C314.199 122.235 314.588 146.783 313.964 147.367C313.34 147.95 308.208 148.049 307.478 147.176Z" fill="#1F161E"/>
<path d="M310.745 83.7573C310.745 87.3879 322.492 113.735 324.739 117.009C326.105 121.37 331.56 146.461 332.353 147.056C333.146 147.651 338.204 148.245 338.799 147.056C339.394 145.867 331.303 88.1735 329.834 80.8719C328.366 73.5703 310.745 76.5328 310.745 83.7573Z" fill="#546B7D"/>
<path d="M328 42.3261C325.614 39.5728 304.759 37.8438 302.303 39.7564C297.347 43.6109 300.835 82.7069 301.202 84.1753C301.569 84.9095 304.139 83.4411 304.139 83.4411C304.506 83.8082 322.861 84.5424 329.835 80.8714C329.835 79.0359 328.734 71.3269 328.734 71.3269C330.203 71.3269 334.241 70.2256 334.975 69.1243C335.709 68.023 330.808 45.5602 328 42.3261Z" fill="#7DBF9D"/>
<path d="M328.939 71.6934C327.343 71.976 315.026 72.8901 310.753 72.5487" stroke="#1F161E" stroke-width="0.55" stroke-miterlimit="10" stroke-linecap="round"/>
<path d="M310.103 68.5003C321.758 65.9857 327.305 67.3403 323.594 56.2539" stroke="#1F161E" stroke-width="0.55" stroke-miterlimit="10" stroke-linecap="round"/>
<path d="M303.532 54.5918C303.594 55.638 304.332 83.4788 304.332 83.4788" stroke="#1F161E" stroke-width="0.55" stroke-miterlimit="10" stroke-linecap="round"/>
<path d="M309.913 40.3285C309.913 41.2866 315.177 41.3416 315.174 40.3285V33.9336H309.913V40.3285Z" fill="#FFEBEE"/>
<path d="M315.15 37.7421C315.15 37.1731 313.421 34.7392 312.419 35.0733C313.656 34.6327 314.684 33.6049 315.139 33.9206L315.15 37.7421Z" fill="#1F161E"/>
<path d="M310.067 36.4603C306.294 36.4603 303.235 33.4016 303.235 29.6286C303.235 25.8555 306.294 22.7969 310.067 22.7969C313.84 22.7969 316.898 25.8555 316.898 29.6286C316.898 33.4016 313.84 36.4603 310.067 36.4603Z" fill="#FFEBEE"/>
<path d="M302.626 31.9159C302.592 31.5892 303.073 31.2715 303.701 31.2064C304.328 31.1413 304.864 31.3533 304.898 31.68C304.931 32.0066 304.451 32.3243 303.823 32.3894C303.196 32.4546 302.66 32.2426 302.626 31.9159Z" fill="#FA9E9F"/>
<path d="M309.757 31.1698C309.723 30.8431 310.204 30.5254 310.831 30.4603C311.459 30.3952 311.994 30.6072 312.028 30.9339C312.062 31.2606 311.581 31.5782 310.954 31.6433C310.327 31.7085 309.791 31.4965 309.757 31.1698Z" fill="#FA9E9F"/>
<path d="M306.403 30.2852C306.223 30.6082 305.265 31.9922 306.469 32.3886" stroke="#1F161E" stroke-width="0.69" stroke-miterlimit="10" stroke-linecap="round"/>
<path d="M308.91 33.6324C309.248 33.5883 309.732 33.1184 309.971 32.7109" stroke="#1F161E" stroke-width="0.69" stroke-miterlimit="10" stroke-linecap="round"/>
<path d="M315.589 30.2856C314.757 30.2856 314.084 29.6117 314.084 28.7805C314.084 27.9492 314.757 27.2754 315.589 27.2754C316.42 27.2754 317.094 27.9492 317.094 28.7805C317.094 29.6117 316.42 30.2856 315.589 30.2856Z" fill="#FFEBEE"/>
<path d="M314.571 30.1054C314.571 32.1098 316.774 33.4093 317.53 33.4093C317.647 33.4235 317.766 33.4124 317.879 33.3766C317.992 33.3408 318.096 33.2812 318.183 33.2018C318.271 33.1225 318.341 33.0252 318.387 32.9166C318.434 32.808 318.457 32.6906 318.455 32.5723C318.455 31.7317 317.963 31.0158 316.924 30.1054C317.115 29.7934 318.455 28.1488 318.455 25.8067C318.455 23.3508 316.946 21.2914 315.937 21.2914C315.505 21.3201 315.095 21.4909 314.771 21.7772C314.447 22.0634 314.227 22.449 314.145 22.8736C314.145 19.4412 310.474 17 308.272 17C306.234 17 305.882 17.8884 305.882 18.6079C305.882 20.1901 307.13 21.8824 307.596 22.2972C306.454 21.4566 304.659 20.6086 303.132 20.6086C302.159 20.6086 300.93 20.8839 300.93 22.2165C300.93 24.665 303.224 26.082 303.991 26.4785C304.283 25.9082 304.654 25.3817 305.093 24.9146C304.949 25.3772 305.515 26.2178 306.598 26.4051C307.222 26.5079 314.571 25.5167 314.571 30.1054Z" fill="#1F161E"/>
<path d="M300.492 75.2499H304.596C304.596 75.2499 305.848 63.5909 305.848 62.6768C305.848 61.7627 299.324 61.8765 299.324 62.6768C299.324 63.4771 300.492 75.2499 300.492 75.2499Z" fill="#1F161E"/>
<path d="M303.375 66.6348C302.792 66.6348 299.455 67.424 299.455 69.142C299.455 71.2529 302.072 71.9724 302.586 71.9724C305.35 71.9724 306.128 71.4988 310.541 71.4988C310.541 70.9812 310.446 68.6098 309.833 68.3785C309.084 68.3895 306.958 66.6348 303.375 66.6348Z" fill="#FFEBEE"/>
<path d="M287.097 151.387C287.831 152.222 288.734 152.892 289.747 153.35C290.76 153.809 291.859 154.047 292.971 154.048H351.159C352.263 154.047 353.354 153.812 354.36 153.36C355.367 152.908 356.266 152.248 357 151.423" stroke="#999999" stroke-width="4" stroke-linecap="round" stroke-linejoin="round"/>
<path d="M345.164 160.279C343.798 160.279 342.69 159.171 342.69 157.804C342.69 156.438 343.798 155.33 345.164 155.33C346.531 155.33 347.639 156.438 347.639 157.804C347.639 159.171 346.531 160.279 345.164 160.279Z" fill="#737373"/>
<path d="M298.932 160.279C297.566 160.279 296.458 159.171 296.458 157.804C296.458 156.438 297.566 155.33 298.932 155.33C300.298 155.33 301.406 156.438 301.406 157.804C301.406 159.171 300.298 160.279 298.932 160.279Z" fill="#737373"/>
<g clip-path="url(#clip1_7013_221837)">
<path d="M256.318 145.643L241.748 75.2188" stroke="#999999" stroke-width="4" stroke-linecap="round" stroke-linejoin="round"/>
<path d="M216.614 78.8511C218.068 80.2514 221.225 85.1755 222.71 85.1755C226.829 85.1755 239.439 77.4508 240.302 75.3273C240.521 74.7456 239.036 73.2591 238.624 73.2591C238.212 73.2591 230.862 77.6693 226.35 77.26C223.89 77.0384 222.261 72.1358 219.605 69.2891" fill="#1F161E"/>
<path d="M139.65 84.412C139.343 84.0673 137.708 81.95 137.12 81.8699C136.063 81.7099 132.03 85.6861 131.999 86.0616C131.968 86.437 132.214 86.9602 132.497 86.9264C132.78 86.8925 134.778 85.7661 135.15 85.7292C135.522 85.6923 136.567 86.2647 136.841 86.8279" fill="#1F161E"/>
<path d="M217.469 86.7695C218.757 87.9513 232.076 113.36 232.076 116.622C232.076 119.884 221.385 144.342 220.49 144.865C219.596 145.388 216.955 144.969 216.282 144.234C215.609 143.498 219.663 117.25 219.663 117.25L199.867 96.8824L217.469 86.7695Z" fill="#1F161E"/>
<path d="M201.644 77.004C200.202 77.8564 179.428 89.6035 173.732 94.897C170.64 94.0845 140.044 83.4115 139.639 83.6546C139.233 83.8977 136.22 86.2213 136.22 86.7691C136.22 87.3169 167.615 112.494 176.084 112.494C179.176 112.494 208.874 95.097 217.46 86.7691C218.326 82.1066 205.634 74.6404 201.644 77.004Z" fill="#FFCC80"/>
<path d="M214.976 59.9117C211.85 58.8069 201.672 76.2229 201.672 77.0046C201.672 77.7863 216.046 86.8743 217.5 86.7697C218.954 86.6651 229.713 65.1221 214.976 59.9117Z" fill="#999CBF"/>
<path d="M224.959 53.3868C225.381 53.3498 226.779 51.6048 226.032 47.7025C225.129 46.5176 222.134 46.1422 222.036 47.484C221.938 48.8258 223.675 53.5068 224.959 53.3868Z" fill="#1F161E"/>
<path d="M218.689 64.1225C218.585 64.895 214.337 64.3687 214.45 63.5408L215.157 58.3828L219.396 58.9645L218.689 64.1225Z" fill="#FFEBEE"/>
<path d="M214.736 61.4626C214.798 61.004 216.064 59.5668 216.836 59.9423C215.886 59.4529 215.557 58.185 215.158 58.3819L214.736 61.4626Z" fill="black"/>
<path d="M219.677 60.7242C216.607 60.7242 214.119 58.233 214.119 55.1599C214.119 52.0869 216.607 49.5957 219.677 49.5957C222.746 49.5957 225.234 52.0869 225.234 55.1599C225.234 58.233 222.746 60.7242 219.677 60.7242Z" fill="#FFEBEE"/>
<path d="M225.043 56.979C224.536 56.9072 224.154 56.6347 224.192 56.3705C224.229 56.1063 224.671 55.9503 225.178 56.0222C225.686 56.0941 226.067 56.3665 226.03 56.6308C225.993 56.895 225.551 57.0509 225.043 56.979Z" fill="#FA9E9F"/>
<path d="M219.299 56.3485C218.791 56.2786 218.408 56.0077 218.445 55.7433C218.481 55.479 218.922 55.3213 219.43 55.3911C219.938 55.461 220.32 55.7319 220.284 55.9963C220.248 56.2606 219.807 56.4183 219.299 56.3485Z" fill="#FA9E9F"/>
<path d="M223.035 55.3633C223.174 55.631 223.915 56.7851 222.925 57.0713" stroke="#1F161E" stroke-width="0.69" stroke-miterlimit="10" stroke-linecap="round"/>
<path d="M220.912 58.0219C220.635 57.9758 220.257 57.5818 220.073 57.2402" stroke="#1F161E" stroke-width="0.69" stroke-miterlimit="10" stroke-linecap="round"/>
<path d="M217.656 43.1695C210.3 43.1695 205.018 44.379 201.579 44.379C196.282 44.379 192.102 42 186.163 42C183.458 42 176.532 44.302 176.532 52.0944C176.532 56.5107 178.991 65.2818 189.526 65.2818C198.545 65.2818 200.115 61.4626 203.773 61.4626C207.628 61.4626 214.797 63.2814 216.005 58.3604C216.269 57.0524 216.564 55.449 217.287 54.1318C221.311 52.7253 222.617 52.8484 224.52 51.722C227.268 50.4141 227.4 43.1695 217.656 43.1695Z" fill="#1F161E"/>
<path d="M216.282 56.1841C215.607 56.1841 215.059 55.6357 215.059 54.9592C215.059 54.2828 215.607 53.7344 216.282 53.7344C216.958 53.7344 217.506 54.2828 217.506 54.9592C217.506 55.6357 216.958 56.1841 216.282 56.1841Z" fill="#FFEBEE"/>
<path d="M216.565 144.086C216.466 144.529 215.766 147.114 216.045 147.637C216.552 148.579 222.15 149.435 222.464 149.232C222.777 149.029 223.057 148.524 222.86 148.308C222.664 148.093 220.567 147.17 220.315 146.899C220.063 146.628 219.894 145.437 220.18 144.883" fill="#1F161E"/>
<path d="M250.111 151.691H192.966" stroke="#999999" stroke-width="4" stroke-linecap="round" stroke-linejoin="round"/>
<path d="M242.178 74.6694L238.019 71.998" stroke="#737373" stroke-width="4" stroke-miterlimit="10" stroke-linecap="round"/>
<path d="M240.843 75.0463C239.55 75.0463 238.501 74.4483 238.501 73.7107C238.501 72.973 239.55 72.375 240.843 72.375C242.137 72.375 243.186 72.973 243.186 73.7107C243.186 74.4483 242.137 75.0463 240.843 75.0463Z" fill="#FFEBEE"/>
<path d="M242.665 76.5541C241.372 76.5541 240.323 75.9561 240.323 75.2185C240.323 74.4808 241.372 73.8828 242.665 73.8828C243.959 73.8828 245.008 74.4808 245.008 75.2185C245.008 75.9561 243.959 76.5541 242.665 76.5541Z" fill="#FFEBEE"/>
<path d="M246.631 77.5275L243.492 75.5117" stroke="#737373" stroke-width="4" stroke-miterlimit="10" stroke-linecap="round"/>
<path d="M215.059 79.2177C216.513 80.6149 222.655 86.4099 224.134 86.4099C228.253 86.4099 240.859 78.6852 241.726 76.5617C241.945 75.9801 240.46 74.4936 240.048 74.4936C239.636 74.4936 230.648 79.2392 226.135 78.8207C223.676 78.5991 218.923 69.9573 216.268 67.1074" fill="#999CBF"/>
<path d="M256.748 158.381C253.083 158.381 250.111 155.406 250.111 151.736C250.111 148.067 253.083 145.092 256.748 145.092C260.413 145.092 263.385 148.067 263.385 151.736C263.385 155.406 260.413 158.381 256.748 158.381Z" stroke="#737373" stroke-width="4" stroke-miterlimit="10"/>
<path d="M186.33 158.381C182.665 158.381 179.693 155.406 179.693 151.736C179.693 148.067 182.665 145.092 186.33 145.092C189.995 145.092 192.967 148.067 192.967 151.736C192.967 155.406 189.995 158.381 186.33 158.381Z" stroke="#737373" stroke-width="4" stroke-miterlimit="10"/>
<path d="M222.461 75.3463C221.348 73.8876 220.085 72.041 219.006 70.4961" stroke="#1F161E" stroke-linecap="round" stroke-linejoin="round"/>
<path d="M215.058 79.2168C215.786 79.9154 217.683 81.7127 219.586 83.3377" stroke="#1F161E" stroke-linecap="round" stroke-linejoin="round"/>
<path d="M216.752 81.0078C217.167 81.3864 219.31 84.4331 218.686 85.3595C219.482 83.8915 219.703 83.436 219.703 83.436" fill="#1F161E"/>
</g>
</g>
<defs>
<clipPath id="clip0_7013_221837">
<rect width="440" height="160" fill="white"/>
</clipPath>
<clipPath id="clip1_7013_221837">
<rect width="132" height="117" fill="white" transform="matrix(-1 0 0 1 264 42)"/>
</clipPath>
</defs>
</svg>
