<svg width="440" height="160" viewBox="0 0 440 160" fill="none" xmlns="http://www.w3.org/2000/svg">
<path d="M280.632 5H150.84V90.3828H280.632V5Z" stroke="black" stroke-width="0.245353" stroke-miterlimit="10"/>
<path d="M150.84 9.53906H280.632" stroke="black" stroke-width="0.245353" stroke-miterlimit="10"/>
<path d="M199.296 17.1445H160.285V56.1556H199.296V17.1445Z" stroke="black" stroke-width="0.245353" stroke-miterlimit="10"/>
<path d="M206.781 20.5801H266.402" stroke="black" stroke-width="0.245353" stroke-miterlimit="10"/>
<path d="M206.781 26.4688H266.402" stroke="black" stroke-width="0.245353" stroke-miterlimit="10"/>
<path d="M206.781 32.3574H266.402" stroke="black" stroke-width="0.245353" stroke-miterlimit="10"/>
<path d="M206.781 38.2461H266.402" stroke="black" stroke-width="0.245353" stroke-miterlimit="10"/>
<path opacity="0.44" d="M179.792 27.4492L169.168 45.8507H190.416L179.792 27.4492Z" fill="#EF6C00"/>
<path d="M153.661 8.43474C154.27 8.43474 154.765 7.94042 154.765 7.33065C154.765 6.72088 154.27 6.22656 153.661 6.22656C153.051 6.22656 152.557 6.72088 152.557 7.33065C152.557 7.94042 153.051 8.43474 153.661 8.43474Z" fill="#EF9A9A"/>
<path d="M157.463 8.43474C158.073 8.43474 158.568 7.94042 158.568 7.33065C158.568 6.72088 158.073 6.22656 157.463 6.22656C156.854 6.22656 156.359 6.72088 156.359 7.33065C156.359 7.94042 156.854 8.43474 157.463 8.43474Z" fill="#51698F"/>
<path d="M161.268 8.43474C161.878 8.43474 162.372 7.94042 162.372 7.33065C162.372 6.72088 161.878 6.22656 161.268 6.22656C160.658 6.22656 160.164 6.72088 160.164 7.33065C160.164 7.94042 160.658 8.43474 161.268 8.43474Z" fill="#EF6C00"/>
<path d="M208.007 74.6181L211.687 71.3672H207.934L208.007 74.6181Z" fill="#EF9A9A"/>
<path d="M227.713 59.2227H209.4C206.598 59.2227 204.326 61.4943 204.326 64.2966V66.6618C204.326 69.464 206.598 71.7357 209.4 71.7357H227.713C230.515 71.7357 232.787 69.464 232.787 66.6618V64.2966C232.787 61.4943 230.515 59.2227 227.713 59.2227Z" fill="#EF9A9A"/>
<path d="M214.754 66.5832C215.364 66.5832 215.859 66.0889 215.859 65.4791C215.859 64.8693 215.364 64.375 214.754 64.375C214.145 64.375 213.65 64.8693 213.65 65.4791C213.65 66.0889 214.145 66.5832 214.754 66.5832Z" fill="white"/>
<path d="M218.557 66.5832C219.167 66.5832 219.661 66.0889 219.661 65.4791C219.661 64.8693 219.167 64.375 218.557 64.375C217.947 64.375 217.453 64.8693 217.453 65.4791C217.453 66.0889 217.947 66.5832 218.557 66.5832Z" fill="white"/>
<path d="M222.36 66.5832C222.97 66.5832 223.464 66.0889 223.464 65.4791C223.464 64.8693 222.97 64.375 222.36 64.375C221.75 64.375 221.256 64.8693 221.256 65.4791C221.256 66.0889 221.75 66.5832 222.36 66.5832Z" fill="white"/>
<path d="M324.551 37.8154L320.871 34.5645H324.625L324.551 37.8154Z" fill="#51698F"/>
<path d="M304.843 34.9336H323.157C325.959 34.9336 328.23 32.6619 328.23 29.8597V27.4945C328.23 24.6923 325.959 22.4206 323.157 22.4206L304.843 22.4206C302.041 22.4206 299.77 24.6923 299.77 27.4945V29.8597C299.77 32.6619 302.041 34.9336 304.843 34.9336Z" fill="#51698F"/>
<path d="M317.803 29.7804C318.413 29.7804 318.907 29.2861 318.907 28.6764C318.907 28.0666 318.413 27.5723 317.803 27.5723C317.194 27.5723 316.699 28.0666 316.699 28.6764C316.699 29.2861 317.194 29.7804 317.803 29.7804Z" fill="white"/>
<path d="M313.999 29.7804C314.608 29.7804 315.103 29.2861 315.103 28.6764C315.103 28.0666 314.608 27.5723 313.999 27.5723C313.389 27.5723 312.895 28.0666 312.895 28.6764C312.895 29.2861 313.389 29.7804 313.999 29.7804Z" fill="white"/>
<path d="M310.198 29.7804C310.808 29.7804 311.302 29.2861 311.302 28.6764C311.302 28.0666 310.808 27.5723 310.198 27.5723C309.588 27.5723 309.094 28.0666 309.094 28.6764C309.094 29.2861 309.588 29.7804 310.198 29.7804Z" fill="white"/>
<path d="M155.01 65.1107C155.959 65.1107 156.728 64.3418 156.728 63.3933C156.728 62.4447 155.959 61.6758 155.01 61.6758C154.062 61.6758 153.293 62.4447 153.293 63.3933C153.293 64.3418 154.062 65.1107 155.01 65.1107Z" fill="#EF9A9A"/>
<path d="M307.732 136.503C306.479 135.136 305.338 131.262 305.509 130.256" stroke="white" stroke-width="0.0981412" stroke-linecap="round" stroke-linejoin="round"/>
<path d="M332.263 74.5566C331.642 77.5181 327.132 114.252 328.607 123.026C330.082 131.8 354.124 150.184 355.176 150.506C356.403 149.605 358.209 146.654 358.209 146.654C358.209 146.654 340.58 126.218 340.244 125.399C339.908 124.579 344.106 77.2555 344.106 77.2555L332.263 74.5566Z" fill="#1F161E"/>
<path d="M360.974 81.2422L342.987 154.605H336.93L343.068 78.0723L360.974 81.2422Z" fill="#EF9A9A"/>
<path d="M348.199 39.2383C350.682 39.2383 363.634 39.6578 365.974 44.2165C368.315 48.7751 366.109 69.8461 364.654 70.6631C363.869 71.1023 363.656 70.6754 363.428 71.5684C363.199 72.4615 360.974 81.2427 360.974 81.2427C359.561 81.282 338.956 78.1782 332.268 74.5495C332.307 73.5411 332.631 70.9183 332.631 70.7171C331.743 71.0802 330.668 71.1562 330.374 70.7171C327.763 66.7644 331.654 46.1572 334.447 42.0108C335.634 40.232 344.214 39.2505 348.199 39.2383Z" fill="#FFCC80"/>
<path d="M356.727 71.2327C357.335 71.2327 362.573 74.913 362.124 76.7213C362.492 75.2688 363.65 70.7812 363.65 70.7812C363.152 70.8769 357.173 71.2401 356.727 71.2327Z" fill="#1F161E"/>
<path d="M351.406 41.6435C351.406 42.4434 345.098 42.4434 345.098 41.6435V33.5469H351.406V41.6435Z" fill="#F8CDBA"/>
<path d="M347.785 35.4631C348.276 35.4631 351.404 36.8469 351.404 37.6173V33.5469C350.624 33.5469 347.785 35.4631 347.785 35.4631Z" fill="#1F161E"/>
<path d="M346.921 36.0538C350.31 36.0538 353.058 33.3065 353.058 29.9175C353.058 26.5286 350.31 23.7812 346.921 23.7812C343.532 23.7812 340.785 26.5286 340.785 29.9175C340.785 33.3065 343.532 36.0538 346.921 36.0538Z" fill="#F8CDBA"/>
<path d="M344.848 20.9473C341.697 20.9473 339.734 22.9248 339.734 25.4593C339.734 27.5669 340.245 28.7593 340.846 29.0611C341.226 27.0148 342.053 26.0678 342.737 25.6605C343.27 26.0678 344.18 27.0541 345.397 27.3583C346.614 27.6626 349.782 27.6037 352.341 29.4635C353.177 28.7029 354.011 27.7141 354.011 26.5487C354.011 25.3832 353.496 23.9209 350.466 23.0769C348.464 22.52 348.184 20.9473 344.848 20.9473Z" fill="#1F161E"/>
<path d="M341.188 31.7399C341.781 31.7399 342.263 31.4895 342.263 31.1805C342.263 30.8716 341.781 30.6211 341.188 30.6211C340.594 30.6211 340.113 30.8716 340.113 31.1805C340.113 31.4895 340.594 31.7399 341.188 31.7399Z" fill="#C62828"/>
<path d="M347.95 31.7399C348.543 31.7399 349.024 31.4895 349.024 31.1805C349.024 30.8716 348.543 30.6211 347.95 30.6211C347.356 30.6211 346.875 30.8716 346.875 31.1805C346.875 31.4895 347.356 31.7399 347.95 31.7399Z" fill="#C62828"/>
<path d="M343.813 30.0215C343.611 30.3085 342.586 31.5132 343.668 31.999" stroke="#1F161E" stroke-width="0.245353" stroke-miterlimit="10" stroke-linecap="round"/>
<path d="M345.836 33.4056C346.16 33.4056 346.658 33.0032 346.92 32.6426" stroke="#1F161E" stroke-width="0.245353" stroke-miterlimit="10" stroke-linecap="round"/>
<path d="M352.594 32.0414C353.377 32.0414 354.012 31.4064 354.012 30.6232C354.012 29.84 353.377 29.2051 352.594 29.2051C351.811 29.2051 351.176 29.84 351.176 30.6232C351.176 31.4064 351.811 32.0414 352.594 32.0414Z" fill="#F8CDBA"/>
<path d="M356.868 51.3125C356.757 52.6668 356.326 59.3601 356.488 60.2409C354.429 60.9573 335.581 69.8955 332.32 70.8769" stroke="#1F161E" stroke-width="0.245353" stroke-miterlimit="10" stroke-linecap="round"/>
<path d="M334.978 49.1992C334.543 50.7155 333.081 57.5977 334.109 60.7946" stroke="#1F161E" stroke-width="0.245353" stroke-miterlimit="10" stroke-linecap="round"/>
<path d="M339.789 67.7461C340.77 68.4355 350.177 72.5992 363.183 71.0289" stroke="#1F161E" stroke-width="0.245353" stroke-miterlimit="10" stroke-linecap="round"/>
<path d="M338.891 60.7951C339.522 60.8957 337.466 59.2542 336.301 59.8652C335.135 60.4761 333.565 63.2412 333.886 63.8816C333.93 63.9978 333.998 64.1029 334.088 64.189C334.177 64.2751 334.284 64.34 334.402 64.3791C334.52 64.4182 334.645 64.4304 334.768 64.4148C334.891 64.3992 335.009 64.3561 335.113 64.2889C335.43 64.0852 337.792 60.6184 338.891 60.7951Z" fill="#F8CDBA"/>
<path d="M358.008 146.955C358.344 147.2 361.325 149.217 361.35 150.488C361.374 151.759 358.572 155.972 358.008 156.092C357.443 156.212 357.041 155.736 357.041 154.885C357.041 154.034 358.106 152.542 357.964 151.879C357.821 151.217 356.445 150.005 355.738 149.983" fill="#1F161E"/>
<path d="M342.413 154.605C342.413 155.189 342.752 158.855 342.075 159.196C341.397 159.537 333.924 159.738 333.585 159.4C333.247 159.061 333.041 158.347 333.34 158.143C333.639 157.94 336.53 157.361 336.922 157.091C337.315 156.821 337.857 155.373 337.658 154.605" fill="#1F161E"/>
<path d="M204.248 127.393H139.963V160H204.248V127.393Z" fill="#8C6631"/>
<path d="M219.203 116.113C219.409 117.34 222.908 145.386 223.475 145.85C224.041 146.314 230.06 147.342 230.575 146.571C230.678 145.345 230.821 125.785 231.14 124.036" fill="#1F161E"/>
<path d="M151.511 110.261C149.084 109.066 154.143 132.753 167.458 132.753C180.774 132.753 203.187 112.469 206.816 112.469C214.826 112.469 233.79 128.196 235.276 128.196C236.415 127.058 238.692 125.066 238.692 124.271C238.692 123.476 220.536 93.6016 206.95 93.6016C201.683 93.6089 156.989 112.967 151.511 110.261Z" fill="#EF6C00"/>
<path d="M159.004 110.664C161.666 110.061 164.978 108.498 167.91 106.9C159.934 109.508 153.398 111.194 151.511 110.262C150.225 109.629 151.04 115.969 154.063 122.075C153.516 120.895 152.735 112.097 159.004 110.664Z" fill="#1F161E"/>
<path d="M164.873 69.1119C166.971 69.1683 177.891 68.8469 180.885 71.6979C183.105 73.8128 190.009 92.0008 191.074 98.3874C186.437 100.745 152.991 116.759 142.639 109.718C142.411 104.246 143.473 82.4959 150.243 71.0894C152.718 69.4406 162.856 69.0603 164.873 69.1119Z" fill="#51698F"/>
<path d="M169.127 63.9082H162.748V70.7634C162.748 72.4808 169.127 72.4661 169.127 70.7634V63.9082Z" fill="#F8CDBA"/>
<path d="M162.748 68.0475C162.748 67.2869 164.856 65.3756 166.158 65.4443C166.19 64.5978 163.182 63.3809 163.182 63.3809L162.748 64.5512V68.0475Z" fill="#1F161E"/>
<path d="M175.807 63.9073C175.95 63.2437 176.023 62.5669 176.023 61.888C176.023 56.8289 172.07 52.7266 167.19 52.7266C162.31 52.7266 158.357 56.8289 158.357 61.888C158.358 62.5669 158.43 63.2437 158.573 63.9073H175.807Z" fill="#1F161E"/>
<path d="M173.48 57.7329C172.398 57.5685 171.318 56.7171 170.565 56.1602C166.271 59.3056 163.521 59.3473 163.224 59.3473C162.927 59.3473 161.717 61.0844 161.16 61.2807L161.111 61.2512C161.277 62.1652 161.631 63.0348 162.15 63.8047C162.67 64.5746 163.344 65.228 164.13 65.7234C164.916 66.2188 165.796 66.5453 166.715 66.6822C167.634 66.8191 168.571 66.7635 169.467 66.5187C170.363 66.274 171.198 65.8456 171.92 65.2607C172.642 64.6758 173.234 63.9471 173.658 63.1211C174.083 62.2951 174.332 61.3897 174.388 60.4626C174.444 59.5354 174.307 58.6066 173.985 57.7353C173.817 57.7553 173.647 57.7545 173.48 57.7329Z" fill="#F8CDBA"/>
<path d="M162.406 53.8675C163.845 53.8675 165.012 52.701 165.012 51.2619C165.012 49.8228 163.845 48.6562 162.406 48.6562C160.967 48.6562 159.801 49.8228 159.801 51.2619C159.801 52.701 160.967 53.8675 162.406 53.8675Z" fill="#1F161E"/>
<path d="M163.566 59.207C163.285 59.2204 163.019 59.3416 162.825 59.5456C162.63 59.7496 162.521 60.0206 162.521 60.3025C162.521 60.5844 162.63 60.8555 162.825 61.0595C163.019 61.2635 163.285 61.3847 163.566 61.398" stroke="#1F161E" stroke-width="0.245353" stroke-miterlimit="10" stroke-linecap="round"/>
<path d="M171.918 59.3457C172.239 59.7751 173.066 60.5283 171.918 61.3257" stroke="#1F161E" stroke-width="0.245353" stroke-miterlimit="10" stroke-linecap="round"/>
<path d="M168.438 61.9004C168.438 62.2218 168.575 62.9898 169.264 63.1885" stroke="#1F161E" stroke-width="0.245353" stroke-miterlimit="10" stroke-linecap="round"/>
<path d="M166.3 61.9759C166.858 61.9759 167.311 61.7408 167.311 61.4508C167.311 61.1609 166.858 60.9258 166.3 60.9258C165.742 60.9258 165.289 61.1609 165.289 61.4508C165.289 61.7408 165.742 61.9759 166.3 61.9759Z" fill="#C62828"/>
<path d="M173.816 61.9759C174.374 61.9759 174.826 61.7408 174.826 61.4508C174.826 61.1609 174.374 60.9258 173.816 60.9258C173.257 60.9258 172.805 61.1609 172.805 61.4508C172.805 61.7408 173.257 61.9759 173.816 61.9759Z" fill="#C62828"/>
<path d="M180.654 88.0707L187.473 86.3164C188.128 87.4303 191.317 98.3755 191.317 98.3755L180.792 102.811C180.929 100.738 181.344 91.2431 180.654 88.0707Z" fill="#F8CDBA"/>
<path d="M156.747 86.3555C156.747 87.1799 156.052 90.3179 155.643 91.7925" stroke="#1F161E" stroke-width="0.245353" stroke-miterlimit="10" stroke-linecap="round"/>
<path d="M180.653 88.0689C180.489 86.771 179.527 79.457 177.891 75.6074" stroke="#1F161E" stroke-width="0.245353" stroke-miterlimit="10" stroke-linecap="round"/>
<path d="M180.654 88.0707L187.473 86.3164C188.128 87.4303 191.317 98.3755 191.317 98.3755L180.792 102.811C180.929 100.738 181.344 91.2431 180.654 88.0707Z" fill="#F8CDBA"/>
<path d="M235.48 127.618C235.633 127.864 237.664 130.356 238.383 130.383C239.102 130.41 243.467 127.454 243.275 126.818C243.084 126.183 240.346 126.598 239.875 126.374C239.404 126.151 238.351 125.101 238.179 124.635" fill="#1F161E"/>
<path d="M224.746 146.111C224.695 146.384 224.418 149.595 224.916 150.115C225.414 150.636 230.608 151.538 230.91 150.947C231.211 150.356 228.947 148.754 228.773 148.268C228.598 147.782 228.562 146.305 228.773 145.844" fill="#1F161E"/>
<path d="M216.603 99.0608H193.498L198.999 84.4844H222.104L216.603 99.0608Z" fill="#969696"/>
<path d="M197.349 98.5117H174.244V99.0613H197.349V98.5117Z" fill="#969696"/>
<path d="M155.642 91.7918C155.198 93.4504 153.041 100.566 153.92 101.792C154.798 103.019 176.796 100.239 182.682 98.4065C184.182 97.9158 185.293 96.6302 185.958 96.4633C186.812 96.3188 187.689 96.4948 188.421 96.9577C189.153 97.4205 189.688 98.1375 189.923 98.9708C187.572 100.109 153.635 117.436 142.638 109.725C140.56 108.235 144.206 90.0792 144.373 89.1641C146.23 89.3873 155.642 91.7918 155.642 91.7918Z" fill="#F8CDBA"/>
<path d="M180.967 98.8478C181.629 98.6907 182.208 98.5362 182.684 98.389C184.183 97.8982 185.295 96.6126 185.96 96.4458C186.814 96.3012 187.691 96.4773 188.422 96.9401C189.154 97.403 189.689 98.1199 189.925 98.9533" stroke="#1F161E" stroke-width="0.245353" stroke-miterlimit="10" stroke-linecap="round"/>
</svg>
