<svg width="314" height="115" viewBox="0 0 314 115" fill="none" xmlns="http://www.w3.org/2000/svg">
<path d="M203.316 13H118.137V69.0351H203.316V13Z" stroke="black" stroke-width="0.16102" stroke-miterlimit="10"/>
<path d="M118.137 15.9785H203.316" stroke="black" stroke-width="0.16102" stroke-miterlimit="10"/>
<path d="M149.938 20.9707H124.336V46.5729H149.938V20.9707Z" stroke="black" stroke-width="0.16102" stroke-miterlimit="10"/>
<path d="M154.852 23.2246H193.98" stroke="black" stroke-width="0.16102" stroke-miterlimit="10"/>
<path d="M154.852 27.0898H193.98" stroke="black" stroke-width="0.16102" stroke-miterlimit="10"/>
<path d="M154.852 30.9531H193.98" stroke="black" stroke-width="0.16102" stroke-miterlimit="10"/>
<path d="M154.852 34.8184H193.98" stroke="black" stroke-width="0.16102" stroke-miterlimit="10"/>
<path opacity="0.44" d="M137.136 27.7324L130.164 39.8089H144.108L137.136 27.7324Z" fill="#EF6C00"/>
<path d="M119.986 15.2539C120.386 15.2539 120.711 14.9295 120.711 14.5293C120.711 14.1291 120.386 13.8047 119.986 13.8047C119.586 13.8047 119.262 14.1291 119.262 14.5293C119.262 14.9295 119.586 15.2539 119.986 15.2539Z" fill="#EF9A9A"/>
<path d="M122.482 15.2539C122.883 15.2539 123.207 14.9295 123.207 14.5293C123.207 14.1291 122.883 13.8047 122.482 13.8047C122.082 13.8047 121.758 14.1291 121.758 14.5293C121.758 14.9295 122.082 15.2539 122.482 15.2539Z" fill="#51698F"/>
<path d="M124.982 15.2539C125.383 15.2539 125.707 14.9295 125.707 14.5293C125.707 14.1291 125.383 13.8047 124.982 13.8047C124.582 13.8047 124.258 14.1291 124.258 14.5293C124.258 14.9295 124.582 15.2539 124.982 15.2539Z" fill="#EF6C00"/>
<path d="M155.654 58.6902L158.069 56.5566H155.605L155.654 58.6902Z" fill="#EF9A9A"/>
<path d="M168.587 48.5859H156.568C154.729 48.5859 153.238 50.0768 153.238 51.9158V53.4681C153.238 55.3071 154.729 56.798 156.568 56.798H168.587C170.426 56.798 171.917 55.3071 171.917 53.4681V51.9158C171.917 50.0768 170.426 48.5859 168.587 48.5859Z" fill="#EF9A9A"/>
<path d="M160.084 53.416C160.484 53.416 160.809 53.0916 160.809 52.6914C160.809 52.2912 160.484 51.9668 160.084 51.9668C159.684 51.9668 159.359 52.2912 159.359 52.6914C159.359 53.0916 159.684 53.416 160.084 53.416Z" fill="white"/>
<path d="M162.58 53.416C162.98 53.416 163.305 53.0916 163.305 52.6914C163.305 52.2912 162.98 51.9668 162.58 51.9668C162.18 51.9668 161.855 52.2912 161.855 52.6914C161.855 53.0916 162.18 53.416 162.58 53.416Z" fill="white"/>
<path d="M165.072 53.416C165.472 53.416 165.797 53.0916 165.797 52.6914C165.797 52.2912 165.472 51.9668 165.072 51.9668C164.672 51.9668 164.348 52.2912 164.348 52.6914C164.348 53.0916 164.672 53.416 165.072 53.416Z" fill="white"/>
<path d="M232.138 34.5359L229.723 32.4023H232.186L232.138 34.5359Z" fill="#51698F"/>
<path d="M219.206 32.6445H231.225C233.064 32.6445 234.555 31.1537 234.555 29.3146V27.7624C234.555 25.9233 233.064 24.4325 231.225 24.4325H219.206C217.367 24.4325 215.876 25.9233 215.876 27.7624V29.3146C215.876 31.1537 217.367 32.6445 219.206 32.6445Z" fill="#51698F"/>
<path d="M227.713 29.2636C228.113 29.2636 228.437 28.9392 228.437 28.539C228.437 28.1389 228.113 27.8145 227.713 27.8145C227.313 27.8145 226.988 28.1389 226.988 28.539C226.988 28.9392 227.313 29.2636 227.713 29.2636Z" fill="white"/>
<path d="M225.213 29.2636C225.613 29.2636 225.937 28.9392 225.937 28.539C225.937 28.1389 225.613 27.8145 225.213 27.8145C224.813 27.8145 224.488 28.1389 224.488 28.539C224.488 28.9392 224.813 29.2636 225.213 29.2636Z" fill="white"/>
<path d="M222.721 29.2636C223.121 29.2636 223.445 28.9392 223.445 28.539C223.445 28.1389 223.121 27.8145 222.721 27.8145C222.321 27.8145 221.996 28.1389 221.996 28.539C221.996 28.9392 222.321 29.2636 222.721 29.2636Z" fill="white"/>
<path d="M120.873 52.4496C121.496 52.4496 122 51.945 122 51.3225C122 50.7 121.496 50.1953 120.873 50.1953C120.251 50.1953 119.746 50.7 119.746 51.3225C119.746 51.945 120.251 52.4496 120.873 52.4496Z" fill="#EF9A9A"/>
<path d="M221.103 99.3027C220.28 98.4058 219.531 95.8633 219.644 95.2031" stroke="white" stroke-width="0.0644081" stroke-linecap="round" stroke-linejoin="round"/>
<path d="M237.206 58.6504C236.798 60.5939 233.839 84.7019 234.807 90.46C235.774 96.218 251.553 108.283 252.243 108.494C253.049 107.903 254.234 105.966 254.234 105.966C254.234 105.966 242.664 92.5548 242.444 92.017C242.223 91.4792 244.978 60.4216 244.978 60.4216L237.206 58.6504Z" fill="#1F161E"/>
<path d="M256.05 63.0374L244.245 111.184H240.27L244.298 60.957L256.05 63.0374Z" fill="#EF9A9A"/>
<path d="M247.666 35.4707C249.296 35.4707 257.796 35.746 259.332 38.7378C260.868 41.7296 259.421 55.558 258.466 56.0942C257.951 56.3824 257.81 56.1022 257.661 56.6884C257.511 57.2745 256.051 63.0374 256.051 63.0374C255.123 63.0631 241.601 61.0262 237.211 58.6447C237.237 57.983 237.449 56.2616 237.449 56.1296C236.867 56.3679 236.161 56.4178 235.968 56.1296C234.255 53.5356 236.809 40.0115 238.641 37.2902C239.42 36.1228 245.051 35.4788 247.666 35.4707Z" fill="#FFCC80"/>
<path d="M253.262 56.4682C253.661 56.4682 257.099 58.8835 256.804 60.0702C257.046 59.1169 257.806 56.1719 257.806 56.1719C257.479 56.2347 253.555 56.473 253.262 56.4682Z" fill="#1F161E"/>
<path d="M249.769 37.048C249.769 37.573 245.629 37.573 245.629 37.048V31.7344H249.769V37.048Z" fill="#F8CDBA"/>
<path d="M247.395 32.9919C247.717 32.9919 249.77 33.9001 249.77 34.4057V31.7344C249.258 31.7344 247.395 32.9919 247.395 32.9919Z" fill="#1F161E"/>
<path d="M246.828 33.3804C249.052 33.3804 250.855 31.5774 250.855 29.3533C250.855 27.1292 249.052 25.3262 246.828 25.3262C244.604 25.3262 242.801 27.1292 242.801 29.3533C242.801 31.5774 244.604 33.3804 246.828 33.3804Z" fill="#F8CDBA"/>
<path d="M245.465 23.4668C243.398 23.4668 242.109 24.7646 242.109 26.428C242.109 27.8111 242.444 28.5937 242.839 28.7917C243.088 27.4488 243.631 26.8273 244.08 26.56C244.43 26.8273 245.027 27.4746 245.826 27.6743C246.624 27.8739 248.703 27.8353 250.383 29.0558C250.932 28.5567 251.479 27.9077 251.479 27.1429C251.479 26.378 251.141 25.4184 249.152 24.8645C247.838 24.4989 247.655 23.4668 245.465 23.4668Z" fill="#1F161E"/>
<path d="M243.065 30.5507C243.454 30.5507 243.77 30.3863 243.77 30.1835C243.77 29.9808 243.454 29.8164 243.065 29.8164C242.675 29.8164 242.359 29.9808 242.359 30.1835C242.359 30.3863 242.675 30.5507 243.065 30.5507Z" fill="#C62828"/>
<path d="M247.498 30.5507C247.888 30.5507 248.204 30.3863 248.204 30.1835C248.204 29.9808 247.888 29.8164 247.498 29.8164C247.109 29.8164 246.793 29.9808 246.793 30.1835C246.793 30.3863 247.109 30.5507 247.498 30.5507Z" fill="#C62828"/>
<path d="M244.786 29.4219C244.654 29.6103 243.981 30.4009 244.691 30.7197" stroke="#1F161E" stroke-width="0.16102" stroke-miterlimit="10" stroke-linecap="round"/>
<path d="M246.113 31.6434C246.326 31.6434 246.653 31.3793 246.825 31.1426" stroke="#1F161E" stroke-width="0.16102" stroke-miterlimit="10" stroke-linecap="round"/>
<path d="M250.552 30.7481C251.066 30.7481 251.482 30.3314 251.482 29.8174C251.482 29.3034 251.066 28.8867 250.552 28.8867C250.038 28.8867 249.621 29.3034 249.621 29.8174C249.621 30.3314 250.038 30.7481 250.552 30.7481Z" fill="#F8CDBA"/>
<path d="M253.356 43.3945C253.284 44.2834 253 48.676 253.107 49.2541C251.756 49.7242 239.386 55.5902 237.246 56.2343" stroke="#1F161E" stroke-width="0.16102" stroke-miterlimit="10" stroke-linecap="round"/>
<path d="M238.989 42.0078C238.704 43.0029 237.745 47.5195 238.419 49.6176" stroke="#1F161E" stroke-width="0.16102" stroke-miterlimit="10" stroke-linecap="round"/>
<path d="M242.148 54.1797C242.793 54.6322 248.966 57.3647 257.502 56.3341" stroke="#1F161E" stroke-width="0.16102" stroke-miterlimit="10" stroke-linecap="round"/>
<path d="M241.555 49.6179C241.969 49.6839 240.619 48.6067 239.855 49.0077C239.09 49.4086 238.059 51.2233 238.27 51.6436C238.298 51.7198 238.344 51.7888 238.402 51.8453C238.461 51.9018 238.531 51.9444 238.609 51.9701C238.686 51.9957 238.768 52.0037 238.849 51.9935C238.929 51.9832 239.007 51.955 239.075 51.9108C239.283 51.7772 240.834 49.502 241.555 49.6179Z" fill="#F8CDBA"/>
<path d="M254.103 106.164C254.323 106.325 256.28 107.649 256.296 108.483C256.312 109.317 254.473 112.082 254.103 112.16C253.732 112.239 253.468 111.927 253.468 111.368C253.468 110.809 254.167 109.83 254.074 109.396C253.98 108.961 253.077 108.166 252.613 108.151" fill="#1F161E"/>
<path d="M243.866 111.184C243.866 111.567 244.088 113.972 243.644 114.196C243.199 114.42 238.295 114.552 238.072 114.33C237.85 114.108 237.715 113.639 237.911 113.506C238.108 113.372 240.005 112.992 240.262 112.815C240.52 112.638 240.876 111.688 240.745 111.184" fill="#1F161E"/>
<path d="M153.189 93.3242H111V114.724H153.189V93.3242Z" fill="#8C6631"/>
<path d="M163.004 85.9219C163.139 86.727 165.435 105.133 165.807 105.438C166.179 105.742 170.129 106.417 170.467 105.911C170.535 105.106 170.628 92.2693 170.838 91.1212" fill="#1F161E"/>
<path d="M118.58 82.0817C116.988 81.2975 120.308 96.8424 129.047 96.8424C137.785 96.8424 152.494 83.5309 154.876 83.5309C160.133 83.5309 172.579 93.8523 173.554 93.8523C174.301 93.1052 175.796 91.7977 175.796 91.276C175.796 90.7543 163.88 71.1484 154.965 71.1484C151.507 71.1533 122.176 83.8578 118.58 82.0817Z" fill="#EF6C00"/>
<path d="M123.498 82.3451C125.245 81.9489 127.419 80.9232 129.343 79.875C124.109 81.5866 119.819 82.6929 118.581 82.081C117.737 81.6655 118.272 85.8263 120.255 89.8341C119.896 89.0596 119.384 83.2854 123.498 82.3451Z" fill="#1F161E"/>
<path d="M127.348 55.0752C128.725 55.1122 135.892 54.9013 137.856 56.7723C139.314 58.1603 143.845 70.0968 144.544 74.2881C141.5 75.8355 119.55 86.3453 112.756 81.724C112.607 78.1333 113.304 63.8588 117.747 56.373C119.371 55.291 126.025 55.0414 127.348 55.0752Z" fill="#51698F"/>
<path d="M130.14 51.6602H125.953V56.1591C125.953 57.2862 130.14 57.2765 130.14 56.1591V51.6602Z" fill="#F8CDBA"/>
<path d="M125.953 54.3751C125.953 53.8759 127.336 52.6216 128.191 52.6667C128.212 52.1112 126.238 51.3125 126.238 51.3125L125.953 52.0806V54.3751Z" fill="#1F161E"/>
<path d="M134.522 51.66C134.616 51.2245 134.664 50.7803 134.664 50.3348C134.664 47.0145 132.07 44.3223 128.867 44.3223C125.664 44.3223 123.07 47.0145 123.07 50.3348C123.071 50.7803 123.118 51.2245 123.212 51.66H134.522Z" fill="#1F161E"/>
<path d="M132.996 47.6064C132.286 47.4985 131.577 46.9397 131.083 46.5742C128.265 48.6385 126.46 48.6659 126.265 48.6659C126.07 48.6659 125.277 49.8059 124.911 49.9347L124.879 49.9154C124.988 50.5152 125.22 51.0859 125.561 51.5912C125.902 52.0965 126.344 52.5253 126.86 52.8504C127.376 53.1755 127.953 53.3898 128.556 53.4796C129.159 53.5695 129.774 53.533 130.362 53.3724C130.951 53.2117 131.499 52.9306 131.972 52.5467C132.446 52.1628 132.835 51.6847 133.113 51.1426C133.392 50.6005 133.555 50.0063 133.592 49.3978C133.629 48.7893 133.539 48.1798 133.328 47.608C133.217 47.6211 133.106 47.6206 132.996 47.6064Z" fill="#F8CDBA"/>
<path d="M125.73 45.0705C126.674 45.0705 127.44 44.3049 127.44 43.3604C127.44 42.416 126.674 41.6504 125.73 41.6504C124.785 41.6504 124.02 42.416 124.02 43.3604C124.02 44.3049 124.785 45.0705 125.73 45.0705Z" fill="#1F161E"/>
<path d="M126.49 48.5742C126.306 48.583 126.131 48.6625 126.004 48.7964C125.876 48.9303 125.805 49.1082 125.805 49.2932C125.805 49.4782 125.876 49.6561 126.004 49.7899C126.131 49.9238 126.306 50.0034 126.49 50.0121" stroke="#1F161E" stroke-width="0.16102" stroke-miterlimit="10" stroke-linecap="round"/>
<path d="M131.973 48.666C132.184 48.9478 132.726 49.4421 131.973 49.9655" stroke="#1F161E" stroke-width="0.16102" stroke-miterlimit="10" stroke-linecap="round"/>
<path d="M129.688 50.3418C129.688 50.5527 129.778 51.0567 130.23 51.1872" stroke="#1F161E" stroke-width="0.16102" stroke-miterlimit="10" stroke-linecap="round"/>
<path d="M128.284 50.3923C128.651 50.3923 128.948 50.238 128.948 50.0477C128.948 49.8574 128.651 49.7031 128.284 49.7031C127.918 49.7031 127.621 49.8574 127.621 50.0477C127.621 50.238 127.918 50.3923 128.284 50.3923Z" fill="#C62828"/>
<path d="M133.218 50.3923C133.584 50.3923 133.881 50.238 133.881 50.0477C133.881 49.8574 133.584 49.7031 133.218 49.7031C132.852 49.7031 132.555 49.8574 132.555 50.0477C132.555 50.238 132.852 50.3923 133.218 50.3923Z" fill="#C62828"/>
<path d="M137.703 67.5165L142.178 66.3652C142.608 67.0963 144.701 74.2794 144.701 74.2794L137.793 77.1906C137.883 75.83 138.156 69.5985 137.703 67.5165Z" fill="#F8CDBA"/>
<path d="M122.014 66.3906C122.014 66.9317 121.558 68.9911 121.289 69.9588" stroke="#1F161E" stroke-width="0.16102" stroke-miterlimit="10" stroke-linecap="round"/>
<path d="M137.704 67.5161C137.596 66.6643 136.965 61.8643 135.891 59.3379" stroke="#1F161E" stroke-width="0.16102" stroke-miterlimit="10" stroke-linecap="round"/>
<path d="M137.703 67.5165L142.178 66.3652C142.608 67.0963 144.701 74.2794 144.701 74.2794L137.793 77.1906C137.883 75.83 138.156 69.5985 137.703 67.5165Z" fill="#F8CDBA"/>
<path d="M173.688 93.4717C173.787 93.6327 175.121 95.2687 175.592 95.2864C176.064 95.3041 178.929 93.3638 178.803 92.9468C178.678 92.5297 176.881 92.8018 176.571 92.6553C176.262 92.5088 175.571 91.8196 175.459 91.5137" fill="#1F161E"/>
<path d="M166.643 105.607C166.61 105.786 166.428 107.894 166.755 108.235C167.081 108.576 170.49 109.169 170.688 108.781C170.886 108.393 169.4 107.341 169.286 107.023C169.171 106.704 169.147 105.734 169.286 105.432" fill="#1F161E"/>
<path d="M161.296 74.7303H146.133L149.743 65.1641H164.906L161.296 74.7303Z" fill="#969696"/>
<path d="M148.663 74.3691H133.5V74.7298H148.663V74.3691Z" fill="#969696"/>
<path d="M121.289 69.9589C120.998 71.0474 119.582 75.717 120.159 76.5221C120.735 77.3272 135.172 75.5028 139.035 74.3C140.019 73.978 140.748 73.1342 141.185 73.0247C141.745 72.9299 142.321 73.0454 142.801 73.3492C143.281 73.6529 143.632 74.1235 143.787 74.6704C142.244 75.4175 119.972 86.7887 112.755 81.7279C111.391 80.7505 113.784 68.835 113.893 68.2344C115.112 68.3809 121.289 69.9589 121.289 69.9589Z" fill="#F8CDBA"/>
<path d="M137.91 74.5911C138.345 74.4881 138.725 74.3867 139.037 74.29C140.021 73.968 140.751 73.1242 141.187 73.0148C141.747 72.9199 142.323 73.0354 142.803 73.3392C143.283 73.643 143.635 74.1135 143.789 74.6604" stroke="#1F161E" stroke-width="0.16102" stroke-miterlimit="10" stroke-linecap="round"/>
</svg>
