<svg width="314" height="115" viewBox="0 0 314 115" fill="none" xmlns="http://www.w3.org/2000/svg">
<path d="M77.6732 94.321C97.2908 94.321 113.194 78.4178 113.194 58.8001C113.194 39.1825 97.2908 23.2793 77.6732 23.2793C58.0556 23.2793 42.1523 39.1825 42.1523 58.8001C42.1523 78.4178 58.0556 94.321 77.6732 94.321Z" fill="#7DBF9D"/>
<path d="M72.8907 90.267C72.4102 92.7289 58.8141 90.267 59.3308 87.6268L62.5573 71.1426L76.1069 73.7827L72.8907 90.267Z" fill="#EED0C3"/>
<path d="M60.6289 80.9876C60.9157 79.5202 66.5706 74.103 68.9886 75.4567C66.0203 73.7103 63.871 70.5819 62.5457 71.1425L60.6289 80.9876Z" fill="#1F161E"/>
<path d="M77.2524 80.208C87.1625 80.208 95.1963 72.1743 95.1963 62.2641C95.1963 52.354 87.1625 44.3203 77.2524 44.3203C67.3423 44.3203 59.3086 52.354 59.3086 62.2641C59.3086 72.1743 67.3423 80.208 77.2524 80.208Z" fill="#EED0C3"/>
<path d="M96.7772 68.2665C96.8661 67.4108 95.6048 66.5786 93.9601 66.4078C92.3154 66.2369 90.91 66.7921 90.8211 67.6479C90.7322 68.5036 91.9935 69.3358 93.6382 69.5066C95.283 69.6774 96.6883 69.1222 96.7772 68.2665Z" fill="#EF9A9A"/>
<path d="M78.0585 66.3192C78.1473 65.4635 76.8861 64.6313 75.2413 64.4605C73.5966 64.2897 72.1912 64.8449 72.1023 65.7006C72.0135 66.5563 73.2747 67.3885 74.9195 67.5593C76.5642 67.7302 77.9696 67.175 78.0585 66.3192Z" fill="#EF9A9A"/>
<path d="M86.8697 63.9883C87.3451 64.8408 89.8561 68.473 86.6992 69.5089" stroke="#1F161E" stroke-width="0.17825" stroke-miterlimit="10" stroke-linecap="round"/>
<path d="M80.2913 72.7806C79.4001 72.6618 78.1317 71.4347 77.5039 70.3574" stroke="#1F161E" stroke-width="0.17825" stroke-miterlimit="10" stroke-linecap="round"/>
<path d="M62.7507 63.9858C64.9322 63.9858 66.7006 62.2173 66.7006 60.0359C66.7006 57.8544 64.9322 56.0859 62.7507 56.0859C60.5692 56.0859 58.8008 57.8544 58.8008 60.0359C58.8008 62.2173 60.5692 63.9858 62.7507 63.9858Z" fill="#EED0C3"/>
<path d="M65.4188 63.5199C65.4188 68.777 59.6012 72.2464 57.6456 72.2464C55.4782 72.2464 55.1914 70.6783 55.1914 69.9963C55.1914 67.7927 56.4831 65.9043 59.2137 63.5199C58.7383 62.701 55.1914 58.3739 55.1914 52.2695C55.1914 45.8111 59.1491 40.4094 61.8047 40.4094C64.6309 40.4094 66.509 43.3389 66.509 44.566C66.509 35.5501 76.1758 29.0918 81.916 29.0918C87.2687 29.0918 88.1883 31.4168 88.1883 33.3181C88.1883 37.467 84.9152 41.9077 83.6882 42.9979C86.6822 40.7917 91.3581 38.5675 95.4139 38.5675C97.9611 38.5675 101.208 39.2856 101.208 42.7938C101.208 49.2237 95.1866 52.9463 93.1742 53.9874C92.1641 51.993 91.1075 50.8667 90.2472 49.8721C90.6192 51.0863 89.1312 53.295 86.2922 53.7936C84.7241 54.0675 65.4188 51.4686 65.4188 63.5199Z" fill="#1F161E"/>
<path d="M131.531 37.4883H251.656" stroke="#7DBF9D" stroke-width="3.61667" stroke-miterlimit="10" stroke-linecap="round"/>
<path d="M131.531 51.6953H251.656" stroke="#7DBF9D" stroke-width="3.61667" stroke-miterlimit="10" stroke-linecap="round"/>
<path d="M131.531 65.9043H251.656" stroke="#7DBF9D" stroke-width="3.61667" stroke-miterlimit="10" stroke-linecap="round"/>
<path d="M131.531 80.1133H251.656" stroke="#7DBF9D" stroke-width="3.61667" stroke-miterlimit="10" stroke-linecap="round"/>
</svg>
