<svg width="586" height="160" viewBox="0 0 586 160" fill="none" xmlns="http://www.w3.org/2000/svg">
<rect width="586" height="160" fill="#A0B1BF"/>
<path d="M144.626 85.0874C153.176 86.7119 151.65 137.737 135.239 134.65C119.741 131.72 134.195 83.1209 144.626 85.0874Z" fill="black"/>
<path d="M107.087 91.413C113.891 87.5656 142.371 123.403 129.344 130.77C117.036 137.731 98.8024 96.0975 107.087 91.413Z" fill="#FFF3E0"/>
<path d="M141.759 159.312H124.578C123.886 159.312 123.219 159.057 122.703 158.595C122.188 158.133 121.86 157.498 121.784 156.81L119.615 137.33C119.571 136.937 119.611 136.539 119.731 136.162C119.852 135.786 120.051 135.439 120.314 135.144C120.578 134.849 120.901 134.614 121.262 134.452C121.623 134.291 122.014 134.207 122.409 134.207H143.838C144.232 134.207 144.623 134.289 144.983 134.45C145.343 134.61 145.666 134.845 145.929 135.138C146.193 135.431 146.392 135.777 146.513 136.152C146.634 136.528 146.675 136.924 146.632 137.316L144.558 156.797C144.484 157.487 144.157 158.126 143.64 158.59C143.124 159.055 142.454 159.312 141.759 159.312Z" fill="#BFBFBF"/>
<path d="M149.453 65.2236C155.965 67.1181 150.974 106.52 138.505 102.879C126.733 99.4547 141.529 62.9196 149.453 65.2236Z" fill="#999CBF"/>
<path d="M160.19 96.5606C164.69 100.444 146.384 130.112 137.735 122.66C129.568 115.654 154.696 91.8356 160.19 96.5606Z" fill="#FFF3E0"/>
<path d="M133.214 69.3223C142.961 69.3223 151.884 131.552 133.214 131.552C115.583 131.552 121.348 69.3223 133.214 69.3223Z" fill="#3B7858"/>
<path d="M150.317 129.973H116.028C115.021 129.973 114.205 130.789 114.205 131.795V135.116C114.205 136.123 115.021 136.939 116.028 136.939H150.317C151.324 136.939 152.14 136.123 152.14 135.116V131.795C152.14 130.789 151.324 129.973 150.317 129.973Z" fill="#D8D8D8"/>
<path d="M343.686 129.355V128.905L342.606 127.555L340.131 124.518L337.476 121.305C337.476 121.305 334.92 119.536 334.263 119.23C331.869 118.123 329.511 117.277 326.694 117.277C324.962 117.277 318.486 117.538 318.473 118.627C318.473 120.243 327.54 126.358 334.191 129.328C337.089 129.355 343.686 129.355 343.686 129.355Z" fill="#1F161E"/>
<path d="M342.313 129.355C333.084 122.267 314.247 83.5228 319.076 69.168C329.362 74.4104 340.648 92.4867 345.972 107.75C346.253 108.743 346.479 109.751 346.647 110.77L348.807 120.67L349.347 129.355H342.313Z" fill="#FFF3E0"/>
<path d="M348.612 129.354C345.498 126.825 344.504 119.337 344.477 116.543C344.427 111.327 345.228 107.484 349.688 101.747C354.147 96.0094 352.946 86.4875 358.886 80.0706C364.825 73.6537 368.731 71.8672 375.76 71.8672C382.789 71.8672 385.017 83.261 384.999 86.1275C384.918 97.6833 377.632 99.3168 373.195 104.838C369.969 108.843 369.717 112.119 368.74 113.991C363.493 124.066 359.246 127.873 356.096 129.354" fill="#7DBF9D"/>
<path d="M350.314 128.518C350.404 108.795 371.19 79.1719 375.631 74.7305" stroke="white" stroke-width="0.4" stroke-linecap="round" stroke-linejoin="round"/>
<path d="M351.452 119.568C349.153 117.062 347.06 109.956 347.375 108.111" stroke="white" stroke-width="0.4" stroke-linecap="round" stroke-linejoin="round"/>
<path d="M345.562 127.667C342.304 121.88 326.847 93.7285 321.064 72.9883" stroke="white" stroke-width="0.4" stroke-linecap="round" stroke-linejoin="round"/>
<path d="M356.096 129.354H365.77L357.671 159.526H336.012L328.043 129.354H356.096Z" fill="#A7532F"/>
<path d="M321.617 119.244C326.338 119.568 332.278 119.784 336.489 122.642" stroke="white" stroke-width="0.4" stroke-linecap="round" stroke-linejoin="round"/>
<g clip-path="url(#clip0_7013_221887)">
<path d="M233.335 89.1523C233.127 89.7497 231.108 92.5473 230.351 93.7845C229.594 95.0217 228.323 98.6614 229.438 99.2588C230.553 99.8562 232.421 99.4188 233.013 97.5026C233.605 95.5864 235.613 91.2677 236.315 90.321C237.017 89.3743 233.335 89.1523 233.335 89.1523Z" fill="#EED0C3"/>
<path d="M309.109 32.3002C310.087 31.3666 318.008 23 318.086 23C318.824 23.1795 319.308 23.5386 318.772 24.3057C318.564 24.6028 317.31 25.9967 315.847 27.5701C316.284 27.9404 316.598 28.4368 316.745 28.9921C316.892 29.5473 316.865 30.1345 316.668 30.674C316.472 31.2135 316.115 31.6793 315.646 32.0081C315.177 32.337 314.618 32.513 314.046 32.5124C313.819 32.51 313.593 32.4804 313.373 32.4242L312.116 33.9226L310.247 33.1587L310.497 32.8812L309.109 32.3002Z" fill="#EED0C3"/>
<path d="M296.785 129.164C296.762 129.582 296.014 133.013 296.346 133.444C296.947 134.227 302.144 134.162 302.401 133.93C302.658 133.698 302.83 133.196 302.622 133.039C302.414 132.882 300.373 132.35 300.106 132.141C299.84 131.932 299.505 130.878 299.681 130.329" fill="#1F161E"/>
<path d="M260.764 79.9277C258.489 81.5338 235.737 149.083 236.108 150.154C236.478 151.225 239.072 151.819 240.008 151.225C240.944 150.631 258.616 118.486 259.565 117.533C260.514 116.58 274.383 102.06 276.278 96.3442C278.173 90.6283 260.764 79.9277 260.764 79.9277Z" fill="#1F161E"/>
<path d="M263.933 76.0879C262.493 76.8452 258.31 80.9844 258.31 85.3881C258.31 97.8286 269.686 100.339 273.742 100.267C277.799 100.195 294.56 100.897 300.905 98.7524C300.632 101.165 298.503 122.932 296.514 129.271C296.995 130.165 299.498 130.955 299.946 130.577C303.547 127.639 314.173 96.6012 313.968 94.4206C313.506 89.4979 266.569 76.7277 263.933 76.0879Z" fill="#E3F2EB"/>
<path d="M277.748 54.4497C277.952 55.3442 273.058 56.5553 272.833 55.5923L271.449 49.5924L276.363 48.4629L277.748 54.4497Z" fill="#EED0C3"/>
<path d="M272.277 53.1765C272.154 52.6412 272.944 50.5193 273.951 50.614C272.703 50.4704 271.806 49.2071 271.448 49.5923L272.277 53.1765Z" fill="black"/>
<path d="M275.072 50.7088C271.454 50.7088 268.52 47.7624 268.52 44.1278C268.52 40.4933 271.454 37.5469 275.072 37.5469C278.691 37.5469 281.625 40.4933 281.625 44.1278C281.625 47.7624 278.691 50.7088 275.072 50.7088Z" fill="#EED0C3"/>
<path d="M280.66 43.7318C280.589 43.4244 281.008 43.0644 281.595 42.9276C282.183 42.7908 282.717 42.9291 282.788 43.2365C282.859 43.5438 282.44 43.9039 281.852 44.0406C281.265 44.1774 280.731 44.0391 280.66 43.7318Z" fill="#FA9E9F"/>
<path d="M273.968 45.2884C273.897 44.9811 274.316 44.621 274.904 44.4843C275.491 44.3475 276.025 44.4857 276.096 44.7931C276.167 45.1005 275.748 45.4605 275.161 45.5973C274.573 45.7341 274.039 45.5958 273.968 45.2884Z" fill="#FA9E9F"/>
<path d="M278.858 42.9355C279.125 43.1738 280.422 44.1336 279.456 44.8713" stroke="#1F161E" stroke-width="0.69" stroke-miterlimit="10" stroke-linecap="round"/>
<path d="M277.633 46.771C277.308 46.833 276.726 46.5588 276.381 46.2617" stroke="#1F161E" stroke-width="0.69" stroke-miterlimit="10" stroke-linecap="round"/>
<path d="M271.871 43.1438C271.855 41.6585 277.039 38.2309 279.535 39.2984C278.381 38.2315 276.883 37.6162 275.315 37.5641C273.747 37.5121 272.212 38.0269 270.99 39.0149C269.768 40.0029 268.939 41.3986 268.655 42.9482C268.37 44.4978 268.649 46.0985 269.44 47.4593C270.142 46.8293 271.871 44.5442 271.871 43.1438Z" fill="black"/>
<path d="M270.512 46.2913C269.715 46.2913 269.069 45.6424 269.069 44.842C269.069 44.0415 269.715 43.3926 270.512 43.3926C271.309 43.3926 271.955 44.0415 271.955 44.842C271.955 45.6424 271.309 46.2913 270.512 46.2913Z" fill="#EED0C3"/>
<path d="M309.636 31.8145C308.94 32.4282 295.14 46.132 292.809 46.7C284.956 48.6129 259.546 56.2548 250.881 63.2503C241.832 68.8454 232.224 88.5589 232.572 89.2575C232.92 89.9561 236.758 91.6209 237.542 91.2716C238.325 90.9223 249.051 76.0107 250.708 75.0608C252.366 74.1108 265.266 67.7159 265.266 67.7159C264.659 69.2045 262.913 75.5112 263.176 76.3861C263.44 77.2609 269.059 81.0574 279.304 81.991C280.351 81.3773 283.403 63.6028 283.403 63.6028C285.584 62.6235 300.015 54.9098 303.194 50.9045C304.426 49.3506 313.744 34.9678 313.744 34.2562C313.744 33.5446 309.636 31.8145 309.636 31.8145Z" fill="#EF5350"/>
<path d="M276.587 67.0233C277.494 66.6512 283.348 63.5859 283.348 63.5859" stroke="#1F161E" stroke-width="0.55" stroke-miterlimit="10" stroke-linecap="round"/>
<path d="M271.275 53.623C270.658 54.3771 266.283 63.4782 265.266 67.8263" stroke="#1F161E" stroke-width="0.55" stroke-miterlimit="10" stroke-linecap="round"/>
<path d="M236.599 150.088C236.245 150.414 235.387 151.86 235.345 152.399C235.134 154.978 237.913 158.996 238.361 159C239.661 159 240.334 158.308 240.334 157.498C240.334 156.688 239.359 155.699 239.359 155.157C239.359 154.616 239.479 151.377 239.57 150.897" fill="#1F161E"/>
</g>
<g clip-path="url(#clip1_7013_221887)">
<path d="M169.456 154.291C169.424 154.789 169.095 157.701 169.51 158.216C170.273 159.148 176.938 159.1 177.268 158.831C177.597 158.562 177.821 157.964 177.553 157.775C177.286 157.587 174.678 156.941 174.338 156.692C173.998 156.443 173.579 155.189 173.807 154.54" fill="#1F161E"/>
<path d="M202.488 73.832C203.624 76.2267 213.16 102.315 212.94 106.119C212.719 109.923 190.652 149.118 189.433 149.532C188.214 149.946 183.151 148.5 182.743 147.47C182.334 146.441 190.431 123.05 190.652 117.06" fill="#1F161E"/>
<path d="M202.488 73.8325C201.917 76.6543 192.427 115.567 192.427 115.567L175.029 154.752C173.582 155.408 169.326 155.479 168.581 155.27C167.836 155.062 171.413 117.538 172.827 112.221C174.241 106.903 177.962 69.9883 177.962 69.9883C177.962 69.9883 197.454 70.2876 202.488 73.8325Z" fill="#3B7858"/>
<path d="M197.785 32.1992C200.657 33.447 218.966 41.8248 220.54 41.8248C222.113 41.8248 238.849 33.0299 239.833 32.438C240.77 33.3091 242.198 34.6813 241.851 35.1286C241.504 35.5759 222.312 52.2543 220.684 52.2543C219.057 52.2543 202.573 47.5895 201.293 46.3081" fill="#303030"/>
<path d="M191.573 30.38C208.028 27.871 204.108 72.155 202.488 73.8333C200.868 75.5115 178.674 71.479 177.231 69.8915C175.788 68.3041 180.026 30.8004 191.573 30.38Z" fill="#FB8C00"/>
<path d="M183.707 147.75C183.511 148.211 182.238 150.891 182.474 151.5C182.897 152.603 189.254 154.446 189.656 154.281C190.057 154.117 190.469 153.609 190.278 153.357C190.086 153.104 187.811 151.752 187.565 151.416C187.32 151.08 187.334 149.771 187.768 149.216" fill="#1F161E"/>
<path d="M194.471 32.6859C194.471 33.7419 189.408 33.8227 189.408 32.6859V25.623H194.471V32.6859Z" fill="#F8CDBA"/>
<path d="M189.404 29.0312C189.404 28.5233 191.267 25.7587 192.232 26.0547C191.043 25.6612 189.842 25.3383 189.404 25.6108V29.0312Z" fill="black"/>
<path d="M192.756 26.3097C189.123 26.3097 186.178 23.5707 186.178 20.192C186.178 16.8132 189.123 14.0742 192.756 14.0742C196.389 14.0742 199.334 16.8132 199.334 20.192C199.334 23.5707 196.389 26.3097 192.756 26.3097Z" fill="#F8CDBA"/>
<path d="M199.406 21.5433C198.799 21.5433 198.307 21.3053 198.307 21.0119C198.307 20.7184 198.799 20.4805 199.406 20.4805C200.014 20.4805 200.506 20.7184 200.506 21.0119C200.506 21.3053 200.014 21.5433 199.406 21.5433Z" fill="#FA9E9F"/>
<path d="M192.506 21.5433C191.899 21.5433 191.407 21.3053 191.407 21.0119C191.407 20.7184 191.899 20.4805 192.506 20.4805C193.113 20.4805 193.605 20.7184 193.605 21.0119C193.605 21.3053 193.113 21.5433 192.506 21.5433Z" fill="#FA9E9F"/>
<path d="M196.726 19.9102C196.932 20.1826 197.988 21.3261 196.875 21.7902" stroke="#1F161E" stroke-width="0.69" stroke-miterlimit="10" stroke-linecap="round"/>
<path d="M194.646 23.1254C194.203 23.0139 193.818 22.7571 193.562 22.4023" stroke="#1F161E" stroke-width="0.69" stroke-miterlimit="10" stroke-linecap="round"/>
<path d="M188.741 21.8301C187.94 21.8301 187.291 21.2263 187.291 20.4815C187.291 19.7366 187.94 19.1328 188.741 19.1328C189.542 19.1328 190.191 19.7366 190.191 20.4815C190.191 21.2263 189.542 21.8301 188.741 21.8301Z" fill="#F8CDBA"/>
<path d="M177.534 71.6397C170.239 71.4548 164.999 66.7059 164.999 54.4872C164.999 49.4423 174.018 34.2538 175.809 28.5161C176.734 25.5531 175.989 16.8355 180.716 12.3994C182.994 10.2637 193.012 10.7682 195.597 11.7738C198.183 12.7795 197.879 15.8097 197.615 16.284C196.997 15.7997 195.641 14.8176 195.399 14.8479C194.129 14.9925 190.665 18.6181 189.612 20.2829C188.759 21.6282 190.075 29.9825 188.408 32.3704C186.741 34.7583 180.839 33.5038 180.839 33.5038" fill="#1F161E"/>
<path d="M191.516 48.1708C190.507 49.3446 183.057 61.8458 183.057 63.7258C183.057 65.6059 185.266 78.9311 185.708 79.5769C184.699 80.2798 182.048 82.217 182.048 82.217C182.048 82.217 173.969 68.949 173.969 61.496C173.969 58.8525 180.406 37.368 186.594 32.4375" fill="#FB8C00"/>
<path d="M191.516 48.1699C190.507 49.3437 183.057 61.8449 183.057 63.725C183.057 64.6566 183.603 68.4033 184.203 72.0221" stroke="#1F161E" stroke-linecap="round" stroke-linejoin="round"/>
<path d="M189.075 30.3597C189.383 32.8418 181.596 41.5022 178.562 44.0381C175.532 40.4865 177.351 31.6882 177.351 31.6882L183.535 29.0312L189.075 30.3597Z" fill="#1F161E"/>
<path d="M182.047 12.009C180.283 12.009 178.854 10.44 178.854 8.50451C178.854 6.56902 180.283 5 182.047 5C183.811 5 185.24 6.56902 185.24 8.50451C185.24 10.44 183.811 12.009 182.047 12.009Z" fill="#1F161E"/>
<path d="M200.541 36.0527C202.038 39.1099 202.964 43.1156 203.492 47.36" stroke="#1F161E" stroke-linecap="round" stroke-linejoin="round"/>
<path d="M242.922 34.9974C241.223 34.9974 239.845 33.9403 239.845 32.6364C239.845 31.3324 241.223 30.2754 242.922 30.2754C244.622 30.2754 246 31.3324 246 32.6364C246 33.9403 244.622 34.9974 242.922 34.9974Z" fill="#F8CDBA"/>
<path d="M241.173 25.6094L244.887 36.5332" stroke="black" stroke-width="3" stroke-miterlimit="10" stroke-linecap="round"/>
</g>
<defs>
<clipPath id="clip0_7013_221887">
<rect width="90" height="136" fill="white" transform="matrix(-1 0 0 1 319 23)"/>
</clipPath>
<clipPath id="clip1_7013_221887">
<rect width="81" height="154" fill="white" transform="matrix(-1 0 0 1 246 5)"/>
</clipPath>
</defs>
</svg>
