<svg width="314" height="115" viewBox="0 0 314 115" fill="none" xmlns="http://www.w3.org/2000/svg">
<path d="M0 8C0 3.58172 3.58172 0 8 0H306C310.418 0 314 3.58172 314 8V115H0V8Z" fill="#A0B1BF"/>
<path d="M99.951 62.4902C105.982 63.6361 104.906 99.6281 93.3297 97.4506C82.3978 95.3842 92.5932 61.1031 99.951 62.4902Z" fill="black"/>
<path d="M73.472 66.9532C78.2714 64.2393 98.3608 89.5184 89.1715 94.7146C80.4901 99.625 67.6283 70.2575 73.472 66.9532Z" fill="#FFF3E0"/>
<path d="M97.9292 114.847H85.8101C85.322 114.847 84.851 114.667 84.4874 114.342C84.1237 114.016 83.8928 113.568 83.839 113.083L82.309 99.3416C82.2782 99.0643 82.3062 98.7837 82.3912 98.518C82.4762 98.2523 82.6163 98.0075 82.8023 97.7996C82.9884 97.5918 83.2161 97.4254 83.4708 97.3116C83.7254 97.1977 84.0012 97.1388 84.2802 97.1387H99.3956C99.6738 97.1384 99.949 97.1967 100.203 97.3099C100.457 97.4231 100.685 97.5885 100.871 97.7954C101.057 98.0023 101.197 98.2461 101.282 98.5109C101.368 98.7756 101.397 99.0554 101.367 99.332L99.9035 113.073C99.8511 113.56 99.6205 114.011 99.2561 114.338C98.8917 114.666 98.4191 114.847 97.9292 114.847Z" fill="#BFBFBF"/>
<path d="M103.356 48.4799C107.949 49.8163 104.429 77.6094 95.6333 75.0415C87.3296 72.6259 97.7663 46.8548 103.356 48.4799Z" fill="#999CBF"/>
<path d="M110.932 70.5844C114.106 73.3237 101.193 94.2511 95.0926 88.9946C89.3315 84.0524 107.056 67.2515 110.932 70.5844Z" fill="#FFF3E0"/>
<path d="M91.9011 51.3711C98.7763 51.3711 105.071 95.2669 91.9011 95.2669C79.4646 95.2669 83.5307 51.3711 91.9011 51.3711Z" fill="#3B7858"/>
<path d="M103.967 94.1523H79.7797C79.0697 94.1523 78.4941 94.7279 78.4941 95.4379V97.7804C78.4941 98.4904 79.0697 99.066 79.7797 99.066H103.967C104.677 99.066 105.252 98.4904 105.252 97.7804V95.4379C105.252 94.7279 104.677 94.1523 103.967 94.1523Z" fill="#D8D8D8"/>
<path d="M240.365 93.7168V93.3994L239.603 92.4471L237.857 90.3045L235.985 88.0382C235.985 88.0382 234.182 86.7907 233.718 86.5749C232.03 85.794 230.366 85.1973 228.379 85.1973C227.157 85.1973 222.59 85.3814 222.58 86.1495C222.58 87.2891 228.976 91.6028 233.667 93.6977C235.712 93.7168 240.365 93.7168 240.365 93.7168Z" fill="#1F161E"/>
<path d="M239.398 93.7164C232.888 88.7171 219.6 61.3874 223.006 51.2617C230.262 54.9596 238.223 67.7103 241.978 78.4772C242.177 79.1776 242.336 79.8887 242.454 80.607L243.978 87.5902L244.359 93.7164H239.398Z" fill="#FFF3E0"/>
<path d="M243.842 93.7162C241.646 91.9323 240.944 86.6505 240.925 84.6793C240.89 81.0004 241.455 78.2897 244.601 74.2426C247.747 70.1955 246.899 63.4789 251.089 58.9525C255.279 54.4262 258.034 53.166 262.992 53.166C267.95 53.166 269.522 61.203 269.509 63.225C269.452 71.3763 264.313 72.5285 261.183 76.4232C258.907 79.2483 258.729 81.5591 258.04 82.8795C254.339 89.9865 251.343 92.6719 249.121 93.7162" fill="#7DBF9D"/>
<path d="M245.041 93.1265C245.104 79.2141 259.766 58.3185 262.899 55.1855" stroke="white" stroke-width="0.282153" stroke-linecap="round" stroke-linejoin="round"/>
<path d="M245.845 86.8119C244.223 85.0439 242.747 80.0319 242.97 78.7305" stroke="white" stroke-width="0.282153" stroke-linecap="round" stroke-linejoin="round"/>
<path d="M241.69 92.5265C239.392 88.4445 228.489 68.5868 224.41 53.957" stroke="white" stroke-width="0.282153" stroke-linecap="round" stroke-linejoin="round"/>
<path d="M249.12 93.7168H255.944L250.231 115H234.954L229.332 93.7168H249.12Z" fill="#A7532F"/>
<path d="M224.799 86.584C228.129 86.8125 232.318 86.9649 235.289 88.9805" stroke="white" stroke-width="0.282153" stroke-linecap="round" stroke-linejoin="round"/>
<g clip-path="url(#clip0_7013_221947)">
<path d="M162.528 65.3594C162.381 65.7808 160.958 67.7541 160.424 68.6268C159.889 69.4995 158.993 72.0669 159.779 72.4883C160.566 72.9097 161.884 72.6011 162.301 71.2495C162.718 69.8979 164.135 66.8515 164.631 66.1837C165.126 65.516 162.528 65.3594 162.528 65.3594Z" fill="#EED0C3"/>
<path d="M215.976 25.2575C216.666 24.5989 222.254 18.6973 222.309 18.6973C222.829 18.8239 223.171 19.0772 222.792 19.6183C222.646 19.8279 221.761 20.8111 220.729 21.9209C221.037 22.1821 221.259 22.5323 221.362 22.924C221.466 23.3156 221.447 23.7298 221.308 24.1104C221.17 24.4909 220.918 24.8195 220.587 25.0515C220.256 25.2834 219.862 25.4076 219.459 25.4071C219.299 25.4055 219.139 25.3846 218.984 25.345L218.097 26.4019L216.779 25.863L216.955 25.6673L215.976 25.2575Z" fill="#EED0C3"/>
<path d="M207.282 93.584C207.266 93.8787 206.738 96.2988 206.972 96.6027C207.396 97.1554 211.062 97.1093 211.244 96.9458C211.425 96.7823 211.546 96.4277 211.4 96.3172C211.253 96.2067 209.813 95.8313 209.625 95.684C209.437 95.5366 209.201 94.7929 209.325 94.406" fill="#1F161E"/>
<path d="M181.875 58.8535C180.27 59.9864 164.222 107.635 164.483 108.39C164.744 109.145 166.574 109.564 167.234 109.145C167.894 108.726 180.36 86.0522 181.029 85.3798C181.699 84.7074 191.482 74.4653 192.818 70.4334C194.155 66.4015 181.875 58.8535 181.875 58.8535Z" fill="#1F161E"/>
<path d="M184.111 56.1445C183.095 56.6787 180.144 59.5985 180.144 62.7047C180.144 71.48 188.169 73.2508 191.03 73.2001C193.891 73.1494 205.715 73.6445 210.19 72.1317C209.997 73.8333 208.496 89.1872 207.092 93.6589C207.432 94.2899 209.197 94.8471 209.514 94.58C212.054 92.5076 219.549 70.6142 219.404 69.0761C219.079 65.6037 185.97 56.5958 184.111 56.1445Z" fill="#E3F2EB"/>
<path d="M193.855 40.8812C193.999 41.5121 190.547 42.3664 190.388 41.6871L189.412 37.4549L192.878 36.6582L193.855 40.8812Z" fill="#EED0C3"/>
<path d="M189.995 39.9819C189.908 39.6043 190.465 38.1076 191.176 38.1744C190.295 38.0731 189.663 37.1819 189.41 37.4536L189.995 39.9819Z" fill="black"/>
<path d="M191.968 38.2412C189.415 38.2412 187.346 36.1629 187.346 33.5991C187.346 31.0354 189.415 28.957 191.968 28.957C194.52 28.957 196.59 31.0354 196.59 33.5991C196.59 36.1629 194.52 38.2412 191.968 38.2412Z" fill="#EED0C3"/>
<path d="M195.909 33.3221C195.858 33.1053 196.154 32.8513 196.568 32.7548C196.983 32.6583 197.359 32.7559 197.409 32.9727C197.459 33.1895 197.164 33.4434 196.75 33.5399C196.335 33.6364 195.959 33.5389 195.909 33.3221Z" fill="#FA9E9F"/>
<path d="M191.188 34.4197C191.138 34.2029 191.433 33.949 191.848 33.8525C192.262 33.756 192.639 33.8535 192.689 34.0703C192.739 34.2871 192.443 34.5411 192.029 34.6376C191.614 34.7341 191.238 34.6365 191.188 34.4197Z" fill="#FA9E9F"/>
<path d="M194.638 32.7598C194.826 32.9279 195.741 33.6048 195.06 34.1252" stroke="#1F161E" stroke-width="0.486714" stroke-miterlimit="10" stroke-linecap="round"/>
<path d="M193.773 35.4647C193.544 35.5084 193.134 35.315 192.891 35.1055" stroke="#1F161E" stroke-width="0.486714" stroke-miterlimit="10" stroke-linecap="round"/>
<path d="M189.709 32.9071C189.698 31.8594 193.354 29.4416 195.115 30.1946C194.301 29.442 193.245 29.008 192.138 28.9713C191.032 28.9346 189.95 29.2977 189.088 29.9946C188.226 30.6916 187.641 31.676 187.44 32.7691C187.24 33.8622 187.436 34.9913 187.994 35.9512C188.489 35.5068 189.709 33.8949 189.709 32.9071Z" fill="black"/>
<path d="M188.75 35.1268C188.187 35.1268 187.732 34.669 187.732 34.1044C187.732 33.5398 188.187 33.082 188.75 33.082C189.312 33.082 189.768 33.5398 189.768 34.1044C189.768 34.669 189.312 35.1268 188.75 35.1268Z" fill="#EED0C3"/>
<path d="M216.348 24.9141C215.858 25.347 206.123 35.0134 204.479 35.414C198.94 36.7634 181.016 42.1538 174.903 47.0884C168.52 51.0351 161.743 64.9406 161.989 65.4334C162.234 65.9262 164.942 67.1005 165.494 66.8541C166.047 66.6077 173.612 56.0893 174.782 55.4193C175.951 54.7492 185.051 50.2384 185.051 50.2384C184.622 51.2884 183.391 55.737 183.576 56.3541C183.762 56.9712 187.726 59.6492 194.953 60.3078C195.691 59.8749 197.844 47.3371 197.844 47.3371C199.382 46.6463 209.562 41.2052 211.804 38.3798C212.673 37.2838 219.246 27.1384 219.246 26.6364C219.246 26.1345 216.348 24.9141 216.348 24.9141Z" fill="#EF5350"/>
<path d="M193.036 49.7508C193.676 49.4883 197.805 47.3262 197.805 47.3262" stroke="#1F161E" stroke-width="0.387961" stroke-miterlimit="10" stroke-linecap="round"/>
<path d="M189.289 40.2988C188.853 40.8307 185.767 47.2505 185.05 50.3176" stroke="#1F161E" stroke-width="0.387961" stroke-miterlimit="10" stroke-linecap="round"/>
<path d="M164.829 108.344C164.579 108.574 163.973 109.594 163.944 109.974C163.795 111.793 165.755 114.628 166.071 114.63C166.988 114.63 167.463 114.142 167.463 113.571C167.463 113 166.775 112.302 166.775 111.92C166.775 111.537 166.86 109.253 166.924 108.915" fill="#1F161E"/>
</g>
<g clip-path="url(#clip1_7013_221947)">
<path d="M117.466 111.309C117.444 111.66 117.211 113.714 117.505 114.077C118.043 114.734 122.744 114.701 122.977 114.511C123.209 114.322 123.367 113.899 123.178 113.766C122.989 113.634 121.15 113.178 120.91 113.002C120.67 112.827 120.375 111.942 120.535 111.484" fill="#1F161E"/>
<path d="M140.766 54.5527C141.567 56.2419 148.294 74.6444 148.138 77.3276C147.982 80.0108 132.417 107.659 131.557 107.95C130.697 108.242 127.126 107.222 126.838 106.496C126.549 105.77 132.261 89.2702 132.417 85.045" fill="#1F161E"/>
<path d="M140.766 54.5534C140.363 56.5439 133.669 83.9923 133.669 83.9923L121.396 111.633C120.376 112.096 117.373 112.145 116.848 111.998C116.322 111.851 118.845 85.3825 119.843 81.6318C120.84 77.8811 123.465 51.8418 123.465 51.8418C123.465 51.8418 137.215 52.0529 140.766 54.5534Z" fill="#3B7858"/>
<path d="M137.45 25.1855C139.475 26.0657 152.39 31.9753 153.5 31.9753C154.61 31.9753 166.415 25.7715 167.109 25.354C167.77 25.9684 168.778 26.9364 168.533 27.2519C168.288 27.5674 154.75 39.3321 153.602 39.3321C152.454 39.3321 140.827 36.0416 139.924 35.1377" fill="#303030"/>
<path d="M133.067 23.9025C144.674 22.1327 141.909 53.3699 140.766 54.5537C139.623 55.7375 123.968 52.893 122.95 51.7733C121.932 50.6535 124.922 24.1991 133.067 23.9025Z" fill="#FB8C00"/>
<path d="M127.52 106.693C127.382 107.018 126.485 108.909 126.65 109.339C126.949 110.117 131.433 111.417 131.717 111.301C132 111.184 132.29 110.826 132.155 110.648C132.02 110.47 130.416 109.516 130.242 109.279C130.069 109.042 130.079 108.119 130.385 107.728" fill="#1F161E"/>
<path d="M135.109 25.5289C135.109 26.2738 131.538 26.3307 131.538 25.5289V20.5469H135.109V25.5289Z" fill="#F8CDBA"/>
<path d="M131.536 22.9507C131.536 22.5925 132.85 20.6424 133.531 20.8512C132.692 20.5736 131.845 20.3459 131.536 20.538V22.9507Z" fill="black"/>
<path d="M133.901 21.0311C131.338 21.0311 129.261 19.0991 129.261 16.7158C129.261 14.3324 131.338 12.4004 133.901 12.4004C136.464 12.4004 138.541 14.3324 138.541 16.7158C138.541 19.0991 136.464 21.0311 133.901 21.0311Z" fill="#F8CDBA"/>
<path d="M138.594 17.6696C138.165 17.6696 137.818 17.5018 137.818 17.2948C137.818 17.0877 138.165 16.9199 138.594 16.9199C139.022 16.9199 139.369 17.0877 139.369 17.2948C139.369 17.5018 139.022 17.6696 138.594 17.6696Z" fill="#FA9E9F"/>
<path d="M133.725 17.6696C133.296 17.6696 132.949 17.5018 132.949 17.2948C132.949 17.0877 133.296 16.9199 133.725 16.9199C134.153 16.9199 134.5 17.0877 134.5 17.2948C134.5 17.5018 134.153 17.6696 133.725 17.6696Z" fill="#FA9E9F"/>
<path d="M136.701 16.5176C136.847 16.7097 137.591 17.5163 136.806 17.8437" stroke="#1F161E" stroke-width="0.486714" stroke-miterlimit="10" stroke-linecap="round"/>
<path d="M135.236 18.7855C134.923 18.7068 134.652 18.5256 134.471 18.2754" stroke="#1F161E" stroke-width="0.486714" stroke-miterlimit="10" stroke-linecap="round"/>
<path d="M131.069 17.8714C130.504 17.8714 130.046 17.4455 130.046 16.9201C130.046 16.3947 130.504 15.9688 131.069 15.9688C131.634 15.9688 132.092 16.3947 132.092 16.9201C132.092 17.4455 131.634 17.8714 131.069 17.8714Z" fill="#F8CDBA"/>
<path d="M123.164 53.007C118.019 52.8765 114.323 49.5267 114.323 40.9078C114.323 37.3492 120.685 26.6356 121.947 22.5883C122.6 20.4982 122.075 14.349 125.409 11.2198C127.016 9.71337 134.082 10.0692 135.906 10.7786C137.73 11.4879 137.516 13.6254 137.329 13.9599C136.893 13.6183 135.937 12.9256 135.766 12.9469C134.87 13.0489 132.427 15.6064 131.684 16.7807C131.082 17.7297 132.011 23.6226 130.835 25.307C129.659 26.9914 125.496 26.1065 125.496 26.1065" fill="#1F161E"/>
<path d="M133.027 36.4515C132.316 37.2795 127.061 46.0976 127.061 47.4238C127.061 48.7499 128.619 58.1493 128.931 58.6048C128.219 59.1007 126.349 60.4671 126.349 60.4671C126.349 60.4671 120.65 51.1081 120.65 45.8509C120.65 43.9862 125.191 28.8314 129.556 25.3535" fill="#FB8C00"/>
<path d="M133.027 36.4512C132.316 37.2791 127.061 46.0973 127.061 47.4234C127.061 48.0806 127.446 50.7234 127.869 53.2761" stroke="#1F161E" stroke-width="0.705383" stroke-linecap="round" stroke-linejoin="round"/>
<path d="M131.304 23.8883C131.521 25.6391 126.029 31.748 123.889 33.5367C121.751 31.0315 123.034 24.8254 123.034 24.8254L127.396 22.9512L131.304 23.8883Z" fill="#1F161E"/>
<path d="M126.349 10.944C125.105 10.944 124.097 9.83728 124.097 8.47202C124.097 7.10676 125.105 6 126.349 6C127.593 6 128.602 7.10676 128.602 8.47202C128.602 9.83728 127.593 10.944 126.349 10.944Z" fill="#1F161E"/>
<path d="M139.393 27.9043C140.449 30.0608 141.102 32.8863 141.475 35.8802" stroke="#1F161E" stroke-width="0.705383" stroke-linecap="round" stroke-linejoin="round"/>
<path d="M169.288 27.1589C168.089 27.1589 167.117 26.4133 167.117 25.4935C167.117 24.5738 168.089 23.8281 169.288 23.8281C170.487 23.8281 171.459 24.5738 171.459 25.4935C171.459 26.4133 170.487 27.1589 169.288 27.1589Z" fill="#F8CDBA"/>
<path d="M168.054 20.5371L170.674 28.2426" stroke="black" stroke-width="2.11615" stroke-miterlimit="10" stroke-linecap="round"/>
</g>
<defs>
<clipPath id="clip0_7013_221947">
<rect width="63.4845" height="95.9321" fill="white" transform="matrix(-1 0 0 1 222.953 18.6973)"/>
</clipPath>
<clipPath id="clip1_7013_221947">
<rect width="57.136" height="108.629" fill="white" transform="matrix(-1 0 0 1 171.459 6)"/>
</clipPath>
</defs>
</svg>
