<svg width="586" height="160" viewBox="0 0 586 160" fill="none" xmlns="http://www.w3.org/2000/svg">
<g clip-path="url(#clip0_8997_281170)">
<g clip-path="url(#clip1_8997_281170)">
<path d="M108.139 138.501C140.255 138.501 166.29 112.466 166.29 80.3503C166.29 48.2343 140.255 22.1992 108.139 22.1992C76.0234 22.1992 49.9883 48.2343 49.9883 80.3503C49.9883 112.466 76.0234 138.501 108.139 138.501Z" fill="#7DBF9D"/>
<path d="M100.316 131.865C99.5295 135.896 77.2714 131.865 78.1173 127.543L83.3995 100.557L105.581 104.879L100.316 131.865Z" fill="#EED0C3"/>
<path d="M80.2422 116.675C80.7116 114.273 89.9693 105.404 93.9278 107.62C89.0685 104.762 85.5498 99.64 83.3802 100.558L80.2422 116.675Z" fill="#1F161E"/>
<path d="M107.454 115.398C123.678 115.398 136.83 102.246 136.83 86.0223C136.83 69.7985 123.678 56.6465 107.454 56.6465C91.2301 56.6465 78.0781 69.7985 78.0781 86.0223C78.0781 102.246 91.2301 115.398 107.454 115.398Z" fill="#EED0C3"/>
<path d="M139.42 95.8474C139.566 94.4465 137.501 93.0841 134.809 92.8044C132.116 92.5247 129.815 93.4337 129.67 94.8346C129.524 96.2354 131.589 97.5978 134.282 97.8775C136.974 98.1572 139.275 97.2482 139.42 95.8474Z" fill="#EF9A9A"/>
<path d="M108.772 92.6599C108.918 91.259 106.853 89.8966 104.16 89.6169C101.468 89.3372 99.1668 90.2462 99.0213 91.6471C98.8758 93.0479 100.941 94.4103 103.633 94.69C106.326 94.9697 108.627 94.0607 108.772 92.6599Z" fill="#EF9A9A"/>
<path d="M123.197 88.8418C123.975 90.2374 128.086 96.1836 122.918 97.8795" stroke="#1F161E" stroke-width="0.291812" stroke-miterlimit="10" stroke-linecap="round"/>
<path d="M112.43 103.238C110.971 103.044 108.895 101.035 107.867 99.2715" stroke="#1F161E" stroke-width="0.291812" stroke-miterlimit="10" stroke-linecap="round"/>
<path d="M83.7125 88.8371C87.2838 88.8371 90.1789 85.942 90.1789 82.3707C90.1789 78.7994 87.2838 75.9043 83.7125 75.9043C80.1412 75.9043 77.2461 78.7994 77.2461 82.3707C77.2461 85.942 80.1412 88.8371 83.7125 88.8371Z" fill="#EED0C3"/>
<path d="M88.0792 88.077C88.0792 96.6833 78.5551 102.363 75.3536 102.363C71.8054 102.363 71.3359 99.796 71.3359 98.6795C71.3359 95.072 73.4505 91.9805 77.9208 88.077C77.1426 86.7363 71.3359 79.6524 71.3359 69.6589C71.3359 59.086 77.815 50.2428 82.1626 50.2428C86.7893 50.2428 89.8639 55.0387 89.8639 57.0476C89.8639 42.2878 105.689 31.7148 115.087 31.7148C123.85 31.7148 125.355 35.5211 125.355 38.6338C125.355 45.4258 119.997 52.6957 117.988 54.4804C122.889 50.8687 130.544 47.2274 137.184 47.2274C141.354 47.2274 146.67 48.4031 146.67 54.1463C146.67 64.6727 136.812 70.767 133.517 72.4713C131.864 69.2064 130.134 67.3625 128.726 65.7343C129.335 67.722 126.899 71.3379 122.251 72.1541C119.684 72.6024 88.0792 68.3479 88.0792 88.077Z" fill="#1F161E"/>
<path d="M196.316 45.459H392.973" stroke="#7DBF9D" stroke-width="5.92083" stroke-miterlimit="10" stroke-linecap="round"/>
<path d="M196.316 68.7207H392.973" stroke="#7DBF9D" stroke-width="5.92083" stroke-miterlimit="10" stroke-linecap="round"/>
<path d="M196.316 91.9805H392.973" stroke="#7DBF9D" stroke-width="5.92083" stroke-miterlimit="10" stroke-linecap="round"/>
<path d="M196.316 115.24H392.973" stroke="#7DBF9D" stroke-width="5.92083" stroke-miterlimit="10" stroke-linecap="round"/>
</g>
</g>
<defs>
<clipPath id="clip0_8997_281170">
<rect width="586" height="160" fill="white"/>
</clipPath>
<clipPath id="clip1_8997_281170">
<rect width="406" height="182.7" fill="white" transform="translate(17 -11)"/>
</clipPath>
</defs>
</svg>
