<svg width="314" height="115" viewBox="0 0 314 115" fill="none" xmlns="http://www.w3.org/2000/svg">
<g clip-path="url(#clip0_8997_281219)">
<path d="M285.769 85.8184H95.5352V114.667H285.769V85.8184Z" fill="#254B38"/>
<path d="M130.588 91.5234H102.422V109.288H130.588V91.5234Z" fill="#CCCCCC"/>
<path d="M113.746 58.4668H256.481C259.773 58.4668 262.93 59.7734 265.258 62.0992C267.586 64.4249 268.894 67.5793 268.894 70.8684V71.1165C268.894 74.4056 267.586 77.56 265.258 79.8858C262.93 82.2115 259.773 83.5181 256.481 83.5181H113.746V58.4668Z" fill="#3B7858"/>
<path d="M276.547 28.5098H123.062V40.3285H276.547V28.5098Z" fill="#94CAAE"/>
<path d="M279.34 40.3613H111.168V56.1536H279.34V40.3613Z" fill="#7DBF9D"/>
<path d="M265.65 37.6624C267.443 37.6624 268.897 36.2099 268.897 34.4181C268.897 32.6263 267.443 31.1738 265.65 31.1738C263.856 31.1738 262.402 32.6263 262.402 34.4181C262.402 36.2099 263.856 37.6624 265.65 37.6624Z" fill="#E2E2E2"/>
<path d="M134.027 48.2578H255.53" stroke="black" stroke-width="1.37851" stroke-miterlimit="10" stroke-linecap="round"/>
<path d="M132.363 31.2227V37.6145" stroke="black" stroke-width="1.37851" stroke-miterlimit="10" stroke-linecap="round"/>
<path d="M137.184 31.2227V37.6145" stroke="black" stroke-width="1.37851" stroke-miterlimit="10" stroke-linecap="round"/>
<path d="M142.008 31.2227V37.6145" stroke="black" stroke-width="1.37851" stroke-miterlimit="10" stroke-linecap="round"/>
<path d="M117.572 42.7324H113.746V53.7823H117.572V42.7324Z" fill="#CCCCCC"/>
<path d="M123.06 42.7324H119.234V53.7823H123.06V42.7324Z" fill="#CCCCCC"/>
<path d="M105.715 58.4668H255.277C262.767 58.4668 268.897 64.0996 268.897 70.985C268.897 77.8704 262.767 83.5032 255.277 83.5032H105.715" stroke="#CCCCCC" stroke-width="13.6541" stroke-miterlimit="10"/>
<path d="M220.131 94.5161L216.228 87.7671L212.328 94.5161V67.6641H220.131V94.5161Z" fill="#A7532F"/>
<path d="M139.391 100.404H269.153" stroke="#CCCCCC" stroke-width="13.6541" stroke-miterlimit="10"/>
</g>
<path d="M300.326 57.2227C300.746 59.2276 303.799 84.0977 302.801 90.0379C301.802 95.978 285.525 108.425 284.812 108.642C283.982 108.033 282.759 106.034 282.759 106.034C282.759 106.034 294.694 92.199 294.922 91.6441C295.15 91.0893 292.307 59.0499 292.307 59.0499L300.326 57.2227Z" fill="#1F161E"/>
<path d="M280.889 61.7497L293.067 111.418H297.168L293.012 59.6035L280.889 61.7497Z" fill="#EF5350"/>
<path d="M289.536 33.3125C287.855 33.3125 279.086 33.5965 277.501 36.6829C275.917 39.7692 277.41 54.0348 278.395 54.588C278.926 54.8853 279.071 54.5963 279.225 55.2009C279.38 55.8056 280.887 61.7507 280.887 61.7507C281.843 61.7773 295.793 59.676 300.322 57.2192C300.295 56.5365 300.076 54.7607 300.076 54.6245C300.677 54.8704 301.405 54.9219 301.604 54.6245C303.371 51.9485 300.737 37.9968 298.846 35.1896C298.042 33.9852 292.234 33.3208 289.536 33.3125Z" fill="#FFF3E0"/>
<path d="M283.762 54.9717C283.35 54.9717 279.803 57.4633 280.107 58.6876C279.858 57.7042 279.074 54.666 279.074 54.666C279.411 54.7308 283.459 54.9766 283.762 54.9717Z" fill="#1F161E"/>
<path d="M287.366 34.9387C287.366 35.4802 291.637 35.4802 291.637 34.9387V29.457H287.366V34.9387Z" fill="#EED0C3"/>
<path d="M289.816 30.7544C289.484 30.7544 287.366 31.6912 287.366 32.2128V29.457C287.895 29.457 289.816 30.7544 289.816 30.7544Z" fill="#1F161E"/>
<path d="M290.4 31.1565C288.106 31.1565 286.246 29.2965 286.246 27.0021C286.246 24.7077 288.106 22.8477 290.4 22.8477C292.695 22.8477 294.555 24.7077 294.555 27.0021C294.555 29.2965 292.695 31.1565 290.4 31.1565Z" fill="#EED0C3"/>
<path d="M291.808 20.9277C293.941 20.9277 295.27 22.2666 295.27 23.9825C295.27 25.4094 294.924 26.2167 294.517 26.421C294.26 25.0357 293.7 24.3945 293.236 24.1187C292.876 24.3945 292.26 25.0622 291.436 25.2682C290.612 25.4742 288.467 25.4343 286.735 26.6934C286.168 26.1785 285.604 25.5091 285.604 24.72C285.604 23.931 285.952 22.941 288.004 22.3696C289.359 21.9925 289.549 20.9277 291.808 20.9277Z" fill="#1F161E"/>
<path d="M294.284 28.236C293.882 28.236 293.557 28.0664 293.557 27.8573C293.557 27.6481 293.882 27.4785 294.284 27.4785C294.686 27.4785 295.012 27.6481 295.012 27.8573C295.012 28.0664 294.686 28.236 294.284 28.236Z" fill="#EF9A9A"/>
<path d="M289.706 28.236C289.304 28.236 288.978 28.0664 288.978 27.8573C288.978 27.6481 289.304 27.4785 289.706 27.4785C290.108 27.4785 290.434 27.6481 290.434 27.8573C290.434 28.0664 290.108 28.236 289.706 28.236Z" fill="#EF9A9A"/>
<path d="M292.505 27.0703C292.641 27.2647 293.336 28.0803 292.603 28.4092" stroke="#1F161E" stroke-width="0.152999" stroke-miterlimit="10" stroke-linecap="round"/>
<path d="M291.137 29.3643C290.917 29.3643 290.58 29.0918 290.403 28.8477" stroke="#1F161E" stroke-width="0.152999" stroke-miterlimit="10" stroke-linecap="round"/>
<path d="M286.559 28.4398C286.029 28.4398 285.599 28.0099 285.599 27.4797C285.599 26.9494 286.029 26.5195 286.559 26.5195C287.09 26.5195 287.52 26.9494 287.52 27.4797C287.52 28.0099 287.09 28.4398 286.559 28.4398Z" fill="#EED0C3"/>
<path d="M283.666 41.4863C283.741 42.4033 284.033 46.9348 283.923 47.5311C285.317 48.0161 298.078 54.0676 300.285 54.732" stroke="#1F161E" stroke-width="0.152999" stroke-miterlimit="10" stroke-linecap="round"/>
<path d="M298.485 40.0547C298.779 41.0813 299.769 45.7407 299.073 47.9051" stroke="#1F161E" stroke-width="0.152999" stroke-miterlimit="10" stroke-linecap="round"/>
<path d="M295.23 52.6113C294.566 53.0781 288.197 55.897 279.392 54.8339" stroke="#1F161E" stroke-width="0.152999" stroke-miterlimit="10" stroke-linecap="round"/>
<path d="M295.836 47.9057C295.41 47.9738 296.802 46.8625 297.591 47.2761C298.38 47.6897 299.443 49.5618 299.225 49.9953C299.196 50.074 299.149 50.1451 299.089 50.2034C299.028 50.2617 298.956 50.3057 298.876 50.3322C298.796 50.3586 298.712 50.3669 298.628 50.3563C298.545 50.3457 298.465 50.3166 298.395 50.2711C298.18 50.1332 296.581 47.7861 295.836 47.9057Z" fill="#EED0C3"/>
<path d="M282.893 106.238C282.666 106.404 280.647 107.77 280.631 108.63C280.614 109.491 282.511 112.343 282.893 112.424C283.275 112.506 283.548 112.183 283.548 111.607C283.548 111.031 282.827 110.021 282.923 109.572C283.019 109.124 283.951 108.303 284.43 108.288" fill="#1F161E"/>
<path d="M293.455 111.418C293.455 111.813 293.225 114.295 293.684 114.526C294.142 114.757 299.202 114.893 299.431 114.664C299.66 114.435 299.8 113.951 299.597 113.813C299.395 113.675 297.438 113.283 297.172 113.101C296.906 112.918 296.539 111.938 296.674 111.418" fill="#1F161E"/>
<path d="M91.3773 110.9C91.2808 111.159 90.6429 112.66 90.7555 113.004C90.9609 113.626 94.0968 114.683 94.2969 114.592C94.497 114.502 94.7007 114.214 94.606 114.074C94.5113 113.935 93.3928 113.169 93.2731 112.98C93.1533 112.791 93.1641 112.054 93.3803 111.744" fill="#1F161E"/>
<path d="M105.27 58.6387C106.063 59.3949 117.557 70.1705 117.557 75.8325C117.557 77.5453 114.288 102.649 113.92 103.159H111.079C111.079 103.159 109.828 82.245 110.823 78.1578C110.085 77.8269 103.318 75.3334 100.317 72.6603C97.3149 69.9872 99.4626 59.7011 105.27 58.6387Z" fill="#1F161E"/>
<path d="M105.269 58.639C106.162 58.8053 93.8101 111.818 93.8101 111.818H90.7422C90.7422 111.818 91.9072 61.6429 92.5754 59.2005C95.7577 58.1872 102.866 58.1872 105.269 58.639Z" fill="#DC9E83"/>
<path d="M88.8089 38.3074C92.0823 35.8649 103.282 35.8649 114.885 36.3545C116.258 36.4131 120.151 27.6943 121.811 26.4541C123.639 25.0892 126.551 26.3218 126.551 27.0477C126.551 28.6319 124.475 28.6698 124.036 29.1821C123.596 29.6944 119.669 41.8917 116.352 43.6876C115.28 44.2699 107.351 44.0771 106.797 44.8352C106.243 45.5932 105.735 58.1686 105.272 58.6356C104.81 59.1025 93.8477 59.4901 92.5862 59.2027C92.5165 58.2254 91.0406 50.119 90.6707 49.4838C90.4671 49.4649 87.517 54.6977 87.5188 55.3575C87.5188 56.2271 92.5665 63.513 94.6821 64.7607C95.2307 65.0821 95.1502 65.9971 95.0502 66.2202C94.9501 66.4432 94.1943 67.5435 93.7226 67.5435C93.2509 67.5435 82.2496 60.5544 82.0012 55.2876C81.9351 53.864 84.5903 41.4645 88.8089 38.3074Z" fill="#5E4521"/>
<path d="M111.459 102.84C111.459 103.118 111.37 104.762 111.593 105.04C111.995 105.541 115.279 105.341 115.435 105.18C115.59 105.02 115.687 104.677 115.549 104.579C115.411 104.481 114.109 104.188 113.941 104.057C113.773 103.927 113.526 103.233 113.621 102.863" fill="#1F161E"/>
<path d="M98.5712 37.5284C98.632 38.2732 94.7653 38.6778 94.701 37.8781L94.3008 32.8986L98.171 32.5508L98.5712 37.5284Z" fill="#F8CDBA"/>
<path d="M94.5391 35.8724C94.5034 35.43 95.3378 33.8175 96.0954 34.0084C95.1591 33.7494 94.6141 32.6302 94.3086 32.8987L94.5391 35.8724Z" fill="black"/>
<path d="M97.6592 34.2692C100.446 34.2692 102.705 31.879 102.705 28.9305C102.705 25.982 100.446 23.5918 97.6592 23.5918C94.8724 23.5918 92.6133 25.982 92.6133 28.9305C92.6133 31.879 94.8724 34.2692 97.6592 34.2692Z" fill="#F8CDBA"/>
<path d="M102.839 29.6462C103.302 29.6045 103.661 29.364 103.64 29.1091C103.62 28.8543 103.227 28.6815 102.764 28.7232C102.301 28.765 101.942 29.0054 101.963 29.2603C101.983 29.5152 102.376 29.688 102.839 29.6462Z" fill="#FA9E9F"/>
<path d="M97.5652 30.1228C98.0283 30.081 98.3871 29.8406 98.3666 29.5857C98.3461 29.3308 97.954 29.1581 97.4909 29.1998C97.0278 29.2415 96.669 29.482 96.6895 29.7369C96.71 29.9918 97.1021 30.1645 97.5652 30.1228Z" fill="#FA9E9F"/>
<path d="M100.676 28.4121C100.854 28.6352 101.737 29.5558 100.919 30.036" stroke="#1F161E" stroke-width="0.321098" stroke-miterlimit="10" stroke-linecap="round"/>
<path d="M99.3231 31.3508C99.0711 31.364 98.6566 31.0767 98.4297 30.7969" stroke="#1F161E" stroke-width="0.321098" stroke-miterlimit="10" stroke-linecap="round"/>
<path d="M92.6064 26.2629C92.4581 24.4159 94.7809 22.8223 96.4748 22.671C99.1693 22.4272 100.679 22.4914 102.157 21.9753C104.272 21.2381 104.233 24.2439 104.262 24.5861C104.376 26.0247 103.953 26.9624 102.475 27.3254C102.333 26.8282 102.118 26.358 101.837 25.9321C101.407 25.7993 100.946 25.8321 100.536 26.0247C100.166 26.2005 97.1037 28.0778 94.7434 28.2933C94.4664 28.7867 94.0054 31.7113 94.3074 32.9004C93.6177 33.0044 92.1525 30.7396 91.9846 29.4975C91.9347 29.0719 91.9798 28.6398 92.1163 28.236C92.2529 27.8322 92.477 27.4678 92.7707 27.1723C92.7243 26.9114 92.6189 26.4085 92.6064 26.2629Z" fill="black"/>
<path d="M94.6153 30.6349C95.2291 30.6349 95.7267 30.1085 95.7267 29.4591C95.7267 28.8097 95.2291 28.2832 94.6153 28.2832C94.0015 28.2832 93.5039 28.8097 93.5039 29.4591C93.5039 30.1085 94.0015 30.6349 94.6153 30.6349Z" fill="#F8CDBA"/>
<path d="M94.6754 64.7574C92.5598 63.5097 87.5139 56.2238 87.5121 55.3542C87.5121 54.9307 88.7218 52.63 89.6456 51.0363L83.7348 47.6543C82.5949 51.2462 81.9713 54.5885 82.0052 55.2861C82.2518 60.553 93.2442 67.5307 93.7159 67.5307C94.1876 67.5307 94.9434 66.4399 95.0435 66.2074C95.1435 65.9748 95.2257 65.0788 94.6754 64.7574Z" fill="#F8CDBA"/>
<path d="M121.809 26.4619C120.149 27.7021 116.255 36.4172 114.876 36.3623C112.541 36.264 113.886 36.3132 111.645 36.2716L111.633 44.1303C114.233 44.1303 115.601 44.0943 116.341 43.6955C119.659 41.8995 123.588 29.706 124.024 29.1899C124.46 28.6738 126.54 28.6398 126.54 27.0555C126.549 26.3296 123.631 25.097 121.809 26.4619Z" fill="#F8CDBA"/>
<defs>
<clipPath id="clip0_8997_281219">
<rect width="190.234" height="86.1567" fill="white" transform="translate(95.5352 28.5098)"/>
</clipPath>
</defs>
</svg>
