<svg width="314" height="115" viewBox="0 0 314 115" fill="none" xmlns="http://www.w3.org/2000/svg">
<path d="M0 8C0 3.58172 3.58172 0 8 0H306C310.418 0 314 3.58172 314 8V115H0V8Z" fill="#FFF3E0"/>
<path d="M91.4063 61.8498C90.9481 63.221 86.5091 81.2639 85.6503 82.1384C84.7916 83.0129 60.7461 95.4624 60.7461 95.4624L62.3727 99.5901C62.3727 99.5901 87.5707 91.5446 88.8755 90.831C90.1803 90.1174 100.113 81.4038 101.629 77.7414C103.146 74.0789 93.1554 61.7938 91.4063 61.8498Z" fill="#1F161E"/>
<path d="M115.543 111.008C115.543 111.424 115.3 114.037 115.785 114.28C116.269 114.523 121.593 114.667 121.836 114.425C122.079 114.184 122.223 113.675 122.011 113.53C121.8 113.385 119.738 112.972 119.458 112.78C119.178 112.587 118.791 111.555 118.933 111.008" fill="#1F161E"/>
<path d="M60.9302 95.8613C60.5471 96.0205 58.0391 96.7988 58.0006 97.3392C57.9621 97.8797 59.8703 102.852 60.1868 102.983C60.5034 103.114 61.0281 103.053 61.0788 102.796C61.1296 102.539 60.722 100.482 60.799 100.155C60.876 99.8281 61.6735 99.0725 62.2332 98.9938" fill="#1F161E"/>
<path d="M114.62 51.5547C114.095 51.7051 109.955 52.737 109.527 52.737C109.098 52.737 108.495 56.9014 108.925 56.8612C109.355 56.821 114.791 55.1856 116.145 55.058C117.499 54.9303 114.62 51.5547 114.62 51.5547Z" fill="#EED0C3"/>
<path d="M99.4517 33.5178C102.544 33.2257 108.256 34.7124 110.052 35.7425C113.596 37.7661 109.51 63.9279 107.672 65.8746C106.028 66.5235 92.1059 63.251 91.4062 61.8518C91.777 59.0447 97.2987 49.3516 97.8234 48.8269C97.4736 48.4771 95.8995 46.5532 95.8995 46.5532C95.8995 46.5532 97.3162 44.652 97.4736 44.5453C97.0223 44.2445 92.5134 40.6818 92.2633 40.4824C93.1658 39.1461 98.4128 33.6105 99.4517 33.5178Z" fill="#999CBF"/>
<path d="M103.894 56.2317C103.651 55.6371 96.1775 46.8955 95.9064 46.5457C96.3157 45.9773 96.9908 45.108 97.5435 44.4469C95.4114 42.8903 93.122 41.1238 92.2964 40.4102C92.2826 40.4281 92.2698 40.4468 92.258 40.4661C91.8854 40.9104 88.5605 45.8881 88.5605 46.5877C88.5605 47.2873 98.7328 57.1902 100.001 57.6764C101.269 58.1627 104.136 56.8247 103.894 56.2317Z" fill="#EED0C3"/>
<path d="M105.142 59.1125C105.962 57.8594 105.513 56.1159 104.14 55.2182C102.768 54.3206 100.991 54.6088 100.171 55.8619C99.3517 57.115 99.8003 58.8585 101.173 59.7562C102.546 60.6538 104.323 60.3656 105.142 59.1125Z" fill="#EED0C3"/>
<path d="M115.82 55.5441C117.153 55.5441 118.234 54.4635 118.234 53.1304C118.234 51.7974 117.153 50.7168 115.82 50.7168C114.487 50.7168 113.406 51.7974 113.406 53.1304C113.406 54.4635 114.487 55.5441 115.82 55.5441Z" fill="#EED0C3"/>
<path d="M107.672 65.8743C107.672 65.8743 114.747 79.7545 115.83 82.6404C116.912 85.5262 119.553 111.19 119.553 111.19C119.553 111.19 116.027 111.606 115.081 111.19C114.135 110.773 110.203 92.1043 108.036 88.2862C104.739 82.4655 86.8204 71.6181 91.4063 61.8516" fill="#FFCC80"/>
<path d="M102.378 34.9411C102.296 35.3958 105.995 36.0587 106.077 35.604L106.903 30.9988L103.204 30.3359L102.378 34.9411Z" fill="#EED0C3"/>
<path d="M105.622 32.2266C105.262 32.1619 102.769 32.7688 102.668 33.3372L103.205 30.3359C103.78 30.4391 105.622 32.2266 105.622 32.2266Z" fill="#1F161E"/>
<path d="M107.041 32.729C109.952 32.729 112.311 30.3697 112.311 27.4592C112.311 24.5488 109.952 22.1895 107.041 22.1895C104.131 22.1895 101.771 24.5488 101.771 27.4592C101.771 30.3697 104.131 32.729 107.041 32.729Z" fill="#EED0C3"/>
<path d="M112.604 29.5597C112.651 29.2983 112.282 29.0133 111.78 28.9232C111.278 28.8332 110.833 28.9721 110.786 29.2336C110.739 29.4951 111.108 29.78 111.61 29.8701C112.112 29.9601 112.557 29.8212 112.604 29.5597Z" fill="#EF9A9A"/>
<path d="M106.889 28.5343C106.936 28.2729 106.567 27.9879 106.065 27.8979C105.563 27.8078 105.118 27.9468 105.071 28.2082C105.024 28.4697 105.393 28.7546 105.895 28.8447C106.397 28.9348 106.842 28.7958 106.889 28.5343Z" fill="#EF9A9A"/>
<path d="M109.653 28.0176C109.779 28.2887 110.47 29.464 109.479 29.7106" stroke="#1F161E" stroke-width="0.356189" stroke-miterlimit="10" stroke-linecap="round"/>
<path d="M107.43 30.5715C107.159 30.5138 106.797 30.108 106.629 29.7617" stroke="#1F161E" stroke-width="0.356189" stroke-miterlimit="10" stroke-linecap="round"/>
<path d="M97.2559 44.8029C97.7386 44.2642 99.5401 42.0482 100.303 41.4238" stroke="#1F161E" stroke-width="0.296824" stroke-miterlimit="10" stroke-linecap="round"/>
<path d="M107.76 20.3992C106.361 20.3992 102.209 19.7136 101.196 19C100.794 19.2816 99.3108 20.9939 98.2037 23.1976L100.383 24.8994L97.7944 24.0791C97.2841 25.2162 96.9876 26.4376 96.9199 27.6821C97.7664 29.3069 99.8373 29.7582 100.215 29.7582C102.664 29.7582 103.118 25.8981 104.273 25.2825C106.237 24.2331 108.922 25.9821 111.958 25.4679C112.448 24.0022 111.113 20.3992 107.76 20.3992Z" fill="#1F161E"/>
<path d="M102.139 28.4112C102.811 28.4112 103.357 27.8662 103.357 27.1939C103.357 26.5216 102.811 25.9766 102.139 25.9766C101.467 25.9766 100.922 26.5216 100.922 27.1939C100.922 27.8662 101.467 28.4112 102.139 28.4112Z" fill="#EED0C3"/>
<path d="M98.002 56.1282C97.5543 55.7172 93.4546 56.3433 92.5801 58.5103C93.7187 56.0162 94.7856 53.9629 95.1022 53.4609C95.4397 53.7828 98.002 56.1282 98.002 56.1282Z" fill="#1F161E"/>
<path d="M110.629 52.875C110.533 53.5746 111.164 56.2611 112.473 55.9148L110.078 56.5707L110.629 52.875Z" fill="#1F161E"/>
<path d="M152.506 32.3691H240.141C241.358 32.3691 242.527 32.853 243.388 33.7141C244.249 34.5753 244.733 35.7434 244.733 36.9613V93.0681H147.914V36.9613C147.914 35.7434 148.398 34.5753 149.259 33.7141C150.12 32.853 151.288 32.3691 152.506 32.3691Z" fill="#E2E2E2"/>
<path d="M132.749 88.0877C133.939 88.0877 134.904 87.1228 134.904 85.9325C134.904 84.7423 133.939 83.7773 132.749 83.7773C131.559 83.7773 130.594 84.7423 130.594 85.9325C130.594 87.1228 131.559 88.0877 132.749 88.0877Z" fill="#999CBF"/>
<path d="M138.821 88.0877C140.011 88.0877 140.976 87.1228 140.976 85.9325C140.976 84.7423 140.011 83.7773 138.821 83.7773C137.631 83.7773 136.666 84.7423 136.666 85.9325C136.666 87.1228 137.631 88.0877 138.821 88.0877Z" fill="#999CBF"/>
<path d="M144.893 88.0877C146.084 88.0877 147.049 87.1228 147.049 85.9325C147.049 84.7423 146.084 83.7773 144.893 83.7773C143.703 83.7773 142.738 84.7423 142.738 85.9325C142.738 87.1228 143.703 88.0877 144.893 88.0877Z" fill="#999CBF"/>
<path d="M150.966 88.0877C152.156 88.0877 153.121 87.1228 153.121 85.9325C153.121 84.7423 152.156 83.7773 150.966 83.7773C149.775 83.7773 148.811 84.7423 148.811 85.9325C148.811 87.1228 149.775 88.0877 150.966 88.0877Z" fill="#999CBF"/>
<path d="M157.038 88.0877C158.228 88.0877 159.193 87.1228 159.193 85.9325C159.193 84.7423 158.228 83.7773 157.038 83.7773C155.848 83.7773 154.883 84.7423 154.883 85.9325C154.883 87.1228 155.848 88.0877 157.038 88.0877Z" fill="#999CBF"/>
<path d="M163.108 88.0877C164.299 88.0877 165.264 87.1228 165.264 85.9325C165.264 84.7423 164.299 83.7773 163.108 83.7773C161.918 83.7773 160.953 84.7423 160.953 85.9325C160.953 87.1228 161.918 88.0877 163.108 88.0877Z" fill="#999CBF"/>
<path d="M252.377 92.9941H140.271V99.2889H252.377V92.9941Z" stroke="black" stroke-width="0.353549" stroke-miterlimit="10"/>
<path d="M182.459 24.502H132.701V56.7249H182.459V24.502Z" fill="#99ABC5"/>
<path opacity="0.68" d="M255 77.5566H195.051V84.7506H255V77.5566Z" fill="#FFCC80"/>
<path d="M199.46 74.2604H195.051V67.0664H208.853" stroke="black" stroke-width="0.353549" stroke-miterlimit="10"/>
<path d="M255 67.0664V74.2604H238.836" stroke="black" stroke-width="0.353549" stroke-miterlimit="10"/>
<path d="M208.852 67.0664H237.752" stroke="black" stroke-width="0.353549" stroke-miterlimit="10"/>
<path d="M176.766 21.6543H127.008V53.8772H176.766V21.6543Z" stroke="black" stroke-width="0.353549" stroke-miterlimit="10"/>
<path d="M206.892 92.5449H185.76V96.7414H206.892V92.5449Z" fill="#E2E2E2"/>
</svg>
