<svg width="314" height="115" viewBox="0 0 314 115" fill="none" xmlns="http://www.w3.org/2000/svg">
<g clip-path="url(#clip0_7013_221921)">
<path d="M0 8C0 3.58172 3.58172 0 8 0H306C310.418 0 314 3.58172 314 8V115H0V8Z" fill="#F5F7F9"/>
<path d="M218.718 98.7559H195.723V115.075H218.718V98.7559Z" fill="#63321C"/>
<path d="M243.73 89.584C243.878 90.4639 246.388 110.58 246.794 110.912C247.201 111.245 251.517 111.982 251.887 111.428C251.961 110.548 252.063 96.521 252.292 95.2662" fill="#1F161E"/>
<path d="M195.177 85.3872C193.436 84.5285 197.065 101.517 206.615 101.517C216.165 101.517 232.241 86.9692 234.843 86.9692C240.589 86.9692 254.19 98.2511 255.257 98.2511C256.073 97.4345 257.706 96.0056 257.706 95.4442C257.706 94.8829 244.684 73.4473 234.94 73.4473C231.162 73.4437 199.106 87.3282 195.177 85.3872Z" fill="#546B7D"/>
<path d="M200.551 85.6758C202.461 85.2429 204.836 84.122 206.939 82.9746C201.218 84.8435 196.53 86.0559 195.177 85.3872C194.255 84.9332 194.839 89.4804 197.007 93.8605C196.615 93.0123 196.055 86.6947 200.551 85.6758Z" fill="#1F161E"/>
<path d="M204.762 55.8726C206.266 55.9131 214.099 55.6825 216.246 57.7274C217.839 59.2425 222.79 72.2894 223.554 76.87C220.228 78.5594 196.239 90.0471 188.815 84.9948C188.651 81.0688 189.413 65.4721 194.268 57.291C196.044 56.1084 203.315 55.8339 204.762 55.8726Z" fill="#999CBF"/>
<path d="M207.814 52.1367H203.238V57.0552C203.238 58.2871 207.814 58.2765 207.814 57.0552V52.1367Z" fill="#F8CDBA"/>
<path d="M203.238 55.1033C203.238 54.5578 204.75 53.1869 205.684 53.2344C205.707 52.6396 203.55 51.7598 203.55 51.7598L203.238 52.5992V55.1033Z" fill="#1F161E"/>
<path d="M212.605 52.1386C212.708 51.6632 212.76 51.1783 212.76 50.692C212.76 47.0634 209.925 44.1211 206.425 44.1211C202.925 44.1211 200.09 47.0634 200.09 50.692C200.09 51.1783 200.142 51.6632 200.245 52.1386H212.605Z" fill="#1F161E"/>
<path d="M210.935 47.712C210.159 47.5941 209.385 46.9834 208.845 46.584C205.765 48.84 203.793 48.8717 203.58 48.8717C203.367 48.8717 202.499 50.1176 202.1 50.2584L202.064 50.2372C202.184 50.8922 202.439 51.5151 202.812 52.0665C203.185 52.6179 203.669 53.0857 204.232 53.4402C204.796 53.7948 205.427 54.0283 206.085 54.126C206.744 54.2238 207.416 54.1835 208.058 54.0079C208.7 53.8323 209.299 53.5251 209.816 53.1058C210.333 52.6865 210.757 52.1643 211.062 51.5723C211.367 50.9803 211.545 50.3315 211.586 49.6669C211.626 49.0024 211.528 48.3367 211.298 47.712C211.178 47.7269 211.056 47.7269 210.935 47.712Z" fill="#F8CDBA"/>
<path d="M202.994 44.9389C204.026 44.9389 204.863 44.1022 204.863 43.07C204.863 42.0379 204.026 41.2012 202.994 41.2012C201.962 41.2012 201.125 42.0379 201.125 43.07C201.125 44.1022 201.962 44.9389 202.994 44.9389Z" fill="#1F161E"/>
<path d="M203.826 48.7676C203.624 48.7771 203.433 48.8641 203.294 49.0104C203.154 49.1567 203.076 49.3511 203.076 49.5533C203.076 49.7555 203.154 49.9499 203.294 50.0962C203.433 50.2425 203.624 50.3295 203.826 50.339" stroke="#1F161E" stroke-width="0.511126" stroke-miterlimit="10" stroke-linecap="round"/>
<path d="M209.816 48.8633C210.047 49.1712 210.64 49.7097 209.816 50.2816" stroke="#1F161E" stroke-width="0.511126" stroke-miterlimit="10" stroke-linecap="round"/>
<path d="M207.318 50.7031C207.318 50.9337 207.417 51.4845 207.911 51.627" stroke="#1F161E" stroke-width="0.511126" stroke-miterlimit="10" stroke-linecap="round"/>
<path d="M205.786 50.7532C206.186 50.7532 206.511 50.5846 206.511 50.3766C206.511 50.1686 206.186 50 205.786 50C205.385 50 205.061 50.1686 205.061 50.3766C205.061 50.5846 205.385 50.7532 205.786 50.7532Z" fill="#FA9E9F"/>
<path d="M211.176 50.7532C211.577 50.7532 211.901 50.5846 211.901 50.3766C211.901 50.1686 211.577 50 211.176 50C210.776 50 210.451 50.1686 210.451 50.3766C210.451 50.5846 210.776 50.7532 211.176 50.7532Z" fill="#FA9E9F"/>
<path d="M216.08 69.4692L220.97 68.2109C221.44 69.0046 223.728 76.8601 223.728 76.8601L216.179 80.0418C216.277 78.553 216.575 71.7498 216.08 69.4692Z" fill="#F8CDBA"/>
<path d="M198.934 68.2402C198.934 68.8315 198.436 71.0822 198.143 72.1399" stroke="#1F161E" stroke-width="0.511126" stroke-miterlimit="10" stroke-linecap="round"/>
<path d="M216.081 69.4691C215.963 68.5381 215.273 63.2923 214.1 60.5312" stroke="#1F161E" stroke-width="0.511126" stroke-miterlimit="10" stroke-linecap="round"/>
<path d="M216.08 69.4692L220.97 68.2109C221.44 69.0046 223.728 76.8601 223.728 76.8601L216.179 80.0418C216.277 78.553 216.575 71.7498 216.08 69.4692Z" fill="#F8CDBA"/>
<path d="M255.404 97.8352C255.513 98.0024 256.97 99.7973 257.486 99.8184C258.002 99.8395 261.132 97.7173 260.995 97.2615C260.858 96.8057 258.894 97.1014 258.556 96.943C258.218 96.7846 257.467 96.0314 257.347 95.6953" fill="#1F161E"/>
<path d="M247.706 111.098C247.669 111.293 247.47 113.597 247.827 113.97C248.184 114.343 251.91 114.991 252.126 114.567C252.343 114.142 250.718 112.993 250.593 112.645C250.468 112.296 250.442 111.237 250.593 110.906" fill="#1F161E"/>
<path d="M241.865 77.3532H225.293L229.238 66.8984H245.81L241.865 77.3532Z" fill="#969696"/>
<path d="M228.056 76.959H211.484V77.3532H228.056V76.959Z" fill="#969696"/>
<path d="M198.142 72.1398C197.823 73.3347 196.269 78.4309 196.91 79.3073C197.551 80.1836 213.318 78.1916 217.54 76.8788C218.615 76.5269 219.412 75.603 219.889 75.4851C220.5 75.382 221.127 75.5078 221.651 75.8383C222.175 76.1688 222.559 76.6808 222.729 77.2765C221.043 78.093 196.702 90.5205 188.815 84.9895C187.325 83.9284 189.941 70.9062 190.059 70.248C191.391 70.4135 198.142 72.1398 198.142 72.1398Z" fill="#F8CDBA"/>
<path d="M216.307 77.2056C216.782 77.093 217.197 76.9839 217.538 76.8783C218.614 76.5264 219.411 75.6025 219.888 75.4846C220.499 75.3811 221.127 75.5066 221.651 75.8371C222.176 76.1677 222.56 76.68 222.73 77.276" stroke="#1F161E" stroke-width="0.511126" stroke-miterlimit="10" stroke-linecap="round"/>
<path d="M181.689 9H118.364C114.819 9 111.945 11.8736 111.945 15.4183V108.385C111.945 111.929 114.819 114.803 118.364 114.803H181.689C185.234 114.803 188.107 111.929 188.107 108.385V15.4183C188.107 11.8736 185.234 9 181.689 9Z" stroke="black" stroke-width="0.251601" stroke-miterlimit="10"/>
<path d="M188.298 20.1152H111.756V99.5707H188.298V20.1152Z" fill="#FFEBEE"/>
<path d="M150.025 112.332C152.981 112.332 155.377 109.936 155.377 106.98C155.377 104.025 152.981 101.629 150.025 101.629C147.07 101.629 144.674 104.025 144.674 106.98C144.674 109.936 147.07 112.332 150.025 112.332Z" fill="#FFA726"/>
<path d="M181.956 28.7979C182.779 28.7979 183.446 28.1304 183.446 27.3071C183.446 26.4838 182.779 25.8164 181.956 25.8164C181.132 25.8164 180.465 26.4838 180.465 27.3071C180.465 28.1304 181.132 28.7979 181.956 28.7979Z" fill="#999CBF"/>
<path d="M181.956 32.999C182.779 32.999 183.446 32.3316 183.446 31.5083C183.446 30.685 182.779 30.0176 181.956 30.0176C181.132 30.0176 180.465 30.685 180.465 31.5083C180.465 32.3316 181.132 32.999 181.956 32.999Z" fill="#999CBF"/>
<path d="M181.956 37.2022C182.779 37.2022 183.446 36.5347 183.446 35.7114C183.446 34.8881 182.779 34.2207 181.956 34.2207C181.132 34.2207 180.465 34.8881 180.465 35.7114C180.465 36.5347 181.132 37.2022 181.956 37.2022Z" fill="#999CBF"/>
<path d="M181.956 41.4033C182.779 41.4033 183.446 40.7359 183.446 39.9126C183.446 39.0893 182.779 38.4219 181.956 38.4219C181.132 38.4219 180.465 39.0893 180.465 39.9126C180.465 40.7359 181.132 41.4033 181.956 41.4033Z" fill="#999CBF"/>
<path d="M181.956 45.6065C182.779 45.6065 183.446 44.939 183.446 44.1157C183.446 43.2924 182.779 42.625 181.956 42.625C181.132 42.625 180.465 43.2924 180.465 44.1157C180.465 44.939 181.132 45.6065 181.956 45.6065Z" fill="#999CBF"/>
<path d="M181.956 49.8076C182.779 49.8076 183.446 49.1402 183.446 48.3169C183.446 47.4936 182.779 46.8262 181.956 46.8262C181.132 46.8262 180.465 47.4936 180.465 48.3169C180.465 49.1402 181.132 49.8076 181.956 49.8076Z" fill="#999CBF"/>
<path d="M128.77 46.8271C134.027 46.8271 138.288 42.5657 138.288 37.3091C138.288 32.0524 134.027 27.791 128.77 27.791C123.513 27.791 119.252 32.0524 119.252 37.3091C119.252 42.5657 123.513 46.8271 128.77 46.8271Z" stroke="black" stroke-width="0.103156" stroke-miterlimit="10"/>
<path d="M128.77 37.3086H170.442" stroke="black" stroke-width="0.0792542" stroke-miterlimit="10"/>
<path d="M103 55.4258H170.026" stroke="black" stroke-width="0.0792542" stroke-miterlimit="10"/>
<path d="M103 59.8438H170.026" stroke="black" stroke-width="0.0792542" stroke-miterlimit="10"/>
<path d="M103 64.2617H170.026" stroke="black" stroke-width="0.0792542" stroke-miterlimit="10"/>
<path d="M130.185 81.6426H117.43V94.3975H130.185V81.6426Z" fill="#7DBF9D"/>
<path d="M147.665 81.6426H134.91V94.3975H147.665V81.6426Z" fill="#7DBF9D"/>
<path d="M165.142 81.6426H152.387V94.3975H165.142V81.6426Z" fill="#7DBF9D"/>
<path d="M182.62 81.6426H169.865V94.3975H182.62V81.6426Z" fill="#7DBF9D"/>
</g>
<defs>
<clipPath id="clip0_7013_221921">
<path d="M0 8C0 3.58172 3.58172 0 8 0H306C310.418 0 314 3.58172 314 8V115H0V8Z" fill="white"/>
</clipPath>
</defs>
</svg>
