<svg width="586" height="160" viewBox="0 0 586 160" fill="none" xmlns="http://www.w3.org/2000/svg">
<rect width="586" height="160" fill="#F5F7F9"/>
<path d="M313 138H282V160H313V138Z" fill="#63321C"/>
<path d="M346.719 125.635C346.918 126.821 350.301 153.939 350.849 154.387C351.397 154.836 357.216 155.83 357.715 155.083C357.814 153.896 357.952 134.987 358.26 133.295" fill="#1F161E"/>
<path d="M281.265 119.977C278.918 118.819 283.81 141.722 296.685 141.722C309.559 141.722 331.231 122.11 334.739 122.11C342.485 122.11 360.821 137.319 362.258 137.319C363.359 136.218 365.561 134.292 365.561 133.535C365.561 132.778 348.005 103.881 334.87 103.881C329.776 103.876 286.562 122.594 281.265 119.977Z" fill="#546B7D"/>
<path d="M288.51 120.366C291.084 119.783 294.287 118.271 297.122 116.725C289.409 119.244 283.089 120.879 281.265 119.977C280.022 119.365 280.81 125.495 283.732 131.4C283.203 130.256 282.449 121.74 288.51 120.366Z" fill="#1F161E"/>
<path d="M294.185 80.1883C296.213 80.2428 306.773 79.932 309.667 82.6887C311.814 84.7313 318.49 102.32 319.519 108.495C315.035 110.772 282.696 126.259 272.687 119.448C272.466 114.155 273.494 93.1293 280.039 82.1004C282.433 80.5061 292.235 80.1361 294.185 80.1883Z" fill="#999CBF"/>
<path d="M298.299 75.1543H292.131V81.785C292.131 83.4456 298.299 83.4314 298.299 81.785V75.1543Z" fill="#F8CDBA"/>
<path d="M292.131 79.152C292.131 78.4165 294.169 76.5685 295.428 76.6325C295.459 75.8307 292.551 74.6445 292.551 74.6445L292.131 75.7761V79.152Z" fill="#1F161E"/>
<path d="M304.759 75.154C304.897 74.5133 304.967 73.8596 304.968 73.204C304.968 68.3122 301.146 64.3457 296.427 64.3457C291.709 64.3457 287.887 68.3122 287.887 73.204C287.887 73.8596 287.957 74.5133 288.095 75.154H304.759Z" fill="#1F161E"/>
<path d="M302.508 69.1867C301.462 69.0277 300.418 68.2045 299.689 67.666C295.538 70.7073 292.878 70.75 292.591 70.75C292.304 70.75 291.135 72.4297 290.596 72.6194L290.549 72.591C290.71 73.4739 291.053 74.3137 291.556 75.057C292.059 75.8003 292.711 76.431 293.471 76.9089C294.231 77.3869 295.081 77.7017 295.969 77.8335C296.857 77.9652 297.763 77.911 298.628 77.6742C299.494 77.4374 300.301 77.0233 300.998 76.4581C301.696 75.8928 302.268 75.1889 302.678 74.3908C303.089 73.5927 303.33 72.718 303.384 71.8222C303.439 70.9263 303.307 70.0288 302.996 69.1867C302.834 69.2068 302.67 69.2068 302.508 69.1867Z" fill="#F8CDBA"/>
<path d="M291.801 65.449C293.192 65.449 294.32 64.321 294.32 62.9296C294.32 61.5381 293.192 60.4102 291.801 60.4102C290.409 60.4102 289.281 61.5381 289.281 62.9296C289.281 64.321 290.409 65.449 291.801 65.449Z" fill="#1F161E"/>
<path d="M292.922 70.6113C292.65 70.6242 292.393 70.7414 292.205 70.9387C292.017 71.1359 291.912 71.398 291.912 71.6706C291.912 71.9431 292.017 72.2052 292.205 72.4025C292.393 72.5997 292.65 72.7169 292.922 72.7298" stroke="#1F161E" stroke-width="0.689049" stroke-miterlimit="10" stroke-linecap="round"/>
<path d="M300.998 70.7383C301.309 71.1534 302.108 71.8794 300.998 72.6504" stroke="#1F161E" stroke-width="0.689049" stroke-miterlimit="10" stroke-linecap="round"/>
<path d="M297.633 73.2207C297.633 73.5315 297.766 74.274 298.432 74.4662" stroke="#1F161E" stroke-width="0.689049" stroke-miterlimit="10" stroke-linecap="round"/>
<path d="M295.565 73.2868C296.105 73.2868 296.543 73.0595 296.543 72.7792C296.543 72.4988 296.105 72.2715 295.565 72.2715C295.025 72.2715 294.588 72.4988 294.588 72.7792C294.588 73.0595 295.025 73.2868 295.565 73.2868Z" fill="#FA9E9F"/>
<path d="M302.833 73.2868C303.373 73.2868 303.81 73.0595 303.81 72.7792C303.81 72.4988 303.373 72.2715 302.833 72.2715C302.293 72.2715 301.855 72.4988 301.855 72.7792C301.855 73.0595 302.293 73.2868 302.833 73.2868Z" fill="#FA9E9F"/>
<path d="M309.443 98.5185L316.036 96.8223C316.669 97.8922 319.754 108.482 319.754 108.482L309.576 112.771C309.709 110.764 310.11 101.593 309.443 98.5185Z" fill="#F8CDBA"/>
<path d="M286.329 96.8613C286.329 97.6584 285.658 100.693 285.262 102.118" stroke="#1F161E" stroke-width="0.689049" stroke-miterlimit="10" stroke-linecap="round"/>
<path d="M309.445 98.5198C309.286 97.2648 308.356 90.1929 306.773 86.4707" stroke="#1F161E" stroke-width="0.689049" stroke-miterlimit="10" stroke-linecap="round"/>
<path d="M309.443 98.5185L316.036 96.8223C316.669 97.8922 319.754 108.482 319.754 108.482L309.576 112.771C309.709 110.764 310.11 101.593 309.443 98.5185Z" fill="#F8CDBA"/>
<path d="M362.457 136.76C362.604 136.985 364.568 139.405 365.263 139.433C365.959 139.462 370.179 136.601 369.994 135.986C369.809 135.372 367.161 135.77 366.706 135.557C366.25 135.343 365.237 134.328 365.076 133.875" fill="#1F161E"/>
<path d="M352.078 154.639C352.028 154.903 351.76 158.008 352.242 158.511C352.724 159.014 357.746 159.887 358.038 159.315C358.329 158.744 356.14 157.194 355.971 156.725C355.803 156.255 355.767 154.827 355.971 154.381" fill="#1F161E"/>
<path d="M344.204 109.147H321.863L327.182 95.0527H349.522L344.204 109.147Z" fill="#969696"/>
<path d="M325.588 108.615H303.248V109.147H325.588V108.615Z" fill="#969696"/>
<path d="M285.261 102.119C284.831 103.729 282.737 110.6 283.6 111.781C284.464 112.963 305.72 110.277 311.411 108.507C312.86 108.033 313.935 106.787 314.578 106.628C315.402 106.489 316.247 106.659 316.954 107.105C317.66 107.55 318.178 108.24 318.407 109.043C316.134 110.144 283.32 126.898 272.687 119.441C270.678 118.011 274.206 100.456 274.365 99.5684C276.16 99.7914 285.261 102.119 285.261 102.119Z" fill="#F8CDBA"/>
<path d="M309.748 108.948C310.389 108.796 310.948 108.649 311.409 108.507C312.858 108.032 313.933 106.787 314.576 106.628C315.4 106.488 316.246 106.657 316.953 107.103C317.66 107.549 318.178 108.239 318.407 109.043" stroke="#1F161E" stroke-width="0.689049" stroke-miterlimit="10" stroke-linecap="round"/>
<path d="M263.08 17H177.711C172.932 17 169.059 20.8739 169.059 25.6526V150.981C169.059 155.759 172.932 159.633 177.711 159.633H263.08C267.859 159.633 271.733 155.759 271.733 150.981V25.6526C271.733 20.8739 267.859 17 263.08 17Z" stroke="black" stroke-width="0.339183" stroke-miterlimit="10"/>
<path d="M271.989 31.9844H168.803V139.098H271.989V31.9844Z" fill="#FFEBEE"/>
<path d="M220.396 156.302C224.38 156.302 227.61 153.072 227.61 149.087C227.61 145.103 224.38 141.873 220.396 141.873C216.412 141.873 213.182 145.103 213.182 149.087C213.182 153.072 216.412 156.302 220.396 156.302Z" fill="#FFA726"/>
<path d="M263.439 43.6892C264.549 43.6892 265.449 42.7895 265.449 41.6796C265.449 40.5697 264.549 39.6699 263.439 39.6699C262.329 39.6699 261.43 40.5697 261.43 41.6796C261.43 42.7895 262.329 43.6892 263.439 43.6892Z" fill="#999CBF"/>
<path d="M263.439 49.3533C264.549 49.3533 265.449 48.4535 265.449 47.3436C265.449 46.2337 264.549 45.334 263.439 45.334C262.329 45.334 261.43 46.2337 261.43 47.3436C261.43 48.4535 262.329 49.3533 263.439 49.3533Z" fill="#999CBF"/>
<path d="M263.439 55.0193C264.549 55.0193 265.449 54.1196 265.449 53.0097C265.449 51.8998 264.549 51 263.439 51C262.329 51 261.43 51.8998 261.43 53.0097C261.43 54.1196 262.329 55.0193 263.439 55.0193Z" fill="#999CBF"/>
<path d="M263.439 60.6834C264.549 60.6834 265.449 59.7836 265.449 58.6737C265.449 57.5638 264.549 56.6641 263.439 56.6641C262.329 56.6641 261.43 57.5638 261.43 58.6737C261.43 59.7836 262.329 60.6834 263.439 60.6834Z" fill="#999CBF"/>
<path d="M263.439 66.3494C264.549 66.3494 265.449 65.4496 265.449 64.3397C265.449 63.2298 264.549 62.3301 263.439 62.3301C262.329 62.3301 261.43 63.2298 261.43 64.3397C261.43 65.4496 262.329 66.3494 263.439 66.3494Z" fill="#999CBF"/>
<path d="M263.439 72.0135C264.549 72.0135 265.449 71.1137 265.449 70.0038C265.449 68.8939 264.549 67.9941 263.439 67.9941C262.329 67.9941 261.43 68.8939 261.43 70.0038C261.43 71.1137 262.329 72.0135 263.439 72.0135Z" fill="#999CBF"/>
<path d="M191.741 67.9946C198.828 67.9946 204.573 62.2498 204.573 55.1633C204.573 48.0768 198.828 42.332 191.741 42.332C184.655 42.332 178.91 48.0768 178.91 55.1633C178.91 62.2498 184.655 67.9946 191.741 67.9946Z" stroke="black" stroke-width="0.139065" stroke-miterlimit="10"/>
<path d="M191.74 55.1641H247.919" stroke="black" stroke-width="0.106843" stroke-miterlimit="10"/>
<path d="M157 79.5859H247.358" stroke="black" stroke-width="0.106843" stroke-miterlimit="10"/>
<path d="M157 85.543H247.358" stroke="black" stroke-width="0.106843" stroke-miterlimit="10"/>
<path d="M157 91.498H247.358" stroke="black" stroke-width="0.106843" stroke-miterlimit="10"/>
<path d="M193.648 114.93H176.453V132.125H193.648V114.93Z" fill="#7DBF9D"/>
<path d="M217.212 114.93H200.018V132.125H217.212V114.93Z" fill="#7DBF9D"/>
<path d="M240.773 114.93H223.578V132.125H240.773V114.93Z" fill="#7DBF9D"/>
<path d="M264.335 114.93H247.141V132.125H264.335V114.93Z" fill="#7DBF9D"/>
</svg>
