<svg width="314" height="115" viewBox="0 0 314 115" fill="none" xmlns="http://www.w3.org/2000/svg">
<g clip-path="url(#clip0_7013_221950)">
<path d="M0 8C0 3.58172 3.58172 0 8 0H306C310.418 0 314 3.58172 314 8V115H0V8Z" fill="#C7C9E3"/>
<g clip-path="url(#clip1_7013_221950)">
<path d="M205.17 39.3054V27.4783C205.17 26.9185 204.948 26.3816 204.552 25.9858C204.156 25.59 203.619 25.3676 203.059 25.3676H202.076H133.154V23.2745C133.154 23.2375 133.163 23.2023 133.163 23.1672V17.4471C133.163 16.2352 132.336 15.252 131.316 15.252H113.681C112.661 15.252 111.834 16.2352 111.834 17.4471V25.3623L123.188 107.584H128.201L207.896 51.5933L205.17 39.3054Z" fill="#EF5350"/>
<path d="M212.97 31.2578H130.002C126.15 31.2578 123.027 34.3803 123.027 38.232V105.898C123.027 109.75 126.15 112.872 130.002 112.872H212.97C216.822 112.872 219.945 109.75 219.945 105.898V38.232C219.945 34.3803 216.822 31.2578 212.97 31.2578Z" fill="#FFCC80"/>
<path d="M171.486 53.2324V92.6959" stroke="white" stroke-width="5.80448" stroke-miterlimit="10"/>
<path d="M151.756 72.9629H191.219" stroke="white" stroke-width="5.80448" stroke-miterlimit="10"/>
</g>
<g clip-path="url(#clip2_7013_221950)">
<path d="M235.738 112.726C235.348 112.736 233.033 112.91 232.636 112.586C231.915 112.002 232.11 107.096 232.332 106.86C232.554 106.625 233.031 106.471 233.175 106.675C233.319 106.88 233.759 108.818 233.954 109.073C234.149 109.328 235.123 109.671 235.644 109.517" fill="#1F161E"/>
<path d="M282.008 100.975C281.472 100.343 263.142 86.7583 259.529 86.8284C255.917 86.8985 245.345 108.836 245.546 109.574C245.746 110.312 251.342 109.101 252.14 108.429C252.939 107.757 258.518 101.852 259.905 98.8663C260.45 99.657 264.942 104.861 266.283 105.7C267.625 106.54 282.008 100.975 282.008 100.975Z" fill="#1F161E"/>
<path d="M235.152 112.858C235.455 113.1 288.382 114.074 292.756 112.858C297.131 111.643 298.286 111.764 298.225 109.212C298.165 106.661 289.656 100.158 288.563 100.158C286.888 100.158 269.656 101.521 255.99 106.564C250.537 107.456 235.541 109.138 235.541 109.138C235.296 110.03 234.856 111.674 235.152 112.858Z" fill="#FFCC80"/>
<path d="M301.073 76.4025C303.926 77.6665 307.435 94.0007 306.958 94.5362C306.481 95.0718 302.436 96.9142 302.436 96.9142C302.358 100.891 298.989 110.411 297.978 110.826C290.873 108.804 286.503 102.504 286.503 100.778C286.503 99.0526 281.093 100.375 280.676 99.894C280.482 99.6945 280.261 99.5228 280.02 99.3837C280.02 99.3837 282.941 96.8519 285.225 95.2081C285.146 94.5051 284.534 81.3298 285.323 80.0912C286.892 77.6353 297.516 74.8269 301.073 76.4025Z" fill="#EF9A9A"/>
<path d="M302.463 96.9102C301.684 97.2782 294.608 100.328 291.512 100.975" stroke="#1F161E" stroke-width="0.107116" stroke-miterlimit="10" stroke-linecap="round"/>
<path d="M298.026 86.375C298.394 87.154 300.659 91.6431 300.383 92.1047C300.106 92.5663 287.21 98.5745 286.076 98.9407" stroke="#1F161E" stroke-width="0.107116" stroke-miterlimit="10" stroke-linecap="round"/>
<path d="M287.331 85.2188C287.259 86.882 287.306 95.015 287.582 98.0181" stroke="#1F161E" stroke-width="0.107116" stroke-miterlimit="10" stroke-linecap="round"/>
<path d="M286.077 98.9395C286.194 99.1829 287.008 101.534 287.093 102.044C287.179 102.554 283.849 103.228 282.688 103.172C281.527 103.115 280.111 102.038 280.111 100.764C280.111 99.4907 281.854 98.5889 286.077 98.9395Z" fill="#EED0C3"/>
<path d="M290.769 78.1575C290.886 78.7126 293.948 78.1166 293.825 77.5207L293.05 73.8164L289.996 74.4533L290.769 78.1575Z" fill="#EED0C3"/>
<path d="M293.511 76.0261C293.443 75.697 292.45 74.7174 291.908 75.029C292.572 74.6258 292.748 73.6871 293.049 73.8098L293.511 76.0261Z" fill="black"/>
<path d="M289.6 75.7503C291.838 75.7503 293.653 73.9357 293.653 71.6974C293.653 69.4591 291.838 67.6445 289.6 67.6445C287.361 67.6445 285.547 69.4591 285.547 71.6974C285.547 73.9357 287.361 75.7503 289.6 75.7503Z" fill="#EED0C3"/>
<path d="M285.774 73.4134C286.14 73.3371 286.404 73.1208 286.364 72.9302C286.324 72.7397 285.996 72.647 285.63 72.7232C285.265 72.7995 285.001 73.0158 285.041 73.2064C285.081 73.397 285.409 73.4896 285.774 73.4134Z" fill="#EF9A9A"/>
<path d="M289.933 72.5442C290.298 72.468 290.562 72.2517 290.522 72.0611C290.482 71.8705 290.154 71.7778 289.788 71.8541C289.423 71.9304 289.159 72.1467 289.199 72.3373C289.239 72.5278 289.567 72.6205 289.933 72.5442Z" fill="#EF9A9A"/>
<path d="M287.164 72.0156C287.078 72.2104 286.597 73.0907 287.329 73.2504" stroke="#1F161E" stroke-width="0.134382" stroke-miterlimit="10" stroke-linecap="round"/>
<path d="M288.846 73.8361C289.04 73.7894 289.299 73.4836 289.416 73.2266" stroke="#1F161E" stroke-width="0.134382" stroke-miterlimit="10" stroke-linecap="round"/>
<path d="M292.908 68.5932C292.62 67.2163 290.485 66.5911 289.149 66.8696C287.022 67.3137 284.539 68.3731 284.142 68.6224C283.478 69.0236 283.523 69.8104 283.577 70.0675C283.801 71.1387 284.331 71.7229 285.546 71.647C285.548 71.2496 285.614 70.855 285.741 70.4785C286.044 70.2834 286.406 70.2014 286.763 70.2467C287.085 70.2895 289.85 70.9498 291.712 70.5603C292.033 70.8563 293.025 72.8759 293.052 73.8107C293.603 73.727 294.238 71.7424 294.094 70.8018C294.04 70.4812 293.911 70.1778 293.718 69.916C293.525 69.6541 293.274 69.4412 292.984 69.2943C292.957 69.0918 292.929 68.7023 292.908 68.5932Z" fill="black"/>
<path d="M292.058 72.2722C292.551 72.2722 292.95 71.8729 292.95 71.3803C292.95 70.8876 292.551 70.4883 292.058 70.4883C291.565 70.4883 291.166 70.8876 291.166 71.3803C291.166 71.8729 291.565 72.2722 292.058 72.2722Z" fill="#EED0C3"/>
</g>
<path d="M82.4982 65.1035C83.7084 66.257 101.242 82.6941 101.242 91.3308C101.242 93.9435 96.2542 132.236 95.6927 133.015H91.359C91.359 133.015 89.4511 101.112 90.9693 94.8778C89.8436 94.3732 79.5219 90.5695 74.9429 86.492C70.364 82.4144 73.6401 66.7242 82.4982 65.1035Z" fill="#1F161E"/>
<path d="M82.4968 65.1035C83.8595 65.3573 65.0177 146.222 65.0177 146.222H60.3379C60.3379 146.222 62.115 69.6857 63.1343 65.96C67.9886 64.4143 78.8309 64.4143 82.4968 65.1035Z" fill="#DC9E83"/>
<path d="M57.3863 34.0882C62.3795 30.3624 79.4633 30.3624 97.1632 31.1093C99.2564 31.1987 105.195 17.899 107.727 16.0073C110.516 13.9253 114.958 15.8055 114.958 16.9128C114.958 19.3294 111.791 19.387 111.121 20.1685C110.45 20.95 104.46 39.5557 99.4009 42.2952C97.7655 43.1834 85.6695 42.8893 84.8245 44.0456C83.9796 45.202 83.2056 64.3844 82.4996 65.0967C81.7937 65.809 65.0724 66.4001 63.1481 65.9618C63.0418 64.4709 60.7905 52.1056 60.2263 51.1367C59.9156 51.1078 55.4157 59.0899 55.4184 60.0964C55.4184 61.4229 63.1181 72.5367 66.3452 74.4399C67.1819 74.9302 67.0593 76.3259 66.9067 76.6661C66.754 77.0064 65.6011 78.6847 64.8816 78.6847C64.162 78.6847 47.3807 68.0237 47.0018 59.9897C46.901 57.8182 50.9512 38.904 57.3863 34.0882Z" fill="#5E4521"/>
<path d="M72.2778 32.8994C72.3704 34.0356 66.4723 34.6527 66.3742 33.4329L65.7637 25.8372L71.6673 25.3066L72.2778 32.8994Z" fill="#EED0C3"/>
<path d="M66.1289 30.3744C66.0744 29.6996 67.3473 27.2398 68.5029 27.5311C67.0747 27.136 66.2434 25.4289 65.7773 25.8383L66.1289 30.3744Z" fill="black"/>
<path d="M70.8865 27.9298C75.1374 27.9298 78.5835 24.2838 78.5835 19.7862C78.5835 15.2886 75.1374 11.6426 70.8865 11.6426C66.6355 11.6426 63.1895 15.2886 63.1895 19.7862C63.1895 24.2838 66.6355 27.9298 70.8865 27.9298Z" fill="#EED0C3"/>
<path d="M78.787 20.8785C79.4935 20.8149 80.0407 20.4481 80.0094 20.0593C79.9781 19.6705 79.3801 19.4069 78.6736 19.4706C77.9672 19.5343 77.4199 19.9011 77.4512 20.2899C77.4825 20.6787 78.0806 20.9422 78.787 20.8785Z" fill="#FA9E9F"/>
<path d="M70.7421 21.6032C71.4485 21.5395 71.9958 21.1727 71.9645 20.7839C71.9332 20.3951 71.3351 20.1316 70.6287 20.1952C69.9223 20.2589 69.375 20.6257 69.4063 21.0145C69.4376 21.4033 70.0357 21.6668 70.7421 21.6032Z" fill="#FA9E9F"/>
<path d="M75.4883 18.9941C75.7608 19.3344 77.1073 20.7388 75.859 21.4712" stroke="#1F161E" stroke-width="0.311441" stroke-miterlimit="10" stroke-linecap="round"/>
<path d="M73.4233 23.4777C73.039 23.4979 72.4067 23.0596 72.0605 22.6328" stroke="#1F161E" stroke-width="0.311441" stroke-miterlimit="10" stroke-linecap="round"/>
<path d="M63.1758 15.7172C62.9496 12.8998 66.4928 10.4688 69.0767 10.2381C73.1868 9.86611 75.4899 9.96416 77.744 9.17691C80.9711 8.05226 80.9111 12.6374 80.9547 13.1593C81.1291 15.3538 80.4832 16.7841 78.2291 17.3378C78.0129 16.5794 77.6845 15.8621 77.2561 15.2125C76.5997 15.0099 75.8967 15.06 75.2719 15.3538C74.7077 15.622 70.0361 18.4855 66.4356 18.8143C66.0131 19.5669 65.31 24.028 65.7706 25.8419C64.7185 26.0005 62.4835 22.5458 62.2273 20.6512C62.1512 20.0019 62.2201 19.3428 62.4284 18.7268C62.6366 18.1108 62.9785 17.5551 63.4266 17.1042C63.3557 16.7063 63.1949 15.9392 63.1758 15.7172Z" fill="black"/>
<path d="M66.2422 22.3881C67.1785 22.3881 67.9375 21.5851 67.9375 20.5944C67.9375 19.6038 67.1785 18.8008 66.2422 18.8008C65.3059 18.8008 64.5469 19.6038 64.5469 20.5944C64.5469 21.5851 65.3059 22.3881 66.2422 22.3881Z" fill="#F8CDBA"/>
<path d="M66.331 74.4385C63.1039 72.5353 55.4069 61.4215 55.4042 60.095C55.4042 59.449 57.2494 55.9395 58.6585 53.5086L49.6423 48.3496C47.9034 53.8287 46.9522 58.9271 47.004 59.9911C47.3801 68.0252 64.1478 78.6689 64.8673 78.6689C65.5869 78.6689 66.7398 77.005 66.8924 76.6503C67.0451 76.2956 67.1704 74.9288 66.331 74.4385Z" fill="#EED0C3"/>
<path d="M107.729 16.021C105.197 17.9127 99.2581 31.2066 97.1539 31.123C93.5916 30.973 95.644 31.048 92.2261 30.9846L92.207 42.9721C96.1727 42.9721 98.2605 42.9174 99.3889 42.3089C104.45 39.5694 110.444 20.9694 111.109 20.1822C111.774 19.3949 114.946 19.343 114.946 16.9265C114.96 15.8191 110.509 13.939 107.729 16.021Z" fill="#EED0C3"/>
</g>
<defs>
<clipPath id="clip0_7013_221950">
<path d="M0 8C0 3.58172 3.58172 0 8 0H306C310.418 0 314 3.58172 314 8V115H0V8Z" fill="white"/>
</clipPath>
<clipPath id="clip1_7013_221950">
<rect width="108.111" height="97.6208" fill="white" transform="translate(111.834 15.25)"/>
</clipPath>
<clipPath id="clip2_7013_221950">
<rect width="74.872" height="46.6499" fill="white" transform="translate(232.129 66.8047)"/>
</clipPath>
</defs>
</svg>
