<svg width="314" height="115" viewBox="0 0 314 115" fill="none" xmlns="http://www.w3.org/2000/svg">
<g clip-path="url(#clip0_7013_221920)">
<path d="M0 8C0 3.58172 3.58172 0 8 0H306C310.418 0 314 3.58172 314 8V115H0V8Z" fill="#F5F7F9"/>
<path d="M219.774 67.1597L222.913 66.0427C222.778 60.3632 221.439 47.6728 219.538 45.7857C219.091 45.3443 210.252 44.5742 208.675 44.5742C199.265 44.5742 196.474 45.6386 195.766 46.3433C193.568 48.5228 192.883 58.6214 192.883 62.1577C192.883 65.694 202.956 67.5284 202.956 67.5284L214.763 68.333C214.763 68.333 217.353 68.5982 219.593 68.729C219.642 68.0479 219.774 67.1597 219.774 67.1597Z" fill="#EF9A9A"/>
<path d="M224.911 62.1992C223.66 62.1992 222.628 62.4778 219.796 62.999L219.648 68.0747C222.335 67.061 222.958 65.6519 223.737 65.6519C225.683 65.6519 226.7 66.5919 227.849 66.5919C228.651 66.5919 230.094 66.0024 230.094 65.2008C230.094 63.5221 226.462 62.1992 224.911 62.1992Z" fill="#EED0C3"/>
<path d="M210.511 45.3767C210.511 46.0373 206.594 46.0566 206.594 45.3767V40.0039H210.511V45.3767Z" fill="#EED0C3"/>
<path d="M209.205 41.5438C208.851 41.5438 206.594 42.6501 206.594 43.2681V40.0039C207.156 40.0039 209.205 41.5438 209.205 41.5438Z" fill="#1F161E"/>
<path d="M210.183 41.9624C212.887 41.9624 215.08 39.7703 215.08 37.0662C215.08 34.362 212.887 32.1699 210.183 32.1699C207.479 32.1699 205.287 34.362 205.287 37.0662C205.287 39.7703 207.479 41.9624 210.183 41.9624Z" fill="#EED0C3"/>
<path d="M215.242 33.1597C214.627 34.1257 213.342 34.5688 211.95 34.5688C210.764 34.5688 209.036 34.2277 207.807 34.9211C207.142 35.2919 206.379 36.1355 206.225 37.8245C206.225 38.1137 205.894 39.2354 205.894 39.597C205.894 39.8436 205.613 40.0049 205.144 40.0049C204.902 40.0049 204.425 39.6174 204.425 39.0259C204.425 38.3418 204.7 38.0989 204.7 37.5186C204.7 36.9383 203.982 36.3802 203.982 34.7672C203.982 32.4441 205.481 31.0127 206.542 31.0127C207.509 31.0127 207.812 31.2352 207.934 31.3298C207.934 29.218 210.745 28.2539 211.86 28.2539C213.134 28.2539 213.734 28.7712 213.734 29.4294C213.734 30.4788 213.228 31.3706 212.971 31.5708C213.552 31.0536 214.307 30.7688 215.088 30.7717C216.548 30.7717 217.039 31.721 217.039 32.3699C217.039 33.7808 215.328 35.0879 214.691 35.0879C214.531 34.7524 214.343 34.4306 214.129 34.1257" fill="#1F161E"/>
<path d="M215.079 38.0454C215.439 38.0454 215.731 37.8993 215.731 37.719C215.731 37.5387 215.439 37.3926 215.079 37.3926C214.718 37.3926 214.426 37.5387 214.426 37.719C214.426 37.8993 214.718 38.0454 215.079 38.0454Z" fill="#FA9E9F"/>
<path d="M209.858 38.0454C210.218 38.0454 210.511 37.8993 210.511 37.719C210.511 37.5387 210.218 37.3926 209.858 37.3926C209.497 37.3926 209.205 37.5387 209.205 37.719C209.205 37.8993 209.497 38.0454 209.858 38.0454Z" fill="#FA9E9F"/>
<path d="M213.121 36.7383C213.329 36.9276 214.387 37.722 213.27 38.0439" stroke="#1F161E" stroke-width="0.652831" stroke-miterlimit="10" stroke-linecap="round"/>
<path d="M211.815 39.3501C211.426 39.3501 210.826 39.0058 210.51 38.6973" stroke="#1F161E" stroke-width="0.652831" stroke-miterlimit="10" stroke-linecap="round"/>
<path d="M192.883 61.5469C192.883 69.6435 192.963 71.9922 196.431 71.9922C204.424 71.9922 216.507 65.8437 218.661 65.8437C220.564 65.8437 221.557 66.7643 222.68 66.7643C223.462 66.7643 224.872 66.1863 224.872 65.4046C224.872 63.7621 221.323 62.4691 219.81 62.4691C216.404 62.4691 202.812 65.5469 202.48 65.5469C202.149 65.5469 201.59 65.4116 201.59 64.8881C201.59 63.9377 202.254 61.7419 202.34 61.5504L192.883 61.5469Z" fill="#EED0C3"/>
<path d="M242.977 66.77H226.83L229.755 56.5235C229.828 56.2763 229.978 56.0598 230.182 55.9063C230.386 55.7529 230.633 55.6707 230.886 55.672H244.588C244.768 55.6691 244.946 55.709 245.108 55.7886C245.271 55.8681 245.412 55.9852 245.522 56.1304C245.632 56.2756 245.707 56.445 245.741 56.625C245.775 56.8049 245.768 56.9906 245.719 57.167L242.977 66.77Z" fill="black"/>
<path d="M164.796 101.98C164.796 102.41 164.543 105.124 165.046 105.373C165.549 105.623 171.085 105.776 171.335 105.526C171.585 105.277 171.738 104.748 171.512 104.595C171.285 104.442 169.15 104.02 168.847 103.817C168.544 103.614 168.154 102.553 168.304 101.98" fill="#1F161E"/>
<path d="M141.834 43.3789C141.777 44.0775 145.881 68.0609 145.854 68.8326C145.828 69.6044 139.568 98.6207 139.568 98.6207L142.983 100.144C142.983 100.144 154.519 75.7449 154.712 74.1982C154.905 72.6514 143.649 43.3723 141.834 43.3789Z" fill="#1F161E"/>
<path d="M141.836 43.3792C142.096 44.111 164.508 102.257 164.508 102.257H168.922L153.195 40.0527L141.836 43.3792Z" fill="#7DBF9D"/>
<path d="M145.408 17.0527C152.594 17.0527 153.403 30.0657 153.403 31.8985C153.403 33.7314 153.64 39.4728 153.203 40.0416C152.57 40.341 142.51 43.7007 141.844 43.368C141.178 43.0354 136.051 17.0527 145.408 17.0527Z" fill="#E3F2EB"/>
<path d="M141.912 31.7227C141.912 32.3114 141.782 36.1801 142.755 36.9285C143.728 37.6769 151.576 38.6449 151.576 39.6695C151.576 40.1086 151.719 40.5809 150.75 40.9036C151.389 40.6873 153.195 40.042 153.195 40.042C153.342 39.6978 153.412 39.3252 153.398 38.951C153.225 38.7946 141.912 31.7227 141.912 31.7227Z" fill="#1F161E"/>
<path d="M147.238 14.4192L144.127 13.7539C144.127 13.7539 143.781 17.6159 143.741 17.9485C143.701 18.2812 146.256 18.5805 146.296 18.2812C146.336 17.9818 147.238 14.4192 147.238 14.4192Z" fill="#EED0C3"/>
<path d="M144.025 14.8553C144.025 14.7821 145.025 15.4341 145.424 15.6304C145.824 15.8266 143.975 16.0029 143.855 16.7214C143.905 16.1892 144.019 14.9751 144.025 14.8553Z" fill="#1F161E"/>
<path d="M146.651 15.8156C148.886 15.8156 150.698 14.0061 150.698 11.774C150.698 9.54191 148.886 7.73242 146.651 7.73242C144.416 7.73242 142.604 9.54191 142.604 11.774C142.604 14.0061 144.416 15.8156 146.651 15.8156Z" fill="#EED0C3"/>
<path d="M146.578 28.3434C146.445 29.0087 146.192 32.3983 146.202 33.3863C146.622 34.311 153.48 37.2183 154.913 37.4578C155.479 37.4412 155.792 37.1252 156.145 37.1252C156.985 37.1418 159.233 36.9988 159.233 37.2416C159.233 37.4844 158.567 39.1909 157.734 39.1909C156.332 39.1909 155.852 38.825 155.323 38.7917C154.576 38.7451 154.297 39.0146 153.634 38.9713C152.971 38.9281 144.603 37.5909 143.18 35.4719C141.705 33.2698 141.402 27.6249 141.408 27.3555C141.788 27.4586 146.022 28.3434 146.578 28.3434Z" fill="#EED0C3"/>
<path d="M141.406 27.3604C141.273 24.9022 141.639 20.0656 144.547 20.4515" stroke="#1F161E" stroke-width="0.359057" stroke-miterlimit="10" stroke-linecap="round"/>
<path d="M139.969 98.666C139.843 98.9421 138.687 101.347 139.147 102.169C139.606 102.99 142.971 104.64 143.374 104.497C143.777 104.354 143.86 103.912 143.544 103.366C143.227 102.821 141.988 102.265 141.831 101.79C141.675 101.314 142.105 100.027 142.551 99.7471" fill="#1F161E"/>
<path d="M148.243 13.4539C148.683 13.4539 149.04 13.2692 149.04 13.0414C149.04 12.8136 148.683 12.6289 148.243 12.6289C147.804 12.6289 147.447 12.8136 147.447 13.0414C147.447 13.2692 147.804 13.4539 148.243 13.4539Z" fill="#FA9E9F"/>
<path d="M143.74 14.5281C143.017 14.1954 142.111 12.7518 142.111 10.7925C142.111 5.71973 148.254 5.80289 148.877 5.61661C149.5 5.43033 150.749 4.97461 151.052 4.97461C152.072 4.97461 152.491 7.75549 152.491 8.20456C152.491 9.95758 151.039 10.9023 150.619 10.9588C150.426 10.4665 150.19 9.99233 149.913 9.54178C149.636 9.69147 145.532 11.205 144.826 11.3746C145.033 12.1297 143.634 13.8694 143.74 14.5281Z" fill="#1F161E"/>
<path d="M150.582 10.9629C150.879 10.9629 151.312 12.1271 151.249 12.3899C151.185 12.6527 150.532 12.8556 150.273 12.8456C150.013 12.8357 150.156 10.9629 150.582 10.9629Z" fill="#F8CDBA"/>
<path d="M148.008 14.043C148.008 14.1775 148.056 14.3076 148.143 14.41C148.23 14.5125 148.351 14.5804 148.484 14.6018" stroke="#1F161E" stroke-width="0.359057" stroke-miterlimit="10" stroke-linecap="round"/>
<path d="M144.449 12.5757C145.023 12.5757 145.489 12.111 145.489 11.5378C145.489 10.9647 145.023 10.5 144.449 10.5C143.875 10.5 143.41 10.9647 143.41 11.5378C143.41 12.111 143.875 12.5757 144.449 12.5757Z" fill="#EED0C3"/>
<path d="M172.392 26.8633H152.139V37.2484H172.392V26.8633Z" fill="#B37361"/>
<g clip-path="url(#clip1_7013_221920)">
<path d="M204.962 88.3125C211.271 88.3125 216.386 87.1434 216.386 85.7012C216.386 84.259 211.271 83.0898 204.962 83.0898C198.652 83.0898 193.537 84.259 193.537 85.7012C193.537 87.1434 198.652 88.3125 204.962 88.3125Z" fill="black"/>
<path d="M205.287 85.7012L198.105 105.939" stroke="black" stroke-width="2.61133" stroke-miterlimit="10" stroke-linecap="round"/>
<path d="M205.287 85.7012L211.163 105.939" stroke="black" stroke-width="2.61133" stroke-miterlimit="10" stroke-linecap="round"/>
<path d="M200.717 99.4116L207.898 94.8418" stroke="black" stroke-width="1.30566" stroke-miterlimit="10" stroke-linecap="round"/>
<path d="M202.021 94.8418L209.203 99.4116" stroke="black" stroke-width="1.30566" stroke-miterlimit="10" stroke-linecap="round"/>
<path d="M233.419 103.98C233.419 104.363 233.18 106.773 233.657 106.996C234.134 107.218 239.377 107.354 239.615 107.13C239.852 106.906 239.995 106.438 239.787 106.304C239.579 106.17 237.548 105.791 237.273 105.612C236.997 105.433 236.617 104.484 236.756 103.98" fill="#1F161E"/>
<path d="M225.525 71.4264C226.382 71.174 234.903 69.7918 236.759 71.6081C238.615 73.4243 244.458 99.4636 244.458 100.063H239.753L233.403 86.4757" fill="#1F161E"/>
<path d="M194.394 68.9149C194.179 69.9818 192.885 71.1273 192.885 76.9401C192.885 84.9781 199.531 85.1477 201.917 85.1477C209.352 85.1477 221.379 82.959 222.191 82.5577C222.731 83.4514 232.66 103.533 232.706 103.981H237.277C237.277 103.981 234.444 73.9379 229.331 70.5308C227.67 69.4365 198.207 68.2655 194.394 68.9149Z" fill="#546B7D"/>
<path d="M240.599 99.4102C240.599 99.8705 240.36 102.76 240.837 103.029C241.314 103.298 246.557 103.457 246.794 103.19C247.032 102.923 247.175 102.36 246.967 102.199C246.758 102.039 244.728 101.582 244.453 101.368C244.177 101.153 243.797 100.014 243.936 99.4102" fill="#1F161E"/>
<path d="M264.152 106.533C264.284 107.041 264.797 107.344 265.299 107.21C265.8 107.077 266.1 106.557 265.968 106.049L256.578 69.8862C256.447 69.3783 255.933 69.0749 255.432 69.2084C254.93 69.3419 254.63 69.8618 254.762 70.3697L264.152 106.533Z" fill="#999999"/>
<path d="M254.667 70.3698C254.799 69.862 254.5 69.3421 253.998 69.2085C253.496 69.075 252.983 69.3785 252.851 69.8863L243.461 106.049C243.329 106.557 243.629 107.077 244.131 107.211C244.632 107.344 245.146 107.041 245.278 106.533L254.667 70.3698Z" fill="#999999"/>
<path d="M241.71 70.3718C241.842 69.8639 241.543 69.344 241.041 69.2105C240.539 69.077 240.026 69.3804 239.894 69.8883L230.504 106.051C230.372 106.559 230.672 107.079 231.174 107.213C231.675 107.346 232.189 107.043 232.321 106.535L241.71 70.3718Z" fill="#E6E6E6"/>
<path d="M251.031 106.533C251.163 107.041 251.676 107.344 252.178 107.21C252.679 107.077 252.979 106.557 252.847 106.049L243.457 69.8862C243.326 69.3783 242.812 69.0749 242.31 69.2084C241.809 69.3419 241.509 69.8618 241.641 70.3697L251.031 106.533Z" fill="#E6E6E6"/>
<path d="M188.882 70.2922C189.011 69.7828 188.709 69.2635 188.206 69.1322C187.703 69.0009 187.19 69.3074 187.06 69.8168L177.828 106.087C177.698 106.596 178.001 107.116 178.504 107.247C179.007 107.378 179.52 107.072 179.65 106.562L188.882 70.2922Z" fill="#999999"/>
<path d="M198.059 106.395C198.188 106.904 198.701 107.211 199.204 107.079C199.707 106.948 200.01 106.429 199.88 105.92L190.648 69.6494C190.519 69.14 190.006 68.8335 189.503 68.9648C189 69.0961 188.697 69.6154 188.826 70.1247L198.059 106.395Z" fill="#999999"/>
<path d="M260.449 67.4219H169.635C169.177 67.4219 168.805 67.7985 168.805 68.2631V69.394C168.805 69.8586 169.177 70.2352 169.635 70.2352H260.449C260.908 70.2352 261.28 69.8586 261.28 69.394V68.2631C261.28 67.7985 260.908 67.4219 260.449 67.4219Z" fill="#E6E6E6"/>
<path d="M175.394 70.3737C175.526 69.8659 175.226 69.346 174.725 69.2124C174.223 69.0789 173.71 69.3824 173.578 69.8902L164.188 106.053C164.056 106.561 164.356 107.081 164.857 107.215C165.359 107.348 165.872 107.045 166.004 106.537L175.394 70.3737Z" fill="#E6E6E6"/>
<path d="M184.714 106.533C184.846 107.041 185.36 107.344 185.861 107.21C186.363 107.077 186.663 106.557 186.531 106.049L177.141 69.8862C177.009 69.3783 176.496 69.0749 175.994 69.2084C175.493 69.3419 175.193 69.8618 175.325 70.3697L184.714 106.533Z" fill="#E6E6E6"/>
</g>
</g>
<defs>
<clipPath id="clip0_7013_221920">
<path d="M0 8C0 3.58172 3.58172 0 8 0H306C310.418 0 314 3.58172 314 8V115H0V8Z" fill="white"/>
</clipPath>
<clipPath id="clip1_7013_221920">
<rect width="101.842" height="39.8227" fill="white" transform="translate(164.158 67.4219)"/>
</clipPath>
</defs>
</svg>
