<svg width="314" height="115" viewBox="0 0 314 115" fill="none" xmlns="http://www.w3.org/2000/svg">
<path d="M129.294 24.2676H247.163C248.801 24.2676 250.372 24.9183 251.531 26.0766C252.689 27.235 253.34 28.806 253.34 30.4441V105.909H123.117V30.4441C123.117 28.806 123.768 27.235 124.926 26.0766C126.085 24.9183 127.656 24.2676 129.294 24.2676Z" fill="#E2E2E2"/>
<path d="M102.719 99.2096C104.32 99.2096 105.618 97.9118 105.618 96.3109C105.618 94.7099 104.32 93.4121 102.719 93.4121C101.118 93.4121 99.8203 94.7099 99.8203 96.3109C99.8203 97.9118 101.118 99.2096 102.719 99.2096Z" fill="#AB91DF"/>
<path d="M110.885 99.2096C112.486 99.2096 113.784 97.9118 113.784 96.3109C113.784 94.7099 112.486 93.4121 110.885 93.4121C109.284 93.4121 107.986 94.7099 107.986 96.3109C107.986 97.9118 109.284 99.2096 110.885 99.2096Z" fill="#AB91DF"/>
<path d="M119.053 99.2096C120.654 99.2096 121.952 97.9118 121.952 96.3109C121.952 94.7099 120.654 93.4121 119.053 93.4121C117.452 93.4121 116.154 94.7099 116.154 96.3109C116.154 97.9118 117.452 99.2096 119.053 99.2096Z" fill="#AB91DF"/>
<path d="M127.219 99.2096C128.82 99.2096 130.118 97.9118 130.118 96.3109C130.118 94.7099 128.82 93.4121 127.219 93.4121C125.618 93.4121 124.32 94.7099 124.32 96.3109C124.32 97.9118 125.618 99.2096 127.219 99.2096Z" fill="#AB91DF"/>
<path d="M135.387 99.2096C136.988 99.2096 138.286 97.9118 138.286 96.3109C138.286 94.7099 136.988 93.4121 135.387 93.4121C133.786 93.4121 132.488 94.7099 132.488 96.3109C132.488 97.9118 133.786 99.2096 135.387 99.2096Z" fill="#AB91DF"/>
<path d="M143.553 99.2096C145.154 99.2096 146.452 97.9118 146.452 96.3109C146.452 94.7099 145.154 93.4121 143.553 93.4121C141.952 93.4121 140.654 94.7099 140.654 96.3109C140.654 97.9118 141.952 99.2096 143.553 99.2096Z" fill="#AB91DF"/>
<path d="M263.62 105.807H112.836V114.273H263.62V105.807Z" stroke="black" stroke-width="0.403166" stroke-miterlimit="10"/>
<path d="M169.582 13.6836H102.656V57.0239H169.582V13.6836Z" fill="#78E5E1"/>
<path opacity="0.68" d="M267.149 85.043H186.516V94.719H267.149V85.043Z" fill="#F8DA96"/>
<path d="M192.446 80.6096H186.516V70.9336H205.079" stroke="black" stroke-width="0.403166" stroke-miterlimit="10"/>
<path d="M267.149 70.9336V80.6096H245.408" stroke="black" stroke-width="0.403166" stroke-miterlimit="10"/>
<path d="M205.078 70.9336H243.949" stroke="black" stroke-width="0.403166" stroke-miterlimit="10"/>
<path d="M161.922 9.85352H94.9961V53.1939H161.922V9.85352Z" stroke="black" stroke-width="0.403166" stroke-miterlimit="10"/>
<path d="M202.441 105.203H174.018V110.847H202.441V105.203Z" fill="#E2E2E2"/>
<path d="M146.679 78.4477C147.01 78.4162 148.964 78.3315 149.265 78.0215C149.809 77.4598 149.16 73.3702 148.952 73.1959C148.744 73.0216 148.328 72.9538 148.226 73.1233C148.124 73.2927 147.945 74.9731 147.812 75.2104C147.679 75.4477 145.943 75.9973 145.492 75.9199" fill="#1F161E"/>
<path d="M140.156 82.0279C140.442 82.195 142.093 83.2507 142.515 83.1708C143.282 83.0231 145.105 79.2967 145.035 79.0546C144.965 78.8125 144.672 78.4856 144.483 78.5703C144.294 78.6551 143.188 79.919 142.943 80.0352C142.699 80.1514 140.963 79.6042 140.638 79.2822" fill="#1F161E"/>
<path d="M70.39 102.094C70.2133 102.743 69.3126 104.464 69.8598 107.217C71.0389 110.893 73.5111 111.515 74.6297 110.985C75.7484 110.455 72.8113 106.806 72.9808 102.389" fill="#EED0C3"/>
<path d="M105.843 68.5348C110.342 67.1329 141.613 76.835 142.175 77.45C142.737 78.0651 140.48 82.6074 139.652 82.6074C138.824 82.6074 127.485 79.2418 127.485 79.2418L88.502 90.7357C90.0346 88.4936 100.526 70.1958 105.843 68.5348Z" fill="#1F161E"/>
<path d="M109.58 68.854C111.182 68.854 112.481 67.7884 112.481 66.4739C112.481 65.1594 111.182 64.0938 109.58 64.0938C107.978 64.0938 106.68 65.1594 106.68 66.4739C106.68 67.7884 107.978 68.854 109.58 68.854Z" fill="#EED0C3"/>
<path d="M77.5312 93.2219C78.7734 99.0137 80.6184 102.607 83.7443 103.227C93.0397 104.796 112.708 89.9096 115.495 87.6578C118.158 87.0113 146.64 79.0549 146.844 78.7304C147.047 78.406 146.236 75.9435 145.713 75.7426C145.19 75.5416 118.333 77.561 117.071 77.8031C112.647 78.4011 85.8194 84.4132 77.5312 93.2219Z" fill="#EF9A9A"/>
<path d="M74.0488 58.494C74.0948 58.9226 77.5766 58.54 77.5306 58.1115L77.0464 53.7773L73.5742 54.1575L74.0488 58.494Z" fill="#EED0C3"/>
<path d="M76.2328 55.2098C75.8938 55.2485 73.8115 56.4471 73.8841 56.9822L73.5742 54.1565C74.1142 54.0984 76.2328 55.2098 76.2328 55.2098Z" fill="#1F161E"/>
<path d="M76.2468 55.4858C78.9601 55.4858 81.1596 53.2863 81.1596 50.573C81.1596 47.8597 78.9601 45.6602 76.2468 45.6602C73.5335 45.6602 71.334 47.8597 71.334 50.573C71.334 53.2863 73.5335 55.4858 76.2468 55.4858Z" fill="#EED0C3"/>
<path d="M80.966 51.5234C81.4392 51.4717 81.8011 51.2304 81.7742 50.9845C81.7473 50.7385 81.3418 50.5811 80.8686 50.6329C80.3954 50.6846 80.0335 50.9259 80.0604 51.1718C80.0873 51.4178 80.4927 51.5752 80.966 51.5234Z" fill="#EF9A9A"/>
<path d="M75.5871 52.1152C76.0603 52.0635 76.4221 51.8222 76.3953 51.5763C76.3684 51.3303 75.9629 51.1729 75.4897 51.2247C75.0164 51.2764 74.6546 51.5177 74.6815 51.7636C74.7084 52.0096 75.1138 52.167 75.5871 52.1152Z" fill="#EF9A9A"/>
<path d="M78.7285 50.3867C78.9125 50.595 79.8399 51.4642 79.0191 51.946" stroke="#1F161E" stroke-width="0.290556" stroke-miterlimit="10" stroke-linecap="round"/>
<path d="M77.4122 53.2555C77.1555 53.2749 76.7246 53.0134 76.4824 52.7422" stroke="#1F161E" stroke-width="0.290556" stroke-miterlimit="10" stroke-linecap="round"/>
<path d="M75.0316 44.0702C73.7798 44.4406 69.8839 44.92 68.7919 44.5496C68.5062 44.9055 67.6296 46.828 67.2204 49.0919L69.6175 50.0387L67.0873 49.9878C66.9294 51.1392 66.9861 52.3098 67.2543 53.4406C68.4384 54.6706 70.402 54.5278 70.7483 54.4285C72.9371 53.7844 72.327 50.2009 73.1986 49.3559C74.6781 47.9031 77.54 48.7578 80.1187 47.4987C80.172 46.058 78.0291 43.1791 75.0316 44.0702Z" fill="#1F161E"/>
<path d="M71.7918 52.7653C72.419 52.7653 72.9274 52.2569 72.9274 51.6297C72.9274 51.0026 72.419 50.4941 71.7918 50.4941C71.1647 50.4941 70.6562 51.0026 70.6562 51.6297C70.6562 52.2569 71.1647 52.7653 71.7918 52.7653Z" fill="#EED0C3"/>
<path d="M68.4864 63.7982C70.6583 56.9798 81.8665 56.8345 83.8786 57.5415C85.8907 58.2486 90.7866 70.1057 91.5493 70.3236C92.312 70.5415 106.724 64.3406 107.104 64.5585C107.484 64.7764 108.799 69.1275 108.571 69.7255C108.343 70.3236 91.6025 77.0137 91.0578 77.0766C91.2224 77.9483 93.1255 83.4422 92.7527 84.3648C92.3798 85.2873 83.1788 92.6335 77.5372 93.2316C76.5832 93.3212 75.2321 86.7618 75.2321 86.7618C75.2321 88.0669 74.634 102.643 74.2515 102.805C73.8689 102.968 69.7382 103.512 69.358 103.079C68.9779 102.646 68.2103 64.6529 68.4864 63.7982Z" fill="#FFCC80"/>
<path d="M75.2852 86.8596L77.8953 65.4844" stroke="#1F161E" stroke-width="0.133172" stroke-miterlimit="10" stroke-linecap="round"/>
<path d="M92.7458 84.3559C92.2615 80.2227 89.1138 69.8886 88.8281 68.8789" stroke="#1F161E" stroke-width="0.133172" stroke-miterlimit="10" stroke-linecap="round"/>
<path d="M270.22 56.3887C269.795 58.416 266.708 83.5634 267.717 89.5697C268.727 95.5761 285.185 108.162 285.906 108.382C286.746 107.765 287.982 105.745 287.982 105.745C287.982 105.745 275.914 91.7549 275.684 91.1939C275.454 90.6329 278.327 58.2363 278.327 58.2363L270.22 56.3887Z" fill="#1F161E"/>
<path d="M289.874 60.967L277.561 111.19H273.414L277.616 58.7969L289.874 60.967Z" fill="#EF5350"/>
<path d="M281.129 32.2109C282.828 32.2109 291.695 32.4982 293.297 35.6189C294.9 38.7397 293.39 53.1643 292.394 53.7236C291.856 54.0243 291.71 53.732 291.554 54.3434C291.398 54.9548 289.874 60.9662 289.874 60.9662C288.907 60.9931 274.801 58.8683 270.223 56.3842C270.25 55.6938 270.471 53.8983 270.471 53.7606C269.863 54.0092 269.128 54.0612 268.926 53.7606C267.139 51.0547 269.803 36.9475 271.714 34.1089C272.527 32.8912 278.401 32.2193 281.129 32.2109Z" fill="#FFF3E0"/>
<path d="M286.967 54.1137C287.383 54.1137 290.969 56.6332 290.662 57.8711C290.914 56.8767 291.707 53.8047 291.707 53.8047C291.366 53.8702 287.272 54.1188 286.967 54.1137Z" fill="#1F161E"/>
<path d="M283.324 33.8572C283.324 34.4048 279.006 34.4048 279.006 33.8572V28.3145H283.324V33.8572Z" fill="#EED0C3"/>
<path d="M280.846 29.6262C281.182 29.6262 283.323 30.5736 283.323 31.101V28.3145C282.789 28.3145 280.846 29.6262 280.846 29.6262Z" fill="#1F161E"/>
<path d="M280.255 30.0304C282.575 30.0304 284.456 28.1497 284.456 25.8297C284.456 23.5096 282.575 21.6289 280.255 21.6289C277.935 21.6289 276.055 23.5096 276.055 25.8297C276.055 28.1497 277.935 30.0304 280.255 30.0304Z" fill="#EED0C3"/>
<path d="M278.834 19.6895C276.678 19.6895 275.334 21.0432 275.334 22.7783C275.334 24.2211 275.683 25.0374 276.095 25.244C276.355 23.8432 276.921 23.1948 277.39 22.916C277.754 23.1948 278.377 23.8701 279.211 24.0783C280.044 24.2866 282.212 24.2463 283.964 25.5194C284.537 24.9988 285.108 24.3219 285.108 23.524C285.108 22.7262 284.755 21.7252 282.681 21.1474C281.31 20.7661 281.119 19.6895 278.834 19.6895Z" fill="#1F161E"/>
<path d="M276.329 27.0784C276.736 27.0784 277.065 26.907 277.065 26.6955C277.065 26.484 276.736 26.3125 276.329 26.3125C275.923 26.3125 275.594 26.484 275.594 26.6955C275.594 26.907 275.923 27.0784 276.329 27.0784Z" fill="#EF9A9A"/>
<path d="M280.958 27.0784C281.365 27.0784 281.694 26.907 281.694 26.6955C281.694 26.484 281.365 26.3125 280.958 26.3125C280.552 26.3125 280.223 26.484 280.223 26.6955C280.223 26.907 280.552 27.0784 280.958 27.0784Z" fill="#EF9A9A"/>
<path d="M278.127 25.9004C277.989 26.0969 277.287 26.9216 278.027 27.2542" stroke="#1F161E" stroke-width="0.167963" stroke-miterlimit="10" stroke-linecap="round"/>
<path d="M279.512 28.2177C279.733 28.2177 280.074 27.9422 280.254 27.6953" stroke="#1F161E" stroke-width="0.167963" stroke-miterlimit="10" stroke-linecap="round"/>
<path d="M284.139 27.2854C284.675 27.2854 285.11 26.8507 285.11 26.3146C285.11 25.7784 284.675 25.3438 284.139 25.3438C283.603 25.3438 283.168 25.7784 283.168 26.3146C283.168 26.8507 283.603 27.2854 284.139 27.2854Z" fill="#EED0C3"/>
<path d="M287.064 40.4766C286.989 41.4037 286.693 45.9857 286.804 46.5887C285.395 47.0792 272.492 53.1981 270.26 53.8699" stroke="#1F161E" stroke-width="0.167963" stroke-miterlimit="10" stroke-linecap="round"/>
<path d="M272.081 39.0293C271.783 40.0673 270.782 44.7787 271.486 46.9672" stroke="#1F161E" stroke-width="0.167963" stroke-miterlimit="10" stroke-linecap="round"/>
<path d="M275.373 51.7266C276.045 52.1985 282.485 55.0489 291.388 53.9739" stroke="#1F161E" stroke-width="0.167963" stroke-miterlimit="10" stroke-linecap="round"/>
<path d="M274.756 46.9684C275.188 47.0373 273.78 45.9136 272.983 46.3318C272.185 46.7501 271.11 48.643 271.33 49.0814C271.36 49.1609 271.407 49.2329 271.468 49.2918C271.529 49.3507 271.602 49.3952 271.683 49.422C271.764 49.4487 271.849 49.4571 271.933 49.4464C272.018 49.4357 272.098 49.4062 272.17 49.3602C272.386 49.2208 274.004 46.8475 274.756 46.9684Z" fill="#EED0C3"/>
<path d="M287.845 105.951C288.075 106.119 290.116 107.5 290.132 108.37C290.149 109.24 288.231 112.124 287.845 112.206C287.458 112.288 287.183 111.963 287.183 111.38C287.183 110.797 287.912 109.776 287.814 109.322C287.717 108.869 286.775 108.039 286.291 108.024" fill="#1F161E"/>
<path d="M277.168 111.189C277.168 111.589 277.4 114.099 276.936 114.332C276.472 114.566 271.356 114.703 271.124 114.471C270.893 114.24 270.752 113.751 270.956 113.611C271.161 113.472 273.14 113.076 273.409 112.891C273.677 112.706 274.049 111.715 273.913 111.189" fill="#1F161E"/>
</svg>
