<svg width="586" height="160" viewBox="0 0 586 160" fill="none" xmlns="http://www.w3.org/2000/svg">
<g clip-path="url(#clip0_8997_281163)">
<path d="M157.327 41.0488H313.102C315.267 41.0488 317.343 41.9088 318.874 43.4397C320.404 44.9705 321.264 47.0467 321.264 49.2116V148.945H149.164V49.2116C149.164 47.0467 150.024 44.9705 151.555 43.4397C153.086 41.9088 155.162 41.0488 157.327 41.0488Z" fill="#E2E2E2"/>
<path d="M122.206 140.092C124.322 140.092 126.037 138.376 126.037 136.261C126.037 134.145 124.322 132.43 122.206 132.43C120.09 132.43 118.375 134.145 118.375 136.261C118.375 138.376 120.09 140.092 122.206 140.092Z" fill="#AB91DF"/>
<path d="M132.999 140.092C135.115 140.092 136.83 138.376 136.83 136.261C136.83 134.145 135.115 132.43 132.999 132.43C130.883 132.43 129.168 134.145 129.168 136.261C129.168 138.376 130.883 140.092 132.999 140.092Z" fill="#AB91DF"/>
<path d="M143.794 140.092C145.91 140.092 147.625 138.376 147.625 136.261C147.625 134.145 145.91 132.43 143.794 132.43C141.678 132.43 139.963 134.145 139.963 136.261C139.963 138.376 141.678 140.092 143.794 140.092Z" fill="#AB91DF"/>
<path d="M154.585 140.092C156.701 140.092 158.416 138.376 158.416 136.261C158.416 134.145 156.701 132.43 154.585 132.43C152.469 132.43 150.754 134.145 150.754 136.261C150.754 138.376 152.469 140.092 154.585 140.092Z" fill="#AB91DF"/>
<path d="M165.38 140.092C167.496 140.092 169.211 138.376 169.211 136.261C169.211 134.145 167.496 132.43 165.38 132.43C163.264 132.43 161.549 134.145 161.549 136.261C161.549 138.376 163.264 140.092 165.38 140.092Z" fill="#AB91DF"/>
<path d="M176.173 140.092C178.289 140.092 180.004 138.376 180.004 136.261C180.004 134.145 178.289 132.43 176.173 132.43C174.057 132.43 172.342 134.145 172.342 136.261C172.342 138.376 174.057 140.092 176.173 140.092Z" fill="#AB91DF"/>
<path d="M334.852 148.811H135.578V160H334.852V148.811Z" stroke="black" stroke-width="0.532819" stroke-miterlimit="10"/>
<path d="M210.571 27.0625H122.123V84.3405H210.571V27.0625Z" fill="#78E5E1"/>
<path opacity="0.68" d="M339.513 121.371H232.949V134.159H339.513V121.371Z" fill="#F8DA96"/>
<path d="M240.787 115.51H232.949V102.723H257.483" stroke="black" stroke-width="0.532819" stroke-miterlimit="10"/>
<path d="M339.513 102.723V115.51H310.781" stroke="black" stroke-width="0.532819" stroke-miterlimit="10"/>
<path d="M257.484 102.723H308.856" stroke="black" stroke-width="0.532819" stroke-miterlimit="10"/>
<path d="M200.448 22H112V79.278H200.448V22Z" stroke="black" stroke-width="0.532819" stroke-miterlimit="10"/>
<path d="M253.995 148.012H216.432V155.471H253.995V148.012Z" fill="#E2E2E2"/>
<path d="M180.3 112.654C180.739 112.613 183.321 112.501 183.718 112.091C184.438 111.349 183.58 105.944 183.305 105.714C183.03 105.483 182.48 105.394 182.345 105.618C182.211 105.842 181.974 108.062 181.798 108.376C181.622 108.69 179.328 109.416 178.732 109.314" fill="#1F161E"/>
<path d="M171.682 117.388C172.059 117.609 174.242 119.004 174.798 118.899C175.813 118.704 178.222 113.779 178.13 113.459C178.037 113.139 177.65 112.707 177.4 112.819C177.15 112.931 175.688 114.601 175.365 114.755C175.042 114.908 172.747 114.185 172.318 113.76" fill="#1F161E"/>
<path d="M79.4799 143.906C79.2463 144.764 78.0559 147.039 78.7791 150.677C80.3375 155.535 83.6046 156.357 85.083 155.657C86.5614 154.956 82.6798 150.133 82.9038 144.297" fill="#EED0C3"/>
<path d="M126.334 99.5539C132.28 97.7011 173.607 110.523 174.35 111.336C175.092 112.149 172.11 118.152 171.015 118.152C169.921 118.152 154.935 113.704 154.935 113.704L103.416 128.894C105.442 125.931 119.307 101.749 126.334 99.5539Z" fill="#1F161E"/>
<path d="M131.275 99.9767C133.392 99.9767 135.109 98.5684 135.109 96.8311C135.109 95.0939 133.392 93.6855 131.275 93.6855C129.158 93.6855 127.441 95.0939 127.441 96.8311C127.441 98.5684 129.158 99.9767 131.275 99.9767Z" fill="#EED0C3"/>
<path d="M88.916 132.182C90.5576 139.836 92.996 144.585 97.1271 145.404C109.412 147.477 135.405 127.804 139.088 124.828C142.608 123.974 180.249 113.459 180.518 113.03C180.787 112.601 179.715 109.347 179.024 109.081C178.333 108.815 142.839 111.484 141.171 111.804C135.325 112.595 99.8695 120.54 88.916 132.182Z" fill="#EF9A9A"/>
<path d="M84.3147 86.2843C84.3755 86.8507 88.977 86.3451 88.9162 85.7787L88.2762 80.0508L83.6875 80.5532L84.3147 86.2843Z" fill="#EED0C3"/>
<path d="M87.2011 81.9457C86.7531 81.9969 84.0011 83.5809 84.0971 84.288L83.6875 80.5537C84.4011 80.4769 87.2011 81.9457 87.2011 81.9457Z" fill="#1F161E"/>
<path d="M87.2212 82.3097C90.8071 82.3097 93.714 79.4028 93.714 75.8169C93.714 72.2311 90.8071 69.3242 87.2212 69.3242C83.6354 69.3242 80.7285 72.2311 80.7285 75.8169C80.7285 79.4028 83.6354 82.3097 87.2212 82.3097Z" fill="#EED0C3"/>
<path d="M93.4584 77.0727C94.0838 77.0043 94.562 76.6854 94.5265 76.3604C94.4909 76.0354 93.9551 75.8273 93.3297 75.8957C92.7043 75.9641 92.2261 76.283 92.2616 76.608C92.2971 76.933 92.833 77.1411 93.4584 77.0727Z" fill="#EF9A9A"/>
<path d="M86.349 77.8539C86.9744 77.7855 87.4526 77.4666 87.4171 77.1416C87.3816 76.8166 86.8458 76.6086 86.2203 76.677C85.5949 76.7453 85.1167 77.0643 85.1522 77.3893C85.1878 77.7143 85.7236 77.9223 86.349 77.8539Z" fill="#EF9A9A"/>
<path d="M90.5 75.5703C90.7432 75.8455 91.9688 76.9943 90.884 77.6311" stroke="#1F161E" stroke-width="0.383995" stroke-miterlimit="10" stroke-linecap="round"/>
<path d="M88.76 79.362C88.4208 79.3876 87.8512 79.042 87.5312 78.6836" stroke="#1F161E" stroke-width="0.383995" stroke-miterlimit="10" stroke-linecap="round"/>
<path d="M85.6144 67.2218C83.96 67.7114 78.8113 68.345 77.3681 67.8554C76.9905 68.3258 75.8321 70.8665 75.2913 73.8585L78.4593 75.1097L75.1153 75.0425C74.9067 76.5641 74.9816 78.1112 75.3361 79.6056C76.9009 81.2312 79.4961 81.0424 79.9537 80.9112C82.8464 80.06 82.04 75.3241 83.192 74.2073C85.1472 72.2873 88.9296 73.4169 92.3375 71.7529C92.4079 69.8489 89.576 66.0442 85.6144 67.2218Z" fill="#1F161E"/>
<path d="M81.3328 78.7125C82.1617 78.7125 82.8336 78.0406 82.8336 77.2117C82.8336 76.3829 82.1617 75.7109 81.3328 75.7109C80.504 75.7109 79.832 76.3829 79.832 77.2117C79.832 78.0406 80.504 78.7125 81.3328 78.7125Z" fill="#EED0C3"/>
<path d="M76.9642 93.2954C79.8346 84.2843 94.6472 84.0923 97.3063 85.0267C99.9655 85.9611 106.436 101.631 107.444 101.919C108.452 102.207 127.498 94.0122 128 94.3002C128.503 94.5882 130.24 100.339 129.94 101.129C129.639 101.919 107.514 110.761 106.794 110.844C107.012 111.996 109.527 119.257 109.034 120.476C108.541 121.695 96.3816 131.404 88.9256 132.194C87.6649 132.313 85.8793 123.644 85.8793 123.644C85.8793 125.369 85.0889 144.632 84.5833 144.847C84.0777 145.061 78.6186 145.781 78.1162 145.208C77.6138 144.636 76.5994 94.425 76.9642 93.2954Z" fill="#FFCC80"/>
<path d="M85.9492 123.771L89.3988 95.5215" stroke="#1F161E" stroke-width="0.175998" stroke-miterlimit="10" stroke-linecap="round"/>
<path d="M109.025 120.462C108.385 115 104.225 101.342 103.848 100.008" stroke="#1F161E" stroke-width="0.175998" stroke-miterlimit="10" stroke-linecap="round"/>
<path d="M343.574 83.502C343.012 86.1812 338.932 119.416 340.266 127.354C341.601 135.291 363.352 151.924 364.304 152.215C365.414 151.4 367.048 148.73 367.048 148.73C367.048 148.73 351.099 130.242 350.795 129.5C350.491 128.759 354.289 85.9437 354.289 85.9437L343.574 83.502Z" fill="#1F161E"/>
<path d="M369.551 89.5515L353.277 155.925H347.797L353.351 86.6836L369.551 89.5515Z" fill="#EF5350"/>
<path d="M357.992 51.5488C360.239 51.5488 371.957 51.9284 374.075 56.0527C376.192 60.1771 374.197 79.2405 372.88 79.9797C372.17 80.377 371.977 79.9908 371.771 80.7988C371.564 81.6068 369.551 89.5514 369.551 89.5514C368.272 89.5869 349.631 86.7789 343.579 83.4958C343.615 82.5835 343.908 80.2106 343.908 80.0285C343.104 80.3571 342.132 80.4259 341.866 80.0285C339.504 76.4525 343.025 57.8086 345.551 54.0572C346.625 52.4478 354.388 51.5599 357.992 51.5488Z" fill="#FFF3E0"/>
<path d="M365.707 80.4944C366.258 80.4944 370.997 83.824 370.591 85.46C370.924 84.1459 371.971 80.0859 371.971 80.0859C371.521 80.1725 366.111 80.501 365.707 80.4944Z" fill="#1F161E"/>
<path d="M360.893 53.7237C360.893 54.4473 355.186 54.4473 355.186 53.7237V46.3984H360.893V53.7237Z" fill="#EED0C3"/>
<path d="M357.619 48.1321C358.063 48.1321 360.893 49.384 360.893 50.081V46.3984C360.187 46.3984 357.619 48.1321 357.619 48.1321Z" fill="#1F161E"/>
<path d="M356.837 48.6678C359.903 48.6678 362.388 46.1822 362.388 43.1161C362.388 40.05 359.903 37.5645 356.837 37.5645C353.771 37.5645 351.285 40.05 351.285 43.1161C351.285 46.1822 353.771 48.6678 356.837 48.6678Z" fill="#EED0C3"/>
<path d="M354.96 35C352.11 35 350.334 36.7891 350.334 39.0822C350.334 40.989 350.796 42.0678 351.34 42.3408C351.684 40.4895 352.432 39.6327 353.051 39.2642C353.533 39.6327 354.356 40.525 355.457 40.8003C356.558 41.0755 359.424 41.0222 361.739 42.7048C362.496 42.0167 363.251 41.1221 363.251 40.0677C363.251 39.0134 362.785 37.6904 360.043 36.9268C358.232 36.4229 357.979 35 354.96 35Z" fill="#1F161E"/>
<path d="M351.65 44.7642C352.187 44.7642 352.622 44.5376 352.622 44.2581C352.622 43.9785 352.187 43.752 351.65 43.752C351.113 43.752 350.678 43.9785 350.678 44.2581C350.678 44.5376 351.113 44.7642 351.65 44.7642Z" fill="#EF9A9A"/>
<path d="M357.765 44.7642C358.302 44.7642 358.737 44.5376 358.737 44.2581C358.737 43.9785 358.302 43.752 357.765 43.752C357.228 43.752 356.793 43.9785 356.793 44.2581C356.793 44.5376 357.228 44.7642 357.765 44.7642Z" fill="#EF9A9A"/>
<path d="M354.026 43.209C353.844 43.4687 352.916 44.5586 353.895 44.9981" stroke="#1F161E" stroke-width="0.221977" stroke-miterlimit="10" stroke-linecap="round"/>
<path d="M355.854 46.2724C356.147 46.2724 356.597 45.9083 356.835 45.582" stroke="#1F161E" stroke-width="0.221977" stroke-miterlimit="10" stroke-linecap="round"/>
<path d="M361.969 45.0387C362.677 45.0387 363.252 44.4643 363.252 43.7557C363.252 43.0471 362.677 42.4727 361.969 42.4727C361.26 42.4727 360.686 43.0471 360.686 43.7557C360.686 44.4643 361.26 45.0387 361.969 45.0387Z" fill="#EED0C3"/>
<path d="M365.836 62.4727C365.736 63.698 365.345 69.7535 365.492 70.5504C363.629 71.1986 346.577 79.2852 343.627 80.1731" stroke="#1F161E" stroke-width="0.221977" stroke-miterlimit="10" stroke-linecap="round"/>
<path d="M346.031 60.5605C345.638 61.9324 344.315 68.1588 345.245 71.0512" stroke="#1F161E" stroke-width="0.221977" stroke-miterlimit="10" stroke-linecap="round"/>
<path d="M350.385 77.3398C351.273 77.9636 359.783 81.7306 371.55 80.3099" stroke="#1F161E" stroke-width="0.221977" stroke-miterlimit="10" stroke-linecap="round"/>
<path d="M349.569 71.0509C350.139 71.1419 348.279 69.6568 347.225 70.2096C346.17 70.7623 344.75 73.264 345.04 73.8433C345.08 73.9485 345.142 74.0435 345.223 74.1214C345.303 74.1993 345.401 74.2581 345.507 74.2935C345.614 74.3288 345.727 74.3398 345.838 74.3257C345.949 74.3116 346.056 74.2727 346.15 74.2118C346.437 74.0276 348.574 70.891 349.569 71.0509Z" fill="#EED0C3"/>
<path d="M366.866 149.004C367.17 149.226 369.867 151.051 369.889 152.2C369.911 153.35 367.376 157.162 366.866 157.27C366.355 157.379 365.991 156.948 365.991 156.178C365.991 155.408 366.955 154.058 366.826 153.459C366.697 152.86 365.452 151.763 364.812 151.743" fill="#1F161E"/>
<path d="M352.758 155.924C352.758 156.452 353.064 159.768 352.451 160.077C351.839 160.386 345.077 160.568 344.771 160.261C344.465 159.955 344.278 159.309 344.549 159.125C344.82 158.94 347.435 158.417 347.79 158.172C348.145 157.928 348.635 156.619 348.456 155.924" fill="#1F161E"/>
</g>
<defs>
<clipPath id="clip0_8997_281163">
<rect width="586" height="160" fill="white"/>
</clipPath>
</defs>
</svg>
