<svg width="205" height="196" viewBox="0 0 205 196" fill="none" xmlns="http://www.w3.org/2000/svg">
    <g clip-path="url(#nu523kio8a)">
        <path d="M120.989 53.495H1.011c-.558 0-1.011.46-1.011 1.03v.635c0 .568.453 1.03 1.01 1.03H120.99A1.02 1.02 0 0 0 122 55.16v-.636a1.02 1.02 0 0 0-1.011-1.029z" fill="#D8D8D8"/>
        <path d="M51.69 0H44.4c-1.162 0-2.104.959-2.104 2.142v49.211c0 1.183.942 2.142 2.104 2.142h7.29c1.161 0 2.103-.959 2.103-2.142V2.142C53.793.959 52.85 0 51.689 0z" fill="#969696"/>
        <path d="M57.795 12.541h-2.252c-.966 0-1.75.798-1.75 1.782v37.39c0 .984.784 1.782 1.75 1.782h2.252c.967 0 1.75-.798 1.75-1.782v-37.39c0-.984-.783-1.782-1.75-1.782z" fill="#D8D8D8"/>
        <path d="M63.605 12.541h-2.367c-.935 0-1.693.772-1.693 1.723v37.507c0 .952.758 1.724 1.693 1.724h2.367c.935 0 1.693-.772 1.693-1.724V14.264c0-.951-.758-1.723-1.693-1.723z" fill="#969696"/>
        <path d="m67.781 15.495-1.942.908c-.907.424-1.305 1.517-.888 2.44l15.274 33.874a1.795 1.795 0 0 0 2.398.905l1.941-.908c.908-.424 1.306-1.517.89-2.44L70.177 16.4a1.795 1.795 0 0 0-2.397-.905zM48.04 39.958c1.775 0 3.214-1.465 3.214-3.272 0-1.806-1.439-3.271-3.213-3.271-1.775 0-3.213 1.465-3.213 3.271 0 1.807 1.438 3.272 3.213 3.272zM50.958 41.907H45.14a.78.78 0 0 0-.773.787.78.78 0 0 0 .773.786h5.818a.78.78 0 0 0 .772-.786.78.78 0 0 0-.772-.787zM50.958 45.94H45.14a.78.78 0 0 0-.773.787.78.78 0 0 0 .773.786h5.818a.78.78 0 0 0 .772-.786.78.78 0 0 0-.772-.787z" fill="#D8D8D8"/>
        <path d="M57.27 18.724a.605.605 0 0 0-.6-.61c-.332 0-.6.273-.6.61v28.58c0 .337.268.61.6.61.33 0 .6-.273.6-.61v-28.58z" fill="#969696"/>
        <path d="M32.033 54.842h-5.145c-1.13 0-2.046.933-2.046 2.083 0 1.15.916 2.083 2.047 2.083h5.144c1.13 0 2.046-.932 2.046-2.083 0-1.15-.916-2.083-2.046-2.083zM95.112 54.842h-5.144c-1.13 0-2.047.933-2.047 2.083 0 1.15.916 2.083 2.047 2.083h5.144c1.13 0 2.046-.932 2.046-2.083 0-1.15-.916-2.083-2.046-2.083z" fill="#D8D8D8"/>
    </g>
    <g clip-path="url(#f7059mgf3b)">
        <path d="M115.384 59.254c-1.113 0-10.787 3.724-9.214 13.671.411 2.97 2.686 4.364 3.507 4.249.822-.115 4.9-12.382 6.649-11.997 1.748.385-.942-5.923-.942-5.923z" fill="#EED0C3"/>
        <path d="M194.744 132.078c-2.229 5.559-52.481.72-54.054 2.774-1.573 2.055-9.068 51.876-10.035 52.596-.967.719-8.227 0-9.314-.725-1.087-.725-.361-59.238 1.087-61.168 1.448-1.929 23.583-16.405 50.668-15.56 27.084.844 21.648 22.083 21.648 22.083z" fill="#1F161E"/>
        <path d="M143.521 52.556c8.477-5.774 39.349-19.995 42.967-18.255 12.525 6.083 19.94 71.689 18.282 77.258-1.659 5.568-43.448-10.237-43.448-10.237s-.757-33.99-.15-38.23c-3.472.905-18.708 3.914-45.562 3a8.942 8.942 0 0 1-.592-8.768c3.763-1.56 23.548-3.814 28.503-4.768z" fill="#C7C9E3"/>
        <path d="M128.601 184.448c.365.735 2.725 4.949 2.46 5.999-.501 1.869-9.92 5.798-10.562 5.583-.641-.215-1.347-1-1.092-1.43.256-.43 3.507-2.999 3.848-3.569.341-.569.105-2.734-.641-3.584" fill="#1F161E"/>
        <path d="M141.883 121.171c-.081.815-.346 5.633-1.123 6.368-1.403 1.325-11.488-.39-11.919-.91-.431-.52-.611-1.549-.155-1.789.456-.24 4.579-.645 5.165-.97.587-.325 1.554-2.254 1.373-3.369" fill="#332832"/>
        <path d="M176.112 38.764c-.046 1.405 7.725 1.745 7.77.235l.276-9.427-7.771-.235-.275 9.427z" fill="#EED0C3"/>
        <path d="M177.038 32.541c5.579 0 10.101-4.512 10.101-10.077 0-5.566-4.522-10.077-10.101-10.077-5.578 0-10.1 4.511-10.1 10.077 0 5.565 4.522 10.077 10.1 10.077z" fill="#EED0C3"/>
        <path d="M168.482 23.562c.015-.483-.727-.897-1.656-.925-.929-.028-1.695.34-1.709.824-.015.483.727.897 1.656.925.929.028 1.694-.341 1.709-.824zM179.068 23.881c.014-.483-.727-.897-1.657-.925-.929-.028-1.694.341-1.709.824-.014.483.727.897 1.656.925.93.028 1.695-.34 1.71-.824z" fill="#FA9E9F"/>
        <path d="M170.956 21.814c-.325.44-2.004 2.275-.315 3.085M173.967 27.203c.501 0 1.308-.59 1.739-1.144" stroke="#1F161E" stroke-width=".69" stroke-miterlimit="10" stroke-linecap="round"/>
        <path d="M186.237 26.633c1.363-1.28 2.115-12.911.902-13.916a4.867 4.867 0 0 0-2.981-.925S174.569 2 170.43 2c-4.138 0-3.637 2.5-3.637 3.764 0 1.265 1.137 9.162 2.7 9.997a11.914 11.914 0 0 1 3.047-2.33c.591.77 5.896 5.944 10.706 7.469 1.348 2.294 2.991 5.733 2.991 5.733z" fill="#000"/>
        <path d="M175.06 61.628c-3.352.54-13.397 1.94-13.397 1.94" stroke="#1F161E" stroke-width=".55" stroke-miterlimit="10" stroke-linecap="round"/>
        <path d="M189.478 134.198c11.839 0 15.532-12.792 15.532-22.539 0-5.128-51.053-46.847-55.277-46.847-12.465 0-16.228 53.35-16.228 55.62 0 2.269 8.703 2.344 9.645 1.954.626-1.719 8.387-24.873 8.387-24.873 1.012 1.8 17.475 36.685 37.941 36.685z" fill="#7DBF9D"/>
    </g>
    <defs>
        <clipPath id="nu523kio8a">
            <path fill="#fff" d="M0 0h122v59H0z"/>
        </clipPath>
        <clipPath id="f7059mgf3b">
            <path fill="#fff" transform="translate(106 2)" d="M0 0h99v194H0z"/>
        </clipPath>
    </defs>
</svg>
