<svg width="440" height="160" viewBox="0 0 440 160" fill="none" xmlns="http://www.w3.org/2000/svg">
<g clip-path="url(#clip0_7013_221849)">
<rect width="440" height="160" fill="#E3F2EB"/>
<g clip-path="url(#clip1_7013_221849)">
<path d="M298.917 56.082H125.082V170.439H298.917V56.082Z" stroke="black" stroke-width="0.164851" stroke-miterlimit="10"/>
<path d="M125.082 62.1621H298.917" stroke="black" stroke-width="0.164851" stroke-miterlimit="10"/>
<path d="M243.198 72.3477H138.221V124.597H243.198V72.3477Z" fill="#F2F2F2"/>
<path d="M140.586 132.953H220.44" stroke="black" stroke-width="0.164851" stroke-miterlimit="10"/>
<path d="M140.586 140.84H220.44" stroke="black" stroke-width="0.164851" stroke-miterlimit="10"/>
<path d="M140.586 148.729H220.44" stroke="black" stroke-width="0.164851" stroke-miterlimit="10"/>
<path d="M140.586 156.615H220.44" stroke="black" stroke-width="0.164851" stroke-miterlimit="10"/>
<path d="M128.86 60.682C129.676 60.682 130.338 60.02 130.338 59.2033C130.338 58.3867 129.676 57.7246 128.86 57.7246C128.043 57.7246 127.381 58.3867 127.381 59.2033C127.381 60.02 128.043 60.682 128.86 60.682Z" fill="#AB8DE5"/>
<path d="M133.953 60.682C134.77 60.682 135.432 60.02 135.432 59.2033C135.432 58.3867 134.77 57.7246 133.953 57.7246C133.137 57.7246 132.475 58.3867 132.475 59.2033C132.475 60.02 133.137 60.682 133.953 60.682Z" fill="#73E5E2"/>
<path d="M139.049 60.682C139.866 60.682 140.528 60.02 140.528 59.2033C140.528 58.3867 139.866 57.7246 139.049 57.7246C138.232 57.7246 137.57 58.3867 137.57 59.2033C137.57 60.02 138.232 60.682 139.049 60.682Z" fill="#50B89D"/>
<path d="M198.951 98.4237L183.096 89.2695V107.578L198.951 98.4237Z" fill="#AF92FC"/>
<path d="M293.312 72.3145H248.967V97.0421H293.312V72.3145Z" fill="#F2F2F2"/>
<path d="M293.312 103.967H248.967V128.694H293.312V103.967Z" fill="#F2F2F2"/>
<path d="M293.312 135.617H248.967V160.345H293.312V135.617Z" fill="#F2F2F2"/>
</g>
<g clip-path="url(#clip2_7013_221849)">
<path d="M221.434 43.9735C221.434 43.9735 227.351 39.1232 228.078 39.1232C228.805 39.1232 254.379 59.4266 258.456 64.7036C260.376 64.4658 265.013 63.1054 265.013 63.1054C265.013 63.1054 235.904 22.9707 232.386 22.9707C228.868 22.9707 200.809 34.4862 200.809 34.4862L203.127 42.7181L221.434 43.9735Z" fill="#1F161E"/>
<path d="M152.617 22.6004C155.587 22.6004 157.995 20.1925 157.995 17.2221C157.995 14.2517 155.587 11.8438 152.617 11.8438C149.646 11.8438 147.238 14.2517 147.238 17.2221C147.238 20.1925 149.646 22.6004 152.617 22.6004Z" fill="#EED0C3"/>
<path d="M172.57 32.2446C173.441 33.1887 180.848 43.5013 180.778 44.8092C180.708 46.117 173.731 64.8503 173.151 65.5777C173.952 66.375 177.218 68.3368 178.019 68.3368C178.819 68.3368 198.497 43.7916 198.497 42.1095C198.497 40.4275 186.324 21.0298 179.302 20.5332" fill="#FB8C00"/>
<path d="M142.609 11.0468C142.609 6.44478 146.515 4.8152 148.621 4.8152C152.772 4.8152 158.975 6.70356 163.535 6.70356C171.278 6.70356 175.946 1 180.688 1C188.245 1 192.298 6.05312 194.288 7.44841C198.309 10.267 212.014 12.2812 212.014 22.0133C212.014 30.9271 207.733 35.7529 202.499 35.7529C197.264 35.7529 170.428 26.2446 170.428 26.2446C170.428 26.2446 161.825 22.8875 161.245 22.1567C160.664 21.4258 156.989 19.6389 157.185 14.0157C156.241 13.3478 151.219 15.5614 148.365 13.9178C147.736 14.8101 147.353 15.852 147.253 16.9392C146.561 16.9637 142.609 15.8516 142.609 11.0468Z" fill="#1F161E"/>
<path d="M146.427 34.9452C149.574 24.4963 170.741 19.4432 177.309 19.5586C183.876 19.674 180.515 27.1085 201.899 32.9555C204.127 35.753 205.91 51.7762 203.903 56.567H144.993C144.993 56.567 144.629 38.1555 146.427 34.9452Z" fill="#FB8C00"/>
<path d="M162.751 24.0801C163.478 24.9928 160.37 27.4337 159.66 26.528L154.533 20.0866L157.628 17.6387L162.751 24.0801Z" fill="#EED0C3"/>
<path d="M259.152 64.102C259.296 64.5986 260.006 67.5605 260.569 67.9277C261.59 68.5921 267.643 66.3925 267.849 66.0183C268.056 65.6442 268.052 64.9902 267.744 64.8923C267.437 64.7944 264.835 65.0077 264.436 64.8713C264.038 64.7349 263.219 63.6474 263.202 62.9375" fill="#1F161E"/>
<path d="M291.262 51.2384C291.779 51.2384 294.815 50.9971 295.336 51.4203C296.28 52.1896 296.035 58.6275 295.734 58.9388C295.434 59.25 294.815 59.4458 294.626 59.18C294.437 58.9143 293.853 56.3825 293.601 56.0328C293.349 55.6831 292.066 55.2494 291.384 55.4488" fill="#1F161E"/>
<path d="M148.194 20.701C148.738 20.361 149.035 19.8557 148.858 19.5724C148.681 19.2891 148.096 19.3352 147.553 19.6753C147.009 20.0153 146.712 20.5206 146.889 20.8039C147.066 21.0872 147.651 21.0411 148.194 20.701Z" fill="#EF9A9A"/>
<path d="M154.374 16.8358C154.918 16.4957 155.215 15.9904 155.037 15.7072C154.86 15.4239 154.276 15.47 153.732 15.81C153.189 16.1501 152.892 16.6554 153.069 16.9387C153.246 17.2219 153.83 17.1759 154.374 16.8358Z" fill="#EF9A9A"/>
<path d="M149.607 17.6289C149.586 18.0066 149.33 19.6991 150.607 19.5208" stroke="#1F161E" stroke-width="0.241291" stroke-miterlimit="10" stroke-linecap="round"/>
<path d="M153.395 19.5645C153.685 19.3721 153.916 18.7287 153.951 18.2461" stroke="#1F161E" stroke-width="0.241291" stroke-miterlimit="10" stroke-linecap="round"/>
<path d="M156.817 15.4486C157.597 15.4486 158.23 14.8161 158.23 14.0358C158.23 13.2556 157.597 12.623 156.817 12.623C156.037 12.623 155.404 13.2556 155.404 14.0358C155.404 14.8161 156.037 15.4486 156.817 15.4486Z" fill="#EED0C3"/>
<path d="M140.553 58.067C139.294 56.4165 139 52.5313 139 49.8282C139.902 41.1312 142.147 33.5568 146.76 25.4787C147.319 24.615 149.466 24.8913 149.865 25.4787C151.183 30.8886 153.687 48.251 146.232 58.2104C144.378 58.2104 142.112 58.067 140.553 58.067Z" fill="#FB8C00"/>
<path d="M148.498 26.1891C149.89 26.1891 151.019 25.0603 151.019 23.6678C151.019 22.2753 149.89 21.1465 148.498 21.1465C147.105 21.1465 145.977 22.2753 145.977 23.6678C145.977 25.0603 147.105 26.1891 148.498 26.1891Z" fill="#EED0C3"/>
<path d="M174.159 72.6923C176.258 72.6923 177.96 70.9904 177.96 68.891C177.96 66.7917 176.258 65.0898 174.159 65.0898C172.059 65.0898 170.357 66.7917 170.357 68.891C170.357 70.9904 172.059 72.6923 174.159 72.6923Z" fill="#EED0C3"/>
<path d="M188 56.5711C193.207 50.0143 198.491 42.9888 198.491 42.1216C198.491 41.3138 195.637 36.3446 191.896 31.3789" stroke="#1F161E" stroke-width="0.349697" stroke-linecap="round" stroke-linejoin="round"/>
<path d="M172.57 32.2461C173.441 33.1903 180.848 43.5028 180.778 44.8107C180.739 45.5101 178.68 51.2906 176.725 56.5745" stroke="#1F161E" stroke-width="0.349697" stroke-linecap="round" stroke-linejoin="round"/>
<path d="M151.341 38.0684C151.425 44.209 150.561 51.1995 147.33 56.5743" stroke="#1F161E" stroke-width="0.349697" stroke-linecap="round" stroke-linejoin="round"/>
<path d="M204.212 41.5645C205.814 41.6064 291.696 50.8 291.696 50.8V55.7307L203.922 56.5595" fill="#EF9A9A"/>
</g>
<g clip-path="url(#clip3_7013_221849)">
<path d="M282.195 157.548C281.418 157.568 276.802 157.913 276.01 157.269C274.573 156.104 274.962 146.324 275.404 145.854C275.847 145.384 276.798 145.077 277.085 145.485C277.373 145.893 278.25 149.756 278.638 150.264C279.027 150.773 280.968 151.456 282.009 151.15" fill="#1F161E"/>
<path d="M374.438 134.12C373.37 132.858 336.827 105.777 329.625 105.917C322.423 106.056 301.348 149.79 301.748 151.261C302.148 152.733 313.302 150.318 314.894 148.979C316.486 147.639 327.61 135.867 330.374 129.915C331.461 131.491 340.415 141.866 343.09 143.539C345.765 145.212 374.438 134.12 374.438 134.12Z" fill="#1F161E"/>
<path d="M281.027 157.807C281.633 158.288 387.146 160.229 395.867 157.807C404.587 155.384 406.889 155.625 406.769 150.539C406.649 145.452 389.686 132.488 387.507 132.488C384.168 132.488 349.815 135.206 322.571 145.258C311.7 147.036 281.804 150.391 281.804 150.391C281.314 152.169 280.437 155.446 281.027 157.807Z" fill="#FFCC80"/>
<path d="M412.446 85.1321C418.134 87.652 425.13 120.215 424.179 121.283C423.228 122.351 415.163 126.024 415.163 126.024C415.008 133.952 408.291 152.93 406.276 153.757C392.112 149.727 383.4 137.167 383.4 133.727C383.4 130.287 372.614 132.923 371.783 131.964C371.396 131.567 370.955 131.224 370.475 130.947C370.475 130.947 376.299 125.899 380.853 122.623C380.694 121.221 379.474 94.9551 381.047 92.4858C384.176 87.5898 405.356 81.9911 412.446 85.1321Z" fill="#EF9A9A"/>
<path d="M415.213 126.018C413.66 126.751 399.554 132.832 393.381 134.121" stroke="#1F161E" stroke-width="0.213543" stroke-miterlimit="10" stroke-linecap="round"/>
<path d="M406.372 105.012C407.106 106.565 411.622 115.514 411.07 116.434C410.519 117.355 384.809 129.332 382.549 130.062" stroke="#1F161E" stroke-width="0.213543" stroke-miterlimit="10" stroke-linecap="round"/>
<path d="M385.048 102.709C384.905 106.025 384.998 122.238 385.549 128.225" stroke="#1F161E" stroke-width="0.213543" stroke-miterlimit="10" stroke-linecap="round"/>
<path d="M382.549 130.062C382.782 130.547 384.405 135.234 384.575 136.251C384.746 137.268 378.107 138.612 375.793 138.499C373.479 138.386 370.656 136.239 370.656 133.7C370.656 131.161 374.131 129.363 382.549 130.062Z" fill="#EED0C3"/>
<path d="M391.903 88.6309C392.136 89.7374 398.239 88.5494 397.995 87.3613L396.449 79.9766L390.361 81.2462L391.903 88.6309Z" fill="#EED0C3"/>
<path d="M397.369 84.3797C397.233 83.7236 395.253 81.7706 394.174 82.3918C395.498 81.5881 395.847 79.7167 396.449 79.9613L397.369 84.3797Z" fill="black"/>
<path d="M389.572 83.8332C394.034 83.8332 397.652 80.2158 397.652 75.7535C397.652 71.2912 394.034 67.6738 389.572 67.6738C385.11 67.6738 381.492 71.2912 381.492 75.7535C381.492 80.2158 385.11 83.8332 389.572 83.8332Z" fill="#EED0C3"/>
<path d="M381.946 79.1728C382.674 79.0208 383.2 78.5896 383.121 78.2096C383.042 77.8297 382.387 77.645 381.659 77.797C380.93 77.949 380.404 78.3803 380.483 78.7602C380.563 79.1401 381.217 79.3249 381.946 79.1728Z" fill="#EF9A9A"/>
<path d="M390.237 77.4404C390.965 77.2884 391.491 76.8571 391.412 76.4772C391.333 76.0973 390.678 75.9125 389.95 76.0646C389.221 76.2166 388.695 76.6478 388.774 77.0278C388.854 77.4077 389.509 77.5924 390.237 77.4404Z" fill="#EF9A9A"/>
<path d="M384.719 76.3848C384.548 76.773 383.589 78.528 385.049 78.8463" stroke="#1F161E" stroke-width="0.2679" stroke-miterlimit="10" stroke-linecap="round"/>
<path d="M388.07 80.0199C388.459 79.9268 388.975 79.3172 389.208 78.8047" stroke="#1F161E" stroke-width="0.2679" stroke-miterlimit="10" stroke-linecap="round"/>
<path d="M396.17 69.5636C395.595 66.8186 391.34 65.5723 388.676 66.1275C384.436 67.0127 379.486 69.1249 378.694 69.6219C377.37 70.4217 377.459 71.9902 377.568 72.5027C378.015 74.6382 379.071 75.803 381.493 75.6515C381.497 74.8592 381.628 74.0727 381.882 73.322C382.486 72.9332 383.207 72.7696 383.92 72.8599C384.561 72.9454 390.074 74.2616 393.786 73.485C394.426 74.0752 396.403 78.1015 396.457 79.9651C397.556 79.7982 398.821 75.8418 398.534 73.9665C398.426 73.3274 398.17 72.7225 397.785 72.2006C397.401 71.6787 396.899 71.2542 396.321 70.9614C396.267 70.5576 396.212 69.781 396.17 69.5636Z" fill="black"/>
<path d="M394.472 76.8983C395.454 76.8983 396.25 76.1021 396.25 75.12C396.25 74.1379 395.454 73.3418 394.472 73.3418C393.489 73.3418 392.693 74.1379 392.693 75.12C392.693 76.1021 393.489 76.8983 394.472 76.8983Z" fill="#EED0C3"/>
</g>
</g>
<defs>
<clipPath id="clip0_7013_221849">
<rect width="440" height="160" fill="white"/>
</clipPath>
<clipPath id="clip1_7013_221849">
<rect width="174" height="114.522" fill="white" transform="translate(125 56)"/>
</clipPath>
<clipPath id="clip2_7013_221849">
<rect width="157" height="71.6879" fill="white" transform="translate(139 1)"/>
</clipPath>
<clipPath id="clip3_7013_221849">
<rect width="149.263" height="93" fill="white" transform="translate(275 66)"/>
</clipPath>
</defs>
</svg>
