<svg width="314" height="115" viewBox="0 0 314 115" fill="none" xmlns="http://www.w3.org/2000/svg">
<path d="M293.06 95.9694C293.587 95.9694 296.692 95.777 297.219 96.2195C298.169 97.0198 297.812 103.588 297.508 103.915C297.204 104.242 296.561 104.419 296.373 104.146C296.184 103.873 295.626 101.268 295.376 100.917C295.126 100.567 292.298 99.9786 291.594 100.171" fill="#1F161E"/>
<path d="M174.768 93.9121L174.656 110.138" stroke="black" stroke-width="2.11083" stroke-miterlimit="10" stroke-linecap="round"/>
<path d="M205.596 73.0215C205.034 74.0758 205.481 80.3321 178.116 99.7937C177.552 100.033 177.045 100.39 176.632 100.843C176.218 101.295 175.907 101.831 175.719 102.414C175.719 102.414 176.142 103.953 177.342 103.545C178.543 103.137 199.201 95.5343 209.428 88.3276C212.037 86.55 217.289 79.0624 217.289 79.0624L205.596 73.0215Z" fill="#F8CDBA"/>
<path d="M221.443 71.5977C222.236 72.9636 227.842 84.8799 227.842 86.0958C227.842 87.3116 226.98 99.655 224.641 107.054C223.76 107.173 220.793 107.654 220.793 109.428C220.793 109.917 221.851 111.502 224.325 111.498C225.122 111.498 228.042 110.586 228.65 109.613C229.258 108.639 235.961 89.02 236.084 86.5844C236.207 84.1488 235.657 75.6801 234.864 74.0948C234.071 72.5096 221.443 71.5977 221.443 71.5977Z" fill="#1F161E"/>
<path d="M246.284 75.9043C243.633 78.6169 239.065 105.916 240.589 109.145C242.113 112.373 246.284 111.926 246.284 111.926C246.284 111.926 293.364 104.908 293.96 104.177C294.557 103.446 294.688 96.1662 293.229 95.1735C291.771 94.1808 270.055 93.0111 266.08 93.9269C262.105 94.8426 255.287 77.7666 255.287 77.7666L246.284 75.9043Z" fill="#1F161E"/>
<path d="M298.224 101.161C298.751 101.161 301.856 100.968 302.383 101.411C303.334 102.211 302.976 108.779 302.672 109.106C302.368 109.433 301.725 109.61 301.537 109.337C301.348 109.064 300.79 106.463 300.54 106.109C300.29 105.755 297.462 105.17 296.758 105.362" fill="#1F161E"/>
<path d="M215.884 47.251C214.699 47.4165 211.925 52.4108 213.149 60.0407C208.916 64.7503 208.974 66.9358 204.684 74.6928C206.719 76.2318 215.142 82.0034 215.142 82.0034C215.142 82.0034 221.606 72.842 222.198 72.9459C224.422 73.8617 238.563 78.0595 251.591 78.0325C254.542 78.0325 268.482 62.5648 267.87 60.9373C267.259 59.3097 239.074 44.0228 215.884 47.251Z" fill="#C7C9E3"/>
<path d="M266.158 60.5059C267.155 60.8137 279.444 66.2774 279.29 73.4841C279.09 82.6955 267.539 98.1324 266.158 99.8985C268.767 99.9755 295.108 99.6677 298.409 100.514C299.483 100.745 298.794 105.131 298.409 105.735C298.025 106.34 273.942 112.992 245.038 114.97C243.272 115.089 242.814 112.511 242.506 111.207C242.199 109.903 246.947 85.3542 252.487 75.962C253.118 74.8731 266.158 60.5059 266.158 60.5059Z" fill="#EBEEF3"/>
<path d="M175.662 105.397C178.004 105.397 179.902 104.22 179.902 102.769C179.902 101.317 178.004 100.141 175.662 100.141C173.32 100.141 171.422 101.317 171.422 102.769C171.422 104.22 173.32 105.397 175.662 105.397Z" fill="#F8CDBA"/>
<path d="M198.91 41.237C198.387 41.1908 196.636 39.0092 197.571 34.1303C198.702 32.649 202.446 32.1795 202.573 33.8571C202.7 35.5347 200.507 41.3871 198.91 41.237Z" fill="#1F161E"/>
<path d="M213.789 53.7369C214.897 54.3294 217.502 49.6468 216.305 49.0119L208.86 45.0449L206.34 49.7737L213.789 53.7369Z" fill="#F8CDBA"/>
<path d="M213.309 47.4112C212.643 47.0611 209.738 47.0264 209.646 48.1192C209.727 46.7378 208.288 45.2642 208.876 45.041L213.309 47.4112Z" fill="black"/>
<path d="M205.507 50.4093C209.349 50.4093 212.464 47.2948 212.464 43.4527C212.464 39.6107 209.349 36.4961 205.507 36.4961C201.665 36.4961 198.551 39.6107 198.551 43.4527C198.551 47.2948 201.665 50.4093 205.507 50.4093Z" fill="#F8CDBA"/>
<path d="M198.753 45.9334C199.389 45.846 199.867 45.5073 199.822 45.1768C199.777 44.8463 199.224 44.6491 198.589 44.7364C197.953 44.8237 197.474 45.1625 197.52 45.493C197.565 45.8235 198.117 46.0207 198.753 45.9334Z" fill="#7DBF9D"/>
<path d="M205.98 44.9392C206.615 44.8519 207.094 44.5132 207.049 44.1827C207.003 43.8521 206.451 43.655 205.815 43.7423C205.179 43.8296 204.701 44.1683 204.746 44.4989C204.792 44.8294 205.344 45.0265 205.98 44.9392Z" fill="#7DBF9D"/>
<path d="M201.301 43.707C201.132 44.0418 200.201 45.4693 201.432 45.854" stroke="#1F161E" stroke-width="0.485491" stroke-miterlimit="10" stroke-linecap="round"/>
<path d="M203.965 47.032C204.307 46.9743 204.784 46.4818 205.015 46.0547" stroke="#1F161E" stroke-width="0.485491" stroke-miterlimit="10" stroke-linecap="round"/>
<path d="M208.039 28.4621C217.243 28.4621 223.853 29.9743 228.163 29.9743C234.792 29.9743 240.025 27 247.455 27C250.845 27 259.533 29.8781 259.533 39.6204C259.533 45.1419 256.455 56.1078 243.269 56.1078C231.98 56.1078 230.01 51.3328 225.435 51.3328C220.61 51.3328 211.637 53.6068 210.121 47.4543C209.794 45.8191 209.425 43.8144 208.517 42.1676C203.461 40.4092 201.818 40.5631 199.444 39.1549C196.004 37.5196 195.842 28.4621 208.039 28.4621Z" fill="#1F161E"/>
<path d="M209.758 44.7327C210.604 44.7327 211.289 44.0471 211.289 43.2013C211.289 42.3555 210.604 41.6699 209.758 41.6699C208.912 41.6699 208.227 42.3555 208.227 43.2013C208.227 44.0471 208.912 44.7327 209.758 44.7327Z" fill="#F8CDBA"/>
<g clip-path="url(#clip0_8997_281212)">
<path d="M144.513 113.786C145.139 113.801 148.86 114.078 149.498 113.561C150.656 112.627 150.343 104.784 149.987 104.407C149.63 104.03 148.863 103.784 148.631 104.111C148.4 104.438 147.693 107.536 147.38 107.944C147.067 108.352 145.502 108.9 144.663 108.654" fill="#1F161E"/>
<path d="M70.1556 94.9993C71.0162 93.9873 100.473 72.2692 106.278 72.3813C112.084 72.4934 129.072 107.566 128.749 108.746C128.427 109.926 119.435 107.99 118.152 106.915C116.869 105.841 107.903 96.4004 105.674 91.6271C104.798 92.8913 97.5809 101.211 95.4246 102.553C93.2682 103.895 70.1556 94.9993 70.1556 94.9993Z" fill="#1F161E"/>
<path d="M145.454 113.996C144.966 114.382 59.9142 115.939 52.8849 113.996C45.8557 112.053 43.9998 112.246 44.0968 108.167C44.1938 104.088 57.8674 93.6914 59.6231 93.6914C62.3146 93.6914 90.006 95.871 111.967 103.932C120.73 105.358 144.829 108.049 144.829 108.049C145.223 109.475 145.93 112.103 145.454 113.996Z" fill="#FFCC80"/>
<path d="M39.5237 55.7134C34.9387 57.7342 29.299 83.8488 30.0658 84.7051C30.8326 85.5614 37.3329 88.5069 37.3329 88.5069C37.4581 94.8651 42.8724 110.085 44.4967 110.748C55.9138 107.516 62.9368 97.4433 62.9368 94.6845C62.9368 91.9258 71.631 94.04 72.3008 93.2709C72.613 92.9521 72.9679 92.6775 73.3555 92.4551C73.3555 92.4551 68.661 88.4073 64.9898 85.7793C65.1182 84.6553 66.1009 63.591 64.8334 61.6107C62.3108 57.6843 45.2385 53.1944 39.5237 55.7134Z" fill="#51698F"/>
<path d="M37.2885 88.5C38.5404 89.0885 49.9105 93.9646 54.8867 94.9983" stroke="#1F161E" stroke-width="0.386985" stroke-miterlimit="10" stroke-linecap="round"/>
<path d="M44.4174 71.6543C43.8259 72.8998 40.1861 80.0769 40.6305 80.8148C41.0749 81.5528 61.7996 91.1586 63.6211 91.7439" stroke="#1F161E" stroke-width="0.386985" stroke-miterlimit="10" stroke-linecap="round"/>
<path d="M61.6038 69.8086C61.7196 72.4677 61.6445 85.4705 61.2001 90.2719" stroke="#1F161E" stroke-width="0.386985" stroke-miterlimit="10" stroke-linecap="round"/>
<path d="M63.6208 91.7449C63.433 92.1341 62.1248 95.8924 61.9871 96.7081C61.8494 97.5239 67.2012 98.6013 69.0665 98.511C70.9318 98.4207 73.207 96.6988 73.207 94.6624C73.207 92.6261 70.406 91.1844 63.6208 91.7449Z" fill="#EED0C3"/>
<path d="M56.0817 58.5186C55.894 59.406 50.9741 58.4532 51.1713 57.5004L52.4169 51.5781L57.3242 52.5963L56.0817 58.5186Z" fill="#EED0C3"/>
<path d="M51.6743 55.1078C51.7838 54.5816 53.38 53.0154 54.25 53.5136C53.1828 52.8691 52.9011 51.3682 52.416 51.5644L51.6743 55.1078Z" fill="black"/>
<path d="M57.9598 54.6702C54.3628 54.6702 51.4469 51.7692 51.4469 48.1906C51.4469 44.612 54.3628 41.7109 57.9598 41.7109C61.5568 41.7109 64.4727 44.612 64.4727 48.1906C64.4727 51.7692 61.5568 54.6702 57.9598 54.6702Z" fill="#EED0C3"/>
<path d="M64.1078 50.9334C63.5206 50.8115 63.0965 50.4656 63.1604 50.1609C63.2243 49.8563 63.7521 49.7081 64.3393 49.83C64.9264 49.9519 65.3505 50.2978 65.2866 50.6025C65.2227 50.9072 64.6949 51.0553 64.1078 50.9334Z" fill="#51698F"/>
<path d="M57.4203 49.5447C56.8331 49.4228 56.409 49.077 56.4729 48.7723C56.5368 48.4676 57.0646 48.3194 57.6518 48.4413C58.2389 48.5633 58.663 48.9091 58.5991 49.2138C58.5352 49.5185 58.0074 49.6667 57.4203 49.5447Z" fill="#51698F"/>
<path d="M61.8697 48.6973C62.0074 49.0086 62.7804 50.416 61.6037 50.6714" stroke="#1F161E" stroke-width="0.485491" stroke-miterlimit="10" stroke-linecap="round"/>
<path d="M59.1719 51.6113C58.8589 51.5366 58.4427 51.0477 58.2549 50.6367" stroke="#1F161E" stroke-width="0.485491" stroke-miterlimit="10" stroke-linecap="round"/>
<path d="M52.64 43.2266C53.1031 41.0253 56.5333 40.0258 58.6802 40.471C62.0978 41.1809 66.0882 42.8748 66.7266 43.2733C67.7938 43.9148 67.7219 45.1727 67.6342 45.5837C67.2743 47.2963 66.423 48.2304 64.4701 48.1089C64.467 47.4735 64.3613 46.8428 64.1572 46.2407C63.6703 45.9289 63.0885 45.7977 62.5141 45.8702C61.9977 45.9387 57.5535 46.9942 54.5616 46.3715C54.0452 46.8448 52.4522 50.0737 52.4084 51.5683C51.5227 51.4344 50.5024 48.2615 50.734 46.7576C50.8211 46.245 51.0279 45.76 51.3377 45.3414C51.6475 44.9228 52.0518 44.5824 52.5179 44.3476C52.5617 44.0238 52.6055 43.401 52.64 43.2266Z" fill="black"/>
<path d="M54.008 49.108C53.2164 49.108 52.5746 48.4695 52.5746 47.6819C52.5746 46.8943 53.2164 46.2559 54.008 46.2559C54.7997 46.2559 55.4414 46.8943 55.4414 47.6819C55.4414 48.4695 54.7997 49.108 54.008 49.108Z" fill="#EED0C3"/>
</g>
<defs>
<clipPath id="clip0_8997_281212">
<rect width="120.317" height="74.5826" fill="white" transform="matrix(-1 0 0 1 150.316 40.3691)"/>
</clipPath>
</defs>
</svg>
