<svg width="586" height="160" viewBox="0 0 586 160" fill="none" xmlns="http://www.w3.org/2000/svg">
<g clip-path="url(#clip0_7013_221892)">
<rect width="586" height="160" fill="#EF9A9A"/>
<g clip-path="url(#clip1_7013_221892)">
<path d="M219.449 25H43.5507C38.8283 25 35 28.8283 35 33.5507V96.8176C35 101.54 38.8283 105.368 43.5507 105.368H219.449C224.172 105.368 228 101.54 228 96.8176V33.5507C228 28.8283 224.172 25 219.449 25Z" fill="#F5F7F9"/>
<path d="M60.0179 65.1842C67.9669 65.1842 74.4108 58.7403 74.4108 50.7913C74.4108 42.8424 67.9669 36.3984 60.0179 36.3984C52.0689 36.3984 45.625 42.8424 45.625 50.7913C45.625 58.7403 52.0689 65.1842 60.0179 65.1842Z" fill="#EF5350"/>
<path d="M86.873 43.4502H150.434" stroke="white" stroke-width="8.69369" stroke-miterlimit="10" stroke-linecap="round"/>
<path d="M86.873 57.5527H188.493" stroke="white" stroke-width="5.6026" stroke-miterlimit="10" stroke-linecap="round"/>
<path d="M86.873 67.9854H165.309" stroke="white" stroke-width="5.6026" stroke-miterlimit="10" stroke-linecap="round"/>
<path d="M86.873 81.123H99.4306" stroke="#999CBF" stroke-width="5.6026" stroke-miterlimit="10" stroke-linecap="round"/>
<path d="M108.896 81.123H121.454" stroke="#999CBF" stroke-width="5.6026" stroke-miterlimit="10" stroke-linecap="round"/>
<path d="M206.392 37.7746L214.607 45.9902L207.777 52.8206L199.561 44.605C198.656 43.6992 198.147 42.4707 198.147 41.1898C198.147 39.9088 198.656 38.6803 199.561 37.7746C200.467 36.8688 201.696 36.36 202.977 36.36C204.258 36.36 205.486 36.8688 206.392 37.7746Z" fill="#999CBF"/>
<path d="M216.014 44.6037L207.799 52.8193L200.968 45.9889L209.184 37.7733C210.09 36.8675 211.318 36.3586 212.599 36.3586C213.88 36.3586 215.109 36.8675 216.014 37.7733C216.92 38.679 217.429 39.9075 217.429 41.1885C217.429 42.4694 216.92 43.6979 216.014 44.6037Z" fill="#999CBF"/>
</g>
<path d="M311.723 103.965H285.432" stroke="#D8D8D8" stroke-width="1.70637" stroke-linecap="round" stroke-linejoin="round"/>
<path d="M311.723 106.047L285.961 113.286" stroke="#D8D8D8" stroke-width="1.70637" stroke-linecap="round" stroke-linejoin="round"/>
<path d="M290.077 72.4102H299.65C300.599 72.4102 301.369 73.1799 301.369 74.1293C301.369 75.0788 300.599 75.8485 299.65 75.8485H290.077C289.128 75.8485 288.358 75.0788 288.358 74.1293C288.358 73.1799 289.128 72.4102 290.077 72.4102Z" fill="#D8D8D8"/>
<path d="M292.002 84.5293L247.956 84.6615" stroke="#D8D8D8" stroke-width="1.70637" stroke-linecap="round" stroke-linejoin="round"/>
<path d="M237.688 127.564C225.804 127.564 216.17 117.93 216.17 106.047C216.17 94.1629 225.804 84.5293 237.688 84.5293C249.571 84.5293 259.205 94.1629 259.205 106.047C259.205 117.93 249.571 127.564 237.688 127.564Z" stroke="#969696" stroke-width="1.70637" stroke-miterlimit="10"/>
<path d="M237.687 106.047L252.43 75.3447" stroke="#D8D8D8" stroke-width="1.70637" stroke-linecap="round" stroke-linejoin="round"/>
<path d="M285.192 114.216C282.026 114.216 279.459 111.649 279.459 108.482C279.459 105.316 282.026 102.749 285.192 102.749C288.359 102.749 290.926 105.316 290.926 108.482C290.926 111.649 288.359 114.216 285.192 114.216Z" fill="#D8D8D8"/>
<path d="M311.723 127.564C299.839 127.564 290.206 117.93 290.206 106.047C290.206 94.1629 299.839 84.5293 311.723 84.5293C323.607 84.5293 333.24 94.1629 333.24 106.047C333.24 117.93 323.607 127.564 311.723 127.564Z" stroke="#969696" stroke-width="1.70637" stroke-miterlimit="10"/>
<path d="M292.79 110.833C292.943 111.362 294.244 114.604 293.72 115.099C293.195 115.594 286.468 117.795 286.041 117.577C285.615 117.36 285.265 116.767 285.487 116.498C285.708 116.229 288.174 114.928 288.473 114.574C288.771 114.22 288.861 112.77 288.473 112.117" fill="#1F161E"/>
<path d="M285.725 88.04C286.062 88.4666 288.421 91.0518 288.106 91.7002C287.79 92.3486 282.266 96.7937 281.814 96.7297C281.361 96.6657 280.798 96.2477 280.913 95.9192C281.029 95.5907 282.871 93.4962 283.012 93.0653C283.153 92.6344 282.735 91.2395 282.138 90.7702" fill="#1F161E"/>
<path d="M237.687 40.1469C237.687 35.0278 244.38 30.4334 250.267 30.4334C256.512 30.4334 260.505 33.7352 267.292 33.7352C273.06 33.7352 279.804 27.6562 287.163 27.6562C296.612 27.6562 299.662 36.892 299.662 40.4284C299.662 49.3314 291.467 50.9951 289.548 50.9951C287.628 50.9951 261.03 48.8323 260.113 48.8323C259.614 42.86 251.389 43.5682 250.885 41.7594C250.263 42.4931 245.928 45.8888 244.717 45.8888C239.112 45.8888 237.687 41.9983 237.687 40.1469Z" fill="black"/>
<path d="M246.69 71.8864L249.623 73.1543L249.122 74.3133L246.189 73.0454L246.69 71.8864Z" fill="#969696"/>
<path d="M256 58.6561C256.051 58.976 256.397 63.8221 256.26 64.4961L256.128 65.1701C256.128 65.1701 252.289 71.8165 251.986 72.307C251.683 72.7976 253.449 73.5868 253.449 73.5868C253.449 73.5868 260.181 66.5139 260.654 65.9081C261.128 65.3024 263.163 59.1765 263.128 58.4726C263.094 57.7688 256 58.6561 256 58.6561Z" fill="#EED0C3"/>
<path d="M276.529 58.1836C276.042 58.6102 262.656 71.7237 262.767 72.884C262.878 74.0443 281.068 90.097 283.167 90.5833C285.265 91.0696 283.354 84.1844 282.569 83.6085C279.361 81.1161 276.313 78.4232 273.444 75.5459C274.767 74.8719 288.678 67.5601 290.743 66.6984C292.808 65.8367 276.529 58.1836 276.529 58.1836Z" fill="#1F161E"/>
<path d="M280.372 60.67C284.89 57.863 288.012 52.1637 288.768 48.0215C292.607 51.2807 295.115 55.521 295.115 60.6657C295.115 69.846 291.208 83.2367 289.868 86.9694C290.201 88.8293 293.255 111.076 293.255 111.076L288.341 112.275C288.341 112.275 280.504 85.6384 280.372 84.2435C279.306 78.493 280.466 61.4293 280.372 60.67Z" fill="#8C6631"/>
<path d="M254.673 73.4895C254.673 73.4895 254.562 73.016 255.181 72.8538C255.799 72.6917 264.062 67.21 265.419 64.2921C264.749 62.927 261.895 57.8506 260.342 56.4258C258.79 55.0009 266.178 47.3223 266.178 47.3223C266.558 48.0816 273.349 61.9117 272.078 66.7664C271.225 69.6843 259.613 74.9783 256.661 76.4074C253.709 77.8365 254.673 73.4895 254.673 73.4895Z" fill="#EED0C3"/>
<path d="M289.395 48.6314C289.177 48.4309 288.968 48.2304 288.721 48.0342C288.959 48.2347 289.181 48.4309 289.395 48.6314Z" fill="#FBDC8E"/>
<path d="M265.591 40.1465C273.376 40.1465 282.718 42.8639 288.768 48.0214C288.013 52.1636 284.928 57.8671 280.394 60.6699C280.394 60.6699 274.566 58.6307 270.445 57.2358C270.313 56.8561 270.211 56.3826 270.138 56.1906C268.27 57.2059 263.198 60.03 262.933 60.1409C262.758 59.8124 262.472 59.3517 262.212 58.9507V58.9763C261.449 59.0787 258.962 59.6844 256.116 59.2792C255.911 58.2639 254.542 47.4924 254.542 46.5283C254.542 45.5642 255.276 40.1465 265.591 40.1465Z" fill="#FFCDD2"/>
<path d="M251.615 42.374L258.479 43.7391C259.396 43.914 258.479 48.8582 257.502 48.6663L250.634 47.3012L251.615 42.374Z" fill="#EED0C3"/>
<path d="M270.139 56.1908C269.768 55.2907 268.006 50.2569 266.926 48.9941" stroke="#1F161E" stroke-width="0.234626" stroke-miterlimit="10" stroke-linecap="round"/>
<path d="M262.934 60.1496C262.464 59.3561 260.11 55.457 260.11 55.457" stroke="#1F161E" stroke-width="0.234626" stroke-miterlimit="10" stroke-linecap="round"/>
<path d="M248.678 75.0387C248.235 74.0317 248.9 72.7645 250.163 72.2082C251.427 71.6519 252.811 72.0173 253.254 73.0243C253.697 74.0313 253.032 75.2986 251.769 75.8549C250.505 76.4111 249.121 76.0457 248.678 75.0387Z" fill="#EED0C3"/>
<path d="M251.506 73.8212L253.306 74.5235C253.631 74.6502 253.792 75.0163 253.665 75.3411C253.538 75.666 253.172 75.8266 252.847 75.6999L251.047 74.9976C250.722 74.8709 250.562 74.5048 250.688 74.1799C250.815 73.8551 251.181 73.6945 251.506 73.8212Z" fill="#969696"/>
<path d="M251.876 75.7097C251.659 74.3247 252.914 72.978 254.678 72.7017C256.443 72.4254 258.049 73.3242 258.266 74.7091C258.482 76.0941 257.228 77.4408 255.464 77.7171C253.699 77.9934 252.093 77.0946 251.876 75.7097Z" fill="#EED0C3"/>
<path d="M260.451 77.3138L255.682 75.4534C255.526 75.3925 255.352 75.3962 255.199 75.4634C255.045 75.5307 254.925 75.6561 254.864 75.8121C254.803 75.9681 254.807 76.1419 254.874 76.2953C254.941 76.4486 255.067 76.5689 255.223 76.6298L259.992 78.4901L260.457 77.2979L260.451 77.3138Z" fill="#969696"/>
<path d="M249.337 43.3805C248.573 43.3805 247.954 42.7617 247.954 41.9984C247.954 41.235 248.573 40.6162 249.337 40.6162C250.1 40.6162 250.719 41.235 250.719 41.9984C250.719 42.7617 250.1 43.3805 249.337 43.3805Z" fill="#EED0C3"/>
<path d="M248.139 41.333C249.508 41.6316 252.025 42.0198 253.799 41.7255C253.951 42.5322 253.938 43.3613 253.762 44.1629C253.585 44.9646 253.249 45.7224 252.772 46.3909C252.296 47.0595 251.69 47.625 250.99 48.0537C250.29 48.4824 249.51 48.7654 248.698 48.8857C247.886 49.0061 247.058 48.9613 246.264 48.7541C245.47 48.5469 244.726 48.1815 244.076 47.6799C243.426 47.1782 242.884 46.5506 242.483 45.8346C242.082 45.1186 241.829 44.3289 241.74 43.5129C243.442 43.1674 246.675 42.2331 248.139 41.333Z" fill="#EED0C3"/>
<path d="M243.481 45.0908C243.54 45.4406 243.728 47.3134 245.123 46.6863" stroke="#1F161E" stroke-width="0.234626" stroke-miterlimit="10" stroke-linecap="round"/>
<path d="M247.576 46.8145C247.668 46.6141 247.69 46.3884 247.639 46.174C247.587 45.9596 247.464 45.769 247.291 45.6328" stroke="#1F161E" stroke-width="0.234626" stroke-miterlimit="10" stroke-linecap="round"/>
<path d="M311.722 109.025C310.077 109.025 308.744 107.691 308.744 106.047C308.744 104.402 310.077 103.069 311.722 103.069C313.366 103.069 314.699 104.402 314.699 106.047C314.699 107.691 313.366 109.025 311.722 109.025Z" fill="#D8D8D8"/>
<path d="M237.686 109.025C236.042 109.025 234.709 107.691 234.709 106.047C234.709 104.402 236.042 103.069 237.686 103.069C239.331 103.069 240.664 104.402 240.664 106.047C240.664 107.691 239.331 109.025 237.686 109.025Z" fill="#D8D8D8"/>
<path d="M285.193 108.483L247.956 84.6621" stroke="#D8D8D8" stroke-width="1.70637" stroke-linecap="round" stroke-linejoin="round"/>
<path d="M311.723 106.047L292.001 84.5293" stroke="#D8D8D8" stroke-width="1.70637" stroke-linecap="round" stroke-linejoin="round"/>
<path d="M292 84.5291L294.176 75.7754" stroke="#D8D8D8" stroke-width="1.70637" stroke-linecap="round" stroke-linejoin="round"/>
<path d="M425.723 133.965H399.432" stroke="#D8D8D8" stroke-width="1.70637" stroke-linecap="round" stroke-linejoin="round"/>
<path d="M425.723 136.047L399.961 143.286" stroke="#D8D8D8" stroke-width="1.70637" stroke-linecap="round" stroke-linejoin="round"/>
<path d="M404.077 102.41H413.65C414.599 102.41 415.369 103.18 415.369 104.129C415.369 105.079 414.599 105.848 413.65 105.848H404.077C403.128 105.848 402.358 105.079 402.358 104.129C402.358 103.18 403.128 102.41 404.077 102.41Z" fill="#D8D8D8"/>
<path d="M406 114.529L361.954 114.662" stroke="#D8D8D8" stroke-width="1.70637" stroke-linecap="round" stroke-linejoin="round"/>
<path d="M351.688 157.564C339.804 157.564 330.17 147.93 330.17 136.047C330.17 124.163 339.804 114.529 351.688 114.529C363.571 114.529 373.205 124.163 373.205 136.047C373.205 147.93 363.571 157.564 351.688 157.564Z" stroke="#969696" stroke-width="1.70637" stroke-miterlimit="10"/>
<path d="M351.687 136.047L366.43 105.345" stroke="#D8D8D8" stroke-width="1.70637" stroke-linecap="round" stroke-linejoin="round"/>
<path d="M399.192 144.216C396.026 144.216 393.459 141.649 393.459 138.482C393.459 135.316 396.026 132.749 399.192 132.749C402.359 132.749 404.926 135.316 404.926 138.482C404.926 141.649 402.359 144.216 399.192 144.216Z" fill="#D8D8D8"/>
<path d="M425.723 157.564C413.839 157.564 404.206 147.93 404.206 136.047C404.206 124.163 413.839 114.529 425.723 114.529C437.607 114.529 447.24 124.163 447.24 136.047C447.24 147.93 437.607 157.564 425.723 157.564Z" stroke="#969696" stroke-width="1.70637" stroke-miterlimit="10"/>
<path d="M406.79 140.833C406.943 141.362 408.244 144.604 407.72 145.099C407.195 145.594 400.468 147.795 400.041 147.577C399.615 147.36 399.265 146.767 399.487 146.498C399.708 146.229 402.174 144.928 402.473 144.574C402.771 144.22 402.861 142.77 402.473 142.117" fill="#1F161E"/>
<path d="M399.725 118.04C400.062 118.467 402.421 121.052 402.106 121.7C401.79 122.349 396.266 126.794 395.814 126.73C395.361 126.666 394.798 126.248 394.913 125.919C395.029 125.591 396.871 123.496 397.012 123.065C397.153 122.634 396.735 121.239 396.138 120.77" fill="#1F161E"/>
<path d="M351.687 70.1469C351.687 65.0278 358.38 60.4334 364.267 60.4334C370.512 60.4334 374.505 63.7352 381.292 63.7352C387.06 63.7352 393.804 57.6562 401.163 57.6562C410.612 57.6562 413.662 66.892 413.662 70.4284C413.662 79.3314 405.467 80.9951 403.548 80.9951C401.628 80.9951 375.03 78.8323 374.113 78.8323C373.614 72.86 365.389 73.5682 364.885 71.7594C364.263 72.4931 359.928 75.8888 358.717 75.8888C353.112 75.8888 351.687 71.9983 351.687 70.1469Z" fill="black"/>
<path d="M360.69 101.886L363.623 103.154L363.122 104.313L360.189 103.045L360.69 101.886Z" fill="#969696"/>
<path d="M370 88.6561C370.051 88.976 370.397 93.8221 370.26 94.4961L370.128 95.1701C370.128 95.1701 366.289 101.816 365.986 102.307C365.683 102.798 367.449 103.587 367.449 103.587C367.449 103.587 374.181 96.5139 374.654 95.9081C375.128 95.3024 377.163 89.1765 377.128 88.4726C377.094 87.7688 370 88.6561 370 88.6561Z" fill="#EED0C3"/>
<path d="M390.529 88.1836C390.042 88.6102 376.656 101.724 376.767 102.884C376.878 104.044 395.068 120.097 397.167 120.583C399.265 121.07 397.354 114.184 396.569 113.609C393.361 111.116 390.313 108.423 387.444 105.546C388.767 104.872 402.678 97.5601 404.743 96.6984C406.808 95.8367 390.529 88.1836 390.529 88.1836Z" fill="#1F161E"/>
<path d="M394.372 90.67C398.89 87.863 402.012 82.1637 402.768 78.0215C406.607 81.2807 409.115 85.521 409.115 90.6657C409.115 99.846 405.208 113.237 403.868 116.969C404.201 118.829 407.255 141.076 407.255 141.076L402.341 142.275C402.341 142.275 394.504 115.638 394.372 114.243C393.306 108.493 394.466 91.4293 394.372 90.67Z" fill="#EF5350"/>
<path d="M368.675 103.489C368.675 103.489 368.564 103.016 369.183 102.854C369.801 102.692 378.064 97.21 379.421 94.2921C378.751 92.927 375.897 87.8506 374.344 86.4258C372.792 85.0009 380.18 77.3223 380.18 77.3223C380.56 78.0816 387.351 91.9117 386.08 96.7664C385.227 99.6843 373.615 104.978 370.663 106.407C367.711 107.836 368.675 103.489 368.675 103.489Z" fill="#EED0C3"/>
<path d="M403.395 78.6314C403.177 78.4309 402.968 78.2304 402.721 78.0342C402.959 78.2347 403.181 78.4309 403.395 78.6314Z" fill="#FBDC8E"/>
<path d="M379.591 70.1465C387.376 70.1465 396.718 72.8639 402.768 78.0214C402.013 82.1636 398.928 87.8671 394.394 90.6699C394.394 90.6699 388.566 88.6307 384.445 87.2358C384.313 86.8561 384.211 86.3826 384.138 86.1906C382.27 87.2059 377.198 90.03 376.933 90.1409C376.758 89.8124 376.472 89.3517 376.212 88.9507V88.9763C375.449 89.0787 372.962 89.6844 370.116 89.2792C369.911 88.2639 368.542 77.4924 368.542 76.5283C368.542 75.5642 369.276 70.1465 379.591 70.1465Z" fill="#D6B689"/>
<path d="M365.615 72.374L372.479 73.7391C373.396 73.914 372.479 78.8582 371.502 78.6663L364.634 77.3012L365.615 72.374Z" fill="#EED0C3"/>
<path d="M384.139 86.1908C383.768 85.2907 382.006 80.2569 380.926 78.9941" stroke="#1F161E" stroke-width="0.234626" stroke-miterlimit="10" stroke-linecap="round"/>
<path d="M376.934 90.1496C376.464 89.3561 374.11 85.457 374.11 85.457" stroke="#1F161E" stroke-width="0.234626" stroke-miterlimit="10" stroke-linecap="round"/>
<path d="M362.678 105.039C362.235 104.032 362.9 102.764 364.163 102.208C365.427 101.652 366.811 102.017 367.254 103.024C367.697 104.031 367.032 105.299 365.769 105.855C364.505 106.411 363.121 106.046 362.678 105.039Z" fill="#EED0C3"/>
<path d="M365.508 103.821L367.308 104.523C367.633 104.65 367.794 105.016 367.667 105.341C367.54 105.666 367.174 105.827 366.849 105.7L365.049 104.998C364.724 104.871 364.564 104.505 364.69 104.18C364.817 103.855 365.183 103.694 365.508 103.821Z" fill="#969696"/>
<path d="M365.878 105.71C365.661 104.325 366.916 102.978 368.68 102.702C370.444 102.425 372.051 103.324 372.267 104.709C372.484 106.094 371.23 107.441 369.466 107.717C367.701 107.993 366.095 107.095 365.878 105.71Z" fill="#EED0C3"/>
<path d="M374.451 107.314L369.682 105.453C369.526 105.393 369.352 105.396 369.199 105.463C369.045 105.531 368.925 105.656 368.864 105.812C368.803 105.968 368.807 106.142 368.874 106.295C368.941 106.449 369.067 106.569 369.223 106.63L373.992 108.49L374.457 107.298L374.451 107.314Z" fill="#969696"/>
<path d="M363.337 73.3805C362.573 73.3805 361.954 72.7617 361.954 71.9984C361.954 71.235 362.573 70.6162 363.337 70.6162C364.1 70.6162 364.719 71.235 364.719 71.9984C364.719 72.7617 364.1 73.3805 363.337 73.3805Z" fill="#EED0C3"/>
<path d="M362.139 71.333C363.508 71.6316 366.025 72.0198 367.799 71.7255C367.951 72.5322 367.938 73.3613 367.762 74.1629C367.585 74.9646 367.249 75.7224 366.772 76.3909C366.296 77.0595 365.69 77.625 364.99 78.0537C364.29 78.4824 363.51 78.7654 362.698 78.8857C361.886 79.0061 361.058 78.9613 360.264 78.7541C359.47 78.5469 358.726 78.1815 358.076 77.6799C357.426 77.1782 356.884 76.5506 356.483 75.8346C356.082 75.1186 355.829 74.3289 355.74 73.5129C357.442 73.1674 360.675 72.2331 362.139 71.333Z" fill="#EED0C3"/>
<path d="M357.481 75.0908C357.54 75.4406 357.728 77.3134 359.123 76.6863" stroke="#1F161E" stroke-width="0.234626" stroke-miterlimit="10" stroke-linecap="round"/>
<path d="M361.576 76.8145C361.668 76.6141 361.69 76.3884 361.639 76.174C361.587 75.9596 361.464 75.769 361.291 75.6328" stroke="#1F161E" stroke-width="0.234626" stroke-miterlimit="10" stroke-linecap="round"/>
<path d="M425.722 139.025C424.077 139.025 422.744 137.691 422.744 136.047C422.744 134.402 424.077 133.069 425.722 133.069C427.366 133.069 428.699 134.402 428.699 136.047C428.699 137.691 427.366 139.025 425.722 139.025Z" fill="#D8D8D8"/>
<path d="M351.686 139.025C350.042 139.025 348.709 137.691 348.709 136.047C348.709 134.402 350.042 133.069 351.686 133.069C353.331 133.069 354.664 134.402 354.664 136.047C354.664 137.691 353.331 139.025 351.686 139.025Z" fill="#D8D8D8"/>
<path d="M399.193 138.483L361.956 114.662" stroke="#D8D8D8" stroke-width="1.70637" stroke-linecap="round" stroke-linejoin="round"/>
<path d="M425.723 136.047L406.001 114.529" stroke="#D8D8D8" stroke-width="1.70637" stroke-linecap="round" stroke-linejoin="round"/>
<path d="M406 114.529L408.176 105.775" stroke="#D8D8D8" stroke-width="1.70637" stroke-linecap="round" stroke-linejoin="round"/>
</g>
<defs>
<clipPath id="clip0_7013_221892">
<rect width="586" height="160" fill="white"/>
</clipPath>
<clipPath id="clip1_7013_221892">
<rect width="193" height="80.3684" fill="white" transform="translate(35 25)"/>
</clipPath>
</defs>
</svg>
