<svg width="586" height="160" viewBox="0 0 586 160" fill="none" xmlns="http://www.w3.org/2000/svg">
<g clip-path="url(#clip0_8997_281161)">
<path d="M358.857 12H164.143C157.989 12 153 16.989 153 23.1432V119.076C153 125.23 157.989 130.219 164.143 130.219H358.857C365.011 130.219 370 125.23 370 119.076V23.1432C370 16.989 365.011 12 358.857 12Z" fill="#FFF3E0"/>
<path d="M278.548 12H164.153C161.197 12.0067 158.364 13.1839 156.274 15.274C154.184 17.3641 153.007 20.1969 153 23.1527V119.066C153.007 122.022 154.184 124.855 156.274 126.945C158.364 129.035 161.197 130.212 164.153 130.219H278.548V12Z" fill="#99ABC5"/>
<path d="M369.905 21.7188C369.551 19.0345 368.235 16.5697 366.202 14.7822C364.168 12.9948 361.555 12.0062 358.847 12L164.153 12C161.445 12.0062 158.832 12.9948 156.799 14.7822C154.765 16.5697 153.449 19.0345 153.096 21.7188H369.905Z" fill="#E2E3F1"/>
<path d="M177.695 127.191V148.222L207.929 127.191H177.695Z" fill="#99ABC5"/>
<path d="M172.598 61.5508H258.952" stroke="white" stroke-width="3.82379" stroke-miterlimit="10" stroke-linecap="round"/>
<path d="M172.598 75.8887H258.952" stroke="white" stroke-width="3.82379" stroke-miterlimit="10" stroke-linecap="round"/>
<path d="M172.598 90.2285H258.952" stroke="white" stroke-width="3.82379" stroke-miterlimit="10" stroke-linecap="round"/>
<path d="M172.598 104.568H258.952" stroke="white" stroke-width="3.82379" stroke-miterlimit="10" stroke-linecap="round"/>
<path d="M252.419 50.3968C257.259 50.3968 261.182 46.4735 261.182 41.6339C261.182 36.7944 257.259 32.8711 252.419 32.8711C247.58 32.8711 243.656 36.7944 243.656 41.6339C243.656 46.4735 247.58 50.3968 252.419 50.3968Z" fill="white"/>
</g>
<g clip-path="url(#clip1_8997_281161)">
<path d="M406.579 155.627C406.609 156.089 406.913 158.794 406.529 159.272C405.826 160.137 399.68 160.093 399.377 159.843C399.073 159.593 398.867 159.037 399.113 158.862C399.36 158.688 401.764 158.088 402.078 157.857C402.391 157.626 402.778 156.461 402.568 155.858" fill="#1F161E"/>
<path d="M376.121 80.916C375.074 83.1396 366.281 107.365 366.484 110.897C366.687 114.429 387.035 150.825 388.159 151.209C389.282 151.593 393.951 150.25 394.328 149.295C394.704 148.339 387.238 126.618 387.035 121.056" fill="#1F161E"/>
<path d="M376.121 80.9153C376.648 83.5355 385.398 119.669 385.398 119.669L401.441 156.055C402.774 156.664 406.699 156.73 407.386 156.536C408.073 156.343 404.775 121.499 403.471 116.561C402.167 111.624 398.736 77.3457 398.736 77.3457C398.736 77.3457 380.763 77.6237 376.121 80.9153Z" fill="#3B7858"/>
<path d="M380.456 42.2559C377.809 43.4145 360.926 51.1939 359.475 51.1939C358.025 51.1939 342.592 43.0272 341.685 42.4776C340.822 43.2865 339.504 44.5606 339.824 44.976C340.145 45.3914 357.841 60.8784 359.342 60.8784C360.842 60.8784 376.041 56.5468 377.222 55.3569" fill="#303030"/>
<path d="M386.186 40.5661C371.013 38.2363 374.628 79.3571 376.122 80.9155C377.616 82.4739 398.08 78.7294 399.411 77.2553C400.741 75.7812 396.833 40.9564 386.186 40.5661Z" fill="#51698F"/>
<path d="M393.438 149.553C393.618 149.981 394.791 152.47 394.575 153.035C394.185 154.059 388.322 155.771 387.952 155.618C387.582 155.465 387.202 154.993 387.379 154.759C387.555 154.525 389.653 153.269 389.88 152.957C390.106 152.645 390.093 151.43 389.693 150.914" fill="#1F161E"/>
<path d="M383.514 42.7087C383.514 43.6894 388.182 43.7643 388.182 42.7087V36.1504H383.514V42.7087Z" fill="#F8CDBA"/>
<path d="M388.186 39.3148C388.186 38.8432 386.468 36.2761 385.578 36.5509C386.675 36.1855 387.782 35.8857 388.186 36.1387V39.3148Z" fill="black"/>
<path d="M385.095 36.7873C388.445 36.7873 391.16 34.244 391.16 31.1066C391.16 27.9692 388.445 25.4258 385.095 25.4258C381.745 25.4258 379.029 27.9692 379.029 31.1066C379.029 34.244 381.745 36.7873 385.095 36.7873Z" fill="#F8CDBA"/>
<path d="M378.963 32.3619C379.523 32.3619 379.977 32.141 379.977 31.8684C379.977 31.5959 379.523 31.375 378.963 31.375C378.403 31.375 377.949 31.5959 377.949 31.8684C377.949 32.141 378.403 32.3619 378.963 32.3619Z" fill="#FA9E9F"/>
<path d="M385.324 32.3619C385.884 32.3619 386.338 32.141 386.338 31.8684C386.338 31.5959 385.884 31.375 385.324 31.375C384.764 31.375 384.311 31.5959 384.311 31.8684C384.311 32.141 384.764 32.3619 385.324 32.3619Z" fill="#FA9E9F"/>
<path d="M381.434 30.8438C381.244 31.0967 380.27 32.1585 381.297 32.5895" stroke="#1F161E" stroke-width="0.628471" stroke-miterlimit="10" stroke-linecap="round"/>
<path d="M383.352 33.8297C383.761 33.7261 384.116 33.4876 384.352 33.1582" stroke="#1F161E" stroke-width="0.628471" stroke-miterlimit="10" stroke-linecap="round"/>
<path d="M388.796 32.6277C389.535 32.6277 390.133 32.067 390.133 31.3754C390.133 30.6837 389.535 30.123 388.796 30.123C388.058 30.123 387.459 30.6837 387.459 31.3754C387.459 32.067 388.058 32.6277 388.796 32.6277Z" fill="#F8CDBA"/>
<path d="M399.13 78.8799C405.856 78.7081 410.688 74.2984 410.688 62.9525C410.688 58.268 402.372 44.1644 400.721 38.8365C399.867 36.0851 400.554 27.9903 396.196 23.871C394.095 21.8879 384.858 22.3563 382.474 23.2901C380.09 24.2239 380.37 27.0378 380.614 27.4781C381.184 27.0284 382.434 26.1165 382.658 26.1446C383.828 26.2789 387.023 29.6455 387.993 31.1914C388.78 32.4406 387.566 40.1982 389.103 42.4155C390.641 44.6329 396.083 43.468 396.083 43.468" fill="#1F161E"/>
<path d="M386.238 57.088C387.169 58.1779 394.038 69.7862 394.038 71.532C394.038 73.2777 392 85.6512 391.594 86.2508C392.524 86.9035 394.968 88.7023 394.968 88.7023C394.968 88.7023 402.418 76.382 402.418 69.4614C402.418 67.0067 396.482 47.0569 390.777 42.4785" fill="#51698F"/>
<path d="M386.238 57.0879C387.169 58.1778 394.038 69.7861 394.038 71.5319C394.038 72.3969 393.534 75.876 392.981 79.2364" stroke="#1F161E" stroke-width="0.910828" stroke-linecap="round" stroke-linejoin="round"/>
<path d="M388.491 40.548C388.207 42.8528 395.386 50.8946 398.184 53.2494C400.979 49.9515 399.301 41.7816 399.301 41.7816L393.599 39.3145L388.491 40.548Z" fill="#1F161E"/>
<path d="M394.968 23.5084C396.594 23.5084 397.912 22.0514 397.912 20.2542C397.912 18.4569 396.594 17 394.968 17C393.342 17 392.023 18.4569 392.023 20.2542C392.023 22.0514 393.342 23.5084 394.968 23.5084Z" fill="#1F161E"/>
<path d="M377.916 45.834C376.536 48.6728 375.682 52.3923 375.195 56.3336" stroke="#1F161E" stroke-width="0.910828" stroke-linecap="round" stroke-linejoin="round"/>
<path d="M338.838 44.8535C340.405 44.8535 341.675 43.8719 341.675 42.6611C341.675 41.4503 340.405 40.4688 338.838 40.4688C337.27 40.4688 336 41.4503 336 42.6611C336 43.8719 337.27 44.8535 338.838 44.8535Z" fill="#F8CDBA"/>
<path d="M340.452 36.1387L337.027 46.2822" stroke="black" stroke-width="2.73248" stroke-miterlimit="10" stroke-linecap="round"/>
</g>
<g clip-path="url(#clip2_8997_281161)">
<path d="M79.363 88.3496C79.1537 88.9488 77.123 91.7547 76.361 92.9956C75.5991 94.2364 74.3205 97.8871 75.4422 98.4862C76.5638 99.0854 78.4441 98.6467 79.0392 96.7248C79.6344 94.8029 81.6553 90.4712 82.3616 89.5217C83.068 88.5722 79.363 88.3496 79.363 88.3496Z" fill="#F8CDBA"/>
<path d="M155.598 31.3279C156.582 30.3915 164.551 22 164.63 22C165.372 22.1801 165.859 22.5402 165.32 23.3096C165.11 23.6076 163.848 25.0056 162.377 26.5837C162.817 26.9551 163.132 27.453 163.28 28.0099C163.428 28.5668 163.401 29.1558 163.203 29.6969C163.005 30.238 162.646 30.7052 162.174 31.035C161.702 31.3648 161.14 31.5414 160.565 31.5407C160.337 31.5384 160.109 31.5087 159.888 31.4523L158.622 32.9551L156.742 32.189L156.994 31.9107L155.598 31.3279Z" fill="#F8CDBA"/>
<path d="M143.198 128.48C143.175 128.9 142.423 132.341 142.756 132.773C143.361 133.559 148.59 133.493 148.848 133.261C149.107 133.028 149.28 132.524 149.071 132.367C148.862 132.21 146.808 131.676 146.54 131.466C146.272 131.257 145.935 130.199 146.111 129.649" fill="#1F161E"/>
<path d="M106.958 79.0977C104.669 80.7085 81.7782 148.46 82.151 149.533C82.5238 150.607 85.1333 151.203 86.0751 150.607C87.0168 150.011 104.796 117.771 105.751 116.815C106.706 115.859 120.659 101.296 122.566 95.5631C124.472 89.8302 106.958 79.0977 106.958 79.0977Z" fill="#1F161E"/>
<path d="M110.148 75.2461C108.699 76.0057 104.49 80.1572 104.49 84.574C104.49 97.0516 115.936 99.5694 120.017 99.4974C124.098 99.4253 140.962 100.129 147.345 97.9782C147.07 100.398 144.928 122.229 142.927 128.588C143.411 129.485 145.929 130.277 146.38 129.897C150.003 126.951 160.693 95.8206 160.487 93.6335C160.023 88.6961 112.8 75.8878 110.148 75.2461Z" fill="#7DBF9D"/>
<path d="M124.044 53.5418C124.251 54.4389 119.326 55.6536 119.1 54.6877L117.707 48.6699L122.651 47.5371L124.044 53.5418Z" fill="#F8CDBA"/>
<path d="M118.541 52.2656C118.416 51.7286 119.211 49.6005 120.225 49.6954C118.969 49.5513 118.066 48.2843 117.707 48.6706L118.541 52.2656Z" fill="black"/>
<path d="M121.353 49.791C117.712 49.791 114.76 46.8358 114.76 43.1904C114.76 39.545 117.712 36.5898 121.353 36.5898C124.994 36.5898 127.945 39.545 127.945 43.1904C127.945 46.8358 124.994 49.791 121.353 49.791Z" fill="#F8CDBA"/>
<path d="M126.976 42.7941C126.905 42.4858 127.326 42.1247 127.917 41.9875C128.508 41.8503 129.046 41.989 129.117 42.2973C129.188 42.6056 128.767 42.9667 128.176 43.1039C127.585 43.2411 127.048 43.1024 126.976 42.7941Z" fill="#FA9E9F"/>
<path d="M120.244 44.3566C120.172 44.0483 120.594 43.6872 121.185 43.55C121.776 43.4128 122.313 43.5515 122.384 43.8598C122.456 44.1681 122.034 44.5292 121.443 44.6664C120.852 44.8036 120.315 44.6649 120.244 44.3566Z" fill="#FA9E9F"/>
<path d="M125.163 41.9941C125.431 42.2332 126.736 43.1957 125.765 43.9357" stroke="#1F161E" stroke-width="0.268148" stroke-miterlimit="10" stroke-linecap="round"/>
<path d="M123.93 45.8428C123.603 45.905 123.017 45.63 122.671 45.332" stroke="#1F161E" stroke-width="0.268148" stroke-miterlimit="10" stroke-linecap="round"/>
<path d="M118.133 42.2054C118.117 40.7157 123.332 37.2779 125.844 38.3485C124.682 37.2785 123.176 36.6612 121.598 36.6091C120.02 36.5569 118.476 37.0732 117.247 38.0642C116.017 39.0551 115.183 40.4549 114.897 42.0092C114.611 43.5634 114.891 45.1689 115.687 46.5338C116.393 45.9019 118.133 43.61 118.133 42.2054Z" fill="black"/>
<path d="M116.765 45.3605C115.963 45.3605 115.313 44.7097 115.313 43.9068C115.313 43.104 115.963 42.4531 116.765 42.4531C117.567 42.4531 118.217 43.104 118.217 43.9068C118.217 44.7097 117.567 45.3605 116.765 45.3605Z" fill="#F8CDBA"/>
<path d="M156.128 30.8398C155.429 31.4554 141.544 45.2001 139.199 45.7698C131.299 47.6884 105.733 55.3531 97.0151 62.3695C87.9112 67.9813 78.2449 87.7536 78.5948 88.4542C78.9447 89.1549 82.8066 90.8247 83.5947 90.4744C84.3828 90.124 95.1741 75.1679 96.8418 74.2152C98.5095 73.2624 111.488 66.8484 111.488 66.8484C110.877 68.3414 109.121 74.667 109.386 75.5444C109.651 76.4219 115.305 80.2297 125.612 81.1661C126.665 80.5506 129.736 62.7231 129.736 62.7231C131.93 61.7408 146.449 54.0041 149.647 49.9868C150.886 48.4283 160.262 34.0026 160.262 33.2889C160.262 32.5751 156.128 30.8398 156.128 30.8398Z" fill="#999CBF"/>
<path d="M122.878 66.1547C123.79 65.7814 129.68 62.707 129.68 62.707" stroke="#1F161E" stroke-width="0.213741" stroke-miterlimit="10" stroke-linecap="round"/>
<path d="M117.533 52.7148C116.912 53.4712 112.51 62.5994 111.487 66.9605" stroke="#1F161E" stroke-width="0.213741" stroke-miterlimit="10" stroke-linecap="round"/>
<path d="M82.645 149.467C82.2886 149.794 81.4253 151.245 81.3828 151.785C81.1702 154.371 83.9661 158.402 84.4174 158.405C85.7254 158.405 86.4023 157.711 86.4023 156.899C86.4023 156.087 85.4213 155.095 85.4213 154.551C85.4213 154.008 85.5423 150.76 85.6339 150.279" fill="#1F161E"/>
</g>
<defs>
<clipPath id="clip0_8997_281161">
<rect width="217" height="136.222" fill="white" transform="translate(153 12)"/>
</clipPath>
<clipPath id="clip1_8997_281161">
<rect width="74.6879" height="143" fill="white" transform="translate(336 17)"/>
</clipPath>
<clipPath id="clip2_8997_281161">
<rect width="90.5485" height="136.406" fill="white" transform="matrix(-1 0 0 1 165.549 22)"/>
</clipPath>
</defs>
</svg>
