<svg width="314" height="115" viewBox="0 0 314 115" fill="none" xmlns="http://www.w3.org/2000/svg">
<path d="M109.172 63.9383C115.035 65.0522 113.989 100.041 102.735 97.924C92.1081 95.9152 102.019 62.5898 109.172 63.9383Z" fill="black"/>
<path d="M83.431 68.2756C88.0965 65.6374 107.626 90.2118 98.6928 95.263C90.2534 100.037 77.7502 71.4878 83.431 68.2756Z" fill="#FFF3E0"/>
<path d="M107.206 114.836H95.4251C94.9505 114.836 94.4927 114.661 94.1392 114.344C93.7857 114.028 93.5612 113.592 93.5089 113.12L92.0216 99.7626C91.9916 99.493 92.0189 99.2202 92.1015 98.962C92.1841 98.7037 92.3203 98.4657 92.5011 98.2636C92.682 98.0616 92.9034 97.8999 93.1509 97.7892C93.3985 97.6784 93.6666 97.6212 93.9378 97.6211H108.632C108.902 97.6208 109.17 97.6775 109.417 97.7875C109.664 97.8975 109.885 98.0584 110.066 98.2595C110.247 98.4607 110.383 98.6977 110.466 98.955C110.549 99.2124 110.577 99.4844 110.548 99.7533L109.126 113.111C109.075 113.585 108.85 114.023 108.496 114.341C108.142 114.66 107.682 114.836 107.206 114.836Z" fill="#BFBFBF"/>
<path d="M112.482 50.3177C116.947 51.6168 113.525 78.6351 104.975 76.1387C96.9027 73.7905 107.048 48.7379 112.482 50.3177Z" fill="#999CBF"/>
<path d="M119.845 71.8067C122.931 74.4696 110.378 94.8135 104.448 89.7036C98.847 84.8992 116.077 68.5667 119.845 71.8067Z" fill="#FFF3E0"/>
<path d="M101.346 53.1289C108.029 53.1289 114.148 95.8008 101.346 95.8008C89.2558 95.8008 93.2086 53.1289 101.346 53.1289Z" fill="#3B7858"/>
<path d="M113.075 94.7168H89.5622C88.872 94.7168 88.3125 95.2763 88.3125 95.9665V98.2437C88.3125 98.9339 88.872 99.4934 89.5622 99.4934H113.075C113.765 99.4934 114.325 98.9339 114.325 98.2437V95.9665C114.325 95.2763 113.765 94.7168 113.075 94.7168Z" fill="#D8D8D8"/>
<path d="M245.672 94.2917V93.9832L244.931 93.0575L243.234 90.9746L241.414 88.7715C241.414 88.7715 239.661 87.5588 239.21 87.349C237.569 86.5899 235.952 86.0098 234.02 86.0098C232.832 86.0098 228.392 86.1887 228.383 86.9355C228.383 88.0432 234.6 92.2367 239.161 94.2732C241.148 94.2917 245.672 94.2917 245.672 94.2917Z" fill="#1F161E"/>
<path d="M244.73 94.2925C238.401 89.4326 225.485 62.8648 228.796 53.0215C235.85 56.6163 243.588 69.0115 247.239 79.4781C247.432 80.159 247.587 80.8503 247.702 81.5486L249.183 88.3371L249.553 94.2925H244.73Z" fill="#FFF3E0"/>
<path d="M249.05 94.2927C246.915 92.5585 246.233 87.4239 246.214 85.5077C246.18 81.9314 246.73 79.2962 249.788 75.362C252.845 71.4277 252.022 64.8984 256.095 60.4982C260.168 56.0981 262.846 54.873 267.666 54.873C272.486 54.873 274.013 62.686 274.001 64.6516C273.945 72.5756 268.95 73.6957 265.907 77.4819C263.695 80.2281 263.522 82.4745 262.852 83.7581C259.254 90.667 256.342 93.2775 254.182 94.2927" fill="#7DBF9D"/>
<path d="M250.217 93.7191C250.279 80.1946 264.531 59.8815 267.577 56.8359" stroke="white" stroke-width="0.274287" stroke-linecap="round" stroke-linejoin="round"/>
<path d="M250.997 87.5808C249.42 85.862 247.985 80.9897 248.201 79.7246" stroke="white" stroke-width="0.274287" stroke-linecap="round" stroke-linejoin="round"/>
<path d="M246.959 93.1348C244.725 89.1666 234.125 69.8625 230.16 55.6406" stroke="white" stroke-width="0.274287" stroke-linecap="round" stroke-linejoin="round"/>
<path d="M254.181 94.293H260.816L255.261 114.982H240.41L234.945 94.293H254.181Z" fill="#A7532F"/>
<path d="M230.539 87.3594C233.776 87.5815 237.849 87.7297 240.737 89.6891" stroke="white" stroke-width="0.274287" stroke-linecap="round" stroke-linejoin="round"/>
<g clip-path="url(#clip0_8997_281225)">
<path d="M179.142 66.0391C179.285 66.4487 180.669 68.367 181.188 69.2154C181.707 70.0638 182.579 72.5596 181.814 72.9692C181.05 73.3789 179.768 73.0789 179.363 71.765C178.957 70.451 177.58 67.4896 177.098 66.8404C176.617 66.1913 179.142 66.0391 179.142 66.0391Z" fill="#EED0C3"/>
<path d="M127.183 27.055C126.512 26.4148 121.08 20.6777 121.027 20.6777C120.521 20.8008 120.189 21.0471 120.557 21.5731C120.699 21.7768 121.56 22.7326 122.563 23.8115C122.263 24.0655 122.048 24.4059 121.947 24.7866C121.846 25.1673 121.864 25.57 121.999 25.9399C122.134 26.3099 122.379 26.6293 122.7 26.8548C123.022 27.0803 123.405 27.201 123.797 27.2005C123.953 27.1989 124.108 27.1786 124.259 27.1401L125.121 28.1675L126.403 27.6437L126.231 27.4535L127.183 27.055Z" fill="#EED0C3"/>
<path d="M135.635 93.4766C135.651 93.7631 136.164 96.1162 135.936 96.4117C135.524 96.949 131.96 96.9042 131.783 96.7453C131.607 96.5863 131.489 96.2415 131.632 96.1341C131.775 96.0266 133.174 95.6617 133.357 95.5184C133.54 95.3751 133.77 94.652 133.649 94.2758" fill="#1F161E"/>
<path d="M160.332 59.7148C161.893 60.8162 177.494 107.136 177.24 107.87C176.986 108.604 175.207 109.012 174.565 108.604C173.923 108.197 161.806 86.1552 161.155 85.5016C160.504 84.8479 150.994 74.8914 149.695 70.9719C148.395 67.0524 160.332 59.7148 160.332 59.7148Z" fill="#1F161E"/>
<path d="M158.161 57.082C159.149 57.6013 162.017 60.4397 162.017 63.4593C162.017 71.99 154.216 73.7113 151.435 73.6621C148.653 73.6128 137.16 74.0941 132.809 72.6234C132.996 74.2776 134.456 89.2035 135.82 93.5505C135.49 94.1639 133.774 94.7056 133.467 94.4459C130.997 92.4313 123.711 71.1483 123.852 69.6531C124.168 66.2775 156.354 57.5208 158.161 57.082Z" fill="#FFA726"/>
<path d="M148.688 42.2428C148.547 42.8562 151.905 43.6868 152.058 43.0263L153.008 38.9114L149.638 38.1367L148.688 42.2428Z" fill="#EED0C3"/>
<path d="M152.439 41.3695C152.524 41.0023 151.982 39.547 151.291 39.612C152.147 39.5135 152.762 38.647 153.007 38.9112L152.439 41.3695Z" fill="black"/>
<path d="M150.522 39.6777C153.004 39.6777 155.016 37.6573 155.016 35.165C155.016 32.6727 153.004 30.6523 150.522 30.6523C148.041 30.6523 146.029 32.6727 146.029 35.165C146.029 37.6573 148.041 39.6777 150.522 39.6777Z" fill="#EED0C3"/>
<path d="M146.69 34.8936C146.739 34.6828 146.451 34.4359 146.048 34.342C145.645 34.2482 145.279 34.3431 145.231 34.5539C145.182 34.7647 145.469 35.0116 145.872 35.1054C146.275 35.1992 146.641 35.1044 146.69 34.8936Z" fill="#FA9E9F"/>
<path d="M151.28 35.9619C151.328 35.7512 151.041 35.5042 150.638 35.4104C150.235 35.3166 149.869 35.4114 149.821 35.6222C149.772 35.833 150.059 36.08 150.462 36.1738C150.865 36.2676 151.231 36.1727 151.28 35.9619Z" fill="#FA9E9F"/>
<path d="M147.925 34.3477C147.742 34.5111 146.853 35.1693 147.515 35.6753" stroke="#1F161E" stroke-width="0.473145" stroke-miterlimit="10" stroke-linecap="round"/>
<path d="M148.766 36.9782C148.989 37.0207 149.388 36.8326 149.624 36.6289" stroke="#1F161E" stroke-width="0.473145" stroke-miterlimit="10" stroke-linecap="round"/>
<path d="M152.716 34.4906C152.728 33.4722 149.173 31.1218 147.461 31.8538C148.253 31.1222 149.279 30.7002 150.355 30.6646C151.43 30.6289 152.482 30.9819 153.32 31.6594C154.158 32.3369 154.727 33.2939 154.922 34.3565C155.117 35.4191 154.926 36.5167 154.383 37.4499C153.902 37.0178 152.716 35.4509 152.716 34.4906Z" fill="black"/>
<path d="M153.65 36.6502C154.197 36.6502 154.64 36.2052 154.64 35.6562C154.64 35.1072 154.197 34.6621 153.65 34.6621C153.103 34.6621 152.66 35.1072 152.66 35.6562C152.66 36.2052 153.103 36.6502 153.65 36.6502Z" fill="#EED0C3"/>
<path d="M126.821 26.7207C127.298 27.1415 136.761 36.5385 138.359 36.9279C143.744 38.2397 161.169 43.4798 167.11 48.2768C173.315 52.1135 179.904 65.6313 179.665 66.1104C179.427 66.5894 176.794 67.731 176.257 67.4915C175.72 67.252 168.365 57.0268 167.229 56.3754C166.092 55.724 157.246 51.339 157.246 51.339C157.663 52.3597 158.86 56.6843 158.679 57.2842C158.499 57.8841 154.645 60.4874 147.62 61.1276C146.902 60.7068 144.809 48.5185 144.809 48.5185C143.314 47.847 133.418 42.5576 131.238 39.811C130.394 38.7455 124.004 28.883 124.004 28.395C124.004 27.9071 126.821 26.7207 126.821 26.7207Z" fill="#EF5350"/>
<path d="M149.484 50.8653C148.862 50.6101 144.848 48.5078 144.848 48.5078" stroke="#1F161E" stroke-width="0.377144" stroke-miterlimit="10" stroke-linecap="round"/>
<path d="M153.125 41.6758C153.548 42.1929 156.548 48.4336 157.246 51.4152" stroke="#1F161E" stroke-width="0.377144" stroke-miterlimit="10" stroke-linecap="round"/>
<path d="M176.905 107.824C177.148 108.048 177.736 109.04 177.765 109.409C177.91 111.177 176.004 113.933 175.697 113.935C174.805 113.935 174.344 113.461 174.344 112.905C174.344 112.35 175.012 111.672 175.012 111.3C175.012 110.929 174.93 108.708 174.868 108.379" fill="#1F161E"/>
</g>
<g clip-path="url(#clip1_8997_281225)">
<path d="M223.595 111.373C223.617 111.717 223.846 113.727 223.557 114.082C223.027 114.725 218.4 114.693 218.171 114.507C217.943 114.322 217.787 113.908 217.973 113.778C218.159 113.648 219.969 113.202 220.205 113.031C220.441 112.859 220.732 111.993 220.574 111.545" fill="#1F161E"/>
<path d="M200.664 55.8418C199.876 57.4945 193.256 75.5002 193.409 78.1255C193.562 80.7508 208.881 107.802 209.727 108.088C210.573 108.373 214.087 107.375 214.371 106.665C214.655 105.954 209.034 89.8104 208.881 85.6764" fill="#1F161E"/>
<path d="M200.664 55.8426C201.061 57.7901 207.648 84.6465 207.648 84.6465L219.726 111.691C220.73 112.144 223.685 112.192 224.202 112.048C224.719 111.905 222.236 86.0068 221.255 82.3369C220.273 78.6671 217.69 53.1895 217.69 53.1895C217.69 53.1895 204.159 53.396 200.664 55.8426Z" fill="#3B7858"/>
<path d="M203.927 27.1074C201.934 27.9686 189.224 33.7507 188.132 33.7507C187.04 33.7507 175.421 27.6808 174.739 27.2722C174.088 27.8734 173.097 28.8205 173.338 29.1292C173.579 29.4379 186.902 40.9488 188.031 40.9488C189.161 40.9488 200.604 37.7293 201.492 36.8449" fill="#303030"/>
<path d="M208.24 25.8521C196.818 24.1205 199.539 54.6839 200.664 55.8422C201.788 57.0005 217.195 54.2174 218.196 53.1217C219.198 52.0261 216.256 26.1423 208.24 25.8521Z" fill="#A0B1BF"/>
<path d="M213.699 106.857C213.835 107.175 214.719 109.026 214.556 109.446C214.262 110.208 209.848 111.48 209.569 111.366C209.29 111.252 209.004 110.902 209.137 110.728C209.27 110.553 210.85 109.62 211.02 109.388C211.191 109.156 211.181 108.253 210.88 107.87" fill="#1F161E"/>
<path d="M206.229 27.4458C206.229 28.1748 209.744 28.2305 209.744 27.4458V22.5703H206.229V27.4458Z" fill="#F8CDBA"/>
<path d="M209.747 24.9211C209.747 24.5705 208.454 22.6621 207.783 22.8664C208.609 22.5948 209.443 22.3719 209.747 22.5599V24.9211Z" fill="black"/>
<path d="M207.418 23.0422C209.94 23.0422 211.985 21.1519 211.985 18.8199C211.985 16.488 209.94 14.5977 207.418 14.5977C204.896 14.5977 202.852 16.488 202.852 18.8199C202.852 21.1519 204.896 23.0422 207.418 23.0422Z" fill="#F8CDBA"/>
<path d="M202.802 19.7551C203.224 19.7551 203.566 19.5909 203.566 19.3883C203.566 19.1857 203.224 19.0215 202.802 19.0215C202.381 19.0215 202.039 19.1857 202.039 19.3883C202.039 19.5909 202.381 19.7551 202.802 19.7551Z" fill="#FA9E9F"/>
<path d="M207.591 19.7551C208.013 19.7551 208.355 19.5909 208.355 19.3883C208.355 19.1857 208.013 19.0215 207.591 19.0215C207.17 19.0215 206.828 19.1857 206.828 19.3883C206.828 19.5909 207.17 19.7551 207.591 19.7551Z" fill="#FA9E9F"/>
<path d="M204.663 18.627C204.52 18.815 203.786 19.6044 204.56 19.9248" stroke="#1F161E" stroke-width="0.473145" stroke-miterlimit="10" stroke-linecap="round"/>
<path d="M206.105 20.8449C206.413 20.7679 206.681 20.5906 206.859 20.3457" stroke="#1F161E" stroke-width="0.473145" stroke-miterlimit="10" stroke-linecap="round"/>
<path d="M210.206 19.9518C210.762 19.9518 211.213 19.535 211.213 19.0208C211.213 18.5067 210.762 18.0898 210.206 18.0898C209.65 18.0898 209.199 18.5067 209.199 19.0208C209.199 19.535 209.65 19.9518 210.206 19.9518Z" fill="#F8CDBA"/>
<path d="M217.984 54.3291C223.048 54.2014 226.685 50.9239 226.685 42.4909C226.685 39.0091 220.424 28.5265 219.182 24.5665C218.539 22.5215 219.056 16.5049 215.775 13.4432C214.193 11.9693 207.239 12.3175 205.444 13.0115C203.649 13.7055 203.86 15.797 204.044 16.1242C204.473 15.79 205.414 15.1122 205.583 15.1331C206.464 15.2329 208.869 17.7352 209.599 18.8842C210.192 19.8127 209.278 25.5786 210.435 27.2266C211.593 28.8747 215.69 28.0089 215.69 28.0089" fill="#1F161E"/>
<path d="M208.279 38.1301C208.98 38.9402 214.151 47.5682 214.151 48.8657C214.151 50.1633 212.617 59.36 212.311 59.8056C213.011 60.2908 214.852 61.6278 214.852 61.6278C214.852 61.6278 220.46 52.4706 220.46 47.3268C220.46 45.5023 215.991 30.6744 211.696 27.2715" fill="#A0B1BF"/>
<path d="M208.279 38.1309C208.98 38.941 214.151 47.5689 214.151 48.8665C214.151 49.5095 213.772 52.0953 213.355 54.5929" stroke="#1F161E" stroke-width="0.685717" stroke-linecap="round" stroke-linejoin="round"/>
<path d="M209.975 25.8388C209.762 27.5518 215.166 33.5289 217.273 35.2791C219.376 32.8279 218.114 26.7556 218.114 26.7556L213.821 24.9219L209.975 25.8388Z" fill="#1F161E"/>
<path d="M214.852 13.1742C216.076 13.1742 217.069 12.0911 217.069 10.7551C217.069 9.41903 216.076 8.33594 214.852 8.33594C213.627 8.33594 212.635 9.41903 212.635 10.7551C212.635 12.0911 213.627 13.1742 214.852 13.1742Z" fill="#1F161E"/>
<path d="M202.013 29.7676C200.974 31.8776 200.331 34.6421 199.965 37.5715" stroke="#1F161E" stroke-width="0.685717" stroke-linecap="round" stroke-linejoin="round"/>
<path d="M172.594 29.0389C173.774 29.0389 174.731 28.3092 174.731 27.4091C174.731 26.509 173.774 25.7793 172.594 25.7793C171.414 25.7793 170.457 26.509 170.457 27.4091C170.457 28.3092 171.414 29.0389 172.594 29.0389Z" fill="#F8CDBA"/>
<path d="M173.809 22.5605L171.23 30.0999" stroke="black" stroke-width="2.05715" stroke-miterlimit="10" stroke-linecap="round"/>
</g>
<defs>
<clipPath id="clip0_8997_281225">
<rect width="61.7145" height="93.2575" fill="white" transform="translate(120.4 20.6777)"/>
</clipPath>
<clipPath id="clip1_8997_281225">
<rect width="56.2288" height="106.286" fill="white" transform="translate(170.457 8.33594)"/>
</clipPath>
</defs>
</svg>
