<svg width="586" height="160" viewBox="0 0 586 160" fill="none" xmlns="http://www.w3.org/2000/svg">
<path d="M180.347 80.5784C179.657 82.6449 172.967 109.837 171.673 111.154C170.378 112.472 134.141 131.234 134.141 131.234L136.592 137.455C136.592 137.455 174.567 125.33 176.533 124.255C178.5 123.179 193.469 110.047 195.754 104.528C198.039 99.0084 182.983 80.4941 180.347 80.5784Z" fill="#1F161E"/>
<path d="M216.721 154.662C216.721 155.289 216.354 159.227 217.085 159.594C217.815 159.96 225.838 160.176 226.205 159.813C226.571 159.449 226.787 158.682 226.468 158.463C226.149 158.244 223.042 157.622 222.62 157.332C222.198 157.042 221.616 155.487 221.829 154.662" fill="#1F161E"/>
<path d="M134.416 131.832C133.839 132.072 130.059 133.245 130.001 134.059C129.943 134.874 132.819 142.368 133.296 142.565C133.773 142.763 134.564 142.671 134.64 142.283C134.716 141.896 134.102 138.796 134.218 138.303C134.334 137.81 135.536 136.671 136.38 136.553" fill="#1F161E"/>
<path d="M215.329 65.0605C214.538 65.2872 208.299 66.8424 207.653 66.8424C207.007 66.8424 206.098 73.1184 206.746 73.0578C207.395 72.9971 215.587 70.5326 217.627 70.3402C219.667 70.1478 215.329 65.0605 215.329 65.0605Z" fill="#EED0C3"/>
<path d="M192.473 37.8785C197.133 37.4383 205.742 39.6788 208.449 41.2313C213.789 44.281 207.631 83.7083 204.861 86.642C202.383 87.6199 181.402 82.6882 180.348 80.5795C180.906 76.349 189.228 61.741 190.019 60.9502C189.491 60.4231 187.119 57.5236 187.119 57.5236C187.119 57.5236 189.254 54.6584 189.491 54.4976C188.811 54.0443 182.016 48.675 181.639 48.3745C182.999 46.3607 190.907 38.0182 192.473 37.8785Z" fill="#999CBF"/>
<path d="M199.167 72.1097C198.801 71.2135 187.538 58.0394 187.129 57.5122C187.746 56.6556 188.763 55.3456 189.596 54.3492C186.383 52.0033 182.933 49.3411 181.689 48.2656C181.668 48.2927 181.649 48.3208 181.631 48.35C181.069 49.0195 176.059 56.5212 176.059 57.5755C176.059 58.6298 191.389 73.5541 193.3 74.2869C195.211 75.0197 199.531 73.0032 199.167 72.1097Z" fill="#EED0C3"/>
<path d="M201.048 76.452C202.283 74.5635 201.607 71.9359 199.538 70.5832C197.469 69.2304 194.791 69.6647 193.556 71.5532C192.321 73.4417 192.997 76.0693 195.066 77.4221C197.135 78.7749 199.813 78.3406 201.048 76.452Z" fill="#EED0C3"/>
<path d="M217.137 71.0738C219.146 71.0738 220.775 69.4453 220.775 67.4363C220.775 65.4274 219.146 63.7988 217.137 63.7988C215.129 63.7988 213.5 65.4274 213.5 67.4363C213.5 69.4453 215.129 71.0738 217.137 71.0738Z" fill="#EED0C3"/>
<path d="M204.861 86.6406C204.861 86.6406 215.523 107.559 217.154 111.908C218.786 116.257 222.766 154.933 222.766 154.933C222.766 154.933 217.452 155.561 216.026 154.933C214.6 154.306 208.675 126.171 205.409 120.417C200.44 111.644 173.436 95.2968 180.347 80.5781" fill="#FFCC80"/>
<path d="M196.881 40.0242C196.757 40.7095 202.332 41.7085 202.456 41.0232L203.7 34.083L198.125 33.084L196.881 40.0242Z" fill="#EED0C3"/>
<path d="M201.768 35.9334C201.225 35.8358 197.469 36.7505 197.316 37.6071L198.126 33.084C198.993 33.2395 201.768 35.9334 201.768 35.9334Z" fill="#1F161E"/>
<path d="M203.907 36.6904C208.293 36.6904 211.849 33.1347 211.849 28.7485C211.849 24.3623 208.293 20.8066 203.907 20.8066C199.521 20.8066 195.965 24.3623 195.965 28.7485C195.965 33.1347 199.521 36.6904 203.907 36.6904Z" fill="#EED0C3"/>
<path d="M212.29 31.9128C212.36 31.5187 211.804 31.0893 211.048 30.9536C210.291 30.8178 209.621 31.0273 209.55 31.4213C209.479 31.8153 210.035 32.2448 210.792 32.3805C211.548 32.5162 212.219 32.3068 212.29 31.9128Z" fill="#EF9A9A"/>
<path d="M203.68 30.3698C203.751 29.9758 203.195 29.5463 202.438 29.4106C201.682 29.2749 201.011 29.4843 200.94 29.8783C200.87 30.2724 201.426 30.7018 202.182 30.8375C202.939 30.9733 203.61 30.7638 203.68 30.3698Z" fill="#EF9A9A"/>
<path d="M207.842 29.5898C208.031 29.9984 209.073 31.7697 207.578 32.1414" stroke="#1F161E" stroke-width="0.536797" stroke-miterlimit="10" stroke-linecap="round"/>
<path d="M204.492 33.4392C204.084 33.3522 203.538 32.7407 203.285 32.2188" stroke="#1F161E" stroke-width="0.536797" stroke-miterlimit="10" stroke-linecap="round"/>
<path d="M189.16 54.8855C189.888 54.0736 192.603 50.734 193.752 49.793" stroke="#1F161E" stroke-width="0.447331" stroke-miterlimit="10" stroke-linecap="round"/>
<path d="M204.993 18.1087C202.885 18.1087 196.627 17.0754 195.101 16C194.495 16.4244 192.259 19.0049 190.591 22.3261L193.875 24.8908L189.974 23.6546C189.205 25.3682 188.758 27.2089 188.656 29.0844C189.932 31.5332 193.053 32.2132 193.622 32.2132C197.312 32.2132 197.998 26.3959 199.737 25.468C202.698 23.8865 206.744 26.5224 211.319 25.7474C212.057 23.5386 210.046 18.1087 204.993 18.1087Z" fill="#1F161E"/>
<path d="M196.518 30.1847C197.531 30.1847 198.353 29.3634 198.353 28.3502C198.353 27.337 197.531 26.5156 196.518 26.5156C195.505 26.5156 194.684 27.337 194.684 28.3502C194.684 29.3634 195.505 30.1847 196.518 30.1847Z" fill="#EED0C3"/>
<path d="M190.284 71.9533C189.61 71.3339 183.431 72.2775 182.113 75.5433C183.829 71.7846 185.437 68.6901 185.914 67.9336C186.423 68.4186 190.284 71.9533 190.284 71.9533Z" fill="#1F161E"/>
<path d="M209.315 67.0508C209.17 68.1051 210.121 72.1538 212.093 71.6319L208.484 72.6204L209.315 67.0508Z" fill="#1F161E"/>
<path d="M272.428 36.1504H404.498C406.334 36.1504 408.094 36.8795 409.392 38.1774C410.69 39.4753 411.419 41.2355 411.419 43.071V127.627H265.508V43.071C265.508 41.2355 266.237 39.4753 267.535 38.1774C268.833 36.8795 270.593 36.1504 272.428 36.1504Z" fill="#E2E2E2"/>
<path d="M242.654 120.121C244.448 120.121 245.902 118.667 245.902 116.873C245.902 115.079 244.448 113.625 242.654 113.625C240.86 113.625 239.406 115.079 239.406 116.873C239.406 118.667 240.86 120.121 242.654 120.121Z" fill="#999CBF"/>
<path d="M251.803 120.121C253.596 120.121 255.051 118.667 255.051 116.873C255.051 115.079 253.596 113.625 251.803 113.625C250.009 113.625 248.555 115.079 248.555 116.873C248.555 118.667 250.009 120.121 251.803 120.121Z" fill="#999CBF"/>
<path d="M260.955 120.121C262.749 120.121 264.203 118.667 264.203 116.873C264.203 115.079 262.749 113.625 260.955 113.625C259.161 113.625 257.707 115.079 257.707 116.873C257.707 118.667 259.161 120.121 260.955 120.121Z" fill="#999CBF"/>
<path d="M270.103 120.121C271.897 120.121 273.351 118.667 273.351 116.873C273.351 115.079 271.897 113.625 270.103 113.625C268.31 113.625 266.855 115.079 266.855 116.873C266.855 118.667 268.31 120.121 270.103 120.121Z" fill="#999CBF"/>
<path d="M279.256 120.121C281.05 120.121 282.504 118.667 282.504 116.873C282.504 115.079 281.05 113.625 279.256 113.625C277.462 113.625 276.008 115.079 276.008 116.873C276.008 118.667 277.462 120.121 279.256 120.121Z" fill="#999CBF"/>
<path d="M288.408 120.121C290.202 120.121 291.656 118.667 291.656 116.873C291.656 115.079 290.202 113.625 288.408 113.625C286.614 113.625 285.16 115.079 285.16 116.873C285.16 118.667 286.614 120.121 288.408 120.121Z" fill="#999CBF"/>
<path d="M422.938 127.514H253.988V137H422.938V127.514Z" stroke="black" stroke-width="0.532819" stroke-miterlimit="10"/>
<path d="M317.57 24.291H242.582V72.8528H317.57V24.291Z" fill="#99ABC5"/>
<path opacity="0.68" d="M426.89 104.25H336.543V115.092H426.89V104.25Z" fill="#FFCC80"/>
<path d="M343.188 99.2792H336.543V88.4375H357.343" stroke="black" stroke-width="0.532819" stroke-miterlimit="10"/>
<path d="M426.891 88.4375V99.2792H402.531" stroke="black" stroke-width="0.532819" stroke-miterlimit="10"/>
<path d="M357.344 88.4375H400.898" stroke="black" stroke-width="0.532819" stroke-miterlimit="10"/>
<path d="M308.988 20H234V68.5618H308.988V20Z" stroke="black" stroke-width="0.532819" stroke-miterlimit="10"/>
<path d="M354.387 126.836H322.539V133.16H354.387V126.836Z" fill="#E2E2E2"/>
</svg>
