<svg role="img"  width="26" height="24" xmlns="http://www.w3.org/2000/svg"><g transform="translate(-6)" fill="none" fill-rule="evenodd"><path d="M0 0h32v32H0z"/><path d="M23.5 8h-15a2.493 2.493 0 0 0-1.776.713A2.416 2.416 0 0 0 6 10.462v11.076a2.416 2.416 0 0 0 .724 1.749c.47.463 1.11.72 1.776.713h15a2.493 2.493 0 0 0 1.776-.713c.47-.463.731-1.094.724-1.749V10.462a2.416 2.416 0 0 0-.724-1.749A2.493 2.493 0 0 0 23.5 8zm.375 4.185l-7.5 5.538a.633.633 0 0 1-.75 0l-7.5-5.538A.61.61 0 0 1 8 11.323a.631.631 0 0 1 .875-.123L16 16.462l7.125-5.262a.633.633 0 0 1 .62-.074.611.611 0 1 1 .13 1.058z" fill="#FFF" fill-rule="nonzero"/></g></svg>
