<svg role="img" id="Layer_1" data-name="Layer 1" xmlns="http://www.w3.org/2000/svg" viewBox="0 0 113.71 39"><defs><style>.cls-1{fill:#ffffff;}</style></defs><title>Horisontal_Feide</title><rect class="cls-1" x="27.99" y="20.34" width="4.24" height="10.18"/><polygon class="cls-1" points="18.23 23.31 13.99 23.31 13.99 34.76 4.24 34.76 4.24 20.34 0 20.34 0 35.61 0.02 35.61 0.02 39 32.23 39 32.23 34.76 18.23 34.76 18.23 23.31"/><circle class="cls-1" cx="16.11" cy="16.53" r="2.54"/><path class="cls-1" d="M16.11,4.24A11.87,11.87,0,0,1,28,16.1h4.25A16.11,16.11,0,0,0,0,16.1H4.25A11.87,11.87,0,0,1,16.11,4.24Z"/><polygon class="cls-1" points="53.32 21.59 45.61 21.59 45.61 15.48 55.7 15.48 55.7 12.07 41.98 12.07 41.98 34.75 45.61 34.75 45.61 25.01 53.32 25.01 53.32 21.59"/><path class="cls-1" d="M77.79,10.08a2.5,2.5,0,1,0,2.5,2.5A2.5,2.5,0,0,0,77.79,10.08Z"/><polygon class="cls-1" points="72.51 17.75 72.51 21.17 75.98 21.17 75.98 31.27 71.67 31.27 71.67 34.69 81.9 34.69 81.9 31.27 79.61 31.27 79.61 17.75 72.51 17.75"/><path class="cls-1" d="M97.52,34.69V10.46H93.89v8.83L93.65,19a4.09,4.09,0,0,0-3.31-1.64c-3.41,0-5.89,2.74-5.89,6.53v4.72c0,3.79,2.48,6.54,5.89,6.54a4.1,4.1,0,0,0,3.31-1.65l.24-.32v1.54Zm-3.65-4.6A3.34,3.34,0,0,1,91,31.7a2.83,2.83,0,0,1-2.91-3.12V23.86A2.83,2.83,0,0,1,91,20.74a3.34,3.34,0,0,1,2.88,1.65l0,0v7.64Z"/><path class="cls-1" d="M69.21,27.84V23.31c0-3.54-2.74-6.11-6.53-6.11s-6.54,2.57-6.54,6.11v5.58c0,3.48,2.84,6.1,6.61,6.1a6.54,6.54,0,0,0,6.11-3.72L65.5,29.83a2.75,2.75,0,0,1-2.75,1.93,2.84,2.84,0,0,1-3-2.87V27.84Zm-9.44-4.53a2.91,2.91,0,0,1,5.81,0v1.33H59.77Z"/><path class="cls-1" d="M113.71,27.84V23.31c0-3.54-2.75-6.11-6.54-6.11s-6.53,2.57-6.53,6.11v5.58c0,3.48,2.84,6.1,6.61,6.1a6.55,6.55,0,0,0,6.11-3.72L110,29.83a2.76,2.76,0,0,1-2.75,1.93,2.83,2.83,0,0,1-3-2.87V27.84Zm-9.44-4.53a2.91,2.91,0,0,1,5.81,0v1.33h-5.81Z"/></svg>
