<svg width="586" height="160" viewBox="0 0 586 160" fill="none" xmlns="http://www.w3.org/2000/svg">
<g clip-path="url(#clip0_7013_221883)">
<rect width="586" height="160" fill="#E3F2EB"/>
<g clip-path="url(#clip1_7013_221883)">
<path d="M272.051 20.8828H169.82V179.19H272.051V20.8828Z" fill="white"/>
<path d="M149.33 117.506H254.149" stroke="black" stroke-width="0.431355" stroke-miterlimit="10"/>
<path d="M149.33 127.859H254.149" stroke="black" stroke-width="0.431355" stroke-miterlimit="10"/>
<path d="M149.33 138.211H254.149" stroke="black" stroke-width="0.431355" stroke-miterlimit="10"/>
<path d="M149.33 148.564H254.149" stroke="black" stroke-width="0.431355" stroke-miterlimit="10"/>
<path d="M220.935 93.781C235.706 93.781 247.679 81.8073 247.679 67.037C247.679 52.2667 235.706 40.293 220.935 40.293C206.165 40.293 194.191 52.2667 194.191 67.037C194.191 81.8073 206.165 93.781 220.935 93.781Z" fill="#F2F2F2"/>
<path opacity="0.7" d="M296.421 77.1738H254.148V116.427H296.421V77.1738Z" fill="#254B38"/>
<path d="M266.468 94.2572V93.4211L273.199 89.9932V91.3309L268.036 93.8183L268.078 93.7346V93.9437L268.036 93.8601L273.199 96.3474V97.6851L266.468 94.2572ZM283.735 86.8161L280.286 99.629H279.157L282.606 86.8161H283.735ZM296.421 94.2572L289.69 97.6851V96.3474L294.853 93.8601L294.811 93.9437V93.7346L294.853 93.8183L289.69 91.3309V89.9932L296.421 93.4211V94.2572Z" fill="white"/>
</g>
<path d="M157.296 17.0879H103.594C99.3998 17.0879 96 20.4877 96 24.6816V149.036C96 153.229 99.3998 156.629 103.594 156.629H157.296C161.49 156.629 164.889 153.229 164.889 149.036V24.6816C164.889 20.4877 161.49 17.0879 157.296 17.0879Z" fill="#999CBF"/>
<path d="M155.692 21.1406H105.727C102.69 21.1406 100.229 23.6022 100.229 26.6387V147.256C100.229 150.292 102.69 152.754 105.727 152.754H155.692C158.728 152.754 161.19 150.292 161.19 147.256V26.6387C161.19 23.6022 158.728 21.1406 155.692 21.1406Z" fill="white"/>
<path d="M144.211 17H116.856C115.02 17 113.531 18.4885 113.531 20.3247V21.9567C113.531 23.7928 115.02 25.2813 116.856 25.2813H144.211C146.047 25.2813 147.536 23.7928 147.536 21.9567V20.3247C147.536 18.4885 146.047 17 144.211 17Z" fill="#999CBF"/>
<path d="M130.71 68.4467C140.489 68.4467 148.417 60.5187 148.417 50.739C148.417 40.9593 140.489 33.0312 130.71 33.0312C120.93 33.0312 113.002 40.9593 113.002 50.739C113.002 60.5187 120.93 68.4467 130.71 68.4467Z" fill="#E2E2E2"/>
<path d="M107.365 81.1332V73.7324H170V81.1332H107.365Z" fill="#FFCC80"/>
<path d="M139.324 93.8184H107.365V90.1172" stroke="black" stroke-width="0.203805" stroke-miterlimit="10"/>
<path d="M139.324 115.489H107.365V111.789" stroke="black" stroke-width="0.203805" stroke-miterlimit="10"/>
<path d="M107.365 86.418H170V90.1176" stroke="black" stroke-width="0.203805" stroke-miterlimit="10"/>
<path d="M107.365 120.775H170V124.475" stroke="black" stroke-width="0.203805" stroke-miterlimit="10"/>
<path d="M170 99.1035H107.365V106.503H170V99.1035Z" fill="#FFCC80"/>
<path d="M116.086 150.375H145.334" stroke="#E2E2E2" stroke-width="1.05637" stroke-linecap="round" stroke-linejoin="round"/>
<path d="M310.903 100.922C309.093 102.647 282.866 127.235 282.866 140.154C282.866 144.062 290.326 201.341 291.166 202.506H297.649C297.649 202.506 300.503 154.785 298.232 145.459C299.916 144.704 315.355 139.015 322.205 132.915C329.054 126.816 324.153 103.346 310.903 100.922Z" fill="#1F161E"/>
<path d="M310.903 100.922C308.864 101.302 337.049 222.262 337.049 222.262H344.049C344.049 222.262 341.391 107.776 339.866 102.203C332.605 99.8911 316.386 99.8911 310.903 100.922Z" fill="#DC9E83"/>
<path d="M348.464 54.5296C340.995 48.9565 315.44 48.9565 288.964 50.0737C285.833 50.2074 276.949 30.3133 273.162 27.4837C268.991 24.3693 262.345 27.1817 262.345 28.8381C262.345 32.4529 267.083 32.5391 268.086 33.7081C269.089 34.8771 278.05 62.7081 285.617 66.806C288.063 68.1346 306.157 67.6946 307.421 69.4243C308.685 71.1541 309.842 99.8478 310.898 100.913C311.954 101.979 336.967 102.863 339.845 102.207C340.004 99.9772 343.372 81.4807 344.216 80.0313C344.68 79.9882 351.412 91.9281 351.407 93.4336C351.407 95.4178 339.89 112.042 335.063 114.889C333.811 115.622 333.995 117.71 334.223 118.219C334.451 118.728 336.176 121.239 337.252 121.239C338.328 121.239 363.431 105.292 363.997 93.274C364.148 90.0259 358.09 61.7333 348.464 54.5296Z" fill="#5E4521"/>
<path d="M326.192 52.7521C326.053 54.4517 334.876 55.3748 335.022 53.5501L335.936 42.1882L327.105 41.3945L326.192 52.7521Z" fill="#F8CDBA"/>
<path d="M335.388 48.9731C335.47 47.9638 333.566 44.2843 331.837 44.72C333.973 44.129 335.217 41.5754 335.914 42.1879L335.388 48.9731Z" fill="black"/>
<path d="M328.27 45.3161C321.911 45.3161 316.756 39.8622 316.756 33.1346C316.756 26.407 321.911 20.9531 328.27 20.9531C334.628 20.9531 339.783 26.407 339.783 33.1346C339.783 39.8622 334.628 45.3161 328.27 45.3161Z" fill="#F8CDBA"/>
<path d="M316.452 34.7675C315.396 34.6723 314.577 34.1236 314.624 33.542C314.671 32.9605 315.565 32.5662 316.622 32.6615C317.679 32.7568 318.497 33.3054 318.45 33.887C318.404 34.4685 317.509 34.8628 316.452 34.7675Z" fill="#FA9E9F"/>
<path d="M328.487 35.8535C327.431 35.7582 326.612 35.2095 326.659 34.628C326.706 34.0464 327.6 33.6522 328.657 33.7474C329.714 33.8427 330.532 34.3914 330.486 34.9729C330.439 35.5545 329.544 35.9487 328.487 35.8535Z" fill="#FA9E9F"/>
<path d="M321.385 31.9531C320.977 32.4621 318.963 34.5628 320.83 35.6585" stroke="#1F161E" stroke-width="0.465864" stroke-miterlimit="10" stroke-linecap="round"/>
<path d="M324.475 38.6564C325.05 38.6866 325.996 38.031 326.514 37.3926" stroke="#1F161E" stroke-width="0.465864" stroke-miterlimit="10" stroke-linecap="round"/>
<path d="M339.804 27.0478C340.142 22.8334 334.842 19.1971 330.977 18.852C324.829 18.2956 321.384 18.4422 318.012 17.2646C313.185 15.5823 313.275 22.4409 313.21 23.2216C312.949 26.5042 313.915 28.6438 317.287 29.472C317.61 28.3376 318.101 27.2646 318.742 26.2929C319.724 25.9899 320.775 26.0648 321.71 26.5042C322.554 26.9054 329.542 31.1888 334.928 31.6805C335.56 32.8063 336.612 39.4794 335.922 42.1926C337.496 42.4299 340.839 37.2622 341.223 34.4282C341.336 33.4571 341.233 32.4712 340.922 31.5497C340.61 30.6283 340.099 29.797 339.429 29.1226C339.535 28.5273 339.775 27.3799 339.804 27.0478Z" fill="black"/>
<path d="M335.218 37.0243C333.817 37.0243 332.682 35.823 332.682 34.3412C332.682 32.8594 333.817 31.6582 335.218 31.6582C336.619 31.6582 337.754 32.8594 337.754 34.3412C337.754 35.823 336.619 37.0243 335.218 37.0243Z" fill="#F8CDBA"/>
<path d="M335.083 114.884C339.91 112.037 351.424 95.4127 351.428 93.4285C351.428 92.4622 348.668 87.2126 346.56 83.5763L360.047 75.8594C362.648 84.0551 364.071 91.6815 363.993 93.2732C363.43 105.291 338.349 121.212 337.272 121.212C336.196 121.212 334.472 118.723 334.243 118.193C334.015 117.662 333.827 115.617 335.083 114.884Z" fill="#F8CDBA"/>
<path d="M273.162 27.5012C276.95 30.3309 285.834 50.2164 288.981 50.0913C294.31 49.867 291.24 49.9792 296.352 49.8843L296.381 67.8157C290.449 67.8157 287.326 67.7337 285.638 66.8236C278.067 62.7257 269.102 34.9033 268.107 33.7257C267.112 32.5481 262.366 32.4704 262.366 28.8557C262.346 27.1993 269.004 24.3869 273.162 27.5012Z" fill="#F8CDBA"/>
</g>
<defs>
<clipPath id="clip0_7013_221883">
<rect width="586" height="160" fill="white"/>
</clipPath>
<clipPath id="clip1_7013_221883">
<rect width="147.092" height="158.307" fill="white" transform="translate(149.33 20.8828)"/>
</clipPath>
</defs>
</svg>
