<svg width="314" height="115" viewBox="0 0 314 115" fill="none" xmlns="http://www.w3.org/2000/svg">
<g clip-path="url(#clip0_7013_221943)">
<path d="M0 8C0 3.58172 3.58172 0 8 0H306C310.418 0 314 3.58172 314 8V115H0V8Z" fill="#E3F2EB"/>
<g clip-path="url(#clip1_7013_221943)">
<path d="M195.928 15H128.512V119.396H195.928V15Z" fill="white"/>
<path d="M115 78.7188H184.123" stroke="black" stroke-width="0.284458" stroke-miterlimit="10"/>
<path d="M115 85.5449H184.123" stroke="black" stroke-width="0.284458" stroke-miterlimit="10"/>
<path d="M115 92.373H184.123" stroke="black" stroke-width="0.284458" stroke-miterlimit="10"/>
<path d="M115 99.1992H184.123" stroke="black" stroke-width="0.284458" stroke-miterlimit="10"/>
<path d="M162.22 63.0735C171.961 63.0735 179.857 55.1774 179.857 45.4371C179.857 35.6969 171.961 27.8008 162.22 27.8008C152.48 27.8008 144.584 35.6969 144.584 45.4371C144.584 55.1774 152.48 63.0735 162.22 63.0735Z" fill="#F2F2F2"/>
<path opacity="0.7" d="M212 52.1211H184.123V78.0067H212V52.1211Z" fill="#254B38"/>
<path d="M192.248 64.1556V63.6043L196.687 61.3438V62.2259L193.282 63.8662L193.31 63.811V63.9489L193.282 63.8938L196.687 65.534V66.4162L192.248 64.1556ZM203.634 59.2486L201.36 67.6981H200.616L202.89 59.2486H203.634ZM212 64.1556L207.562 66.4162V65.534L210.967 63.8938L210.939 63.9489V63.811L210.967 63.8662L207.562 62.2259V61.3438L212 63.6043V64.1556Z" fill="white"/>
</g>
<g clip-path="url(#clip2_7013_221943)">
<path d="M91.5331 13H68.5977V48H91.5331V13Z" fill="white"/>
<path d="M64 34.3633H87.5161" stroke="black" stroke-width="0.431355" stroke-miterlimit="10"/>
<path d="M64 36.6504H87.5161" stroke="black" stroke-width="0.431355" stroke-miterlimit="10"/>
<path d="M64 38.9395H87.5161" stroke="black" stroke-width="0.431355" stroke-miterlimit="10"/>
<path d="M64 41.2285H87.5161" stroke="black" stroke-width="0.431355" stroke-miterlimit="10"/>
<path d="M80.0645 29.1166C83.3782 29.1166 86.0645 26.4694 86.0645 23.2038C86.0645 19.9383 83.3782 17.291 80.0645 17.291C76.7507 17.291 74.0645 19.9383 74.0645 23.2038C74.0645 26.4694 76.7507 29.1166 80.0645 29.1166Z" fill="#F2F2F2"/>
<path opacity="0.7" d="M96.9995 25.4453H87.5156V34.1238H96.9995V25.4453Z" fill="#254B38"/>
<path d="M91.4313 37.1966V36.3606L98.1617 32.9327V34.2704L92.9989 36.7577L93.0407 36.6741V36.8831L92.9989 36.7995L98.1617 39.2868V40.6246L91.4313 37.1966ZM94.8592 47.7556L91.4104 60.5684H90.2817L93.7305 47.7556H94.8592ZM98.1617 73.1966L91.4313 76.6246V75.2868L96.5941 72.7995L96.5523 72.8831V72.6741L96.5941 72.7577L91.4313 70.2704V68.9327L98.1617 72.3606V73.1966Z" fill="white"/>
</g>
<path d="M112.253 12.2832H73.9289C70.936 12.2832 68.5098 14.7268 68.5098 17.7412V107.121C68.5098 110.135 70.936 112.579 73.9289 112.579H112.253C115.245 112.579 117.672 110.135 117.672 107.121V17.7412C117.672 14.7268 115.245 12.2832 112.253 12.2832Z" fill="#999CBF"/>
<path d="M111.108 15.1934H75.451C73.284 15.1934 71.5273 16.9626 71.5273 19.1451V105.839C71.5273 108.021 73.284 109.79 75.451 109.79H111.108C113.275 109.79 115.031 108.021 115.031 105.839V19.1451C115.031 16.9626 113.275 15.1934 111.108 15.1934Z" fill="white"/>
<path d="M102.914 12.2188H83.3921C82.0818 12.2188 81.0195 13.2886 81.0195 14.6084V15.7814C81.0195 17.1011 82.0818 18.171 83.3921 18.171H102.914C104.224 18.171 105.286 17.1011 105.286 15.7814V14.6084C105.286 13.2886 104.224 12.2188 102.914 12.2188Z" fill="#999CBF"/>
<path d="M93.2795 49.197C100.259 49.197 105.916 43.4988 105.916 36.4696C105.916 29.4405 100.259 23.7422 93.2795 23.7422C86.3003 23.7422 80.6426 29.4405 80.6426 36.4696C80.6426 43.4988 86.3003 49.197 93.2795 49.197Z" fill="#E2E2E2"/>
<path d="M76.6191 58.3154V52.9961H121.318V58.3154H76.6191Z" fill="#FFCC80"/>
<path d="M99.4259 67.4317H76.6191V64.7715" stroke="black" stroke-width="0.203805" stroke-miterlimit="10"/>
<path d="M99.4259 83.0087H76.6191V80.3496" stroke="black" stroke-width="0.203805" stroke-miterlimit="10"/>
<path d="M76.6191 62.1133H121.318V64.7724" stroke="black" stroke-width="0.203805" stroke-miterlimit="10"/>
<path d="M76.6191 86.8086H121.318V89.4677" stroke="black" stroke-width="0.203805" stroke-miterlimit="10"/>
<path d="M121.318 71.2305H76.6191V76.5487H121.318V71.2305Z" fill="#FFCC80"/>
<path d="M82.8438 108.082H103.716" stroke="#E2E2E2" stroke-width="1.05637" stroke-linecap="round" stroke-linejoin="round"/>
<path d="M221.87 72.5371C220.579 73.7773 201.862 91.4493 201.862 100.735C201.862 103.544 207.186 144.714 207.786 145.551H212.412C212.412 145.551 214.448 111.251 212.828 104.548C214.029 104.006 225.048 99.9164 229.935 95.5325C234.823 91.1486 231.326 74.2795 221.87 72.5371Z" fill="#1F161E"/>
<path d="M221.871 72.5371C220.416 72.8099 240.53 159.75 240.53 159.75H245.525C245.525 159.75 243.628 77.4636 242.54 73.4579C237.358 71.7961 225.784 71.7961 221.871 72.5371Z" fill="#DC9E83"/>
<path d="M248.677 39.1928C243.346 35.1871 225.11 35.1871 206.215 35.9901C203.981 36.0862 197.641 21.7874 194.938 19.7535C191.962 17.515 187.219 19.5365 187.219 20.727C187.219 23.3251 190.6 23.3871 191.316 24.2273C192.032 25.0675 198.427 45.0711 203.827 48.0164C205.572 48.9714 218.485 48.6551 219.387 49.8984C220.289 51.1416 221.115 71.7652 221.868 72.531C222.622 73.2968 240.472 73.9324 242.526 73.4611C242.639 71.8582 245.043 58.5639 245.645 57.5222C245.977 57.4912 250.78 66.073 250.777 67.155C250.777 68.5812 242.558 80.53 239.113 82.5762C238.22 83.1033 238.351 84.6039 238.514 84.9697C238.677 85.3355 239.907 87.1399 240.675 87.1399C241.444 87.1399 259.357 75.6779 259.762 67.0403C259.869 64.7057 255.546 44.3704 248.677 39.1928Z" fill="#5E4521"/>
<path d="M232.783 37.9152C232.684 39.1368 238.98 39.8002 239.085 38.4888L239.736 30.3224L233.434 29.752L232.783 37.9152Z" fill="#F8CDBA"/>
<path d="M239.345 35.2004C239.404 34.4749 238.045 31.8303 236.811 32.1435C238.336 31.7187 239.223 29.8833 239.721 30.3235L239.345 35.2004Z" fill="black"/>
<path d="M234.266 32.5714C229.728 32.5714 226.05 28.6515 226.05 23.816C226.05 18.9805 229.728 15.0605 234.266 15.0605C238.804 15.0605 242.482 18.9805 242.482 23.816C242.482 28.6515 238.804 32.5714 234.266 32.5714Z" fill="#F8CDBA"/>
<path d="M225.832 24.9893C225.078 24.9209 224.494 24.5265 224.527 24.1085C224.56 23.6905 225.199 23.4072 225.953 23.4756C226.707 23.5441 227.291 23.9385 227.258 24.3565C227.224 24.7745 226.586 25.0578 225.832 24.9893Z" fill="#FA9E9F"/>
<path d="M234.42 25.7706C233.666 25.7021 233.081 25.3078 233.115 24.8898C233.148 24.4718 233.787 24.1884 234.541 24.2569C235.295 24.3254 235.879 24.7197 235.846 25.1377C235.812 25.5557 235.174 25.8391 234.42 25.7706Z" fill="#FA9E9F"/>
<path d="M229.352 22.9648C229.061 23.3307 227.623 24.8406 228.956 25.6281" stroke="#1F161E" stroke-width="0.465864" stroke-miterlimit="10" stroke-linecap="round"/>
<path d="M231.557 27.7834C231.967 27.8051 232.642 27.3339 233.012 26.875" stroke="#1F161E" stroke-width="0.465864" stroke-miterlimit="10" stroke-linecap="round"/>
<path d="M242.496 19.4406C242.738 16.4115 238.956 13.7979 236.197 13.5499C231.81 13.1499 229.351 13.2553 226.945 12.4089C223.5 11.1998 223.564 16.1294 223.518 16.6906C223.332 19.0499 224.021 20.5877 226.427 21.183C226.658 20.3676 227.009 19.5964 227.466 18.898C228.167 18.6802 228.917 18.7341 229.584 19.0499C230.186 19.3383 235.173 22.4169 239.017 22.7704C239.468 23.5796 240.218 28.3758 239.727 30.326C240.85 30.4965 243.235 26.7822 243.509 24.7453C243.59 24.0473 243.517 23.3387 243.294 22.6764C243.072 22.0141 242.707 21.4166 242.229 20.9319C242.304 20.504 242.476 19.6793 242.496 19.4406Z" fill="black"/>
<path d="M239.223 26.6108C238.224 26.6108 237.414 25.7474 237.414 24.6823C237.414 23.6173 238.224 22.7539 239.223 22.7539C240.223 22.7539 241.033 23.6173 241.033 24.6823C241.033 25.7474 240.223 26.6108 239.223 26.6108Z" fill="#F8CDBA"/>
<path d="M239.128 82.5724C242.573 80.5262 250.79 68.5774 250.793 67.1512C250.793 66.4567 248.823 62.6836 247.319 60.07L256.943 54.5234C258.799 60.4141 259.815 65.8956 259.76 67.0396C259.358 75.6772 241.459 87.1207 240.691 87.1207C239.923 87.1207 238.692 85.3318 238.529 84.9504C238.366 84.5691 238.232 83.0995 239.128 82.5724Z" fill="#F8CDBA"/>
<path d="M194.938 19.7652C197.641 21.7991 203.981 36.0918 206.227 36.0018C210.03 35.8406 207.839 35.9212 211.487 35.853L211.508 48.7412C207.274 48.7412 205.046 48.6823 203.841 48.0282C198.438 45.0828 192.04 25.0855 191.33 24.2391C190.621 23.3927 187.234 23.3369 187.234 20.7387C187.219 19.5482 191.971 17.5268 194.938 19.7652Z" fill="#F8CDBA"/>
</g>
<defs>
<clipPath id="clip0_7013_221943">
<path d="M0 8C0 3.58172 3.58172 0 8 0H306C310.418 0 314 3.58172 314 8V115H0V8Z" fill="white"/>
</clipPath>
<clipPath id="clip1_7013_221943">
<rect width="97" height="104.396" fill="white" transform="translate(115 15)"/>
</clipPath>
<clipPath id="clip2_7013_221943">
<rect width="33" height="35" fill="white" transform="translate(64 13)"/>
</clipPath>
</defs>
</svg>
