<svg width="25" height="29" viewBox="0 0 25 29" fill="none" xmlns="http://www.w3.org/2000/svg">
<g id="Symbol-hvit_Feide 1" clip-path="url(#clip0_14807_30009)">
<path id="Vector" d="M25.0005 15.1265H21.7109V22.6942H25.0005V15.1265Z" fill="white"/>
<path id="Vector_2" d="M14.1448 17.3334H10.8552V25.8468H3.28958V15.1265H0V26.4772H0.0161716V29H25V25.8468H14.1448V17.3334Z" fill="white"/>
<path id="Vector_3" d="M12.501 14.1803C13.591 14.1803 14.4746 13.3333 14.4746 12.2885C14.4746 11.2437 13.591 10.3967 12.501 10.3967C11.411 10.3967 10.5273 11.2437 10.5273 12.2885C10.5273 13.3333 11.411 14.1803 12.501 14.1803Z" fill="white"/>
<path id="Vector_4" d="M12.5003 3.15319C17.5742 3.15319 21.702 7.10985 21.702 11.9733H24.9916C24.9916 5.37114 19.3881 0 12.5003 0C5.61256 0 0.00976562 5.37114 0.00976562 11.9733H3.30204C3.30204 7.10985 7.42648 3.15319 12.5003 3.15319Z" fill="white"/>
</g>
<defs>
<clipPath id="clip0_14807_30009">
<rect width="25" height="29" fill="white"/>
</clipPath>
</defs>
</svg>
