<svg width="20" height="20" viewBox="0 0 20 20" fill="none" xmlns="http://www.w3.org/2000/svg">
<g id="help_outline" clip-path="url(#clip0_7110_251667)">
<path id="Vector" d="M9.16406 15.0001H10.8307V13.3334H9.16406V15.0001ZM9.9974 1.66675C5.3974 1.66675 1.66406 5.40008 1.66406 10.0001C1.66406 14.6001 5.3974 18.3334 9.9974 18.3334C14.5974 18.3334 18.3307 14.6001 18.3307 10.0001C18.3307 5.40008 14.5974 1.66675 9.9974 1.66675ZM9.9974 16.6667C6.3224 16.6667 3.33073 13.6751 3.33073 10.0001C3.33073 6.32508 6.3224 3.33341 9.9974 3.33341C13.6724 3.33341 16.6641 6.32508 16.6641 10.0001C16.6641 13.6751 13.6724 16.6667 9.9974 16.6667ZM9.9974 5.00008C8.15573 5.00008 6.66406 6.49175 6.66406 8.33342H8.33073C8.33073 7.41675 9.08073 6.66675 9.9974 6.66675C10.9141 6.66675 11.6641 7.41675 11.6641 8.33342C11.6641 10.0001 9.16406 9.79175 9.16406 12.5001H10.8307C10.8307 10.6251 13.3307 10.4167 13.3307 8.33342C13.3307 6.49175 11.8391 5.00008 9.9974 5.00008Z" fill="#00468E"/>
</g>
<defs>
<clipPath id="clip0_7110_251667">
<rect width="20" height="20" fill="white"/>
</clipPath>
</defs>
</svg>
