<svg width="314" height="115" viewBox="0 0 314 115" fill="none" xmlns="http://www.w3.org/2000/svg">
<g clip-path="url(#clip0_8997_281198)">
<path d="M218.718 98.7559H195.723V115.075H218.718V98.7559Z" fill="#63321C"/>
<path d="M243.73 89.584C243.878 90.4639 246.388 110.58 246.794 110.912C247.201 111.245 251.517 111.982 251.887 111.428C251.961 110.548 252.063 96.521 252.292 95.2662" fill="#1F161E"/>
<path d="M195.179 85.3872C193.438 84.5285 197.067 101.517 206.617 101.517C216.167 101.517 232.243 86.9692 234.845 86.9692C240.591 86.9692 254.192 98.2511 255.259 98.2511C256.075 97.4345 257.708 96.0056 257.708 95.4442C257.708 94.8829 244.686 73.4473 234.942 73.4473C231.164 73.4437 199.108 87.3282 195.179 85.3872Z" fill="#546B7D"/>
<path d="M200.553 85.6758C202.463 85.2429 204.838 84.122 206.941 82.9746C201.22 84.8435 196.532 86.0559 195.179 85.3872C194.257 84.9332 194.841 89.4804 197.009 93.8605C196.617 93.0123 196.057 86.6947 200.553 85.6758Z" fill="#1F161E"/>
<path d="M204.764 55.8726C206.268 55.9131 214.101 55.6825 216.248 57.7274C217.84 59.2425 222.792 72.2894 223.556 76.87C220.23 78.5594 196.241 90.0471 188.817 84.9948C188.653 81.0688 189.415 65.4721 194.27 57.291C196.046 56.1084 203.317 55.8339 204.764 55.8726Z" fill="#999CBF"/>
<path d="M207.814 52.1367H203.238V57.0552C203.238 58.2871 207.814 58.2765 207.814 57.0552V52.1367Z" fill="#F8CDBA"/>
<path d="M203.238 55.1033C203.238 54.5578 204.75 53.1869 205.684 53.2344C205.707 52.6396 203.55 51.7598 203.55 51.7598L203.238 52.5992V55.1033Z" fill="#1F161E"/>
<path d="M212.605 52.1386C212.708 51.6632 212.76 51.1783 212.76 50.692C212.76 47.0634 209.925 44.1211 206.425 44.1211C202.925 44.1211 200.09 47.0634 200.09 50.692C200.09 51.1783 200.142 51.6632 200.245 52.1386H212.605Z" fill="#1F161E"/>
<path d="M210.937 47.712C210.161 47.5941 209.387 46.9834 208.847 46.584C205.767 48.84 203.794 48.8717 203.582 48.8717C203.369 48.8717 202.501 50.1176 202.102 50.2584L202.066 50.2372C202.186 50.8922 202.441 51.5151 202.814 52.0665C203.187 52.6179 203.671 53.0857 204.234 53.4402C204.798 53.7948 205.429 54.0283 206.087 54.126C206.746 54.2238 207.417 54.1835 208.06 54.0079C208.702 53.8323 209.301 53.5251 209.818 53.1058C210.335 52.6865 210.759 52.1643 211.064 51.5723C211.369 50.9803 211.547 50.3315 211.588 49.6669C211.628 49.0024 211.53 48.3367 211.3 47.712C211.179 47.7269 211.058 47.7269 210.937 47.712Z" fill="#F8CDBA"/>
<path d="M202.994 44.9389C204.026 44.9389 204.863 44.1022 204.863 43.07C204.863 42.0379 204.026 41.2012 202.994 41.2012C201.962 41.2012 201.125 42.0379 201.125 43.07C201.125 44.1022 201.962 44.9389 202.994 44.9389Z" fill="#1F161E"/>
<path d="M203.828 48.7676C203.626 48.7771 203.435 48.8641 203.296 49.0104C203.156 49.1567 203.078 49.3511 203.078 49.5533C203.078 49.7555 203.156 49.9499 203.296 50.0962C203.435 50.2425 203.626 50.3295 203.828 50.339" stroke="#1F161E" stroke-width="0.511126" stroke-miterlimit="10" stroke-linecap="round"/>
<path d="M209.816 48.8633C210.047 49.1712 210.64 49.7097 209.816 50.2816" stroke="#1F161E" stroke-width="0.511126" stroke-miterlimit="10" stroke-linecap="round"/>
<path d="M207.32 50.7031C207.32 50.9337 207.419 51.4845 207.913 51.627" stroke="#1F161E" stroke-width="0.511126" stroke-miterlimit="10" stroke-linecap="round"/>
<path d="M205.788 50.7532C206.188 50.7532 206.513 50.5846 206.513 50.3766C206.513 50.1686 206.188 50 205.788 50C205.387 50 205.062 50.1686 205.062 50.3766C205.062 50.5846 205.387 50.7532 205.788 50.7532Z" fill="#FA9E9F"/>
<path d="M211.178 50.7532C211.579 50.7532 211.903 50.5846 211.903 50.3766C211.903 50.1686 211.579 50 211.178 50C210.778 50 210.453 50.1686 210.453 50.3766C210.453 50.5846 210.778 50.7532 211.178 50.7532Z" fill="#FA9E9F"/>
<path d="M216.082 69.4692L220.972 68.2109C221.442 69.0046 223.73 76.8601 223.73 76.8601L216.181 80.0418C216.279 78.553 216.577 71.7498 216.082 69.4692Z" fill="#F8CDBA"/>
<path d="M198.936 68.2402C198.936 68.8315 198.438 71.0822 198.145 72.1399" stroke="#1F161E" stroke-width="0.511126" stroke-miterlimit="10" stroke-linecap="round"/>
<path d="M216.083 69.4691C215.965 68.5381 215.275 63.2923 214.102 60.5312" stroke="#1F161E" stroke-width="0.511126" stroke-miterlimit="10" stroke-linecap="round"/>
<path d="M216.082 69.4692L220.972 68.2109C221.442 69.0046 223.73 76.8601 223.73 76.8601L216.181 80.0418C216.279 78.553 216.577 71.7498 216.082 69.4692Z" fill="#F8CDBA"/>
<path d="M255.406 97.8352C255.515 98.0024 256.972 99.7973 257.488 99.8184C258.004 99.8395 261.134 97.7173 260.997 97.2615C260.86 96.8057 258.896 97.1014 258.558 96.943C258.22 96.7846 257.469 96.0314 257.349 95.6953" fill="#1F161E"/>
<path d="M247.71 111.098C247.673 111.293 247.474 113.597 247.831 113.97C248.188 114.343 251.914 114.991 252.13 114.567C252.347 114.142 250.722 112.993 250.597 112.645C250.472 112.296 250.446 111.237 250.597 110.906" fill="#1F161E"/>
<path d="M241.865 77.3532H225.293L229.238 66.8984H245.81L241.865 77.3532Z" fill="#969696"/>
<path d="M228.06 76.959H211.488V77.3532H228.06V76.959Z" fill="#969696"/>
<path d="M198.144 72.1398C197.825 73.3347 196.271 78.4309 196.912 79.3073C197.553 80.1836 213.32 78.1916 217.542 76.8788C218.617 76.5269 219.414 75.603 219.891 75.4851C220.502 75.382 221.129 75.5078 221.653 75.8383C222.177 76.1688 222.561 76.6808 222.731 77.2765C221.045 78.093 196.704 90.5205 188.817 84.9895C187.327 83.9284 189.943 70.9062 190.061 70.248C191.393 70.4135 198.144 72.1398 198.144 72.1398Z" fill="#F8CDBA"/>
<path d="M216.309 77.2056C216.784 77.093 217.199 76.9839 217.54 76.8783C218.616 76.5264 219.413 75.6025 219.89 75.4846C220.501 75.3811 221.129 75.5066 221.653 75.8371C222.177 76.1677 222.562 76.68 222.732 77.276" stroke="#1F161E" stroke-width="0.511126" stroke-miterlimit="10" stroke-linecap="round"/>
<path d="M181.689 9H118.364C114.819 9 111.945 11.8736 111.945 15.4183V108.385C111.945 111.929 114.819 114.803 118.364 114.803H181.689C185.234 114.803 188.107 111.929 188.107 108.385V15.4183C188.107 11.8736 185.234 9 181.689 9Z" stroke="black" stroke-width="0.251601" stroke-miterlimit="10"/>
<path d="M188.296 20.1152H111.754V99.5707H188.296V20.1152Z" fill="#FFEBEE"/>
<path d="M150.027 112.332C152.983 112.332 155.379 109.936 155.379 106.98C155.379 104.025 152.983 101.629 150.027 101.629C147.072 101.629 144.676 104.025 144.676 106.98C144.676 109.936 147.072 112.332 150.027 112.332Z" fill="#FFA726"/>
<path d="M181.956 28.7979C182.779 28.7979 183.446 28.1304 183.446 27.3071C183.446 26.4838 182.779 25.8164 181.956 25.8164C181.132 25.8164 180.465 26.4838 180.465 27.3071C180.465 28.1304 181.132 28.7979 181.956 28.7979Z" fill="#999CBF"/>
<path d="M181.956 32.999C182.779 32.999 183.446 32.3316 183.446 31.5083C183.446 30.685 182.779 30.0176 181.956 30.0176C181.132 30.0176 180.465 30.685 180.465 31.5083C180.465 32.3316 181.132 32.999 181.956 32.999Z" fill="#999CBF"/>
<path d="M181.956 37.2022C182.779 37.2022 183.446 36.5347 183.446 35.7114C183.446 34.8881 182.779 34.2207 181.956 34.2207C181.132 34.2207 180.465 34.8881 180.465 35.7114C180.465 36.5347 181.132 37.2022 181.956 37.2022Z" fill="#999CBF"/>
<path d="M181.956 41.4033C182.779 41.4033 183.446 40.7359 183.446 39.9126C183.446 39.0893 182.779 38.4219 181.956 38.4219C181.132 38.4219 180.465 39.0893 180.465 39.9126C180.465 40.7359 181.132 41.4033 181.956 41.4033Z" fill="#999CBF"/>
<path d="M181.956 45.6065C182.779 45.6065 183.446 44.939 183.446 44.1157C183.446 43.2924 182.779 42.625 181.956 42.625C181.132 42.625 180.465 43.2924 180.465 44.1157C180.465 44.939 181.132 45.6065 181.956 45.6065Z" fill="#999CBF"/>
<path d="M181.956 49.8076C182.779 49.8076 183.446 49.1402 183.446 48.3169C183.446 47.4936 182.779 46.8262 181.956 46.8262C181.132 46.8262 180.465 47.4936 180.465 48.3169C180.465 49.1402 181.132 49.8076 181.956 49.8076Z" fill="#999CBF"/>
<path d="M128.772 46.8271C134.029 46.8271 138.29 42.5657 138.29 37.3091C138.29 32.0524 134.029 27.791 128.772 27.791C123.515 27.791 119.254 32.0524 119.254 37.3091C119.254 42.5657 123.515 46.8271 128.772 46.8271Z" stroke="black" stroke-width="0.103156" stroke-miterlimit="10"/>
<path d="M128.77 37.3086H170.442" stroke="black" stroke-width="0.0792542" stroke-miterlimit="10"/>
<path d="M103 55.4258H170.026" stroke="black" stroke-width="0.0792542" stroke-miterlimit="10"/>
<path d="M103 59.8438H170.026" stroke="black" stroke-width="0.0792542" stroke-miterlimit="10"/>
<path d="M103 64.2617H170.026" stroke="black" stroke-width="0.0792542" stroke-miterlimit="10"/>
<path d="M130.185 81.6426H117.43V94.3975H130.185V81.6426Z" fill="#7DBF9D"/>
<path d="M147.665 81.6426H134.91V94.3975H147.665V81.6426Z" fill="#7DBF9D"/>
<path d="M165.142 81.6426H152.387V94.3975H165.142V81.6426Z" fill="#7DBF9D"/>
<path d="M182.618 81.6426H169.863V94.3975H182.618V81.6426Z" fill="#7DBF9D"/>
</g>
<defs>
<clipPath id="clip0_8997_281198">
<path d="M0 8C0 3.58172 3.58172 0 8 0H306C310.418 0 314 3.58172 314 8V115H0V8Z" fill="white"/>
</clipPath>
</defs>
</svg>
