<svg width="440" height="160" viewBox="0 0 440 160" fill="none" xmlns="http://www.w3.org/2000/svg">
<path d="M225.652 131.571C234.998 131.571 242.574 129.896 242.574 127.83C242.574 125.764 234.998 124.09 225.652 124.09C216.307 124.09 208.73 125.764 208.73 127.83C208.73 129.896 216.307 131.571 225.652 131.571Z" fill="black"/>
<path d="M225.654 127.828L216.148 157.577" stroke="black" stroke-width="1.07253" stroke-miterlimit="10" stroke-linecap="round"/>
<path d="M225.652 127.828L235.158 157.577" stroke="black" stroke-width="1.07253" stroke-miterlimit="10" stroke-linecap="round"/>
<path d="M219.266 147.81L229.862 141.016" stroke="black" stroke-width="0.536263" stroke-miterlimit="10" stroke-linecap="round"/>
<path d="M221.398 141.016L231.998 147.81" stroke="black" stroke-width="0.536263" stroke-miterlimit="10" stroke-linecap="round"/>
<path d="M266.715 154.031C266.715 154.667 266.342 158.675 267.085 159.045C267.827 159.415 275.992 159.641 276.362 159.268C276.732 158.895 276.955 158.118 276.63 157.895C276.306 157.672 273.144 157.042 272.715 156.745C272.286 156.447 271.694 154.868 271.911 154.031" fill="#1F161E"/>
<path d="M242.307 101.629L246.903 99.9802C246.705 91.5958 244.745 72.8614 241.961 70.0755C241.307 69.424 228.367 68.2871 226.058 68.2871C212.282 68.2871 208.196 69.8584 207.158 70.8987C203.94 74.1163 202.938 89.0244 202.938 94.2449C202.938 99.4654 217.685 102.174 217.685 102.174L234.971 103.361C234.971 103.361 238.763 103.753 242.042 103.946C242.114 102.94 242.307 101.629 242.307 101.629Z" fill="#EBEEF3"/>
<path d="M256 106.492C257.258 106.12 269.763 104.079 272.487 106.76C275.212 109.442 283.786 147.884 283.786 148.768H276.882L267.562 128.71" fill="#1F161E"/>
<path d="M210.468 103.073C210.154 104.641 208.27 106.325 208.27 114.871C208.27 126.687 217.949 126.936 221.424 126.936C232.251 126.936 249.768 123.719 250.951 123.129C251.736 124.443 266.197 153.964 266.264 154.624H272.921C272.921 154.624 268.795 110.457 261.349 105.448C258.93 103.84 216.021 102.118 210.468 103.073Z" fill="#546B7D"/>
<path d="M249.452 94.4336C247.704 94.4336 246.262 94.8492 242.304 95.6268L242.098 103.199C245.851 101.687 246.723 99.5844 247.812 99.5844C250.53 99.5844 251.951 100.987 253.558 100.987C254.678 100.987 256.695 100.107 256.695 98.9114C256.695 96.407 251.619 94.4336 249.452 94.4336Z" fill="#EED0C3"/>
<path d="M277.273 148.236C277.273 148.874 276.9 152.88 277.643 153.253C278.386 153.626 286.551 153.846 286.921 153.476C287.291 153.106 287.513 152.325 287.189 152.103C286.864 151.88 283.703 151.247 283.274 150.95C282.845 150.652 282.252 149.073 282.47 148.236" fill="#1F161E"/>
<path d="M228.494 70.0705C228.494 71.0814 222.625 71.1109 222.625 70.0705V61.8496H228.494V70.0705Z" fill="#EED0C3"/>
<path d="M226.583 64.5619C226.046 64.5619 222.625 66.0741 222.625 66.9187V62.457C223.478 62.457 226.583 64.5619 226.583 64.5619Z" fill="#1F161E"/>
<path d="M227.715 64.9102C231.639 64.9102 234.82 61.729 234.82 57.8047C234.82 53.8805 231.639 50.6992 227.715 50.6992C223.791 50.6992 220.609 53.8805 220.609 57.8047C220.609 61.729 223.791 64.9102 227.715 64.9102Z" fill="#EED0C3"/>
<path d="M235.05 52.2276C234.17 53.6245 232.331 54.2654 230.338 54.2654C228.641 54.2654 226.169 53.772 224.41 54.7748C223.458 55.3111 222.367 56.5311 222.147 58.9738C222.147 59.392 221.672 61.0142 221.672 61.5371C221.672 61.8937 221.27 62.127 220.6 62.127C220.254 62.127 219.57 61.5666 219.57 60.7113C219.57 59.7218 219.964 59.3706 219.964 58.5313C219.964 57.6921 218.938 56.885 218.938 54.5523C218.938 51.1926 221.083 49.1226 222.6 49.1226C223.984 49.1226 224.418 49.4444 224.592 49.5811C224.592 46.5271 228.614 45.1328 230.21 45.1328C232.033 45.1328 232.891 45.8809 232.891 46.8328C232.891 48.3504 232.167 49.6401 231.8 49.9297C232.631 49.1817 233.711 48.7698 234.83 48.774C236.918 48.774 237.621 50.1469 237.621 51.0853C237.621 53.1258 235.173 55.0161 234.261 55.0161C234.032 54.5309 233.763 54.0655 233.457 53.6245" fill="#1F161E"/>
<path d="M234.893 59.1074C235.542 59.1074 236.068 58.8337 236.068 58.4961C236.068 58.1585 235.542 57.8848 234.893 57.8848C234.245 57.8848 233.719 58.1585 233.719 58.4961C233.719 58.8337 234.245 59.1074 234.893 59.1074Z" fill="#FA9E9F"/>
<path d="M227.506 59.1074C228.155 59.1074 228.681 58.8337 228.681 58.4961C228.681 58.1585 228.155 57.8848 227.506 57.8848C226.858 57.8848 226.332 58.1585 226.332 58.4961C226.332 58.8337 226.858 59.1074 227.506 59.1074Z" fill="#FA9E9F"/>
<path d="M232.023 57.2266C232.243 57.5403 233.364 58.8568 232.182 59.3904" stroke="#1F161E" stroke-width="0.268131" stroke-miterlimit="10" stroke-linecap="round"/>
<path d="M229.814 60.9276C229.46 60.9276 228.916 60.4879 228.629 60.0938" stroke="#1F161E" stroke-width="0.268131" stroke-miterlimit="10" stroke-linecap="round"/>
<path d="M202.938 93.3613C202.938 105.72 203.053 109.304 208.013 109.304C219.446 109.304 236.73 99.9198 239.811 99.9198C242.532 99.9198 243.954 101.325 245.56 101.325C246.678 101.325 248.694 100.443 248.694 99.2495C248.694 96.7425 243.618 94.769 241.455 94.769C236.583 94.769 217.14 99.4667 216.666 99.4667C216.191 99.4667 215.392 99.2602 215.392 98.4612C215.392 97.0106 216.341 93.659 216.465 93.3667L202.938 93.3613Z" fill="#EED0C3"/>
<path d="M276.125 101.333H251.32L255.814 85.8783C255.926 85.5054 256.156 85.1789 256.469 84.9474C256.783 84.7159 257.162 84.5919 257.552 84.594H278.6C278.876 84.5895 279.15 84.6497 279.399 84.7698C279.648 84.8898 279.866 85.0664 280.035 85.2854C280.203 85.5044 280.319 85.7599 280.371 86.0313C280.424 86.3028 280.412 86.5828 280.337 86.849L276.125 101.333Z" fill="black"/>
<path d="M306.496 158.581C306.688 159.315 307.439 159.753 308.172 159.56C308.906 159.367 309.344 158.616 309.151 157.883L295.423 105.667C295.23 104.933 294.479 104.495 293.746 104.688C293.013 104.881 292.575 105.632 292.768 106.365L306.496 158.581Z" fill="#999999"/>
<path d="M292.631 106.366C292.823 105.632 292.385 104.882 291.652 104.689C290.919 104.496 290.168 104.934 289.975 105.668L276.247 157.884C276.054 158.617 276.493 159.368 277.226 159.561C277.959 159.754 278.71 159.315 278.903 158.582L292.631 106.366Z" fill="#999999"/>
<path d="M273.689 106.368C273.882 105.634 273.444 104.884 272.711 104.691C271.977 104.498 271.227 104.936 271.034 105.67L257.306 157.886C257.113 158.619 257.551 159.37 258.284 159.563C259.018 159.756 259.768 159.317 259.961 158.584L273.689 106.368Z" fill="#BFBFBF"/>
<path d="M287.316 158.583C287.509 159.317 288.259 159.755 288.993 159.562C289.726 159.369 290.164 158.618 289.971 157.885L276.243 105.669C276.05 104.935 275.3 104.497 274.567 104.69C273.833 104.883 273.395 105.634 273.588 106.367L287.316 158.583Z" fill="#BFBFBF"/>
<path d="M196.453 106.254C196.642 105.519 196.2 104.769 195.464 104.58C194.729 104.39 193.979 104.833 193.79 105.568L180.292 157.939C180.102 158.675 180.545 159.425 181.28 159.614C182.016 159.804 182.766 159.361 182.955 158.626L196.453 106.254Z" fill="#999999"/>
<path d="M209.868 158.382C210.058 159.118 210.808 159.56 211.543 159.371C212.279 159.181 212.721 158.431 212.532 157.696L199.034 105.324C198.845 104.589 198.095 104.146 197.359 104.336C196.624 104.526 196.181 105.275 196.371 106.011L209.868 158.382Z" fill="#999999"/>
<path d="M301.087 102.109H168.316C167.645 102.109 167.102 102.653 167.102 103.324V104.957C167.102 105.628 167.645 106.172 168.316 106.172H301.087C301.758 106.172 302.301 105.628 302.301 104.957V103.324C302.301 102.653 301.758 102.109 301.087 102.109Z" fill="#BFBFBF"/>
<path d="M176.732 106.37C176.925 105.636 176.487 104.886 175.753 104.693C175.02 104.5 174.27 104.938 174.077 105.671L160.349 157.888C160.156 158.621 160.594 159.372 161.327 159.565C162.061 159.758 162.811 159.319 163.004 158.586L176.732 106.37Z" fill="#BFBFBF"/>
<path d="M190.363 158.583C190.555 159.317 191.306 159.755 192.039 159.562C192.773 159.369 193.211 158.618 193.018 157.885L179.29 105.669C179.097 104.935 178.347 104.497 177.613 104.69C176.88 104.883 176.442 105.634 176.635 106.367L190.363 158.583Z" fill="#BFBFBF"/>
<g clip-path="url(#clip0_8997_281118)">
<path d="M403.865 21.1348H262.023V114.445H403.865V21.1348Z" stroke="black" stroke-width="0.268131" stroke-miterlimit="10"/>
<path d="M262.023 26.0938H403.865" stroke="black" stroke-width="0.268131" stroke-miterlimit="10"/>
<path d="M393.145 34.4062H272.746V77.0391H393.145V34.4062Z" fill="#BFBFBF"/>
<path d="M300.367 48.916H365.523" stroke="black" stroke-width="0.268131" stroke-miterlimit="10"/>
<path d="M300.367 83.8574H365.523" stroke="black" stroke-width="0.268131" stroke-miterlimit="10"/>
<path d="M300.367 90.293H365.523" stroke="black" stroke-width="0.268131" stroke-miterlimit="10"/>
<path d="M300.367 96.7285H365.523" stroke="black" stroke-width="0.268131" stroke-miterlimit="10"/>
<path d="M300.367 103.164H365.523" stroke="black" stroke-width="0.268131" stroke-miterlimit="10"/>
<path d="M265.109 24.8878C265.775 24.8878 266.316 24.3476 266.316 23.6812C266.316 23.0148 265.775 22.4746 265.109 22.4746C264.443 22.4746 263.902 23.0148 263.902 23.6812C263.902 24.3476 264.443 24.8878 265.109 24.8878Z" fill="#EF5350"/>
<path d="M269.265 24.8878C269.932 24.8878 270.472 24.3476 270.472 23.6812C270.472 23.0148 269.932 22.4746 269.265 22.4746C268.599 22.4746 268.059 23.0148 268.059 23.6812C268.059 24.3476 268.599 24.8878 269.265 24.8878Z" fill="#51698F"/>
<path d="M273.421 24.8878C274.088 24.8878 274.628 24.3476 274.628 23.6812C274.628 23.0148 274.088 22.4746 273.421 22.4746C272.755 22.4746 272.215 23.0148 272.215 23.6812C272.215 24.3476 272.755 24.8878 273.421 24.8878Z" fill="#7DBF9D"/>
<path d="M331.357 55.7227H316.457V60.8574H331.357V55.7227Z" fill="#E3F2EB"/>
<path d="M349.431 55.7227H334.531V60.8574H349.431V55.7227Z" fill="#E3F2EB"/>
</g>
<defs>
<clipPath id="clip0_8997_281118">
<rect width="142.11" height="93.5779" fill="white" transform="translate(261.891 21)"/>
</clipPath>
</defs>
</svg>
