<svg width="314" height="115" viewBox="0 0 314 115" fill="none" xmlns="http://www.w3.org/2000/svg">
<path d="M0 8C0 3.58172 3.58172 0 8 0H306C310.418 0 314 3.58172 314 8V115H0V8Z" fill="#EF9A9A"/>
<path d="M293.062 95.9694C293.589 95.9694 296.694 95.777 297.221 96.2195C298.171 97.0198 297.814 103.588 297.51 103.915C297.206 104.242 296.563 104.419 296.375 104.146C296.186 103.873 295.628 101.268 295.378 100.917C295.128 100.567 292.3 99.9786 291.596 100.171" fill="#1F161E"/>
<path d="M174.772 93.9121L174.66 110.138" stroke="black" stroke-width="2.11083" stroke-miterlimit="10" stroke-linecap="round"/>
<path d="M205.598 73.0215C205.036 74.0758 205.483 80.3321 178.118 99.7937C177.554 100.033 177.047 100.39 176.634 100.843C176.22 101.295 175.909 101.831 175.721 102.414C175.721 102.414 176.144 103.953 177.344 103.545C178.545 103.137 199.203 95.5343 209.43 88.3276C212.039 86.55 217.291 79.0624 217.291 79.0624L205.598 73.0215Z" fill="#F8CDBA"/>
<path d="M221.445 71.5977C222.238 72.9636 227.844 84.8799 227.844 86.0958C227.844 87.3116 226.982 99.655 224.643 107.054C223.761 107.173 220.795 107.654 220.795 109.428C220.795 109.917 221.853 111.502 224.327 111.498C225.124 111.498 228.044 110.586 228.652 109.613C229.26 108.639 235.963 89.02 236.086 86.5844C236.209 84.1488 235.659 75.6801 234.866 74.0948C234.073 72.5096 221.445 71.5977 221.445 71.5977Z" fill="#1F161E"/>
<path d="M246.288 75.9043C243.636 78.6169 239.069 105.916 240.593 109.145C242.117 112.373 246.288 111.926 246.288 111.926C246.288 111.926 293.368 104.908 293.964 104.177C294.561 103.446 294.691 96.1662 293.233 95.1735C291.775 94.1808 270.059 93.0111 266.084 93.9269C262.109 94.8426 255.291 77.7666 255.291 77.7666L246.288 75.9043Z" fill="#1F161E"/>
<path d="M298.226 101.161C298.753 101.161 301.858 100.968 302.385 101.411C303.335 102.211 302.978 108.779 302.674 109.106C302.37 109.433 301.727 109.61 301.539 109.337C301.35 109.064 300.792 106.463 300.542 106.109C300.292 105.755 297.464 105.17 296.76 105.362" fill="#1F161E"/>
<path d="M215.884 47.251C214.699 47.4165 211.925 52.4108 213.149 60.0407C208.916 64.7503 208.974 66.9358 204.684 74.6928C206.719 76.2318 215.142 82.0034 215.142 82.0034C215.142 82.0034 221.606 72.842 222.198 72.9459C224.422 73.8617 238.563 78.0595 251.591 78.0325C254.542 78.0325 268.482 62.5648 267.87 60.9373C267.259 59.3097 239.074 44.0228 215.884 47.251Z" fill="#C7C9E3"/>
<path d="M266.158 60.5059C267.155 60.8137 279.444 66.2774 279.29 73.4841C279.09 82.6955 267.539 98.1324 266.158 99.8985C268.767 99.9755 295.108 99.6677 298.409 100.514C299.483 100.745 298.794 105.131 298.409 105.735C298.025 106.34 273.942 112.992 245.038 114.97C243.272 115.089 242.814 112.511 242.506 111.207C242.199 109.903 246.947 85.3542 252.487 75.962C253.118 74.8731 266.158 60.5059 266.158 60.5059Z" fill="#EBEEF3"/>
<path d="M175.664 105.397C178.006 105.397 179.904 104.22 179.904 102.769C179.904 101.317 178.006 100.141 175.664 100.141C173.322 100.141 171.424 101.317 171.424 102.769C171.424 104.22 173.322 105.397 175.664 105.397Z" fill="#F8CDBA"/>
<path d="M198.91 41.236C198.387 41.1898 196.636 39.0082 197.571 34.1293C198.702 32.648 202.446 32.1786 202.573 33.8561C202.7 35.5337 200.507 41.3861 198.91 41.236Z" fill="#1F161E"/>
<path d="M213.791 53.7378C214.899 54.3304 217.504 49.6477 216.307 49.0129L208.862 45.0459L206.342 49.7747L213.791 53.7378Z" fill="#F8CDBA"/>
<path d="M213.311 47.4122C212.645 47.062 209.74 47.0274 209.648 48.1201C209.729 46.7388 208.289 45.2652 208.878 45.042L213.311 47.4122Z" fill="black"/>
<path d="M205.511 50.4093C209.353 50.4093 212.468 47.2948 212.468 43.4527C212.468 39.6107 209.353 36.4961 205.511 36.4961C201.669 36.4961 198.555 39.6107 198.555 43.4527C198.555 47.2948 201.669 50.4093 205.511 50.4093Z" fill="#F8CDBA"/>
<path d="M198.755 45.9334C199.391 45.846 199.869 45.5073 199.824 45.1768C199.779 44.8463 199.226 44.6491 198.591 44.7364C197.955 44.8237 197.476 45.1625 197.522 45.493C197.567 45.8235 198.119 46.0207 198.755 45.9334Z" fill="#7DBF9D"/>
<path d="M205.98 44.9402C206.615 44.8529 207.094 44.5142 207.049 44.1836C207.003 43.8531 206.451 43.6559 205.815 43.7433C205.179 43.8306 204.701 44.1693 204.746 44.4998C204.792 44.8304 205.344 45.0275 205.98 44.9402Z" fill="#7DBF9D"/>
<path d="M201.303 43.707C201.134 44.0418 200.203 45.4693 201.434 45.854" stroke="#1F161E" stroke-width="0.485491" stroke-miterlimit="10" stroke-linecap="round"/>
<path d="M203.969 47.031C204.311 46.9733 204.788 46.4808 205.019 46.0537" stroke="#1F161E" stroke-width="0.485491" stroke-miterlimit="10" stroke-linecap="round"/>
<path d="M208.043 28.4621C217.247 28.4621 223.857 29.9743 228.167 29.9743C234.796 29.9743 240.029 27 247.459 27C250.849 27 259.537 29.8781 259.537 39.6204C259.537 45.1419 256.459 56.1078 243.273 56.1078C231.984 56.1078 230.014 51.3328 225.439 51.3328C220.614 51.3328 211.641 53.6068 210.125 47.4543C209.798 45.8191 209.428 43.8144 208.52 42.1676C203.465 40.4092 201.822 40.5631 199.448 39.1549C196.008 37.5196 195.846 28.4621 208.043 28.4621Z" fill="#1F161E"/>
<path d="M209.758 44.7337C210.604 44.7337 211.289 44.048 211.289 43.2023C211.289 42.3565 210.604 41.6709 209.758 41.6709C208.912 41.6709 208.227 42.3565 208.227 43.2023C208.227 44.048 208.912 44.7337 209.758 44.7337Z" fill="#F8CDBA"/>
<g clip-path="url(#clip0_7013_221935)">
<path d="M144.515 113.788C145.141 113.803 148.862 114.08 149.5 113.563C150.658 112.629 150.345 104.786 149.989 104.409C149.632 104.032 148.865 103.786 148.633 104.113C148.402 104.44 147.695 107.538 147.382 107.946C147.069 108.354 145.504 108.902 144.665 108.656" fill="#1F161E"/>
<path d="M70.1595 94.9993C71.0202 93.9873 100.477 72.2692 106.282 72.3813C112.088 72.4934 129.076 107.566 128.753 108.746C128.431 109.926 119.439 107.99 118.156 106.915C116.873 105.841 107.907 96.4004 105.678 91.6271C104.802 92.8913 97.5848 101.211 95.4285 102.553C93.2721 103.895 70.1595 94.9993 70.1595 94.9993Z" fill="#1F161E"/>
<path d="M145.456 113.996C144.968 114.382 59.9161 115.939 52.8869 113.996C45.8576 112.053 44.0017 112.246 44.0987 108.167C44.1958 104.088 57.8693 93.6914 59.6251 93.6914C62.3166 93.6914 90.008 95.871 111.969 103.932C120.732 105.358 144.831 108.049 144.831 108.049C145.225 109.475 145.932 112.103 145.456 113.996Z" fill="#FFCC80"/>
<path d="M39.5237 55.7134C34.9387 57.7342 29.299 83.8488 30.0658 84.7051C30.8326 85.5614 37.3329 88.5069 37.3329 88.5069C37.4581 94.8651 42.8724 110.085 44.4967 110.748C55.9138 107.516 62.9368 97.4433 62.9368 94.6845C62.9368 91.9258 71.631 94.04 72.3008 93.2709C72.613 92.9521 72.9679 92.6776 73.3555 92.4551C73.3555 92.4551 68.661 88.4073 64.9898 85.7793C65.1182 84.6553 66.1009 63.591 64.8334 61.6107C62.3108 57.6843 45.2385 53.1944 39.5237 55.7134Z" fill="#51698F"/>
<path d="M37.2925 88.5C38.5443 89.0885 49.9144 93.9646 54.8906 94.9983" stroke="#1F161E" stroke-width="0.386985" stroke-miterlimit="10" stroke-linecap="round"/>
<path d="M44.4174 71.6562C43.8259 72.9017 40.1861 80.0788 40.6305 80.8168C41.0749 81.5547 61.7996 91.1605 63.6211 91.7459" stroke="#1F161E" stroke-width="0.386985" stroke-miterlimit="10" stroke-linecap="round"/>
<path d="M61.6058 69.8086C61.7216 72.4677 61.6464 85.4705 61.202 90.2719" stroke="#1F161E" stroke-width="0.386985" stroke-miterlimit="10" stroke-linecap="round"/>
<path d="M63.6208 91.7449C63.4331 92.1341 62.1248 95.8924 61.9871 96.7081C61.8494 97.5239 67.2012 98.6013 69.0665 98.511C70.9318 98.4207 73.207 96.6988 73.207 94.6624C73.207 92.6261 70.406 91.1844 63.6208 91.7449Z" fill="#EED0C3"/>
<path d="M56.0817 58.5186C55.894 59.406 50.9741 58.4532 51.1713 57.5004L52.4169 51.5781L57.3242 52.5963L56.0817 58.5186Z" fill="#EED0C3"/>
<path d="M51.6743 55.1098C51.7838 54.5835 53.3799 53.0174 54.25 53.5155C53.1828 52.871 52.9011 51.3702 52.416 51.5664L51.6743 55.1098Z" fill="black"/>
<path d="M57.9598 54.6702C54.3628 54.6702 51.4469 51.7692 51.4469 48.1906C51.4469 44.612 54.3628 41.7109 57.9598 41.7109C61.5568 41.7109 64.4727 44.612 64.4727 48.1906C64.4727 51.7692 61.5568 54.6702 57.9598 54.6702Z" fill="#EED0C3"/>
<path d="M64.1078 50.9344C63.5206 50.8125 63.0965 50.4666 63.1604 50.1619C63.2243 49.8572 63.7521 49.7091 64.3393 49.831C64.9264 49.9529 65.3505 50.2988 65.2866 50.6034C65.2227 50.9081 64.6949 51.0563 64.1078 50.9344Z" fill="#51698F"/>
<path d="M57.4242 49.5447C56.837 49.4228 56.4129 49.077 56.4768 48.7723C56.5408 48.4676 57.0685 48.3194 57.6557 48.4413C58.2428 48.5633 58.6669 48.9091 58.603 49.2138C58.5391 49.5185 58.0113 49.6667 57.4242 49.5447Z" fill="#51698F"/>
<path d="M61.8716 48.6982C62.0093 49.0096 62.7824 50.417 61.6056 50.6723" stroke="#1F161E" stroke-width="0.485491" stroke-miterlimit="10" stroke-linecap="round"/>
<path d="M59.1719 51.6123C58.8589 51.5376 58.4427 51.0487 58.2549 50.6377" stroke="#1F161E" stroke-width="0.485491" stroke-miterlimit="10" stroke-linecap="round"/>
<path d="M52.6439 43.2276C53.1071 41.0262 56.5372 40.0267 58.6841 40.472C62.1017 41.1819 66.0921 42.8758 66.7305 43.2743C67.7977 43.9157 67.7258 45.1737 67.6381 45.5847C67.2782 47.2972 66.427 48.2313 64.474 48.1099C64.4709 47.4745 64.3652 46.8437 64.1611 46.2417C63.6742 45.9299 63.0924 45.7987 62.518 45.8712C62.0016 45.9397 57.5574 46.9952 54.5655 46.3725C54.0491 46.8457 52.4561 50.0747 52.4123 51.5692C51.5266 51.4354 50.5063 48.2625 50.7379 46.7586C50.825 46.246 51.0318 45.761 51.3416 45.3424C51.6514 44.9238 52.0557 44.5834 52.5218 44.3486C52.5656 44.0247 52.6094 43.402 52.6439 43.2276Z" fill="black"/>
<path d="M54.01 49.11C53.2183 49.11 52.5766 48.4715 52.5766 47.6839C52.5766 46.8963 53.2183 46.2578 54.01 46.2578C54.8016 46.2578 55.4434 46.8963 55.4434 47.6839C55.4434 48.4715 54.8016 49.11 54.01 49.11Z" fill="#EED0C3"/>
</g>
<defs>
<clipPath id="clip0_7013_221935">
<rect width="120.317" height="74.5826" fill="white" transform="matrix(-1 0 0 1 150.316 40.3691)"/>
</clipPath>
</defs>
</svg>
