<svg width="440" height="160" viewBox="0 0 440 160" fill="none" xmlns="http://www.w3.org/2000/svg">
<g clip-path="url(#clip0_7013_221881)">
<rect width="440" height="160" fill="#C7C9E3"/>
<g clip-path="url(#clip1_7013_221881)">
<path d="M272.01 30H164.539V196.421H272.01V30Z" fill="white"/>
<path d="M182.366 78.6102C185.917 78.6102 188.796 75.7314 188.796 72.1801C188.796 68.6289 185.917 65.75 182.366 65.75C178.814 65.75 175.936 68.6289 175.936 72.1801C175.936 75.7314 178.814 78.6102 182.366 78.6102Z" fill="#EF5350" stroke="#F2F2F2" stroke-width="1.36039" stroke-miterlimit="10"/>
<path d="M182.366 100.741C185.917 100.741 188.796 97.8622 188.796 94.311C188.796 90.7597 185.917 87.8809 182.366 87.8809C178.814 87.8809 175.936 90.7597 175.936 94.311C175.936 97.8622 178.814 100.741 182.366 100.741Z" fill="#EF5350" stroke="#F2F2F2" stroke-width="1.36039" stroke-miterlimit="10"/>
<path d="M182.366 122.87C185.917 122.87 188.796 119.991 188.796 116.44C188.796 112.889 185.917 110.01 182.366 110.01C178.814 110.01 175.936 112.889 175.936 116.44C175.936 119.991 178.814 122.87 182.366 122.87Z" stroke="#F2F2F2" stroke-width="1.36039" stroke-miterlimit="10"/>
<path d="M182.366 144.993C185.917 144.993 188.796 142.114 188.796 138.563C188.796 135.012 185.917 132.133 182.366 132.133C178.814 132.133 175.936 135.012 175.936 138.563C175.936 142.114 178.814 144.993 182.366 144.993Z" stroke="#F2F2F2" stroke-width="1.36039" stroke-miterlimit="10"/>
<path d="M182.366 167.122C185.917 167.122 188.796 164.243 188.796 160.692C188.796 157.141 185.917 154.262 182.366 154.262C178.814 154.262 175.936 157.141 175.936 160.692C175.936 164.243 178.814 167.122 182.366 167.122Z" stroke="#F2F2F2" stroke-width="1.36039" stroke-miterlimit="10"/>
<path d="M252.116 43.5352H175.93V51.0762H252.116V43.5352Z" fill="#F2F2F2"/>
<path d="M280.767 137.543H193.33V139.584H280.767V137.543Z" fill="#F2F2F2"/>
<path d="M280.767 159.668H193.33V161.709H280.767V159.668Z" fill="#F2F2F2"/>
<path d="M280.767 69.4414H193.33V71.482H280.767V69.4414Z" fill="#F2F2F2"/>
<path d="M193.598 74.9238H258.429" stroke="black" stroke-width="0.453463" stroke-miterlimit="10"/>
<path d="M280.767 91.5703H193.33V93.6109H280.767V91.5703Z" fill="#F2F2F2"/>
<path d="M193.598 97.0488H258.429" stroke="black" stroke-width="0.453463" stroke-miterlimit="10"/>
<path d="M280.767 113.701H193.33V115.742H280.767V113.701Z" fill="#F2F2F2"/>
<path d="M193.598 119.178H258.429" stroke="black" stroke-width="0.453463" stroke-miterlimit="10"/>
</g>
<g clip-path="url(#clip2_7013_221881)">
<path d="M97.2897 154.582C97.2584 155.097 96.9415 158.113 97.342 158.646C98.0768 159.611 104.495 159.562 104.812 159.283C105.129 159.005 105.345 158.385 105.087 158.19C104.829 157.995 102.318 157.326 101.991 157.068C101.664 156.811 101.26 155.512 101.479 154.84" fill="#1F161E"/>
<path d="M129.098 71.2715C130.192 73.751 139.375 100.764 139.162 104.703C138.95 108.642 117.7 149.226 116.526 149.655C115.353 150.083 110.477 148.585 110.084 147.52C109.69 146.454 117.488 122.234 117.7 116.031" fill="#1F161E"/>
<path d="M129.1 71.2715C128.549 74.1932 119.411 114.485 119.411 114.485L102.657 155.059C101.264 155.738 97.1655 155.812 96.4481 155.596C95.7307 155.38 99.1749 116.526 100.537 111.02C101.898 105.514 105.482 67.291 105.482 67.291C105.482 67.291 124.252 67.601 129.1 71.2715Z" fill="#FFCDD2"/>
<path d="M124.572 28.1621C127.337 29.4541 144.968 38.1289 146.483 38.1289C147.998 38.1289 164.115 29.0223 165.062 28.4094C165.964 29.3113 167.34 30.7322 167.005 31.1953C166.671 31.6585 148.19 48.928 146.623 48.928C145.055 48.928 129.182 44.0978 127.95 42.771" fill="#EF5350"/>
<path d="M118.59 26.2802C134.435 23.6822 130.66 69.5357 129.1 71.2735C127.54 73.0112 106.168 68.8357 104.778 67.192C103.389 65.5483 107.47 26.7155 118.59 26.2802Z" fill="#EF5350"/>
<path d="M111.014 147.809C110.826 148.286 109.601 151.061 109.827 151.692C110.234 152.834 116.356 154.742 116.743 154.572C117.13 154.401 117.527 153.875 117.342 153.614C117.157 153.353 114.967 151.953 114.73 151.604C114.493 151.256 114.507 149.902 114.925 149.327" fill="#1F161E"/>
<path d="M121.379 28.6686C121.379 29.7621 116.503 29.8457 116.503 28.6686V21.3555H121.379V28.6686Z" fill="#EED0C3"/>
<path d="M116.499 24.8826C116.499 24.3567 118.293 21.4941 119.223 21.8006C118.077 21.3931 116.921 21.0588 116.499 21.3409V24.8826Z" fill="black"/>
<path d="M119.728 22.0657C116.229 22.0657 113.393 19.2296 113.393 15.7311C113.393 12.2326 116.229 9.39648 119.728 9.39648C123.226 9.39648 126.062 12.2326 126.062 15.7311C126.062 19.2296 123.226 22.0657 119.728 22.0657Z" fill="#EED0C3"/>
<path d="M126.133 17.1298C125.548 17.1298 125.074 16.8834 125.074 16.5795C125.074 16.2756 125.548 16.0293 126.133 16.0293C126.717 16.0293 127.191 16.2756 127.191 16.5795C127.191 16.8834 126.717 17.1298 126.133 17.1298Z" fill="#FA9E9F"/>
<path d="M119.488 17.1298C118.904 17.1298 118.43 16.8834 118.43 16.5795C118.43 16.2756 118.904 16.0293 119.488 16.0293C120.073 16.0293 120.547 16.2756 120.547 16.5795C120.547 16.8834 120.073 17.1298 119.488 17.1298Z" fill="#FA9E9F"/>
<path d="M123.551 15.4375C123.75 15.7196 124.767 16.9036 123.694 17.3842" stroke="#1F161E" stroke-width="0.240289" stroke-miterlimit="10" stroke-linecap="round"/>
<path d="M121.549 18.7683C121.122 18.6528 120.751 18.3869 120.504 18.0195" stroke="#1F161E" stroke-width="0.240289" stroke-miterlimit="10" stroke-linecap="round"/>
<path d="M115.863 17.4277C115.092 17.4277 114.467 16.8025 114.467 16.0312C114.467 15.26 115.092 14.6348 115.863 14.6348C116.635 14.6348 117.26 15.26 117.26 16.0312C117.26 16.8025 116.635 17.4277 115.863 17.4277Z" fill="#EED0C3"/>
<path d="M105.071 69.0012C98.0466 68.8096 93.0005 63.8924 93.0005 51.2407C93.0005 46.017 101.686 30.2902 103.41 24.3492C104.301 21.2811 103.584 12.2546 108.135 7.66124C110.329 5.44988 119.976 5.97225 122.466 7.0135C124.956 8.05476 124.663 11.1924 124.409 11.6835C123.813 11.182 122.507 10.1651 122.274 10.1965C121.052 10.3462 117.716 14.1003 116.702 15.8241C115.88 17.2171 117.148 25.8675 115.542 28.34C113.937 30.8126 108.254 29.5136 108.254 29.5136" fill="#1F161E"/>
<path d="M118.533 44.7011C117.562 45.9165 110.388 58.8607 110.388 60.8074C110.388 62.7541 112.516 76.5516 112.94 77.2202C111.969 77.9481 109.416 79.954 109.416 79.954C109.416 79.954 101.636 66.2157 101.636 58.4986C101.636 55.7613 107.835 33.5154 113.794 28.4102" fill="#EF5350"/>
<path d="M118.533 44.7012C117.562 45.9165 110.388 58.8608 110.388 60.8075C110.388 61.7722 110.914 65.6516 111.492 69.3987" stroke="#1F161E" stroke-width="0.348245" stroke-linecap="round" stroke-linejoin="round"/>
<path d="M116.183 26.2584C116.479 28.8284 108.981 37.7958 106.059 40.4215C103.141 36.7441 104.893 27.634 104.893 27.634L110.848 24.8828L116.183 26.2584Z" fill="#1F161E"/>
<path d="M109.417 7.25743C107.719 7.25743 106.342 5.6328 106.342 3.62872C106.342 1.62463 107.719 0 109.417 0C111.115 0 112.492 1.62463 112.492 3.62872C112.492 5.6328 111.115 7.25743 109.417 7.25743Z" fill="#1F161E"/>
<path d="M127.227 32.1543C128.668 35.3198 129.56 39.4674 130.068 43.8623" stroke="#1F161E" stroke-width="0.348245" stroke-linecap="round" stroke-linejoin="round"/>
<path d="M168.036 31.0593C166.4 31.0593 165.073 29.9648 165.073 28.6146C165.073 27.2644 166.4 26.1699 168.036 26.1699C169.673 26.1699 171 27.2644 171 28.6146C171 29.9648 169.673 31.0593 168.036 31.0593Z" fill="#EED0C3"/>
<path d="M166.351 21.3398L169.928 32.6509" stroke="black" stroke-width="1.04474" stroke-miterlimit="10" stroke-linecap="round"/>
</g>
<g clip-path="url(#clip3_7013_221881)">
<path d="M376.663 90.0645C376.871 90.661 378.89 93.4549 379.647 94.6904C380.404 95.9259 381.675 99.5608 380.56 100.157C379.445 100.754 377.577 100.317 376.985 98.4035C376.393 96.4899 374.385 92.1769 373.683 91.2315C372.981 90.2861 376.663 90.0645 376.663 90.0645Z" fill="#EED0C3"/>
<path d="M300.889 33.2877C299.911 32.3554 291.99 24 291.912 24C291.174 24.1793 290.69 24.5379 291.226 25.304C291.434 25.6007 292.689 26.9927 294.151 28.564C293.714 28.9338 293.4 29.4296 293.253 29.984C293.107 30.5385 293.133 31.1249 293.33 31.6637C293.526 32.2025 293.883 32.6677 294.352 32.9961C294.821 33.3245 295.38 33.5003 295.952 33.4996C296.179 33.4973 296.405 33.4678 296.625 33.4116L297.882 34.908L299.751 34.1451L299.501 33.868L300.889 33.2877Z" fill="#EED0C3"/>
<path d="M313.213 130.021C313.236 130.439 313.984 133.865 313.652 134.295C313.051 135.078 307.854 135.013 307.597 134.781C307.34 134.55 307.168 134.048 307.376 133.891C307.584 133.735 309.625 133.203 309.892 132.995C310.158 132.786 310.493 131.733 310.317 131.185" fill="#1F161E"/>
<path d="M349.234 80.8516C351.509 82.4555 374.261 149.915 373.89 150.984C373.52 152.053 370.926 152.647 369.99 152.053C369.054 151.46 351.382 119.359 350.433 118.407C349.484 117.455 335.615 102.954 333.72 97.2461C331.825 91.5378 349.234 80.8516 349.234 80.8516Z" fill="#1F161E"/>
<path d="M346.063 77.0176C347.503 77.7739 351.686 81.9076 351.686 86.3053C351.686 98.7292 340.31 101.236 336.254 101.164C332.197 101.093 315.436 101.794 309.091 99.6518C309.364 102.061 311.493 123.799 313.482 130.13C313.001 131.023 310.499 131.812 310.05 131.434C306.449 128.5 295.824 97.5034 296.028 95.3257C296.49 90.4097 343.427 77.6565 346.063 77.0176Z" fill="#7DBF9D"/>
<path d="M332.25 55.4066C332.046 56.2998 336.941 57.5093 337.165 56.5476L338.549 50.5557L333.635 49.4277L332.25 55.4066Z" fill="#EED0C3"/>
<path d="M337.721 54.1345C337.844 53.5999 337.054 51.4809 336.047 51.5754C337.295 51.432 338.192 50.1704 338.55 50.5551L337.721 54.1345Z" fill="black"/>
<path d="M334.926 51.6697C338.544 51.6697 341.478 48.7273 341.478 45.0976C341.478 41.4678 338.544 38.5254 334.926 38.5254C331.307 38.5254 328.373 41.4678 328.373 45.0976C328.373 48.7273 331.307 51.6697 334.926 51.6697Z" fill="#EED0C3"/>
<path d="M329.338 44.7045C329.409 44.3976 328.99 44.038 328.403 43.9014C327.815 43.7648 327.281 43.9029 327.21 44.2099C327.14 44.5168 327.558 44.8764 328.146 45.013C328.733 45.1496 329.267 45.0115 329.338 44.7045Z" fill="#FA9E9F"/>
<path d="M336.03 46.2592C336.101 45.9523 335.682 45.5927 335.094 45.4561C334.507 45.3195 333.973 45.4576 333.902 45.7645C333.831 46.0715 334.25 46.431 334.837 46.5676C335.425 46.7042 335.959 46.5662 336.03 46.2592Z" fill="#FA9E9F"/>
<path d="M331.14 43.9082C330.873 44.1462 329.576 45.1046 330.542 45.8414" stroke="#1F161E" stroke-width="0.376364" stroke-miterlimit="10" stroke-linecap="round"/>
<path d="M332.363 47.739C332.688 47.801 333.27 47.5271 333.615 47.2305" stroke="#1F161E" stroke-width="0.376364" stroke-miterlimit="10" stroke-linecap="round"/>
<path d="M338.127 44.1168C338.143 42.6335 332.959 39.2105 330.463 40.2765C331.618 39.2111 333.115 38.5966 334.683 38.5446C336.251 38.4926 337.786 39.0067 339.008 39.9934C340.23 40.9801 341.059 42.3739 341.343 43.9214C341.628 45.469 341.349 47.0675 340.558 48.4265C339.856 47.7974 338.127 45.5154 338.127 44.1168Z" fill="black"/>
<path d="M339.486 47.2601C340.283 47.2601 340.929 46.6121 340.929 45.8127C340.929 45.0133 340.283 44.3652 339.486 44.3652C338.689 44.3652 338.043 45.0133 338.043 45.8127C338.043 46.6121 338.689 47.2601 339.486 47.2601Z" fill="#EED0C3"/>
<path d="M300.362 32.8027C301.058 33.4156 314.858 47.1011 317.189 47.6683C325.042 49.5787 350.452 57.2104 359.117 64.1966C368.166 69.7842 377.774 89.4713 377.426 90.169C377.078 90.8666 373.24 92.5292 372.457 92.1804C371.673 91.8316 360.947 76.9399 359.29 75.9912C357.632 75.0426 344.732 68.6562 344.732 68.6562C345.34 70.1428 347.085 76.4411 346.822 77.3148C346.558 78.1885 340.939 81.9799 330.694 82.9122C329.647 82.2993 326.595 64.5486 326.595 64.5486C324.414 63.5706 309.983 55.8672 306.804 51.8672C305.572 50.3155 296.254 35.9519 296.254 35.2412C296.254 34.5305 300.362 32.8027 300.362 32.8027Z" fill="#FFA726"/>
<path d="M333.411 67.964C332.504 67.5924 326.65 64.5312 326.65 64.5312" stroke="#1F161E" stroke-width="0.3" stroke-miterlimit="10" stroke-linecap="round"/>
<path d="M338.723 54.582C339.34 55.3351 343.715 64.424 344.732 68.7663" stroke="#1F161E" stroke-width="0.3" stroke-miterlimit="10" stroke-linecap="round"/>
<path d="M373.399 150.918C373.753 151.244 374.611 152.688 374.653 153.226C374.864 155.801 372.086 159.815 371.637 159.818C370.337 159.818 369.664 159.127 369.664 158.318C369.664 157.51 370.639 156.522 370.639 155.981C370.639 155.44 370.519 152.206 370.428 151.726" fill="#1F161E"/>
</g>
</g>
<defs>
<clipPath id="clip0_7013_221881">
<rect width="440" height="160" fill="white"/>
</clipPath>
<clipPath id="clip1_7013_221881">
<rect width="154.631" height="166.421" fill="white" transform="translate(143 30)"/>
</clipPath>
<clipPath id="clip2_7013_221881">
<rect width="78" height="159.458" fill="white" transform="matrix(-1 0 0 1 171 0)"/>
</clipPath>
<clipPath id="clip3_7013_221881">
<rect width="90" height="135.818" fill="white" transform="translate(291 24)"/>
</clipPath>
</defs>
</svg>
