<svg width="314" height="115" viewBox="0 0 314 115" fill="none" xmlns="http://www.w3.org/2000/svg">
<g clip-path="url(#clip0_7013_221949)">
<path d="M0 8C0 3.58172 3.58172 0 8 0H306C310.418 0 314 3.58172 314 8V115H0V8Z" fill="#C7C9E3"/>
<g clip-path="url(#clip1_7013_221949)">
<path d="M211.611 25.9609H142.203V133.441H211.611V25.9609Z" fill="white"/>
<path d="M153.715 57.3544C156.009 57.3544 157.868 55.4951 157.868 53.2016C157.868 50.9081 156.009 49.0488 153.715 49.0488C151.422 49.0488 149.562 50.9081 149.562 53.2016C149.562 55.4951 151.422 57.3544 153.715 57.3544Z" fill="#EF5350" stroke="#F2F2F2" stroke-width="0.878585" stroke-miterlimit="10"/>
<path d="M153.715 71.6474C156.009 71.6474 157.868 69.7881 157.868 67.4946C157.868 65.2011 156.009 63.3418 153.715 63.3418C151.422 63.3418 149.562 65.2011 149.562 67.4946C149.562 69.7881 151.422 71.6474 153.715 71.6474Z" fill="#EF5350" stroke="#F2F2F2" stroke-width="0.878585" stroke-miterlimit="10"/>
<path d="M153.715 85.9384C156.009 85.9384 157.868 84.0791 157.868 81.7856C157.868 79.4921 156.009 77.6328 153.715 77.6328C151.422 77.6328 149.562 79.4921 149.562 81.7856C149.562 84.0791 151.422 85.9384 153.715 85.9384Z" stroke="#F2F2F2" stroke-width="0.878585" stroke-miterlimit="10"/>
<path d="M153.715 100.227C156.009 100.227 157.868 98.3682 157.868 96.0747C157.868 93.7811 156.009 91.9219 153.715 91.9219C151.422 91.9219 149.562 93.7811 149.562 96.0747C149.562 98.3682 151.422 100.227 153.715 100.227Z" stroke="#F2F2F2" stroke-width="0.878585" stroke-miterlimit="10"/>
<path d="M153.715 114.518C156.009 114.518 157.868 112.659 157.868 110.366C157.868 108.072 156.009 106.213 153.715 106.213C151.422 106.213 149.562 108.072 149.562 110.366C149.562 112.659 151.422 114.518 153.715 114.518Z" stroke="#F2F2F2" stroke-width="0.878585" stroke-miterlimit="10"/>
<path d="M198.764 34.7031H149.561V39.5734H198.764V34.7031Z" fill="#F2F2F2"/>
<path d="M217.266 95.4141H160.797V96.7319H217.266V95.4141Z" fill="#F2F2F2"/>
<path d="M217.266 109.705H160.797V111.023H217.266V109.705Z" fill="#F2F2F2"/>
<path d="M217.266 51.4336H160.797V52.7515H217.266V51.4336Z" fill="#F2F2F2"/>
<path d="M160.971 54.9746H202.841" stroke="black" stroke-width="0.292862" stroke-miterlimit="10"/>
<path d="M217.266 65.7246H160.797V67.0425H217.266V65.7246Z" fill="#F2F2F2"/>
<path d="M160.971 69.2637H202.841" stroke="black" stroke-width="0.292862" stroke-miterlimit="10"/>
<path d="M217.266 80.0176H160.797V81.3355H217.266V80.0176Z" fill="#F2F2F2"/>
<path d="M160.971 83.5547H202.841" stroke="black" stroke-width="0.292862" stroke-miterlimit="10"/>
</g>
<g clip-path="url(#clip2_7013_221949)">
<path d="M98.7694 106.418C98.7492 106.751 98.5445 108.699 98.8032 109.043C99.2777 109.666 103.423 109.634 103.627 109.454C103.832 109.274 103.972 108.874 103.805 108.748C103.639 108.622 102.017 108.19 101.806 108.024C101.594 107.857 101.333 107.018 101.475 106.584" fill="#1F161E"/>
<path d="M119.312 52.6152C120.018 54.2166 125.949 71.6627 125.812 74.2064C125.675 76.7502 111.951 102.961 111.193 103.238C110.435 103.514 107.286 102.547 107.032 101.859C106.778 101.171 111.814 85.5283 111.951 81.5227" fill="#1F161E"/>
<path d="M119.314 52.6137C118.959 54.5007 113.057 80.5226 113.057 80.5226L102.237 106.727C101.338 107.165 98.6903 107.212 98.227 107.073C97.7637 106.934 99.9881 81.8405 100.867 78.2847C101.747 74.7289 104.061 50.043 104.061 50.043C104.061 50.043 116.184 50.2431 119.314 52.6137Z" fill="#FFCDD2"/>
<path d="M116.39 24.7734C118.176 25.6078 129.563 31.2103 130.541 31.2103C131.519 31.2103 141.928 25.329 142.54 24.9331C143.123 25.5156 144.011 26.4333 143.795 26.7324C143.579 27.0315 131.643 38.1847 130.631 38.1847C129.619 38.1847 119.368 35.0652 118.572 34.2083" fill="#EF5350"/>
<path d="M112.528 23.555C122.761 21.8772 120.323 51.4909 119.315 52.6132C118.308 53.7355 104.505 51.0388 103.608 49.9772C102.71 48.9157 105.346 23.8361 112.528 23.555Z" fill="#EF5350"/>
<path d="M107.635 102.045C107.514 102.353 106.722 104.146 106.868 104.553C107.131 105.29 111.085 106.523 111.335 106.413C111.585 106.302 111.841 105.963 111.722 105.794C111.603 105.625 110.188 104.721 110.035 104.496C109.882 104.272 109.891 103.397 110.161 103.026" fill="#1F161E"/>
<path d="M114.328 25.0981C114.328 25.8043 111.179 25.8583 111.179 25.0981V20.375H114.328V25.0981Z" fill="#EED0C3"/>
<path d="M111.177 22.6537C111.177 22.3141 112.335 20.4653 112.936 20.6632C112.196 20.4001 111.449 20.1842 111.177 20.3664V22.6537Z" fill="black"/>
<path d="M113.26 20.8345C111.001 20.8345 109.169 19.0029 109.169 16.7434C109.169 14.484 111.001 12.6523 113.26 12.6523C115.52 12.6523 117.352 14.484 117.352 16.7434C117.352 19.0029 115.52 20.8345 113.26 20.8345Z" fill="#EED0C3"/>
<path d="M117.398 17.6463C117.021 17.6463 116.715 17.4872 116.715 17.2909C116.715 17.0946 117.021 16.9355 117.398 16.9355C117.776 16.9355 118.082 17.0946 118.082 17.2909C118.082 17.4872 117.776 17.6463 117.398 17.6463Z" fill="#FA9E9F"/>
<path d="M113.107 17.6463C112.73 17.6463 112.424 17.4872 112.424 17.2909C112.424 17.0946 112.73 16.9355 113.107 16.9355C113.485 16.9355 113.791 17.0946 113.791 17.2909C113.791 17.4872 113.485 17.6463 113.107 17.6463Z" fill="#FA9E9F"/>
<path d="M115.732 16.5527C115.86 16.7349 116.517 17.4996 115.824 17.81" stroke="#1F161E" stroke-width="0.155187" stroke-miterlimit="10" stroke-linecap="round"/>
<path d="M114.439 18.7043C114.164 18.6297 113.924 18.458 113.765 18.2207" stroke="#1F161E" stroke-width="0.155187" stroke-miterlimit="10" stroke-linecap="round"/>
<path d="M110.764 17.8389C110.266 17.8389 109.862 17.4351 109.862 16.937C109.862 16.4389 110.266 16.0352 110.764 16.0352C111.262 16.0352 111.666 16.4389 111.666 16.937C111.666 17.4351 111.262 17.8389 110.764 17.8389Z" fill="#EED0C3"/>
<path d="M103.794 51.1477C99.2575 51.024 95.9986 47.8483 95.9986 39.6774C95.9986 36.3038 101.608 26.1469 102.721 22.31C103.297 20.3285 102.834 14.4989 105.773 11.5324C107.19 10.1042 113.42 10.4416 115.028 11.114C116.636 11.7865 116.447 13.8129 116.283 14.13C115.899 13.8062 115.055 13.1494 114.904 13.1697C114.115 13.2664 111.96 15.6909 111.306 16.8042C110.775 17.7038 111.594 23.2906 110.557 24.8874C109.52 26.4843 105.85 25.6454 105.85 25.6454" fill="#1F161E"/>
<path d="M112.49 35.4548C111.863 36.2397 107.23 44.5996 107.23 45.8568C107.23 47.1141 108.604 56.0249 108.878 56.4568C108.251 56.9268 106.602 58.2223 106.602 58.2223C106.602 58.2223 101.578 49.3497 101.578 44.3657C101.578 42.5979 105.581 28.2308 109.429 24.9336" fill="#EF5350"/>
<path d="M112.49 35.4531C111.863 36.2381 107.23 44.5979 107.23 45.8551C107.23 46.4781 107.569 48.9836 107.943 51.4036" stroke="#1F161E" stroke-width="0.224908" stroke-linecap="round" stroke-linejoin="round"/>
<path d="M110.973 23.5427C111.164 25.2025 106.322 30.9939 104.435 32.6897C102.55 30.3147 103.681 24.4311 103.681 24.4311L107.527 22.6543L110.973 23.5427Z" fill="#1F161E"/>
<path d="M106.602 11.2711C105.505 11.2711 104.616 10.2218 104.616 8.92753C104.616 7.63323 105.505 6.58398 106.602 6.58398C107.699 6.58398 108.588 7.63323 108.588 8.92753C108.588 10.2218 107.699 11.2711 106.602 11.2711Z" fill="#1F161E"/>
<path d="M118.104 27.3496C119.035 29.394 119.611 32.0727 119.939 34.911" stroke="#1F161E" stroke-width="0.224908" stroke-linecap="round" stroke-linejoin="round"/>
<path d="M144.461 26.644C143.404 26.644 142.547 25.9372 142.547 25.0652C142.547 24.1932 143.404 23.4863 144.461 23.4863C145.518 23.4863 146.375 24.1932 146.375 25.0652C146.375 25.9372 145.518 26.644 144.461 26.644Z" fill="#EED0C3"/>
<path d="M143.374 20.3672L145.684 27.6722" stroke="black" stroke-width="0.674725" stroke-miterlimit="10" stroke-linecap="round"/>
</g>
<g clip-path="url(#clip3_7013_221949)">
<path d="M279.195 64.75C279.33 65.1353 280.633 66.9396 281.122 67.7376C281.611 68.5355 282.432 70.8831 281.712 71.2684C280.992 71.6537 279.785 71.3715 279.403 70.1357C279.021 68.8998 277.724 66.1143 277.27 65.5037C276.817 64.8932 279.195 64.75 279.195 64.75Z" fill="#EED0C3"/>
<path d="M230.259 28.0823C229.627 27.4802 224.512 22.084 224.461 22.084C223.985 22.1998 223.672 22.4314 224.018 22.9262C224.153 23.1177 224.963 24.0168 225.907 25.0316C225.625 25.2704 225.423 25.5906 225.328 25.9487C225.233 26.3068 225.25 26.6855 225.377 27.0335C225.504 27.3815 225.734 27.6819 226.037 27.894C226.34 28.1061 226.701 28.2196 227.07 28.2192C227.217 28.2177 227.363 28.1986 227.505 28.1623L228.317 29.1287L229.524 28.636L229.363 28.4571L230.259 28.0823Z" fill="#EED0C3"/>
<path d="M238.219 90.5547C238.233 90.8242 238.716 93.037 238.502 93.3149C238.114 93.8202 234.757 93.7781 234.591 93.6286C234.425 93.4791 234.314 93.1549 234.448 93.0538C234.583 92.9528 235.901 92.6096 236.073 92.4748C236.245 92.3401 236.462 91.66 236.348 91.3063" fill="#1F161E"/>
<path d="M261.481 58.7988C262.951 59.8347 277.645 103.402 277.405 104.093C277.166 104.783 275.491 105.166 274.886 104.783C274.282 104.4 262.869 83.668 262.256 83.0532C261.643 82.4385 252.686 73.0736 251.462 69.387C250.238 65.7004 261.481 58.7988 261.481 58.7988Z" fill="#1F161E"/>
<path d="M259.435 56.3242C260.365 56.8127 263.067 59.4823 263.067 62.3226C263.067 70.3463 255.72 71.9654 253.1 71.919C250.48 71.8727 239.655 72.3254 235.557 70.9421C235.734 72.498 237.109 86.537 238.393 90.6257C238.083 91.2026 236.466 91.7121 236.177 91.4678C233.851 89.573 226.989 69.5547 227.121 68.1482C227.419 64.9733 257.733 56.7369 259.435 56.3242Z" fill="#7DBF9D"/>
<path d="M250.514 42.3691C250.382 42.946 253.543 43.7271 253.688 43.106L254.582 39.2363L251.408 38.5078L250.514 42.3691Z" fill="#EED0C3"/>
<path d="M254.046 41.5462C254.126 41.2009 253.616 39.8324 252.965 39.8934C253.771 39.8008 254.35 38.986 254.581 39.2344L254.046 41.5462Z" fill="black"/>
<path d="M252.24 39.9539C254.577 39.9539 256.472 38.0536 256.472 35.7094C256.472 33.3652 254.577 31.4648 252.24 31.4648C249.902 31.4648 248.008 33.3652 248.008 35.7094C248.008 38.0536 249.902 39.9539 252.24 39.9539Z" fill="#EED0C3"/>
<path d="M248.631 35.4547C248.677 35.2564 248.406 35.0242 248.027 34.936C247.647 34.8478 247.303 34.937 247.257 35.1352C247.211 35.3334 247.481 35.5657 247.861 35.6539C248.24 35.7421 248.585 35.6529 248.631 35.4547Z" fill="#FA9E9F"/>
<path d="M252.953 36.4586C252.999 36.2604 252.729 36.0281 252.349 35.9399C251.97 35.8517 251.625 35.9409 251.579 36.1391C251.533 36.3373 251.804 36.5696 252.183 36.6578C252.563 36.746 252.907 36.6568 252.953 36.4586Z" fill="#FA9E9F"/>
<path d="M249.795 34.9434C249.623 35.0971 248.786 35.716 249.409 36.1919" stroke="#1F161E" stroke-width="0.243068" stroke-miterlimit="10" stroke-linecap="round"/>
<path d="M250.588 37.4144C250.798 37.4544 251.174 37.2775 251.396 37.0859" stroke="#1F161E" stroke-width="0.243068" stroke-miterlimit="10" stroke-linecap="round"/>
<path d="M254.309 35.0756C254.32 34.1177 250.972 31.907 249.359 32.5955C250.105 31.9074 251.072 31.5105 252.085 31.4769C253.098 31.4434 254.089 31.7754 254.878 32.4126C255.667 33.0499 256.203 33.95 256.386 34.9495C256.57 35.9489 256.39 36.9813 255.879 37.859C255.426 37.4527 254.309 35.9789 254.309 35.0756Z" fill="black"/>
<path d="M255.186 37.1079C255.701 37.1079 256.118 36.6894 256.118 36.1731C256.118 35.6568 255.701 35.2383 255.186 35.2383C254.671 35.2383 254.254 35.6568 254.254 36.1731C254.254 36.6894 254.671 37.1079 255.186 37.1079Z" fill="#EED0C3"/>
<path d="M229.919 27.7676C230.368 28.1634 239.281 37.0019 240.786 37.3683C245.858 38.6021 262.269 43.5308 267.865 48.0428C273.709 51.6514 279.914 64.3661 279.689 64.8166C279.465 65.2672 276.986 66.3409 276.48 66.1157C275.974 65.8904 269.047 56.2728 267.976 55.6602C266.906 55.0475 258.574 50.923 258.574 50.923C258.967 51.883 260.094 55.9507 259.924 56.515C259.754 57.0792 256.125 59.5278 249.508 60.13C248.832 59.7341 246.861 48.2701 246.861 48.2701C245.453 47.6385 236.132 42.6634 234.079 40.0801C233.284 39.0779 227.266 29.8014 227.266 29.3424C227.266 28.8834 229.919 27.7676 229.919 27.7676Z" fill="#FFA726"/>
<path d="M251.263 50.4787C250.677 50.2387 246.896 48.2617 246.896 48.2617" stroke="#1F161E" stroke-width="0.19375" stroke-miterlimit="10" stroke-linecap="round"/>
<path d="M254.693 41.834C255.092 42.3203 257.918 48.1902 258.575 50.9947" stroke="#1F161E" stroke-width="0.19375" stroke-miterlimit="10" stroke-linecap="round"/>
<path d="M277.09 104.053C277.318 104.263 277.873 105.196 277.9 105.543C278.036 107.207 276.242 109.798 275.952 109.801C275.112 109.801 274.678 109.354 274.678 108.832C274.678 108.31 275.307 107.672 275.307 107.322C275.307 106.973 275.23 104.884 275.171 104.575" fill="#1F161E"/>
</g>
</g>
<defs>
<clipPath id="clip0_7013_221949">
<path d="M0 8C0 3.58172 3.58172 0 8 0H306C310.418 0 314 3.58172 314 8V115H0V8Z" fill="white"/>
</clipPath>
<clipPath id="clip1_7013_221949">
<rect width="99.8658" height="107.48" fill="white" transform="translate(128.293 25.9609)"/>
</clipPath>
<clipPath id="clip2_7013_221949">
<rect width="50.375" height="102.983" fill="white" transform="matrix(-1 0 0 1 146.375 6.58594)"/>
</clipPath>
<clipPath id="clip3_7013_221949">
<rect width="58.125" height="87.7159" fill="white" transform="translate(223.875 22.0859)"/>
</clipPath>
</defs>
</svg>
