<svg width="586" height="160" viewBox="0 0 586 160" fill="none" xmlns="http://www.w3.org/2000/svg">
<g clip-path="url(#clip0_7013_221891)">
<rect width="586" height="160" fill="#E3F2EB"/>
<g clip-path="url(#clip1_7013_221891)">
<path d="M310.827 18.1719H128.172V137.828H310.827V18.1719Z" stroke="black" stroke-miterlimit="10"/>
<path d="M128.172 24.5332H310.827" stroke="black" stroke-miterlimit="10"/>
<path d="M297.019 35.1924H141.977V89.8629H297.019V35.1924Z" fill="#F2F2F2"/>
<path d="M177.549 53.7969H261.453" stroke="black" stroke-miterlimit="10"/>
<path d="M177.549 98.6064H261.453" stroke="black" stroke-miterlimit="10"/>
<path d="M177.549 106.858H261.453" stroke="black" stroke-miterlimit="10"/>
<path d="M177.549 115.11H261.453" stroke="black" stroke-miterlimit="10"/>
<path d="M177.549 123.362H261.453" stroke="black" stroke-miterlimit="10"/>
<path d="M132.144 22.9862C133.002 22.9862 133.697 22.2934 133.697 21.4389C133.697 20.5843 133.002 19.8916 132.144 19.8916C131.285 19.8916 130.59 20.5843 130.59 21.4389C130.59 22.2934 131.285 22.9862 132.144 22.9862Z" fill="#999CBF"/>
<path d="M137.495 22.9862C138.353 22.9862 139.049 22.2934 139.049 21.4389C139.049 20.5843 138.353 19.8916 137.495 19.8916C136.637 19.8916 135.941 20.5843 135.941 21.4389C135.941 22.2934 136.637 22.9862 137.495 22.9862Z" fill="#DC9E83"/>
<path d="M142.847 22.9862C143.705 22.9862 144.401 22.2934 144.401 21.4389C144.401 20.5843 143.705 19.8916 142.847 19.8916C141.989 19.8916 141.293 20.5843 141.293 21.4389C141.293 22.2934 141.989 22.9862 142.847 22.9862Z" fill="#7DBF9D"/>
<path d="M217.455 62.5273H198.268V69.1119H217.455V62.5273Z" fill="#EED0C3"/>
<path d="M240.732 62.5273H221.545V69.1119H240.732V62.5273Z" fill="#EED0C3"/>
</g>
<path d="M179 145H122V160H179V145Z" fill="#EAEAF5"/>
<path d="M412 140H355V160H412V140Z" fill="#EAEAF5"/>
<path d="M221.334 129.659C221.623 131.381 226.533 170.736 227.328 171.387C228.123 172.038 236.569 173.48 237.292 172.396C237.436 170.675 237.636 143.231 238.084 140.776" fill="#1F161E"/>
<path d="M126.345 121.448C122.94 119.768 130.039 153.006 148.724 153.006C167.408 153.006 198.859 124.543 203.951 124.543C215.192 124.543 241.803 146.616 243.889 146.616C245.487 145.018 248.682 142.223 248.682 141.124C248.682 140.026 223.204 98.0879 204.141 98.0879C196.749 98.081 134.033 125.246 126.345 121.448Z" fill="#546B7D"/>
<path d="M136.86 122.012C140.596 121.165 145.244 118.972 149.358 116.728C138.165 120.384 128.993 122.756 126.345 121.448C124.541 120.559 125.684 129.456 129.926 138.025C129.158 136.366 128.063 124.006 136.86 122.012Z" fill="#1F161E"/>
<path d="M145.096 63.7031C148.04 63.7822 163.364 63.3312 167.564 67.3319C170.68 70.2962 180.369 95.8219 181.863 104.784C175.356 108.089 128.422 130.564 113.896 120.68C113.576 112.999 115.067 82.4841 124.566 66.478C128.04 64.1644 142.266 63.6273 145.096 63.7031Z" fill="#999CBF"/>
<path d="M151.065 56.3975H142.113V66.0204C142.113 68.4304 151.065 68.4098 151.065 66.0204V56.3975Z" fill="#F8CDBA"/>
<path d="M142.113 62.1987C142.113 61.1314 145.071 58.4494 146.899 58.5424C146.944 57.3787 142.723 55.6572 142.723 55.6572L142.113 57.2995V62.1987Z" fill="#1F161E"/>
<path d="M160.441 56.3978C160.642 55.4679 160.744 54.5192 160.744 53.5677C160.744 46.4685 155.197 40.7119 148.35 40.7119C141.502 40.7119 135.955 46.4685 135.955 53.5677C135.955 54.5192 136.057 55.4679 136.258 56.3978H160.441Z" fill="#1F161E"/>
<path d="M157.172 47.7391C155.654 47.5085 154.139 46.3138 153.082 45.5322C147.057 49.946 143.197 50.008 142.781 50.008C142.364 50.008 140.667 52.4456 139.885 52.721L139.816 52.6797C140.05 53.9611 140.548 55.1798 141.278 56.2586C142.008 57.3373 142.955 58.2526 144.057 58.9462C145.16 59.6399 146.395 60.0968 147.683 60.288C148.971 60.4792 150.286 60.4005 151.542 60.0568C152.798 59.7132 153.97 59.1122 154.982 58.2919C155.993 57.4716 156.824 56.4499 157.42 55.2917C158.016 54.1335 158.365 52.8641 158.444 51.5639C158.524 50.2638 158.332 48.9613 157.881 47.7391C157.646 47.7684 157.408 47.7684 157.172 47.7391Z" fill="#F8CDBA"/>
<path d="M141.635 42.3127C143.654 42.3127 145.291 40.6757 145.291 38.6564C145.291 36.637 143.654 35 141.635 35C139.616 35 137.979 36.637 137.979 38.6564C137.979 40.6757 139.616 42.3127 141.635 42.3127Z" fill="#1F161E"/>
<path d="M143.263 49.8047C142.868 49.8234 142.495 49.9935 142.222 50.2798C141.949 50.566 141.797 50.9464 141.797 51.3419C141.797 51.7375 141.949 52.1179 142.222 52.4041C142.495 52.6904 142.868 52.8605 143.263 52.8792" stroke="#1F161E" stroke-miterlimit="10" stroke-linecap="round"/>
<path d="M154.982 49.9902C155.433 50.5927 156.594 51.6463 154.982 52.7652" stroke="#1F161E" stroke-miterlimit="10" stroke-linecap="round"/>
<path d="M150.098 53.5918C150.098 54.0428 150.29 55.1204 151.258 55.3993" stroke="#1F161E" stroke-miterlimit="10" stroke-linecap="round"/>
<path d="M147.098 53.6884C147.882 53.6884 148.517 53.3585 148.517 52.9516C148.517 52.5447 147.882 52.2148 147.098 52.2148C146.315 52.2148 145.68 52.5447 145.68 52.9516C145.68 53.3585 146.315 53.6884 147.098 53.6884Z" fill="#FA9E9F"/>
<path d="M157.645 53.6884C158.428 53.6884 159.064 53.3585 159.064 52.9516C159.064 52.5447 158.428 52.2148 157.645 52.2148C156.862 52.2148 156.227 52.5447 156.227 52.9516C156.227 53.3585 156.862 53.6884 157.645 53.6884Z" fill="#FA9E9F"/>
<path d="M167.24 90.3064L176.808 87.8447C177.727 89.3975 182.203 104.767 182.203 104.767L167.433 110.991C167.626 108.079 168.208 94.7684 167.24 90.3064Z" fill="#F8CDBA"/>
<path d="M133.692 87.9004C133.692 89.0572 132.718 93.4607 132.143 95.5299" stroke="#1F161E" stroke-miterlimit="10" stroke-linecap="round"/>
<path d="M167.24 90.3068C167.009 88.4855 165.66 78.2222 163.363 72.8203" stroke="#1F161E" stroke-miterlimit="10" stroke-linecap="round"/>
<path d="M167.24 90.3064L176.808 87.8447C177.727 89.3975 182.203 104.767 182.203 104.767L167.433 110.991C167.626 108.079 168.208 94.7684 167.24 90.3064Z" fill="#F8CDBA"/>
<path d="M244.176 145.803C244.389 146.13 247.24 149.642 248.249 149.683C249.258 149.724 255.382 145.572 255.114 144.68C254.845 143.789 251.003 144.367 250.342 144.057C249.681 143.747 248.211 142.274 247.977 141.616" fill="#1F161E"/>
<path d="M217.686 105.731H185.264L192.983 85.2764H225.405L217.686 105.731Z" fill="#969696"/>
<path d="M190.668 104.96H158.246V105.731H190.668V104.96Z" fill="#969696"/>
<path d="M132.143 95.5302C131.52 97.868 128.48 107.839 129.733 109.553C130.986 111.268 161.835 107.37 170.094 104.802C172.198 104.113 173.757 102.306 174.69 102.075C175.886 101.874 177.113 102.12 178.138 102.766C179.163 103.413 179.914 104.415 180.247 105.58C176.949 107.178 129.327 131.491 113.895 120.67C110.979 118.594 116.099 93.1167 116.33 91.8291C118.936 92.1527 132.143 95.5302 132.143 95.5302Z" fill="#F8CDBA"/>
<path d="M167.68 105.442C168.609 105.222 169.422 105.008 170.09 104.802C172.193 104.113 173.753 102.306 174.686 102.075C175.882 101.873 177.11 102.118 178.136 102.765C179.162 103.411 179.913 104.414 180.246 105.58" stroke="#1F161E" stroke-miterlimit="10" stroke-linecap="round"/>
<path d="M357.829 105.718L351.611 103.387C351.879 91.5137 354.526 64.9843 358.289 61.0393C359.169 60.1128 376.645 58.5029 379.767 58.5029C398.373 58.5029 403.888 60.7317 405.293 62.2012C409.642 66.7537 411 87.8724 411 95.2651C411 102.658 391.083 106.489 391.083 106.489L367.737 108.175C367.737 108.175 362.613 108.725 358.184 108.999C358.09 107.575 357.829 105.718 357.829 105.718Z" fill="#999CBF"/>
<path d="M339.336 112.603C337.638 112.075 320.748 109.185 317.072 112.982C313.397 116.779 301.809 171.216 301.809 172.469H311.133L323.728 144.079" fill="#1F161E"/>
<path d="M400.827 107.761C401.251 109.982 403.797 112.367 403.797 124.468C403.797 141.205 390.728 141.554 386.031 141.554C371.412 141.554 347.75 136.998 346.153 136.166C345.092 138.023 325.563 179.831 325.476 180.761H316.484C316.484 180.761 322.058 118.248 332.11 111.144C335.377 108.866 393.331 106.409 400.827 107.761Z" fill="#3B7858"/>
<path d="M348.175 95.5273C350.539 95.5273 352.484 96.1159 357.829 97.217L358.111 107.94C353.042 105.798 351.861 102.821 350.391 102.821C346.719 102.821 344.8 104.807 342.63 104.807C341.117 104.807 338.397 103.562 338.397 101.868C338.397 98.3219 345.252 95.5273 348.175 95.5273Z" fill="#EED0C3"/>
<path d="M376.487 61.0244C376.487 62.4597 384.41 62.5014 384.41 61.0244V49.3867H376.487V61.0244Z" fill="#EED0C3"/>
<path d="M379.065 53.2105C379.789 53.2105 384.41 55.3482 384.41 56.5443V50.2451C383.259 50.2451 379.065 53.2105 379.065 53.2105Z" fill="#1F161E"/>
<path d="M377.536 53.7235C372.237 53.7235 367.94 49.2186 367.94 43.6616C367.94 38.1045 372.237 33.5996 377.536 33.5996C382.836 33.5996 387.133 38.1045 387.133 43.6616C387.133 49.2186 382.836 53.7235 377.536 53.7235Z" fill="#EED0C3"/>
<path d="M367.628 35.7748C368.816 37.7531 371.3 38.6605 373.991 38.6605C376.283 38.6605 379.622 37.9619 382.001 39.382C383.283 40.1413 384.757 41.869 385.058 45.328C385.058 45.9203 385.695 48.2175 385.695 48.9579C385.695 49.4667 386.238 49.797 387.144 49.797C387.611 49.797 388.53 48.9997 388.53 47.7884C388.53 46.3873 388.002 45.8899 388.002 44.7015C388.002 43.513 389.414 42.355 389.414 39.0516C389.414 34.294 386.517 31.3628 384.467 31.3628C382.602 31.3628 382.012 31.8184 381.777 32.012C381.777 27.6873 376.345 25.7129 374.172 25.7129C371.71 25.7129 370.551 26.776 370.551 28.1202C370.551 30.273 371.525 32.0956 372.021 32.5057C370.899 31.447 369.442 30.8637 367.933 30.8692C365.108 30.8692 364.159 32.8132 364.159 34.1421C364.159 37.0354 367.469 39.7123 368.7 39.7123C369.009 39.0233 369.372 38.3628 369.787 37.7379" fill="#1F161E"/>
<path d="M384.757 47.1353C383.627 47.1353 382.711 46.1748 382.711 44.99C382.711 43.8052 383.627 42.8447 384.757 42.8447C385.887 42.8447 386.803 43.8052 386.803 44.99C386.803 46.1748 385.887 47.1353 384.757 47.1353Z" fill="#F8CDBA"/>
<path d="M367.846 45.5068C366.97 45.5068 366.259 45.1192 366.259 44.6411C366.259 44.163 366.97 43.7754 367.846 43.7754C368.722 43.7754 369.432 44.163 369.432 44.6411C369.432 45.1192 368.722 45.5068 367.846 45.5068Z" fill="#FA9E9F"/>
<path d="M377.818 45.5068C376.942 45.5068 376.232 45.1192 376.232 44.6411C376.232 44.163 376.942 43.7754 377.818 43.7754C378.694 43.7754 379.404 44.163 379.404 44.6411C379.404 45.1192 378.694 45.5068 377.818 45.5068Z" fill="#EF9A9A"/>
<path d="M371.717 42.8447C371.42 43.2852 369.906 45.1495 371.507 45.9051" stroke="#1F161E" stroke-miterlimit="10" stroke-linecap="round"/>
<path d="M374.7 48.0812C375.178 48.0812 375.914 47.4623 376.305 46.9004" stroke="#1F161E" stroke-miterlimit="10" stroke-linecap="round"/>
<path d="M362.049 75.1035C361.325 76.721 357.83 92.2848 357.83 97.217" stroke="#1F161E" stroke-miterlimit="10" stroke-linecap="round"/>
<path d="M411 94.0088C411 111.509 410.848 116.586 404.145 116.586C388.704 116.586 365.361 103.296 361.2 103.296C357.528 103.296 355.609 105.282 353.436 105.282C351.926 105.282 349.203 104.033 349.203 102.343C349.203 98.7968 356.058 96.0022 358.98 96.0022C365.557 96.0022 391.818 102.651 392.455 102.651C393.093 102.651 394.176 102.358 394.176 101.227C394.176 99.1727 392.897 94.4303 392.727 94.0126L411 94.0088Z" fill="#EED0C3"/>
<path d="M388.875 78.7451C389.316 80.0779 392.76 93.8532 393.162 95.5277" stroke="#1F161E" stroke-miterlimit="10" stroke-linecap="round"/>
<path d="M332.5 109H364L356.5 89H325L332.5 109Z" fill="#969696"/>
</g>
<defs>
<clipPath id="clip0_7013_221891">
<rect width="586" height="160" fill="white"/>
</clipPath>
<clipPath id="clip1_7013_221891">
<rect width="183" height="120" fill="white" transform="translate(128 18)"/>
</clipPath>
</defs>
</svg>
