<svg width="440" height="160" viewBox="0 0 440 160" fill="none" xmlns="http://www.w3.org/2000/svg">
<g clip-path="url(#clip0_8997_281124)">
<g clip-path="url(#clip1_8997_281124)">
<path d="M310.827 18.1719H128.172V137.828H310.827V18.1719Z" stroke="black" stroke-miterlimit="10"/>
<path d="M128.172 24.5332H310.827" stroke="black" stroke-miterlimit="10"/>
<path d="M297.019 35.1914H141.977V89.8619H297.019V35.1914Z" fill="#F2F2F2"/>
<path d="M177.549 53.7969H261.453" stroke="black" stroke-miterlimit="10"/>
<path d="M177.549 98.6055H261.453" stroke="black" stroke-miterlimit="10"/>
<path d="M177.549 106.859H261.453" stroke="black" stroke-miterlimit="10"/>
<path d="M177.549 115.111H261.453" stroke="black" stroke-miterlimit="10"/>
<path d="M177.549 123.363H261.453" stroke="black" stroke-miterlimit="10"/>
<path d="M132.144 22.9852C133.002 22.9852 133.697 22.2924 133.697 21.4379C133.697 20.5834 133.002 19.8906 132.144 19.8906C131.285 19.8906 130.59 20.5834 130.59 21.4379C130.59 22.2924 131.285 22.9852 132.144 22.9852Z" fill="#999CBF"/>
<path d="M137.495 22.9852C138.353 22.9852 139.049 22.2924 139.049 21.4379C139.049 20.5834 138.353 19.8906 137.495 19.8906C136.637 19.8906 135.941 20.5834 135.941 21.4379C135.941 22.2924 136.637 22.9852 137.495 22.9852Z" fill="#DC9E83"/>
<path d="M142.847 22.9852C143.705 22.9852 144.401 22.2924 144.401 21.4379C144.401 20.5834 143.705 19.8906 142.847 19.8906C141.989 19.8906 141.293 20.5834 141.293 21.4379C141.293 22.2924 141.989 22.9852 142.847 22.9852Z" fill="#7DBF9D"/>
<path d="M217.455 62.5273H198.268V69.1119H217.455V62.5273Z" fill="#EED0C3"/>
<path d="M240.732 62.5273H221.545V69.1119H240.732V62.5273Z" fill="#EED0C3"/>
</g>
<path d="M179 145H122V160H179V145Z" fill="#EAEAF5"/>
<path d="M412 140H355V160H412V140Z" fill="#EAEAF5"/>
<path d="M221.334 129.66C221.623 131.382 226.533 170.737 227.328 171.388C228.123 172.039 236.569 173.481 237.292 172.397C237.436 170.676 237.636 143.232 238.084 140.777" fill="#1F161E"/>
<path d="M126.345 121.448C122.94 119.768 130.039 153.006 148.724 153.006C167.408 153.006 198.859 124.543 203.951 124.543C215.192 124.543 241.803 146.616 243.889 146.616C245.487 145.018 248.682 142.223 248.682 141.124C248.682 140.026 223.204 98.0879 204.141 98.0879C196.749 98.081 134.033 125.246 126.345 121.448Z" fill="#546B7D"/>
<path d="M136.86 122.013C140.596 121.166 145.244 118.973 149.358 116.729C138.165 120.385 128.993 122.757 126.345 121.449C124.541 120.56 125.684 129.457 129.926 138.026C129.158 136.367 128.063 124.007 136.86 122.013Z" fill="#1F161E"/>
<path d="M145.096 63.704C148.04 63.7832 163.364 63.3322 167.564 67.3329C170.68 70.2972 180.369 95.8229 181.863 104.785C175.356 108.09 128.422 130.565 113.896 120.681C113.576 113 115.067 82.4851 124.566 66.479C128.04 64.1654 142.266 63.6283 145.096 63.704Z" fill="#999CBF"/>
<path d="M151.065 56.3984H142.113V66.0214C142.113 68.4314 151.065 68.4107 151.065 66.0214V56.3984Z" fill="#F8CDBA"/>
<path d="M142.113 62.1997C142.113 61.1324 145.071 58.4504 146.899 58.5434C146.944 57.3797 142.723 55.6582 142.723 55.6582L142.113 57.3005V62.1997Z" fill="#1F161E"/>
<path d="M160.441 56.3968C160.642 55.4669 160.744 54.5182 160.744 53.5668C160.744 46.4675 155.197 40.7109 148.35 40.7109C141.502 40.7109 135.955 46.4675 135.955 53.5668C135.955 54.5182 136.057 55.4669 136.258 56.3968H160.441Z" fill="#1F161E"/>
<path d="M157.172 47.7382C155.654 47.5075 154.139 46.3128 153.082 45.5312C147.057 49.9451 143.197 50.007 142.781 50.007C142.364 50.007 140.667 52.4446 139.885 52.72L139.816 52.6787C140.05 53.9601 140.548 55.1788 141.278 56.2576C142.008 57.3364 142.955 58.2516 144.057 58.9453C145.16 59.6389 146.395 60.0958 147.683 60.287C148.971 60.4782 150.286 60.3995 151.542 60.0559C152.798 59.7122 153.97 59.1112 154.982 58.2909C155.993 57.4706 156.824 56.449 157.42 55.2908C158.016 54.1326 158.365 52.8631 158.444 51.5629C158.524 50.2628 158.332 48.9603 157.881 47.7382C157.646 47.7674 157.408 47.7674 157.172 47.7382Z" fill="#F8CDBA"/>
<path d="M141.635 42.3127C143.654 42.3127 145.291 40.6757 145.291 38.6564C145.291 36.637 143.654 35 141.635 35C139.616 35 137.979 36.637 137.979 38.6564C137.979 40.6757 139.616 42.3127 141.635 42.3127Z" fill="#1F161E"/>
<path d="M143.263 49.8047C142.868 49.8234 142.495 49.9935 142.222 50.2798C141.949 50.566 141.797 50.9464 141.797 51.3419C141.797 51.7375 141.949 52.1179 142.222 52.4041C142.495 52.6904 142.868 52.8605 143.263 52.8792" stroke="#1F161E" stroke-miterlimit="10" stroke-linecap="round"/>
<path d="M154.982 49.9902C155.433 50.5927 156.594 51.6463 154.982 52.7652" stroke="#1F161E" stroke-miterlimit="10" stroke-linecap="round"/>
<path d="M150.098 53.5918C150.098 54.0428 150.29 55.1204 151.258 55.3993" stroke="#1F161E" stroke-miterlimit="10" stroke-linecap="round"/>
<path d="M147.098 53.6884C147.882 53.6884 148.517 53.3585 148.517 52.9516C148.517 52.5447 147.882 52.2148 147.098 52.2148C146.315 52.2148 145.68 52.5447 145.68 52.9516C145.68 53.3585 146.315 53.6884 147.098 53.6884Z" fill="#FA9E9F"/>
<path d="M157.645 53.6884C158.428 53.6884 159.064 53.3585 159.064 52.9516C159.064 52.5447 158.428 52.2148 157.645 52.2148C156.862 52.2148 156.227 52.5447 156.227 52.9516C156.227 53.3585 156.862 53.6884 157.645 53.6884Z" fill="#FA9E9F"/>
<path d="M167.24 90.3074L176.808 87.8457C177.727 89.3985 182.203 104.768 182.203 104.768L167.433 110.992C167.626 108.08 168.208 94.7694 167.24 90.3074Z" fill="#F8CDBA"/>
<path d="M133.692 87.9004C133.692 89.0572 132.718 93.4607 132.143 95.5299" stroke="#1F161E" stroke-miterlimit="10" stroke-linecap="round"/>
<path d="M167.24 90.3068C167.009 88.4855 165.66 78.2222 163.363 72.8203" stroke="#1F161E" stroke-miterlimit="10" stroke-linecap="round"/>
<path d="M167.24 90.3074L176.808 87.8457C177.727 89.3985 182.203 104.768 182.203 104.768L167.433 110.992C167.626 108.08 168.208 94.7694 167.24 90.3074Z" fill="#F8CDBA"/>
<path d="M244.176 145.804C244.389 146.131 247.24 149.643 248.249 149.684C249.258 149.725 255.382 145.573 255.114 144.681C254.845 143.79 251.003 144.368 250.342 144.058C249.681 143.748 248.211 142.275 247.977 141.617" fill="#1F161E"/>
<path d="M217.686 105.732H185.264L192.983 85.2773H225.405L217.686 105.732Z" fill="#969696"/>
<path d="M190.668 104.959H158.246V105.73H190.668V104.959Z" fill="#969696"/>
<path d="M132.143 95.5292C131.52 97.867 128.48 107.838 129.733 109.552C130.986 111.267 161.835 107.369 170.094 104.801C172.198 104.112 173.757 102.305 174.69 102.074C175.886 101.873 177.113 102.119 178.138 102.765C179.163 103.412 179.914 104.414 180.247 105.579C176.949 107.177 129.327 131.49 113.895 120.669C110.979 118.593 116.099 93.1158 116.33 91.8281C118.936 92.1518 132.143 95.5292 132.143 95.5292Z" fill="#F8CDBA"/>
<path d="M167.68 105.442C168.609 105.222 169.422 105.008 170.09 104.802C172.193 104.113 173.753 102.306 174.686 102.075C175.882 101.873 177.11 102.118 178.136 102.765C179.162 103.411 179.913 104.414 180.246 105.58" stroke="#1F161E" stroke-miterlimit="10" stroke-linecap="round"/>
<path d="M357.829 105.719L351.611 103.388C351.879 91.5147 354.526 64.9853 358.289 61.0403C359.169 60.1138 376.645 58.5039 379.767 58.5039C398.373 58.5039 403.888 60.7327 405.293 62.2021C409.642 66.7547 411 87.8734 411 95.2661C411 102.659 391.083 106.49 391.083 106.49L367.737 108.176C367.737 108.176 362.613 108.726 358.184 109C358.09 107.576 357.829 105.719 357.829 105.719Z" fill="#999CBF"/>
<path d="M339.336 112.604C337.638 112.076 320.748 109.186 317.072 112.983C313.397 116.78 301.809 171.217 301.809 172.47H311.133L323.728 144.08" fill="#1F161E"/>
<path d="M400.827 107.761C401.251 109.982 403.797 112.367 403.797 124.468C403.797 141.205 390.728 141.554 386.031 141.554C371.412 141.554 347.75 136.998 346.153 136.166C345.092 138.023 325.563 179.831 325.476 180.761H316.484C316.484 180.761 322.058 118.248 332.11 111.144C335.377 108.866 393.331 106.409 400.827 107.761Z" fill="#3B7858"/>
<path d="M348.175 95.5273C350.539 95.5273 352.484 96.1159 357.829 97.217L358.111 107.94C353.042 105.798 351.861 102.821 350.391 102.821C346.719 102.821 344.8 104.807 342.63 104.807C341.117 104.807 338.397 103.562 338.397 101.868C338.397 98.3219 345.252 95.5273 348.175 95.5273Z" fill="#EED0C3"/>
<path d="M376.487 61.0244C376.487 62.4597 384.41 62.5014 384.41 61.0244V49.3867H376.487V61.0244Z" fill="#EED0C3"/>
<path d="M379.065 53.2115C379.789 53.2115 384.41 55.3492 384.41 56.5453V50.2461C383.259 50.2461 379.065 53.2115 379.065 53.2115Z" fill="#1F161E"/>
<path d="M377.536 53.7235C372.237 53.7235 367.94 49.2186 367.94 43.6616C367.94 38.1045 372.237 33.5996 377.536 33.5996C382.836 33.5996 387.133 38.1045 387.133 43.6616C387.133 49.2186 382.836 53.7235 377.536 53.7235Z" fill="#EED0C3"/>
<path d="M367.628 35.7748C368.816 37.7531 371.3 38.6605 373.991 38.6605C376.283 38.6605 379.622 37.9619 382.001 39.382C383.283 40.1413 384.757 41.869 385.058 45.328C385.058 45.9203 385.695 48.2175 385.695 48.9579C385.695 49.4667 386.238 49.797 387.144 49.797C387.611 49.797 388.53 48.9997 388.53 47.7884C388.53 46.3873 388.002 45.8899 388.002 44.7015C388.002 43.513 389.414 42.355 389.414 39.0516C389.414 34.294 386.517 31.3628 384.467 31.3628C382.602 31.3628 382.012 31.8184 381.777 32.012C381.777 27.6873 376.345 25.7129 374.172 25.7129C371.71 25.7129 370.551 26.776 370.551 28.1202C370.551 30.273 371.525 32.0956 372.021 32.5057C370.899 31.447 369.442 30.8637 367.933 30.8692C365.108 30.8692 364.159 32.8132 364.159 34.1421C364.159 37.0354 367.469 39.7123 368.7 39.7123C369.009 39.0233 369.372 38.3628 369.787 37.7379" fill="#1F161E"/>
<path d="M384.757 47.1363C383.627 47.1363 382.711 46.1758 382.711 44.991C382.711 43.8062 383.627 42.8457 384.757 42.8457C385.887 42.8457 386.803 43.8062 386.803 44.991C386.803 46.1758 385.887 47.1363 384.757 47.1363Z" fill="#F8CDBA"/>
<path d="M367.846 45.5068C366.97 45.5068 366.259 45.1192 366.259 44.6411C366.259 44.163 366.97 43.7754 367.846 43.7754C368.722 43.7754 369.432 44.163 369.432 44.6411C369.432 45.1192 368.722 45.5068 367.846 45.5068Z" fill="#FA9E9F"/>
<path d="M377.818 45.5068C376.942 45.5068 376.232 45.1192 376.232 44.6411C376.232 44.163 376.942 43.7754 377.818 43.7754C378.694 43.7754 379.404 44.163 379.404 44.6411C379.404 45.1192 378.694 45.5068 377.818 45.5068Z" fill="#EF9A9A"/>
<path d="M371.717 42.8457C371.42 43.2862 369.906 45.1505 371.507 45.9061" stroke="#1F161E" stroke-miterlimit="10" stroke-linecap="round"/>
<path d="M374.7 48.0812C375.178 48.0812 375.914 47.4623 376.305 46.9004" stroke="#1F161E" stroke-miterlimit="10" stroke-linecap="round"/>
<path d="M362.049 75.1035C361.325 76.721 357.83 92.2848 357.83 97.217" stroke="#1F161E" stroke-miterlimit="10" stroke-linecap="round"/>
<path d="M411 94.0078C411 111.508 410.848 116.585 404.145 116.585C388.704 116.585 365.361 103.295 361.2 103.295C357.528 103.295 355.609 105.281 353.436 105.281C351.926 105.281 349.203 104.032 349.203 102.342C349.203 98.7958 356.058 96.0012 358.98 96.0012C365.557 96.0012 391.818 102.65 392.455 102.65C393.093 102.65 394.176 102.357 394.176 101.226C394.176 99.1717 392.897 94.4293 392.727 94.0116L411 94.0078Z" fill="#EED0C3"/>
<path d="M388.875 78.7441C389.316 80.0769 392.76 93.8522 393.162 95.5267" stroke="#1F161E" stroke-miterlimit="10" stroke-linecap="round"/>
<path d="M332.5 109H364L356.5 89H325L332.5 109Z" fill="#969696"/>
</g>
<defs>
<clipPath id="clip0_8997_281124">
<rect width="440" height="160" fill="white"/>
</clipPath>
<clipPath id="clip1_8997_281124">
<rect width="183" height="120" fill="white" transform="translate(128 18)"/>
</clipPath>
</defs>
</svg>
