<svg width="314" height="115" viewBox="0 0 314 115" fill="none" xmlns="http://www.w3.org/2000/svg">
<g clip-path="url(#clip0_7013_221917)">
<path d="M0 8C0 3.58172 3.58172 0 8 0H306C310.418 0 314 3.58172 314 8V115H0V8Z" fill="#E3F2EB"/>
<g clip-path="url(#clip1_7013_221917)">
<path d="M206.476 33.0977H102.625V101.13H206.476V33.0977Z" stroke="black" stroke-width="0.568562" stroke-miterlimit="10"/>
<path d="M102.625 36.7139H206.476" stroke="black" stroke-width="0.568562" stroke-miterlimit="10"/>
<path d="M198.626 42.7744H110.475V73.858H198.626V42.7744Z" fill="#F2F2F2"/>
<path d="M130.699 53.3525H178.404" stroke="black" stroke-width="0.568562" stroke-miterlimit="10"/>
<path d="M130.699 78.8301H178.404" stroke="black" stroke-width="0.568562" stroke-miterlimit="10"/>
<path d="M130.699 83.5215H178.404" stroke="black" stroke-width="0.568562" stroke-miterlimit="10"/>
<path d="M130.699 88.2129H178.404" stroke="black" stroke-width="0.568562" stroke-miterlimit="10"/>
<path d="M130.699 92.9053H178.404" stroke="black" stroke-width="0.568562" stroke-miterlimit="10"/>
<path d="M104.883 35.8346C105.371 35.8346 105.767 35.4408 105.767 34.9549C105.767 34.4691 105.371 34.0752 104.883 34.0752C104.396 34.0752 104 34.4691 104 34.9549C104 35.4408 104.396 35.8346 104.883 35.8346Z" fill="#999CBF"/>
<path d="M107.926 35.8346C108.414 35.8346 108.81 35.4408 108.81 34.9549C108.81 34.4691 108.414 34.0752 107.926 34.0752C107.438 34.0752 107.043 34.4691 107.043 34.9549C107.043 35.4408 107.438 35.8346 107.926 35.8346Z" fill="#DC9E83"/>
<path d="M110.969 35.8346C111.457 35.8346 111.853 35.4408 111.853 34.9549C111.853 34.4691 111.457 34.0752 110.969 34.0752C110.481 34.0752 110.086 34.4691 110.086 34.9549C110.086 35.4408 110.481 35.8346 110.969 35.8346Z" fill="#7DBF9D"/>
<path d="M153.388 58.3164H142.479V62.0601H153.388V58.3164Z" fill="#EED0C3"/>
<path d="M166.622 58.3164H155.713V62.0601H166.622V58.3164Z" fill="#EED0C3"/>
</g>
<path d="M264 102.365H231.592V113.736H264V102.365Z" fill="#EAEAF5"/>
<path d="M133.408 104H101V115.371H133.408V104Z" fill="#EAEAF5"/>
<path d="M155.596 96.4854C155.76 97.4641 158.552 119.84 159.004 120.21C159.456 120.58 164.258 121.4 164.669 120.784C164.751 119.805 164.864 104.202 165.119 102.806" fill="#1F161E"/>
<path d="M101.587 91.8168C99.6513 90.8616 103.688 109.759 114.311 109.759C124.934 109.759 142.816 93.5766 145.711 93.5766C152.103 93.5766 167.232 106.126 168.418 106.126C169.327 105.218 171.143 103.628 171.143 103.004C171.143 102.38 156.658 78.5352 145.819 78.5352C141.616 78.5312 105.958 93.976 101.587 91.8168Z" fill="#546B7D"/>
<path d="M107.566 92.1376C109.69 91.656 112.332 90.4091 114.672 89.1328C108.308 91.2117 103.093 92.5604 101.588 91.8166C100.562 91.3115 101.212 96.3697 103.623 101.242C103.187 100.298 102.564 93.271 107.566 92.1376Z" fill="#1F161E"/>
<path d="M112.247 58.9863C113.921 59.0313 122.634 58.7749 125.022 61.0495C126.794 62.7349 132.302 77.2478 133.152 82.3432C129.452 84.2224 102.767 97.001 94.5085 91.381C94.3264 87.0138 95.174 69.6645 100.575 60.564C102.55 59.2486 110.638 58.9432 112.247 58.9863Z" fill="#999CBF"/>
<path d="M115.642 54.832H110.553V60.3033C110.553 61.6735 115.642 61.6618 115.642 60.3033V54.832Z" fill="#F8CDBA"/>
<path d="M110.553 58.1304C110.553 57.5236 112.234 55.9987 113.274 56.0515C113.299 55.3899 110.899 54.4111 110.899 54.4111L110.553 55.3449V58.1304Z" fill="#1F161E"/>
<path d="M120.973 54.8325C121.087 54.3037 121.145 53.7643 121.145 53.2234C121.145 49.187 117.991 45.9141 114.098 45.9141C110.204 45.9141 107.051 49.187 107.051 53.2234C107.051 53.7643 107.109 54.3037 107.223 54.8325H120.973Z" fill="#1F161E"/>
<path d="M119.116 49.9091C118.253 49.7779 117.391 49.0987 116.79 48.6543C113.365 51.1638 111.17 51.1991 110.933 51.1991C110.697 51.1991 109.732 52.585 109.287 52.7416L109.248 52.7181C109.381 53.4466 109.664 54.1395 110.079 54.7529C110.494 55.3662 111.032 55.8866 111.659 56.281C112.286 56.6754 112.988 56.9352 113.721 57.0439C114.453 57.1526 115.2 57.1078 115.915 56.9124C116.629 56.7171 117.295 56.3753 117.87 55.909C118.446 55.4426 118.918 54.8617 119.257 54.2032C119.596 53.5447 119.794 52.8229 119.839 52.0837C119.884 51.3445 119.775 50.6039 119.519 49.9091C119.385 49.9257 119.25 49.9257 119.116 49.9091Z" fill="#F8CDBA"/>
<path d="M110.28 46.8238C111.428 46.8238 112.359 45.893 112.359 44.7449C112.359 43.5968 111.428 42.666 110.28 42.666C109.132 42.666 108.201 43.5968 108.201 44.7449C108.201 45.893 109.132 46.8238 110.28 46.8238Z" fill="#1F161E"/>
<path d="M111.207 51.083C110.982 51.0936 110.77 51.1904 110.615 51.3531C110.46 51.5159 110.373 51.7321 110.373 51.957C110.373 52.1819 110.46 52.3982 110.615 52.561C110.77 52.7237 110.982 52.8204 111.207 52.8311" stroke="#1F161E" stroke-width="0.568562" stroke-miterlimit="10" stroke-linecap="round"/>
<path d="M117.871 51.1885C118.128 51.531 118.787 52.13 117.871 52.7662" stroke="#1F161E" stroke-width="0.568562" stroke-miterlimit="10" stroke-linecap="round"/>
<path d="M115.092 53.2363C115.092 53.4928 115.201 54.1055 115.751 54.264" stroke="#1F161E" stroke-width="0.568562" stroke-miterlimit="10" stroke-linecap="round"/>
<path d="M113.387 53.2909C113.832 53.2909 114.193 53.1034 114.193 52.872C114.193 52.6407 113.832 52.4531 113.387 52.4531C112.941 52.4531 112.58 52.6407 112.58 52.872C112.58 53.1034 112.941 53.2909 113.387 53.2909Z" fill="#FA9E9F"/>
<path d="M119.383 53.2909C119.828 53.2909 120.189 53.1034 120.189 52.872C120.189 52.6407 119.828 52.4531 119.383 52.4531C118.937 52.4531 118.576 52.6407 118.576 52.872C118.576 53.1034 118.937 53.2909 119.383 53.2909Z" fill="#FA9E9F"/>
<path d="M124.84 74.1115L130.28 72.7119C130.802 73.5947 133.347 82.3331 133.347 82.3331L124.949 85.8722C125.059 84.2162 125.39 76.6485 124.84 74.1115Z" fill="#F8CDBA"/>
<path d="M105.764 72.7432C105.764 73.4009 105.21 75.9045 104.883 77.081" stroke="#1F161E" stroke-width="0.568562" stroke-miterlimit="10" stroke-linecap="round"/>
<path d="M124.839 74.1111C124.708 73.0756 123.94 67.2403 122.635 64.1689" stroke="#1F161E" stroke-width="0.568562" stroke-miterlimit="10" stroke-linecap="round"/>
<path d="M124.84 74.1115L130.28 72.7119C130.802 73.5947 133.347 82.3331 133.347 82.3331L124.949 85.8722C125.059 84.2162 125.39 76.6485 124.84 74.1115Z" fill="#F8CDBA"/>
<path d="M168.58 105.665C168.701 105.85 170.322 107.847 170.896 107.871C171.469 107.894 174.952 105.533 174.799 105.026C174.646 104.519 172.462 104.848 172.086 104.672C171.71 104.496 170.874 103.658 170.741 103.284" fill="#1F161E"/>
<path d="M153.52 82.8815H135.086L139.475 71.252H157.908L153.52 82.8815Z" fill="#969696"/>
<path d="M138.16 82.4424H119.727V82.8809H138.16V82.4424Z" fill="#969696"/>
<path d="M104.884 77.0809C104.53 78.41 102.801 84.079 103.514 85.0538C104.226 86.0286 121.765 83.8127 126.462 82.3524C127.658 81.9609 128.544 80.9333 129.075 80.8021C129.754 80.6875 130.452 80.8273 131.035 81.195C131.618 81.5626 132.045 82.1322 132.234 82.7948C130.359 83.7031 103.283 97.527 94.5091 91.3746C92.8511 90.1942 95.7619 75.7087 95.8931 74.9766C97.3749 75.1606 104.884 77.0809 104.884 77.0809Z" fill="#F8CDBA"/>
<path d="M125.09 82.7165C125.618 82.5912 126.08 82.4698 126.46 82.3524C127.656 81.9609 128.543 80.9332 129.073 80.802C129.753 80.6869 130.452 80.8265 131.035 81.1942C131.618 81.5619 132.045 82.1318 132.235 82.7948" stroke="#1F161E" stroke-width="0.568562" stroke-miterlimit="10" stroke-linecap="round"/>
<path d="M233.201 82.8731L229.665 81.5476C229.818 74.797 231.323 59.7134 233.462 57.4704C233.962 56.9437 243.899 56.0283 245.673 56.0283C256.252 56.0283 259.388 57.2955 260.187 58.131C262.66 60.7194 263.432 72.7267 263.432 76.9299C263.432 81.1331 252.108 83.3113 252.108 83.3113L238.834 84.2698C238.834 84.2698 235.92 84.5829 233.402 84.7383C233.349 83.9287 233.201 82.8731 233.201 82.8731Z" fill="#999CBF"/>
<path d="M222.686 86.7869C221.72 86.4868 212.117 84.844 210.027 87.0028C207.938 89.1616 201.349 120.112 201.349 120.825H206.651L213.812 104.683" fill="#1F161E"/>
<path d="M257.648 84.0349C257.889 85.2978 259.336 86.6535 259.336 93.5336C259.336 103.05 251.905 103.248 249.235 103.248C240.923 103.248 227.47 100.658 226.562 100.185C225.959 101.241 214.855 125.011 214.806 125.54H209.693C209.693 125.54 212.862 89.9975 218.578 85.9584C220.435 84.6631 253.386 83.2663 257.648 84.0349Z" fill="#3B7858"/>
<path d="M227.712 77.0791C229.056 77.0791 230.162 77.4137 233.201 78.0398L233.361 84.1362C230.479 82.9187 229.808 81.2262 228.972 81.2262C226.884 81.2262 225.793 82.3552 224.559 82.3552C223.699 82.3552 222.153 81.6471 222.153 80.6843C222.153 78.668 226.05 77.0791 227.712 77.0791Z" fill="#EED0C3"/>
<path d="M243.808 57.4615C243.808 58.2775 248.312 58.3012 248.312 57.4615V50.8447H243.808V57.4615Z" fill="#EED0C3"/>
<path d="M245.274 53.019C245.685 53.019 248.312 54.2344 248.312 54.9145V51.333C247.658 51.333 245.274 53.019 245.274 53.019Z" fill="#1F161E"/>
<path d="M244.405 53.3108C241.392 53.3108 238.949 50.7495 238.949 47.59C238.949 44.4304 241.392 41.8691 244.405 41.8691C247.419 41.8691 249.861 44.4304 249.861 47.59C249.861 50.7495 247.419 53.3108 244.405 53.3108Z" fill="#EED0C3"/>
<path d="M238.772 43.1056C239.447 44.2303 240.86 44.7463 242.389 44.7463C243.693 44.7463 245.591 44.3491 246.944 45.1565C247.672 45.5882 248.51 46.5705 248.681 48.5372C248.681 48.8739 249.044 50.18 249.044 50.601C249.044 50.8903 249.353 51.0781 249.867 51.0781C250.133 51.0781 250.656 50.6247 250.656 49.9361C250.656 49.1395 250.355 48.8567 250.355 48.181C250.355 47.5053 251.158 46.8468 251.158 44.9687C251.158 42.2637 249.511 40.5971 248.346 40.5971C247.285 40.5971 246.95 40.8561 246.816 40.9662C246.816 38.5073 243.728 37.3848 242.492 37.3848C241.092 37.3848 240.433 37.9892 240.433 38.7534C240.433 39.9775 240.987 41.0137 241.269 41.2469C240.631 40.645 239.803 40.3133 238.945 40.3164C237.339 40.3164 236.799 41.4217 236.799 42.1773C236.799 43.8223 238.681 45.3443 239.381 45.3443C239.557 44.9526 239.763 44.577 239.999 44.2217" fill="#1F161E"/>
<path d="M248.511 49.5645C247.868 49.5645 247.347 49.0184 247.347 48.3447C247.347 47.6711 247.868 47.125 248.511 47.125C249.153 47.125 249.674 47.6711 249.674 48.3447C249.674 49.0184 249.153 49.5645 248.511 49.5645Z" fill="#F8CDBA"/>
<path d="M238.895 48.6387C238.397 48.6387 237.993 48.4183 237.993 48.1465C237.993 47.8747 238.397 47.6543 238.895 47.6543C239.393 47.6543 239.797 47.8747 239.797 48.1465C239.797 48.4183 239.393 48.6387 238.895 48.6387Z" fill="#FA9E9F"/>
<path d="M244.565 48.6387C244.067 48.6387 243.663 48.4183 243.663 48.1465C243.663 47.8747 244.067 47.6543 244.565 47.6543C245.063 47.6543 245.467 47.8747 245.467 48.1465C245.467 48.4183 245.063 48.6387 244.565 48.6387Z" fill="#EF9A9A"/>
<path d="M241.096 47.125C240.927 47.3754 240.066 48.4354 240.976 48.865" stroke="#1F161E" stroke-width="0.568562" stroke-miterlimit="10" stroke-linecap="round"/>
<path d="M242.793 50.1021C243.065 50.1021 243.483 49.7502 243.705 49.4307" stroke="#1F161E" stroke-width="0.568562" stroke-miterlimit="10" stroke-linecap="round"/>
<path d="M235.6 65.4668C235.188 66.3864 233.201 75.2354 233.201 78.0397" stroke="#1F161E" stroke-width="0.568562" stroke-miterlimit="10" stroke-linecap="round"/>
<path d="M263.432 76.2158C263.432 86.1658 263.345 89.0521 259.534 89.0521C250.755 89.0521 237.483 81.4963 235.117 81.4963C233.03 81.4963 231.938 82.6253 230.703 82.6253C229.845 82.6253 228.296 81.9151 228.296 80.9544C228.296 78.9381 232.194 77.3492 233.855 77.3492C237.594 77.3492 252.526 81.1293 252.888 81.1293C253.25 81.1293 253.866 80.963 253.866 80.3197C253.866 79.1518 253.139 76.4555 253.042 76.218L263.432 76.2158Z" fill="#EED0C3"/>
<path d="M250.851 67.5371C251.102 68.2949 253.061 76.127 253.289 77.079" stroke="#1F161E" stroke-width="0.568562" stroke-miterlimit="10" stroke-linecap="round"/>
<path d="M218.799 84.7394H236.709L232.445 73.3682H214.535L218.799 84.7394Z" fill="#969696"/>
</g>
<defs>
<clipPath id="clip0_7013_221917">
<path d="M0 8C0 3.58172 3.58172 0 8 0H306C310.418 0 314 3.58172 314 8V115H0V8Z" fill="white"/>
</clipPath>
<clipPath id="clip1_7013_221917">
<rect width="104.047" height="68.2274" fill="white" transform="translate(102.527 33)"/>
</clipPath>
</defs>
</svg>
