<svg width="163" height="165" viewBox="0 0 163 165" fill="none" xmlns="http://www.w3.org/2000/svg">
    <path d="M124.071 108.409c.332 1.972 5.954 47.044 6.865 47.79.911.745 10.583 2.397 11.411 1.155.166-1.972.394-33.401.907-36.213" fill="#1F161E"/>
    <path d="M15.283 99.005c-3.9-1.924 4.231 36.142 25.63 36.142s57.418-32.597 63.25-32.597c12.874 0 43.349 25.279 45.739 25.279 1.829-1.83 5.488-5.032 5.488-6.289 0-1.258-29.178-49.288-51.01-49.288-8.466-.008-80.292 31.102-89.097 26.753z" fill="#EF9A9A"/>
    <path d="M27.326 99.652c4.278-.97 9.6-3.481 14.313-6.052-12.82 4.187-23.323 6.904-26.356 5.406-2.066-1.018-.756 9.171 4.101 18.985-.879-1.9-2.133-16.056 7.942-18.339z" fill="#1F161E"/>
    <path d="M36.757 32.873c3.371.09 20.922-.426 25.732 4.156 3.569 3.395 14.664 32.628 16.376 42.892-7.453 3.785-61.204 29.525-77.84 18.205-.366-8.797 1.341-43.744 12.22-62.075 3.978-2.65 20.271-3.265 23.512-3.178z" fill="#FFCC80"/>
    <path d="M43.594 24.506H33.342v11.02c0 2.76 10.252 2.737 10.252 0v-11.02z" fill="#EED0C3"/>
    <path d="M33.342 31.15c0-1.222 3.387-4.294 5.481-4.188.051-1.332-4.783-3.304-4.783-3.304l-.698 1.881v5.61z" fill="#1F161E"/>
    <path d="M54.331 24.505c.23-1.065.347-2.151.347-3.24 0-8.131-6.352-14.724-14.195-14.724-7.842 0-14.194 6.593-14.194 14.723 0 1.09.116 2.176.347 3.241H54.33z" fill="#1F161E"/>
    <path d="M50.59 14.589c-1.74-.264-3.475-1.632-4.685-2.527-6.9 5.054-11.32 5.125-11.798 5.125-.477 0-2.42 2.792-3.316 3.107l-.079-.047a10.765 10.765 0 1 0 20.69-5.658c-.27.034-.543.034-.813 0z" fill="#EED0C3"/>
    <path d="M32.794 8.375a4.187 4.187 0 1 0 0-8.375 4.187 4.187 0 0 0 0 8.375z" fill="#1F161E"/>
    <path d="M34.66 16.955a1.762 1.762 0 0 0 0 3.521M48.081 17.168c.517.69 1.846 1.897 0 3.178M42.486 21.292c0 .516.221 1.75 1.33 2.07" stroke="#1F161E" stroke-miterlimit="10" stroke-linecap="round"/>
    <path d="M39.052 21.402c.897 0 1.624-.377 1.624-.843 0-.466-.727-.844-1.624-.844-.897 0-1.625.378-1.625.844 0 .466.728.843 1.625.843zM51.13 21.402c.897 0 1.624-.377 1.624-.843 0-.466-.727-.844-1.625-.844-.897 0-1.624.378-1.624.844 0 .466.727.843 1.624.843z" fill="#FA9E9F"/>
    <path d="m62.119 63.34 10.957-2.819c1.053 1.779 6.179 19.38 6.179 19.38l-16.915 7.13c.22-3.336.887-18.58-.221-23.69z" fill="#EED0C3"/>
    <path d="M23.698 60.584c0 1.325-1.116 6.368-1.775 8.738M62.118 63.341c-.264-2.086-1.81-13.84-4.44-20.026" stroke="#1F161E" stroke-miterlimit="10" stroke-linecap="round"/>
    <path d="m62.119 63.34 10.957-2.819c1.053 1.779 6.179 19.38 6.179 19.38l-16.915 7.13c.22-3.336.887-18.58-.221-23.69z" fill="#EED0C3"/>
    <path d="M150.229 126.898c.245.375 3.51 4.397 4.665 4.444 1.155.047 8.17-4.708 7.862-5.729-.307-1.021-4.708-.359-5.465-.714-.757-.355-2.44-2.042-2.708-2.795M132.978 156.616c-.082.438-.528 5.599.273 6.435.8.836 9.147 2.287 9.632 1.337.485-.95-3.154-3.525-3.434-4.306-.28-.78-.339-3.154 0-3.895" fill="#1F161E"/>
    <path d="m128.009 58.08-8.463 22.425H83.483l8.463-22.425h36.063z" fill="#969696" stroke="#000"/>
    <path d="M88.95 80.122H51.82v.883h37.13v-.883z" fill="#969696"/>
    <path d="M21.924 69.322c-.714 2.677-4.196 14.096-2.76 16.06 1.435 1.963 36.764-2.5 46.223-5.442 2.41-.788 4.196-2.858 5.264-3.123a5.643 5.643 0 0 1 6.364 4.014c-3.777 1.83-58.317 29.676-75.99 17.283-3.34-2.378 2.524-31.556 2.788-33.031 2.985.37 18.11 4.239 18.11 4.239z" fill="#EED0C3"/>
    <path d="M62.623 80.674a43.753 43.753 0 0 0 2.76-.734c2.41-.788 4.196-2.858 5.264-3.123a5.643 5.643 0 0 1 6.368 4.015" stroke="#1F161E" stroke-miterlimit="10" stroke-linecap="round"/>
</svg>
