<svg width="314" height="115" viewBox="0 0 314 115" fill="none" xmlns="http://www.w3.org/2000/svg">
<g clip-path="url(#clip0_8997_281197)">
<path d="M219.774 67.1597L222.913 66.0427C222.778 60.3632 221.439 47.6728 219.538 45.7857C219.091 45.3443 210.252 44.5742 208.675 44.5742C199.265 44.5742 196.474 45.6386 195.766 46.3433C193.568 48.5228 192.883 58.6214 192.883 62.1577C192.883 65.694 202.956 67.5284 202.956 67.5284L214.763 68.333C214.763 68.333 217.353 68.5982 219.593 68.729C219.642 68.0479 219.774 67.1597 219.774 67.1597Z" fill="#EF9A9A"/>
<path d="M224.911 62.1992C223.66 62.1992 222.628 62.4778 219.796 62.999L219.648 68.0747C222.335 67.061 222.958 65.6519 223.737 65.6519C225.683 65.6519 226.7 66.5919 227.849 66.5919C228.651 66.5919 230.094 66.0024 230.094 65.2008C230.094 63.5221 226.462 62.1992 224.911 62.1992Z" fill="#EED0C3"/>
<path d="M210.511 45.3767C210.511 46.0373 206.594 46.0566 206.594 45.3767V40.0039H210.511V45.3767Z" fill="#EED0C3"/>
<path d="M209.205 41.5438C208.851 41.5438 206.594 42.6501 206.594 43.2681V40.0039C207.156 40.0039 209.205 41.5438 209.205 41.5438Z" fill="#1F161E"/>
<path d="M210.185 41.9624C212.889 41.9624 215.082 39.7703 215.082 37.0662C215.082 34.362 212.889 32.1699 210.185 32.1699C207.481 32.1699 205.289 34.362 205.289 37.0662C205.289 39.7703 207.481 41.9624 210.185 41.9624Z" fill="#EED0C3"/>
<path d="M215.244 33.1597C214.629 34.1257 213.344 34.5688 211.952 34.5688C210.766 34.5688 209.038 34.2277 207.809 34.9211C207.144 35.2919 206.381 36.1355 206.227 37.8245C206.227 38.1137 205.896 39.2354 205.896 39.597C205.896 39.8436 205.615 40.0049 205.146 40.0049C204.904 40.0049 204.427 39.6174 204.427 39.0259C204.427 38.3418 204.702 38.0989 204.702 37.5186C204.702 36.9383 203.984 36.3802 203.984 34.7672C203.984 32.4441 205.483 31.0127 206.544 31.0127C207.511 31.0127 207.814 31.2352 207.936 31.3298C207.936 29.218 210.747 28.2539 211.862 28.2539C213.136 28.2539 213.736 28.7712 213.736 29.4294C213.736 30.4788 213.23 31.3706 212.973 31.5708C213.554 31.0536 214.309 30.7688 215.09 30.7717C216.55 30.7717 217.041 31.721 217.041 32.3699C217.041 33.7808 215.33 35.0879 214.693 35.0879C214.533 34.7524 214.345 34.4306 214.131 34.1257" fill="#1F161E"/>
<path d="M215.079 38.0454C215.439 38.0454 215.731 37.8993 215.731 37.719C215.731 37.5387 215.439 37.3926 215.079 37.3926C214.718 37.3926 214.426 37.5387 214.426 37.719C214.426 37.8993 214.718 38.0454 215.079 38.0454Z" fill="#FA9E9F"/>
<path d="M209.856 38.0454C210.217 38.0454 210.509 37.8993 210.509 37.719C210.509 37.5387 210.217 37.3926 209.856 37.3926C209.495 37.3926 209.203 37.5387 209.203 37.719C209.203 37.8993 209.495 38.0454 209.856 38.0454Z" fill="#FA9E9F"/>
<path d="M213.121 36.7383C213.329 36.9276 214.387 37.722 213.27 38.0439" stroke="#1F161E" stroke-width="0.652831" stroke-miterlimit="10" stroke-linecap="round"/>
<path d="M211.813 39.3501C211.424 39.3501 210.824 39.0058 210.508 38.6973" stroke="#1F161E" stroke-width="0.652831" stroke-miterlimit="10" stroke-linecap="round"/>
<path d="M192.883 61.5469C192.883 69.6435 192.963 71.9922 196.431 71.9922C204.424 71.9922 216.507 65.8437 218.661 65.8437C220.564 65.8437 221.557 66.7643 222.68 66.7643C223.462 66.7643 224.872 66.1863 224.872 65.4046C224.872 63.7621 221.323 62.4691 219.81 62.4691C216.404 62.4691 202.812 65.5469 202.48 65.5469C202.149 65.5469 201.59 65.4116 201.59 64.8881C201.59 63.9377 202.254 61.7419 202.34 61.5504L192.883 61.5469Z" fill="#EED0C3"/>
<path d="M242.975 66.77H226.828L229.753 56.5235C229.827 56.2763 229.976 56.0598 230.18 55.9063C230.384 55.7529 230.631 55.6707 230.885 55.672H244.586C244.766 55.6691 244.944 55.709 245.106 55.7886C245.269 55.8681 245.41 55.9852 245.52 56.1304C245.63 56.2756 245.705 56.445 245.739 56.625C245.773 56.8049 245.766 56.9906 245.717 57.167L242.975 66.77Z" fill="black"/>
<path d="M164.794 101.98C164.794 102.41 164.541 105.124 165.044 105.373C165.547 105.623 171.083 105.776 171.333 105.526C171.583 105.277 171.736 104.748 171.51 104.595C171.283 104.442 169.148 104.02 168.845 103.817C168.542 103.614 168.152 102.553 168.302 101.98" fill="#1F161E"/>
<path d="M141.832 43.3789C141.775 44.0775 145.879 68.0609 145.852 68.8326C145.826 69.6044 139.566 98.6207 139.566 98.6207L142.981 100.144C142.981 100.144 154.517 75.7449 154.71 74.1982C154.903 72.6514 143.647 43.3723 141.832 43.3789Z" fill="#1F161E"/>
<path d="M141.836 43.3792C142.096 44.111 164.508 102.257 164.508 102.257H168.922L153.195 40.0527L141.836 43.3792Z" fill="#7DBF9D"/>
<path d="M145.41 17.0527C152.596 17.0527 153.405 30.0657 153.405 31.8985C153.405 33.7314 153.642 39.4728 153.205 40.0416C152.572 40.341 142.512 43.7007 141.846 43.368C141.18 43.0354 136.053 17.0527 145.41 17.0527Z" fill="#E3F2EB"/>
<path d="M141.912 31.7227C141.912 32.3114 141.782 36.1801 142.755 36.9285C143.728 37.6769 151.576 38.6449 151.576 39.6695C151.576 40.1086 151.719 40.5809 150.75 40.9036C151.389 40.6873 153.195 40.042 153.195 40.042C153.342 39.6978 153.412 39.3252 153.398 38.951C153.225 38.7946 141.912 31.7227 141.912 31.7227Z" fill="#1F161E"/>
<path d="M147.24 14.4192L144.129 13.7539C144.129 13.7539 143.783 17.6159 143.743 17.9485C143.703 18.2812 146.258 18.5805 146.298 18.2812C146.338 17.9818 147.24 14.4192 147.24 14.4192Z" fill="#EED0C3"/>
<path d="M144.025 14.8553C144.025 14.7821 145.025 15.4341 145.424 15.6304C145.824 15.8266 143.975 16.0029 143.855 16.7214C143.905 16.1892 144.019 14.9751 144.025 14.8553Z" fill="#1F161E"/>
<path d="M146.649 15.8156C148.884 15.8156 150.696 14.0061 150.696 11.774C150.696 9.54191 148.884 7.73242 146.649 7.73242C144.414 7.73242 142.602 9.54191 142.602 11.774C142.602 14.0061 144.414 15.8156 146.649 15.8156Z" fill="#EED0C3"/>
<path d="M146.58 28.3434C146.447 29.0087 146.194 32.3983 146.204 33.3863C146.624 34.311 153.482 37.2183 154.915 37.4578C155.481 37.4412 155.794 37.1252 156.147 37.1252C156.987 37.1418 159.235 36.9988 159.235 37.2416C159.235 37.4844 158.569 39.1909 157.736 39.1909C156.334 39.1909 155.854 38.825 155.325 38.7917C154.578 38.7451 154.299 39.0146 153.636 38.9713C152.973 38.9281 144.605 37.5909 143.182 35.4719C141.707 33.2698 141.404 27.6249 141.41 27.3555C141.79 27.4586 146.024 28.3434 146.58 28.3434Z" fill="#EED0C3"/>
<path d="M141.406 27.3604C141.273 24.9022 141.639 20.0656 144.547 20.4515" stroke="#1F161E" stroke-width="0.359057" stroke-miterlimit="10" stroke-linecap="round"/>
<path d="M139.969 98.666C139.843 98.9421 138.687 101.347 139.147 102.169C139.606 102.99 142.971 104.64 143.374 104.497C143.777 104.354 143.86 103.912 143.544 103.366C143.227 102.821 141.988 102.265 141.831 101.79C141.675 101.314 142.105 100.027 142.551 99.7471" fill="#1F161E"/>
<path d="M148.241 13.4539C148.681 13.4539 149.038 13.2692 149.038 13.0414C149.038 12.8136 148.681 12.6289 148.241 12.6289C147.802 12.6289 147.445 12.8136 147.445 13.0414C147.445 13.2692 147.802 13.4539 148.241 13.4539Z" fill="#FA9E9F"/>
<path d="M143.742 14.5281C143.019 14.1954 142.113 12.7518 142.113 10.7925C142.113 5.71973 148.256 5.80289 148.879 5.61661C149.502 5.43033 150.751 4.97461 151.054 4.97461C152.073 4.97461 152.493 7.75549 152.493 8.20456C152.493 9.95758 151.041 10.9023 150.621 10.9588C150.428 10.4665 150.192 9.99233 149.915 9.54178C149.638 9.69147 145.534 11.205 144.828 11.3746C145.035 12.1297 143.636 13.8694 143.742 14.5281Z" fill="#1F161E"/>
<path d="M150.584 10.9629C150.881 10.9629 151.314 12.1271 151.251 12.3899C151.187 12.6527 150.534 12.8556 150.274 12.8456C150.015 12.8357 150.158 10.9629 150.584 10.9629Z" fill="#F8CDBA"/>
<path d="M148.008 14.043C148.008 14.1775 148.056 14.3076 148.143 14.41C148.23 14.5125 148.351 14.5804 148.484 14.6018" stroke="#1F161E" stroke-width="0.359057" stroke-miterlimit="10" stroke-linecap="round"/>
<path d="M144.449 12.5757C145.023 12.5757 145.489 12.111 145.489 11.5378C145.489 10.9647 145.023 10.5 144.449 10.5C143.875 10.5 143.41 10.9647 143.41 11.5378C143.41 12.111 143.875 12.5757 144.449 12.5757Z" fill="#EED0C3"/>
<path d="M172.39 26.8633H152.137V37.2484H172.39V26.8633Z" fill="#B37361"/>
<g clip-path="url(#clip1_8997_281197)">
<path d="M204.96 88.3125C211.269 88.3125 216.384 87.1434 216.384 85.7012C216.384 84.259 211.269 83.0898 204.96 83.0898C198.65 83.0898 193.535 84.259 193.535 85.7012C193.535 87.1434 198.65 88.3125 204.96 88.3125Z" fill="black"/>
<path d="M205.287 85.7012L198.105 105.939" stroke="black" stroke-width="2.61133" stroke-miterlimit="10" stroke-linecap="round"/>
<path d="M205.285 85.7012L211.161 105.939" stroke="black" stroke-width="2.61133" stroke-miterlimit="10" stroke-linecap="round"/>
<path d="M200.715 99.4116L207.896 94.8418" stroke="black" stroke-width="1.30566" stroke-miterlimit="10" stroke-linecap="round"/>
<path d="M202.02 94.8418L209.201 99.4116" stroke="black" stroke-width="1.30566" stroke-miterlimit="10" stroke-linecap="round"/>
<path d="M233.416 103.98C233.416 104.363 233.176 106.773 233.653 106.996C234.13 107.218 239.373 107.354 239.611 107.13C239.848 106.906 239.991 106.438 239.783 106.304C239.575 106.17 237.545 105.791 237.269 105.612C236.994 105.433 236.613 104.484 236.753 103.98" fill="#1F161E"/>
<path d="M225.523 71.4264C226.38 71.174 234.901 69.7918 236.757 71.6081C238.613 73.4243 244.456 99.4636 244.456 100.063H239.751L233.401 86.4757" fill="#1F161E"/>
<path d="M194.393 68.9149C194.177 69.9818 192.883 71.1273 192.883 76.9401C192.883 84.9781 199.529 85.1477 201.915 85.1477C209.35 85.1477 221.377 82.959 222.189 82.5577C222.729 83.4514 232.658 103.533 232.704 103.981H237.275C237.275 103.981 234.442 73.9379 229.329 70.5308C227.669 69.4365 198.205 68.2655 194.393 68.9149Z" fill="#546B7D"/>
<path d="M240.599 99.4102C240.599 99.8705 240.36 102.76 240.837 103.029C241.314 103.298 246.557 103.457 246.794 103.19C247.032 102.923 247.175 102.36 246.967 102.199C246.758 102.039 244.728 101.582 244.453 101.368C244.177 101.153 243.797 100.014 243.936 99.4102" fill="#1F161E"/>
<path d="M264.152 106.533C264.284 107.041 264.797 107.344 265.299 107.21C265.8 107.077 266.1 106.557 265.968 106.049L256.578 69.8862C256.447 69.3783 255.933 69.0749 255.432 69.2084C254.93 69.3419 254.63 69.8618 254.762 70.3697L264.152 106.533Z" fill="#999999"/>
<path d="M254.667 70.3698C254.799 69.862 254.5 69.3421 253.998 69.2085C253.496 69.075 252.983 69.3785 252.851 69.8863L243.461 106.049C243.329 106.557 243.629 107.077 244.131 107.211C244.632 107.344 245.146 107.041 245.278 106.533L254.667 70.3698Z" fill="#999999"/>
<path d="M241.71 70.3718C241.842 69.8639 241.543 69.344 241.041 69.2105C240.539 69.077 240.026 69.3804 239.894 69.8883L230.504 106.051C230.372 106.559 230.672 107.079 231.174 107.213C231.675 107.346 232.189 107.043 232.321 106.535L241.71 70.3718Z" fill="#E6E6E6"/>
<path d="M251.031 106.533C251.163 107.041 251.676 107.344 252.178 107.21C252.679 107.077 252.979 106.557 252.847 106.049L243.457 69.8862C243.326 69.3783 242.812 69.0749 242.31 69.2084C241.809 69.3419 241.509 69.8618 241.641 70.3697L251.031 106.533Z" fill="#E6E6E6"/>
<path d="M188.88 70.2922C189.01 69.7828 188.707 69.2635 188.204 69.1322C187.701 69.0009 187.188 69.3074 187.058 69.8168L177.826 106.087C177.696 106.596 177.999 107.116 178.502 107.247C179.005 107.378 179.518 107.072 179.648 106.562L188.88 70.2922Z" fill="#999999"/>
<path d="M198.061 106.395C198.19 106.904 198.703 107.211 199.206 107.079C199.709 106.948 200.012 106.429 199.882 105.92L190.65 69.6494C190.52 69.14 190.008 68.8335 189.505 68.9648C189.001 69.0961 188.699 69.6154 188.828 70.1247L198.061 106.395Z" fill="#999999"/>
<path d="M260.449 67.4219H169.635C169.177 67.4219 168.805 67.7985 168.805 68.2631V69.394C168.805 69.8586 169.177 70.2352 169.635 70.2352H260.449C260.908 70.2352 261.28 69.8586 261.28 69.394V68.2631C261.28 67.7985 260.908 67.4219 260.449 67.4219Z" fill="#E6E6E6"/>
<path d="M175.394 70.3737C175.526 69.8659 175.226 69.346 174.725 69.2124C174.223 69.0789 173.71 69.3824 173.578 69.8902L164.188 106.053C164.056 106.561 164.356 107.081 164.857 107.215C165.359 107.348 165.872 107.045 166.004 106.537L175.394 70.3737Z" fill="#E6E6E6"/>
<path d="M184.714 106.533C184.846 107.041 185.36 107.344 185.861 107.21C186.363 107.077 186.663 106.557 186.531 106.049L177.141 69.8862C177.009 69.3783 176.496 69.0749 175.994 69.2084C175.493 69.3419 175.193 69.8618 175.325 70.3697L184.714 106.533Z" fill="#E6E6E6"/>
</g>
</g>
<defs>
<clipPath id="clip0_8997_281197">
<path d="M0 8C0 3.58172 3.58172 0 8 0H306C310.418 0 314 3.58172 314 8V115H0V8Z" fill="white"/>
</clipPath>
<clipPath id="clip1_8997_281197">
<rect width="101.842" height="39.8227" fill="white" transform="translate(164.156 67.4219)"/>
</clipPath>
</defs>
</svg>
