<?xml version="1.0" encoding="UTF-8"?><svg id="Layer_1" xmlns="http://www.w3.org/2000/svg" width="163" height="185" xmlns:xlink="http://www.w3.org/1999/xlink" viewBox="0 0 163 185"><defs><style>.cls-1,.cls-2,.cls-3,.cls-4{fill:none;}.cls-5{fill:#012a30;}.cls-6{fill:#7f99ae;}.cls-7{fill:#5ba27e;}.cls-8{fill:#ecdbc2;}.cls-9{fill:#2f4960;}.cls-10{fill:#465973;}.cls-2{stroke:#9bd8b9;}.cls-2,.cls-3,.cls-4{stroke-linecap:round;stroke-linejoin:round;stroke-width:1.01px;}.cls-11{fill:#757575;}.cls-12{fill:#a0a0a0;}.cls-13{fill:#303030;}.cls-14{fill:#536d81;}.cls-3{stroke:#536d81;}.cls-4{stroke:#bfa687;}.cls-15{fill:#bfa687;}.cls-16{fill:#937a57;}.cls-17{fill:#76c69d;}.cls-18{clip-path:url(#clippath);}.cls-19{fill:#f2e8da;}.cls-20{fill:#705c40;}</style><clipPath id="clippath"><rect class="cls-1" width="163" height="185"/></clipPath></defs><g class="cls-18"><path class="cls-9" d="M32.3,103.43c-.1,1.23-.12,2.46-.11,3.69,0,3.14-.01,6.27,0,9.41.11,2.51-.12,5.05.31,7.53.4,2.23.88,4.45,1.48,6.64.82,2.8,1.58,5.62,2.11,8.49.62,3.55,1.37,7.1,1.57,10.71.09,2.53.05,5.07-.09,7.6-.13,1.9-.1,3.8-.14,5.71-.09,5.71-.05,11.41-.17,17.12.08,2.5-.41,6.98,1.53,8.75.62.65,1.41,1.07,2.2,1.48.7.36,1.38.76,2.08,1.13.69.4,1.38.8,2.02,1.28.63.51,1.25,1.05,1.93,1.49,1.26.82,2.82.8,4.27.89,1.86.11,3.71.22,5.57.27,2.47.06,4.93,0,7.4.09,1.77.08,3.58.22,5.33.35,2.49.23,4.97.62,7.41,1.18,1.51.28,3.03.53,4.53.82,1.46.21,2.95.31,4.42.33,2.68-.04,5.31-.69,7.99-.76,3.35-.29,6.72-.25,9.96-1.22.53-.2,1.15-.34,1.51-.8.19-.35.21-.79.31-1.18.44-2.38.64-4.8.87-7.2.24-3.68,1.18-7.28,1.38-10.96.16-2.48-.08-4.95-.26-7.42-.18-2.51-.4-5.02-.82-7.51-.37-2.33-.63-4.67-1.11-6.99-.57-3.2-1.31-6.38-1.65-9.61-.22-1.91-.19-3.82-.16-5.74.03-2.5.09-5,.08-7.49,0-1.93.02-3.87-.05-5.8-.08-1.94-.28-3.88-.51-5.81-.26-1.83-.5-3.67-.87-5.48-.32-1.35-.61-2.75-.85-4.11-.6-3.16-1.28-6.31-1.68-9.5-.27-2.11-.67-4.21-1.1-6.27-.26-1.27-.59-2.53-1.09-3.73-.33-.71-.94-1.27-1.55-1.76-1.67-1.3-3.74-1.84-5.75-2.41-1.89-.65-3.96-.87-5.71-1.85-2.22-1.24-3.18-2.44-5.15-3.43-1.93-.98-4.81-1.13-6.83-1.92-1.53-.55-3.14-.87-4.73-1.23-2.25-.48-4.56-.91-6.85-.48-2.34.46-3.95,1.69-5.61,3.32-.7.6-1.41,1.16-2.14,1.72-.76.57-1.59,1.03-2.39,1.55-.64.4-1.27.82-1.95,1.14-.79.33-1.61.58-2.45.73-2.17.39-4.41.36-6.55.94-.13-.23-.4-.18-.6-.06-.48.24-.9.57-1.31.91-.33.18-.65.4-.96.62-.07.05-.13.11-.2.16-.14.11-.12.36.04.44-1.13,1.25-2.01,2.69-2.67,4.24-.99,2.06-1.68,4.27-1.97,6.54-.2,1.14-.23,2.29-.29,3.44Z"/><path class="cls-9" d="M94.05,89.3c.38.79.65,1.72.75,2.19.32,1.42.21,2.79.59,4.22.12.56.47,1.02.69,1.54.21.69.24,1.41.45,2.1.34,1.24.27,2.53.35,3.79.06,1.26.24,2.51.65,3.72.42,1.37.59,2.81,1.02,4.18.28.9.67,1.77.93,2.68.26.94.39,1.87.6,2.79.23,1.19.76,2.28,1.11,3.43.38,1.54.64,3.11.97,4.67.1.81.26,1.6.45,2.4-.36,1.58-.72,3.15-.9,4.76-.17,1.31-.24,2.62-.21,3.94.01,2.74-.05,5.57.14,8.3.19,2.61.37,5.23.6,7.83.16,1.67.33,3.37.91,4.95.41,1.1,1.45,1.77,2.22,2.6.29.27.57.57.87.82.39.19.81.35,1.26.34,1.13.04,2.19-.42,3.09-1.07,1.42-.96,2.55-2.26,3.54-3.64.24-.24.45-.5.63-.78.63-.92,1.3-1.82,1.94-2.73,1.36-2.03,2.6-4.19,3.34-6.53.87-2.81,1.68-5.66,2.12-8.57.21-2.98,0-5.99-.75-8.88-.35-1.42-.75-2.96-1.97-3.88-.98-.84-2.32-.99-3.48-1.46-.69-.24-1.41-.49-2.15-.53-.6-.02-1.2-.03-1.8-.03-.02-.24-.04-.48-.07-.73-.02-.25-.03-.5-.05-.76-.02-.77-.03-1.54-.05-2.31,0-.16-.02-.31-.03-.47-.01-.18-.01-.35-.03-.53-.04-.37-.08-.74-.13-1.11-.03-.22-.06-.43-.1-.64-.03-.2-.07-.4-.11-.59-.06-.33-.12-.66-.19-.99-.08-.4-.17-.8-.25-1.19-.07-.33-.16-.65-.25-.97-.11-.38-.22-.75-.34-1.12-.1-.32-.19-.65-.28-.98-.09-.34-.18-.69-.27-1.04-.1-.36-.2-.71-.3-1.06-.19-.67-.33-1.35-.51-2.02-.2-.73-.4-1.45-.61-2.18-.13-.47-.29-.93-.45-1.4-.15-.42-.33-.83-.51-1.25-.36-.86-.74-1.71-1.11-2.5-.03-.06-.06-.12-.09-.18-.04-.08-.07-.15-.11-.23-.78-1.66-1.74-3.1-2.18-4.92-.18-.74-.34-1.57-.97-2.02-.25-.18-.55-.27-.84-.37-3.09-.97-6.18-1.95-9.28-2.92.43.13.81.68,1.12,1.32Z"/><path class="cls-7" d="M35.23,87.7c.09.08.23.13.35.15,1.32.27,2.67.48,3.86,1.1,1.49.77,2.61,2.12,3.36,3.62s1.14,3.14,1.46,4.78c.62,3.18.83,6.42,1.37,9.61.48,2.84,1.14,5.84,1.36,8.73.09,1.22.02,2.47.3,3.66.59,2.44,2.11,4.32,2.21,6.92.05,1.25,0,2.22.23,3.44.26,1.34.42,2.71.45,4.07.08,3.51.41,7.23-1.11,10.5-1.15,2.55-2.25,5.29-4.76,6.81-3.89,2.72-7.63-.01-7.48,5.77.18,6.4.09,12.23.05,18.63-.14,3.52-.01,6.49.29,10,1.54,2.26,5.58,3.9,7.95,4.92,6.19,2.32,12.81,1.15,19.19.5,1.47-.15,3-.07,4.47-.11,1.56-.04,3.12-.09,4.68-.13,3.02-.07,6.04-.11,9.06-.08.92,0,1.89,0,2.7-.44.17-.1.34-.21.54-.26.28-.07.56,0,.85.04,1.14.12,2.21-.53,3.07-1.28,1.29-1.14,2.56-1.6,4.26-1.84s3.5-.19,5.24-.04c2.37-.12,4.83-.2,7.1-.85,3.04-.89,3.25-4,3.19-6.68,0-2.9-.03-5.84-.59-8.7-.47-2.09-1.04-5.67-1.44-7.78-.62-2.75-1.16-4-1.99-6.7-1.66-5.18-1.15-10.76-2.23-16.07-.23-1.91.48-3.67,1.19-5.4.61-1.63,1.14-3.27,1.68-4.92.58-2.02.57-4.13.67-6.21.55-4.36.45-8.74.46-13.12.52-3.57-.1-7.08-.9-10.56-.63-2.69-1.53-4.45-2.47-7.03-.26-1.82-2.85-2.59-4.3-2.97-1.71-.47-3.37-1.92-5.06-2.44-2.27-.7-3.43-1.08-6.1-2.33-2.08-.97-3.53-3.1-6.12-2.84l-.09.59c-.04.28-.08.58.07.82.06.09.15.17.23.24.57.49,1.04.84,1.34,1.55.28.64.42,1.33.54,2.01s.19,1.44.27,2.16c.07.59.28,1.25.29,1.83.88,5.43-2.33,11.26-6.8,14.3-2.35-1.61-4.79-3.11-7.29-4.48s-4.17-3.01-6.19-4.97c-2.18-2.11-3.81-4.35-4.96-7.16-.56-1.37-1.06-2.76-1.7-4.09-.38-.8-.82-1.58-1.25-2.35-.04-.08-.09-.16-.16-.21-.12-.08-.27-.04-.41-.03-5.68.54-6.11,2.34-9.36,2.54-3.55.22-8.17.52-11.38,2.25-.12.06-.25.15-.26.29,0,.08.03.15.09.2Z"/><path class="cls-8" d="M59.09,54.46c-.09.06-.17.12-.26.2-.62.57-.94,1.41-1.01,2.25s.09,1.68.31,2.49c.27,1.04.64,2.06,1.22,2.96s1.39,1.68,2.38,2.1c.91.38.7.71.71,1.56.02.96.02,1.91.12,2.87.05.47.13.95.25,1.41.06.23.41.86.37,1.09-.13.63-.33,1.25-.5,1.84-.21.66-.42,1.27-.74,1.88-.26.51-.63.96-.92,1.45-.48.64-.26,1.45.01,2.13.25.65.55,1.29.8,1.94.25.64.46,1.29.68,1.94.46,1.33.95,2.65,1.58,3.9.99,1.91,2.4,3.54,3.74,5.21.99,1.23,1.84,2.56,2.81,3.8,1.48,1.8,3.44,2.68,5.73,1.79,1.27-.49,2.35-1.36,3.39-2.22.54-.44,1.08-.91,1.38-1.53,1.37-2.85.25-6.7.43-9.73.01-.16.02-.33.04-.49,0,0,.01,0,.02,0,1.55-.89,2.72-2.3,3.88-3.63.48-.61.95-1.23,1.33-1.91.37-.7.65-1.43.98-2.15.32-.71.66-1.35.95-2.06.36-.96.76-1.9,1.21-2.82.44-1.03.99-2.03,1.35-3.09.56-2.49-.24-5.07.26-7.57.19-.92.68-1.73,1.09-2.57.57-1.2,1.08-2.44,1.39-3.73.24-.97.23-1.96.21-2.95-.03-1.68-.18-3.41-.85-4.97-.4-1.36-.87-2.74-1.67-3.92-1.51-2.08-3.44-4.01-5.91-4.89-1.07-.42-2.15-.85-3.29-1.06-1.42-.22-2.86-.15-4.29-.05-1.03.05-2.05.16-3.07.28-.86.07-1.72.14-2.54.4-2.73.77-5.27,2.25-7.32,4.21-.94.92-1.5,2.12-2.07,3.29-1.37,2.4-1.95,5.14-2.08,7.88,0,.45,0,.9,0,1.35,0,.16.09.54.02.68-.13.26-.02.11-.31.13-.7.05-1.24-.04-1.81.34Z"/><path class="cls-10" d="M102.73,123.35c-.62,1.16-.95,2.49-.76,3.8.07.82.26,1.67.78,2.34.78.92,2,1.57,3.23,1.27.72-.16,1.45-.43,2.01-.93.66-.61,1.25-1.31,1.62-2.14.4-1.22.28-2.57,0-3.81-.35-1.15-1.03-2.27-2.02-2.98-.35-.22-.77-.28-1.16-.34-.45.03-.91.17-1.27.46-.86.7-1.9,1.31-2.42,2.33Z"/><path class="cls-15" d="M67.65,77.49c-.05.04-.1.1-.13.16-.37.7-.25,1.57.05,2.3.81,1.99,2.74,3.37,4.49,4.5,1.4.9,3.03,1.51,4.67,1.78,1.23.2,2.22.22,3.63-.1.42-.09.93-.04,1.17-.4,0,0,.34-2.5.32-2.56-2.46,1.17-5.27.94-7.68-.16-1.41-.65-2.74-1.47-3.89-2.52-.93-.85-1.58-1.87-2.3-2.9-.04-.05-.08-.11-.13-.13-.07-.03-.13,0-.19.04Z"/><path class="cls-16" d="M55.15,70.7c.38-1.22.7-2.46.81-3.73.11-.96.2-1.93.12-2.89-.1-1.13-.32-2.26-.42-3.39-.04-.93-.07-1.88.03-2.81.27-1.54.57-2.98.96-4.52.27-1.11.62-2.2.93-3.3.19-.78.47-1.53.79-2.26.31-.75.68-1.47,1.1-2.16,1.89-3.3,4.45-5.75,7.45-8.06,4.35-3.36,10.24-5.24,15.52-2.93.31.14.64.22.96.31,3.93,1.13,6.7,3.92,9.16,7.01,1.51,1.91,2.24,4.1,2.91,6.44.64,2.04.62,3.96.29,6.04-.14,1.63-.16,3.18-.53,4.79-.42,1.88-1.05,3.69-1.57,5.54-.38,1.52-.64,3.09-1.03,4.62-.42,1.8-.44,3.66-.57,5.49-.06.95-.55.94-1.35.99-.32.02-3.06-.24-3.21.03,1.19-2.26,2-4.7,2.7-7.16.56-1.96,1.07-4.09.65-6.13s-.6-3.83-.79-5.83c-.07-.68.03-1.39-.21-2.04-.62-.12-1.2-.36-1.81-.53-.42-.11-.85-.24-1.25-.42-1.47-.68-2.94-1.45-4.19-2.49-.54-.48-1-1.03-1.39-1.63-.52.43-1.11.79-1.72,1.08-.55.24-1.15.34-1.71.55-2.08.81-4.26,1.22-6.47,1.38-.04.02-.09.04-.13.07-.92,1.38-1.76,2.86-3.1,3.89-1.23,1.04-3.1.43-4.17-.67-.42-.43-.74-.96-1.21-1.32-.67-.52-1.62-.66-2.41-.35-2.21.86-1.66,3.79-1.1,5.54.19.54.47,1.05.75,1.55.41.69.82,1.44,1.49,1.92.5.3,1.03.57,1.59.75.09.01.21.12.25.21.34.93.18,1.98.29,2.95.09,1.29.23,2.52-.2,3.74-.11.31-.23.64-.49.84-.16.12-.35.18-.54.23-.83.21-1.69.24-2.53.1-.76-.13-1.41-.31-2.17-.17-.85.16-1.68.35-2.47.7-.23.05-.42-.18-.44-.39.01-.55.31-1.06.45-1.59ZM72.46,35.38c-.44.14-.87.29-1.29.46-.14.08-.28.15-.42.24.57-.23,1.14-.46,1.71-.7Z"/><path class="cls-5" d="M74.49,73.55c-.19,1.06-.16,1.86.39,2.81.58,1,1.28,2.23,2.45,2.62.35.12.72.18,1.08.2.54.05,1.1.08,1.61-.16,1.27-.57,2.01-1.2,2.39-2.54.02-.09.04-.2-.04-.25-.05-.03-.11-.02-.16-.01-1.07.19-1.95.41-3.03.23-.93-.15-1.78-.6-2.42-1.3-.56-.62-1.06-1.3-1.71-1.83-.21-.17-.52,0-.57.24Z"/><path class="cls-9" d="M53.96,82.76c.53-.12.77.03,1.28.44.47.38.87.71,1.21,1.22.67,1,1.05,2.16,1.72,3.15,1.78,2.62,3.9,5.06,6.05,7.46,1.53,1.62,3.24,3.12,4.85,4.68,2.59,2.39,4.47,4.82,8.18,6.11,0,0,4.93-6.58,5.4-7.17,1.68-2.12,2.65-4.44,2.89-7,.15-1.61.32-3.22.29-4.83-.02-1.03-.35-2.09-.91-2.99-.3-.47-.83-1.28-1.33-1.57s-.65.19-1.04.48c-.21.15-.45.25-.65.4-.04.03-.07.06-.09.1-.02.05-.02.1-.02.15.02,1.26-.24,2.45-.98,3.48-1.2,1.68-2.71,3.17-3.86,4.9-.66.95-1.24,2.19-2.26,2.9-.98-.73-1.71-1.58-2.55-2.41-.74-.73-1.8-1.34-2.65-1.99-.55-.41-1.08-.85-1.6-1.3-.8-.69-1.69-1.31-2.55-1.94-.53-.42-1.06-.85-1.54-1.31-.62-.65-1.14-1.36-1.64-2.08-1.25-1.79-1.47-4.49-1.04-6.24.18-.74.42-1.53.81-2.36-.63-.13-1.11-.08-1.75.02-.22.03-.44.06-.64.13-1.14.35-1.82,1.45-2.37,2.3-1.17,1.81-2.88,3.23-3.98,5.07-.04.07-.08.15-.06.22.02.08.11.13.19.14s.17-.02.25-.05c.15-.05.27-.09.39-.12Z"/><g id="Hode"><path class="cls-20" d="M84.67,61.38c.7-.22,1.67-.39,1.84-.41.92-.09,1.72.15,2.56.49-.15-1.49-2.82-2.26-4.07-1.49-.74.45-1.15,1.1-1.07,1.83-.02-.15.31-.3.74-.43Z"/></g><path id="Vector_15" class="cls-5" d="M75.43,65.82c-.63-.19-.94-1.06-.69-1.95.25-.89.97-1.46,1.6-1.28s.94,1.06.69,1.95-.97,1.46-1.6,1.28Z"/><path id="Vector_15-2" class="cls-5" d="M85.45,66.93c-.63-.19-.94-1.06-.69-1.95s.97-1.46,1.6-1.28.94,1.06.69,1.95-.97,1.46-1.6,1.28Z"/><path class="cls-4" d="M80.84,64.45c.31,2.51.67,4.36,1.18,5.53.41.95,1.2,1.95.65,2.5s-2.73.99-3.64.31"/><path class="cls-20" d="M74.92,58.91c-1.47.18-2.63.53-3.25,2.2.98-.74,2.23-1.13,3.46-1.08.97.04,1.93.36,2.75.89.24.16.42.35.67.37.01-.7-.07-1.03-.52-1.69-.32-.47-.37-.46-.91-.53-.63-.08-1.56-.24-2.2-.16Z"/><path class="cls-17" d="M59.24,38.01c.73-1.56,1.74-2.99,2.65-4.45.34-.54.7-1.07,1.13-1.55.72-.87,1.62-1.59,2.59-2.23,1.5-.98,3.07-1.89,4.69-2.72.84-.4,1.68-.82,2.54-1.18,2.18-.81,4.52-1.22,6.86-1.37,2.18-.05,4.43-.19,6.56.35,1.85.48,3.42,1.58,4.84,2.74,1.05.89,2.14,1.8,3.09,2.79.58.65,1.09,1.35,1.59,2.05.47.64.85,1.36,1.1,2.11.41,1.39.48,2.86.56,4.29.03,1.29.04,2.59-.09,3.87-.25,1.65-.54,3.29-.82,4.94-.15.79-.32,1.57-.39,2.37-.01.25-.02.5.09.73.81,1.33,1.66,2.65,2.53,3.95.64,1.08,1.27,2.17,1.89,3.27.19.41.5,1.19.2,1.58-.67.64-1.62.95-2.45,1.38-.7.41-1.5.6-2.29.79-1.53.44-3.13.57-4.71.74-.92.06-1.81.23-2.72.34-1.4.1-2.8.05-4.2.08-3.72.08-4.8-.58-7.87-2.25-2.42-1.13-4.57-2.66-6.6-4.3-1.4-1.11-3-1.99-4.46-3.02-1.74-1.26-3.58-2.39-5.34-3.63-.46.53-1.02.98-1.66,1.32-.22.12-.5-.05-.54-.26-.03-.16-.05-.27-.07-.44-.26-1.08-.42-2.18-.46-3.29.03-.54-.14-1.08-.15-1.62,0-1.27.3-2.54.58-3.78.28-1.24.83-2.42,1.33-3.6Z"/><path class="cls-6" d="M60.18,25.43c-.31.8-.43,1.74-.07,2.55.16.38.54.58.87.81.89.6,1.91.98,2.85,1.48.61.32,1.2.66,1.8.99.5.26.99.6,1.57.65,1.61.04,3.14-.66,4.56-1.35,1.33-.63,2.57-1.42,3.73-2.3,1.1-.83,2.26-1.59,3.33-2.45,1.36-1.21,1.33-1.87,1-3.55-.04-.26-.07-.52-.1-.77-.71,1.68-3.28,3.2-4.58,4.25-.59.46-1.2.89-1.84,1.27-.71.48-1.48.98-2.25,1.38-.9.4-1.73.99-2.72,1.16-1.42.23-2.88-.05-4.14-.73-1.48-.79-3.46-1.71-3.99-3.39Z"/><path class="cls-10" d="M83.42,18.4c-.37.58-.24,1.12.48,1.47.92.45,1.72,1.04,2.51,1.68,1.59,1.28,3.23,2.53,4.56,4.09.88,1.05,1.68,2.17,2.48,3.28.5.7.98,1.43,1.39,2.19.38.79.71,1.6,1.03,2.42.18.35.28,1.33.8,1.17.67-.35,1.13-.99,1.6-1.57,3.65-3.8-1.43-9.54-4.15-12.24-1.52-1.51-3.17-2.99-5.04-4.04-.4-.22-.82-.45-1.28-.51-.59-.08-1.26.04-1.81.26s-1.24.59-1.7.92c-.21.15-.4.34-.58.53-.11.12-.2.23-.28.35Z"/><path class="cls-6" d="M80.15,22.78c0,1.56,1.2,2.35,2.67,3,1.59.7,3.11,1.66,4.56,2.65,2.31,1.57,4.64,3.06,6.66,5,.52.5,1.07,1.02,1.79,1.23.4.14.81.25,1.21.37.11.03.22.02.31-.05.4-.28-.01-1.66-.11-2.09-.38-1.7-1.34-3.33-2.18-4.84-1.18-2.1-2.78-3.99-4.54-5.66-.91-.86-1.89-1.65-2.84-2.47-.9-.78-1.88-1.49-3.09-1.71-.53-.09-1.1-.2-1.61.05-1.53.75-2.52,2.26-2.8,3.91-.04.21-.05.41-.05.6Z"/><path class="cls-10" d="M59.99,24.18c1.41-1.99,3.33-3.63,5.26-5.12,1.97-1.51,4.17-2.79,6.61-3.35,1.34-.31,2.55-.09,3.78.53,1.38.67,2.85,1.31,3.85,2.53.92.95.89,2.35,1.11,3.57.21.99.33,2.05-.26,2.94-.68,1.18-1.92,1.87-2.98,2.65-1.67,1.21-3.29,2.51-5.18,3.38-1.39.69-2.86,1.34-4.42,1.48-.89.12-1.69-.3-2.43-.73-.89-.5-1.77-1.01-2.7-1.44-.95-.42-1.88-.91-2.69-1.56-.79-.75-.93-1.95-.7-3.05.14-.68.42-1.33.77-1.82ZM60.98,28.79c.89.6,1.91.97,2.85,1.48.61.32,1.2.66,1.8.99.5.26.99.6,1.57.65,1.61.04,3.14-.66,4.56-1.35,1.33-.63,2.57-1.42,3.73-2.3,1.1-.83,2.26-1.59,3.33-2.45,1.36-1.21,1.33-1.87,1-3.55-.04-.26-.07-.52-.1-.77-.71,1.68-3.28,3.2-4.58,4.25-.59.46-1.2.89-1.84,1.27-.71.48-1.48.98-2.25,1.38-.9.4-1.73.99-2.72,1.16-1.42.23-2.88-.05-4.14-.73-1.48-.79-3.46-1.71-3.99-3.39-.31.8-.43,1.74-.07,2.55.16.38.54.58.87.81Z"/><path class="cls-7" d="M56.05,36.01c-.3,1.08-.19,2.24-.11,3.35.14,1.22.74,2.32,1.48,3.29.66.85,1.36,1.73,2.36,2.19.37.18.71.44,1.14.24.7-.2,1.39-.42,2.08-.64.13-.04.22-.17.25-.3.09-.35-.23-.59-.41-.86-.18-.23-.35-.46-.53-.69-1.01-1.24-1.89-2.64-2.3-4.2-.24-1.36.54-2.63,1.28-3.72.76-1.07,1.54-2.14,2.56-2.98.29-.25.58-.5.88-.74.3-.2.57-.54.26-.87.37-.06.45-.61.16-.81-.33-.26-.76-.14-1.14-.1-.4.05-.77.22-1.09.45-.57.36-1.15.69-1.74,1.02-.91.44-1.65,1.12-2.42,1.76-1.44,1.24-2.19,1.68-2.72,3.62Z"/><path class="cls-2" d="M79.6,31.08c.75,1.84,1.57,4.34,2.01,7.37.44,3.02.36,5.64.16,7.61"/><path class="cls-2" d="M85.02,30.6c1.09,1.55,2.7,4.25,3.54,7.97.8,3.5.59,6.47.32,8.3"/><path class="cls-2" d="M69.42,47.74c3.44,1.19,6.4,1.93,8.6,2.4,3.56.76,5.82,1.23,8.85,1.12,2.91-.11,5.27-.7,6.84-1.2"/><path class="cls-4" d="M61.3,56.64c-.14.33-.26.7-.32,1.12-.33,2.14.94,3.87,1.37,4.41"/><path class="cls-19" d="M69.12,105.27c6.07.3,12.14.6,18.21.9,6.67.33,13.6.74,20.14,2.14-.26,3.24-.21,6.37-.17,9.61-8.64-2.45-18.16-2.42-27.14-2.4-6.15.01-12.32.04-18.45.68-3.04.32-6.06.78-9.03,1.47-.94.22-2.38.24-3.24.64-.51.23-1.97,1.83-1.58,2.45-1.95-3.14-4.25-11.72-.23-14.32,5.05-3.27,15.82-1.46,21.48-1.17Z"/><path class="cls-3" d="M77.64,105.56c.64,3.34,3.82,8.83,4.22,14.9.51,7.66,2.21,10.71.13,17.98-2.41,8.39-1.54,8.66-.79,22.29.32,5.93.54,3.6.67,10.05.15,7.07,4.32,8.67,4.14,19.48"/><path class="cls-10" d="M52.62,158c-.25.55-.47,1.11-.65,1.69-.65,2.11-.78,4.5.31,6.42.77,1.37,1.67,1.44,3.26,1.51,1.66.08,3.39-.26,4.89-.54,1.71-.31,3.35-.37,5.02-.94,1.73-.59,3.51-1.63,4.05-3.36-2.18.44-4.56-.16-6.26-1.59-.18-.15-.36-.32-.46-.53-.12-.25-.11-.54-.09-.81.09-1.46.46-2.93,1.24-4.17.63-1,1.52-1.82,2.6-2.32.54-.25.91-.17.92-.81,0-.41-.46-.89-.77-1.11-.5-.35-1.11-.5-1.71-.6-2.83-.43-5.79.36-8.12,2-1.84,1.3-3.28,3.11-4.23,5.16Z"/><path class="cls-11" d="M59.73,152.76l58.89,2.44c.99.05,1.89-.6,2.14-1.55l9.81-33.49c.33-1.27-1.55-2.9-2.87-2.97l-58.87-3.25c-.99-.05-1.89.6-2.14,1.55l-8.85,33.86c-.33,1.27.57,3.34,1.88,3.41Z"/><path class="cls-13" d="M60.2,153.14l59.19,3.27c1.2.07,2.27-.72,2.57-1.87l8.92-34.16c.25-.94-.44-1.87-1.41-1.93l-59.98-3.31c-.73-.04-1.4.44-1.58,1.15l-9.13,34.93c-.25.94.44,1.87,1.41,1.93Z"/><path class="cls-8" d="M63.32,155.34c-.47.82-.8,1.73-.94,2.68-.1.7-.13,1.44-.01,2.13.25,1.48,1.41,2.08,2.71,2.42,1.66.43,3.39.51,5.09.48s3.31-.08,4.94-.35c2.12-.35,4.01-1.49,6.09-1.97,1.15-.26,2.34-.32,3.5-.54,1.04-.2,2.04-.53,3.02-.92,2.86-1.13,5.7-2.29,8.55-3.46,2.46-1.01,5.4-1.61,6.9-3.98.27-.43.5-.9.5-1.4s-.25-1.04-.72-1.23c-.54-.22-1.14.04-1.66.31-.35.18-.7.34-1.05.51-1.03.5-2.05,1.01-3.05,1.56.75-.41,1.57-1.02,2.13-1.69.38-.46.68-1,.97-1.54.47-.87.59-1.81-.57-2.09-1.19-.29-2.42.33-3.37,1.13-1.23,1.01-2.34,2.15-3.61,3.09-.83.59-1.6,1.31-2.51,1.77s-2.06.56-3.06.79c2.1-1.05,3.78-2.81,5.29-4.66.38-.46.76-.95.95-1.52s.19-1.26-.16-1.74c-.46-.63-1.54-.95-2.22-.58-.29.16-.53.39-.77.62-1.64,1.53-3.51,2.46-5.43,3.51-1.27.69-2.51,1.39-3.85,1.91-1.33.51-2.71.85-4.05,1.31-1.24.43-2.44,1.03-3.69,1.43.11-.04.25-1.48.28-1.65.17-1.01.71-1.57,1.05-2.53.28-.82.26-1.86-.06-2.66-.39-.98-1.47-1.17-2.38-.82-1.19.46-1.67,1.7-2.28,2.72-.67,1.12-.95,2.42-1.45,3.62-.22.52-.7,1.05-1.23,1.23-1.26.43-2.42.11-3.32,1.33-.19.25-.36.51-.51.78Z"/><path class="cls-9" d="M24.61,135.61c.29-1.62-.14-3.23.02-4.87.15-1.59.98-3.19,1.09-4.8.1-1.49-.28-1.97-.09-3.44.15-1.3.71-3.61.88-4.91.18-1.57.6-3.09.85-4.64.42-2.47-.43-3.31.11-5.77.56-2.92,1.19-6.47,1.67-9.41.39-2.39,1.25-6.37,2.83-8.32,1.41-1.74,3.9-2.41,6.09-1.93s4.06,2,5.28,3.88c2.48,3.81,2.03,8.04,2.17,12.35.1,2.85.17,5.69.34,8.54.12,1.74.33,3.48.45,5.22.13,2.13.12,4.27.16,6.4.03,2.61.06,5.23-.25,7.83-.36,2.56-.95,5.08-1.66,7.56-.64,2.73-1.13,5.48-1.76,8.21,1.14.46,2.3.89,3.47,1.28.99.32,2.02.48,3.02.78.74.23,1.45.55,2.18.81,1.3.4,2.62.76,3.97.97.81.13,1.67.09,2.49.08.1,0,.21,0,.3.04.11.05.19.14.27.22,1.39,1.47,3.81,1.55,5.67,1.8-.96-.13-2.31-.15-3.19.3-2.27,1.18-3.13,3.41-3.8,5.88-.41,1.5-.78,3.16-.09,4.54.67,1.33,2.19,2.05,3.68,2.17s3.95-.13,5.39-.52c-.44,1.34-3.07,1.65-4.46,1.88-2.36.39-4.73.72-7.12.8-1.03.03-2.27-.04-3.23.41-1.03.48-1.77.78-2.98.76-.99.03-1.95-.26-2.87-.58-.73-.27-1.38-.7-2.05-1.11-1.88-1.04-3.68-2.22-5.46-3.41-1.07-.71-2.19-1.33-3.32-1.94-1.08-.62-2.14-1.29-3.26-1.85-2.24-1.18-4.58-2.15-6.8-3.37-1.68-.81-1.85-2.86-2.1-4.5-.22-1.9-.35-3.81-.21-5.71.03-1.78.48-3.5.83-5.23.44-2.15,1.06-4.27,1.49-6.42ZM31.88,90.35s-.06,0-.08.01c0,.01-.01.03-.02.04-.01.03-.02.06-.03.1,0,.01,0,.02-.01.03,0,0,.01-.02.02-.03.04-.05.08-.11.13-.16Z"/><path class="cls-4" d="M98.15,151.05c-.92,1.11-2.39,2.59-4.51,3.87-3.01,1.81-5.87,2.33-7.52,2.5"/><line class="cls-4" x1="88.38" y1="152.43" x2="83.24" y2="155.3"/><path class="cls-9" d="M91.16,175.38c-14.43,3.27-29.47,1.65-44.17,0-3.58-.4-7.3-.85-10.32-2.79,0,1.86.57,3.6-.14,5.32-.83,1.99-1.9,3.93-2.82,5.88-.44.92-.86,2.06-.29,2.91.35.52.98.76,1.56.97,1.91.69,3.82,1.38,5.73,2.07.93.34,1.98.67,2.87.24,1.3-.63,1.42-2.37,1.9-3.73.35-1,.98-1.89,1.59-2.76.13-.18.27-.37.47-.48.28-.15.62-.09.93-.03,4.67.85,9.74.31,14.23,1.62,4.91,1.43,11.02,1.18,16.09.87,2.67-.16,5.33-.49,7.93-1.12,2.48-.6,4.89-1.45,7.37-2.08,3.25-.82,6.59-1.22,9.85-1.98.92-.22,1.84-.46,2.74-.73.78-.23,1.77-.41,2.47-.83,1.37-.82,1.02-2.98.81-4.26-.18-1.11-.36-2.22-.54-3.33-.09-.56-.05-.87-.68-.64-.36.13-.65.4-.99.57-.65.32-1.33.56-2.02.74-1.1.3-1.99.98-3.12,1.28-1.93.51-3.97.91-5.97.99-1.79.07-3.7.91-5.46,1.31Z"/><path class="cls-11" d="M25.96,177.03s0,0,0,0h0Z"/><path class="cls-11" d="M25.97,177.04s-.01-.01-.02-.01c0,0,0,0,.02.01Z"/><path class="cls-11" d="M29.15,178s.02.01.02.01c.09.08.22.08.32,0,.74-.57,1.57-1.02,2.43-1.36.46-.18.92-.33,1.4-.45.24-.06.47-.11.71-.15.17-.03.47-.14.63-.02.07.05.11.15.1.24-.02.1-.1.17-.18.23-.91.63-1.68,1.5-2.29,2.42-.07.1-.05.24.04.32l.08.08s0,0,0,0c0,0,0,0,.02.02,0,0,0,0,0,0,0,0,0,0,.01.01,0,0,0,0,0,0,0,0,.01.01.02.02,0,0,0,0-.01-.01.01.01.02.02.03.03,0,0,0,0,0,0,0,0,0,0,.01.01,0,0,0,0,0,0,0,0,.02.01.02.02,0,0,0,0,0,0,.02.02.05.05.09.08.09.08.22.09.32.02.88-.59,1.83-1.07,2.84-1.39.52-.16,1.05-.28,1.58-.35.29-.04.58-.06.87-.08.34-.02.76-.08,1.01.21.12.14.12.32.27.44.12.1.29.12.43.18.23.09.45.18.68.27.46.17.91.33,1.37.51l3.94,1.51c.69.26,1.37.53,2.06.79.13.05.28-.01.33-.14l1.77-4.56c.05-.13-.01-.28-.15-.33l-8.61-3.31h0c-4.74-1.64-10.05.13-12.37,4.26-.06.11.13.4.22.47h.02s0,.02.01.02c0,0,0,0,0,0ZM29.16,178.01s0,0,0,0h0Z"/><path class="cls-11" d="M25.99,177.06s0,0,0,0c0,0,0,0,0,0Z"/><path class="cls-11" d="M29.28,178.4s0,0,0,0c0,0,0,0,0,0Z"/><path class="cls-11" d="M29.26,178.38s0,0,0,0c0,0,0,0,0,0Z"/><path class="cls-11" d="M29.33,178.44s0,0,0,0h0Z"/><path class="cls-11" d="M29.31,178.43s0,0,0,0c0,0,0,0,0,0Z"/><path class="cls-16" d="M25.75,212.83l4.09,1.48c.3.11.63-.03.76-.32,2.56-5.79,4.3-10.65,5.44-14.14,1.32-4.03,2.07-6.89,3.91-11.85,1.31-3.54,2.56-6.45,3.49-8.53.14-.31-.01-.68-.33-.81l-3.54-1.36c-.33-.13-.7.06-.8.4-.59,2.12-1.5,5.04-2.82,8.42-2.01,5.12-3.6,7.75-5.4,11.62-1.56,3.34-3.52,8.15-5.18,14.37-.08.3.08.61.38.72Z"/><path class="cls-12" d="M47.02,174.43c.07.03.13.06.2.09l3.53,1.35-2.83,7.3-3.56-1.37c-.06-.02-.12-.03-.18-.06-1.31-.51-1.75-2.55-.96-4.58s2.48-3.25,3.8-2.75Z"/><ellipse class="cls-11" cx="49.1" cy="179.41" rx="3.93" ry="2.47" transform="translate(-135.91 160.16) rotate(-68.75)"/><path class="cls-3" d="M43.73,182.27c-.25.77-.4,1.54-1.21,1.62-.41-.89-.61-1.41-1.5-1.83-.61-.29-2.5-.84-3.17-.93-1.08-.14-1.35.29-.76,1.22"/><path class="cls-14" d="M95.47,192.4c.4.03.81.02,1.21,0,2.02-.07,4.04-.29,6.03-.65,2-.36,4.22-1.06,5.11-2.87.55-1.11.47-2.41.38-3.64-.12-1.64-.05-3.41-.57-4.97-.34-1.01-.52-2.02-.71-3.07-.17-.96-1.1-1.6-2.06-1.43-.46.08-1.23.37-1.62,0-.2-.2-.3-.47-.42-.73-.27-.59-.67-1.11-1.17-1.53-.19-.16-.4-.3-.64-.35-.19-.04-.39,0-.59.02-1.16.17-2.33.35-3.49.52-2.06.31-4.15.62-6.05,1.48.4.68,1.09,2.21.67,2.96-.18.32-.79.46-1.01.89-.19.38-.17.71-.17,1.11,0,2.56.75,5.28,1.17,7.82.22,1.36.52,2.85,1.61,3.7.65.51,1.47.69,2.31.74Z"/><path class="cls-9" d="M104.23,177.74c.3-.09.74-.09.78.21.01.1-.03.2-.08.28-.42.76-1.18,1.26-1.91,1.73-1.32.85-2.69,1.73-4.25,1.95-2.05.3-4.56-.52-6.32-1.53.59-.43,1.96-.25,2.71-.35,1.05-.13,2.09-.34,3.12-.58,2.01-.48,3.98-1.11,5.95-1.72Z"/></g></svg>