<?xml version="1.0" encoding="UTF-8"?><svg id="Layer_1" xmlns="http://www.w3.org/2000/svg" width="270" height="185" xmlns:xlink="http://www.w3.org/1999/xlink" viewBox="0 0 270 185"><defs><style>.cls-1,.cls-2,.cls-3,.cls-4,.cls-5{fill:none;}.cls-6{fill:#012a30;}.cls-2{stroke:#705c40;}.cls-2,.cls-3,.cls-4,.cls-5{stroke-linecap:round;stroke-linejoin:round;stroke-width:1.4px;}.cls-7{fill:#ecdbc2;}.cls-3{stroke:#bfa687;}.cls-8{fill:#465973;}.cls-4{stroke:#937a57;}.cls-9{fill:#f3f6fb;}.cls-5{stroke:#536d81;}.cls-10{fill:#263745;}.cls-11{fill:#bfa687;}.cls-12{fill:#937a57;}.cls-13{fill:#76c69d;}.cls-14{clip-path:url(#clippath);}.cls-15{fill:#705c40;}</style><clipPath id="clippath"><rect class="cls-1" width="270" height="185"/></clipPath></defs><g class="cls-14"><polygon class="cls-9" points="183.33 24.64 5.61 25.89 6.35 158.2 185.8 155.18 183.33 24.64"/><rect class="cls-13" x="89.36" y="101.64" width="56.21" height="13.07" transform="translate(234.93 216.36) rotate(-180)"/><rect class="cls-13" x="65.05" y="84.9" width="56.21" height="13.07" transform="translate(186.32 182.87) rotate(-180)"/><rect class="cls-13" x="30.07" y="68.16" width="56.21" height="13.07" transform="translate(116.36 149.38) rotate(-180)"/><line class="cls-5" x1="134.26" y1="41.94" x2="136.17" y2="143.37"/><line class="cls-5" x1="103.97" y1="41.94" x2="105.88" y2="143.37"/><line class="cls-5" x1="73.68" y1="41.94" x2="75.59" y2="143.37"/><line class="cls-5" x1="43.39" y1="41.94" x2="45.3" y2="143.37"/><path class="cls-12" d="M171.69,121.32c0,.41,0,.81.03,1.22.08,1.32.36,2.66.96,3.85.74,1.43,1.51,1.81,2.94,2.28,2.31.76,4.59,1.57,6.91,2.29,4.63,1.44,9.31,2.72,13.97,4.07,4.35.91,8.67,2.82,13.17,2.45,9.06-.34,6.59-11.79.26-16.18-3.81-2.64-7.36-2.79-11.42-4.61-2.79-1.45-6.82-2.24-9.93-2.96-2.37-.55-4.83-.62-7.19-1.25-2.21-.59-4.98-1.08-6.92.61-.61.53-1.04,1.25-1.38,1.98-.92,1.94-1.38,4.09-1.41,6.23Z"/><path class="cls-10" d="M198.48,158.47c5.91.14,11.81.24,17.72.29,11.98.11,24.18,0,35.6-3.62.97,1.37.7,3.22.4,4.87-.6,3.27-1.02,6.66-2.28,9.76-.6,1.47-1.32,2.87-2.04,4.28-.66,1.28-1.62,2.69-1.98,4.08-1.26,4.86-2.43,9.73-2.82,14.75-1.63,7.35-2.09,14.8-1.84,22.32-.41,10.46,4.9,47.06,5.46,57.47.18,2.93.53,4.14-2.28,5.95-1.31.63-2.8.91-4.22,1.17-3.46.62-7.04.86-10.55.62-1.53-.1-3.09-.29-4.55-.79-.56-.19-1.12-.42-1.61-.76-.86-.6-.85-1.73-1.2-2.68-.12-.35-.28-.71-.58-.92-.29-.21-.67-.23-1.02-.27-1.55-.15-3.12-.56-4.36-1.49-1.73-1.3-2.2-3.59-2.55-5.62-.29-1.69-.58-3.39-.86-5.09-1.33-7.96-2.59-15.92-3.87-23.88-.98-6.1-1.91-12.21-2.98-18.29-1.51-5.5-2.58-11.11-3.97-16.64-.97-2.85-1.73-5.77-2.18-8.75-.56-4.87-.48-9.78-.61-14.67-.13-4.9-1.22-9.81-1.42-14.71-.1-2.46.02-4.92.6-7.37ZM251.15,161.06c-.1,0-.19-.01-.29-.01.04.04.08.09.11.15.06-.04.11-.08.18-.13Z"/><path class="cls-15" d="M238.24,64.68c-1.14-.81-2.37-1.5-3.66-2.04-.48-.2-1.06-.16-1.49-.34-.51-.22-.73-.81-.98-1.26-.97-1.76-3.19-2.52-5.19-2.34-2,.18-3.84,1.13-5.61,2.07-1.57.84-3.16,1.7-4.47,2.91-.99.91-1.8,2.02-2.85,2.84-.86.67-1.93,1.23-2.29,2.25-.28.81-.08,1.77-.68,2.45-.49.55-1.19,1.04-1.71,1.63-1.31,1.5-2.6,2.73-3.58,4.47-1.14,2.02-2.13,4.13-3.3,6.14-3.86,6.93-3.67,15.08-5.32,22.66-1.58,6-1.16,12.16-1.29,18.29-.46,4.41-.37,8.85-.91,13.25-1.08,6.42-.2,12.96.26,19.4.12,8.44,3.33,5.9,9.61,4.9,5.77-1.31,11.75-1.33,17.64-1.3,8.51.06,17.06.61,25.57.12,2.19-.23,6.33-.14,6.79-2.91.46-4.28-.28-8.59-.19-12.88-.45-11.42,1.31-22.73,1.75-34.12-.13-6.52-.82-13.1-2.18-19.48-.65-2.93-.44-5.98-1.31-8.9-.8-2.67.62-5.54-.24-8.32-.88-2.85-3.41-3.99-5.78-5.37-1.4-.82-2.87-1.52-4.35-2.2-1.34-.61-3.04-1.08-4.24-1.93Z"/><path class="cls-7" d="M210.99,162.52c1.35-.79,2.28-2.67,3.33-3.81,1.39-1.51,3.51-2.29,5.32-3.16,5.5-3.57,19.23-5.36,15.35-14.73-2.25-4.78-8.68-3.47-12.01-.61-.51.41-1.24.18-1.75.58-2.83,0-5.76.3-8.53.91-3.57,1.23-7.04,3.26-9.47,6.19-1.2,1.45-2.12,3.14-2.58,4.97-.11.43-.18.88-.19,1.33-.01.41.02.82.1,1.22.21.98,1.64,1.16,1.65,2.16,0,.19-.06.37-.11.55-.2.73-.23,1.59.24,2.19s1.57.68,1.93.01c-.5,1.02,0,2.4,1.03,2.87s2.4-.07,2.83-1.11c-.16.38,1.01.82,1.23.84.51.06,1.18-.15,1.62-.41Z"/><path class="cls-7" d="M201.08,30.52c-1.94,3.13-1.79,6.92-1.1,10.4.75,1.89.88,3.31.43,5.27-.15,4,2.19,7.5,3.4,11.17.85,3.74,3.55,4.99,7.17,4.71.82,2.21,2.87,11.55,5.56,11.19,4.61-1.96,8.83-7.39,11.25-11.68.72-1.51-.03-3.24-.22-4.78-.57-3.04-1.43-6.03-1.38-9.15,5.03.66,5.68-6.93,1.73-8.77,2.66-9.44-9.39-15.02-17.27-13.82-4.03.74-7.84,1.33-9.55,5.45Z"/><path class="cls-11" d="M199.56,29.18c-.97,1.82-1.26,4.05-.84,6.06.32.72-.1,4.55,1.1,3.44,1.39-2.85,2.8-6.86,5.77-8.54,9.93,3.35,13.52-3.09,17.18,10.97,0,0,0,0,0,0-.11.51.46,1.06.92.7.77-1.02.7-2.88,2.22-3.25.62-.15,1.39-.11,1.82.41.11.16.31.25.5.22,1.77-2.25.89-7.41,1.07-10.3-1.54-5.47-8.63-5.75-13.34-6.26-3.98-.02-12.81-.8-13.56,4.45-1.19.27-2.28,1.02-2.85,2.12Z"/><path class="cls-12" d="M210.96,62.25c-.52.04-1.49-.38-2.02-.37.97.31,1.94,1.38,2.56,2.13.88,1.07.6.29,1.84.45,2.32-.81,4.55-.93,5.72-3.49.24-.53.33-1.29-.17-1.59-.28-.17-.66-.12-.95.04s-.52.41-.76.63c-1.02.94-2.33,1.51-3.68,1.83-.84.2-1.69.3-2.55.36Z"/><path class="cls-12" d="M217.21,138.43c-.23.11-.45.23-.66.37-.54.33-1.02.78-1.4,1.28-.16.21-.64,1.36-.81,1.41,1.43-.49,2.72-.39,3.88.63,2.31,2.02,4.22,4.5,5.59,7.24.66,1.31.91,2.16.2,3.51-.18.34-.37.69-.66.94s-.69.42-1.07.31c.61.47,1.14,1.02,1.77,1.46.58.41,1.5.85,2.21.97.83.14,1.59-.37,2.32-.69,1.58-.7,3.08-1.56,4.54-2.49,2.88-1.84,5.53-4.07,8.49-5.79,8.59-4.99,17.16-10.92,22.59-19.4,2.33-4.18,1.99-4.69,1.4-9.27-.19-8.67-3.65-16.66-5.76-24.96-1.06-4.15-2.57-8.26-3.76-12.38-1-3.46-1.98-7.45-5.02-9.74-.28-.21-.58-.41-.93-.46-1.29-.2-2.83,1.21-3.73,1.95-5.07,4.68-6.02,12.02-6.79,18.52-.95,5.73.12,11.04.67,16.8,1.15,5.35,1.85,9.97,1.41,15.5-4.81,3.1-10.21,6.96-15.37,9.41-2.01,1.3-4.09,2.5-6.22,3.58-.94.47-1.95.81-2.89,1.29Z"/><path class="cls-15" d="M223.01,147.94c.29.54.52,1.12.69,1.71.38,1.32.95,4.33-1.17,4.44.06.36.4.63.76.69s.73-.07,1.05-.25c.97-.56,1.52-1.69,1.61-2.8.38-4.63-3.41-8.62-7.22-10.71-.75-.41-1.68-.73-2.53-.47-.27.08-1.08.42-1.05.78s1,.54,1.26.63c1.43.47,2.56,1.68,3.72,2.59,1.17.93,2.18,2.08,2.88,3.41Z"/><path class="cls-15" d="M204.97,40.86c-.67-.16-1.59-.25-1.76-.25-.87-.02-1.6.26-2.36.65-.67-2.15,2.97-2.57,4.2-1.93.73.38.67,1.19.64,1.89,0-.14-.31-.26-.72-.36Z"/><path id="Vector_15" class="cls-6" d="M213.65,44.59c.6-.12.96-.93.8-1.78s-.79-1.45-1.4-1.33-.97.92-.81,1.78.79,1.45,1.4,1.33Z"/><path id="Vector_15-2" class="cls-6" d="M204.54,45.28c.6-.12.96-.93.8-1.78s-.79-1.45-1.4-1.33-.97.92-.81,1.78.79,1.45,1.4,1.33Z"/><path class="cls-4" d="M208.53,43.1c-.64,2.5-1.59,4.22-2.36,5.35-.63.92-1.3,1.67-1.08,2.45.26.93,2.08.52,3.23.73"/><path class="cls-15" d="M213.98,37.91c1.35.23,2.57.9,3.08,2.36-.84-.68-1.96-1.08-3.11-1.09-.91-.01-1.84.21-2.65.62-.24.12-.42.28-.66.29.06-.6-.31-1.15.17-1.68.34-.38.88-.53,1.39-.57.59-.04,1.2-.02,1.79.08Z"/><path class="cls-4" d="M226.96,41.09c.63.47.96,1.24.86,2-.14,1.03-.99,1.53-1.09,1.59"/><path class="cls-4" d="M214.11,54.37c-.25.43-1.01,1.63-2.54,2.25-2.4.98-4.6-.34-4.84-.49"/><path class="cls-3" d="M208.66,148.38c-1.07.68-2.8,1.98-4.3,4.16-1.47,2.14-2.06,4.19-2.32,5.42"/><path class="cls-3" d="M210.84,151.06c-1.09.81-2.52,2.04-3.87,3.8-1.42,1.85-2.21,4.16-2.7,5.47"/><path class="cls-3" d="M213.31,153.32c-1.14,1.35-2.33,2.9-3.52,4.65-1.16,1.7-1.36,2.92-2.18,4.44"/><path class="cls-5" d="M205.93,167.16c-.38,1.07-.18,2.26.03,3.38.51,2.71,1.01,5.43,1.73,8.1.64,2.38,1.95,4.75,2.03,7.23.21,6.95.14,13.9-.23,20.84-.28,5.33,1.57,10.62,2.71,15.85,1.18,5.42,2.38,10.84,3.47,16.29.9,4.46,6.26,35.03,6.51,39.58"/><path class="cls-15" d="M183.23,123.99c-.31.78-.85,1.46-1.47,2.03-.76.71-1.68,1.28-2.69,1.5s-2.14.06-2.97-.57c-1.4-1.06-2.35-1.93-2.83-3.7-.46-1.68-.34-3.52.39-5.1.37-.81.89-1.54,1.46-2.23.75-.9,1.61-1.75,2.69-2.21,1.87-.8,4.65-.29,5.42,1.77.11.3.13.63.15.95.07,1.21-.08,2.39.1,3.58.19,1.27.22,2.71-.24,3.93,0,.02-.01.03-.02.05Z"/><path class="cls-7" d="M161.83,102.46c.57-.22,1.26-.21,1.76.16.31.23.52.57.66.92.15.36.24.77.1,1.13-.29.71.13.61.53,1.05.1.1.2.23.34.24.16.02.3-.11.43-.21.4-.32.93-.43,1.44-.48,1.06-.1,2.12.04,3.15.3.29.07.59.16.83.33.25.18.43.44.61.7.53.77,1.19,1.49,1.52,2.37.31.84.56,1.88,1.12,2.57s1.51,1.13,2.26,1.49c1.27.62,2.8.94,3.99,1.69,1.04.66,1.11,2.2,1.23,3.36.1.97.19,1.95.14,2.92-.1,1.78-1.33,2.46-2.93,2.8-1.66.35-3.46.68-4.99-.05-1.41-.67-2.26-1.72-3.88-1.81-1.47-.09-3.03.02-4.46-.43-1.19-.37-2.46-.53-3.63-1-.34-.14-.68-.3-.96-.54-.24-.2-.42-.46-.6-.71-.27-.37-.52-.75-.77-1.13-.63-.96-.34-2.02-.97-2.99-.34-.52-.52-.93-.51-1.57,0-.12.23-1.47.31-1.44-1.39-.56-1.34-2.5-.93-3.71.49-1.96,2.24-5.19,4.21-5.95Z"/><path class="cls-8" d="M158.49,106.58c.21-.83.83-1.78,1.46-2.35.05-.04.18-.32.16-.38-.01-.04-3.16-3.65-3.91-4.58-.79-.98-1.81-1.99-2.6-2.97,0,0-3.22-1.28-3.22-1.28l.37,2.84c1.01,1.1,7.05,7.97,7.74,8.73Z"/><path class="cls-3" d="M164.92,108.71c.45-.26.85-.32.72-1.29-.07-.51-.25-1.02-.64-1.35-.36-.3-.84-.48-1.3-.39-1.32.24-3.06,2.32-3.78,3.32-.63.88-1.46,2-1.59,2.99-.07.54-.15.68,0,1.21s.4,1.01.67,1.49"/><path class="cls-3" d="M159.15,115.83c.39-.98,1.23-2.7,3.02-4.04.29-.22.58-.39.81-.66s.42-.51.73-.69c.58-.35,1.3-.47,1.95-.26.14.04.27.1.38.19.14.12.22.29.29.45.32.7.66,1.48.4,2.21l-.79.76c-.06,0-2.71,2.04-2.71,2.04-.46,1.09.97.4,2.21,1.1"/><path class="cls-3" d="M170.1,114.31c-.31-.23-.96-.76-1.34-1.69-.17-.42-.36-.88-.29-1.46.07-.56.33-2.38.16-2.54-.1-.1-1.36-.13-1.53-.1-1.03.19-.27.72-1.21.25-.06-.03-.91.78-.92.72-.01-.05.06-.09.1-.11"/><path class="cls-3" d="M174.81,112.21c-.32-1.2-2.22-4.41-2.89-5.45-.23-.36-.48-.74-.86-.96-.35-.2-.77-.22-1.18-.25-1.01-.06-2.02-.11-3.03-.17-.45-.02-1,0-1.23.38"/><path class="cls-3" d="M163.62,105.45c.45-.26.72-.77.72-1.29s-.25-1.02-.64-1.35c-.36-.3-.84-.48-1.3-.39-1.32.24-3.06,2.32-3.78,3.32-.63.88-1.46,2-1.59,2.99-.07.51-.08.49.02.99s.37.98.79,1.27"/><path class="cls-3" d="M173.09,122.07l-10.31-1.53c-.31,0,.05.02-.24-.08-.97-.33-1.89-.87-2.55-1.65s-1.05-1.82-.93-2.84"/><path class="cls-3" d="M177.03,116.41c-.41-.17-1.31-.62-2.04-.7-.88-.1-2.06-.05-2.54.06"/><path class="cls-5" d="M223.25,166.74c2.17,3.9,5.61,7.07,9.68,8.91"/><path class="cls-4" d="M229.8,93.76l-6.19,1.46"/><path class="cls-4" d="M228.74,68.22c-1.26,1.73-2.9,3.71-5,5.71-2.43,2.32-4.82,4.03-6.83,5.28"/><path class="cls-2" d="M244.15,125.62c1.09-.02,2.39.02,3.82.22,1.37.19,2.58.48,3.6.79"/></g></svg>