<svg width="314" height="115" viewBox="0 0 314 115" fill="none" xmlns="http://www.w3.org/2000/svg">
<g clip-path="url(#clip0_7013_221938)">
<path d="M0 8C0 3.58172 3.58172 0 8 0H306C310.418 0 314 3.58172 314 8V115H0V8Z" fill="#FFCDD2"/>
<g opacity="0.76">
<path d="M199.837 46.8223H182.68C173.661 46.8223 166.35 54.1336 166.35 63.1526V98.6694C166.35 107.688 173.661 115 182.68 115H199.837C208.856 115 216.168 107.688 216.168 98.6694V63.1526C216.168 54.1336 208.856 46.8223 199.837 46.8223Z" fill="#C7C9E3"/>
</g>
<path d="M193.706 42.0533C197.93 42.0668 201.976 43.7504 204.962 46.7366C207.948 49.7229 209.632 53.7693 209.645 57.9925V93.5093C209.632 97.7325 207.948 101.779 204.962 104.765C201.976 107.751 197.93 109.435 193.706 109.448H176.549C172.326 109.435 168.28 107.751 165.293 104.765C162.307 101.779 160.623 97.7325 160.61 93.5093V57.9925C160.623 53.7693 162.307 49.7229 165.293 46.7366C168.28 43.7504 172.326 42.0668 176.549 42.0533H193.706ZM193.706 41.6621H176.549C167.568 41.6621 160.219 49.0109 160.219 57.9925V93.5093C160.219 102.491 167.568 109.84 176.549 109.84H193.706C202.688 109.84 210.037 102.491 210.037 93.5093V57.9925C210.037 49.0109 202.688 41.6621 193.706 41.6621Z" fill="black"/>
<path d="M185.128 41.6621H176.549C167.568 41.6621 160.219 49.0109 160.219 57.9925V61.4563H185.128V41.6621Z" fill="#F7D999"/>
<path d="M160.271 61.4707H209.982" stroke="black" stroke-width="0.39124" stroke-miterlimit="10"/>
<path d="M185.075 60.948V10.6592H137.201V-9.0332" stroke="#C7C9E3" stroke-width="0.652067" stroke-linecap="round" stroke-linejoin="round"/>
<path d="M184.137 86.2077C185.173 86.2077 186.012 85.3681 186.012 84.3324C186.012 83.2967 185.173 82.457 184.137 82.457C183.101 82.457 182.262 83.2967 182.262 84.3324C182.262 85.3681 183.101 86.2077 184.137 86.2077Z" fill="#999CBF"/>
<path d="M189.418 86.2077C190.454 86.2077 191.294 85.3681 191.294 84.3324C191.294 83.2967 190.454 82.457 189.418 82.457C188.383 82.457 187.543 83.2967 187.543 84.3324C187.543 85.3681 188.383 86.2077 189.418 86.2077Z" fill="#999CBF"/>
<path d="M194.705 86.2077C195.741 86.2077 196.581 85.3681 196.581 84.3324C196.581 83.2967 195.741 82.457 194.705 82.457C193.67 82.457 192.83 83.2967 192.83 84.3324C192.83 85.3681 193.67 86.2077 194.705 86.2077Z" fill="#999CBF"/>
<path d="M199.989 86.2077C201.024 86.2077 201.864 85.3681 201.864 84.3324C201.864 83.2967 201.024 82.457 199.989 82.457C198.953 82.457 198.113 83.2967 198.113 84.3324C198.113 85.3681 198.953 86.2077 199.989 86.2077Z" fill="#999CBF"/>
<path d="M205.274 86.2077C206.31 86.2077 207.149 85.3681 207.149 84.3324C207.149 83.2967 206.31 82.457 205.274 82.457C204.238 82.457 203.398 83.2967 203.398 84.3324C203.398 85.3681 204.238 86.2077 205.274 86.2077Z" fill="#999CBF"/>
<path d="M210.555 86.2077C211.591 86.2077 212.43 85.3681 212.43 84.3324C212.43 83.2967 211.591 82.457 210.555 82.457C209.519 82.457 208.68 83.2967 208.68 84.3324C208.68 85.3681 209.519 86.2077 210.555 86.2077Z" fill="#999CBF"/>
<path d="M184.137 97.1159C185.173 97.1159 186.012 96.2763 186.012 95.2406C186.012 94.2049 185.173 93.3652 184.137 93.3652C183.101 93.3652 182.262 94.2049 182.262 95.2406C182.262 96.2763 183.101 97.1159 184.137 97.1159Z" fill="#999CBF"/>
<path d="M189.418 97.1159C190.454 97.1159 191.294 96.2763 191.294 95.2406C191.294 94.2049 190.454 93.3652 189.418 93.3652C188.383 93.3652 187.543 94.2049 187.543 95.2406C187.543 96.2763 188.383 97.1159 189.418 97.1159Z" fill="#999CBF"/>
<path d="M194.705 97.1159C195.741 97.1159 196.581 96.2763 196.581 95.2406C196.581 94.2049 195.741 93.3652 194.705 93.3652C193.67 93.3652 192.83 94.2049 192.83 95.2406C192.83 96.2763 193.67 97.1159 194.705 97.1159Z" fill="#999CBF"/>
<path d="M199.989 97.1159C201.024 97.1159 201.864 96.2763 201.864 95.2406C201.864 94.2049 201.024 93.3652 199.989 93.3652C198.953 93.3652 198.113 94.2049 198.113 95.2406C198.113 96.2763 198.953 97.1159 199.989 97.1159Z" fill="#999CBF"/>
<path d="M205.274 97.1159C206.31 97.1159 207.149 96.2763 207.149 95.2406C207.149 94.2049 206.31 93.3652 205.274 93.3652C204.238 93.3652 203.398 94.2049 203.398 95.2406C203.398 96.2763 204.238 97.1159 205.274 97.1159Z" fill="#999CBF"/>
<path d="M210.555 97.1159C211.591 97.1159 212.43 96.2763 212.43 95.2406C212.43 94.2049 211.591 93.3652 210.555 93.3652C209.519 93.3652 208.68 94.2049 208.68 95.2406C208.68 96.2763 209.519 97.1159 210.555 97.1159Z" fill="#999CBF"/>
<path d="M186.864 91.6608C187.899 91.6608 188.739 90.8212 188.739 89.7855C188.739 88.7498 187.899 87.9102 186.864 87.9102C185.828 87.9102 184.988 88.7498 184.988 89.7855C184.988 90.8212 185.828 91.6608 186.864 91.6608Z" fill="#999CBF"/>
<path d="M192.145 91.6608C193.181 91.6608 194.02 90.8212 194.02 89.7855C194.02 88.7498 193.181 87.9102 192.145 87.9102C191.109 87.9102 190.27 88.7498 190.27 89.7855C190.27 90.8212 191.109 91.6608 192.145 91.6608Z" fill="#999CBF"/>
<path d="M197.432 91.6608C198.468 91.6608 199.307 90.8212 199.307 89.7855C199.307 88.7498 198.468 87.9102 197.432 87.9102C196.396 87.9102 195.557 88.7498 195.557 89.7855C195.557 90.8212 196.396 91.6608 197.432 91.6608Z" fill="#999CBF"/>
<path d="M202.713 91.6608C203.749 91.6608 204.589 90.8212 204.589 89.7855C204.589 88.7498 203.749 87.9102 202.713 87.9102C201.678 87.9102 200.838 88.7498 200.838 89.7855C200.838 90.8212 201.678 91.6608 202.713 91.6608Z" fill="#999CBF"/>
<path d="M207.998 91.6608C209.034 91.6608 209.874 90.8212 209.874 89.7855C209.874 88.7498 209.034 87.9102 207.998 87.9102C206.963 87.9102 206.123 88.7498 206.123 89.7855C206.123 90.8212 206.963 91.6608 207.998 91.6608Z" fill="#999CBF"/>
<path d="M213.282 91.6608C214.317 91.6608 215.157 90.8212 215.157 89.7855C215.157 88.7498 214.317 87.9102 213.282 87.9102C212.246 87.9102 211.406 88.7498 211.406 89.7855C211.406 90.8212 212.246 91.6608 213.282 91.6608Z" fill="#999CBF"/>
<path d="M186.864 102.571C187.899 102.571 188.739 101.731 188.739 100.696C188.739 99.6599 187.899 98.8203 186.864 98.8203C185.828 98.8203 184.988 99.6599 184.988 100.696C184.988 101.731 185.828 102.571 186.864 102.571Z" fill="#999CBF"/>
<path d="M192.145 102.571C193.181 102.571 194.02 101.731 194.02 100.696C194.02 99.6599 193.181 98.8203 192.145 98.8203C191.109 98.8203 190.27 99.6599 190.27 100.696C190.27 101.731 191.109 102.571 192.145 102.571Z" fill="#999CBF"/>
<path d="M197.432 102.571C198.468 102.571 199.307 101.731 199.307 100.696C199.307 99.6599 198.468 98.8203 197.432 98.8203C196.396 98.8203 195.557 99.6599 195.557 100.696C195.557 101.731 196.396 102.571 197.432 102.571Z" fill="#999CBF"/>
<path d="M202.713 102.571C203.749 102.571 204.589 101.731 204.589 100.696C204.589 99.6599 203.749 98.8203 202.713 98.8203C201.678 98.8203 200.838 99.6599 200.838 100.696C200.838 101.731 201.678 102.571 202.713 102.571Z" fill="#999CBF"/>
<path d="M207.998 102.571C209.034 102.571 209.874 101.731 209.874 100.696C209.874 99.6599 209.034 98.8203 207.998 98.8203C206.963 98.8203 206.123 99.6599 206.123 100.696C206.123 101.731 206.963 102.571 207.998 102.571Z" fill="#999CBF"/>
<path d="M213.282 102.571C214.317 102.571 215.157 101.731 215.157 100.696C215.157 99.6599 214.317 98.8203 213.282 98.8203C212.246 98.8203 211.406 99.6599 211.406 100.696C211.406 101.731 212.246 102.571 213.282 102.571Z" fill="#999CBF"/>
<path d="M133.999 50.2695C133.528 52.5179 130.104 80.4068 131.224 87.068C132.343 93.7292 150.596 107.687 151.395 107.931C152.327 107.247 153.698 105.006 153.698 105.006C153.698 105.006 140.314 89.4914 140.059 88.8693C139.803 88.2471 142.991 52.3185 142.991 52.3185L133.999 50.2695Z" fill="#1F161E"/>
<path d="M155.798 55.3461L142.142 111.044H137.543L142.204 52.9395L155.798 55.3461Z" fill="#EF5350"/>
<path d="M146.099 23.4551C147.984 23.4551 157.818 23.7736 159.595 27.2346C161.372 30.6956 159.697 46.6928 158.593 47.3131C157.997 47.6465 157.835 47.3224 157.661 48.0004C157.488 48.6785 155.799 55.3452 155.799 55.3452C154.726 55.375 139.082 53.0187 134.005 50.2637C134.034 49.4981 134.28 47.5068 134.28 47.3541C133.606 47.6297 132.79 47.6875 132.567 47.3541C130.585 44.3532 133.539 28.708 135.659 25.56C136.56 24.2095 143.074 23.4644 146.099 23.4551Z" fill="#FFF3E0"/>
<path d="M152.572 47.7451C153.034 47.7451 157.011 50.5392 156.67 51.912C156.95 50.8093 157.829 47.4023 157.829 47.4023C157.451 47.475 152.911 47.7507 152.572 47.7451Z" fill="#1F161E"/>
<path d="M148.533 25.2799C148.533 25.8871 143.744 25.8871 143.744 25.2799V19.1328H148.533V25.2799Z" fill="#EED0C3"/>
<path d="M145.787 20.5876C146.16 20.5876 148.535 21.6382 148.535 22.2231V19.1328C147.942 19.1328 145.787 20.5876 145.787 20.5876Z" fill="#1F161E"/>
<path d="M145.129 21.0381C147.702 21.0381 149.788 18.9524 149.788 16.3794C149.788 13.8065 147.702 11.7207 145.129 11.7207C142.556 11.7207 140.471 13.8065 140.471 16.3794C140.471 18.9524 142.556 21.0381 145.129 21.0381Z" fill="#EED0C3"/>
<path d="M143.552 9.56836C141.16 9.56836 139.67 11.0697 139.67 12.9939C139.67 14.594 140.057 15.4993 140.514 15.7284C140.802 14.1749 141.43 13.4559 141.95 13.1467C142.354 13.4559 143.045 14.2047 143.969 14.4357C144.893 14.6667 147.298 14.622 149.241 16.0339C149.876 15.4565 150.509 14.7058 150.509 13.821C150.509 12.9362 150.118 11.826 147.818 11.1852C146.298 10.7624 146.085 9.56836 143.552 9.56836Z" fill="#1F161E"/>
<path d="M140.777 17.7615C141.227 17.7615 141.593 17.5714 141.593 17.3368C141.593 17.1023 141.227 16.9121 140.777 16.9121C140.326 16.9121 139.961 17.1023 139.961 17.3368C139.961 17.5714 140.326 17.7615 140.777 17.7615Z" fill="#FA9E9F"/>
<path d="M145.908 17.7615C146.358 17.7615 146.724 17.5714 146.724 17.3368C146.724 17.1023 146.358 16.9121 145.908 16.9121C145.457 16.9121 145.092 17.1023 145.092 17.3368C145.092 17.5714 145.457 17.7615 145.908 17.7615Z" fill="#FA9E9F"/>
<path d="M142.768 16.457C142.615 16.675 141.836 17.5896 142.658 17.9584" stroke="#1F161E" stroke-width="0.186274" stroke-miterlimit="10" stroke-linecap="round"/>
<path d="M144.303 19.0266C144.549 19.0266 144.927 18.7211 145.126 18.4473" stroke="#1F161E" stroke-width="0.186274" stroke-miterlimit="10" stroke-linecap="round"/>
<path d="M149.434 17.9912C150.029 17.9912 150.511 17.5092 150.511 16.9146C150.511 16.3199 150.029 15.8379 149.434 15.8379C148.839 15.8379 148.357 16.3199 148.357 16.9146C148.357 17.5092 148.839 17.9912 149.434 17.9912Z" fill="#EED0C3"/>
<path d="M152.678 32.6211C152.594 33.6493 152.266 38.7309 152.389 39.3996C150.826 39.9435 136.517 46.7295 134.041 47.4746" stroke="#1F161E" stroke-width="0.186274" stroke-miterlimit="10" stroke-linecap="round"/>
<path d="M136.061 31.0176C135.731 32.1688 134.621 37.3937 135.402 39.8209" stroke="#1F161E" stroke-width="0.186274" stroke-miterlimit="10" stroke-linecap="round"/>
<path d="M139.715 45.0977C140.46 45.6211 147.602 48.7822 157.476 47.59" stroke="#1F161E" stroke-width="0.186274" stroke-miterlimit="10" stroke-linecap="round"/>
<path d="M139.031 39.8214C139.51 39.8978 137.949 38.6516 137.064 39.1155C136.18 39.5793 134.987 41.6786 135.231 42.1648C135.264 42.253 135.317 42.3328 135.384 42.3981C135.452 42.4635 135.534 42.5128 135.623 42.5425C135.712 42.5722 135.807 42.5814 135.901 42.5696C135.994 42.5577 136.084 42.525 136.163 42.474C136.403 42.3194 138.197 39.6873 139.031 39.8214Z" fill="#EED0C3"/>
<path d="M153.545 105.234C153.8 105.421 156.064 106.952 156.082 107.917C156.101 108.882 153.974 112.08 153.545 112.171C153.117 112.262 152.811 111.901 152.811 111.255C152.811 110.608 153.62 109.476 153.512 108.973C153.404 108.47 152.359 107.55 151.822 107.533" fill="#1F161E"/>
<path d="M141.705 111.043C141.705 111.486 141.962 114.269 141.448 114.528C140.934 114.787 135.26 114.94 135.003 114.683C134.746 114.426 134.59 113.884 134.817 113.729C135.044 113.574 137.238 113.135 137.536 112.93C137.835 112.725 138.246 111.626 138.095 111.043" fill="#1F161E"/>
<g clip-path="url(#clip1_7013_221938)">
<path d="M223.486 111.811C223.014 111.823 220.209 112.033 219.727 111.641C218.854 110.933 219.09 104.989 219.359 104.703C219.628 104.417 220.206 104.231 220.381 104.479C220.555 104.727 221.089 107.075 221.325 107.384C221.561 107.693 222.741 108.108 223.373 107.922" fill="#1F161E"/>
<path d="M279.552 97.5701C278.903 96.8032 256.692 80.3431 252.314 80.4281C247.937 80.513 235.128 107.095 235.371 107.989C235.614 108.883 242.394 107.415 243.361 106.601C244.329 105.787 251.09 98.6321 252.77 95.0144C253.431 95.9725 258.873 102.278 260.498 103.295C262.124 104.312 279.552 97.5701 279.552 97.5701Z" fill="#1F161E"/>
<path d="M222.776 111.969C223.144 112.261 287.276 113.441 292.576 111.969C297.876 110.496 299.276 110.643 299.203 107.551C299.129 104.46 288.819 96.5801 287.495 96.5801C285.466 96.5801 264.586 98.232 248.027 104.342C241.419 105.422 223.248 107.461 223.248 107.461C222.951 108.542 222.417 110.534 222.776 111.969Z" fill="#FFCC80"/>
<path d="M302.655 67.7962C306.112 69.3277 310.364 89.1199 309.786 89.7689C309.208 90.4178 304.307 92.6503 304.307 92.6503C304.212 97.4691 300.13 109.004 298.905 109.507C290.296 107.057 285.001 99.4231 285.001 97.3323C285.001 95.2414 278.445 96.8438 277.94 96.2609C277.704 96.0192 277.437 95.8112 277.145 95.6426C277.145 95.6426 280.684 92.5748 283.452 90.583C283.356 89.7311 282.615 73.7666 283.57 72.2658C285.473 69.29 298.346 65.887 302.655 67.7962Z" fill="#254B38"/>
<path d="M304.336 92.6445C303.392 93.0905 294.819 96.7861 291.066 97.5696" stroke="#1F161E" stroke-width="0.129793" stroke-miterlimit="10" stroke-linecap="round"/>
<path d="M298.963 79.8789C299.409 80.8229 302.153 86.2623 301.818 86.8216C301.483 87.3809 285.856 94.6611 284.482 95.1048" stroke="#1F161E" stroke-width="0.129793" stroke-miterlimit="10" stroke-linecap="round"/>
<path d="M286.001 78.4805C285.914 80.4958 285.971 90.3506 286.306 93.9895" stroke="#1F161E" stroke-width="0.129793" stroke-miterlimit="10" stroke-linecap="round"/>
<path d="M284.482 95.1041C284.624 95.3991 285.61 98.2474 285.714 98.8657C285.818 99.484 281.782 100.3 280.376 100.232C278.97 100.164 277.254 98.8586 277.254 97.3153C277.254 95.7719 279.366 94.6793 284.482 95.1041Z" fill="#EED0C3"/>
<path d="M290.165 69.9223C290.307 70.5948 294.017 69.8727 293.868 69.1506L292.929 64.6621L289.229 65.4338L290.165 69.9223Z" fill="#EED0C3"/>
<path d="M293.489 67.3394C293.406 66.9406 292.203 65.7536 291.547 66.1312C292.352 65.6427 292.564 64.5052 292.93 64.6539L293.489 67.3394Z" fill="black"/>
<path d="M288.751 67.0054C291.463 67.0054 293.662 64.8067 293.662 62.0945C293.662 59.3823 291.463 57.1836 288.751 57.1836C286.039 57.1836 283.84 59.3823 283.84 62.0945C283.84 64.8067 286.039 67.0054 288.751 67.0054Z" fill="#EED0C3"/>
<path d="M284.115 64.1748C284.558 64.0824 284.877 63.8203 284.829 63.5894C284.781 63.3584 284.383 63.2461 283.94 63.3385C283.498 63.4309 283.178 63.6931 283.226 63.924C283.274 64.1549 283.672 64.2672 284.115 64.1748Z" fill="#FA9E9F"/>
<path d="M289.156 63.1201C289.599 63.0277 289.918 62.7656 289.87 62.5347C289.822 62.3037 289.424 62.1914 288.981 62.2839C288.539 62.3763 288.219 62.6384 288.267 62.8693C288.315 63.1002 288.713 63.2125 289.156 63.1201Z" fill="#FA9E9F"/>
<path d="M285.801 62.4805C285.698 62.7165 285.115 63.7831 286.002 63.9766" stroke="#1F161E" stroke-width="0.162831" stroke-miterlimit="10" stroke-linecap="round"/>
<path d="M287.838 64.6879C288.074 64.6312 288.388 64.2607 288.529 63.9492" stroke="#1F161E" stroke-width="0.162831" stroke-miterlimit="10" stroke-linecap="round"/>
<path d="M292.76 58.3332C292.411 56.6648 289.825 55.9072 288.206 56.2447C285.629 56.7828 282.62 58.0665 282.139 58.3686C281.334 58.8547 281.388 59.8081 281.454 60.1196C281.726 61.4175 282.367 62.1255 283.84 62.0335C283.842 61.5519 283.922 61.0738 284.076 60.6175C284.443 60.3812 284.882 60.2818 285.315 60.3367C285.704 60.3886 289.055 61.1886 291.311 60.7167C291.701 61.0754 292.902 63.5225 292.935 64.6553C293.603 64.5538 294.372 62.1491 294.197 61.0093C294.132 60.6208 293.976 60.2532 293.742 59.936C293.509 59.6187 293.204 59.3607 292.852 59.1827C292.819 58.9373 292.786 58.4653 292.76 58.3332Z" fill="black"/>
<path d="M291.729 62.7905C292.326 62.7905 292.81 62.3066 292.81 61.7097C292.81 61.1128 292.326 60.6289 291.729 60.6289C291.132 60.6289 290.648 61.1128 290.648 61.7097C290.648 62.3066 291.132 62.7905 291.729 62.7905Z" fill="#EED0C3"/>
</g>
</g>
<defs>
<clipPath id="clip0_7013_221938">
<path d="M0 8C0 3.58172 3.58172 0 8 0H306C310.418 0 314 3.58172 314 8V115H0V8Z" fill="white"/>
</clipPath>
<clipPath id="clip1_7013_221938">
<rect width="90.7227" height="56.5259" fill="white" transform="translate(219.111 56.166)"/>
</clipPath>
</defs>
</svg>
