<svg width="440" height="160" viewBox="0 0 440 160" fill="none" xmlns="http://www.w3.org/2000/svg">
<g clip-path="url(#clip0_7013_221834)">
<rect width="440" height="160" fill="#FFCDD2"/>
<g opacity="0.76">
<path d="M239.079 61.2051H214.135C201.022 61.2051 190.393 71.8347 190.393 84.9471V136.583C190.393 149.696 201.022 160.325 214.135 160.325H239.079C252.191 160.325 262.821 149.696 262.821 136.583V84.9471C262.821 71.8347 252.191 61.2051 239.079 61.2051Z" fill="#C7C9E3"/>
</g>
<path d="M230.167 54.2719C236.307 54.2914 242.189 56.7391 246.531 61.0807C250.873 65.4223 253.32 71.3052 253.34 77.4451V129.081C253.32 135.221 250.873 141.104 246.531 145.446C242.189 149.787 236.307 152.235 230.167 152.255H205.222C199.083 152.235 193.2 149.787 188.858 145.446C184.516 141.104 182.069 135.221 182.049 129.081V77.4451C182.069 71.3052 184.516 65.4223 188.858 61.0807C193.2 56.7391 199.083 54.2914 205.222 54.2719H230.167ZM230.167 53.7031H205.222C192.165 53.7031 181.48 64.3872 181.48 77.4451V129.081C181.48 142.139 192.165 152.823 205.222 152.823H230.167C243.225 152.823 253.909 142.139 253.909 129.081V77.4451C253.909 64.3872 243.225 53.7031 230.167 53.7031Z" fill="black"/>
<path d="M217.695 53.7031H205.222C192.165 53.7031 181.48 64.3872 181.48 77.4451V82.481H217.695V53.7031Z" fill="#F7D999"/>
<path d="M181.559 82.502H253.831" stroke="black" stroke-width="0.568807" stroke-miterlimit="10"/>
<path d="M217.617 81.7426V8.62997H148.016V-20" stroke="#C7C9E3" stroke-width="0.948012" stroke-linecap="round" stroke-linejoin="round"/>
<path d="M216.254 118.467C217.76 118.467 218.98 117.246 218.98 115.74C218.98 114.234 217.76 113.014 216.254 113.014C214.748 113.014 213.527 114.234 213.527 115.74C213.527 117.246 214.748 118.467 216.254 118.467Z" fill="#999CBF"/>
<path d="M223.934 118.467C225.439 118.467 226.66 117.246 226.66 115.74C226.66 114.234 225.439 113.014 223.934 113.014C222.428 113.014 221.207 114.234 221.207 115.74C221.207 117.246 222.428 118.467 223.934 118.467Z" fill="#999CBF"/>
<path d="M231.617 118.467C233.123 118.467 234.344 117.246 234.344 115.74C234.344 114.234 233.123 113.014 231.617 113.014C230.111 113.014 228.891 114.234 228.891 115.74C228.891 117.246 230.111 118.467 231.617 118.467Z" fill="#999CBF"/>
<path d="M239.299 118.467C240.805 118.467 242.025 117.246 242.025 115.74C242.025 114.234 240.805 113.014 239.299 113.014C237.793 113.014 236.572 114.234 236.572 115.74C236.572 117.246 237.793 118.467 239.299 118.467Z" fill="#999CBF"/>
<path d="M246.98 118.467C248.486 118.467 249.707 117.246 249.707 115.74C249.707 114.234 248.486 113.014 246.98 113.014C245.475 113.014 244.254 114.234 244.254 115.74C244.254 117.246 245.475 118.467 246.98 118.467Z" fill="#999CBF"/>
<path d="M254.662 118.467C256.168 118.467 257.389 117.246 257.389 115.74C257.389 114.234 256.168 113.014 254.662 113.014C253.156 113.014 251.936 114.234 251.936 115.74C251.936 117.246 253.156 118.467 254.662 118.467Z" fill="#999CBF"/>
<path d="M216.254 134.326C217.76 134.326 218.98 133.105 218.98 131.6C218.98 130.094 217.76 128.873 216.254 128.873C214.748 128.873 213.527 130.094 213.527 131.6C213.527 133.105 214.748 134.326 216.254 134.326Z" fill="#999CBF"/>
<path d="M223.934 134.326C225.439 134.326 226.66 133.105 226.66 131.6C226.66 130.094 225.439 128.873 223.934 128.873C222.428 128.873 221.207 130.094 221.207 131.6C221.207 133.105 222.428 134.326 223.934 134.326Z" fill="#999CBF"/>
<path d="M231.617 134.326C233.123 134.326 234.344 133.105 234.344 131.6C234.344 130.094 233.123 128.873 231.617 128.873C230.111 128.873 228.891 130.094 228.891 131.6C228.891 133.105 230.111 134.326 231.617 134.326Z" fill="#999CBF"/>
<path d="M239.299 134.326C240.805 134.326 242.025 133.105 242.025 131.6C242.025 130.094 240.805 128.873 239.299 128.873C237.793 128.873 236.572 130.094 236.572 131.6C236.572 133.105 237.793 134.326 239.299 134.326Z" fill="#999CBF"/>
<path d="M246.98 134.326C248.486 134.326 249.707 133.105 249.707 131.6C249.707 130.094 248.486 128.873 246.98 128.873C245.475 128.873 244.254 130.094 244.254 131.6C244.254 133.105 245.475 134.326 246.98 134.326Z" fill="#999CBF"/>
<path d="M254.662 134.326C256.168 134.326 257.389 133.105 257.389 131.6C257.389 130.094 256.168 128.873 254.662 128.873C253.156 128.873 251.936 130.094 251.936 131.6C251.936 133.105 253.156 134.326 254.662 134.326Z" fill="#999CBF"/>
<path d="M220.219 126.396C221.724 126.396 222.945 125.176 222.945 123.67C222.945 122.164 221.724 120.943 220.219 120.943C218.713 120.943 217.492 122.164 217.492 123.67C217.492 125.176 218.713 126.396 220.219 126.396Z" fill="#999CBF"/>
<path d="M227.898 126.396C229.404 126.396 230.625 125.176 230.625 123.67C230.625 122.164 229.404 120.943 227.898 120.943C226.393 120.943 225.172 122.164 225.172 123.67C225.172 125.176 226.393 126.396 227.898 126.396Z" fill="#999CBF"/>
<path d="M235.582 126.396C237.088 126.396 238.308 125.176 238.308 123.67C238.308 122.164 237.088 120.943 235.582 120.943C234.076 120.943 232.855 122.164 232.855 123.67C232.855 125.176 234.076 126.396 235.582 126.396Z" fill="#999CBF"/>
<path d="M243.262 126.396C244.767 126.396 245.988 125.176 245.988 123.67C245.988 122.164 244.767 120.943 243.262 120.943C241.756 120.943 240.535 122.164 240.535 123.67C240.535 125.176 241.756 126.396 243.262 126.396Z" fill="#999CBF"/>
<path d="M250.945 126.396C252.451 126.396 253.672 125.176 253.672 123.67C253.672 122.164 252.451 120.943 250.945 120.943C249.439 120.943 248.219 122.164 248.219 123.67C248.219 125.176 249.439 126.396 250.945 126.396Z" fill="#999CBF"/>
<path d="M258.625 126.396C260.131 126.396 261.351 125.176 261.351 123.67C261.351 122.164 260.131 120.943 258.625 120.943C257.119 120.943 255.898 122.164 255.898 123.67C255.898 125.176 257.119 126.396 258.625 126.396Z" fill="#999CBF"/>
<path d="M220.219 142.256C221.724 142.256 222.945 141.035 222.945 139.529C222.945 138.023 221.724 136.803 220.219 136.803C218.713 136.803 217.492 138.023 217.492 139.529C217.492 141.035 218.713 142.256 220.219 142.256Z" fill="#999CBF"/>
<path d="M227.898 142.256C229.404 142.256 230.625 141.035 230.625 139.529C230.625 138.023 229.404 136.803 227.898 136.803C226.393 136.803 225.172 138.023 225.172 139.529C225.172 141.035 226.393 142.256 227.898 142.256Z" fill="#999CBF"/>
<path d="M235.582 142.256C237.088 142.256 238.308 141.035 238.308 139.529C238.308 138.023 237.088 136.803 235.582 136.803C234.076 136.803 232.855 138.023 232.855 139.529C232.855 141.035 234.076 142.256 235.582 142.256Z" fill="#999CBF"/>
<path d="M243.262 142.256C244.767 142.256 245.988 141.035 245.988 139.529C245.988 138.023 244.767 136.803 243.262 136.803C241.756 136.803 240.535 138.023 240.535 139.529C240.535 141.035 241.756 142.256 243.262 142.256Z" fill="#999CBF"/>
<path d="M250.945 142.256C252.451 142.256 253.672 141.035 253.672 139.529C253.672 138.023 252.451 136.803 250.945 136.803C249.439 136.803 248.219 138.023 248.219 139.529C248.219 141.035 249.439 142.256 250.945 142.256Z" fill="#999CBF"/>
<path d="M258.625 142.256C260.131 142.256 261.351 141.035 261.351 139.529C261.351 138.023 260.131 136.803 258.625 136.803C257.119 136.803 255.898 138.023 255.898 139.529C255.898 141.035 257.119 142.256 258.625 142.256Z" fill="#999CBF"/>
<path d="M143.36 66.2168C142.675 69.4855 137.698 110.032 139.325 119.716C140.953 129.401 167.49 149.693 168.652 150.048C170.006 149.054 171.999 145.796 171.999 145.796C171.999 145.796 152.541 123.24 152.17 122.335C151.799 121.431 156.433 69.1958 156.433 69.1958L143.36 66.2168Z" fill="#1F161E"/>
<path d="M175.052 73.5966L155.198 154.573H148.512L155.288 70.0977L175.052 73.5966Z" fill="#EF5350"/>
<path d="M160.95 27.2324C163.691 27.2324 177.987 27.6955 180.571 32.7273C183.155 37.759 180.72 61.0167 179.114 61.9185C178.247 62.4033 178.012 61.9321 177.76 62.9179C177.508 63.9036 175.052 73.5961 175.052 73.5961C173.492 73.6395 150.749 70.2136 143.366 66.2083C143.41 65.0952 143.767 62.2002 143.767 61.9781C142.787 62.3789 141.601 62.4629 141.276 61.9781C138.394 57.6153 142.689 34.8694 145.771 30.2926C147.082 28.3292 156.552 27.246 160.95 27.2324Z" fill="#FFF3E0"/>
<path d="M170.363 62.5471C171.035 62.5471 176.817 66.6094 176.321 68.6053C176.727 67.0021 178.006 62.0488 178.006 62.0488C177.456 62.1544 170.856 62.5553 170.363 62.5471Z" fill="#1F161E"/>
<path d="M164.49 29.8861C164.49 30.769 157.527 30.769 157.527 29.8861V20.9492H164.49V29.8861Z" fill="#EED0C3"/>
<path d="M160.496 23.0643C161.038 23.0643 164.491 24.5917 164.491 25.4421V20.9492C163.629 20.9492 160.496 23.0643 160.496 23.0643Z" fill="#1F161E"/>
<path d="M159.541 23.7181C163.281 23.7181 166.314 20.6857 166.314 16.945C166.314 13.2043 163.281 10.1719 159.541 10.1719C155.8 10.1719 152.768 13.2043 152.768 16.945C152.768 20.6857 155.8 23.7181 159.541 23.7181Z" fill="#EED0C3"/>
<path d="M157.249 7.04297C153.772 7.04297 151.605 9.22575 151.605 12.0233C151.605 14.3496 152.169 15.6658 152.832 15.9989C153.252 13.7403 154.165 12.6949 154.92 12.2453C155.508 12.6949 156.513 13.7836 157.856 14.1194C159.199 14.4552 162.695 14.3902 165.52 16.443C166.443 15.6035 167.364 14.5121 167.364 13.2257C167.364 11.9393 166.796 10.3253 163.451 9.39365C161.241 8.7789 160.932 7.04297 157.249 7.04297Z" fill="#1F161E"/>
<path d="M153.214 18.9556C153.869 18.9556 154.4 18.6792 154.4 18.3382C154.4 17.9972 153.869 17.7207 153.214 17.7207C152.558 17.7207 152.027 17.9972 152.027 18.3382C152.027 18.6792 152.558 18.9556 153.214 18.9556Z" fill="#FA9E9F"/>
<path d="M160.674 18.9556C161.33 18.9556 161.861 18.6792 161.861 18.3382C161.861 17.9972 161.33 17.7207 160.674 17.7207C160.019 17.7207 159.488 17.9972 159.488 18.3382C159.488 18.6792 160.019 18.9556 160.674 18.9556Z" fill="#FA9E9F"/>
<path d="M156.111 17.0566C155.889 17.3735 154.757 18.7032 155.951 19.2394" stroke="#1F161E" stroke-width="0.270816" stroke-miterlimit="10" stroke-linecap="round"/>
<path d="M158.342 20.7954C158.699 20.7954 159.249 20.3512 159.539 19.9531" stroke="#1F161E" stroke-width="0.270816" stroke-miterlimit="10" stroke-linecap="round"/>
<path d="M165.802 19.2888C166.666 19.2888 167.367 18.588 167.367 17.7235C167.367 16.859 166.666 16.1582 165.802 16.1582C164.937 16.1582 164.236 16.859 164.236 17.7235C164.236 18.588 164.937 19.2888 165.802 19.2888Z" fill="#EED0C3"/>
<path d="M170.519 40.5586C170.397 42.0535 169.92 49.4414 170.099 50.4136C167.827 51.2044 147.023 61.0702 143.424 62.1535" stroke="#1F161E" stroke-width="0.270816" stroke-miterlimit="10" stroke-linecap="round"/>
<path d="M146.359 38.2266C145.88 39.9002 144.266 47.4966 145.4 51.0253" stroke="#1F161E" stroke-width="0.270816" stroke-miterlimit="10" stroke-linecap="round"/>
<path d="M151.668 58.6973C152.751 59.4583 163.134 64.054 177.49 62.3208" stroke="#1F161E" stroke-width="0.270816" stroke-miterlimit="10" stroke-linecap="round"/>
<path d="M150.675 51.0268C151.371 51.1379 149.102 49.3261 147.815 50.0004C146.529 50.6748 144.796 53.7269 145.15 54.4337C145.198 54.562 145.274 54.6779 145.373 54.773C145.471 54.868 145.59 54.9397 145.72 54.9829C145.85 55.026 145.988 55.0394 146.123 55.0222C146.259 55.005 146.389 54.9575 146.504 54.8833C146.854 54.6585 149.462 50.8319 150.675 51.0268Z" fill="#EED0C3"/>
<path d="M171.777 146.129C172.148 146.4 175.438 148.626 175.465 150.029C175.492 151.431 172.399 156.081 171.777 156.214C171.154 156.347 170.71 155.821 170.71 154.882C170.71 153.942 171.885 152.295 171.728 151.564C171.571 150.833 170.051 149.495 169.271 149.471" fill="#1F161E"/>
<path d="M154.563 154.572C154.563 155.217 154.937 159.263 154.189 159.639C153.442 160.016 145.193 160.238 144.819 159.864C144.445 159.49 144.218 158.702 144.548 158.477C144.879 158.253 148.069 157.614 148.502 157.316C148.936 157.018 149.534 155.42 149.315 154.572" fill="#1F161E"/>
<g clip-path="url(#clip1_7013_221834)">
<path d="M273.459 155.687C272.773 155.704 268.694 156.01 267.994 155.44C266.725 154.411 267.068 145.768 267.459 145.353C267.85 144.938 268.69 144.667 268.944 145.027C269.198 145.388 269.974 148.801 270.317 149.251C270.66 149.7 272.375 150.304 273.295 150.033" fill="#1F161E"/>
<path d="M354.971 134.985C354.027 133.87 321.736 109.939 315.371 110.063C309.007 110.186 290.384 148.832 290.737 150.133C291.091 151.433 300.948 149.299 302.354 148.115C303.761 146.932 313.591 136.529 316.033 131.269C316.994 132.662 324.906 141.83 327.27 143.308C329.634 144.787 354.971 134.985 354.971 134.985Z" fill="#1F161E"/>
<path d="M272.426 155.918C272.961 156.343 366.2 158.059 373.905 155.918C381.611 153.777 383.646 153.99 383.539 149.495C383.433 145.001 368.443 133.545 366.519 133.545C363.568 133.545 333.211 135.947 309.137 144.829C299.53 146.401 273.112 149.365 273.112 149.365C272.68 150.936 271.905 153.832 272.426 155.918Z" fill="#FFCC80"/>
<path d="M388.557 91.698C393.583 93.9246 399.766 122.7 398.925 123.643C398.084 124.587 390.958 127.832 390.958 127.832C390.821 134.838 384.886 151.609 383.105 152.339C370.589 148.778 362.89 137.679 362.89 134.639C362.89 131.599 353.359 133.929 352.625 133.082C352.283 132.73 351.894 132.428 351.469 132.183C351.469 132.183 356.615 127.723 360.64 124.827C360.499 123.588 359.422 100.378 360.811 98.1961C363.576 93.8698 382.292 88.9224 388.557 91.698Z" fill="#254B38"/>
<path d="M391.003 127.826C389.631 128.475 377.166 133.847 371.711 134.986" stroke="#1F161E" stroke-width="0.1887" stroke-miterlimit="10" stroke-linecap="round"/>
<path d="M383.191 109.264C383.839 110.636 387.829 118.544 387.342 119.357C386.855 120.171 364.135 130.755 362.139 131.4" stroke="#1F161E" stroke-width="0.1887" stroke-miterlimit="10" stroke-linecap="round"/>
<path d="M364.348 107.23C364.221 110.16 364.304 124.488 364.791 129.778" stroke="#1F161E" stroke-width="0.1887" stroke-miterlimit="10" stroke-linecap="round"/>
<path d="M362.138 131.4C362.344 131.829 363.778 135.97 363.929 136.869C364.08 137.768 358.213 138.955 356.168 138.855C354.123 138.756 351.629 136.858 351.629 134.615C351.629 132.371 354.7 130.782 362.138 131.4Z" fill="#EED0C3"/>
<path d="M370.403 94.7901C370.609 95.7679 376.002 94.718 375.786 93.6682L374.421 87.1426L369.041 88.2645L370.403 94.7901Z" fill="#EED0C3"/>
<path d="M375.234 91.0311C375.114 90.4513 373.364 88.7255 372.41 89.2745C373.58 88.5643 373.889 86.9106 374.421 87.1267L375.234 91.0311Z" fill="black"/>
<path d="M368.345 90.549C372.288 90.549 375.485 87.3524 375.485 83.4093C375.485 79.4661 372.288 76.2695 368.345 76.2695C364.402 76.2695 361.205 79.4661 361.205 83.4093C361.205 87.3524 364.402 90.549 368.345 90.549Z" fill="#EED0C3"/>
<path d="M361.605 86.4315C362.248 86.2972 362.713 85.9161 362.643 85.5804C362.573 85.2446 361.995 85.0814 361.351 85.2157C360.707 85.3501 360.242 85.7311 360.312 86.0669C360.383 86.4026 360.961 86.5659 361.605 86.4315Z" fill="#FA9E9F"/>
<path d="M368.933 84.9003C369.576 84.7659 370.041 84.3848 369.971 84.0491C369.901 83.7134 369.323 83.5501 368.679 83.6845C368.035 83.8188 367.57 84.1999 367.641 84.5356C367.711 84.8714 368.289 85.0346 368.933 84.9003Z" fill="#FA9E9F"/>
<path d="M364.055 83.9688C363.904 84.3118 363.057 85.8626 364.347 86.1439" stroke="#1F161E" stroke-width="0.236733" stroke-miterlimit="10" stroke-linecap="round"/>
<path d="M367.018 87.1793C367.361 87.097 367.817 86.5583 368.023 86.1055" stroke="#1F161E" stroke-width="0.236733" stroke-miterlimit="10" stroke-linecap="round"/>
<path d="M374.173 77.9398C373.665 75.5142 369.905 74.4128 367.551 74.9035C363.805 75.6857 359.43 77.5521 358.73 77.9913C357.56 78.698 357.639 80.0841 357.735 80.537C358.13 82.424 359.063 83.4533 361.204 83.3195C361.207 82.6194 361.323 81.9243 361.547 81.2609C362.081 80.9173 362.719 80.7728 363.348 80.8527C363.914 80.9281 368.786 82.0912 372.066 81.405C372.632 81.9265 374.379 85.4844 374.427 87.1312C375.398 86.9837 376.516 83.4876 376.262 81.8305C376.167 81.2657 375.94 80.7312 375.6 80.27C375.261 79.8088 374.818 79.4337 374.307 79.1749C374.259 78.8181 374.211 78.1319 374.173 77.9398Z" fill="black"/>
<path d="M372.675 84.422C373.543 84.422 374.246 83.7185 374.246 82.8507C374.246 81.9828 373.543 81.2793 372.675 81.2793C371.807 81.2793 371.104 81.9828 371.104 82.8507C371.104 83.7185 371.807 84.422 372.675 84.422Z" fill="#EED0C3"/>
</g>
</g>
<defs>
<clipPath id="clip0_7013_221834">
<rect width="440" height="160" fill="white"/>
</clipPath>
<clipPath id="clip1_7013_221834">
<rect width="131.898" height="82.1805" fill="white" transform="translate(267.102 74.7891)"/>
</clipPath>
</defs>
</svg>
