<svg width="314" height="128" viewBox="0 0 314 128" fill="none" xmlns="http://www.w3.org/2000/svg">
<g clip-path="url(#clip0_9117_287004)">
<path d="M154.442 24.0547H41.4908C38.4583 24.0547 36 26.513 36 29.5455V70.1717C36 73.2042 38.4583 75.6625 41.4908 75.6625H154.442C157.475 75.6625 159.933 73.2042 159.933 70.1717V29.5455C159.933 26.513 157.475 24.0547 154.442 24.0547Z" fill="#F5F7F9"/>
<path d="M52.0665 49.8576C57.1708 49.8576 61.3087 45.7197 61.3087 40.6153C61.3087 35.5109 57.1708 31.373 52.0665 31.373C46.9621 31.373 42.8242 35.5109 42.8242 40.6153C42.8242 45.7197 46.9621 49.8576 52.0665 49.8576Z" fill="#EF5350"/>
<path d="M69.3086 35.9023H110.123" stroke="white" stroke-width="5.58257" stroke-miterlimit="10" stroke-linecap="round"/>
<path d="M69.3086 44.957H134.563" stroke="white" stroke-width="3.59766" stroke-miterlimit="10" stroke-linecap="round"/>
<path d="M69.3086 51.6562H119.676" stroke="white" stroke-width="3.59766" stroke-miterlimit="10" stroke-linecap="round"/>
<path d="M69.3086 60.0938H77.3723" stroke="#999CBF" stroke-width="3.59766" stroke-miterlimit="10" stroke-linecap="round"/>
<path d="M83.4531 60.0938H91.5168" stroke="#999CBF" stroke-width="3.59766" stroke-miterlimit="10" stroke-linecap="round"/>
<path d="M146.056 32.2575L151.332 37.5331L146.946 41.9192L141.67 36.6436C141.089 36.0619 140.762 35.2731 140.762 34.4505C140.762 33.628 141.089 32.8391 141.67 32.2575C142.252 31.6759 143.041 31.3491 143.863 31.3491C144.686 31.3491 145.475 31.6759 146.056 32.2575Z" fill="#999CBF"/>
<path d="M152.237 36.6423L146.961 41.9178L142.575 37.5318L147.851 32.2562C148.432 31.6745 149.221 31.3478 150.044 31.3478C150.866 31.3478 151.655 31.6745 152.237 32.2562C152.818 32.8378 153.145 33.6267 153.145 34.4492C153.145 35.2718 152.818 36.0606 152.237 36.6423Z" fill="#999CBF"/>
</g>
<path d="M213.695 74.7598H196.813" stroke="#D8D8D8" stroke-width="1.09573" stroke-linecap="round" stroke-linejoin="round"/>
<path d="M213.695 76.0977L197.153 80.7463" stroke="#D8D8D8" stroke-width="1.09573" stroke-linecap="round" stroke-linejoin="round"/>
<path d="M199.796 54.498H205.943C206.553 54.498 207.047 54.9923 207.047 55.602C207.047 56.2117 206.553 56.7059 205.943 56.7059H199.796C199.186 56.7059 198.692 56.2117 198.692 55.602C198.692 54.9923 199.186 54.498 199.796 54.498Z" fill="#D8D8D8"/>
<path d="M201.031 62.2793L172.748 62.3642" stroke="#D8D8D8" stroke-width="1.09573" stroke-linecap="round" stroke-linejoin="round"/>
<path d="M166.155 89.9136C158.524 89.9136 152.338 83.7275 152.338 76.0965C152.338 68.4654 158.524 62.2793 166.155 62.2793C173.787 62.2793 179.973 68.4654 179.973 76.0965C179.973 83.7275 173.787 89.9136 166.155 89.9136Z" stroke="#969696" stroke-width="1.09573" stroke-miterlimit="10"/>
<path d="M166.154 76.0958L175.621 56.3809" stroke="#D8D8D8" stroke-width="1.09573" stroke-linecap="round" stroke-linejoin="round"/>
<path d="M196.658 81.3418C194.625 81.3418 192.977 79.6935 192.977 77.6602C192.977 75.6268 194.625 73.9785 196.658 73.9785C198.692 73.9785 200.34 75.6268 200.34 77.6602C200.34 79.6935 198.692 81.3418 196.658 81.3418Z" fill="#D8D8D8"/>
<path d="M213.695 89.9136C206.064 89.9136 199.877 83.7275 199.877 76.0965C199.877 68.4654 206.064 62.2793 213.695 62.2793C221.326 62.2793 227.512 68.4654 227.512 76.0965C227.512 83.7275 221.326 89.9136 213.695 89.9136Z" stroke="#969696" stroke-width="1.09573" stroke-miterlimit="10"/>
<path d="M201.538 79.1699C201.637 79.5096 202.472 81.5915 202.135 81.9092C201.798 82.227 197.478 83.6405 197.204 83.5008C196.931 83.3611 196.706 82.9803 196.848 82.8077C196.991 82.6352 198.574 81.7997 198.766 81.5723C198.958 81.3449 199.015 80.4136 198.766 79.9945" fill="#1F161E"/>
<path d="M197 64.5352C197.216 64.8091 198.731 66.4691 198.528 66.8855C198.326 67.3019 194.778 70.1562 194.488 70.1152C194.197 70.0741 193.836 69.8056 193.91 69.5947C193.984 69.3838 195.167 68.0388 195.258 67.7621C195.348 67.4854 195.079 66.5896 194.696 66.2883" fill="#1F161E"/>
<path d="M166.156 33.7805C166.156 30.4933 170.454 27.5431 174.234 27.5431C178.245 27.5431 180.809 29.6633 185.167 29.6633C188.871 29.6633 193.202 25.7598 197.927 25.7598C203.995 25.7598 205.953 31.6904 205.953 33.9613C205.953 39.6783 200.691 40.7466 199.458 40.7466C198.225 40.7466 181.146 39.3578 180.557 39.3578C180.236 35.5227 174.955 35.9774 174.632 34.816C174.232 35.2871 171.449 37.4676 170.671 37.4676C167.071 37.4676 166.156 34.9694 166.156 33.7805Z" fill="black"/>
<path d="M171.937 54.1604L173.82 54.9746L173.499 55.7189L171.615 54.9047L171.937 54.1604Z" fill="#969696"/>
<path d="M177.915 45.6652C177.947 45.8706 178.169 48.9825 178.082 49.4153L177.997 49.8481C177.997 49.8481 175.531 54.116 175.337 54.431C175.142 54.746 176.276 55.2528 176.276 55.2528C176.276 55.2528 180.599 50.711 180.903 50.322C181.207 49.933 182.514 45.9994 182.492 45.5474C182.47 45.0954 177.915 45.6652 177.915 45.6652Z" fill="#EED0C3"/>
<path d="M191.096 45.3613C190.784 45.6353 182.188 54.0559 182.259 54.801C182.33 55.5461 194.011 65.8542 195.359 66.1665C196.706 66.4788 195.479 62.0575 194.975 61.6877C192.915 60.0872 190.958 58.358 189.116 56.5104C189.965 56.0776 198.898 51.3824 200.224 50.829C201.549 50.2757 191.096 45.3613 191.096 45.3613Z" fill="#1F161E"/>
<path d="M193.564 46.958C196.465 45.1556 198.47 41.4958 198.955 38.8359C201.421 40.9288 203.031 43.6517 203.031 46.9553C203.031 52.8503 200.522 61.4491 199.662 63.846C199.876 65.0403 201.837 79.3259 201.837 79.3259L198.681 80.0956C198.681 80.0956 193.649 62.9913 193.564 62.0955C192.879 58.4029 193.624 47.4456 193.564 46.958Z" fill="#8C6631"/>
<path d="M177.062 55.1897C177.062 55.1897 176.991 54.8857 177.388 54.7816C177.785 54.6775 183.091 51.1575 183.962 49.2838C183.532 48.4072 181.699 45.1474 180.702 44.2324C179.705 43.3175 184.45 38.3867 184.45 38.3867C184.694 38.8743 189.055 47.7552 188.238 50.8726C187.69 52.7463 180.234 56.1458 178.338 57.0634C176.443 57.9811 177.062 55.1897 177.062 55.1897Z" fill="#EED0C3"/>
<path d="M199.355 39.2295C199.216 39.1007 199.081 38.9718 198.922 38.8457C199.076 38.9746 199.218 39.1007 199.355 39.2295Z" fill="#FBDC8E"/>
<path d="M184.07 33.7793C189.07 33.7793 195.069 35.5242 198.953 38.8361C198.468 41.496 196.488 45.1585 193.576 46.9582C193.576 46.9582 189.834 45.6488 187.188 44.753C187.103 44.5092 187.037 44.2052 186.99 44.0819C185.791 44.7339 182.534 46.5473 182.364 46.6185C182.251 46.4076 182.068 46.1117 181.901 45.8542V45.8707C181.41 45.9364 179.813 46.3254 177.986 46.0652C177.855 45.4132 176.976 38.4964 176.976 37.8773C176.976 37.2582 177.447 33.7793 184.07 33.7793Z" fill="#FFCDD2"/>
<path d="M175.099 35.209L179.507 36.0856C180.096 36.1979 179.507 39.3728 178.88 39.2495L174.469 38.3729L175.099 35.209Z" fill="#EED0C3"/>
<path d="M186.992 44.0822C186.754 43.5042 185.623 40.2718 184.929 39.4609" stroke="#1F161E" stroke-width="0.150663" stroke-miterlimit="10" stroke-linecap="round"/>
<path d="M182.367 46.6246C182.066 46.1151 180.554 43.6113 180.554 43.6113" stroke="#1F161E" stroke-width="0.150663" stroke-miterlimit="10" stroke-linecap="round"/>
<path d="M173.21 56.1852C172.926 55.5386 173.353 54.7248 174.164 54.3676C174.975 54.0104 175.864 54.245 176.149 54.8917C176.433 55.5383 176.006 56.3521 175.195 56.7093C174.383 57.0665 173.495 56.8318 173.21 56.1852Z" fill="#EED0C3"/>
<path d="M175.029 55.4037L176.185 55.8546C176.393 55.936 176.497 56.1711 176.415 56.3797C176.334 56.5883 176.099 56.6914 175.89 56.61L174.734 56.1591C174.525 56.0777 174.422 55.8426 174.504 55.634C174.585 55.4254 174.82 55.3223 175.029 55.4037Z" fill="#969696"/>
<path d="M175.266 56.6162C175.127 55.7269 175.932 54.8621 177.065 54.6847C178.198 54.5073 179.23 55.0844 179.369 55.9737C179.508 56.863 178.703 57.7278 177.57 57.9052C176.437 58.0826 175.405 57.5055 175.266 56.6162Z" fill="#EED0C3"/>
<path d="M180.769 57.6469L177.707 56.4523C177.607 56.4132 177.495 56.4156 177.397 56.4588C177.298 56.502 177.221 56.5825 177.182 56.6827C177.143 56.7829 177.145 56.8944 177.188 56.9929C177.232 57.0914 177.312 57.1686 177.412 57.2077L180.475 58.4023L180.773 57.6367L180.769 57.6469Z" fill="#969696"/>
<path d="M173.636 35.8571C173.146 35.8571 172.748 35.4597 172.748 34.9696C172.748 34.4794 173.146 34.082 173.636 34.082C174.126 34.082 174.523 34.4794 174.523 34.9696C174.523 35.4597 174.126 35.8571 173.636 35.8571Z" fill="#EED0C3"/>
<path d="M172.864 34.541C173.743 34.7328 175.36 34.982 176.499 34.793C176.596 35.3111 176.588 35.8434 176.475 36.3582C176.361 36.873 176.145 37.3596 175.84 37.7889C175.534 38.2182 175.144 38.5814 174.695 38.8567C174.245 39.1319 173.745 39.3136 173.223 39.3909C172.702 39.4682 172.17 39.4395 171.66 39.3064C171.15 39.1734 170.672 38.9387 170.255 38.6166C169.838 38.2945 169.49 37.8914 169.232 37.4317C168.975 36.9719 168.812 36.4648 168.755 35.9408C169.848 35.7189 171.924 35.119 172.864 34.541Z" fill="#EED0C3"/>
<path d="M169.875 36.9551C169.913 37.1797 170.034 38.3823 170.93 37.9796" stroke="#1F161E" stroke-width="0.150663" stroke-miterlimit="10" stroke-linecap="round"/>
<path d="M172.505 38.0622C172.564 37.9334 172.578 37.7884 172.545 37.6506C172.511 37.5128 172.433 37.3902 172.321 37.3027" stroke="#1F161E" stroke-width="0.150663" stroke-miterlimit="10" stroke-linecap="round"/>
<path d="M213.693 78.0096C212.637 78.0096 211.781 77.1536 211.781 76.0976C211.781 75.0416 212.637 74.1855 213.693 74.1855C214.749 74.1855 215.605 75.0416 215.605 76.0976C215.605 77.1536 214.749 78.0096 213.693 78.0096Z" fill="#D8D8D8"/>
<path d="M166.154 78.0096C165.098 78.0096 164.242 77.1536 164.242 76.0976C164.242 75.0416 165.098 74.1855 166.154 74.1855C167.21 74.1855 168.066 75.0416 168.066 76.0976C168.066 77.1536 167.21 78.0096 166.154 78.0096Z" fill="#D8D8D8"/>
<path d="M196.66 77.6616L172.749 62.3652" stroke="#D8D8D8" stroke-width="1.09573" stroke-linecap="round" stroke-linejoin="round"/>
<path d="M213.695 76.0965L201.031 62.2793" stroke="#D8D8D8" stroke-width="1.09573" stroke-linecap="round" stroke-linejoin="round"/>
<path d="M201.033 62.2793L202.43 56.6582" stroke="#D8D8D8" stroke-width="1.09573" stroke-linecap="round" stroke-linejoin="round"/>
<path d="M286.898 94.0234H270.016" stroke="#D8D8D8" stroke-width="1.09573" stroke-linecap="round" stroke-linejoin="round"/>
<path d="M286.898 95.3613L270.356 100.01" stroke="#D8D8D8" stroke-width="1.09573" stroke-linecap="round" stroke-linejoin="round"/>
<path d="M272.999 73.7617H279.146C279.756 73.7617 280.25 74.256 280.25 74.8657C280.25 75.4754 279.756 75.9696 279.146 75.9696H272.999C272.389 75.9696 271.895 75.4754 271.895 74.8657C271.895 74.256 272.389 73.7617 272.999 73.7617Z" fill="#D8D8D8"/>
<path d="M274.234 81.543L245.951 81.6279" stroke="#D8D8D8" stroke-width="1.09573" stroke-linecap="round" stroke-linejoin="round"/>
<path d="M239.359 109.177C231.728 109.177 225.541 102.991 225.541 95.3601C225.541 87.7291 231.728 81.543 239.359 81.543C246.99 81.543 253.176 87.7291 253.176 95.3601C253.176 102.991 246.99 109.177 239.359 109.177Z" stroke="#969696" stroke-width="1.09573" stroke-miterlimit="10"/>
<path d="M239.357 95.3614L248.824 75.6465" stroke="#D8D8D8" stroke-width="1.09573" stroke-linecap="round" stroke-linejoin="round"/>
<path d="M269.861 100.605C267.828 100.605 266.18 98.9572 266.18 96.9238C266.18 94.8905 267.828 93.2422 269.861 93.2422C271.895 93.2422 273.543 94.8905 273.543 96.9238C273.543 98.9572 271.895 100.605 269.861 100.605Z" fill="#D8D8D8"/>
<path d="M286.902 109.177C279.271 109.177 273.084 102.991 273.084 95.3601C273.084 87.7291 279.271 81.543 286.902 81.543C294.533 81.543 300.719 87.7291 300.719 95.3601C300.719 102.991 294.533 109.177 286.902 109.177Z" stroke="#969696" stroke-width="1.09573" stroke-miterlimit="10"/>
<path d="M274.741 98.4336C274.84 98.7733 275.675 100.855 275.338 101.173C275.001 101.491 270.682 102.904 270.408 102.764C270.134 102.625 269.909 102.244 270.051 102.071C270.194 101.899 271.777 101.063 271.969 100.836C272.161 100.609 272.218 99.6772 271.969 99.2581" fill="#1F161E"/>
<path d="M270.203 83.7988C270.419 84.0728 271.934 85.7328 271.731 86.1492C271.529 86.5655 267.981 89.4199 267.691 89.3788C267.401 89.3377 267.039 89.0693 267.113 88.8584C267.187 88.6474 268.37 87.3024 268.461 87.0258C268.551 86.7491 268.283 85.8533 267.899 85.552" fill="#1F161E"/>
<path d="M239.355 53.0442C239.355 49.757 243.653 46.8067 247.434 46.8067C251.444 46.8067 254.008 48.927 258.366 48.927C262.07 48.927 266.401 45.0234 271.126 45.0234C277.194 45.0234 279.152 50.9541 279.152 53.225C279.152 58.9419 273.89 60.0103 272.657 60.0103C271.425 60.0103 254.345 58.6214 253.756 58.6214C253.436 54.7864 248.154 55.2411 247.831 54.0796C247.431 54.5508 244.648 56.7313 243.87 56.7313C240.27 56.7313 239.355 54.233 239.355 53.0442Z" fill="black"/>
<path d="M245.14 73.4241L247.023 74.2383L246.702 74.9825L244.818 74.1684L245.14 73.4241Z" fill="#969696"/>
<path d="M251.118 64.9288C251.15 65.1343 251.372 68.2461 251.285 68.679L251.2 69.1118C251.2 69.1118 248.734 73.3796 248.54 73.6947C248.345 74.0097 249.48 74.5165 249.48 74.5165C249.48 74.5165 253.802 69.9747 254.106 69.5857C254.41 69.1967 255.717 65.263 255.695 64.811C255.673 64.359 251.118 64.9288 251.118 64.9288Z" fill="#EED0C3"/>
<path d="M264.299 64.625C263.987 64.8989 255.391 73.3196 255.462 74.0647C255.533 74.8098 267.214 85.1179 268.562 85.4302C269.909 85.7425 268.682 81.3212 268.178 80.9514C266.118 79.3509 264.161 77.6216 262.319 75.7741C263.168 75.3412 272.101 70.646 273.427 70.0927C274.753 69.5394 264.299 64.625 264.299 64.625Z" fill="#1F161E"/>
<path d="M266.767 66.2217C269.668 64.4192 271.673 60.7595 272.158 58.0996C274.624 60.1925 276.234 62.9153 276.234 66.219C276.234 72.114 273.725 80.7127 272.865 83.1096C273.079 84.304 275.04 98.5896 275.04 98.5896L271.884 99.3593C271.884 99.3593 266.852 82.255 266.767 81.3592C266.082 77.6666 266.828 66.7093 266.767 66.2217Z" fill="#EF5350"/>
<path d="M250.265 74.4534C250.265 74.4534 250.194 74.1493 250.591 74.0453C250.988 73.9412 256.294 70.4211 257.165 68.5474C256.735 67.6708 254.903 64.411 253.905 63.4961C252.908 62.5812 257.653 57.6504 257.653 57.6504C257.897 58.138 262.258 67.0189 261.441 70.1362C260.893 72.0099 253.437 75.4094 251.541 76.3271C249.646 77.2448 250.265 74.4534 250.265 74.4534Z" fill="#EED0C3"/>
<path d="M272.562 58.4932C272.423 58.3643 272.288 58.2355 272.129 58.1094C272.283 58.2382 272.425 58.3643 272.562 58.4932Z" fill="#FBDC8E"/>
<path d="M257.277 53.043C262.277 53.043 268.276 54.7879 272.16 58.0998C271.675 60.7596 269.695 64.4221 266.783 66.2219C266.783 66.2219 263.041 64.9125 260.395 64.0167C260.31 63.7729 260.244 63.4688 260.198 63.3456C258.998 63.9975 255.741 65.811 255.571 65.8822C255.458 65.6713 255.275 65.3754 255.108 65.1179V65.1343C254.618 65.2001 253.02 65.5891 251.193 65.3288C251.062 64.6769 250.183 57.7601 250.183 57.141C250.183 56.5219 250.654 53.043 257.277 53.043Z" fill="#D6B689"/>
<path d="M248.299 54.4727L252.706 55.3492C253.295 55.4616 252.706 58.6364 252.079 58.5132L247.669 57.6366L248.299 54.4727Z" fill="#EED0C3"/>
<path d="M260.195 63.3459C259.957 62.7679 258.826 59.5354 258.133 58.7246" stroke="#1F161E" stroke-width="0.150663" stroke-miterlimit="10" stroke-linecap="round"/>
<path d="M255.57 65.8883C255.269 65.3787 253.757 62.875 253.757 62.875" stroke="#1F161E" stroke-width="0.150663" stroke-miterlimit="10" stroke-linecap="round"/>
<path d="M246.417 75.4489C246.133 74.8022 246.56 73.9885 247.371 73.6313C248.182 73.2741 249.071 73.5087 249.356 74.1553C249.64 74.802 249.213 75.6157 248.402 75.9729C247.59 76.3301 246.702 76.0955 246.417 75.4489Z" fill="#EED0C3"/>
<path d="M248.232 74.6673L249.388 75.1183C249.597 75.1997 249.7 75.4347 249.618 75.6433C249.537 75.8519 249.302 75.9551 249.093 75.8737L247.937 75.4227C247.729 75.3414 247.625 75.1063 247.707 74.8977C247.788 74.6891 248.023 74.586 248.232 74.6673Z" fill="#969696"/>
<path d="M248.469 75.8799C248.33 74.9905 249.136 74.1258 250.268 73.9483C251.401 73.7709 252.433 74.3481 252.572 75.2374C252.711 76.1267 251.906 76.9915 250.773 77.1689C249.64 77.3463 248.609 76.7692 248.469 75.8799Z" fill="#EED0C3"/>
<path d="M253.976 76.9086L250.914 75.714C250.814 75.675 250.702 75.6773 250.604 75.7205C250.505 75.7637 250.428 75.8442 250.389 75.9444C250.35 76.0446 250.352 76.1562 250.395 76.2546C250.439 76.3531 250.519 76.4304 250.619 76.4694L253.682 77.664L253.98 76.8984L253.976 76.9086Z" fill="#969696"/>
<path d="M246.839 55.1188C246.349 55.1188 245.951 54.7215 245.951 54.2313C245.951 53.7411 246.349 53.3438 246.839 53.3438C247.329 53.3438 247.727 53.7411 247.727 54.2313C247.727 54.7215 247.329 55.1188 246.839 55.1188Z" fill="#EED0C3"/>
<path d="M246.067 53.8047C246.946 53.9964 248.563 54.2457 249.702 54.0567C249.8 54.5748 249.791 55.1071 249.678 55.6219C249.565 56.1367 249.349 56.6233 249.043 57.0526C248.737 57.4819 248.348 57.8451 247.898 58.1203C247.448 58.3956 246.948 58.5773 246.427 58.6546C245.905 58.7319 245.374 58.7031 244.864 58.5701C244.353 58.437 243.876 58.2024 243.458 57.8803C243.041 57.5581 242.693 57.1551 242.435 56.6953C242.178 56.2356 242.015 55.7285 241.958 55.2045C243.051 54.9826 245.128 54.3827 246.067 53.8047Z" fill="#EED0C3"/>
<path d="M243.078 56.2188C243.117 56.4434 243.237 57.6459 244.133 57.2433" stroke="#1F161E" stroke-width="0.150663" stroke-miterlimit="10" stroke-linecap="round"/>
<path d="M245.708 57.3258C245.767 57.197 245.781 57.052 245.748 56.9142C245.715 56.7765 245.636 56.6539 245.524 56.5664" stroke="#1F161E" stroke-width="0.150663" stroke-miterlimit="10" stroke-linecap="round"/>
<path d="M286.897 97.2733C285.841 97.2733 284.984 96.4173 284.984 95.3613C284.984 94.3053 285.841 93.4492 286.897 93.4492C287.953 93.4492 288.809 94.3053 288.809 95.3613C288.809 96.4173 287.953 97.2733 286.897 97.2733Z" fill="#D8D8D8"/>
<path d="M239.357 97.2733C238.301 97.2733 237.445 96.4173 237.445 95.3613C237.445 94.3053 238.301 93.4492 239.357 93.4492C240.413 93.4492 241.27 94.3053 241.27 95.3613C241.27 96.4173 240.413 97.2733 239.357 97.2733Z" fill="#D8D8D8"/>
<path d="M269.863 96.9253L245.952 81.6289" stroke="#D8D8D8" stroke-width="1.09573" stroke-linecap="round" stroke-linejoin="round"/>
<path d="M286.898 95.3601L274.235 81.543" stroke="#D8D8D8" stroke-width="1.09573" stroke-linecap="round" stroke-linejoin="round"/>
<path d="M274.236 81.543L275.633 75.9219" stroke="#D8D8D8" stroke-width="1.09573" stroke-linecap="round" stroke-linejoin="round"/>
<defs>
<clipPath id="clip0_9117_287004">
<rect width="123.933" height="51.6078" fill="white" transform="translate(36 24.0547)"/>
</clipPath>
</defs>
</svg>
