<svg width="440" height="160" viewBox="0 0 440 160" fill="none" xmlns="http://www.w3.org/2000/svg">
<g clip-path="url(#clip0_8997_281107)">
<g clip-path="url(#clip1_8997_281107)">
<path d="M219.449 25H43.5507C38.8283 25 35 28.8283 35 33.5507V96.8176C35 101.54 38.8283 105.368 43.5507 105.368H219.449C224.172 105.368 228 101.54 228 96.8176V33.5507C228 28.8283 224.172 25 219.449 25Z" fill="#F5F7F9"/>
<path d="M60.0179 65.1842C67.9669 65.1842 74.4108 58.7403 74.4108 50.7913C74.4108 42.8424 67.9669 36.3984 60.0179 36.3984C52.0689 36.3984 45.625 42.8424 45.625 50.7913C45.625 58.7403 52.0689 65.1842 60.0179 65.1842Z" fill="#EF5350"/>
<path d="M86.873 43.4492H150.434" stroke="white" stroke-width="8.69369" stroke-miterlimit="10" stroke-linecap="round"/>
<path d="M86.873 57.5527H188.493" stroke="white" stroke-width="5.6026" stroke-miterlimit="10" stroke-linecap="round"/>
<path d="M86.873 67.9863H165.309" stroke="white" stroke-width="5.6026" stroke-miterlimit="10" stroke-linecap="round"/>
<path d="M86.873 81.123H99.4306" stroke="#999CBF" stroke-width="5.6026" stroke-miterlimit="10" stroke-linecap="round"/>
<path d="M108.896 81.123H121.454" stroke="#999CBF" stroke-width="5.6026" stroke-miterlimit="10" stroke-linecap="round"/>
<path d="M206.392 37.7746L214.607 45.9902L207.777 52.8206L199.561 44.605C198.656 43.6992 198.147 42.4707 198.147 41.1898C198.147 39.9088 198.656 38.6803 199.561 37.7746C200.467 36.8688 201.696 36.36 202.977 36.36C204.258 36.36 205.486 36.8688 206.392 37.7746Z" fill="#999CBF"/>
<path d="M216.014 44.6027L207.799 52.8183L200.968 45.9879L209.184 37.7723C210.09 36.8665 211.318 36.3577 212.599 36.3577C213.88 36.3577 215.109 36.8665 216.014 37.7723C216.92 38.6781 217.429 39.9065 217.429 41.1875C217.429 42.4684 216.92 43.6969 216.014 44.6027Z" fill="#999CBF"/>
</g>
<path d="M311.723 103.965H285.432" stroke="#D8D8D8" stroke-width="1.70637" stroke-linecap="round" stroke-linejoin="round"/>
<path d="M311.723 106.047L285.961 113.286" stroke="#D8D8D8" stroke-width="1.70637" stroke-linecap="round" stroke-linejoin="round"/>
<path d="M290.075 72.4102H299.648C300.597 72.4102 301.367 73.1799 301.367 74.1293C301.367 75.0788 300.597 75.8485 299.648 75.8485H290.075C289.126 75.8485 288.356 75.0788 288.356 74.1293C288.356 73.1799 289.126 72.4102 290.075 72.4102Z" fill="#D8D8D8"/>
<path d="M292 84.5293L247.954 84.6615" stroke="#D8D8D8" stroke-width="1.70637" stroke-linecap="round" stroke-linejoin="round"/>
<path d="M237.686 127.564C225.802 127.564 216.168 117.93 216.168 106.047C216.168 94.1629 225.802 84.5293 237.686 84.5293C249.569 84.5293 259.203 94.1629 259.203 106.047C259.203 117.93 249.569 127.564 237.686 127.564Z" stroke="#969696" stroke-width="1.70637" stroke-miterlimit="10"/>
<path d="M237.687 106.048L252.43 75.3457" stroke="#D8D8D8" stroke-width="1.70637" stroke-linecap="round" stroke-linejoin="round"/>
<path d="M285.192 114.217C282.026 114.217 279.459 111.65 279.459 108.483C279.459 105.317 282.026 102.75 285.192 102.75C288.359 102.75 290.926 105.317 290.926 108.483C290.926 111.65 288.359 114.217 285.192 114.217Z" fill="#D8D8D8"/>
<path d="M311.721 127.564C299.837 127.564 290.204 117.93 290.204 106.047C290.204 94.1629 299.837 84.5293 311.721 84.5293C323.605 84.5293 333.238 94.1629 333.238 106.047C333.238 117.93 323.605 127.564 311.721 127.564Z" stroke="#969696" stroke-width="1.70637" stroke-miterlimit="10"/>
<path d="M292.79 110.834C292.943 111.363 294.244 114.605 293.72 115.1C293.195 115.595 286.468 117.796 286.041 117.578C285.615 117.361 285.265 116.768 285.487 116.499C285.708 116.23 288.174 114.929 288.473 114.575C288.771 114.221 288.861 112.771 288.473 112.118" fill="#1F161E"/>
<path d="M285.727 88.041C286.064 88.4676 288.423 91.0528 288.108 91.7012C287.792 92.3496 282.268 96.7947 281.815 96.7307C281.363 96.6667 280.8 96.2487 280.915 95.9202C281.031 95.5917 282.873 93.4971 283.014 93.0663C283.155 92.6354 282.737 91.2405 282.14 90.7712" fill="#1F161E"/>
<path d="M237.689 40.1469C237.689 35.0278 244.382 30.4334 250.269 30.4334C256.514 30.4334 260.507 33.7352 267.294 33.7352C273.062 33.7352 279.806 27.6562 287.165 27.6562C296.614 27.6562 299.664 36.892 299.664 40.4284C299.664 49.3314 291.469 50.9951 289.55 50.9951C287.63 50.9951 261.032 48.8323 260.115 48.8323C259.616 42.86 251.391 43.5682 250.887 41.7594C250.265 42.4931 245.93 45.8888 244.719 45.8888C239.113 45.8888 237.689 41.9983 237.689 40.1469Z" fill="black"/>
<path d="M246.692 71.8864L249.625 73.1543L249.124 74.3133L246.191 73.0454L246.692 71.8864Z" fill="#969696"/>
<path d="M256 58.6561C256.051 58.976 256.397 63.8221 256.26 64.4961L256.128 65.1701C256.128 65.1701 252.289 71.8165 251.986 72.307C251.683 72.7976 253.449 73.5868 253.449 73.5868C253.449 73.5868 260.181 66.5139 260.654 65.9081C261.128 65.3024 263.163 59.1765 263.128 58.4726C263.094 57.7688 256 58.6561 256 58.6561Z" fill="#EED0C3"/>
<path d="M276.527 58.1836C276.04 58.6102 262.654 71.7237 262.765 72.884C262.876 74.0443 281.066 90.097 283.165 90.5833C285.263 91.0696 283.352 84.1844 282.567 83.6085C279.359 81.1161 276.311 78.4232 273.443 75.5459C274.765 74.8719 288.676 67.5601 290.741 66.6984C292.806 65.8367 276.527 58.1836 276.527 58.1836Z" fill="#1F161E"/>
<path d="M280.37 60.67C284.888 57.863 288.011 52.1637 288.766 48.0215C292.605 51.2807 295.113 55.521 295.113 60.6657C295.113 69.846 291.206 83.2367 289.866 86.9694C290.199 88.8293 293.253 111.076 293.253 111.076L288.339 112.275C288.339 112.275 280.502 85.6384 280.37 84.2435C279.304 78.493 280.464 61.4293 280.37 60.67Z" fill="#8C6631"/>
<path d="M254.675 73.4895C254.675 73.4895 254.564 73.016 255.183 72.8538C255.801 72.6917 264.064 67.21 265.421 64.2921C264.751 62.927 261.897 57.8506 260.344 56.4258C258.792 55.0009 266.18 47.3223 266.18 47.3223C266.56 48.0816 273.351 61.9117 272.08 66.7664C271.227 69.6843 259.615 74.9783 256.663 76.4074C253.711 77.8365 254.675 73.4895 254.675 73.4895Z" fill="#EED0C3"/>
<path d="M289.395 48.6324C289.177 48.4319 288.968 48.2314 288.721 48.0352C288.959 48.2357 289.181 48.4319 289.395 48.6324Z" fill="#FBDC8E"/>
<path d="M265.589 40.1465C273.374 40.1465 282.717 42.8639 288.766 48.0214C288.011 52.1636 284.926 57.8671 280.392 60.6699C280.392 60.6699 274.564 58.6307 270.443 57.2358C270.311 56.8561 270.209 56.3826 270.136 56.1906C268.268 57.2059 263.196 60.03 262.931 60.1409C262.756 59.8124 262.47 59.3517 262.21 58.9507V58.9763C261.447 59.0787 258.96 59.6844 256.114 59.2792C255.909 58.2639 254.54 47.4924 254.54 46.5283C254.54 45.5642 255.274 40.1465 265.589 40.1465Z" fill="#FFCDD2"/>
<path d="M251.617 42.373L258.481 43.7381C259.398 43.913 258.481 48.8573 257.504 48.6653L250.636 47.3002L251.617 42.373Z" fill="#EED0C3"/>
<path d="M270.137 56.1908C269.766 55.2907 268.004 50.2569 266.924 48.9941" stroke="#1F161E" stroke-width="0.234626" stroke-miterlimit="10" stroke-linecap="round"/>
<path d="M262.934 60.1496C262.464 59.3561 260.11 55.457 260.11 55.457" stroke="#1F161E" stroke-width="0.234626" stroke-miterlimit="10" stroke-linecap="round"/>
<path d="M248.676 75.0387C248.233 74.0317 248.898 72.7645 250.161 72.2082C251.425 71.6519 252.809 72.0173 253.252 73.0243C253.695 74.0313 253.03 75.2986 251.767 75.8549C250.503 76.4111 249.119 76.0457 248.676 75.0387Z" fill="#EED0C3"/>
<path d="M251.506 73.8202L253.306 74.5225C253.631 74.6492 253.792 75.0153 253.665 75.3401C253.538 75.665 253.172 75.8256 252.847 75.6989L251.047 74.9966C250.722 74.8699 250.562 74.5038 250.688 74.179C250.815 73.8541 251.181 73.6935 251.506 73.8202Z" fill="#969696"/>
<path d="M251.878 75.7097C251.661 74.3247 252.916 72.978 254.68 72.7017C256.444 72.4254 258.051 73.3242 258.267 74.7091C258.484 76.0941 257.23 77.4408 255.466 77.7171C253.701 77.9934 252.095 77.0946 251.878 75.7097Z" fill="#EED0C3"/>
<path d="M260.451 77.3128L255.682 75.4524C255.526 75.3916 255.352 75.3952 255.199 75.4625C255.045 75.5297 254.925 75.6552 254.864 75.8112C254.803 75.9672 254.807 76.1409 254.874 76.2943C254.941 76.4476 255.067 76.5679 255.223 76.6288L259.992 78.4892L260.457 77.2969L260.451 77.3128Z" fill="#969696"/>
<path d="M249.337 43.3796C248.573 43.3796 247.954 42.7607 247.954 41.9974C247.954 41.234 248.573 40.6152 249.337 40.6152C250.1 40.6152 250.719 41.234 250.719 41.9974C250.719 42.7607 250.1 43.3796 249.337 43.3796Z" fill="#EED0C3"/>
<path d="M248.141 41.332C249.51 41.6306 252.027 42.0188 253.801 41.7245C253.953 42.5313 253.94 43.3603 253.764 44.162C253.587 44.9636 253.251 45.7214 252.774 46.39C252.298 47.0585 251.692 47.6241 250.992 48.0527C250.292 48.4814 249.512 48.7644 248.7 48.8848C247.888 49.0051 247.06 48.9603 246.266 48.7531C245.472 48.5459 244.728 48.1806 244.078 47.6789C243.428 47.1772 242.886 46.5496 242.485 45.8336C242.083 45.1176 241.831 44.3279 241.742 43.5119C243.444 43.1664 246.677 42.2321 248.141 41.332Z" fill="#EED0C3"/>
<path d="M243.479 45.0918C243.538 45.4416 243.726 47.3143 245.121 46.6873" stroke="#1F161E" stroke-width="0.234626" stroke-miterlimit="10" stroke-linecap="round"/>
<path d="M247.574 46.8145C247.667 46.6141 247.688 46.3884 247.637 46.174C247.585 45.9596 247.462 45.769 247.289 45.6328" stroke="#1F161E" stroke-width="0.234626" stroke-miterlimit="10" stroke-linecap="round"/>
<path d="M311.722 109.024C310.077 109.024 308.744 107.69 308.744 106.046C308.744 104.401 310.077 103.068 311.722 103.068C313.366 103.068 314.699 104.401 314.699 106.046C314.699 107.69 313.366 109.024 311.722 109.024Z" fill="#D8D8D8"/>
<path d="M237.686 109.024C236.042 109.024 234.709 107.69 234.709 106.046C234.709 104.401 236.042 103.068 237.686 103.068C239.331 103.068 240.664 104.401 240.664 106.046C240.664 107.69 239.331 109.024 237.686 109.024Z" fill="#D8D8D8"/>
<path d="M285.191 108.483L247.954 84.6621" stroke="#D8D8D8" stroke-width="1.70637" stroke-linecap="round" stroke-linejoin="round"/>
<path d="M311.723 106.047L292.001 84.5293" stroke="#D8D8D8" stroke-width="1.70637" stroke-linecap="round" stroke-linejoin="round"/>
<path d="M292 84.5291L294.176 75.7754" stroke="#D8D8D8" stroke-width="1.70637" stroke-linecap="round" stroke-linejoin="round"/>
<path d="M425.723 133.965H399.432" stroke="#D8D8D8" stroke-width="1.70637" stroke-linecap="round" stroke-linejoin="round"/>
<path d="M425.723 136.047L399.961 143.286" stroke="#D8D8D8" stroke-width="1.70637" stroke-linecap="round" stroke-linejoin="round"/>
<path d="M404.075 102.41H413.648C414.597 102.41 415.367 103.18 415.367 104.129C415.367 105.079 414.597 105.848 413.648 105.848H404.075C403.126 105.848 402.356 105.079 402.356 104.129C402.356 103.18 403.126 102.41 404.075 102.41Z" fill="#D8D8D8"/>
<path d="M406 114.529L361.954 114.662" stroke="#D8D8D8" stroke-width="1.70637" stroke-linecap="round" stroke-linejoin="round"/>
<path d="M351.686 157.564C339.802 157.564 330.168 147.93 330.168 136.047C330.168 124.163 339.802 114.529 351.686 114.529C363.569 114.529 373.203 124.163 373.203 136.047C373.203 147.93 363.569 157.564 351.686 157.564Z" stroke="#969696" stroke-width="1.70637" stroke-miterlimit="10"/>
<path d="M351.687 136.048L366.43 105.346" stroke="#D8D8D8" stroke-width="1.70637" stroke-linecap="round" stroke-linejoin="round"/>
<path d="M399.192 144.217C396.026 144.217 393.459 141.65 393.459 138.483C393.459 135.317 396.026 132.75 399.192 132.75C402.359 132.75 404.926 135.317 404.926 138.483C404.926 141.65 402.359 144.217 399.192 144.217Z" fill="#D8D8D8"/>
<path d="M425.721 157.564C413.837 157.564 404.204 147.93 404.204 136.047C404.204 124.163 413.837 114.529 425.721 114.529C437.605 114.529 447.238 124.163 447.238 136.047C447.238 147.93 437.605 157.564 425.721 157.564Z" stroke="#969696" stroke-width="1.70637" stroke-miterlimit="10"/>
<path d="M406.79 140.834C406.943 141.363 408.244 144.605 407.72 145.1C407.195 145.595 400.468 147.796 400.041 147.578C399.615 147.361 399.265 146.768 399.487 146.499C399.708 146.23 402.174 144.929 402.473 144.575C402.771 144.221 402.861 142.771 402.473 142.118" fill="#1F161E"/>
<path d="M399.727 118.041C400.064 118.468 402.423 121.053 402.108 121.701C401.792 122.35 396.268 126.795 395.815 126.731C395.363 126.667 394.8 126.249 394.915 125.92C395.031 125.592 396.873 123.497 397.014 123.066C397.155 122.635 396.737 121.24 396.14 120.771" fill="#1F161E"/>
<path d="M351.689 70.1469C351.689 65.0278 358.382 60.4334 364.269 60.4334C370.514 60.4334 374.507 63.7352 381.294 63.7352C387.062 63.7352 393.806 57.6562 401.165 57.6562C410.614 57.6562 413.664 66.892 413.664 70.4284C413.664 79.3314 405.469 80.9951 403.55 80.9951C401.63 80.9951 375.032 78.8323 374.115 78.8323C373.616 72.86 365.391 73.5682 364.887 71.7594C364.265 72.4931 359.93 75.8888 358.719 75.8888C353.113 75.8888 351.689 71.9983 351.689 70.1469Z" fill="black"/>
<path d="M360.692 101.886L363.625 103.154L363.124 104.313L360.191 103.045L360.692 101.886Z" fill="#969696"/>
<path d="M370 88.6561C370.051 88.976 370.397 93.8221 370.26 94.4961L370.128 95.1701C370.128 95.1701 366.289 101.816 365.986 102.307C365.683 102.798 367.449 103.587 367.449 103.587C367.449 103.587 374.181 96.5139 374.654 95.9081C375.128 95.3024 377.163 89.1765 377.128 88.4726C377.094 87.7688 370 88.6561 370 88.6561Z" fill="#EED0C3"/>
<path d="M390.527 88.1836C390.04 88.6102 376.654 101.724 376.765 102.884C376.876 104.044 395.066 120.097 397.165 120.583C399.263 121.07 397.352 114.184 396.567 113.609C393.359 111.116 390.311 108.423 387.443 105.546C388.765 104.872 402.676 97.5601 404.741 96.6984C406.806 95.8367 390.527 88.1836 390.527 88.1836Z" fill="#1F161E"/>
<path d="M394.37 90.67C398.888 87.863 402.011 82.1637 402.766 78.0215C406.605 81.2807 409.113 85.521 409.113 90.6657C409.113 99.846 405.206 113.237 403.866 116.969C404.199 118.829 407.253 141.076 407.253 141.076L402.339 142.275C402.339 142.275 394.502 115.638 394.37 114.243C393.304 108.493 394.464 91.4293 394.37 90.67Z" fill="#EF5350"/>
<path d="M368.675 103.489C368.675 103.489 368.564 103.016 369.183 102.854C369.801 102.692 378.064 97.21 379.421 94.2921C378.751 92.927 375.897 87.8506 374.344 86.4258C372.792 85.0009 380.18 77.3223 380.18 77.3223C380.56 78.0816 387.351 91.9117 386.08 96.7664C385.227 99.6843 373.615 104.978 370.663 106.407C367.711 107.836 368.675 103.489 368.675 103.489Z" fill="#EED0C3"/>
<path d="M403.395 78.6324C403.177 78.4319 402.968 78.2314 402.721 78.0352C402.959 78.2357 403.181 78.4319 403.395 78.6324Z" fill="#FBDC8E"/>
<path d="M379.589 70.1465C387.374 70.1465 396.717 72.8639 402.766 78.0214C402.011 82.1636 398.926 87.8671 394.392 90.6699C394.392 90.6699 388.564 88.6307 384.443 87.2358C384.311 86.8561 384.209 86.3826 384.136 86.1906C382.268 87.2059 377.196 90.03 376.931 90.1409C376.756 89.8124 376.47 89.3517 376.21 88.9507V88.9763C375.447 89.0787 372.96 89.6844 370.114 89.2792C369.909 88.2639 368.54 77.4924 368.54 76.5283C368.54 75.5642 369.274 70.1465 379.589 70.1465Z" fill="#D6B689"/>
<path d="M365.617 72.373L372.481 73.7381C373.398 73.913 372.481 78.8573 371.504 78.6653L364.636 77.3002L365.617 72.373Z" fill="#EED0C3"/>
<path d="M384.137 86.1908C383.766 85.2907 382.004 80.2569 380.924 78.9941" stroke="#1F161E" stroke-width="0.234626" stroke-miterlimit="10" stroke-linecap="round"/>
<path d="M376.934 90.1496C376.464 89.3561 374.11 85.457 374.11 85.457" stroke="#1F161E" stroke-width="0.234626" stroke-miterlimit="10" stroke-linecap="round"/>
<path d="M362.676 105.039C362.233 104.032 362.898 102.764 364.161 102.208C365.425 101.652 366.809 102.017 367.252 103.024C367.695 104.031 367.03 105.299 365.767 105.855C364.503 106.411 363.119 106.046 362.676 105.039Z" fill="#EED0C3"/>
<path d="M365.506 103.82L367.306 104.523C367.631 104.649 367.792 105.015 367.665 105.34C367.538 105.665 367.172 105.826 366.847 105.699L365.047 104.997C364.722 104.87 364.562 104.504 364.688 104.179C364.815 103.854 365.181 103.694 365.506 103.82Z" fill="#969696"/>
<path d="M365.878 105.71C365.661 104.325 366.916 102.978 368.68 102.702C370.444 102.425 372.051 103.324 372.267 104.709C372.484 106.094 371.23 107.441 369.466 107.717C367.701 107.993 366.095 107.095 365.878 105.71Z" fill="#EED0C3"/>
<path d="M374.451 107.313L369.682 105.452C369.526 105.392 369.352 105.395 369.199 105.462C369.045 105.53 368.925 105.655 368.864 105.811C368.803 105.967 368.807 106.141 368.874 106.294C368.941 106.448 369.067 106.568 369.223 106.629L373.992 108.489L374.457 107.297L374.451 107.313Z" fill="#969696"/>
<path d="M363.337 73.3796C362.573 73.3796 361.954 72.7607 361.954 71.9974C361.954 71.234 362.573 70.6152 363.337 70.6152C364.1 70.6152 364.719 71.234 364.719 71.9974C364.719 72.7607 364.1 73.3796 363.337 73.3796Z" fill="#EED0C3"/>
<path d="M362.141 71.332C363.51 71.6306 366.027 72.0188 367.801 71.7245C367.953 72.5313 367.94 73.3603 367.764 74.162C367.587 74.9636 367.251 75.7214 366.774 76.39C366.298 77.0585 365.692 77.6241 364.992 78.0527C364.292 78.4814 363.512 78.7644 362.7 78.8848C361.888 79.0051 361.06 78.9603 360.266 78.7531C359.472 78.5459 358.728 78.1806 358.078 77.6789C357.428 77.1772 356.886 76.5496 356.485 75.8336C356.083 75.1176 355.831 74.3279 355.742 73.5119C357.444 73.1664 360.677 72.2321 362.141 71.332Z" fill="#EED0C3"/>
<path d="M357.479 75.0918C357.538 75.4416 357.726 77.3143 359.121 76.6873" stroke="#1F161E" stroke-width="0.234626" stroke-miterlimit="10" stroke-linecap="round"/>
<path d="M361.574 76.8145C361.667 76.6141 361.688 76.3884 361.637 76.174C361.585 75.9596 361.462 75.769 361.289 75.6328" stroke="#1F161E" stroke-width="0.234626" stroke-miterlimit="10" stroke-linecap="round"/>
<path d="M425.722 139.024C424.077 139.024 422.744 137.69 422.744 136.046C422.744 134.401 424.077 133.068 425.722 133.068C427.366 133.068 428.699 134.401 428.699 136.046C428.699 137.69 427.366 139.024 425.722 139.024Z" fill="#D8D8D8"/>
<path d="M351.686 139.024C350.042 139.024 348.709 137.69 348.709 136.046C348.709 134.401 350.042 133.068 351.686 133.068C353.331 133.068 354.664 134.401 354.664 136.046C354.664 137.69 353.331 139.024 351.686 139.024Z" fill="#D8D8D8"/>
<path d="M399.191 138.483L361.954 114.662" stroke="#D8D8D8" stroke-width="1.70637" stroke-linecap="round" stroke-linejoin="round"/>
<path d="M425.723 136.047L406.001 114.529" stroke="#D8D8D8" stroke-width="1.70637" stroke-linecap="round" stroke-linejoin="round"/>
<path d="M406 114.529L408.176 105.775" stroke="#D8D8D8" stroke-width="1.70637" stroke-linecap="round" stroke-linejoin="round"/>
</g>
<defs>
<clipPath id="clip0_8997_281107">
<rect width="440" height="160" fill="white"/>
</clipPath>
<clipPath id="clip1_8997_281107">
<rect width="193" height="80.3684" fill="white" transform="translate(35 25)"/>
</clipPath>
</defs>
</svg>
