<svg width="314" height="115" viewBox="0 0 314 115" fill="none" xmlns="http://www.w3.org/2000/svg">
<path d="M0 8C0 3.58172 3.58172 0 8 0H306C310.418 0 314 3.58172 314 8V115H0V8Z" fill="#F5F7F9"/>
<path d="M270 3H22V114.6H270V3Z" fill="#F5F7F9"/>
<path d="M77.6712 94.321C97.2888 94.321 113.192 78.4178 113.192 58.8001C113.192 39.1825 97.2888 23.2793 77.6712 23.2793C58.0536 23.2793 42.1504 39.1825 42.1504 58.8001C42.1504 78.4178 58.0536 94.321 77.6712 94.321Z" fill="#7DBF9D"/>
<path d="M72.8907 90.267C72.4102 92.7289 58.8141 90.267 59.3308 87.6268L62.5573 71.1426L76.1069 73.7827L72.8907 90.267Z" fill="#EED0C3"/>
<path d="M60.6309 80.9885C60.9176 79.5212 66.5725 74.104 68.9905 75.4576C66.0223 73.7113 63.8729 70.5829 62.5477 71.1435L60.6309 80.9885Z" fill="#1F161E"/>
<path d="M77.2524 80.208C87.1625 80.208 95.1963 72.1743 95.1963 62.2641C95.1963 52.354 87.1625 44.3203 77.2524 44.3203C67.3423 44.3203 59.3086 52.354 59.3086 62.2641C59.3086 72.1743 67.3423 80.208 77.2524 80.208Z" fill="#EED0C3"/>
<path d="M96.7792 68.2665C96.8681 67.4108 95.6068 66.5786 93.962 66.4078C92.3173 66.2369 90.9119 66.7921 90.823 67.6479C90.7342 68.5036 91.9954 69.3358 93.6402 69.5066C95.2849 69.6774 96.6903 69.1222 96.7792 68.2665Z" fill="#EF9A9A"/>
<path d="M78.0585 66.3192C78.1473 65.4635 76.8861 64.6313 75.2413 64.4605C73.5966 64.2897 72.1912 64.8449 72.1023 65.7006C72.0135 66.5563 73.2747 67.3885 74.9195 67.5593C76.5642 67.7302 77.9696 67.175 78.0585 66.3192Z" fill="#EF9A9A"/>
<path d="M86.8697 63.9873C87.3451 64.8398 89.8561 68.472 86.6992 69.5079" stroke="#1F161E" stroke-width="0.17825" stroke-miterlimit="10" stroke-linecap="round"/>
<path d="M80.2933 72.7816C79.402 72.6627 78.1336 71.4356 77.5059 70.3584" stroke="#1F161E" stroke-width="0.17825" stroke-miterlimit="10" stroke-linecap="round"/>
<path d="M62.7487 63.9848C64.9302 63.9848 66.6987 62.2164 66.6987 60.0349C66.6987 57.8534 64.9302 56.085 62.7487 56.085C60.5673 56.085 58.7988 57.8534 58.7988 60.0349C58.7988 62.2164 60.5673 63.9848 62.7487 63.9848Z" fill="#EED0C3"/>
<path d="M65.4169 63.5199C65.4169 68.777 59.5992 72.2464 57.6436 72.2464C55.4762 72.2464 55.1895 70.6783 55.1895 69.9963C55.1895 67.7927 56.4811 65.9043 59.2117 63.5199C58.7364 62.701 55.1895 58.3739 55.1895 52.2695C55.1895 45.8111 59.1471 40.4094 61.8028 40.4094C64.629 40.4094 66.507 43.3389 66.507 44.566C66.507 35.5501 76.1739 29.0918 81.914 29.0918C87.2667 29.0918 88.1864 31.4168 88.1864 33.3181C88.1864 37.467 84.9133 41.9077 83.6862 42.9979C86.6803 40.7917 91.3561 38.5675 95.412 38.5675C97.9591 38.5675 101.206 39.2856 101.206 42.7938C101.206 49.2237 95.1846 52.9463 93.1722 53.9874C92.1621 51.993 91.1055 50.8667 90.2453 49.8721C90.6173 51.0863 89.1293 53.295 86.2902 53.7936C84.7221 54.0675 65.4169 51.4686 65.4169 63.5199Z" fill="#1F161E"/>
<path d="M131.533 37.4873H251.658" stroke="#7DBF9D" stroke-width="3.61667" stroke-miterlimit="10" stroke-linecap="round"/>
<path d="M131.533 51.6953H251.658" stroke="#7DBF9D" stroke-width="3.61667" stroke-miterlimit="10" stroke-linecap="round"/>
<path d="M131.533 65.9043H251.658" stroke="#7DBF9D" stroke-width="3.61667" stroke-miterlimit="10" stroke-linecap="round"/>
<path d="M131.533 80.1123H251.658" stroke="#7DBF9D" stroke-width="3.61667" stroke-miterlimit="10" stroke-linecap="round"/>
</svg>
