<svg width="586" height="160" viewBox="0 0 586 160" fill="none" xmlns="http://www.w3.org/2000/svg">
<g clip-path="url(#clip0_7013_221893)">
<rect width="586" height="160" fill="#F5F7F9"/>
<g clip-path="url(#clip1_7013_221893)">
<path d="M423 -11H17V171.7H423V-11Z" fill="#F5F7F9"/>
<path d="M108.139 138.501C140.255 138.501 166.29 112.466 166.29 80.3503C166.29 48.2343 140.255 22.1992 108.139 22.1992C76.0234 22.1992 49.9883 48.2343 49.9883 80.3503C49.9883 112.466 76.0234 138.501 108.139 138.501Z" fill="#7DBF9D"/>
<path d="M100.314 131.865C99.5276 135.896 77.2695 131.865 78.1153 127.543L83.3975 100.557L105.58 104.879L100.314 131.865Z" fill="#EED0C3"/>
<path d="M80.2422 116.674C80.7116 114.272 89.9693 105.403 93.9278 107.62C89.0685 104.761 85.5498 99.6391 83.3802 100.557L80.2422 116.674Z" fill="#1F161E"/>
<path d="M107.454 115.397C123.678 115.397 136.83 102.245 136.83 86.0213C136.83 69.7975 123.678 56.6455 107.454 56.6455C91.2301 56.6455 78.0781 69.7975 78.0781 86.0213C78.0781 102.245 91.2301 115.397 107.454 115.397Z" fill="#EED0C3"/>
<path d="M139.42 95.8464C139.566 94.4455 137.501 93.0831 134.809 92.8034C132.116 92.5238 129.815 93.4327 129.67 94.8336C129.524 96.2345 131.589 97.5968 134.282 97.8765C136.974 98.1562 139.275 97.2473 139.42 95.8464Z" fill="#EF9A9A"/>
<path d="M108.774 92.6599C108.919 91.259 106.855 89.8966 104.162 89.6169C101.469 89.3372 99.1687 90.2462 99.0232 91.6471C98.8777 93.0479 100.943 94.4103 103.635 94.69C106.328 94.9697 108.628 94.0607 108.774 92.6599Z" fill="#EF9A9A"/>
<path d="M123.199 88.8418C123.977 90.2374 128.088 96.1836 122.92 97.8795" stroke="#1F161E" stroke-width="0.291812" stroke-miterlimit="10" stroke-linecap="round"/>
<path d="M112.43 103.238C110.971 103.044 108.895 101.035 107.867 99.2715" stroke="#1F161E" stroke-width="0.291812" stroke-miterlimit="10" stroke-linecap="round"/>
<path d="M83.7105 88.8381C87.2818 88.8381 90.1769 85.943 90.1769 82.3717C90.1769 78.8004 87.2818 75.9053 83.7105 75.9053C80.1392 75.9053 77.2441 78.8004 77.2441 82.3717C77.2441 85.943 80.1392 88.8381 83.7105 88.8381Z" fill="#EED0C3"/>
<path d="M88.0792 88.077C88.0792 96.6833 78.5551 102.363 75.3536 102.363C71.8054 102.363 71.3359 99.796 71.3359 98.6795C71.3359 95.072 73.4505 91.9805 77.9208 88.077C77.1426 86.7363 71.3359 79.6525 71.3359 69.6589C71.3359 59.086 77.815 50.2428 82.1626 50.2428C86.7893 50.2428 89.8639 55.0387 89.8639 57.0476C89.8639 42.2878 105.689 31.7148 115.087 31.7148C123.849 31.7148 125.355 35.5211 125.355 38.6338C125.355 45.4258 119.997 52.6957 117.988 54.4804C122.889 50.8687 130.544 47.2274 137.184 47.2274C141.354 47.2274 146.67 48.4031 146.67 54.1463C146.67 64.6727 136.812 70.767 133.517 72.4713C131.864 69.2064 130.134 67.3625 128.726 65.7343C129.335 67.722 126.899 71.3379 122.251 72.1541C119.684 72.6024 88.0792 68.3479 88.0792 88.077Z" fill="#1F161E"/>
<path d="M196.316 45.459H392.973" stroke="#7DBF9D" stroke-width="5.92083" stroke-miterlimit="10" stroke-linecap="round"/>
<path d="M196.316 68.7197H392.973" stroke="#7DBF9D" stroke-width="5.92083" stroke-miterlimit="10" stroke-linecap="round"/>
<path d="M196.316 91.9805H392.973" stroke="#7DBF9D" stroke-width="5.92083" stroke-miterlimit="10" stroke-linecap="round"/>
<path d="M196.316 115.24H392.973" stroke="#7DBF9D" stroke-width="5.92083" stroke-miterlimit="10" stroke-linecap="round"/>
</g>
</g>
<defs>
<clipPath id="clip0_7013_221893">
<rect width="586" height="160" fill="white"/>
</clipPath>
<clipPath id="clip1_7013_221893">
<rect width="406" height="182.7" fill="white" transform="translate(17 -11)"/>
</clipPath>
</defs>
</svg>
