<svg width="314" height="115" viewBox="0 0 314 115" fill="none" xmlns="http://www.w3.org/2000/svg">
<path d="M0 8C0 3.58172 3.58172 0 8 0H306C310.418 0 314 3.58172 314 8V115H0V8Z" fill="#FFCDD2"/>
<g clip-path="url(#clip0_7013_221939)">
<path d="M266.655 10.543H153.343C151.713 10.543 150.393 11.8637 150.393 13.493V93.0789C150.393 94.7081 151.713 96.0289 153.343 96.0289H266.655C268.284 96.0289 269.605 94.7081 269.605 93.0789V13.493C269.605 11.8637 268.284 10.543 266.655 10.543Z" fill="#7DBF9D"/>
<path d="M153.343 10.543H266.655C267.437 10.543 268.188 10.8538 268.741 11.407C269.294 11.9602 269.605 12.7106 269.605 13.493V83.6396H150.393V13.493C150.393 12.7106 150.703 11.9602 151.257 11.407C151.81 10.8538 152.56 10.543 153.343 10.543Z" fill="#999999"/>
<path d="M264.788 15.0859H154.248V78.4088H264.788V15.0859Z" fill="white"/>
<path d="M220.281 114.889H199.061C198.467 114.888 197.88 114.762 197.339 114.517C196.798 114.272 196.316 113.914 195.924 113.467C195.533 113.021 195.241 112.496 195.069 111.928C194.896 111.36 194.847 110.761 194.924 110.172L196.783 96.0293H222.662L224.422 110.208C224.494 110.794 224.44 111.389 224.265 111.954C224.09 112.518 223.797 113.038 223.405 113.481C223.014 113.923 222.533 114.278 221.994 114.52C221.456 114.763 220.872 114.888 220.281 114.889Z" fill="#999999"/>
<path opacity="0.8" d="M209.999 93.0002C211.824 93.0002 213.303 91.521 213.303 89.6964C213.303 87.8717 211.824 86.3926 209.999 86.3926C208.174 86.3926 206.695 87.8717 206.695 89.6964C206.695 91.521 208.174 93.0002 209.999 93.0002Z" fill="#99ABC5"/>
<path opacity="0.8" d="M279.999 18.8711H211.996V49.0183H279.999V18.8711Z" fill="#99ABC5"/>
<path d="M142.615 54.3867H207.452" stroke="#666883" stroke-width="0.484558" stroke-miterlimit="10"/>
<path d="M142.615 59.4121H207.452" stroke="#666883" stroke-width="0.484558" stroke-miterlimit="10"/>
<path d="M142.615 64.5059H207.452" stroke="#666883" stroke-width="0.484558" stroke-miterlimit="10"/>
<path d="M142.615 69.5996H207.452" stroke="#666883" stroke-width="0.484558" stroke-miterlimit="10"/>
<path d="M145.092 24.3781C145.929 24.3781 146.607 23.7001 146.607 22.8639C146.607 22.0276 145.929 21.3496 145.092 21.3496C144.256 21.3496 143.578 22.0276 143.578 22.8639C143.578 23.7001 144.256 24.3781 145.092 24.3781Z" fill="#7DBF9D"/>
<path d="M149.36 24.3781C150.196 24.3781 150.874 23.7001 150.874 22.8639C150.874 22.0276 150.196 21.3496 149.36 21.3496C148.524 21.3496 147.846 22.0276 147.846 22.8639C147.846 23.7001 148.524 24.3781 149.36 24.3781Z" fill="#7DBF9D"/>
<path d="M153.628 24.3781C154.464 24.3781 155.142 23.7001 155.142 22.8639C155.142 22.0276 154.464 21.3496 153.628 21.3496C152.791 21.3496 152.113 22.0276 152.113 22.8639C152.113 23.7001 152.791 24.3781 153.628 24.3781Z" fill="#7DBF9D"/>
<path d="M157.895 24.3781C158.731 24.3781 159.409 23.7001 159.409 22.8639C159.409 22.0276 158.731 21.3496 157.895 21.3496C157.059 21.3496 156.381 22.0276 156.381 22.8639C156.381 23.7001 157.059 24.3781 157.895 24.3781Z" fill="#7DBF9D"/>
<path d="M162.163 24.3781C162.999 24.3781 163.677 23.7001 163.677 22.8639C163.677 22.0276 162.999 21.3496 162.163 21.3496C161.326 21.3496 160.648 22.0276 160.648 22.8639C160.648 23.7001 161.326 24.3781 162.163 24.3781Z" fill="#7DBF9D"/>
<path d="M166.43 24.3781C167.267 24.3781 167.945 23.7001 167.945 22.8639C167.945 22.0276 167.267 21.3496 166.43 21.3496C165.594 21.3496 164.916 22.0276 164.916 22.8639C164.916 23.7001 165.594 24.3781 166.43 24.3781Z" fill="#7DBF9D"/>
<path d="M145.092 33.1886C145.929 33.1886 146.607 32.5107 146.607 31.6744C146.607 30.8381 145.929 30.1602 145.092 30.1602C144.256 30.1602 143.578 30.8381 143.578 31.6744C143.578 32.5107 144.256 33.1886 145.092 33.1886Z" fill="#7DBF9D"/>
<path d="M149.36 33.1886C150.196 33.1886 150.874 32.5107 150.874 31.6744C150.874 30.8381 150.196 30.1602 149.36 30.1602C148.524 30.1602 147.846 30.8381 147.846 31.6744C147.846 32.5107 148.524 33.1886 149.36 33.1886Z" fill="#7DBF9D"/>
<path d="M153.628 33.1886C154.464 33.1886 155.142 32.5107 155.142 31.6744C155.142 30.8381 154.464 30.1602 153.628 30.1602C152.791 30.1602 152.113 30.8381 152.113 31.6744C152.113 32.5107 152.791 33.1886 153.628 33.1886Z" fill="#7DBF9D"/>
<path d="M157.895 33.1886C158.731 33.1886 159.409 32.5107 159.409 31.6744C159.409 30.8381 158.731 30.1602 157.895 30.1602C157.059 30.1602 156.381 30.8381 156.381 31.6744C156.381 32.5107 157.059 33.1886 157.895 33.1886Z" fill="#7DBF9D"/>
<path d="M162.163 33.1886C162.999 33.1886 163.677 32.5107 163.677 31.6744C163.677 30.8381 162.999 30.1602 162.163 30.1602C161.326 30.1602 160.648 30.8381 160.648 31.6744C160.648 32.5107 161.326 33.1886 162.163 33.1886Z" fill="#7DBF9D"/>
<path d="M166.43 33.1886C167.267 33.1886 167.945 32.5107 167.945 31.6744C167.945 30.8381 167.267 30.1602 166.43 30.1602C165.594 30.1602 164.916 30.8381 164.916 31.6744C164.916 32.5107 165.594 33.1886 166.43 33.1886Z" fill="#7DBF9D"/>
<path d="M147.295 28.7824C148.132 28.7824 148.81 28.1044 148.81 27.2681C148.81 26.4319 148.132 25.7539 147.295 25.7539C146.459 25.7539 145.781 26.4319 145.781 27.2681C145.781 28.1044 146.459 28.7824 147.295 28.7824Z" fill="#7DBF9D"/>
<path d="M151.563 28.7824C152.399 28.7824 153.077 28.1044 153.077 27.2681C153.077 26.4319 152.399 25.7539 151.563 25.7539C150.727 25.7539 150.049 26.4319 150.049 27.2681C150.049 28.1044 150.727 28.7824 151.563 28.7824Z" fill="#7DBF9D"/>
<path d="M155.831 28.7824C156.667 28.7824 157.345 28.1044 157.345 27.2681C157.345 26.4319 156.667 25.7539 155.831 25.7539C154.994 25.7539 154.316 26.4319 154.316 27.2681C154.316 28.1044 154.994 28.7824 155.831 28.7824Z" fill="#7DBF9D"/>
<path d="M160.098 28.7824C160.935 28.7824 161.612 28.1044 161.612 27.2681C161.612 26.4319 160.935 25.7539 160.098 25.7539C159.262 25.7539 158.584 26.4319 158.584 27.2681C158.584 28.1044 159.262 28.7824 160.098 28.7824Z" fill="#7DBF9D"/>
<path d="M164.366 28.7824C165.202 28.7824 165.88 28.1044 165.88 27.2681C165.88 26.4319 165.202 25.7539 164.366 25.7539C163.53 25.7539 162.852 26.4319 162.852 27.2681C162.852 28.1044 163.53 28.7824 164.366 28.7824Z" fill="#7DBF9D"/>
<path d="M168.631 28.7824C169.468 28.7824 170.146 28.1044 170.146 27.2681C170.146 26.4319 169.468 25.7539 168.631 25.7539C167.795 25.7539 167.117 26.4319 167.117 27.2681C167.117 28.1044 167.795 28.7824 168.631 28.7824Z" fill="#7DBF9D"/>
<path d="M147.295 37.5929C148.132 37.5929 148.81 36.915 148.81 36.0787C148.81 35.2424 148.132 34.5645 147.295 34.5645C146.459 34.5645 145.781 35.2424 145.781 36.0787C145.781 36.915 146.459 37.5929 147.295 37.5929Z" fill="#7DBF9D"/>
<path d="M151.563 37.5929C152.399 37.5929 153.077 36.915 153.077 36.0787C153.077 35.2424 152.399 34.5645 151.563 34.5645C150.727 34.5645 150.049 35.2424 150.049 36.0787C150.049 36.915 150.727 37.5929 151.563 37.5929Z" fill="#7DBF9D"/>
<path d="M155.831 37.5929C156.667 37.5929 157.345 36.915 157.345 36.0787C157.345 35.2424 156.667 34.5645 155.831 34.5645C154.994 34.5645 154.316 35.2424 154.316 36.0787C154.316 36.915 154.994 37.5929 155.831 37.5929Z" fill="#7DBF9D"/>
<path d="M160.098 37.5929C160.935 37.5929 161.612 36.915 161.612 36.0787C161.612 35.2424 160.935 34.5645 160.098 34.5645C159.262 34.5645 158.584 35.2424 158.584 36.0787C158.584 36.915 159.262 37.5929 160.098 37.5929Z" fill="#7DBF9D"/>
<path d="M164.366 37.5929C165.202 37.5929 165.88 36.915 165.88 36.0787C165.88 35.2424 165.202 34.5645 164.366 34.5645C163.53 34.5645 162.852 35.2424 162.852 36.0787C162.852 36.915 163.53 37.5929 164.366 37.5929Z" fill="#7DBF9D"/>
<path d="M168.631 37.5929C169.468 37.5929 170.146 36.915 170.146 36.0787C170.146 35.2424 169.468 34.5645 168.631 34.5645C167.795 34.5645 167.117 35.2424 167.117 36.0787C167.117 36.915 167.795 37.5929 168.631 37.5929Z" fill="#7DBF9D"/>
</g>
<path d="M116.127 109.643C116.012 109.95 115.255 111.731 115.389 112.139C115.633 112.877 119.353 114.131 119.59 114.023C119.828 113.915 120.07 113.574 119.957 113.408C119.845 113.242 118.518 112.334 118.376 112.11C118.234 111.886 118.246 111.011 118.503 110.643" fill="#1F161E"/>
<path d="M132.609 47.6367C133.55 48.5339 147.188 61.3186 147.188 68.0361C147.188 70.0682 143.308 99.852 142.872 100.458H139.501C139.501 100.458 138.017 75.6441 139.198 70.7949C138.322 70.4024 130.294 67.444 126.733 64.2725C123.171 61.101 125.719 48.8972 132.609 47.6367Z" fill="#1F161E"/>
<path d="M132.608 47.6383C133.668 47.8356 119.013 110.732 119.013 110.732H115.373C115.373 110.732 116.755 51.2023 117.548 48.3044C121.324 47.1022 129.757 47.1022 132.608 47.6383Z" fill="#EF5350"/>
<path d="M113.078 23.5146C116.962 20.6168 130.25 20.6167 144.017 21.1977C145.645 21.2672 150.264 10.9228 152.233 9.45146C154.402 7.83207 157.858 9.29446 157.858 10.1557C157.858 12.0353 155.394 12.0802 154.873 12.688C154.351 13.2958 149.692 27.7672 145.757 29.898C144.485 30.5888 135.077 30.36 134.42 31.2594C133.762 32.1588 133.16 47.0788 132.611 47.6328C132.062 48.1868 119.057 48.6466 117.56 48.3057C117.477 47.1461 115.726 37.5284 115.287 36.7748C115.046 36.7524 111.546 42.9608 111.548 43.7436C111.548 44.7753 117.537 53.4195 120.047 54.8999C120.697 55.2812 120.602 56.3668 120.483 56.6314C120.365 56.8961 119.468 58.2015 118.908 58.2015C118.348 58.2015 105.296 49.9094 105.001 43.6606C104.923 41.9717 108.073 27.2603 113.078 23.5146Z" fill="#5E4521"/>
<path d="M139.953 100.078C139.953 100.408 139.847 102.359 140.112 102.689C140.589 103.283 144.485 103.046 144.669 102.855C144.854 102.664 144.968 102.258 144.805 102.142C144.642 102.025 143.096 101.677 142.897 101.523C142.698 101.368 142.405 100.545 142.518 100.105" fill="#1F161E"/>
<path d="M124.66 22.5892C124.732 23.4729 120.145 23.9529 120.069 23.0042L119.594 17.0963L124.186 16.6836L124.66 22.5892Z" fill="#F8CDBA"/>
<path d="M119.877 20.6259C119.835 20.1011 120.825 18.1879 121.723 18.4144C120.613 18.1071 119.966 16.7793 119.604 17.0978L119.877 20.6259Z" fill="black"/>
<path d="M123.578 18.7227C126.885 18.7227 129.565 15.8869 129.565 12.3887C129.565 8.89053 126.885 6.05469 123.578 6.05469C120.272 6.05469 117.592 8.89053 117.592 12.3887C117.592 15.8869 120.272 18.7227 123.578 18.7227Z" fill="#F8CDBA"/>
<path d="M129.724 13.2398C130.273 13.1902 130.699 12.9049 130.674 12.6025C130.65 12.3001 130.185 12.0952 129.636 12.1447C129.086 12.1942 128.66 12.4795 128.685 12.7819C128.709 13.0843 129.174 13.2893 129.724 13.2398Z" fill="#FA9E9F"/>
<path d="M123.466 13.8042C124.015 13.7547 124.441 13.4694 124.417 13.167C124.392 12.8646 123.927 12.6596 123.378 12.7091C122.828 12.7587 122.403 13.044 122.427 13.3464C122.451 13.6488 122.916 13.8537 123.466 13.8042Z" fill="#FA9E9F"/>
<path d="M127.16 11.7754C127.372 12.0401 128.419 13.1324 127.448 13.7021" stroke="#1F161E" stroke-width="0.380963" stroke-miterlimit="10" stroke-linecap="round"/>
<path d="M125.552 15.2607C125.253 15.2764 124.761 14.9355 124.492 14.6035" stroke="#1F161E" stroke-width="0.380963" stroke-miterlimit="10" stroke-linecap="round"/>
<path d="M117.581 9.22455C117.405 7.03321 120.161 5.14243 122.171 4.96299C125.368 4.67366 127.159 4.74991 128.912 4.1376C131.422 3.26285 131.376 6.82911 131.41 7.23508C131.545 8.94194 131.043 10.0544 129.29 10.4851C129.122 9.89523 128.866 9.3373 128.533 8.83204C128.022 8.67449 127.476 8.71343 126.99 8.94194C126.551 9.15054 122.917 11.3778 120.117 11.6335C119.788 12.2189 119.241 15.6887 119.6 17.0995C118.781 17.2228 117.043 14.5358 116.844 13.0622C116.785 12.5572 116.838 12.0446 117 11.5655C117.162 11.0863 117.428 10.6541 117.776 10.3034C117.721 9.99388 117.596 9.39726 117.581 9.22455Z" fill="black"/>
<path d="M119.967 14.4132C120.695 14.4132 121.286 13.7886 121.286 13.0181C121.286 12.2477 120.695 11.623 119.967 11.623C119.239 11.623 118.648 12.2477 118.648 13.0181C118.648 13.7886 119.239 14.4132 119.967 14.4132Z" fill="#F8CDBA"/>
<path d="M120.036 54.8972C117.526 53.4169 111.539 44.7727 111.537 43.7409C111.537 43.2385 112.972 40.5089 114.068 38.6181L107.056 34.6055C105.703 38.867 104.963 42.8325 105.004 43.6602C105.296 49.909 118.338 58.1876 118.898 58.1876C119.457 58.1876 120.354 56.8934 120.473 56.6175C120.591 56.3417 120.689 55.2785 120.036 54.8972Z" fill="#F8CDBA"/>
<path d="M152.233 9.45927C150.264 10.9306 145.644 21.2705 144.008 21.2055C141.237 21.0888 142.833 21.1472 140.175 21.0978L140.16 30.4217C143.245 30.4217 144.869 30.379 145.746 29.9058C149.683 27.775 154.345 13.3081 154.862 12.6958C155.379 12.0835 157.847 12.0431 157.847 10.1636C157.857 9.30227 154.395 7.83988 152.233 9.45927Z" fill="#F8CDBA"/>
<defs>
<clipPath id="clip0_7013_221939">
<rect width="137.383" height="104.345" fill="white" transform="translate(142.617 10.543)"/>
</clipPath>
</defs>
</svg>
