<svg width="440" height="160" viewBox="0 0 440 160" fill="none" xmlns="http://www.w3.org/2000/svg">
<g clip-path="url(#clip0_8997_281112)">
<path d="M348.684 32H210.119C208.127 32 206.512 33.6151 206.512 35.6075V132.93C206.512 134.922 208.127 136.537 210.119 136.537H348.684C350.676 136.537 352.291 134.922 352.291 132.93V35.6075C352.291 33.6151 350.676 32 348.684 32Z" fill="#7DBF9D"/>
<path d="M210.119 32H348.684C349.641 32 350.558 32.3801 351.235 33.0566C351.911 33.7331 352.291 34.6507 352.291 35.6075V121.387H206.512V35.6075C206.512 34.6507 206.892 33.7331 207.568 33.0566C208.245 32.3801 209.162 32 210.119 32Z" fill="#999999"/>
<path d="M346.399 37.5547H211.225V114.99H346.399V37.5547Z" fill="white"/>
<path d="M291.977 159.599H266.028C265.302 159.599 264.584 159.444 263.922 159.144C263.261 158.845 262.671 158.407 262.192 157.861C261.713 157.315 261.357 156.674 261.146 155.979C260.935 155.284 260.875 154.552 260.969 153.832L263.242 136.537H294.889L297.04 153.876C297.128 154.593 297.063 155.32 296.849 156.01C296.635 156.7 296.276 157.337 295.798 157.878C295.319 158.419 294.731 158.852 294.072 159.149C293.413 159.446 292.699 159.599 291.977 159.599Z" fill="#999999"/>
<path opacity="0.8" d="M279.399 132.834C281.631 132.834 283.44 131.025 283.44 128.794C283.44 126.563 281.631 124.754 279.399 124.754C277.168 124.754 275.359 126.563 275.359 128.794C275.359 131.025 277.168 132.834 279.399 132.834Z" fill="#99ABC5"/>
<path opacity="0.8" d="M364.998 42.1836H281.84V79.0493H364.998V42.1836Z" fill="#99ABC5"/>
<path d="M197 85.6152H276.287" stroke="#666883" stroke-width="0.592545" stroke-miterlimit="10"/>
<path d="M197 91.7598H276.287" stroke="#666883" stroke-width="0.592545" stroke-miterlimit="10"/>
<path d="M197 97.9883H276.287" stroke="#666883" stroke-width="0.592545" stroke-miterlimit="10"/>
<path d="M197 104.217H276.287" stroke="#666883" stroke-width="0.592545" stroke-miterlimit="10"/>
<path d="M200.029 48.9183C201.052 48.9183 201.881 48.0892 201.881 47.0665C201.881 46.0439 201.052 45.2148 200.029 45.2148C199.007 45.2148 198.178 46.0439 198.178 47.0665C198.178 48.0892 199.007 48.9183 200.029 48.9183Z" fill="#7DBF9D"/>
<path d="M205.248 48.9183C206.271 48.9183 207.1 48.0892 207.1 47.0665C207.1 46.0439 206.271 45.2148 205.248 45.2148C204.226 45.2148 203.396 46.0439 203.396 47.0665C203.396 48.0892 204.226 48.9183 205.248 48.9183Z" fill="#7DBF9D"/>
<path d="M210.467 48.9183C211.49 48.9183 212.319 48.0892 212.319 47.0665C212.319 46.0439 211.49 45.2148 210.467 45.2148C209.444 45.2148 208.615 46.0439 208.615 47.0665C208.615 48.0892 209.444 48.9183 210.467 48.9183Z" fill="#7DBF9D"/>
<path d="M215.686 48.9183C216.708 48.9183 217.537 48.0892 217.537 47.0665C217.537 46.0439 216.708 45.2148 215.686 45.2148C214.663 45.2148 213.834 46.0439 213.834 47.0665C213.834 48.0892 214.663 48.9183 215.686 48.9183Z" fill="#7DBF9D"/>
<path d="M220.904 48.9183C221.927 48.9183 222.756 48.0892 222.756 47.0665C222.756 46.0439 221.927 45.2148 220.904 45.2148C219.882 45.2148 219.053 46.0439 219.053 47.0665C219.053 48.0892 219.882 48.9183 220.904 48.9183Z" fill="#7DBF9D"/>
<path d="M226.123 48.9183C227.146 48.9183 227.975 48.0892 227.975 47.0665C227.975 46.0439 227.146 45.2148 226.123 45.2148C225.101 45.2148 224.271 46.0439 224.271 47.0665C224.271 48.0892 225.101 48.9183 226.123 48.9183Z" fill="#7DBF9D"/>
<path d="M200.029 59.6917C201.052 59.6917 201.881 58.8627 201.881 57.84C201.881 56.8173 201.052 55.9883 200.029 55.9883C199.007 55.9883 198.178 56.8173 198.178 57.84C198.178 58.8627 199.007 59.6917 200.029 59.6917Z" fill="#7DBF9D"/>
<path d="M205.248 59.6917C206.271 59.6917 207.1 58.8627 207.1 57.84C207.1 56.8173 206.271 55.9883 205.248 55.9883C204.226 55.9883 203.396 56.8173 203.396 57.84C203.396 58.8627 204.226 59.6917 205.248 59.6917Z" fill="#7DBF9D"/>
<path d="M210.467 59.6917C211.49 59.6917 212.319 58.8627 212.319 57.84C212.319 56.8173 211.49 55.9883 210.467 55.9883C209.444 55.9883 208.615 56.8173 208.615 57.84C208.615 58.8627 209.444 59.6917 210.467 59.6917Z" fill="#7DBF9D"/>
<path d="M215.686 59.6917C216.708 59.6917 217.537 58.8627 217.537 57.84C217.537 56.8173 216.708 55.9883 215.686 55.9883C214.663 55.9883 213.834 56.8173 213.834 57.84C213.834 58.8627 214.663 59.6917 215.686 59.6917Z" fill="#7DBF9D"/>
<path d="M220.904 59.6917C221.927 59.6917 222.756 58.8627 222.756 57.84C222.756 56.8173 221.927 55.9883 220.904 55.9883C219.882 55.9883 219.053 56.8173 219.053 57.84C219.053 58.8627 219.882 59.6917 220.904 59.6917Z" fill="#7DBF9D"/>
<path d="M226.123 59.6917C227.146 59.6917 227.975 58.8627 227.975 57.84C227.975 56.8173 227.146 55.9883 226.123 55.9883C225.101 55.9883 224.271 56.8173 224.271 57.84C224.271 58.8627 225.101 59.6917 226.123 59.6917Z" fill="#7DBF9D"/>
<path d="M202.723 54.305C203.745 54.305 204.575 53.4759 204.575 52.4533C204.575 51.4306 203.745 50.6016 202.723 50.6016C201.7 50.6016 200.871 51.4306 200.871 52.4533C200.871 53.4759 201.7 54.305 202.723 54.305Z" fill="#7DBF9D"/>
<path d="M207.942 54.305C208.964 54.305 209.793 53.4759 209.793 52.4533C209.793 51.4306 208.964 50.6016 207.942 50.6016C206.919 50.6016 206.09 51.4306 206.09 52.4533C206.09 53.4759 206.919 54.305 207.942 54.305Z" fill="#7DBF9D"/>
<path d="M213.16 54.305C214.183 54.305 215.012 53.4759 215.012 52.4533C215.012 51.4306 214.183 50.6016 213.16 50.6016C212.138 50.6016 211.309 51.4306 211.309 52.4533C211.309 53.4759 212.138 54.305 213.16 54.305Z" fill="#7DBF9D"/>
<path d="M218.379 54.305C219.402 54.305 220.231 53.4759 220.231 52.4533C220.231 51.4306 219.402 50.6016 218.379 50.6016C217.356 50.6016 216.527 51.4306 216.527 52.4533C216.527 53.4759 217.356 54.305 218.379 54.305Z" fill="#7DBF9D"/>
<path d="M223.598 54.305C224.62 54.305 225.45 53.4759 225.45 52.4533C225.45 51.4306 224.62 50.6016 223.598 50.6016C222.575 50.6016 221.746 51.4306 221.746 52.4533C221.746 53.4759 222.575 54.305 223.598 54.305Z" fill="#7DBF9D"/>
<path d="M228.815 54.305C229.837 54.305 230.666 53.4759 230.666 52.4533C230.666 51.4306 229.837 50.6016 228.815 50.6016C227.792 50.6016 226.963 51.4306 226.963 52.4533C226.963 53.4759 227.792 54.305 228.815 54.305Z" fill="#7DBF9D"/>
<path d="M202.723 65.0784C203.745 65.0784 204.575 64.2494 204.575 63.2267C204.575 62.204 203.745 61.375 202.723 61.375C201.7 61.375 200.871 62.204 200.871 63.2267C200.871 64.2494 201.7 65.0784 202.723 65.0784Z" fill="#7DBF9D"/>
<path d="M207.942 65.0784C208.964 65.0784 209.793 64.2494 209.793 63.2267C209.793 62.204 208.964 61.375 207.942 61.375C206.919 61.375 206.09 62.204 206.09 63.2267C206.09 64.2494 206.919 65.0784 207.942 65.0784Z" fill="#7DBF9D"/>
<path d="M213.16 65.0784C214.183 65.0784 215.012 64.2494 215.012 63.2267C215.012 62.204 214.183 61.375 213.16 61.375C212.138 61.375 211.309 62.204 211.309 63.2267C211.309 64.2494 212.138 65.0784 213.16 65.0784Z" fill="#7DBF9D"/>
<path d="M218.379 65.0784C219.402 65.0784 220.231 64.2494 220.231 63.2267C220.231 62.204 219.402 61.375 218.379 61.375C217.356 61.375 216.527 62.204 216.527 63.2267C216.527 64.2494 217.356 65.0784 218.379 65.0784Z" fill="#7DBF9D"/>
<path d="M223.598 65.0784C224.62 65.0784 225.45 64.2494 225.45 63.2267C225.45 62.204 224.62 61.375 223.598 61.375C222.575 61.375 221.746 62.204 221.746 63.2267C221.746 64.2494 222.575 65.0784 223.598 65.0784Z" fill="#7DBF9D"/>
<path d="M228.815 65.0784C229.837 65.0784 230.666 64.2494 230.666 63.2267C230.666 62.204 229.837 61.375 228.815 61.375C227.792 61.375 226.963 62.204 226.963 63.2267C226.963 64.2494 227.792 65.0784 228.815 65.0784Z" fill="#7DBF9D"/>
</g>
<path d="M164.607 153.186C164.467 153.561 163.541 155.739 163.705 156.238C164.003 157.141 168.553 158.674 168.843 158.542C169.133 158.411 169.429 157.994 169.291 157.791C169.154 157.588 167.531 156.477 167.357 156.203C167.184 155.928 167.199 154.859 167.513 154.409" fill="#1F161E"/>
<path d="M184.763 77.3613C185.914 78.4584 202.59 94.0923 202.59 102.307C202.59 104.792 197.846 141.213 197.312 141.954H193.19C193.19 141.954 191.376 111.61 192.82 105.681C191.749 105.201 181.932 101.583 177.577 97.7045C173.221 93.8262 176.337 78.9028 184.763 77.3613Z" fill="#1F161E"/>
<path d="M184.761 77.3612C186.058 77.6026 168.137 154.516 168.137 154.516H163.686C163.686 154.516 165.376 81.7195 166.345 78.1759C170.962 76.7057 181.275 76.7057 184.761 77.3612Z" fill="#EF5350"/>
<path d="M160.879 47.8638C165.628 44.3202 181.877 44.3202 198.712 45.0305C200.703 45.1156 206.351 32.4659 208.76 30.6666C211.412 28.6863 215.637 30.4746 215.637 31.5278C215.637 33.8263 212.625 33.8812 211.987 34.6244C211.349 35.3677 205.651 53.0641 200.84 55.6698C199.285 56.5146 187.78 56.2348 186.976 57.3347C186.172 58.4345 185.436 76.6795 184.765 77.3569C184.093 78.0344 168.189 78.5967 166.359 78.1798C166.258 76.7618 164.117 65.0007 163.58 64.0791C163.284 64.0517 159.004 71.6437 159.007 72.601C159.007 73.8626 166.33 84.4333 169.4 86.2435C170.196 86.7098 170.079 88.0373 169.934 88.361C169.789 88.6846 168.692 90.2809 168.008 90.2809C167.323 90.2809 151.362 80.1409 151.002 72.4995C150.906 70.4342 154.758 52.4443 160.879 47.8638Z" fill="#5E4521"/>
<path d="M193.742 141.49C193.742 141.893 193.613 144.28 193.937 144.683C194.52 145.41 199.285 145.119 199.51 144.886C199.736 144.653 199.876 144.156 199.676 144.014C199.477 143.871 197.587 143.446 197.343 143.257C197.1 143.067 196.742 142.061 196.879 141.523" fill="#1F161E"/>
<path d="M175.041 46.7335C175.13 47.8141 169.52 48.4011 169.426 47.2409L168.846 40.0164L174.461 39.5117L175.041 46.7335Z" fill="#F8CDBA"/>
<path d="M169.192 44.3313C169.14 43.6895 170.351 41.3499 171.45 41.6269C170.091 41.2512 169.301 39.6274 168.857 40.0169L169.192 44.3313Z" fill="black"/>
<path d="M173.719 42.0049C177.762 42.0049 181.04 38.5371 181.04 34.2593C181.04 29.9815 177.762 26.5137 173.719 26.5137C169.676 26.5137 166.398 29.9815 166.398 34.2593C166.398 38.5371 169.676 42.0049 173.719 42.0049Z" fill="#F8CDBA"/>
<path d="M181.235 35.2978C181.907 35.2372 182.427 34.8884 182.397 34.5186C182.367 34.1488 181.799 33.8981 181.127 33.9587C180.455 34.0193 179.934 34.3681 179.964 34.7379C179.994 35.1077 180.563 35.3584 181.235 35.2978Z" fill="#FA9E9F"/>
<path d="M173.58 35.9892C174.252 35.9286 174.773 35.5798 174.743 35.21C174.713 34.8402 174.144 34.5895 173.472 34.6501C172.801 34.7107 172.28 35.0595 172.31 35.4293C172.34 35.7991 172.908 36.0498 173.58 35.9892Z" fill="#FA9E9F"/>
<path d="M178.098 33.5078C178.357 33.8315 179.638 35.1672 178.45 35.8639" stroke="#1F161E" stroke-width="0.465864" stroke-miterlimit="10" stroke-linecap="round"/>
<path d="M176.132 37.7704C175.767 37.7896 175.165 37.3727 174.836 36.9668" stroke="#1F161E" stroke-width="0.465864" stroke-miterlimit="10" stroke-linecap="round"/>
<path d="M166.386 30.3889C166.171 27.7092 169.541 25.397 171.998 25.1776C175.908 24.8238 178.098 24.917 180.242 24.1683C183.311 23.0986 183.254 27.4596 183.296 27.956C183.462 30.0433 182.847 31.4037 180.703 31.9303C180.498 31.209 180.185 30.5268 179.778 29.9089C179.154 29.7162 178.485 29.7638 177.891 30.0433C177.354 30.2984 172.911 33.0219 169.486 33.3346C169.084 34.0505 168.416 38.2936 168.854 40.0188C167.853 40.1696 165.727 36.8838 165.484 35.0818C165.411 34.4643 165.477 33.8374 165.675 33.2515C165.873 32.6656 166.198 32.137 166.624 31.7082C166.557 31.3297 166.404 30.6001 166.386 30.3889Z" fill="black"/>
<path d="M169.302 36.7323C170.192 36.7323 170.914 35.9685 170.914 35.0263C170.914 34.0841 170.192 33.3203 169.302 33.3203C168.411 33.3203 167.689 34.0841 167.689 35.0263C167.689 35.9685 168.411 36.7323 169.302 36.7323Z" fill="#F8CDBA"/>
<path d="M169.386 86.2397C166.317 84.4295 158.996 73.8588 158.994 72.5971C158.994 71.9827 160.749 68.6448 162.089 66.3326L153.513 61.4258C151.859 66.6371 150.955 71.4863 151.004 72.4984C151.362 80.1398 167.31 90.2634 167.994 90.2634C168.679 90.2634 169.775 88.6808 169.92 88.3434C170.066 88.006 170.185 86.706 169.386 86.2397Z" fill="#F8CDBA"/>
<path d="M208.76 30.6764C206.351 32.4756 200.703 45.1199 198.701 45.0403C195.313 44.8977 197.265 44.969 194.014 44.9087L193.996 56.3104C197.768 56.3104 199.754 56.2583 200.827 55.6795C205.641 53.0739 211.342 35.383 211.974 34.6342C212.607 33.8854 215.624 33.8361 215.624 31.5376C215.637 30.4844 211.404 28.6961 208.76 30.6764Z" fill="#F8CDBA"/>
<defs>
<clipPath id="clip0_8997_281112">
<rect width="168" height="127.599" fill="white" transform="translate(197 32)"/>
</clipPath>
</defs>
</svg>
