<svg width="314" height="115" viewBox="0 0 314 115" fill="none" xmlns="http://www.w3.org/2000/svg">
<g clip-path="url(#clip0_7013_221932)">
<path d="M0 8C0 3.58172 3.58172 0 8 0H306C310.418 0 314 3.58172 314 8V115H0V8Z" fill="#EAEAEA"/>
<path d="M292.245 100.611C292.657 100.611 295.08 100.46 295.491 100.806C296.233 101.43 295.953 106.555 295.716 106.811C295.479 107.066 294.978 107.204 294.831 106.991C294.683 106.778 294.248 104.745 294.053 104.472C293.858 104.198 291.651 103.739 291.102 103.889" fill="#1F161E"/>
<path d="M199.943 99.0039L199.855 111.665" stroke="black" stroke-width="1.25849" stroke-miterlimit="10" stroke-linecap="round"/>
<path d="M223.997 82.7051C223.559 83.5277 223.907 88.4096 202.554 103.596C202.114 103.782 201.719 104.061 201.396 104.414C201.073 104.767 200.83 105.185 200.684 105.64C200.684 105.64 201.014 106.841 201.951 106.523C202.887 106.205 219.007 100.272 226.987 94.6486C229.023 93.2615 233.121 87.4188 233.121 87.4188L223.997 82.7051Z" fill="#F8CDBA"/>
<path d="M236.361 81.5938C236.979 82.6596 241.354 91.958 241.354 92.9067C241.354 93.8555 240.681 103.487 238.856 109.261C238.168 109.354 235.854 109.729 235.854 111.113C235.854 111.494 236.679 112.731 238.61 112.728C239.231 112.728 241.51 112.017 241.984 111.257C242.459 110.498 247.689 95.1885 247.785 93.288C247.881 91.3875 247.452 84.7793 246.833 83.5423C246.215 82.3053 236.361 81.5938 236.361 81.5938Z" fill="#1F161E"/>
<path d="M255.747 84.9531C253.678 87.0698 250.115 108.372 251.304 110.891C252.492 113.41 255.747 113.061 255.747 113.061C255.747 113.061 292.484 107.585 292.95 107.015C293.415 106.444 293.517 100.764 292.379 99.9891C291.241 99.2145 274.296 98.3017 271.194 99.0163C268.093 99.7309 262.773 86.4063 262.773 86.4063L255.747 84.9531Z" fill="#1F161E"/>
<path d="M296.273 104.661C296.684 104.661 299.107 104.511 299.518 104.857C300.26 105.481 299.981 110.606 299.744 110.861C299.506 111.117 299.005 111.255 298.858 111.041C298.711 110.828 298.275 108.799 298.08 108.522C297.885 108.246 295.678 107.79 295.129 107.94" fill="#1F161E"/>
<path d="M232.021 62.5944C231.096 62.7235 228.932 66.6206 229.886 72.5743C226.584 76.2492 226.629 77.9546 223.281 84.0074C224.87 85.2083 231.442 89.7119 231.442 89.7119C231.442 89.7119 236.486 82.5632 236.948 82.6443C238.683 83.3589 249.717 86.6345 259.883 86.6134C262.186 86.6134 273.064 74.5439 272.586 73.2739C272.109 72.0038 250.117 60.0754 232.021 62.5944Z" fill="#7DBF9D"/>
<path d="M271.25 72.9375C272.028 73.1777 281.617 77.4411 281.497 83.0645C281.341 90.2523 272.328 102.298 271.25 103.676C273.286 103.736 293.84 103.496 296.416 104.156C297.254 104.336 296.716 107.759 296.416 108.231C296.116 108.702 277.324 113.893 254.77 115.436C253.392 115.529 253.034 113.518 252.794 112.5C252.554 111.482 256.259 92.3269 260.582 84.9981C261.075 84.1484 271.25 72.9375 271.25 72.9375Z" fill="#FA9E9F"/>
<path d="M200.639 107.966C202.466 107.966 203.947 107.048 203.947 105.916C203.947 104.783 202.466 103.865 200.639 103.865C198.811 103.865 197.33 104.783 197.33 105.916C197.33 107.048 198.811 107.966 200.639 107.966Z" fill="#F8CDBA"/>
<path d="M218.779 57.9014C218.371 57.8654 217.005 56.1631 217.734 52.356C218.617 51.2001 221.538 50.8338 221.637 52.1429C221.736 53.4519 220.025 58.0185 218.779 57.9014Z" fill="#1F161E"/>
<path d="M230.391 67.6574C231.255 68.1198 233.288 64.4659 232.354 63.9705L226.545 60.875L224.578 64.5649L230.391 67.6574Z" fill="#F8CDBA"/>
<path d="M230.013 62.7206C229.493 62.4473 227.227 62.4203 227.155 63.273C227.218 62.1951 226.095 61.0452 226.554 60.8711L230.013 62.7206Z" fill="black"/>
<path d="M223.928 65.0597C226.926 65.0597 229.357 62.6294 229.357 59.6314C229.357 56.6335 226.926 54.2031 223.928 54.2031C220.93 54.2031 218.5 56.6335 218.5 59.6314C218.5 62.6294 220.93 65.0597 223.928 65.0597Z" fill="#F8CDBA"/>
<path d="M218.655 61.5665C219.152 61.4983 219.525 61.234 219.49 60.9761C219.454 60.7182 219.023 60.5644 218.527 60.6325C218.031 60.7006 217.658 60.9649 217.693 61.2229C217.728 61.4808 218.159 61.6346 218.655 61.5665Z" fill="#FA9E9F"/>
<path d="M224.294 60.7911C224.79 60.7229 225.164 60.4586 225.128 60.2007C225.093 59.9428 224.662 59.789 224.166 59.8571C223.67 59.9252 223.296 60.1895 223.332 60.4475C223.367 60.7054 223.798 60.8592 224.294 60.7911Z" fill="#FA9E9F"/>
<path d="M220.647 59.8301C220.515 60.0913 219.789 61.2052 220.749 61.5054" stroke="#1F161E" stroke-width="0.289453" stroke-miterlimit="10" stroke-linecap="round"/>
<path d="M222.725 62.4228C222.992 62.3777 223.364 61.9934 223.544 61.6602" stroke="#1F161E" stroke-width="0.289453" stroke-miterlimit="10" stroke-linecap="round"/>
<path d="M225.905 47.9339C233.087 47.9339 238.245 49.1138 241.607 49.1138C246.781 49.1138 250.864 46.793 256.661 46.793C259.306 46.793 266.086 49.0388 266.086 56.6408C266.086 60.9492 263.684 69.506 253.395 69.506C244.586 69.506 243.049 65.7801 239.479 65.7801C235.714 65.7801 228.712 67.5545 227.529 62.7536C227.274 61.4776 226.986 59.9134 226.277 58.6284C222.332 57.2563 221.05 57.3764 219.198 56.2775C216.513 55.0015 216.387 47.9339 225.905 47.9339Z" fill="#1F161E"/>
<path d="M227.242 60.6301C227.902 60.6301 228.437 60.0951 228.437 59.4352C228.437 58.7752 227.902 58.2402 227.242 58.2402C226.582 58.2402 226.047 58.7752 226.047 59.4352C226.047 60.0951 226.582 60.6301 227.242 60.6301Z" fill="#F8CDBA"/>
<g clip-path="url(#clip1_7013_221932)">
<path d="M176.598 111.441C177.203 111.456 180.796 111.726 181.413 111.223C182.531 110.314 182.229 102.682 181.885 102.315C181.54 101.948 180.799 101.709 180.576 102.027C180.352 102.345 179.669 105.36 179.367 105.757C179.064 106.154 177.553 106.687 176.743 106.448" fill="#1F161E"/>
<path d="M104.787 93.1593C105.619 92.1746 134.067 71.0417 139.674 71.1508C145.281 71.2599 161.688 105.388 161.376 106.536C161.065 107.684 152.381 105.8 151.142 104.754C149.903 103.709 141.243 94.5227 139.091 89.8781C138.245 91.1082 131.274 99.2038 129.192 100.51C127.109 101.815 104.787 93.1593 104.787 93.1593Z" fill="#1F161E"/>
<path d="M177.509 111.644C177.037 112.02 94.8952 113.535 88.1064 111.644C81.3177 109.753 79.5253 109.941 79.6189 105.972C79.7127 102.003 92.9184 91.8867 94.6141 91.8867C97.2135 91.8867 123.957 94.0076 145.167 101.852C153.63 103.239 176.904 105.857 176.904 105.857C177.285 107.245 177.968 109.802 177.509 111.644Z" fill="#FFCC80"/>
<path d="M75.1988 54.932C70.7707 56.8983 65.324 82.3093 66.0645 83.1425C66.805 83.9757 73.083 86.8419 73.083 86.8419C73.2039 93.0288 78.433 107.838 80.0017 108.484C91.0281 105.339 97.8108 95.5374 97.8108 92.853C97.8108 90.1686 106.208 92.2259 106.854 91.4775C107.156 91.1672 107.499 90.9001 107.873 90.6837C107.873 90.6837 103.339 86.7449 99.7936 84.1878C99.9176 83.094 100.867 62.5974 99.6425 60.6704C97.2063 56.8498 80.718 52.4808 75.1988 54.932Z" fill="#7DBF9D"/>
<path d="M73.043 86.8359C74.252 87.4086 85.2331 92.1532 90.0391 93.1591" stroke="#1F161E" stroke-width="0.166843" stroke-miterlimit="10" stroke-linecap="round"/>
<path d="M79.926 70.4453C79.3547 71.6572 75.8395 78.6409 76.2687 79.359C76.6979 80.0771 96.7135 89.424 98.4727 89.9936" stroke="#1F161E" stroke-width="0.166843" stroke-miterlimit="10" stroke-linecap="round"/>
<path d="M96.5273 68.6484C96.6392 71.2359 96.5666 83.8884 96.1374 88.5603" stroke="#1F161E" stroke-width="0.166843" stroke-miterlimit="10" stroke-linecap="round"/>
<path d="M98.4723 89.9936C98.2909 90.3723 97.0275 94.0293 96.8945 94.8231C96.7615 95.6169 101.93 96.6652 103.732 96.5773C105.533 96.4895 107.73 94.814 107.73 92.8325C107.73 90.851 105.025 89.4482 98.4723 89.9936Z" fill="#EED0C3"/>
<path d="M91.1926 57.6616C91.0113 58.5251 86.2597 57.598 86.4502 56.6709L87.6532 50.9082L92.3926 51.899L91.1926 57.6616Z" fill="#EED0C3"/>
<path d="M86.9362 54.3439C87.042 53.8319 88.5835 52.3079 89.4238 52.7926C88.3931 52.1655 88.1211 50.7051 87.6526 50.896L86.9362 54.3439Z" fill="black"/>
<path d="M93.0049 53.9167C89.531 53.9167 86.7149 51.0938 86.7149 47.6117C86.7149 44.1295 89.531 41.3066 93.0049 41.3066C96.4788 41.3066 99.2949 44.1295 99.2949 47.6117C99.2949 51.0938 96.4788 53.9167 93.0049 53.9167Z" fill="#EED0C3"/>
<path d="M98.9431 50.2807C98.376 50.1621 97.9664 49.8255 98.0281 49.5291C98.0899 49.2326 98.5996 49.0884 99.1666 49.2071C99.7337 49.3257 100.143 49.6622 100.082 49.9587C100.02 50.2552 99.5101 50.3993 98.9431 50.2807Z" fill="#FA9E9F"/>
<path d="M92.486 48.9291C91.919 48.8105 91.5094 48.474 91.5711 48.1775C91.6329 47.881 92.1426 47.7369 92.7096 47.8555C93.2767 47.9741 93.6863 48.3107 93.6245 48.6071C93.5628 48.9036 93.0531 49.0478 92.486 48.9291Z" fill="#FA9E9F"/>
<path d="M96.783 48.1055C96.9159 48.4084 97.6625 49.7779 96.526 50.0264" stroke="#1F161E" stroke-width="0.209312" stroke-miterlimit="10" stroke-linecap="round"/>
<path d="M94.1758 50.9425C93.8735 50.8698 93.4715 50.3941 93.2902 49.9941" stroke="#1F161E" stroke-width="0.209312" stroke-miterlimit="10" stroke-linecap="round"/>
<path d="M87.8694 42.7824C88.3167 40.6403 91.6295 39.6678 93.703 40.101C97.0037 40.7918 100.857 42.44 101.474 42.8279C102.505 43.452 102.435 44.676 102.351 45.076C102.003 46.7424 101.181 47.6513 99.2948 47.5331C99.2918 46.9149 99.1897 46.3011 98.9925 45.7153C98.5223 45.4118 97.9605 45.2842 97.4057 45.3547C96.9069 45.4214 92.6148 46.4485 89.7252 45.8425C89.2265 46.303 87.688 49.445 87.6457 50.8993C86.7903 50.769 85.8049 47.6816 86.0286 46.2182C86.1127 45.7195 86.3125 45.2475 86.6117 44.8402C86.9109 44.4329 87.3013 44.1017 87.7515 43.8731C87.7938 43.558 87.8361 42.9521 87.8694 42.7824Z" fill="black"/>
<path d="M89.1899 48.5058C88.4253 48.5058 87.8055 47.8845 87.8055 47.1181C87.8055 46.3517 88.4253 45.7305 89.1899 45.7305C89.9544 45.7305 90.5742 46.3517 90.5742 47.1181C90.5742 47.8845 89.9544 48.5058 89.1899 48.5058Z" fill="#EED0C3"/>
</g>
</g>
<defs>
<clipPath id="clip0_7013_221932">
<path d="M0 8C0 3.58172 3.58172 0 8 0H306C310.418 0 314 3.58172 314 8V115H0V8Z" fill="white"/>
</clipPath>
<clipPath id="clip1_7013_221932">
<rect width="116.201" height="72.573" fill="white" transform="matrix(-1 0 0 1 182.201 40)"/>
</clipPath>
</defs>
</svg>
