<svg width="440" height="160" viewBox="0 0 440 160" fill="none" xmlns="http://www.w3.org/2000/svg">
<rect width="440" height="160" fill="#EAEAEA"/>
<g clip-path="url(#clip0_7013_221858)">
<path d="M419.724 116.467C422.408 116.467 424.983 117.54 426.881 119.45C428.78 121.36 429.846 123.95 429.846 126.651C429.846 129.352 428.78 131.942 426.881 133.851C424.983 135.761 422.408 136.834 419.724 136.834H21.2765C18.5918 136.834 16.017 135.761 14.1186 133.851C12.2203 131.942 11.1538 129.352 11.1538 126.651C11.1538 123.95 12.2203 121.36 14.1186 119.45C16.017 117.54 18.5918 116.467 21.2765 116.467H419.724ZM419.724 114.301H21.2765C18.0206 114.301 14.898 115.602 12.5957 117.918C10.2934 120.234 9 123.375 9 126.651C9 129.926 10.2934 133.067 12.5957 135.384C14.898 137.7 18.0206 139.001 21.2765 139.001H419.724C422.979 139.001 426.102 137.7 428.404 135.384C430.707 133.067 432 129.926 432 126.651C432 123.375 430.707 120.234 428.404 117.918C426.102 115.602 422.979 114.301 419.724 114.301Z" fill="#51698F"/>
<path d="M22.1387 126.65H321.943" stroke="#D6B689" stroke-width="35" stroke-miterlimit="10" stroke-linecap="round"/>
<path d="M347.357 74H303.42V96.9667H347.357V74Z" fill="#999CBF"/>
<path fill-rule="evenodd" clip-rule="evenodd" d="M325.483 108.858L333.357 95.0176H317.613L325.483 108.858Z" fill="#999CBF"/>
<path d="M322.318 79.4688C324.179 79.4688 325.363 80.7688 325.363 82.3461C325.363 83.9234 324.179 85.1887 322.318 85.1887C320.457 85.1887 319.303 83.9278 319.303 82.3461C319.303 80.7644 320.47 79.4688 322.318 79.4688ZM328.392 79.6378H330.05L322.822 90.9911H321.185L328.392 79.6378ZM322.318 81.2714C321.792 81.2714 321.37 81.5791 321.37 82.3461C321.352 82.4794 321.363 82.6153 321.402 82.7438C321.442 82.8724 321.51 82.9905 321.601 83.0896C321.691 83.1886 321.803 83.2662 321.927 83.3168C322.051 83.3673 322.184 83.3895 322.318 83.3817C322.453 83.3918 322.589 83.3715 322.716 83.3222C322.843 83.2729 322.957 83.196 323.051 83.0969C323.144 82.9978 323.215 82.879 323.257 82.7492C323.3 82.6194 323.313 82.4817 323.296 82.3461C323.317 82.208 323.307 82.0669 323.266 81.9332C323.226 81.7996 323.156 81.6767 323.062 81.5736C322.968 81.4706 322.853 81.3899 322.724 81.3376C322.595 81.2853 322.457 81.2627 322.318 81.2714ZM328.865 85.4791C330.709 85.4791 331.881 86.7531 331.881 88.3521C331.881 89.9511 330.696 91.1948 328.865 91.1948C327.035 91.1948 325.85 89.9381 325.85 88.3521C325.85 86.7661 327.022 85.4791 328.865 85.4791ZM328.865 87.2817C328.323 87.2817 327.901 87.5894 327.901 88.3521C327.88 88.4874 327.89 88.6257 327.93 88.7566C327.97 88.8874 328.039 89.0074 328.132 89.1075C328.225 89.2076 328.339 89.2852 328.466 89.3345C328.593 89.3838 328.73 89.4035 328.865 89.3921C329.002 89.4031 329.138 89.3832 329.266 89.334C329.393 89.2848 329.508 89.2074 329.602 89.1076C329.696 89.0078 329.766 88.8882 329.808 88.7574C329.85 88.6267 329.862 88.4882 329.843 88.3521C329.863 88.2143 329.853 88.0737 329.812 87.9406C329.771 87.8075 329.701 87.6852 329.608 87.5826C329.514 87.4801 329.399 87.3998 329.27 87.3478C329.142 87.2957 329.004 87.2732 328.865 87.2817Z" fill="white"/>
</g>
<g clip-path="url(#clip1_7013_221858)">
<path d="M209.258 98.358C209.258 98.358 215.808 93.0129 216.613 93.0129C217.418 93.0129 245.728 115.387 250.242 121.202C252.367 120.94 257.5 119.441 257.5 119.441C257.5 119.441 225.277 75.2129 221.382 75.2129C217.488 75.2129 186.426 87.903 186.426 87.903L188.992 96.9745L209.258 98.358Z" fill="#1F161E"/>
<path d="M133.075 74.805C136.363 74.805 139.029 72.1514 139.029 68.8781C139.029 65.6047 136.363 62.9512 133.075 62.9512C129.787 62.9512 127.121 65.6047 127.121 68.8781C127.121 72.1514 129.787 74.805 133.075 74.805Z" fill="#EED0C3"/>
<path d="M155.164 85.4332C156.128 86.4737 164.327 97.8382 164.25 99.2794C164.172 100.721 156.449 121.365 155.807 122.166C156.693 123.045 160.309 125.207 161.195 125.207C162.082 125.207 183.865 98.158 183.865 96.3044C183.865 94.4508 170.389 73.0746 162.616 72.5273" fill="#FB8C00"/>
<path d="M121.998 62.0716C121.998 57.0001 126.322 55.2043 128.653 55.2043C133.248 55.2043 140.115 57.2853 145.163 57.2853C153.734 57.2853 158.902 51 164.151 51C172.517 51 177.003 56.5685 179.206 58.1061C183.658 61.2122 198.829 63.4319 198.829 74.1566C198.829 83.9796 194.091 89.2977 188.296 89.2977C182.501 89.2977 152.793 78.8196 152.793 78.8196C152.793 78.8196 143.27 75.12 142.628 74.3146C141.985 73.5092 137.916 71.54 138.133 65.3433C137.088 64.6073 131.529 67.0466 128.37 65.2354C127.674 66.2187 127.249 67.3669 127.139 68.565C126.372 68.592 121.998 67.3665 121.998 62.0716Z" fill="#1F161E"/>
<path d="M126.224 88.4074C129.708 76.8927 153.14 71.3242 160.41 71.4513C167.68 71.5785 163.96 79.7714 187.632 86.2147C190.098 89.2976 192.073 106.955 189.851 112.235H124.637C124.637 112.235 124.234 91.9451 126.224 88.4074Z" fill="#FB8C00"/>
<path d="M144.295 76.4344C145.1 77.4402 141.658 80.13 140.872 79.1319L135.197 72.0335L138.623 69.3359L144.295 76.4344Z" fill="#EED0C3"/>
<path d="M251.012 120.539C251.17 121.086 251.956 124.35 252.58 124.755C253.71 125.487 260.411 123.063 260.639 122.651C260.868 122.239 260.864 121.518 260.523 121.41C260.183 121.302 257.302 121.537 256.861 121.387C256.42 121.237 255.514 120.038 255.495 119.256" fill="#1F161E"/>
<path d="M286.557 106.363C287.13 106.363 290.49 106.097 291.067 106.563C292.112 107.411 291.841 114.505 291.508 114.848C291.175 115.191 290.49 115.407 290.281 115.114C290.072 114.821 289.425 112.031 289.146 111.646C288.868 111.261 287.447 110.783 286.692 111.002" fill="#1F161E"/>
<path d="M128.179 72.7096C128.781 72.3349 129.109 71.778 128.913 71.4659C128.717 71.1537 128.07 71.2045 127.468 71.5793C126.867 71.954 126.538 72.5109 126.734 72.823C126.93 73.1352 127.577 73.0844 128.179 72.7096Z" fill="#EF9A9A"/>
<path d="M135.023 68.4518C135.624 68.0771 135.953 67.5202 135.757 67.2081C135.561 66.8959 134.914 66.9467 134.312 67.3214C133.71 67.6962 133.382 68.253 133.578 68.5652C133.774 68.8773 134.421 68.8266 135.023 68.4518Z" fill="#EF9A9A"/>
<path d="M129.743 69.3242C129.72 69.7404 129.437 71.6056 130.85 71.409" stroke="#1F161E" stroke-width="0.573789" stroke-miterlimit="10" stroke-linecap="round"/>
<path d="M133.936 71.4587C134.257 71.2467 134.512 70.5377 134.551 70.0059" stroke="#1F161E" stroke-width="0.573789" stroke-miterlimit="10" stroke-linecap="round"/>
<path d="M137.726 66.9223C138.59 66.9223 139.29 66.2253 139.29 65.3655C139.29 64.5056 138.59 63.8086 137.726 63.8086C136.862 63.8086 136.162 64.5056 136.162 65.3655C136.162 66.2253 136.862 66.9223 137.726 66.9223Z" fill="#EED0C3"/>
<path d="M119.721 113.888C118.327 112.069 118.002 107.788 118.002 104.809C119.001 95.2251 121.486 86.8781 126.592 77.9762C127.211 77.0243 129.588 77.3287 130.03 77.9762C131.489 83.9378 134.261 103.071 126.008 114.046C123.956 114.046 121.447 113.888 119.721 113.888Z" fill="#FB8C00"/>
<path d="M128.516 78.7581C130.057 78.7581 131.307 77.5142 131.307 75.9797C131.307 74.4451 130.057 73.2012 128.516 73.2012C126.974 73.2012 125.725 74.4451 125.725 75.9797C125.725 77.5142 126.974 78.7581 128.516 78.7581Z" fill="#EED0C3"/>
<path d="M156.923 130.005C159.247 130.005 161.131 128.129 161.131 125.816C161.131 123.502 159.247 121.627 156.923 121.627C154.599 121.627 152.715 123.502 152.715 125.816C152.715 128.129 154.599 130.005 156.923 130.005Z" fill="#EED0C3"/>
<path d="M172.244 112.238C178.008 105.013 183.858 97.2707 183.858 96.315C183.858 95.4248 180.699 89.9488 176.557 84.4766" stroke="#1F161E" stroke-width="0.831579" stroke-linecap="round" stroke-linejoin="round"/>
<path d="M155.164 85.4316C156.128 86.4721 164.327 97.8366 164.25 99.2778C164.207 100.049 161.927 106.419 159.763 112.242" stroke="#1F161E" stroke-width="0.831579" stroke-linecap="round" stroke-linejoin="round"/>
<path d="M131.663 91.8496C131.756 98.6166 130.8 106.32 127.223 112.243" stroke="#1F161E" stroke-width="0.831579" stroke-linecap="round" stroke-linejoin="round"/>
<path d="M190.192 95.7031C191.965 95.7494 287.037 105.881 287.037 105.881V111.314L189.871 112.228" fill="#EF9A9A"/>
</g>
<g clip-path="url(#clip2_7013_221858)">
<path d="M89.2602 66.3446L84.4551 64.6562L80.7765 75.1254L85.5817 76.8138L89.2602 66.3446Z" fill="#1F161E"/>
<path d="M92.4414 133.151C92.6449 133.617 93.7276 136.417 94.3276 136.703C95.4138 137.217 101.038 134.269 101.19 133.879C101.341 133.489 101.255 132.845 100.938 132.789C100.621 132.734 98.1104 133.286 97.7035 133.207C97.2966 133.127 96.3552 132.172 96.2449 131.482" fill="#1F161E"/>
<path d="M22 90.7558C22 109.377 27.9242 113.287 33.8173 113.287C48.745 113.287 68.1657 101.315 69.2623 100.852C68.9175 102.811 66.7416 152.46 66.7416 152.746C67.2589 153.149 71.2244 153.498 72.5589 153.149C72.9037 151.942 83.39 92.8903 83.39 91.3352C83.39 89.78 82.4865 87.4144 79.0693 87.0731C77.6244 86.9282 57.5243 86.0938 57.5243 86.0938" fill="#1F161E"/>
<path d="M72.6649 77.5527C77.1925 84.1045 97.4098 129.839 97.2305 130.908C97.0512 131.977 92.4029 134.243 91.4202 133.632C87.2512 131.063 61.6545 87.8976 60.6579 87.2459C59.6614 86.5942 58.1683 86.8459 57.2786 87.0252C54.9648 83.1803 60.1441 78.6148 72.6649 77.5527Z" fill="#7DBF9D"/>
<path d="M52.3969 40.8477C59.1487 40.8477 61.0901 47.2408 61.6487 49.6546C63.4349 57.3615 58.4625 86.6479 57.8866 87.4548C53.0004 94.2859 25.0692 94.8928 22.345 91.9341C19.6209 88.9755 33.9485 40.8477 52.3969 40.8477Z" fill="#99ABC5"/>
<path d="M68.0488 152.035C67.9592 152.535 67.2833 155.463 67.6213 156.035C68.2282 157.07 74.542 157.783 74.8868 157.546C75.2316 157.308 75.5178 156.725 75.2903 156.511C75.0627 156.297 72.6696 155.339 72.3765 155.042C72.0834 154.746 71.8385 153.428 72.1385 152.794" fill="#1F161E"/>
<path d="M51.386 42.1967C51.2032 42.7829 55.9688 44.2657 56.1515 43.6829L57.9998 37.7518L53.2377 36.2656L51.386 42.1967Z" fill="#EED0C3"/>
<path d="M56.111 39.1553C55.6455 39.0105 52.2627 39.4001 52.0352 40.1312L53.2386 36.2656C53.98 36.4967 56.111 39.1553 56.111 39.1553Z" fill="#1F161E"/>
<path d="M58.77 40.1065C62.6341 40.1065 65.7666 36.974 65.7666 33.1099C65.7666 29.2458 62.6341 26.1133 58.77 26.1133C54.9059 26.1133 51.7734 29.2458 51.7734 33.1099C51.7734 36.974 54.9059 40.1065 58.77 40.1065Z" fill="#EED0C3"/>
<path d="M65.7466 36.7962C65.8516 36.4599 65.412 36.0235 64.7648 35.8215C64.1176 35.6196 63.5079 35.7285 63.4029 36.0649C63.298 36.4012 63.7376 36.8375 64.3848 37.0395C65.032 37.2414 65.6417 37.1325 65.7466 36.7962Z" fill="#EF9A9A"/>
<path d="M58.3912 34.5013C58.4961 34.1649 58.0565 33.7286 57.4093 33.5266C56.7621 33.3247 56.1524 33.4336 56.0474 33.7699C55.9425 34.1063 56.3821 34.5426 57.0293 34.7446C57.6765 34.9465 58.2862 34.8376 58.3912 34.5013Z" fill="#EF9A9A"/>
<path d="M62.1178 34.2793C62.2385 34.6586 62.9557 36.3207 61.6074 36.4828" stroke="#1F161E" stroke-width="0.413795" stroke-miterlimit="10" stroke-linecap="round"/>
<path d="M58.7664 37.2762C58.4216 37.1555 58.0078 36.5624 57.8457 36.0762" stroke="#1F161E" stroke-width="0.413795" stroke-miterlimit="10" stroke-linecap="round"/>
<path d="M60.8867 23.931C59.0418 23.7 53.6866 22.1069 52.4694 21C51.8935 21.3034 49.6556 23.3138 47.8314 26.0345L50.4211 28.638L47.1487 27.1276C46.2863 28.5408 45.6935 30.1017 45.4004 31.7311C46.2452 34.0104 48.897 34.9483 49.397 35.0104C52.6211 35.4173 53.8591 30.4069 55.4832 29.7863C58.2418 28.7276 61.4901 31.4759 65.5764 31.3035C66.4833 29.4518 65.3039 24.4862 60.8867 23.931Z" fill="#1F161E"/>
<path d="M52.3555 33.5685C53.2487 33.5685 53.9728 32.8444 53.9728 31.9512C53.9728 31.0581 53.2487 30.334 52.3555 30.334C51.4623 30.334 50.7383 31.0581 50.7383 31.9512C50.7383 32.8444 51.4623 33.5685 52.3555 33.5685Z" fill="#EED0C3"/>
<path d="M45.3992 57.2478C45.0544 59.4064 43.9371 79.7893 46.613 81.7721C52.3441 86.0169 78.8097 80.8238 82.8201 79.3376C83.2546 77.9169 82.8201 73.4031 82.8201 73.4031C81.2752 73.341 61.7855 73.1548 60.6234 71.6789C59.4613 70.203 59.3234 58.1375 59.5096 56.7754" fill="#99ABC5"/>
<path d="M85.5178 79.811C87.588 79.811 89.2661 78.1329 89.2661 76.0627C89.2661 73.9926 87.588 72.3145 85.5178 72.3145C83.4477 72.3145 81.7695 73.9926 81.7695 76.0627C81.7695 78.1329 83.4477 79.811 85.5178 79.811Z" fill="#EED0C3"/>
<path d="M60.6215 71.6906C59.4457 70.2044 59.3215 58.1492 59.5077 56.7871" stroke="#1F161E" stroke-width="0.344829" stroke-linecap="round" stroke-linejoin="round"/>
<path d="M58.7907 83.303C53.3907 83.603 48.67 83.303 46.6148 81.7719C45.4424 80.9064 44.9975 76.5167 44.8906 71.6719" stroke="#1F161E" stroke-width="0.344829" stroke-linecap="round" stroke-linejoin="round"/>
</g>
<defs>
<clipPath id="clip0_7013_221858">
<rect width="423" height="65" fill="white" transform="translate(9 74)"/>
</clipPath>
<clipPath id="clip1_7013_221858">
<rect width="173.8" height="79" fill="white" transform="translate(118 51)"/>
</clipPath>
<clipPath id="clip2_7013_221858">
<rect width="79.2625" height="136.58" fill="white" transform="translate(22 21)"/>
</clipPath>
</defs>
</svg>
