<svg width="314" height="115" viewBox="0 0 314 115" fill="none" xmlns="http://www.w3.org/2000/svg">
<g clip-path="url(#clip0_7013_221926)">
<path d="M0 8C0 3.58172 3.58172 0 8 0H306C310.418 0 314 3.58172 314 8V115H0V8Z" fill="#EAEAEA"/>
<path d="M139.484 71.5H281.194C282.613 71.5 284.018 71.7795 285.328 72.3225C286.639 72.8654 287.83 73.6613 288.834 74.6646C289.837 75.6679 290.633 76.859 291.176 78.1699C291.719 79.4808 291.998 80.8858 291.998 82.3047V115.088H128.68V82.3047C128.68 79.4391 129.818 76.6909 131.844 74.6646C133.871 72.6383 136.619 71.5 139.484 71.5Z" fill="#E6E6E6"/>
<path d="M254.321 62.8197L253.037 8.92271C252.978 6.3617 250.938 6.3617 250.878 8.92271L249.594 62.8197H254.321Z" fill="#999999"/>
<path d="M231.532 62.8197L230.248 8.92271C230.189 6.3617 228.148 6.3617 228.089 8.92271L226.805 62.8197H231.532Z" fill="#999999"/>
<path d="M136.943 62.8193L135.658 8.92234C135.599 6.35952 133.566 6.35952 133.499 8.92053L132.215 62.8175L136.943 62.8193Z" fill="#999999"/>
<path d="M130.805 62.8184H272.514C275.38 62.8184 278.128 63.9567 280.154 65.983C282.18 68.0093 283.319 70.7575 283.319 73.6231V106.406H120V73.6231C120 70.7575 121.138 68.0093 123.165 65.983C125.191 63.9567 127.939 62.8184 130.805 62.8184Z" stroke="black" stroke-width="0.361724" stroke-miterlimit="10"/>
<path d="M174.36 82.7148H142.869C140.827 82.7148 139.172 84.37 139.172 86.4117V87.6994C139.172 89.7411 140.827 91.3962 142.869 91.3962H174.36C176.402 91.3962 178.057 89.7411 178.057 87.6994V86.4117C178.057 84.37 176.402 82.7148 174.36 82.7148Z" fill="#999CBF"/>
<path d="M234.497 82.7148H221.453C220.06 82.7148 218.932 83.8436 218.932 85.2361V88.875C218.932 90.2674 220.06 91.3962 221.453 91.3962H234.497C235.889 91.3962 237.018 90.2674 237.018 88.875V85.2361C237.018 83.8436 235.889 82.7148 234.497 82.7148Z" fill="#99ABC5"/>
<path d="M256.018 82.7148H242.974C241.582 82.7148 240.453 83.8436 240.453 85.2361V88.875C240.453 90.2674 241.582 91.3962 242.974 91.3962H256.018C257.411 91.3962 258.539 90.2674 258.539 88.875V85.2361C258.539 83.8436 257.411 82.7148 256.018 82.7148Z" fill="#99ABC5"/>
<g clip-path="url(#clip1_7013_221926)">
<path d="M162.219 65.5428C161.881 65.5512 159.869 65.7018 159.524 65.421C158.898 64.9134 159.067 60.6514 159.26 60.4467C159.453 60.2419 159.868 60.1083 159.993 60.2859C160.118 60.4636 160.5 62.1471 160.67 62.3687C160.839 62.5904 161.685 62.8881 162.138 62.7545" fill="#1F161E"/>
<path d="M202.417 55.3334C201.952 54.7836 186.027 42.9823 182.889 43.0432C179.75 43.1041 170.566 62.1621 170.741 62.8033C170.915 63.4446 175.776 62.3922 176.47 61.8085C177.163 61.2248 182.011 56.0948 183.215 53.5011C183.689 54.188 187.591 58.7089 188.756 59.4381C189.922 60.1673 202.417 55.3334 202.417 55.3334Z" fill="#1F161E"/>
<path d="M161.709 65.6562C161.973 65.866 207.953 66.7119 211.753 65.6562C215.553 64.6004 216.556 64.7053 216.504 62.4889C216.452 60.2724 209.059 54.623 208.11 54.623C206.655 54.623 191.685 55.8074 179.813 60.1878C175.075 60.9627 162.047 62.4246 162.047 62.4246C161.834 63.1995 161.452 64.6275 161.709 65.6562Z" fill="#7DBF9D"/>
<path d="M218.979 33.987C221.458 35.0851 224.507 49.2754 224.092 49.7407C223.678 50.2059 220.164 51.8065 220.164 51.8065C220.096 55.2614 217.169 63.5316 216.291 63.892C210.119 62.1358 206.322 56.6624 206.322 55.1633C206.322 53.6643 201.622 54.8131 201.26 54.3952C201.091 54.2219 200.899 54.0728 200.689 53.9519C200.689 53.9519 203.227 51.7524 205.212 50.3244C205.143 49.7136 204.611 38.2676 205.297 37.1916C206.66 35.058 215.89 32.6182 218.979 33.987Z" fill="#999CBF"/>
<path d="M220.184 51.8027C219.507 52.1225 213.36 54.7721 210.67 55.3338" stroke="#1F161E" stroke-width="0.0930565" stroke-miterlimit="10" stroke-linecap="round"/>
<path d="M216.333 42.6504C216.653 43.3272 218.62 47.2271 218.38 47.6281C218.14 48.0291 206.936 53.2487 205.951 53.5668" stroke="#1F161E" stroke-width="0.0930565" stroke-miterlimit="10" stroke-linecap="round"/>
<path d="M207.042 41.6465C206.979 43.0914 207.02 50.1569 207.26 52.7659" stroke="#1F161E" stroke-width="0.0930565" stroke-miterlimit="10" stroke-linecap="round"/>
<path d="M205.952 53.5662C206.053 53.7777 206.761 55.8199 206.835 56.2632C206.91 56.7064 204.016 57.2919 203.008 57.2428C202 57.1937 200.77 56.2581 200.77 55.1516C200.77 54.045 202.284 53.2617 205.952 53.5662Z" fill="#EED0C3"/>
<path d="M210.027 35.5116C210.129 35.9938 212.788 35.476 212.682 34.9583L212.008 31.7402L209.355 32.2935L210.027 35.5116Z" fill="#EED0C3"/>
<path d="M212.408 33.6596C212.349 33.3736 211.486 32.5226 211.016 32.7933C211.593 32.4431 211.745 31.6275 212.007 31.7341L212.408 33.6596Z" fill="black"/>
<path d="M209.011 33.4207C210.956 33.4207 212.532 31.8444 212.532 29.8998C212.532 27.9553 210.956 26.3789 209.011 26.3789C207.067 26.3789 205.49 27.9553 205.49 29.8998C205.49 31.8444 207.067 33.4207 209.011 33.4207Z" fill="#EED0C3"/>
<path d="M205.688 31.3898C206.006 31.3235 206.235 31.1356 206.2 30.97C206.166 30.8045 205.88 30.7239 205.563 30.7902C205.246 30.8564 205.016 31.0444 205.051 31.2099C205.085 31.3755 205.371 31.456 205.688 31.3898Z" fill="#999CBF"/>
<path d="M209.301 30.6359C209.619 30.5696 209.848 30.3817 209.814 30.2161C209.779 30.0505 209.494 29.97 209.176 30.0363C208.859 30.1025 208.63 30.2905 208.664 30.456C208.699 30.6216 208.984 30.7021 209.301 30.6359Z" fill="#999CBF"/>
<path d="M206.897 30.1738C206.822 30.343 206.404 31.1078 207.041 31.2465" stroke="#1F161E" stroke-width="0.116744" stroke-miterlimit="10" stroke-linecap="round"/>
<path d="M208.357 31.7581C208.527 31.7175 208.752 31.4519 208.853 31.2285" stroke="#1F161E" stroke-width="0.116744" stroke-miterlimit="10" stroke-linecap="round"/>
<path d="M211.887 27.2022C211.636 26.006 209.782 25.4629 208.621 25.7049C206.773 26.0906 204.616 27.011 204.271 27.2276C203.694 27.5761 203.733 28.2597 203.78 28.483C203.975 29.4136 204.435 29.9212 205.491 29.8552C205.493 29.5099 205.55 29.1672 205.66 28.84C205.923 28.6706 206.238 28.5993 206.548 28.6387C206.828 28.6759 209.23 29.2495 210.848 28.9111C211.127 29.1682 211.988 30.9228 212.012 31.7349C212.491 31.6622 213.042 29.9381 212.917 29.1209C212.87 28.8424 212.758 28.5788 212.591 28.3513C212.423 28.1239 212.204 27.9389 211.952 27.8113C211.929 27.6354 211.905 27.297 211.887 27.2022Z" fill="black"/>
<path d="M211.146 30.3975C211.574 30.3975 211.921 30.0505 211.921 29.6226C211.921 29.1946 211.574 28.8477 211.146 28.8477C210.718 28.8477 210.371 29.1946 210.371 29.6226C210.371 30.0505 210.718 30.3975 211.146 30.3975Z" fill="#EED0C3"/>
</g>
</g>
<defs>
<clipPath id="clip0_7013_221926">
<path d="M0 8C0 3.58172 3.58172 0 8 0H306C310.418 0 314 3.58172 314 8V115H0V8Z" fill="white"/>
</clipPath>
<clipPath id="clip1_7013_221926">
<rect width="65.0448" height="40.527" fill="white" transform="translate(159.084 25.6484)"/>
</clipPath>
</defs>
</svg>
