<svg width="314" height="115" viewBox="0 0 314 115" fill="none" xmlns="http://www.w3.org/2000/svg">
<path d="M0 8C0 3.58172 3.58172 0 8 0H306C310.418 0 314 3.58172 314 8V115H0V8Z" fill="#EAEAEA"/>
<path d="M137.616 110.807C137.616 111.243 137.358 114.006 137.87 114.26C138.382 114.514 144.019 114.67 144.273 114.416C144.528 114.162 144.684 113.623 144.453 113.468C144.223 113.312 142.049 112.882 141.74 112.675C141.431 112.469 141.034 111.389 141.187 110.807" fill="#1F161E"/>
<g clip-path="url(#clip0_7013_221923)">
<path d="M246.711 14H140.604C137.25 14 134.531 16.7187 134.531 20.0724V72.35C134.531 75.7037 137.25 78.4224 140.604 78.4224H246.711C250.065 78.4224 252.784 75.7037 252.784 72.35V20.0724C252.784 16.7187 250.065 14 246.711 14Z" fill="#F6EFE4"/>
<path d="M202.948 14H140.609C138.998 14.0037 137.454 14.6452 136.315 15.7841C135.176 16.9231 134.535 18.4668 134.531 20.0776V72.3448C134.535 73.9556 135.176 75.4993 136.315 76.6383C137.454 77.7772 138.998 78.4187 140.609 78.4224H202.948V14Z" fill="#999CBF"/>
<path d="M252.732 19.2962C252.54 17.8334 251.823 16.4902 250.714 15.5162C249.606 14.5421 248.182 14.0034 246.707 14L140.609 14C139.134 14.0034 137.71 14.5421 136.602 15.5162C135.494 16.4902 134.777 17.8334 134.584 19.2962H252.732Z" fill="#BAC6D8"/>
<path d="M147.988 76.7725V88.2331L164.464 76.7725H147.988Z" fill="#999CBF"/>
<path d="M145.211 41.002H192.269" stroke="white" stroke-width="2.08374" stroke-miterlimit="10" stroke-linecap="round"/>
<path d="M145.211 48.8164H192.269" stroke="white" stroke-width="2.08374" stroke-miterlimit="10" stroke-linecap="round"/>
<path d="M145.211 56.6299H192.269" stroke="white" stroke-width="2.08374" stroke-miterlimit="10" stroke-linecap="round"/>
<path d="M145.211 64.4443H192.269" stroke="white" stroke-width="2.08374" stroke-miterlimit="10" stroke-linecap="round"/>
<path d="M188.709 34.9245C191.346 34.9245 193.484 32.7866 193.484 30.1493C193.484 27.512 191.346 25.374 188.709 25.374C186.072 25.374 183.934 27.512 183.934 30.1493C183.934 32.7866 186.072 34.9245 188.709 34.9245Z" fill="white"/>
</g>
<g clip-path="url(#clip1_7013_221923)">
<path d="M250.635 109.247C250.998 109.256 253.157 109.417 253.528 109.118C254.2 108.577 254.018 104.042 253.811 103.824C253.604 103.606 253.159 103.464 253.025 103.653C252.89 103.842 252.48 105.633 252.298 105.869C252.117 106.105 251.209 106.422 250.722 106.28" fill="#1F161E"/>
<path d="M207.497 98.3822C207.996 97.797 225.086 85.2372 228.454 85.302C231.823 85.3668 241.679 105.65 241.492 106.332C241.304 107.015 236.088 105.895 235.343 105.273C234.599 104.652 229.397 99.1925 228.104 96.432C227.595 97.1631 223.408 101.975 222.157 102.751C220.906 103.527 207.497 98.3822 207.497 98.3822Z" fill="#1F161E"/>
<path d="M251.183 109.367C250.9 109.591 201.555 110.491 197.476 109.367C193.398 108.244 192.321 108.355 192.378 105.996C192.434 103.637 200.367 97.625 201.386 97.625C202.947 97.625 219.013 98.8855 231.755 103.547C236.839 104.372 250.82 105.928 250.82 105.928C251.049 106.753 251.459 108.272 251.183 109.367Z" fill="#FFCC80"/>
<path d="M189.721 75.662C187.061 76.8306 183.789 91.933 184.234 92.4281C184.679 92.9233 188.45 94.6268 188.45 94.6268C188.523 98.3038 191.664 107.106 192.606 107.489C199.23 105.62 203.305 99.7948 203.305 98.1993C203.305 96.6039 208.349 97.8266 208.738 97.3818C208.919 97.1974 209.125 97.0387 209.35 96.9101C209.35 96.9101 206.626 94.5692 204.496 93.0494C204.571 92.3993 205.141 80.2177 204.405 79.0725C202.942 76.8018 193.037 74.2052 189.721 75.662Z" fill="#EF9A9A"/>
<path d="M188.427 94.624C189.153 94.9644 195.75 97.7842 198.637 98.3821" stroke="#1F161E" stroke-width="0.104046" stroke-miterlimit="10" stroke-linecap="round"/>
<path d="M192.562 84.8818C192.218 85.6021 190.107 89.7527 190.364 90.1794C190.622 90.6062 202.646 96.1613 203.703 96.4999" stroke="#1F161E" stroke-width="0.104046" stroke-miterlimit="10" stroke-linecap="round"/>
<path d="M202.534 83.8145C202.602 85.3522 202.558 92.8719 202.3 95.6486" stroke="#1F161E" stroke-width="0.104046" stroke-miterlimit="10" stroke-linecap="round"/>
<path d="M203.704 96.5002C203.595 96.7252 202.836 98.8987 202.756 99.3704C202.676 99.8422 205.781 100.465 206.863 100.413C207.946 100.361 209.266 99.365 209.266 98.1874C209.266 97.0097 207.641 96.176 203.704 96.5002Z" fill="#EED0C3"/>
<path d="M199.328 77.2852C199.219 77.7984 196.365 77.2474 196.479 76.6964L197.202 73.2715L200.049 73.8603L199.328 77.2852Z" fill="#EED0C3"/>
<path d="M196.773 75.3132C196.837 75.0089 197.763 74.1032 198.268 74.3913C197.648 74.0185 197.485 73.1506 197.204 73.264L196.773 75.3132Z" fill="black"/>
<path d="M200.419 75.0589C198.332 75.0589 196.64 73.3812 196.64 71.3117C196.64 69.2421 198.332 67.5645 200.419 67.5645C202.506 67.5645 204.197 69.2421 204.197 71.3117C204.197 73.3812 202.506 75.0589 200.419 75.0589Z" fill="#EED0C3"/>
<path d="M203.985 72.8981C203.645 72.8276 203.399 72.6276 203.436 72.4514C203.473 72.2752 203.779 72.1895 204.12 72.26C204.46 72.3305 204.706 72.5305 204.669 72.7067C204.632 72.8829 204.326 72.9686 203.985 72.8981Z" fill="#EF9A9A"/>
<path d="M200.106 72.0954C199.766 72.0249 199.52 71.8249 199.557 71.6487C199.594 71.4725 199.9 71.3868 200.241 71.4573C200.581 71.5278 200.827 71.7278 200.79 71.904C200.753 72.0802 200.447 72.1659 200.106 72.0954Z" fill="#EF9A9A"/>
<path d="M202.688 71.6055C202.768 71.7855 203.216 72.5994 202.534 72.7471" stroke="#1F161E" stroke-width="0.13053" stroke-miterlimit="10" stroke-linecap="round"/>
<path d="M201.121 73.2912C200.94 73.2479 200.698 72.9652 200.589 72.7275" stroke="#1F161E" stroke-width="0.13053" stroke-miterlimit="10" stroke-linecap="round"/>
<path d="M197.333 68.4417C197.602 67.1687 199.592 66.5906 200.837 66.8481C202.82 67.2587 205.135 68.2383 205.506 68.4687C206.125 68.8397 206.083 69.5672 206.032 69.8049C205.823 70.7952 205.33 71.3354 204.196 71.2652C204.195 70.8978 204.133 70.533 204.015 70.1848C203.732 70.0045 203.395 69.9286 203.062 69.9705C202.762 70.0101 200.184 70.6206 198.448 70.2604C198.148 70.5341 197.224 72.4014 197.199 73.2658C196.685 73.1883 196.093 71.3534 196.227 70.4837C196.278 70.1873 196.398 69.9068 196.577 69.6647C196.757 69.4227 196.992 69.2258 197.262 69.09C197.287 68.9027 197.313 68.5426 197.333 68.4417Z" fill="black"/>
<path d="M198.127 71.8438C197.668 71.8438 197.296 71.4745 197.296 71.019C197.296 70.5636 197.668 70.1943 198.127 70.1943C198.587 70.1943 198.959 70.5636 198.959 71.019C198.959 71.4745 198.587 71.8438 198.127 71.8438Z" fill="#EED0C3"/>
</g>
<path d="M115.643 55.1875C115.59 55.8483 119.473 78.534 119.448 79.264C119.423 79.994 113.5 107.44 113.5 107.44L116.731 108.881C116.731 108.881 127.647 85.8023 127.829 84.3392C128.012 82.8761 117.361 55.1812 115.643 55.1875Z" fill="#1F161E"/>
<path d="M115.645 55.1874C115.89 55.8797 137.098 110.879 137.098 110.879H141.274L126.393 52.041L115.645 55.1874Z" fill="#7DBF9D"/>
<path d="M119.025 30.2871C125.825 30.2871 126.591 42.596 126.591 44.3297C126.591 46.0633 126.814 51.4941 126.401 52.0321C125.802 52.3153 116.283 55.4932 115.653 55.1786C115.022 54.8639 110.171 30.2871 119.025 30.2871Z" fill="#E3F2EB"/>
<path d="M115.716 44.1621C115.716 44.719 115.593 48.3783 116.514 49.0863C117.434 49.7942 124.861 50.7098 124.861 51.6789C124.861 52.0943 124.996 52.5411 124.079 52.8463C124.684 52.6417 126.393 52.0313 126.393 52.0313C126.532 51.7057 126.598 51.3533 126.585 50.9993C126.421 50.8514 115.716 44.1621 115.716 44.1621Z" fill="#1F161E"/>
<path d="M120.759 27.7943L117.815 27.165C117.815 27.165 117.487 30.818 117.45 31.1327C117.412 31.4473 119.829 31.7305 119.867 31.4473C119.905 31.1642 120.759 27.7943 120.759 27.7943Z" fill="#EED0C3"/>
<path d="M117.719 28.2066C117.719 28.1373 118.665 28.754 119.043 28.9397C119.421 29.1253 117.672 29.2921 117.559 29.9717C117.606 29.4683 117.713 28.3198 117.719 28.2066Z" fill="#1F161E"/>
<path d="M120.201 29.1165C122.316 29.1165 124.031 27.405 124.031 25.2936C124.031 23.1823 122.316 21.4707 120.201 21.4707C118.086 21.4707 116.371 23.1823 116.371 25.2936C116.371 27.405 118.086 29.1165 120.201 29.1165Z" fill="#EED0C3"/>
<path d="M120.134 40.9657C120.008 41.595 119.769 44.8012 119.778 45.7357C120.175 46.6104 126.665 49.3604 128.021 49.587C128.557 49.5712 128.853 49.2723 129.187 49.2723C129.981 49.2881 132.109 49.1528 132.109 49.3825C132.109 49.6121 131.479 51.2263 130.691 51.2263C129.364 51.2263 128.91 50.8802 128.409 50.8487C127.703 50.8046 127.438 51.0595 126.81 51.0186C126.183 50.9777 118.265 49.7128 116.919 47.7085C115.523 45.6256 115.236 40.2861 115.242 40.0312C115.602 40.1288 119.608 40.9657 120.134 40.9657Z" fill="#EED0C3"/>
<path d="M113.88 107.484C113.76 107.746 112.667 110.02 113.102 110.798C113.537 111.575 116.72 113.135 117.102 113C117.483 112.865 117.562 112.446 117.262 111.93C116.963 111.414 115.79 110.889 115.642 110.439C115.494 109.989 115.901 108.771 116.323 108.507" fill="#1F161E"/>
<path d="M121.71 26.8819C122.126 26.8819 122.464 26.7072 122.464 26.4917C122.464 26.2762 122.126 26.1016 121.71 26.1016C121.294 26.1016 120.957 26.2762 120.957 26.4917C120.957 26.7072 121.294 26.8819 121.71 26.8819Z" fill="#FA9E9F"/>
<path d="M117.448 27.8989C116.764 27.5842 115.906 26.2187 115.906 24.3654C115.906 19.5671 121.719 19.6458 122.308 19.4696C122.898 19.2934 124.08 18.8623 124.366 18.8623C125.331 18.8623 125.728 21.4927 125.728 21.9175C125.728 23.5757 124.354 24.4693 123.957 24.5227C123.774 24.0571 123.551 23.6085 123.288 23.1824C123.027 23.3239 119.143 24.7556 118.475 24.916C118.671 25.6303 117.347 27.2759 117.448 27.8989Z" fill="#1F161E"/>
<path d="M123.924 24.5254C124.204 24.5254 124.614 25.6266 124.554 25.8752C124.494 26.1238 123.877 26.3157 123.631 26.3063C123.385 26.2968 123.52 24.5254 123.924 24.5254Z" fill="#F8CDBA"/>
<path d="M121.486 27.4395C121.486 27.5667 121.532 27.6898 121.614 27.7867C121.697 27.8835 121.811 27.9478 121.937 27.9681" stroke="#1F161E" stroke-width="0.0955049" stroke-miterlimit="10" stroke-linecap="round"/>
<path d="M144.559 39.5654H125.395V49.3886H144.559V39.5654Z" fill="#B37361"/>
<defs>
<clipPath id="clip0_7013_221923">
<rect width="118.252" height="74.2334" fill="white" transform="translate(134.531 14)"/>
</clipPath>
<clipPath id="clip1_7013_221923">
<rect width="69.8054" height="43.1318" fill="white" transform="matrix(-1 0 0 1 254 66.7881)"/>
</clipPath>
</defs>
</svg>
