<svg width="314" height="115" viewBox="0 0 314 115" fill="none" xmlns="http://www.w3.org/2000/svg">
<path d="M0 8C0 3.58172 3.58172 0 8 0H306C310.418 0 314 3.58172 314 8V115H0V8Z" fill="#EAEAEA"/>
<path d="M259.083 103.906C259.083 104.378 259.301 107.146 258.916 107.621C258.215 108.483 252.347 108.25 252.065 107.983C251.783 107.715 251.602 107.146 251.844 106.974C252.085 106.801 254.402 106.269 254.719 106.039C255.035 105.809 255.435 104.639 255.253 104.027" fill="#1F161E"/>
<path d="M239.814 103.906C239.814 104.378 240.035 107.146 239.647 107.621C238.946 108.483 233.081 108.25 232.799 107.983C232.518 107.715 232.334 107.146 232.578 106.974C232.822 106.801 235.134 106.269 235.453 106.039C235.772 105.809 236.169 104.639 235.985 104.027" fill="#1F161E"/>
<path d="M233.575 53.6758C233.823 54.1781 233.949 54.7315 233.943 55.2915C233.943 56.795 233.104 58.014 232.072 58.014C231.04 58.014 230.2 56.795 230.2 55.2915C230.195 54.7315 230.321 54.1781 230.568 53.6758H233.575Z" fill="#EED0C3"/>
<path d="M235.22 103.945C234.645 103.276 233.006 53.6694 233.006 53.6694L239.107 53.5371C239.107 53.5371 243.994 67.0807 243.994 67.6614C243.994 68.2422 241.49 79.736 240.544 82.7661C240.484 84.4134 240.789 103.638 240.3 104.095C239.811 104.552 235.792 104.63 235.22 103.945Z" fill="#1F161E"/>
<path d="M237.777 54.279C237.777 57.1222 246.977 77.7553 248.736 80.3197C249.806 83.7351 254.078 103.385 254.699 103.851C255.32 104.316 259.281 104.782 259.747 103.851C260.213 102.919 253.877 57.7375 252.727 52.0193C251.577 46.3012 237.777 48.6212 237.777 54.279Z" fill="#51698F"/>
<path d="M251.29 21.8336C249.422 19.6774 233.089 18.3233 231.166 19.8211C227.285 22.8398 230.016 53.4573 230.304 54.6073C230.591 55.1823 232.604 54.0323 232.604 54.0323C232.891 54.3198 247.265 54.8948 252.728 52.0199C252.728 50.5824 251.865 44.5452 251.865 44.5452C253.015 44.5452 256.178 43.6827 256.753 42.8202C257.328 41.9578 253.49 24.3663 251.29 21.8336Z" fill="#3B7858"/>
<path d="M252.027 44.832C250.777 45.0534 241.132 45.7692 237.785 45.5019" stroke="#1F161E" stroke-width="0.158119" stroke-miterlimit="10" stroke-linecap="round"/>
<path d="M237.276 42.3309C246.404 40.3616 250.748 41.4224 247.842 32.7402" stroke="#1F161E" stroke-width="0.158119" stroke-miterlimit="10" stroke-linecap="round"/>
<path d="M232.129 31.4395C232.178 32.2588 232.756 54.0619 232.756 54.0619" stroke="#1F161E" stroke-width="0.158119" stroke-miterlimit="10" stroke-linecap="round"/>
<path d="M237.126 20.2698C237.126 21.0201 241.249 21.0632 241.246 20.2698V15.2617H237.126V20.2698Z" fill="#EED0C3"/>
<path d="M241.229 18.2423C241.229 17.7967 239.874 15.8906 239.09 16.1522C240.058 15.8073 240.863 15.0023 241.22 15.2495L241.229 18.2423Z" fill="#1F161E"/>
<path d="M237.246 17.2394C234.291 17.2394 231.895 14.844 231.895 11.8892C231.895 8.93441 234.291 6.53906 237.246 6.53906C240.2 6.53906 242.596 8.93441 242.596 11.8892C242.596 14.844 240.2 17.2394 237.246 17.2394Z" fill="#EED0C3"/>
<path d="M231.421 13.6824C231.395 13.4266 231.771 13.1778 232.263 13.1268C232.754 13.0758 233.173 13.2419 233.2 13.4977C233.227 13.7535 232.85 14.0023 232.359 14.0533C231.868 14.1043 231.448 13.9383 231.421 13.6824Z" fill="#EF9A9A"/>
<path d="M237.005 13.0965C236.979 12.8407 237.355 12.5919 237.846 12.5409C238.338 12.4899 238.757 12.6559 238.784 12.9118C238.81 13.1676 238.434 13.4164 237.943 13.4674C237.452 13.5184 237.032 13.3523 237.005 13.0965Z" fill="#EF9A9A"/>
<path d="M234.378 12.4043C234.237 12.6573 233.487 13.7411 234.43 14.0516" stroke="#1F161E" stroke-width="0.198367" stroke-miterlimit="10" stroke-linecap="round"/>
<path d="M236.341 15.0263C236.606 14.9918 236.985 14.6238 237.172 14.3047" stroke="#1F161E" stroke-width="0.198367" stroke-miterlimit="10" stroke-linecap="round"/>
<path d="M241.571 12.4043C240.92 12.4043 240.393 11.8766 240.393 11.2256C240.393 10.5746 240.92 10.0469 241.571 10.0469C242.222 10.0469 242.75 10.5746 242.75 11.2256C242.75 11.8766 242.222 12.4043 241.571 12.4043Z" fill="#EED0C3"/>
<path d="M240.773 12.2633C240.773 13.833 242.498 14.8507 243.09 14.8507C243.182 14.8619 243.275 14.8531 243.363 14.8251C243.452 14.7971 243.533 14.7504 243.602 14.6883C243.67 14.6261 243.725 14.5499 243.762 14.4649C243.798 14.3798 243.816 14.2879 243.814 14.1953C243.814 13.5369 243.429 12.9763 242.615 12.2633C242.765 12.019 243.814 10.731 243.814 8.89686C243.814 6.97356 242.633 5.36074 241.842 5.36074C241.504 5.38322 241.183 5.517 240.929 5.74117C240.676 5.96535 240.503 6.26729 240.439 6.59982C240.439 3.9118 237.564 2 235.839 2C234.244 2 233.968 2.69572 233.968 3.2592C233.968 4.49828 234.945 5.8236 235.31 6.14846C234.416 5.49011 233.01 4.82601 231.815 4.82601C231.053 4.82601 230.09 5.04163 230.09 6.08522C230.09 8.00277 231.886 9.11247 232.487 9.42296C232.716 8.97632 233.006 8.56405 233.35 8.19826C233.238 8.56049 233.68 9.21884 234.528 9.36546C235.017 9.44596 240.773 8.66974 240.773 12.2633Z" fill="#1F161E"/>
<path d="M229.749 47.6181H232.963C232.963 47.6181 233.943 38.4874 233.943 37.7716C233.943 37.0557 228.835 37.1449 228.835 37.7716C228.835 38.3983 229.749 47.6181 229.749 47.6181Z" fill="#1F161E"/>
<path d="M232.005 40.8711C231.548 40.8711 228.935 41.4892 228.935 42.8346C228.935 44.4877 230.985 45.0512 231.387 45.0512C233.552 45.0512 234.162 44.6803 237.617 44.6803C237.617 44.275 237.542 42.4178 237.062 42.2367C236.476 42.2453 234.811 40.8711 232.005 40.8711Z" fill="#EED0C3"/>
<path d="M219.258 107.244C219.833 107.898 220.54 108.423 221.334 108.782C222.127 109.141 222.987 109.328 223.858 109.328H269.428C270.292 109.327 271.146 109.144 271.935 108.79C272.723 108.435 273.427 107.918 274.002 107.273" stroke="#999999" stroke-width="1.14996" stroke-linecap="round" stroke-linejoin="round"/>
<path d="M264.734 114.207C263.664 114.207 262.797 113.34 262.797 112.27C262.797 111.2 263.664 110.332 264.734 110.332C265.804 110.332 266.672 111.2 266.672 112.27C266.672 113.34 265.804 114.207 264.734 114.207Z" fill="#999999"/>
<path d="M228.527 114.207C227.457 114.207 226.589 113.34 226.589 112.27C226.589 111.2 227.457 110.332 228.527 110.332C229.597 110.332 230.465 111.2 230.465 112.27C230.465 113.34 229.597 114.207 228.527 114.207Z" fill="#999999"/>
<g opacity="0.76">
<path d="M171.386 51.2051H186.501C194.446 51.2051 200.887 57.646 200.887 65.5913V96.8797C200.887 104.825 194.446 111.266 186.501 111.266H171.386C163.441 111.266 157 104.825 157 96.8797V65.5913C157 57.646 163.441 51.2051 171.386 51.2051Z" fill="#C7C9E3"/>
</g>
<path d="M176.788 47.0029C173.068 47.0147 169.503 48.4978 166.872 51.1286C164.242 53.7593 162.759 57.324 162.747 61.0444V92.3328C162.759 96.0532 164.242 99.6179 166.872 102.249C169.503 104.879 173.068 106.363 176.788 106.374H191.903C195.623 106.363 199.188 104.879 201.819 102.249C204.449 99.6179 205.933 96.0532 205.944 92.3328V61.0444C205.933 57.324 204.449 53.7593 201.819 51.1286C199.188 48.4978 195.623 47.0147 191.903 47.0029H176.788ZM176.788 46.6582H191.903C199.815 46.6582 206.289 53.1321 206.289 61.0444V92.3328C206.289 100.245 199.815 106.719 191.903 106.719H176.788C168.876 106.719 162.402 100.245 162.402 92.3328V61.0444C162.402 53.1321 168.876 46.6582 176.788 46.6582Z" fill="black"/>
<path d="M184.346 46.6582H191.903C199.815 46.6582 206.289 53.1321 206.289 61.0444V64.0958H184.346V46.6582Z" fill="#F7D999"/>
<path d="M206.242 64.1094H162.449" stroke="black" stroke-width="0.344662" stroke-miterlimit="10"/>
<path d="M184.392 63.6497V19.348H226.566V2" stroke="#C7C9E3" stroke-width="0.574436" stroke-linecap="round" stroke-linejoin="round"/>
<path d="M185.219 85.9018C184.307 85.9018 183.567 85.1622 183.567 84.2497C183.567 83.3373 184.307 82.5977 185.219 82.5977C186.131 82.5977 186.871 83.3373 186.871 84.2497C186.871 85.1622 186.131 85.9018 185.219 85.9018Z" fill="#999CBF"/>
<path d="M180.565 85.9018C179.652 85.9018 178.913 85.1622 178.913 84.2497C178.913 83.3373 179.652 82.5977 180.565 82.5977C181.477 82.5977 182.217 83.3373 182.217 84.2497C182.217 85.1622 181.477 85.9018 180.565 85.9018Z" fill="#999CBF"/>
<path d="M175.91 85.9018C174.998 85.9018 174.258 85.1622 174.258 84.2497C174.258 83.3373 174.998 82.5977 175.91 82.5977C176.823 82.5977 177.562 83.3373 177.562 84.2497C177.562 85.1622 176.823 85.9018 175.91 85.9018Z" fill="#999CBF"/>
<path d="M171.254 85.9018C170.342 85.9018 169.602 85.1622 169.602 84.2497C169.602 83.3373 170.342 82.5977 171.254 82.5977C172.167 82.5977 172.906 83.3373 172.906 84.2497C172.906 85.1622 172.167 85.9018 171.254 85.9018Z" fill="#999CBF"/>
<path d="M166.6 85.9018C165.687 85.9018 164.948 85.1622 164.948 84.2497C164.948 83.3373 165.687 82.5977 166.6 82.5977C167.512 82.5977 168.252 83.3373 168.252 84.2497C168.252 85.1622 167.512 85.9018 166.6 85.9018Z" fill="#999CBF"/>
<path d="M161.946 85.9018C161.033 85.9018 160.294 85.1622 160.294 84.2497C160.294 83.3373 161.033 82.5977 161.946 82.5977C162.858 82.5977 163.598 83.3373 163.598 84.2497C163.598 85.1622 162.858 85.9018 161.946 85.9018Z" fill="#999CBF"/>
<path d="M185.219 95.5131C184.307 95.5131 183.567 94.7735 183.567 93.8611C183.567 92.9486 184.307 92.209 185.219 92.209C186.131 92.209 186.871 92.9486 186.871 93.8611C186.871 94.7735 186.131 95.5131 185.219 95.5131Z" fill="#999CBF"/>
<path d="M180.565 95.5131C179.652 95.5131 178.913 94.7735 178.913 93.8611C178.913 92.9486 179.652 92.209 180.565 92.209C181.477 92.209 182.217 92.9486 182.217 93.8611C182.217 94.7735 181.477 95.5131 180.565 95.5131Z" fill="#999CBF"/>
<path d="M175.91 95.5131C174.998 95.5131 174.258 94.7735 174.258 93.8611C174.258 92.9486 174.998 92.209 175.91 92.209C176.823 92.209 177.562 92.9486 177.562 93.8611C177.562 94.7735 176.823 95.5131 175.91 95.5131Z" fill="#999CBF"/>
<path d="M171.254 95.5131C170.342 95.5131 169.602 94.7735 169.602 93.8611C169.602 92.9486 170.342 92.209 171.254 92.209C172.167 92.209 172.906 92.9486 172.906 93.8611C172.906 94.7735 172.167 95.5131 171.254 95.5131Z" fill="#999CBF"/>
<path d="M166.6 95.5131C165.687 95.5131 164.948 94.7735 164.948 93.8611C164.948 92.9486 165.687 92.209 166.6 92.209C167.512 92.209 168.252 92.9486 168.252 93.8611C168.252 94.7735 167.512 95.5131 166.6 95.5131Z" fill="#999CBF"/>
<path d="M161.946 95.5131C161.033 95.5131 160.294 94.7735 160.294 93.8611C160.294 92.9486 161.033 92.209 161.946 92.209C162.858 92.209 163.598 92.9486 163.598 93.8611C163.598 94.7735 162.858 95.5131 161.946 95.5131Z" fill="#999CBF"/>
<path d="M182.817 90.7065C181.904 90.7065 181.165 89.9668 181.165 89.0544C181.165 88.142 181.904 87.4023 182.817 87.4023C183.729 87.4023 184.469 88.142 184.469 89.0544C184.469 89.9668 183.729 90.7065 182.817 90.7065Z" fill="#999CBF"/>
<path d="M178.16 90.7065C177.248 90.7065 176.508 89.9668 176.508 89.0544C176.508 88.142 177.248 87.4023 178.16 87.4023C179.073 87.4023 179.812 88.142 179.812 89.0544C179.812 89.9668 179.073 90.7065 178.16 90.7065Z" fill="#999CBF"/>
<path d="M173.506 90.7065C172.594 90.7065 171.854 89.9668 171.854 89.0544C171.854 88.142 172.594 87.4023 173.506 87.4023C174.419 87.4023 175.158 88.142 175.158 89.0544C175.158 89.9668 174.419 90.7065 173.506 90.7065Z" fill="#999CBF"/>
<path d="M168.852 90.7065C167.939 90.7065 167.2 89.9668 167.2 89.0544C167.2 88.142 167.939 87.4023 168.852 87.4023C169.764 87.4023 170.504 88.142 170.504 89.0544C170.504 89.9668 169.764 90.7065 168.852 90.7065Z" fill="#999CBF"/>
<path d="M164.198 90.7065C163.285 90.7065 162.545 89.9668 162.545 89.0544C162.545 88.142 163.285 87.4023 164.198 87.4023C165.11 87.4023 165.85 88.142 165.85 89.0544C165.85 89.9668 165.11 90.7065 164.198 90.7065Z" fill="#999CBF"/>
<path d="M159.543 90.7065C158.631 90.7065 157.891 89.9668 157.891 89.0544C157.891 88.142 158.631 87.4023 159.543 87.4023C160.456 87.4023 161.195 88.142 161.195 89.0544C161.195 89.9668 160.456 90.7065 159.543 90.7065Z" fill="#999CBF"/>
<path d="M182.817 100.318C181.904 100.318 181.165 99.5782 181.165 98.6658C181.165 97.7533 181.904 97.0137 182.817 97.0137C183.729 97.0137 184.469 97.7533 184.469 98.6658C184.469 99.5782 183.729 100.318 182.817 100.318Z" fill="#999CBF"/>
<path d="M178.16 100.318C177.248 100.318 176.508 99.5782 176.508 98.6658C176.508 97.7533 177.248 97.0137 178.16 97.0137C179.073 97.0137 179.812 97.7533 179.812 98.6658C179.812 99.5782 179.073 100.318 178.16 100.318Z" fill="#999CBF"/>
<path d="M173.506 100.318C172.594 100.318 171.854 99.5782 171.854 98.6658C171.854 97.7533 172.594 97.0137 173.506 97.0137C174.419 97.0137 175.158 97.7533 175.158 98.6658C175.158 99.5782 174.419 100.318 173.506 100.318Z" fill="#999CBF"/>
<path d="M168.852 100.318C167.939 100.318 167.2 99.5782 167.2 98.6658C167.2 97.7533 167.939 97.0137 168.852 97.0137C169.764 97.0137 170.504 97.7533 170.504 98.6658C170.504 99.5782 169.764 100.318 168.852 100.318Z" fill="#999CBF"/>
<path d="M164.198 100.318C163.285 100.318 162.545 99.5782 162.545 98.6658C162.545 97.7533 163.285 97.0137 164.198 97.0137C165.11 97.0137 165.85 97.7533 165.85 98.6658C165.85 99.5782 165.11 100.318 164.198 100.318Z" fill="#999CBF"/>
<path d="M159.543 100.318C158.631 100.318 157.891 99.5782 157.891 98.6658C157.891 97.7533 158.631 97.0137 159.543 97.0137C160.456 97.0137 161.195 97.7533 161.195 98.6658C161.195 99.5782 160.456 100.318 159.543 100.318Z" fill="#999CBF"/>
</svg>
