<svg width="314" height="115" viewBox="0 0 314 115" fill="none" xmlns="http://www.w3.org/2000/svg">
<g clip-path="url(#clip0_7013_221934)">
<path d="M0 8C0 3.58172 3.58172 0 8 0H306C310.418 0 314 3.58172 314 8V115H0V8Z" fill="#EAEAEA"/>
<g clip-path="url(#clip1_7013_221934)">
<path d="M235.075 22H177.619V110.971H235.075V22Z" fill="white"/>
<path d="M166.105 76.3047H225.016" stroke="black" stroke-width="0.242428" stroke-miterlimit="10"/>
<path d="M166.105 82.1211H225.016" stroke="black" stroke-width="0.242428" stroke-miterlimit="10"/>
<path d="M166.105 87.9395H225.016" stroke="black" stroke-width="0.242428" stroke-miterlimit="10"/>
<path d="M166.105 93.7578H225.016" stroke="black" stroke-width="0.242428" stroke-miterlimit="10"/>
<path d="M206.349 62.9693C214.65 62.9693 221.379 56.2399 221.379 47.9387C221.379 39.6376 214.65 32.9082 206.349 32.9082C198.048 32.9082 191.318 39.6376 191.318 47.9387C191.318 56.2399 198.048 62.9693 206.349 62.9693Z" fill="#F2F2F2"/>
<path opacity="0.7" d="M248.774 53.6367H225.016V75.6977H248.774V53.6367Z" fill="#254B38"/>
<path d="M231.938 63.3699V62.9L235.72 60.9735V61.7253L232.819 63.1232L232.842 63.0762V63.1937L232.819 63.1467L235.72 64.5446V65.2964L231.938 63.3699ZM241.641 59.1879L239.703 66.3889H239.069L241.007 59.1879H241.641ZM248.771 63.3699L244.989 65.2964V64.5446L247.89 63.1467L247.867 63.1937V63.0762L247.89 63.1232L244.989 61.7253V60.9735L248.771 62.9V63.3699Z" fill="white"/>
</g>
<path d="M128.369 93.6528C135.397 93.6528 141.094 92.3935 141.094 90.8401C141.094 89.2866 135.397 88.0273 128.369 88.0273C121.342 88.0273 115.645 89.2866 115.645 90.8401C115.645 92.3935 121.342 93.6528 128.369 93.6528Z" fill="black"/>
<path d="M128.368 90.8398L121.221 113.211" stroke="black" stroke-width="0.806517" stroke-miterlimit="10" stroke-linecap="round"/>
<path d="M128.369 90.8398L135.517 113.211" stroke="black" stroke-width="0.806517" stroke-miterlimit="10" stroke-linecap="round"/>
<path d="M123.568 105.867L131.537 100.758" stroke="black" stroke-width="0.403259" stroke-miterlimit="10" stroke-linecap="round"/>
<path d="M125.168 100.758L133.138 105.867" stroke="black" stroke-width="0.403259" stroke-miterlimit="10" stroke-linecap="round"/>
<path d="M159.248 110.543C159.248 111.021 158.968 114.035 159.526 114.313C160.085 114.592 166.224 114.761 166.503 114.481C166.781 114.201 166.948 113.616 166.704 113.448C166.46 113.281 164.083 112.807 163.761 112.583C163.438 112.36 162.992 111.172 163.156 110.543" fill="#1F161E"/>
<path d="M140.89 71.139L144.346 69.899C144.197 63.594 142.723 49.5062 140.63 47.4113C140.138 46.9213 130.408 46.0664 128.672 46.0664C118.312 46.0664 115.239 47.248 114.459 48.0303C112.039 50.4498 111.285 61.6604 111.285 65.5861C111.285 69.5119 122.375 71.5483 122.375 71.5483L135.374 72.4415C135.374 72.4415 138.225 72.7359 140.691 72.8811C140.745 72.125 140.89 71.139 140.89 71.139Z" fill="#EBEEF3"/>
<path d="M151.189 74.7951C152.135 74.5149 161.539 72.9805 163.588 74.9968C165.636 77.0131 172.084 105.921 172.084 106.586H166.892L159.884 91.5021" fill="#1F161E"/>
<path d="M116.95 72.2236C116.714 73.4031 115.297 74.6693 115.297 81.0953C115.297 89.9811 122.576 90.1686 125.189 90.1686C133.331 90.1686 146.503 87.749 147.392 87.3054C147.983 88.2934 158.857 110.493 158.907 110.989H163.914C163.914 110.989 160.811 77.7764 155.211 74.01C153.393 72.8002 121.126 71.5058 116.95 72.2236Z" fill="#EF9A9A"/>
<path d="M146.269 65.7266C144.954 65.7266 143.87 66.0391 140.894 66.6238L140.738 72.3178C143.561 71.1806 144.216 69.5999 145.035 69.5999C147.08 69.5999 148.148 70.6544 149.356 70.6544C150.199 70.6544 151.715 69.993 151.715 69.0938C151.715 67.2106 147.898 65.7266 146.269 65.7266Z" fill="#EED0C3"/>
<path d="M167.188 106.188C167.188 106.667 166.907 109.68 167.466 109.96C168.024 110.24 174.164 110.406 174.442 110.127C174.72 109.849 174.888 109.262 174.644 109.095C174.4 108.928 172.023 108.452 171.7 108.228C171.377 108.004 170.932 106.817 171.095 106.188" fill="#1F161E"/>
<path d="M130.505 47.4066C130.505 48.1667 126.092 48.1889 126.092 47.4066V41.2246H130.505V47.4066Z" fill="#EED0C3"/>
<path d="M129.068 43.2625C128.665 43.2625 126.092 44.3997 126.092 45.0348V41.6797C126.733 41.6797 129.068 43.2625 129.068 43.2625Z" fill="#1F161E"/>
<path d="M129.921 43.5262C132.872 43.5262 135.264 41.134 135.264 38.183C135.264 35.2321 132.872 32.8398 129.921 32.8398C126.97 32.8398 124.578 35.2321 124.578 38.183C124.578 41.134 126.97 43.5262 129.921 43.5262Z" fill="#EED0C3"/>
<path d="M135.436 33.9875C134.775 35.0379 133.392 35.5198 131.894 35.5198C130.617 35.5198 128.758 35.1488 127.436 35.9029C126.72 36.3062 125.899 37.2236 125.734 39.0604C125.734 39.375 125.377 40.5948 125.377 40.988C125.377 41.2562 125.074 41.4316 124.57 41.4316C124.31 41.4316 123.796 41.0102 123.796 40.367C123.796 39.623 124.093 39.3589 124.093 38.7278C124.093 38.0967 123.32 37.4898 123.32 35.7356C123.32 33.2092 124.933 31.6526 126.075 31.6526C127.115 31.6526 127.442 31.8945 127.573 31.9974C127.573 29.7008 130.597 28.6523 131.797 28.6523C133.168 28.6523 133.813 29.2149 133.813 29.9307C133.813 31.0719 133.269 32.0417 132.992 32.2595C133.618 31.697 134.43 31.3873 135.271 31.3905C136.842 31.3905 137.37 32.4228 137.37 33.1285C137.37 34.6629 135.529 36.0844 134.843 36.0844C134.671 35.7195 134.469 35.3695 134.239 35.0379" fill="#1F161E"/>
<path d="M135.317 39.1616C135.804 39.1616 136.2 38.9558 136.2 38.7019C136.2 38.448 135.804 38.2422 135.317 38.2422C134.829 38.2422 134.434 38.448 134.434 38.7019C134.434 38.9558 134.829 39.1616 135.317 39.1616Z" fill="#FA9E9F"/>
<path d="M129.762 39.1616C130.25 39.1616 130.645 38.9558 130.645 38.7019C130.645 38.448 130.25 38.2422 129.762 38.2422C129.274 38.2422 128.879 38.448 128.879 38.7019C128.879 38.9558 129.274 39.1616 129.762 39.1616Z" fill="#FA9E9F"/>
<path d="M133.16 37.75C133.325 37.9859 134.168 38.9759 133.279 39.3771" stroke="#1F161E" stroke-width="0.201629" stroke-miterlimit="10" stroke-linecap="round"/>
<path d="M131.497 40.5314C131.231 40.5314 130.821 40.2007 130.605 39.9043" stroke="#1F161E" stroke-width="0.201629" stroke-miterlimit="10" stroke-linecap="round"/>
<path d="M111.285 64.9219C111.285 74.215 111.372 76.9107 115.102 76.9107C123.699 76.9107 136.696 69.8537 139.013 69.8537C141.06 69.8537 142.128 70.9103 143.336 70.9103C144.177 70.9103 145.693 70.2469 145.693 69.3497C145.693 67.4644 141.876 65.9804 140.249 65.9804C136.586 65.9804 121.965 69.513 121.609 69.513C121.252 69.513 120.651 69.3577 120.651 68.7569C120.651 67.666 121.365 65.1457 121.457 64.9259L111.285 64.9219Z" fill="#EED0C3"/>
<path d="M166.325 70.916H147.672L151.051 59.2941C151.136 59.0137 151.308 58.7681 151.544 58.594C151.779 58.42 152.065 58.3267 152.358 58.3283H168.186C168.394 58.3249 168.599 58.3702 168.787 58.4605C168.974 58.5507 169.138 58.6835 169.265 58.8482C169.391 59.0129 169.478 59.205 169.518 59.4091C169.557 59.6133 169.548 59.8238 169.492 60.024L166.325 70.916Z" fill="black"/>
<path d="M189.161 113.966C189.306 114.517 189.87 114.847 190.422 114.702C190.973 114.557 191.302 113.992 191.157 113.441L180.834 74.1753C180.689 73.6239 180.125 73.2944 179.573 73.4394C179.022 73.5843 178.692 74.1489 178.837 74.7003L189.161 113.966Z" fill="#999999"/>
<path d="M178.734 74.7011C178.879 74.1497 178.55 73.5852 177.998 73.4402C177.447 73.2953 176.882 73.6247 176.738 74.1761L166.414 113.442C166.269 113.993 166.599 114.558 167.15 114.703C167.702 114.848 168.266 114.518 168.411 113.967L178.734 74.7011Z" fill="#999999"/>
<path d="M164.492 74.7031C164.637 74.1517 164.308 73.5871 163.756 73.4422C163.205 73.2972 162.64 73.6267 162.495 74.1781L152.172 113.444C152.027 113.995 152.357 114.56 152.908 114.705C153.46 114.85 154.024 114.52 154.169 113.969L164.492 74.7031Z" fill="#E6E6E6"/>
<path d="M174.737 113.968C174.882 114.519 175.446 114.849 175.998 114.704C176.549 114.559 176.879 113.994 176.734 113.443L166.41 74.1773C166.265 73.6258 165.701 73.2964 165.15 73.4413C164.598 73.5863 164.269 74.1508 164.414 74.7022L174.737 113.968Z" fill="#E6E6E6"/>
<path d="M106.411 74.6172C106.553 74.0641 106.22 73.5002 105.667 73.3577C105.114 73.2152 104.55 73.5479 104.408 74.101L94.2579 113.483C94.1154 114.036 94.4482 114.6 95.0012 114.743C95.5542 114.885 96.1181 114.552 96.2607 113.999L106.411 74.6172Z" fill="#999999"/>
<path d="M116.499 113.816C116.641 114.369 117.205 114.701 117.758 114.559C118.311 114.416 118.644 113.852 118.502 113.299L108.352 73.9173C108.209 73.3643 107.645 73.0315 107.092 73.1741C106.539 73.3166 106.206 73.8805 106.349 74.4335L116.499 113.816Z" fill="#999999"/>
<path d="M185.094 71.5H85.2532C84.7488 71.5 84.3398 71.9089 84.3398 72.4134V73.6413C84.3398 74.1457 84.7488 74.5547 85.2532 74.5547H185.094C185.598 74.5547 186.007 74.1457 186.007 73.6413V72.4134C186.007 71.9089 185.598 71.5 185.094 71.5Z" fill="#E6E6E6"/>
<path d="M91.582 74.705C91.727 74.1536 91.3975 73.5891 90.8461 73.4441C90.2947 73.2992 89.7301 73.6286 89.5852 74.1801L79.262 113.446C79.1171 113.997 79.4465 114.562 79.9979 114.707C80.5494 114.852 81.1139 114.522 81.2588 113.971L91.582 74.705Z" fill="#E6E6E6"/>
<path d="M101.831 113.968C101.975 114.519 102.54 114.849 103.091 114.704C103.643 114.559 103.972 113.994 103.827 113.443L93.5042 74.1773C93.3592 73.6258 92.7947 73.2964 92.2433 73.4413C91.6919 73.5863 91.3624 74.1508 91.5074 74.7022L101.831 113.968Z" fill="#E6E6E6"/>
</g>
<defs>
<clipPath id="clip0_7013_221934">
<path d="M0 8C0 3.58172 3.58172 0 8 0H306C310.418 0 314 3.58172 314 8V115H0V8Z" fill="white"/>
</clipPath>
<clipPath id="clip1_7013_221934">
<rect width="82.668" height="88.9711" fill="white" transform="translate(166.104 22)"/>
</clipPath>
</defs>
</svg>
