<svg width="586" height="160" viewBox="0 0 586 160" fill="none" xmlns="http://www.w3.org/2000/svg">
<g clip-path="url(#clip0_7013_221898)">
<rect width="586" height="160" fill="#EAEAEA"/>
<path d="M256.491 75.0628C257.229 77.2728 264.384 106.353 265.768 107.762C267.152 109.172 305.906 129.237 305.906 129.237L303.285 135.889C303.285 135.889 262.673 122.922 260.57 121.772C258.467 120.622 242.458 106.578 240.014 100.675C237.57 94.7726 253.672 74.9726 256.491 75.0628Z" fill="#1F161E"/>
<path d="M217.591 154.291C217.591 154.962 217.983 159.173 217.202 159.565C216.421 159.957 207.841 160.188 207.449 159.799C207.057 159.41 206.826 158.59 207.167 158.356C207.508 158.122 210.831 157.457 211.282 157.147C211.733 156.836 212.356 155.173 212.128 154.291" fill="#1F161E"/>
<path d="M305.611 129.877C306.229 130.133 310.271 131.388 310.333 132.259C310.395 133.13 307.32 141.144 306.809 141.356C306.299 141.567 305.454 141.468 305.372 141.054C305.29 140.64 305.947 137.325 305.823 136.797C305.699 136.27 304.413 135.052 303.511 134.926" fill="#1F161E"/>
<path d="M219.077 58.4688C219.923 58.7112 226.595 60.3743 227.286 60.3743C227.977 60.3743 228.949 67.0861 228.256 67.0213C227.562 66.9565 218.801 64.3208 216.619 64.115C214.438 63.9092 219.077 58.4688 219.077 58.4688Z" fill="#EED0C3"/>
<path d="M243.527 29.3961C238.543 28.9253 229.337 31.3214 226.442 32.9817C220.731 36.2432 227.316 78.4084 230.278 81.5458C232.928 82.5917 255.367 77.3175 256.494 75.0624C255.897 70.538 246.997 54.9156 246.152 54.07C246.715 53.5062 249.252 50.4054 249.252 50.4054C249.252 50.4054 246.969 47.3412 246.715 47.1693C247.443 46.6844 254.71 40.9423 255.113 40.621C253.658 38.4673 245.202 29.5455 243.527 29.3961Z" fill="#999CBF"/>
<path d="M236.365 66.0057C236.757 65.0473 248.802 50.9584 249.239 50.3946C248.579 49.4784 247.491 48.0774 246.6 47.0119C250.036 44.5031 253.726 41.656 255.057 40.5059C255.079 40.5348 255.1 40.5649 255.119 40.5961C255.719 41.3121 261.078 49.3347 261.078 50.4622C261.078 51.5898 244.683 67.5504 242.64 68.3341C240.596 69.1178 235.976 66.9613 236.365 66.0057Z" fill="#EED0C3"/>
<path d="M234.351 70.6485C233.03 68.6289 233.753 65.8188 235.965 64.3721C238.178 62.9254 241.042 63.3898 242.363 65.4095C243.683 67.4292 242.96 70.2392 240.748 71.6859C238.535 73.1326 235.671 72.6682 234.351 70.6485Z" fill="#EED0C3"/>
<path d="M217.147 64.8974C214.999 64.8974 213.257 63.1557 213.257 61.0073C213.257 58.8588 214.999 57.1172 217.147 57.1172C219.295 57.1172 221.037 58.8588 221.037 61.0073C221.037 63.1557 219.295 64.8974 217.147 64.8974Z" fill="#EED0C3"/>
<path d="M230.275 81.546C230.275 81.546 218.872 103.917 217.128 108.568C215.383 113.219 211.126 154.581 211.126 154.581C211.126 154.581 216.809 155.252 218.334 154.581C219.859 153.91 226.196 123.821 229.689 117.667C235.002 108.286 263.882 90.8033 256.491 75.0625" fill="#FFCC80"/>
<path d="M238.808 31.6917C238.941 32.4246 232.979 33.493 232.846 32.7601L231.516 25.3379L237.478 24.2695L238.808 31.6917Z" fill="#EED0C3"/>
<path d="M233.583 27.3168C234.163 27.2125 238.18 28.1906 238.344 29.1068L237.478 24.2695C236.551 24.4358 233.583 27.3168 233.583 27.3168Z" fill="#1F161E"/>
<path d="M231.296 28.1254C226.605 28.1254 222.802 24.3228 222.802 19.632C222.802 14.9413 226.605 11.1387 231.296 11.1387C235.986 11.1387 239.789 14.9413 239.789 19.632C239.789 24.3228 235.986 28.1254 231.296 28.1254Z" fill="#EED0C3"/>
<path d="M222.328 23.0184C222.252 22.597 222.847 22.1378 223.656 21.9926C224.465 21.8475 225.182 22.0714 225.258 22.4928C225.333 22.9142 224.739 23.3735 223.93 23.5187C223.12 23.6638 222.403 23.4398 222.328 23.0184Z" fill="#EF9A9A"/>
<path d="M231.537 21.3661C231.461 20.9447 232.056 20.4854 232.865 20.3403C233.674 20.1951 234.391 20.4191 234.467 20.8405C234.542 21.2619 233.948 21.7212 233.139 21.8663C232.329 22.0115 231.612 21.7875 231.537 21.3661Z" fill="#EF9A9A"/>
<path d="M227.083 20.5332C226.88 20.9701 225.767 22.8644 227.365 23.2619" stroke="#1F161E" stroke-width="0.580785" stroke-miterlimit="10" stroke-linecap="round"/>
<path d="M230.67 24.6489C231.107 24.5559 231.69 23.9019 231.961 23.3438" stroke="#1F161E" stroke-width="0.580785" stroke-miterlimit="10" stroke-linecap="round"/>
<path d="M247.064 47.5848C246.286 46.7166 243.383 43.145 242.154 42.1387" stroke="#1F161E" stroke-width="0.483987" stroke-miterlimit="10" stroke-linecap="round"/>
<path d="M230.136 8.25513C232.391 8.25513 239.083 7.15011 240.715 6C241.364 6.45384 243.754 9.21355 245.538 12.7654L242.026 15.5082L246.198 14.1861C247.021 16.0187 247.498 17.9873 247.607 19.9931C246.243 22.6118 242.905 23.3391 242.297 23.3391C238.35 23.3391 237.617 17.1178 235.757 16.1255C232.591 14.4342 228.264 17.2531 223.37 16.4243C222.581 14.0621 224.732 8.25513 230.136 8.25513Z" fill="#1F161E"/>
<path d="M239.194 21.1681C238.111 21.1681 237.232 20.2897 237.232 19.2061C237.232 18.1225 238.111 17.2441 239.194 17.2441C240.278 17.2441 241.156 18.1225 241.156 19.2061C241.156 20.2897 240.278 21.1681 239.194 21.1681Z" fill="#EED0C3"/>
<path d="M245.863 65.8398C246.585 65.1774 253.192 66.1866 254.602 69.6792C252.766 65.6594 251.047 62.35 250.537 61.541C249.993 62.0597 245.863 65.8398 245.863 65.8398Z" fill="#1F161E"/>
<path d="M225.51 60.5957C225.666 61.7233 224.648 66.0531 222.539 65.495L226.398 66.5521L225.51 60.5957Z" fill="#1F161E"/>
<path d="M165.405 83.9147C174.123 85.5711 172.567 137.6 155.833 134.452C140.031 131.465 154.769 81.9095 165.405 83.9147Z" fill="black"/>
<path d="M127.128 90.366C134.066 86.4429 163.106 122.985 149.822 130.497C137.273 137.595 118.681 95.1426 127.128 90.366Z" fill="#FFF3E0"/>
<path d="M162.48 159.601H144.961C144.256 159.601 143.575 159.34 143.049 158.87C142.524 158.399 142.19 157.751 142.112 157.05L139.9 137.186C139.856 136.786 139.896 136.38 140.019 135.996C140.142 135.612 140.345 135.258 140.613 134.957C140.882 134.657 141.212 134.417 141.58 134.252C141.948 134.087 142.347 134.002 142.75 134.002H164.6C165.002 134.002 165.4 134.086 165.767 134.249C166.135 134.413 166.463 134.652 166.732 134.951C167.001 135.25 167.204 135.603 167.327 135.986C167.451 136.368 167.493 136.773 167.449 137.173L165.334 157.036C165.258 157.74 164.925 158.391 164.398 158.865C163.871 159.338 163.188 159.6 162.48 159.601Z" fill="#BFBFBF"/>
<path d="M170.327 63.6612C176.967 65.5929 171.878 105.769 159.163 102.057C147.16 98.5655 162.247 61.3119 170.327 63.6612Z" fill="#999CBF"/>
<path d="M181.277 95.6156C185.865 99.5755 167.199 129.827 158.38 122.229C150.052 115.084 175.674 90.7978 181.277 95.6156Z" fill="#FFF3E0"/>
<path d="M153.769 67.8418C163.708 67.8418 172.807 131.295 153.769 131.295C135.792 131.295 141.67 67.8418 153.769 67.8418Z" fill="#3B7858"/>
<path d="M171.209 129.684H136.245C135.219 129.684 134.387 130.516 134.387 131.542V134.928C134.387 135.955 135.219 136.787 136.245 136.787H171.209C172.235 136.787 173.067 135.955 173.067 134.928V131.542C173.067 130.516 172.235 129.684 171.209 129.684Z" fill="#D8D8D8"/>
<path d="M368.379 129.056V128.597L367.278 127.22L364.754 124.123L362.047 120.847C362.047 120.847 359.441 119.044 358.771 118.732C356.33 117.603 353.925 116.74 351.053 116.74C349.286 116.74 342.684 117.006 342.67 118.117C342.67 119.764 351.916 126 358.697 129.028C361.652 129.056 368.379 129.056 368.379 129.056Z" fill="#1F161E"/>
<path d="M366.979 129.056C357.568 121.829 338.361 82.3227 343.284 67.6855C353.773 73.0311 365.281 91.4629 370.709 107.027C370.997 108.039 371.226 109.067 371.398 110.106L373.6 120.2L374.151 129.056H366.979Z" fill="#FFF3E0"/>
<path d="M373.401 129.057C370.225 126.478 369.211 118.843 369.184 115.994C369.133 110.676 369.95 106.757 374.497 100.907C379.044 95.0565 377.819 85.3473 383.876 78.8042C389.933 72.2611 393.915 70.4395 401.083 70.4395C408.25 70.4395 410.521 82.0574 410.503 84.9802C410.42 96.7634 402.991 98.429 398.467 104.059C395.177 108.143 394.92 111.483 393.925 113.392C388.575 123.665 384.243 127.547 381.031 129.057" fill="#7DBF9D"/>
<path d="M375.137 128.203C375.228 108.092 396.423 77.8862 400.951 73.3574" stroke="white" stroke-width="0.183538" stroke-linecap="round" stroke-linejoin="round"/>
<path d="M376.299 119.077C373.954 116.521 371.82 109.276 372.142 107.395" stroke="white" stroke-width="0.183538" stroke-linecap="round" stroke-linejoin="round"/>
<path d="M370.292 127.336C366.97 121.435 351.209 92.7302 345.312 71.582" stroke="white" stroke-width="0.183538" stroke-linecap="round" stroke-linejoin="round"/>
<path d="M381.034 129.057H390.899L382.64 159.822H360.556L352.43 129.057H381.034Z" fill="#A7532F"/>
<path d="M345.879 118.746C350.692 119.076 356.749 119.297 361.044 122.21" stroke="white" stroke-width="0.183538" stroke-linecap="round" stroke-linejoin="round"/>
</g>
<defs>
<clipPath id="clip0_7013_221898">
<rect width="586" height="160" fill="white"/>
</clipPath>
</defs>
</svg>
