<svg width="314" height="115" viewBox="0 0 314 115" fill="none" xmlns="http://www.w3.org/2000/svg">
<g clip-path="url(#clip0_7013_221929)">
<path d="M0 8C0 3.58172 3.58172 0 8 0H306C310.418 0 314 3.58172 314 8V115H0V8Z" fill="#EAEAEA"/>
<path d="M130.752 68.6076C130.398 69.6646 126.977 83.5729 126.315 84.247C125.653 84.9211 107.117 94.5178 107.117 94.5178L108.371 97.6997C108.371 97.6997 127.795 91.4978 128.801 90.9477C129.807 90.3976 137.463 83.6808 138.632 80.8576C139.801 78.0344 132.1 68.5644 130.752 68.6076Z" fill="#1F161E"/>
<path d="M149.358 106.5C149.358 106.821 149.17 108.835 149.544 109.023C149.917 109.21 154.021 109.32 154.208 109.134C154.396 108.948 154.506 108.556 154.343 108.444C154.18 108.332 152.591 108.014 152.375 107.866C152.159 107.717 151.861 106.922 151.97 106.5" fill="#1F161E"/>
<path d="M107.259 94.8242C106.963 94.9469 105.03 95.5469 105 95.9635C104.971 96.3801 106.442 100.213 106.686 100.314C106.93 100.415 107.334 100.368 107.373 100.17C107.412 99.9718 107.098 98.3862 107.158 98.1341C107.217 97.882 107.832 97.2996 108.263 97.2389" fill="#1F161E"/>
<path d="M148.646 60.6699C148.242 60.7859 145.051 61.5813 144.72 61.5813C144.39 61.5813 143.925 64.7915 144.257 64.7604C144.588 64.7294 148.779 63.4688 149.822 63.3704C150.866 63.272 148.646 60.6699 148.646 60.6699Z" fill="#EED0C3"/>
<path d="M136.954 46.767C139.337 46.5419 143.741 47.6879 145.125 48.482C147.857 50.0419 144.707 70.2087 143.29 71.7093C142.023 72.2095 131.291 69.6869 130.752 68.6084C131.038 66.4445 135.294 58.9726 135.699 58.5681C135.429 58.2985 134.216 56.8154 134.216 56.8154C134.216 56.8154 135.308 55.3499 135.429 55.2676C135.081 55.0357 131.605 52.2894 131.413 52.1357C132.108 51.1056 136.153 46.8385 136.954 46.767Z" fill="#999CBF"/>
<path d="M140.379 64.2762C140.191 63.8178 134.43 57.0793 134.221 56.8097C134.537 56.3715 135.057 55.7014 135.483 55.1918C133.84 53.9919 132.075 52.6302 131.438 52.0801C131.428 52.0939 131.418 52.1083 131.409 52.1232C131.122 52.4657 128.559 56.3027 128.559 56.842C128.559 57.3813 136.4 65.015 137.377 65.3898C138.355 65.7646 140.565 64.7332 140.379 64.2762Z" fill="#EED0C3"/>
<path d="M141.341 66.4969C141.973 65.531 141.627 64.187 140.569 63.495C139.51 62.8031 138.141 63.0252 137.509 63.9912C136.877 64.9572 137.223 66.3012 138.281 66.9931C139.339 67.685 140.709 67.4629 141.341 66.4969Z" fill="#EED0C3"/>
<path d="M149.57 63.7465C150.597 63.7465 151.43 62.9135 151.43 61.8859C151.43 60.8584 150.597 60.0254 149.57 60.0254C148.542 60.0254 147.709 60.8584 147.709 61.8859C147.709 62.9135 148.542 63.7465 149.57 63.7465Z" fill="#EED0C3"/>
<path d="M143.289 71.7083C143.289 71.7083 148.743 82.4079 149.578 84.6325C150.412 86.857 152.448 106.64 152.448 106.64C152.448 106.64 149.73 106.96 149.001 106.64C148.271 106.319 145.24 91.9277 143.57 88.9846C141.028 84.4977 127.216 76.1359 130.751 68.6074" fill="#FFCC80"/>
<path d="M139.21 47.8643C139.147 48.2149 141.998 48.7259 142.062 48.3753L142.698 44.8254L139.846 44.3145L139.21 47.8643Z" fill="#EED0C3"/>
<path d="M141.709 45.7719C141.431 45.722 139.51 46.1898 139.432 46.628L139.846 44.3145C140.289 44.394 141.709 45.7719 141.709 45.7719Z" fill="#1F161E"/>
<path d="M142.802 46.1576C145.046 46.1576 146.865 44.3389 146.865 42.0954C146.865 39.8519 145.046 38.0332 142.802 38.0332C140.559 38.0332 138.74 39.8519 138.74 42.0954C138.74 44.3389 140.559 46.1576 142.802 46.1576Z" fill="#EED0C3"/>
<path d="M147.092 43.7146C147.128 43.513 146.844 43.2934 146.457 43.2239C146.07 43.1545 145.727 43.2616 145.69 43.4632C145.654 43.6647 145.939 43.8844 146.326 43.9538C146.713 44.0232 147.056 43.9161 147.092 43.7146Z" fill="#EF9A9A"/>
<path d="M142.686 42.9255C142.722 42.724 142.437 42.5043 142.05 42.4349C141.663 42.3655 141.32 42.4726 141.284 42.6741C141.248 42.8757 141.532 43.0953 141.919 43.1648C142.306 43.2342 142.649 43.1271 142.686 42.9255Z" fill="#EF9A9A"/>
<path d="M144.816 42.5273C144.914 42.7363 145.446 43.6423 144.682 43.8324" stroke="#1F161E" stroke-width="0.277778" stroke-miterlimit="10" stroke-linecap="round"/>
<path d="M143.102 44.4953C142.893 44.4508 142.614 44.138 142.484 43.8711" stroke="#1F161E" stroke-width="0.277778" stroke-miterlimit="10" stroke-linecap="round"/>
<path d="M135.26 55.4642C135.632 55.0489 137.021 53.3407 137.608 52.8594" stroke="#1F161E" stroke-width="0.231482" stroke-miterlimit="10" stroke-linecap="round"/>
<path d="M143.358 36.6548C142.28 36.6548 139.079 36.1262 138.298 35.5762C137.988 35.7932 136.845 37.1132 135.992 38.8119L137.671 40.1237L135.676 39.4914C135.283 40.3679 135.054 41.3094 135.002 42.2688C135.654 43.5213 137.251 43.8691 137.542 43.8691C139.43 43.8691 139.78 40.8936 140.67 40.419C142.184 39.6101 144.253 40.9583 146.594 40.5619C146.972 39.4321 145.943 36.6548 143.358 36.6548Z" fill="#1F161E"/>
<path d="M139.024 42.8318C139.543 42.8318 139.963 42.4117 139.963 41.8934C139.963 41.3752 139.543 40.9551 139.024 40.9551C138.506 40.9551 138.086 41.3752 138.086 41.8934C138.086 42.4117 138.506 42.8318 139.024 42.8318Z" fill="#EED0C3"/>
<path d="M135.836 64.1967C135.491 63.8798 132.33 64.3625 131.656 66.033C132.534 64.1104 133.356 62.5276 133.6 62.1406C133.861 62.3887 135.836 64.1967 135.836 64.1967Z" fill="#1F161E"/>
<path d="M145.567 61.6875C145.493 62.2268 145.98 64.2977 146.988 64.0307L145.143 64.5363L145.567 61.6875Z" fill="#1F161E"/>
<path d="M230.827 7.79688H167.756C164.225 7.79688 161.363 10.6589 161.363 14.1894V106.782C161.363 110.313 164.225 113.175 167.756 113.175H230.827C234.357 113.175 237.219 110.313 237.219 106.782V14.1894C237.219 10.6589 234.357 7.79688 230.827 7.79688Z" stroke="black" stroke-width="0.25059" stroke-miterlimit="10"/>
<path d="M237.408 18.8691H161.174V98.0055H237.408V18.8691Z" fill="#999999"/>
<path d="M199.293 110.715C202.237 110.715 204.623 108.328 204.623 105.385C204.623 102.441 202.237 100.055 199.293 100.055C196.349 100.055 193.963 102.441 193.963 105.385C193.963 108.328 196.349 110.715 199.293 110.715Z" fill="#FFCC80"/>
<path d="M231.092 27.5144C231.912 27.5144 232.577 26.8497 232.577 26.0297C232.577 25.2097 231.912 24.5449 231.092 24.5449C230.272 24.5449 229.607 25.2097 229.607 26.0297C229.607 26.8497 230.272 27.5144 231.092 27.5144Z" fill="#999CBF"/>
<path d="M231.092 31.7C231.912 31.7 232.577 31.0352 232.577 30.2152C232.577 29.3952 231.912 28.7305 231.092 28.7305C230.272 28.7305 229.607 29.3952 229.607 30.2152C229.607 31.0352 230.272 31.7 231.092 31.7Z" fill="#999CBF"/>
<path d="M231.092 35.8855C231.912 35.8855 232.577 35.2208 232.577 34.4008C232.577 33.5808 231.912 32.916 231.092 32.916C230.272 32.916 229.607 33.5808 229.607 34.4008C229.607 35.2208 230.272 35.8855 231.092 35.8855Z" fill="#999CBF"/>
<path d="M231.092 40.0711C231.912 40.0711 232.577 39.4063 232.577 38.5863C232.577 37.7663 231.912 37.1016 231.092 37.1016C230.272 37.1016 229.607 37.7663 229.607 38.5863C229.607 39.4063 230.272 40.0711 231.092 40.0711Z" fill="#999CBF"/>
<path d="M231.092 44.2566C231.912 44.2566 232.577 43.5919 232.577 42.7719C232.577 41.9519 231.912 41.2871 231.092 41.2871C230.272 41.2871 229.607 41.9519 229.607 42.7719C229.607 43.5919 230.272 44.2566 231.092 44.2566Z" fill="#999CBF"/>
<path d="M231.092 48.4402C231.912 48.4402 232.577 47.7755 232.577 46.9555C232.577 46.1354 231.912 45.4707 231.092 45.4707C230.272 45.4707 229.607 46.1354 229.607 46.9555C229.607 47.7755 230.272 48.4402 231.092 48.4402Z" fill="#999CBF"/>
<path d="M178.12 45.4714C183.356 45.4714 187.6 41.2271 187.6 35.9915C187.6 30.756 183.356 26.5117 178.12 26.5117C172.885 26.5117 168.641 30.756 168.641 35.9915C168.641 41.2271 172.885 45.4714 178.12 45.4714Z" stroke="black" stroke-width="0.102742" stroke-miterlimit="10"/>
<path d="M178.121 35.9922H219.626" stroke="black" stroke-width="0.0789359" stroke-miterlimit="10"/>
<path d="M152.455 54.0352H219.212" stroke="black" stroke-width="0.0789359" stroke-miterlimit="10"/>
<path d="M152.455 58.4375H219.212" stroke="black" stroke-width="0.0789359" stroke-miterlimit="10"/>
<path d="M152.455 62.8359H219.212" stroke="black" stroke-width="0.0789359" stroke-miterlimit="10"/>
<path d="M179.532 80.1484H166.828V92.8521H179.532V80.1484Z" fill="#51698F"/>
<path d="M196.94 80.1484H184.236V92.8521H196.94V80.1484Z" fill="#51698F"/>
<path d="M214.348 80.1484H201.645V92.8521H214.348V80.1484Z" fill="#51698F"/>
<path d="M231.756 80.1484H219.053V92.8521H231.756V80.1484Z" fill="#51698F"/>
<g clip-path="url(#clip1_7013_221929)">
<path d="M212.301 114.46C211.838 114.471 209.086 114.677 208.614 114.293C207.757 113.599 207.989 107.768 208.253 107.488C208.517 107.207 209.084 107.025 209.255 107.268C209.426 107.511 209.949 109.814 210.181 110.117C210.412 110.42 211.57 110.828 212.19 110.645" fill="#1F161E"/>
<path d="M267.296 100.493C266.66 99.7406 244.873 83.5947 240.579 83.6781C236.285 83.7614 223.72 109.836 223.958 110.713C224.197 111.59 230.847 110.15 231.796 109.352C232.745 108.553 239.377 101.535 241.026 97.9859C241.674 98.9258 247.012 105.111 248.607 106.109C250.202 107.106 267.296 100.493 267.296 100.493Z" fill="#1F161E"/>
<path d="M211.604 114.616C211.965 114.903 274.872 116.061 280.071 114.616C285.271 113.172 286.643 113.315 286.571 110.283C286.5 107.251 276.386 99.5215 275.088 99.5215C273.097 99.5215 252.615 101.142 236.372 107.135C229.891 108.195 212.067 110.195 212.067 110.195C211.775 111.255 211.252 113.209 211.604 114.616Z" fill="#FFCC80"/>
<path d="M289.957 71.2875C293.348 72.7899 297.519 92.2042 296.952 92.8408C296.385 93.4774 291.577 95.6672 291.577 95.6672C291.485 100.394 287.48 111.709 286.279 112.202C277.834 109.799 272.64 102.311 272.64 100.26C272.64 98.2089 266.209 99.7806 265.714 99.2089C265.483 98.9718 265.22 98.7678 264.934 98.6024C264.934 98.6024 268.406 95.5931 271.121 93.6394C271.026 92.8038 270.299 77.144 271.237 75.6718C273.103 72.7528 285.73 69.4149 289.957 71.2875Z" fill="#EF9A9A"/>
<path d="M291.606 95.6621C290.68 96.0996 282.27 99.7246 278.59 100.493" stroke="#1F161E" stroke-width="0.127315" stroke-miterlimit="10" stroke-linecap="round"/>
<path d="M286.335 83.1387C286.772 84.0646 289.464 89.4003 289.136 89.9489C288.807 90.4975 273.478 97.6387 272.131 98.0739" stroke="#1F161E" stroke-width="0.127315" stroke-miterlimit="10" stroke-linecap="round"/>
<path d="M273.624 81.7676C273.538 83.7444 273.594 93.4111 273.922 96.9806" stroke="#1F161E" stroke-width="0.127315" stroke-miterlimit="10" stroke-linecap="round"/>
<path d="M272.133 98.075C272.272 98.3643 273.24 101.158 273.342 101.765C273.443 102.371 269.485 103.172 268.105 103.105C266.726 103.038 265.043 101.758 265.043 100.244C265.043 98.7301 267.115 97.6583 272.133 98.075Z" fill="#EED0C3"/>
<path d="M277.708 73.3726C277.847 74.0323 281.486 73.324 281.34 72.6157L280.419 68.2129L276.789 68.9698L277.708 73.3726Z" fill="#EED0C3"/>
<path d="M280.968 70.8387C280.887 70.4475 279.706 69.2831 279.062 69.6535C279.852 69.1744 280.06 68.0586 280.419 68.2044L280.968 70.8387Z" fill="black"/>
<path d="M276.321 70.5112C278.981 70.5112 281.138 68.3545 281.138 65.6941C281.138 63.0337 278.981 60.877 276.321 60.877C273.661 60.877 271.504 63.0337 271.504 65.6941C271.504 68.3545 273.661 70.5112 276.321 70.5112Z" fill="#EED0C3"/>
<path d="M271.772 67.7343C272.206 67.6436 272.52 67.3865 272.473 67.16C272.425 66.9335 272.035 66.8234 271.601 66.914C271.166 67.0046 270.853 67.2618 270.9 67.4883C270.947 67.7148 271.338 67.8249 271.772 67.7343Z" fill="#EF9A9A"/>
<path d="M276.717 66.7011C277.152 66.6104 277.465 66.3533 277.418 66.1268C277.371 65.9003 276.98 65.7902 276.546 65.8808C276.112 65.9714 275.798 66.2285 275.845 66.4551C275.893 66.6816 276.283 66.7917 276.717 66.7011Z" fill="#EF9A9A"/>
<path d="M273.425 66.0723C273.323 66.3037 272.751 67.35 273.622 67.5399" stroke="#1F161E" stroke-width="0.159722" stroke-miterlimit="10" stroke-linecap="round"/>
<path d="M275.426 68.2382C275.657 68.1827 275.965 67.8192 276.104 67.5137" stroke="#1F161E" stroke-width="0.159722" stroke-miterlimit="10" stroke-linecap="round"/>
<path d="M280.253 62.0047C279.91 60.3681 277.373 59.6251 275.785 59.9561C273.257 60.4839 270.306 61.7431 269.834 62.0394C269.044 62.5163 269.098 63.4515 269.163 63.757C269.429 65.0302 270.058 65.7246 271.503 65.6343C271.505 65.162 271.583 64.693 271.734 64.2455C272.094 64.0136 272.525 63.9161 272.95 63.97C273.332 64.0209 276.619 64.8056 278.832 64.3427C279.213 64.6945 280.392 67.095 280.424 68.2061C281.079 68.1066 281.834 65.7478 281.663 64.6297C281.598 64.2487 281.445 63.8881 281.216 63.5769C280.987 63.2657 280.688 63.0126 280.343 62.838C280.311 62.5973 280.278 62.1343 280.253 62.0047Z" fill="black"/>
<path d="M279.244 66.3782C279.829 66.3782 280.304 65.9035 280.304 65.318C280.304 64.7325 279.829 64.2578 279.244 64.2578C278.658 64.2578 278.184 64.7325 278.184 65.318C278.184 65.9035 278.658 66.3782 279.244 66.3782Z" fill="#EED0C3"/>
</g>
</g>
<defs>
<clipPath id="clip0_7013_221929">
<path d="M0 8C0 3.58172 3.58172 0 8 0H306C310.418 0 314 3.58172 314 8V115H0V8Z" fill="white"/>
</clipPath>
<clipPath id="clip1_7013_221929">
<rect width="88.9909" height="55.4468" fill="white" transform="translate(208.01 59.8809)"/>
</clipPath>
</defs>
</svg>
