<svg width="440" height="160" viewBox="0 0 440 160" fill="none" xmlns="http://www.w3.org/2000/svg">
<rect width="440" height="160" fill="#EAEAEA"/>
<path d="M375.129 142.906C375.129 143.503 375.405 147.005 374.918 147.605C374.031 148.696 366.608 148.401 366.252 148.063C365.896 147.725 365.667 147.005 365.972 146.787C366.277 146.568 369.209 145.896 369.609 145.605C370.009 145.314 370.514 143.834 370.285 143.059" fill="#1F161E"/>
<path d="M350.754 142.906C350.754 143.503 351.034 147.005 350.544 147.605C349.656 148.696 342.238 148.401 341.881 148.063C341.525 147.725 341.292 147.005 341.601 146.787C341.91 146.568 344.834 145.896 345.238 145.605C345.641 145.314 346.143 143.834 345.911 143.059" fill="#1F161E"/>
<path d="M342.862 79.3672C343.175 80.0027 343.335 80.7027 343.328 81.411C343.328 83.3129 342.266 84.8548 340.96 84.8548C339.655 84.8548 338.593 83.3129 338.593 81.411C338.586 80.7027 338.746 80.0027 339.059 79.3672H342.862Z" fill="#EED0C3"/>
<path d="M344.942 142.958C344.215 142.11 342.142 79.3606 342.142 79.3606L349.859 79.1934C349.859 79.1934 356.041 96.3254 356.041 97.06C356.041 97.7946 352.874 112.334 351.677 116.167C351.601 118.251 351.986 142.569 351.368 143.147C350.75 143.725 345.666 143.823 344.942 142.958Z" fill="#1F161E"/>
<path d="M348.178 80.1321C348.178 83.7288 359.815 109.829 362.041 113.073C363.394 117.393 368.798 142.249 369.583 142.838C370.369 143.427 375.38 144.016 375.969 142.838C376.558 141.66 368.543 84.507 367.089 77.2738C365.634 70.0405 348.178 72.9753 348.178 80.1321Z" fill="#51698F"/>
<path d="M365.271 39.0894C362.907 36.3619 342.248 34.6491 339.815 36.5437C334.905 40.3622 338.36 79.0921 338.724 80.5467C339.087 81.274 341.633 79.8194 341.633 79.8194C341.997 80.183 360.18 80.9104 367.089 77.2738C367.089 75.4555 365.998 67.8186 365.998 67.8186C367.453 67.8186 371.453 66.7276 372.181 65.6366C372.908 64.5456 368.053 42.2932 365.271 39.0894Z" fill="#3B7858"/>
<path d="M366.203 68.1816C364.621 68.4617 352.42 69.3672 348.187 69.029" stroke="#1F161E" stroke-width="0.200014" stroke-miterlimit="10" stroke-linecap="round"/>
<path d="M347.543 65.0184C359.089 62.5274 364.584 63.8693 360.907 52.8867" stroke="#1F161E" stroke-width="0.200014" stroke-miterlimit="10" stroke-linecap="round"/>
<path d="M341.033 51.2383C341.095 52.2747 341.826 79.8548 341.826 79.8548" stroke="#1F161E" stroke-width="0.200014" stroke-miterlimit="10" stroke-linecap="round"/>
<path d="M347.353 37.1104C347.353 38.0595 352.568 38.1141 352.564 37.1104V30.7754H347.353V37.1104Z" fill="#EED0C3"/>
<path d="M352.543 34.5475C352.543 33.9839 350.83 31.5728 349.837 31.9037C351.063 31.4673 352.081 30.4491 352.532 30.7618L352.543 34.5475Z" fill="#1F161E"/>
<path d="M347.506 33.2777C343.768 33.2777 340.738 30.2476 340.738 26.5099C340.738 22.7722 343.768 19.7422 347.506 19.7422C351.243 19.7422 354.273 22.7722 354.273 26.5099C354.273 30.2476 351.243 33.2777 347.506 33.2777Z" fill="#EED0C3"/>
<path d="M340.137 28.7766C340.103 28.453 340.579 28.1383 341.201 28.0738C341.822 28.0093 342.353 28.2193 342.386 28.5429C342.42 28.8666 341.944 29.1812 341.322 29.2458C340.701 29.3103 340.17 29.1002 340.137 28.7766Z" fill="#EF9A9A"/>
<path d="M347.201 28.0383C347.167 27.7147 347.644 27.4 348.265 27.3355C348.886 27.271 349.417 27.481 349.451 27.8046C349.484 28.1283 349.008 28.4429 348.387 28.5075C347.766 28.572 347.235 28.362 347.201 28.0383Z" fill="#EF9A9A"/>
<path d="M343.878 27.1602C343.7 27.4802 342.751 28.8512 343.943 29.2439" stroke="#1F161E" stroke-width="0.250926" stroke-miterlimit="10" stroke-linecap="round"/>
<path d="M346.361 30.4772C346.696 30.4336 347.176 29.9681 347.412 29.5645" stroke="#1F161E" stroke-width="0.250926" stroke-miterlimit="10" stroke-linecap="round"/>
<path d="M352.976 27.1617C352.152 27.1617 351.485 26.4942 351.485 25.6707C351.485 24.8472 352.152 24.1797 352.976 24.1797C353.799 24.1797 354.467 24.8472 354.467 25.6707C354.467 26.4942 353.799 27.1617 352.976 27.1617Z" fill="#EED0C3"/>
<path d="M351.967 26.9827C351.967 28.9683 354.149 30.2556 354.898 30.2556C355.014 30.2697 355.132 30.2587 355.244 30.2232C355.356 30.1877 355.458 30.1287 355.545 30.0501C355.632 29.9715 355.701 29.8751 355.747 29.7675C355.794 29.66 355.817 29.5436 355.814 29.4265C355.814 28.5937 355.327 27.8846 354.298 26.9827C354.487 26.6736 355.814 25.0444 355.814 22.7242C355.814 20.2913 354.32 18.2512 353.32 18.2512C352.892 18.2796 352.486 18.4489 352.165 18.7324C351.844 19.016 351.626 19.3979 351.545 19.8186C351.545 16.4183 347.908 14 345.726 14C343.708 14 343.359 14.8801 343.359 15.5928C343.359 17.1602 344.595 18.8367 345.057 19.2476C343.926 18.4148 342.148 17.5748 340.635 17.5748C339.671 17.5748 338.453 17.8475 338.453 19.1676C338.453 21.5932 340.726 22.997 341.486 23.3897C341.775 22.8247 342.143 22.3032 342.577 21.8405C342.435 22.2987 342.995 23.1315 344.068 23.317C344.686 23.4188 351.967 22.4369 351.967 26.9827Z" fill="#1F161E"/>
<path d="M338.022 71.7062H342.088C342.088 71.7062 343.328 60.1564 343.328 59.2508C343.328 58.3453 336.866 58.4581 336.866 59.2508C336.866 60.0436 338.022 71.7062 338.022 71.7062Z" fill="#1F161E"/>
<path d="M340.876 63.1699C340.298 63.1699 336.992 63.9518 336.992 65.6537C336.992 67.7448 339.585 68.4576 340.094 68.4576C342.832 68.4576 343.603 67.9884 347.975 67.9884C347.975 67.4757 347.88 65.1264 347.273 64.8973C346.531 64.9082 344.425 63.1699 340.876 63.1699Z" fill="#EED0C3"/>
<path d="M324.752 147.129C325.479 147.956 326.374 148.62 327.377 149.074C328.38 149.529 329.469 149.765 330.57 149.765H388.214C389.307 149.764 390.388 149.532 391.385 149.084C392.382 148.636 393.273 147.982 394 147.165" stroke="#999999" stroke-width="1.45464" stroke-linecap="round" stroke-linejoin="round"/>
<path d="M382.275 155.937C380.922 155.937 379.824 154.84 379.824 153.486C379.824 152.133 380.922 151.035 382.275 151.035C383.629 151.035 384.727 152.133 384.727 153.486C384.727 154.84 383.629 155.937 382.275 155.937Z" fill="#999999"/>
<path d="M336.477 155.937C335.123 155.937 334.026 154.84 334.026 153.486C334.026 152.133 335.123 151.035 336.477 151.035C337.83 151.035 338.928 152.133 338.928 153.486C338.928 154.84 337.83 155.937 336.477 155.937Z" fill="#999999"/>
<g opacity="0.76">
<path d="M264.196 76.2422H283.316C293.366 76.2422 301.514 84.3897 301.514 94.4401V134.019C301.514 144.069 293.366 152.217 283.316 152.217H264.196C254.146 152.217 245.999 144.069 245.999 134.019V94.4401C245.999 84.3897 254.146 76.2422 264.196 76.2422Z" fill="#C7C9E3"/>
</g>
<path d="M271.029 70.9282C266.322 70.9431 261.813 72.8193 258.485 76.147C255.158 79.4748 253.282 83.9839 253.267 88.6901V128.269C253.282 132.975 255.158 137.484 258.485 140.812C261.813 144.139 266.322 146.016 271.029 146.031H290.148C294.854 146.016 299.363 144.139 302.691 140.812C306.019 137.484 307.895 132.975 307.91 128.269V88.6901C307.895 83.9839 306.019 79.4748 302.691 76.147C299.363 72.8193 294.854 70.9431 290.148 70.9282H271.029ZM271.029 70.4922H290.148C300.156 70.4922 308.346 78.6814 308.346 88.6901V128.269C308.346 138.277 300.156 146.467 290.148 146.467H271.029C261.02 146.467 252.831 138.277 252.831 128.269V88.6901C252.831 78.6814 261.02 70.4922 271.029 70.4922Z" fill="black"/>
<path d="M280.588 70.4922H290.148C300.156 70.4922 308.346 78.6814 308.346 88.6901V92.55H280.588V70.4922Z" fill="#F7D999"/>
<path d="M308.287 92.5664H252.891" stroke="black" stroke-width="0.435983" stroke-miterlimit="10"/>
<path d="M280.648 91.9842V35.9445H333.996V14" stroke="#C7C9E3" stroke-width="0.726638" stroke-linecap="round" stroke-linejoin="round"/>
<path d="M281.693 120.133C280.539 120.133 279.604 119.197 279.604 118.043C279.604 116.889 280.539 115.953 281.693 115.953C282.848 115.953 283.783 116.889 283.783 118.043C283.783 119.197 282.848 120.133 281.693 120.133Z" fill="#999CBF"/>
<path d="M275.807 120.133C274.653 120.133 273.717 119.197 273.717 118.043C273.717 116.889 274.653 115.953 275.807 115.953C276.961 115.953 277.896 116.889 277.896 118.043C277.896 119.197 276.961 120.133 275.807 120.133Z" fill="#999CBF"/>
<path d="M269.918 120.133C268.764 120.133 267.828 119.197 267.828 118.043C267.828 116.889 268.764 115.953 269.918 115.953C271.072 115.953 272.008 116.889 272.008 118.043C272.008 119.197 271.072 120.133 269.918 120.133Z" fill="#999CBF"/>
<path d="M264.029 120.133C262.875 120.133 261.94 119.197 261.94 118.043C261.94 116.889 262.875 115.953 264.029 115.953C265.184 115.953 266.119 116.889 266.119 118.043C266.119 119.197 265.184 120.133 264.029 120.133Z" fill="#999CBF"/>
<path d="M258.141 120.133C256.986 120.133 256.051 119.197 256.051 118.043C256.051 116.889 256.986 115.953 258.141 115.953C259.295 115.953 260.23 116.889 260.23 118.043C260.23 119.197 259.295 120.133 258.141 120.133Z" fill="#999CBF"/>
<path d="M252.254 120.133C251.1 120.133 250.164 119.197 250.164 118.043C250.164 116.889 251.1 115.953 252.254 115.953C253.408 115.953 254.344 116.889 254.344 118.043C254.344 119.197 253.408 120.133 252.254 120.133Z" fill="#999CBF"/>
<path d="M281.693 132.289C280.539 132.289 279.604 131.353 279.604 130.199C279.604 129.045 280.539 128.109 281.693 128.109C282.848 128.109 283.783 129.045 283.783 130.199C283.783 131.353 282.848 132.289 281.693 132.289Z" fill="#999CBF"/>
<path d="M275.807 132.289C274.653 132.289 273.717 131.353 273.717 130.199C273.717 129.045 274.653 128.109 275.807 128.109C276.961 128.109 277.896 129.045 277.896 130.199C277.896 131.353 276.961 132.289 275.807 132.289Z" fill="#999CBF"/>
<path d="M269.918 132.289C268.764 132.289 267.828 131.353 267.828 130.199C267.828 129.045 268.764 128.109 269.918 128.109C271.072 128.109 272.008 129.045 272.008 130.199C272.008 131.353 271.072 132.289 269.918 132.289Z" fill="#999CBF"/>
<path d="M264.029 132.289C262.875 132.289 261.94 131.353 261.94 130.199C261.94 129.045 262.875 128.109 264.029 128.109C265.184 128.109 266.119 129.045 266.119 130.199C266.119 131.353 265.184 132.289 264.029 132.289Z" fill="#999CBF"/>
<path d="M258.141 132.289C256.986 132.289 256.051 131.353 256.051 130.199C256.051 129.045 256.986 128.109 258.141 128.109C259.295 128.109 260.23 129.045 260.23 130.199C260.23 131.353 259.295 132.289 258.141 132.289Z" fill="#999CBF"/>
<path d="M252.254 132.289C251.1 132.289 250.164 131.353 250.164 130.199C250.164 129.045 251.1 128.109 252.254 128.109C253.408 128.109 254.344 129.045 254.344 130.199C254.344 131.353 253.408 132.289 252.254 132.289Z" fill="#999CBF"/>
<path d="M278.654 126.211C277.5 126.211 276.565 125.275 276.565 124.121C276.565 122.967 277.5 122.031 278.654 122.031C279.809 122.031 280.744 122.967 280.744 124.121C280.744 125.275 279.809 126.211 278.654 126.211Z" fill="#999CBF"/>
<path d="M272.766 126.211C271.611 126.211 270.676 125.275 270.676 124.121C270.676 122.967 271.611 122.031 272.766 122.031C273.92 122.031 274.855 122.967 274.855 124.121C274.855 125.275 273.92 126.211 272.766 126.211Z" fill="#999CBF"/>
<path d="M266.877 126.211C265.723 126.211 264.787 125.275 264.787 124.121C264.787 122.967 265.723 122.031 266.877 122.031C268.031 122.031 268.967 122.967 268.967 124.121C268.967 125.275 268.031 126.211 266.877 126.211Z" fill="#999CBF"/>
<path d="M260.99 126.211C259.836 126.211 258.9 125.275 258.9 124.121C258.9 122.967 259.836 122.031 260.99 122.031C262.144 122.031 263.08 122.967 263.08 124.121C263.08 125.275 262.144 126.211 260.99 126.211Z" fill="#999CBF"/>
<path d="M255.102 126.211C253.947 126.211 253.012 125.275 253.012 124.121C253.012 122.967 253.947 122.031 255.102 122.031C256.256 122.031 257.191 122.967 257.191 124.121C257.191 125.275 256.256 126.211 255.102 126.211Z" fill="#999CBF"/>
<path d="M249.215 126.211C248.061 126.211 247.125 125.275 247.125 124.121C247.125 122.967 248.061 122.031 249.215 122.031C250.369 122.031 251.305 122.967 251.305 124.121C251.305 125.275 250.369 126.211 249.215 126.211Z" fill="#999CBF"/>
<path d="M278.654 138.367C277.5 138.367 276.565 137.431 276.565 136.277C276.565 135.123 277.5 134.188 278.654 134.188C279.809 134.188 280.744 135.123 280.744 136.277C280.744 137.431 279.809 138.367 278.654 138.367Z" fill="#999CBF"/>
<path d="M272.766 138.367C271.611 138.367 270.676 137.431 270.676 136.277C270.676 135.123 271.611 134.188 272.766 134.188C273.92 134.188 274.855 135.123 274.855 136.277C274.855 137.431 273.92 138.367 272.766 138.367Z" fill="#999CBF"/>
<path d="M266.877 138.367C265.723 138.367 264.787 137.431 264.787 136.277C264.787 135.123 265.723 134.188 266.877 134.188C268.031 134.188 268.967 135.123 268.967 136.277C268.967 137.431 268.031 138.367 266.877 138.367Z" fill="#999CBF"/>
<path d="M260.99 138.367C259.836 138.367 258.9 137.431 258.9 136.277C258.9 135.123 259.836 134.188 260.99 134.188C262.144 134.188 263.08 135.123 263.08 136.277C263.08 137.431 262.144 138.367 260.99 138.367Z" fill="#999CBF"/>
<path d="M255.102 138.367C253.947 138.367 253.012 137.431 253.012 136.277C253.012 135.123 253.947 134.188 255.102 134.188C256.256 134.188 257.191 135.123 257.191 136.277C257.191 137.431 256.256 138.367 255.102 138.367Z" fill="#999CBF"/>
<path d="M249.215 138.367C248.061 138.367 247.125 137.431 247.125 136.277C247.125 135.123 248.061 134.188 249.215 134.188C250.369 134.188 251.305 135.123 251.305 136.277C251.305 137.431 250.369 138.367 249.215 138.367Z" fill="#999CBF"/>
</svg>
