<svg width="586" height="160" viewBox="0 0 586 160" fill="none" xmlns="http://www.w3.org/2000/svg">
<rect width="586" height="160" fill="#EAEAEA"/>
<path d="M180.008 92.3869C179.5 93.9059 174.583 113.893 173.631 114.862C172.68 115.831 146.043 129.622 146.043 129.622L147.845 134.195C147.845 134.195 175.759 125.282 177.204 124.492C178.649 123.701 189.653 114.048 191.332 109.991C193.012 105.934 181.945 92.3249 180.008 92.3869Z" fill="#1F161E"/>
<path d="M206.745 146.844C206.745 147.305 206.476 150.2 207.013 150.469C207.549 150.738 213.447 150.897 213.716 150.63C213.986 150.362 214.145 149.798 213.91 149.638C213.676 149.477 211.391 149.02 211.081 148.806C210.771 148.593 210.343 147.45 210.5 146.844" fill="#1F161E"/>
<path d="M146.246 130.062C145.822 130.239 143.043 131.101 143.001 131.7C142.958 132.298 145.072 137.807 145.423 137.952C145.773 138.097 146.354 138.03 146.411 137.745C146.467 137.46 146.015 135.181 146.101 134.819C146.186 134.457 147.069 133.62 147.689 133.533" fill="#1F161E"/>
<path d="M205.722 80.9805C205.141 81.1471 200.555 82.2902 200.08 82.2902C199.606 82.2902 198.937 86.9035 199.414 86.8589C199.89 86.8143 205.912 85.0028 207.412 84.8613C208.912 84.7199 205.722 80.9805 205.722 80.9805Z" fill="#EED0C3"/>
<path d="M188.92 61.0003C192.346 60.6768 198.674 62.3236 200.664 63.4648C204.589 65.7066 200.063 94.6879 198.027 96.8444C196.205 97.5632 180.783 93.9381 180.008 92.3881C180.419 89.2784 186.535 78.5407 187.117 77.9594C186.729 77.5719 184.985 75.4406 184.985 75.4406C184.985 75.4406 186.555 73.3346 186.729 73.2164C186.229 72.8831 181.234 68.9364 180.957 68.7155C181.957 67.2353 187.77 61.103 188.92 61.0003Z" fill="#999CBF"/>
<path d="M193.842 86.1615C193.572 85.5028 185.293 75.8191 184.993 75.4316C185.446 74.8019 186.194 73.8389 186.807 73.1066C184.445 71.3822 181.909 69.4253 180.994 68.6348C180.979 68.6547 180.964 68.6754 180.951 68.6968C180.539 69.1889 176.855 74.7031 176.855 75.4781C176.855 76.2531 188.124 87.2233 189.529 87.7619C190.933 88.3006 194.109 86.8184 193.842 86.1615Z" fill="#EED0C3"/>
<path d="M195.225 89.3531C196.132 87.9649 195.636 86.0335 194.115 85.0391C192.594 84.0447 190.625 84.364 189.718 85.7521C188.81 87.1403 189.307 89.0717 190.828 90.0661C192.348 91.0605 194.317 90.7412 195.225 89.3531Z" fill="#EED0C3"/>
<path d="M207.051 85.4003C208.527 85.4003 209.725 84.2032 209.725 82.7265C209.725 81.2498 208.527 80.0527 207.051 80.0527C205.574 80.0527 204.377 81.2498 204.377 82.7265C204.377 84.2032 205.574 85.4003 207.051 85.4003Z" fill="#EED0C3"/>
<path d="M198.025 96.843C198.025 96.843 205.862 112.219 207.062 115.416C208.261 118.613 211.187 147.042 211.187 147.042C211.187 147.042 207.281 147.503 206.232 147.042C205.184 146.581 200.829 125.9 198.428 121.67C194.776 115.222 174.926 103.206 180.006 92.3867" fill="#FFCC80"/>
<path d="M192.162 62.5761C192.071 63.0798 196.168 63.8142 196.26 63.3104L197.174 58.2089L193.076 57.4746L192.162 62.5761Z" fill="#EED0C3"/>
<path d="M195.753 59.5691C195.354 59.4974 192.593 60.1697 192.48 60.7994L193.075 57.4746C193.713 57.5889 195.753 59.5691 195.753 59.5691Z" fill="#1F161E"/>
<path d="M197.326 60.1247C200.55 60.1247 203.164 57.5111 203.164 54.287C203.164 51.0629 200.55 48.4492 197.326 48.4492C194.102 48.4492 191.488 51.0629 191.488 54.287C191.488 57.5111 194.102 60.1247 197.326 60.1247Z" fill="#EED0C3"/>
<path d="M203.489 56.6142C203.541 56.3245 203.132 56.0088 202.576 55.9091C202.02 55.8093 201.527 55.9633 201.475 56.2529C201.423 56.5425 201.832 56.8582 202.388 56.958C202.944 57.0577 203.437 56.9038 203.489 56.6142Z" fill="#EF9A9A"/>
<path d="M197.159 55.4794C197.211 55.1898 196.802 54.8741 196.246 54.7743C195.69 54.6746 195.197 54.8285 195.145 55.1181C195.093 55.4078 195.502 55.7234 196.058 55.8232C196.614 55.923 197.107 55.769 197.159 55.4794Z" fill="#EF9A9A"/>
<path d="M200.219 54.9082C200.359 55.2085 201.124 56.5105 200.025 56.7837" stroke="#1F161E" stroke-width="0.39919" stroke-miterlimit="10" stroke-linecap="round"/>
<path d="M197.757 57.7369C197.456 57.673 197.055 57.2235 196.869 56.8398" stroke="#1F161E" stroke-width="0.39919" stroke-miterlimit="10" stroke-linecap="round"/>
<path d="M186.486 73.5011C187.021 72.9043 189.017 70.4495 189.861 69.7578" stroke="#1F161E" stroke-width="0.332658" stroke-miterlimit="10" stroke-linecap="round"/>
<path d="M198.124 46.468C196.574 46.468 191.974 45.7085 190.852 44.918C190.407 45.2299 188.764 47.1267 187.537 49.568L189.952 51.4532L187.084 50.5445C186.519 51.8041 186.19 53.1572 186.115 54.5358C187.053 56.3358 189.347 56.8356 189.766 56.8356C192.478 56.8356 192.982 52.5595 194.261 51.8775C196.436 50.715 199.41 52.6525 202.774 52.0829C203.317 50.4593 201.838 46.468 198.124 46.468Z" fill="#1F161E"/>
<path d="M191.895 55.3435C192.64 55.3435 193.244 54.7398 193.244 53.995C193.244 53.2502 192.64 52.6465 191.895 52.6465C191.151 52.6465 190.547 53.2502 190.547 53.995C190.547 54.7398 191.151 55.3435 191.895 55.3435Z" fill="#EED0C3"/>
<path d="M187.313 86.0485C186.817 85.5931 182.275 86.2868 181.307 88.6874C182.568 85.9245 183.75 83.6498 184.101 83.0938C184.474 83.4503 187.313 86.0485 187.313 86.0485Z" fill="#1F161E"/>
<path d="M201.3 82.4434C201.193 83.2184 201.893 86.1944 203.342 85.8108L200.689 86.5373L201.3 82.4434Z" fill="#1F161E"/>
<path d="M323.823 5H233.185C228.111 5 223.998 9.11299 223.998 14.1866V147.251C223.998 152.324 228.111 156.437 233.185 156.437H323.823C328.897 156.437 333.01 152.324 333.01 147.251V14.1866C333.01 9.11299 328.897 5 323.823 5Z" stroke="black" stroke-width="0.360119" stroke-miterlimit="10"/>
<path d="M333.282 20.9102H223.727V134.636H333.282V20.9102Z" fill="#999999"/>
<path d="M278.503 152.901C282.734 152.901 286.163 149.472 286.163 145.242C286.163 141.011 282.734 137.582 278.503 137.582C274.273 137.582 270.844 141.011 270.844 145.242C270.844 149.472 274.273 152.901 278.503 152.901Z" fill="#FFCC80"/>
<path d="M324.204 33.3358C325.382 33.3358 326.338 32.3805 326.338 31.2021C326.338 30.0237 325.382 29.0684 324.204 29.0684C323.026 29.0684 322.07 30.0237 322.07 31.2021C322.07 32.3805 323.026 33.3358 324.204 33.3358Z" fill="#999CBF"/>
<path d="M324.204 39.3494C325.382 39.3494 326.338 38.3941 326.338 37.2157C326.338 36.0373 325.382 35.082 324.204 35.082C323.026 35.082 322.07 36.0373 322.07 37.2157C322.07 38.3941 323.026 39.3494 324.204 39.3494Z" fill="#999CBF"/>
<path d="M324.204 45.3651C325.382 45.3651 326.338 44.4098 326.338 43.2314C326.338 42.0529 325.382 41.0977 324.204 41.0977C323.026 41.0977 322.07 42.0529 322.07 43.2314C322.07 44.4098 323.026 45.3651 324.204 45.3651Z" fill="#999CBF"/>
<path d="M324.204 51.3807C325.382 51.3807 326.338 50.4254 326.338 49.247C326.338 48.0686 325.382 47.1133 324.204 47.1133C323.026 47.1133 322.07 48.0686 322.07 49.247C322.07 50.4254 323.026 51.3807 324.204 51.3807Z" fill="#999CBF"/>
<path d="M324.204 57.3963C325.382 57.3963 326.338 56.441 326.338 55.2626C326.338 54.0842 325.382 53.1289 324.204 53.1289C323.026 53.1289 322.07 54.0842 322.07 55.2626C322.07 56.441 323.026 57.3963 324.204 57.3963Z" fill="#999CBF"/>
<path d="M324.204 63.41C325.382 63.41 326.338 62.4547 326.338 61.2763C326.338 60.0979 325.382 59.1426 324.204 59.1426C323.026 59.1426 322.07 60.0979 322.07 61.2763C322.07 62.4547 323.026 63.41 324.204 63.41Z" fill="#999CBF"/>
<path d="M248.08 59.1411C255.604 59.1411 261.704 53.0418 261.704 45.5178C261.704 37.9939 255.604 31.8945 248.08 31.8945C240.556 31.8945 234.457 37.9939 234.457 45.5178C234.457 53.0418 240.556 59.1411 248.08 59.1411Z" stroke="black" stroke-width="0.147649" stroke-miterlimit="10"/>
<path d="M248.08 45.5195H307.727" stroke="black" stroke-width="0.113437" stroke-miterlimit="10"/>
<path d="M211.195 71.4492H307.131" stroke="black" stroke-width="0.113437" stroke-miterlimit="10"/>
<path d="M211.195 77.7734H307.131" stroke="black" stroke-width="0.113437" stroke-miterlimit="10"/>
<path d="M211.195 84.0957H307.131" stroke="black" stroke-width="0.113437" stroke-miterlimit="10"/>
<path d="M250.106 108.975H231.85V127.231H250.106V108.975Z" fill="#51698F"/>
<path d="M275.123 108.975H256.867V127.231H275.123V108.975Z" fill="#51698F"/>
<path d="M300.139 108.975H281.883V127.231H300.139V108.975Z" fill="#51698F"/>
<path d="M325.157 108.975H306.9V127.231H325.157V108.975Z" fill="#51698F"/>
<g clip-path="url(#clip0_7013_221895)">
<path d="M297.196 158.284C296.53 158.3 292.575 158.596 291.897 158.044C290.666 157.046 290.998 148.667 291.378 148.264C291.757 147.861 292.572 147.599 292.818 147.948C293.064 148.297 293.816 151.607 294.149 152.043C294.481 152.479 296.145 153.064 297.036 152.801" fill="#1F161E"/>
<path d="M376.228 138.212C375.314 137.131 344.004 113.928 337.833 114.047C331.662 114.167 313.606 151.638 313.948 152.899C314.291 154.159 323.848 152.09 325.212 150.942C326.576 149.795 336.107 139.709 338.475 134.609C339.407 135.96 347.078 144.848 349.37 146.282C351.662 147.716 376.228 138.212 376.228 138.212Z" fill="#1F161E"/>
<path d="M296.194 158.507C296.713 158.92 387.116 160.583 394.588 158.507C402.059 156.431 404.032 156.638 403.929 152.28C403.826 147.922 389.292 136.814 387.426 136.814C384.565 136.814 355.131 139.143 331.789 147.756C322.474 149.279 296.859 152.153 296.859 152.153C296.44 153.677 295.689 156.485 296.194 158.507Z" fill="#FFCC80"/>
<path d="M408.792 96.2399C413.666 98.3989 419.66 126.299 418.845 127.214C418.03 128.129 411.121 131.275 411.121 131.275C410.988 138.068 405.233 154.329 403.506 155.037C391.371 151.584 383.906 140.823 383.906 137.875C383.906 134.928 374.665 137.187 373.953 136.365C373.621 136.025 373.244 135.731 372.832 135.494C372.832 135.494 377.822 131.169 381.724 128.361C381.588 127.161 380.543 104.656 381.89 102.54C384.572 98.3456 402.718 93.5487 408.792 96.2399Z" fill="#EF9A9A"/>
<path d="M411.164 131.27C409.834 131.898 397.748 137.108 392.459 138.212" stroke="#1F161E" stroke-width="0.182962" stroke-miterlimit="10" stroke-linecap="round"/>
<path d="M403.59 113.271C404.218 114.602 408.087 122.27 407.615 123.058C407.142 123.847 385.114 134.109 383.178 134.735" stroke="#1F161E" stroke-width="0.182962" stroke-miterlimit="10" stroke-linecap="round"/>
<path d="M385.321 111.299C385.198 114.14 385.278 128.032 385.75 133.161" stroke="#1F161E" stroke-width="0.182962" stroke-miterlimit="10" stroke-linecap="round"/>
<path d="M383.178 134.736C383.377 135.151 384.768 139.167 384.914 140.038C385.06 140.91 379.372 142.061 377.389 141.964C375.407 141.868 372.988 140.028 372.988 137.853C372.988 135.677 375.966 134.137 383.178 134.736Z" fill="#EED0C3"/>
<path d="M391.192 99.2372C391.391 100.185 396.621 99.1674 396.411 98.1494L395.087 91.8223L389.871 92.9101L391.192 99.2372Z" fill="#EED0C3"/>
<path d="M395.876 95.5954C395.76 95.0332 394.063 93.3599 393.139 93.8922C394.273 93.2036 394.572 91.6002 395.088 91.8097L395.876 95.5954Z" fill="black"/>
<path d="M389.196 95.1265C393.019 95.1265 396.119 92.0271 396.119 88.2039C396.119 84.3806 393.019 81.2812 389.196 81.2812C385.373 81.2812 382.273 84.3806 382.273 88.2039C382.273 92.0271 385.373 95.1265 389.196 95.1265Z" fill="#EED0C3"/>
<path d="M382.661 91.1344C383.285 91.0041 383.736 90.6346 383.668 90.3091C383.6 89.9836 383.039 89.8253 382.415 89.9555C381.791 90.0858 381.34 90.4553 381.408 90.7808C381.476 91.1063 382.037 91.2646 382.661 91.1344Z" fill="#EF9A9A"/>
<path d="M389.767 89.65C390.391 89.5197 390.842 89.1502 390.774 88.8247C390.706 88.4992 390.145 88.3409 389.521 88.4712C388.897 88.6014 388.446 88.9709 388.514 89.2964C388.582 89.622 389.143 89.7803 389.767 89.65Z" fill="#EF9A9A"/>
<path d="M385.037 88.7461C384.89 89.0788 384.069 90.5824 385.32 90.8551" stroke="#1F161E" stroke-width="0.229534" stroke-miterlimit="10" stroke-linecap="round"/>
<path d="M387.908 91.8596C388.241 91.7797 388.683 91.2575 388.883 90.8184" stroke="#1F161E" stroke-width="0.229534" stroke-miterlimit="10" stroke-linecap="round"/>
<path d="M394.847 82.9007C394.355 80.5488 390.709 79.4809 388.427 79.9566C384.794 80.7151 380.553 82.5248 379.874 82.9506C378.74 83.6358 378.817 84.9798 378.91 85.4189C379.292 87.2485 380.197 88.2465 382.273 88.1167C382.276 87.4379 382.388 86.764 382.605 86.1208C383.123 85.7876 383.741 85.6475 384.352 85.7249C384.901 85.7981 389.625 86.9258 392.805 86.2605C393.354 86.7661 395.047 90.2158 395.093 91.8126C396.035 91.6695 397.119 88.2797 396.873 86.673C396.781 86.1254 396.561 85.6072 396.231 85.16C395.902 84.7128 395.473 84.3491 394.977 84.0982C394.93 83.7523 394.884 83.0869 394.847 82.9007Z" fill="black"/>
<path d="M393.395 89.1839C394.236 89.1839 394.918 88.5017 394.918 87.6603C394.918 86.8188 394.236 86.1367 393.395 86.1367C392.553 86.1367 391.871 86.8188 391.871 87.6603C391.871 88.5017 392.553 89.1839 393.395 89.1839Z" fill="#EED0C3"/>
</g>
<defs>
<clipPath id="clip0_7013_221895">
<rect width="127.887" height="79.6817" fill="white" transform="translate(291.033 79.8477)"/>
</clipPath>
</defs>
</svg>
