<svg width="586" height="160" viewBox="0 0 586 160" fill="none" xmlns="http://www.w3.org/2000/svg">
<g clip-path="url(#clip0_7013_221894)">
<rect width="586" height="160" fill="#EAEAEA"/>
<path d="M201.092 155C201.092 155.623 200.725 159.561 201.455 159.923C202.185 160.285 210.221 160.507 210.583 160.145C210.946 159.783 211.168 159.015 210.84 158.793C210.511 158.571 207.412 157.958 206.972 157.664C206.532 157.37 205.966 155.83 206.184 155" fill="#1F161E"/>
<g clip-path="url(#clip1_7013_221894)">
<path d="M356.61 17H205.35C200.569 17 196.693 20.8756 196.693 25.6564V100.18C196.693 104.961 200.569 108.836 205.35 108.836H356.61C361.39 108.836 365.266 104.961 365.266 100.18V25.6564C365.266 20.8756 361.39 17 356.61 17Z" fill="#F6EFE4"/>
<path d="M294.223 17H205.357C203.061 17.0052 200.86 17.9197 199.237 19.5433C197.613 21.167 196.699 23.3676 196.693 25.6638V100.172C196.699 102.469 197.613 104.669 199.237 106.293C200.86 107.917 203.061 108.831 205.357 108.836H294.223V17Z" fill="#999CBF"/>
<path d="M365.192 24.5499C364.917 22.4646 363.895 20.5499 362.315 19.1613C360.736 17.7728 358.705 17.0048 356.602 17H205.357C203.254 17.0048 201.224 17.7728 199.644 19.1613C198.064 20.5499 197.042 22.4646 196.768 24.5499H365.192Z" fill="#BAC6D8"/>
<path d="M215.877 106.484V122.822L239.363 106.484H215.877Z" fill="#999CBF"/>
<path d="M211.918 55.4922H279" stroke="white" stroke-width="2.97044" stroke-miterlimit="10" stroke-linecap="round"/>
<path d="M211.918 66.6309H279" stroke="white" stroke-width="2.97044" stroke-miterlimit="10" stroke-linecap="round"/>
<path d="M211.918 77.7705H279" stroke="white" stroke-width="2.97044" stroke-miterlimit="10" stroke-linecap="round"/>
<path d="M211.918 88.9092H279" stroke="white" stroke-width="2.97044" stroke-miterlimit="10" stroke-linecap="round"/>
<path d="M273.924 46.8284C277.684 46.8284 280.732 43.7807 280.732 40.0211C280.732 36.2616 277.684 33.2139 273.924 33.2139C270.165 33.2139 267.117 36.2616 267.117 40.0211C267.117 43.7807 270.165 46.8284 273.924 46.8284Z" fill="white"/>
</g>
<g clip-path="url(#clip2_7013_221894)">
<path d="M362.203 152.777C362.721 152.79 365.799 153.018 366.327 152.592C367.284 151.822 367.026 145.356 366.73 145.045C366.435 144.735 365.801 144.532 365.61 144.801C365.418 145.071 364.833 147.625 364.574 147.961C364.315 148.298 363.021 148.749 362.328 148.547" fill="#1F161E"/>
<path d="M300.707 137.287C301.419 136.453 325.782 118.549 330.583 118.641C335.385 118.733 349.435 147.647 349.168 148.62C348.902 149.593 341.465 147.996 340.404 147.111C339.342 146.225 331.927 138.442 330.084 134.507C329.359 135.549 323.39 142.408 321.606 143.515C319.823 144.621 300.707 137.287 300.707 137.287Z" fill="#1F161E"/>
<path d="M362.984 152.949C362.58 153.267 292.237 154.551 286.423 152.949C280.61 151.347 279.075 151.506 279.155 148.144C279.235 144.781 290.544 136.21 291.996 136.21C294.222 136.21 317.125 138.007 335.288 144.653C342.535 145.828 362.466 148.046 362.466 148.046C362.792 149.222 363.377 151.388 362.984 152.949Z" fill="#FFCC80"/>
<path d="M275.369 104.9C271.577 106.566 266.912 128.095 267.546 128.801C268.181 129.507 273.557 131.935 273.557 131.935C273.66 137.177 278.138 149.724 279.482 150.271C288.924 147.607 294.733 139.302 294.733 137.028C294.733 134.754 301.923 136.497 302.477 135.863C302.736 135.6 303.029 135.374 303.35 135.19C303.35 135.19 299.467 131.853 296.431 129.687C296.537 128.76 297.35 111.395 296.301 109.762C294.215 106.525 280.095 102.824 275.369 104.9Z" fill="#EF9A9A"/>
<path d="M273.523 131.931C274.559 132.416 283.963 136.436 288.078 137.288" stroke="#1F161E" stroke-width="0.148321" stroke-miterlimit="10" stroke-linecap="round"/>
<path d="M279.416 118.044C278.927 119.071 275.917 124.987 276.284 125.596C276.652 126.204 293.792 134.123 295.299 134.606" stroke="#1F161E" stroke-width="0.148321" stroke-miterlimit="10" stroke-linecap="round"/>
<path d="M293.634 116.521C293.729 118.714 293.667 129.433 293.3 133.391" stroke="#1F161E" stroke-width="0.148321" stroke-miterlimit="10" stroke-linecap="round"/>
<path d="M295.3 134.605C295.145 134.926 294.063 138.024 293.949 138.697C293.835 139.37 298.261 140.258 299.804 140.183C301.347 140.109 303.229 138.689 303.229 137.011C303.229 135.332 300.912 134.143 295.3 134.605Z" fill="#EED0C3"/>
<path d="M289.064 107.214C288.909 107.945 284.84 107.16 285.003 106.374L286.033 101.492L290.092 102.332L289.064 107.214Z" fill="#EED0C3"/>
<path d="M285.42 104.402C285.511 103.969 286.831 102.677 287.551 103.088C286.668 102.557 286.435 101.32 286.034 101.481L285.42 104.402Z" fill="black"/>
<path d="M290.617 104.041C287.642 104.041 285.231 101.649 285.231 98.6992C285.231 95.749 287.642 93.3574 290.617 93.3574C293.592 93.3574 296.004 95.749 296.004 98.6992C296.004 101.649 293.592 104.041 290.617 104.041Z" fill="#EED0C3"/>
<path d="M295.703 100.96C295.217 100.86 294.866 100.574 294.919 100.323C294.972 100.072 295.409 99.9499 295.894 100.05C296.38 100.151 296.731 100.436 296.678 100.687C296.625 100.938 296.188 101.061 295.703 100.96Z" fill="#EF9A9A"/>
<path d="M290.173 99.8155C289.688 99.715 289.337 99.4299 289.39 99.1787C289.443 98.9275 289.879 98.8054 290.365 98.9059C290.85 99.0064 291.201 99.2915 291.148 99.5427C291.096 99.7939 290.659 99.916 290.173 99.8155Z" fill="#EF9A9A"/>
<path d="M293.853 99.1172C293.967 99.3739 294.606 100.534 293.633 100.745" stroke="#1F161E" stroke-width="0.186075" stroke-miterlimit="10" stroke-linecap="round"/>
<path d="M291.619 101.52C291.36 101.459 291.016 101.056 290.861 100.717" stroke="#1F161E" stroke-width="0.186075" stroke-miterlimit="10" stroke-linecap="round"/>
<path d="M286.219 94.6073C286.603 92.7925 289.439 91.9685 291.215 92.3356C294.042 92.9209 297.342 94.3173 297.87 94.6458C298.753 95.1746 298.693 96.2117 298.621 96.5505C298.323 97.9623 297.619 98.7324 296.004 98.6323C296.001 98.1085 295.914 97.5885 295.745 97.0921C295.342 96.8351 294.861 96.7269 294.386 96.7867C293.959 96.8431 290.283 97.7133 287.809 97.1999C287.382 97.5901 286.064 100.252 286.028 101.484C285.295 101.374 284.452 98.7581 284.643 97.5182C284.715 97.0957 284.886 96.6958 285.142 96.3507C285.399 96.0057 285.733 95.725 286.118 95.5314C286.155 95.2645 286.191 94.7511 286.219 94.6073Z" fill="black"/>
<path d="M287.352 99.4558C286.697 99.4558 286.166 98.9294 286.166 98.2801C286.166 97.6309 286.697 97.1045 287.352 97.1045C288.006 97.1045 288.537 97.6309 288.537 98.2801C288.537 98.9294 288.006 99.4558 287.352 99.4558Z" fill="#EED0C3"/>
</g>
<path d="M169.77 75.7148C169.694 76.6568 175.23 108.996 175.194 110.037C175.158 111.077 166.715 150.203 166.715 150.203L171.321 152.257C171.321 152.257 186.881 119.357 187.142 117.272C187.403 115.186 172.219 75.7059 169.77 75.7148Z" fill="#1F161E"/>
<path d="M169.771 75.7139C170.122 76.7006 200.354 155.104 200.354 155.104H206.307L185.094 71.2285L169.771 75.7139Z" fill="#7DBF9D"/>
<path d="M174.592 40.2178C184.284 40.2178 185.376 57.7644 185.376 60.2359C185.376 62.7073 185.695 70.449 185.106 71.216C184.252 71.6197 170.682 76.1499 169.784 75.7013C168.885 75.2528 161.97 40.2178 174.592 40.2178Z" fill="#E3F2EB"/>
<path d="M169.873 59.998C169.873 60.792 169.698 66.0084 171.01 67.0176C172.322 68.0268 182.908 69.332 182.908 70.7135C182.908 71.3056 183.102 71.9425 181.794 72.3776C182.657 72.086 185.092 71.2159 185.092 71.2159C185.291 70.7517 185.385 70.2493 185.366 69.7447C185.133 69.5339 169.873 59.998 169.873 59.998Z" fill="#1F161E"/>
<path d="M176.171 55.4405C175.991 56.3376 175.65 60.9082 175.663 62.2403C176.23 63.4873 185.482 67.4074 187.414 67.7304C188.178 67.708 188.6 67.2818 189.076 67.2818C190.209 67.3043 193.242 67.1114 193.242 67.4388C193.242 67.7663 192.343 70.0672 191.22 70.0672C189.328 70.0672 188.681 69.5739 187.966 69.529C186.96 69.4662 186.582 69.8295 185.688 69.7712C184.794 69.7129 173.507 67.9098 171.588 65.0526C169.597 62.0833 169.188 54.4717 169.197 54.1084C169.71 54.2474 175.421 55.4405 176.171 55.4405Z" fill="#EED0C3"/>
<path d="M167.255 150.266C167.084 150.638 165.525 153.881 166.145 154.989C166.765 156.097 171.303 158.321 171.847 158.128C172.391 157.936 172.503 157.339 172.076 156.603C171.649 155.868 169.978 155.119 169.767 154.477C169.555 153.836 170.135 152.1 170.737 151.723" fill="#1F161E"/>
<path d="M210.99 53.4443H183.67V67.4476H210.99V53.4443Z" fill="#B37361"/>
</g>
<defs>
<clipPath id="clip0_7013_221894">
<rect width="586" height="160" fill="white"/>
</clipPath>
<clipPath id="clip1_7013_221894">
<rect width="168.573" height="105.822" fill="white" transform="translate(196.695 17)"/>
</clipPath>
<clipPath id="clip2_7013_221894">
<rect width="99.5098" height="61.4858" fill="white" transform="matrix(-1 0 0 1 367 92.251)"/>
</clipPath>
</defs>
</svg>
