<svg width="586" height="160" viewBox="0 0 586 160" fill="none" xmlns="http://www.w3.org/2000/svg">
<g clip-path="url(#clip0_7013_221904)">
<rect width="586" height="160" fill="#EAEAEA"/>
<g clip-path="url(#clip1_7013_221904)">
<path d="M384.325 23H299.535V154.299H384.325V23Z" fill="white"/>
<path d="M282.543 103.139H369.479" stroke="black" stroke-width="0.357762" stroke-miterlimit="10"/>
<path d="M282.543 111.725H369.479" stroke="black" stroke-width="0.357762" stroke-miterlimit="10"/>
<path d="M282.543 120.311H369.479" stroke="black" stroke-width="0.357762" stroke-miterlimit="10"/>
<path d="M282.543 128.896H369.479" stroke="black" stroke-width="0.357762" stroke-miterlimit="10"/>
<path d="M341.931 83.4621C354.182 83.4621 364.112 73.5312 364.112 61.2808C364.112 49.0305 354.182 39.0996 341.931 39.0996C329.681 39.0996 319.75 49.0305 319.75 61.2808C319.75 73.5312 329.681 83.4621 341.931 83.4621Z" fill="#F2F2F2"/>
<path opacity="0.7" d="M404.539 69.6875H369.479V102.244H404.539V69.6875Z" fill="#254B38"/>
<path d="M379.696 84.2448V83.5514L385.278 80.7083V81.8178L380.996 83.8807L381.031 83.8114V83.9848L380.996 83.9154L385.278 85.9784V87.0879L379.696 84.2448ZM394.016 78.0732L391.156 88.7001H390.22L393.08 78.0732H394.016ZM404.538 84.2448L398.956 87.0879V85.9784L403.238 83.9154L403.203 83.9848V83.8114L403.238 83.8807L398.956 81.8178V80.7083L404.538 83.5514V84.2448Z" fill="white"/>
</g>
<path d="M226.857 128.741C237.228 128.741 245.635 126.883 245.635 124.59C245.635 122.298 237.228 120.439 226.857 120.439C216.486 120.439 208.078 122.298 208.078 124.59C208.078 126.883 216.486 128.741 226.857 128.741Z" fill="black"/>
<path d="M226.855 124.59L216.307 157.603" stroke="black" stroke-width="1.19021" stroke-miterlimit="10" stroke-linecap="round"/>
<path d="M226.855 124.59L237.404 157.603" stroke="black" stroke-width="1.19021" stroke-miterlimit="10" stroke-linecap="round"/>
<path d="M219.771 146.765L231.531 139.225" stroke="black" stroke-width="0.595106" stroke-miterlimit="10" stroke-linecap="round"/>
<path d="M222.133 139.225L233.895 146.765" stroke="black" stroke-width="0.595106" stroke-miterlimit="10" stroke-linecap="round"/>
<path d="M272.426 153.668C272.426 154.373 272.012 158.822 272.837 159.232C273.661 159.643 282.721 159.893 283.132 159.479C283.543 159.066 283.79 158.203 283.43 157.956C283.07 157.709 279.561 157.009 279.085 156.679C278.609 156.349 277.952 154.596 278.193 153.668" fill="#1F161E"/>
<path d="M245.336 95.5164L250.436 93.6864C250.216 84.3819 248.041 63.5919 244.952 60.5003C244.226 59.7773 229.866 58.5156 227.304 58.5156C212.016 58.5156 207.481 60.2593 206.33 61.4138C202.759 64.9844 201.646 81.5284 201.646 87.3217C201.646 93.1151 218.012 96.1204 218.012 96.1204L237.195 97.4385C237.195 97.4385 241.403 97.873 245.042 98.0872C245.122 96.9714 245.336 95.5164 245.336 95.5164Z" fill="#EBEEF3"/>
<path d="M260.533 100.911C261.929 100.497 275.807 98.2331 278.83 101.209C281.853 104.184 291.369 146.844 291.369 147.826H283.707L273.364 125.566" fill="#1F161E"/>
<path d="M210.006 97.1165C209.658 98.8572 207.566 100.726 207.566 110.209C207.566 123.322 218.308 123.599 222.164 123.599C234.18 123.599 253.619 120.028 254.931 119.373C255.803 120.831 271.85 153.592 271.924 154.324H279.312C279.312 154.324 274.733 105.311 266.47 99.7528C263.786 97.9675 216.169 96.0572 210.006 97.1165Z" fill="#EF9A9A"/>
<path d="M253.271 87.5312C251.331 87.5312 249.73 87.9925 245.338 88.8554L245.109 97.2583C249.275 95.5801 250.242 93.2472 251.45 93.2472C254.467 93.2472 256.044 94.8034 257.827 94.8034C259.071 94.8034 261.308 93.8275 261.308 92.5004C261.308 89.7212 255.675 87.5312 253.271 87.5312Z" fill="#EED0C3"/>
<path d="M284.141 147.238C284.141 147.946 283.727 152.392 284.552 152.806C285.376 153.219 294.436 153.463 294.847 153.052C295.257 152.642 295.504 151.776 295.144 151.529C294.784 151.282 291.276 150.58 290.8 150.25C290.324 149.919 289.666 148.167 289.907 147.238" fill="#1F161E"/>
<path d="M230.01 60.4941C230.01 61.6158 223.496 61.6486 223.496 60.4941V51.3711H230.01V60.4941Z" fill="#EED0C3"/>
<path d="M227.888 54.3788C227.293 54.3788 223.496 56.057 223.496 56.9943V52.043C224.442 52.043 227.888 54.3788 227.888 54.3788Z" fill="#1F161E"/>
<path d="M229.147 54.7664C233.502 54.7664 237.032 51.2361 237.032 46.8812C237.032 42.5264 233.502 38.9961 229.147 38.9961C224.792 38.9961 221.262 42.5264 221.262 46.8812C221.262 51.2361 224.792 54.7664 229.147 54.7664Z" fill="#EED0C3"/>
<path d="M237.284 40.6916C236.308 42.2419 234.267 42.953 232.056 42.953C230.173 42.953 227.429 42.4055 225.477 43.5184C224.421 44.1135 223.21 45.4673 222.966 48.1781C222.966 48.6422 222.439 50.4424 222.439 51.0227C222.439 51.4184 221.993 51.6773 221.249 51.6773C220.865 51.6773 220.107 51.0554 220.107 50.1062C220.107 49.0082 220.544 48.6184 220.544 47.6871C220.544 46.7557 219.404 45.8601 219.404 43.2714C219.404 39.5431 221.785 37.246 223.469 37.246C225.004 37.246 225.486 37.603 225.68 37.7548C225.68 34.3656 230.143 32.8184 231.913 32.8184C233.937 32.8184 234.889 33.6485 234.889 34.7048C234.889 36.389 234.086 37.8202 233.678 38.1416C234.601 37.3115 235.799 36.8544 237.04 36.8591C239.358 36.8591 240.138 38.3826 240.138 39.424C240.138 41.6884 237.421 43.7862 236.409 43.7862C236.155 43.2477 235.856 42.7312 235.517 42.2419" fill="#1F161E"/>
<path d="M237.11 48.3275C237.83 48.3275 238.413 48.0238 238.413 47.6491C238.413 47.2744 237.83 46.9707 237.11 46.9707C236.39 46.9707 235.807 47.2744 235.807 47.6491C235.807 48.0238 236.39 48.3275 237.11 48.3275Z" fill="#FA9E9F"/>
<path d="M228.911 48.3275C229.63 48.3275 230.214 48.0238 230.214 47.6491C230.214 47.2744 229.63 46.9707 228.911 46.9707C228.191 46.9707 227.607 47.2744 227.607 47.6491C227.607 48.0238 228.191 48.3275 228.911 48.3275Z" fill="#FA9E9F"/>
<path d="M233.926 46.2422C234.17 46.5903 235.414 48.0513 234.101 48.6434" stroke="#1F161E" stroke-width="0.297553" stroke-miterlimit="10" stroke-linecap="round"/>
<path d="M231.473 50.3473C231.081 50.3473 230.477 49.8593 230.158 49.4219" stroke="#1F161E" stroke-width="0.297553" stroke-miterlimit="10" stroke-linecap="round"/>
<path d="M201.646 86.3398C201.646 100.054 201.774 104.032 207.279 104.032C219.967 104.032 239.147 93.618 242.566 93.618C245.586 93.618 247.163 95.1772 248.946 95.1772C250.186 95.1772 252.424 94.1982 252.424 92.8741C252.424 90.092 246.791 87.902 244.39 87.902C238.983 87.902 217.408 93.1151 216.881 93.1151C216.355 93.1151 215.468 92.886 215.468 91.9993C215.468 90.3895 216.521 86.6701 216.658 86.3458L201.646 86.3398Z" fill="#EED0C3"/>
<path d="M282.868 95.1859H255.342L260.329 78.0349C260.453 77.6211 260.708 77.2587 261.056 77.0018C261.403 76.7449 261.825 76.6073 262.257 76.6096H285.615C285.922 76.6047 286.225 76.6715 286.502 76.8047C286.778 76.9379 287.02 77.1339 287.207 77.3769C287.394 77.62 287.522 77.9034 287.581 78.2047C287.639 78.5059 287.626 78.8166 287.543 79.1121L282.868 95.1859Z" fill="black"/>
<path d="M316.57 158.717C316.784 159.531 317.617 160.017 318.431 159.803C319.245 159.589 319.731 158.756 319.517 157.943L304.283 99.9965C304.069 99.1827 303.236 98.6965 302.422 98.9104C301.608 99.1244 301.122 99.9575 301.336 100.771L316.57 158.717Z" fill="#999999"/>
<path d="M301.182 100.774C301.396 99.9598 300.91 99.1267 300.096 98.9128C299.283 98.6988 298.45 99.1851 298.236 99.9988L283.001 157.945C282.787 158.759 283.274 159.592 284.087 159.806C284.901 160.02 285.734 159.533 285.948 158.72L301.182 100.774Z" fill="#999999"/>
<path d="M280.165 100.775C280.379 99.9617 279.893 99.1286 279.079 98.9147C278.265 98.7008 277.432 99.187 277.218 100.001L261.984 157.947C261.77 158.761 262.256 159.594 263.07 159.808C263.884 160.022 264.717 159.535 264.931 158.722L280.165 100.775Z" fill="#E6E6E6"/>
<path d="M295.285 158.719C295.499 159.533 296.332 160.019 297.146 159.805C297.959 159.591 298.446 158.758 298.232 157.945L282.997 99.9984C282.784 99.1847 281.95 98.6984 281.137 98.9124C280.323 99.1263 279.837 99.9594 280.051 100.773L295.285 158.719Z" fill="#E6E6E6"/>
<path d="M194.452 100.65C194.662 99.8335 194.171 99.0014 193.355 98.791C192.539 98.5807 191.706 99.0718 191.496 99.8879L176.517 158.006C176.307 158.822 176.798 159.654 177.614 159.864C178.43 160.075 179.262 159.584 179.473 158.767L194.452 100.65Z" fill="#999999"/>
<path d="M209.339 158.497C209.55 159.313 210.382 159.804 211.198 159.594C212.014 159.383 212.505 158.551 212.295 157.735L197.316 99.6173C197.106 98.8011 196.274 98.3101 195.457 98.5204C194.641 98.7307 194.15 99.5629 194.361 100.379L209.339 158.497Z" fill="#999999"/>
<path d="M310.568 96.0488H163.229C162.484 96.0488 161.881 96.6523 161.881 97.3967V99.2088C161.881 99.9533 162.484 100.557 163.229 100.557H310.568C311.313 100.557 311.916 99.9533 311.916 99.2088V97.3967C311.916 96.6523 311.313 96.0488 310.568 96.0488Z" fill="#E6E6E6"/>
<path d="M172.569 100.777C172.783 99.9637 172.297 99.1306 171.483 98.9167C170.669 98.7027 169.836 99.189 169.622 100.003L154.388 157.949C154.174 158.763 154.66 159.596 155.474 159.81C156.288 160.024 157.121 159.537 157.335 158.724L172.569 100.777Z" fill="#E6E6E6"/>
<path d="M187.693 158.719C187.907 159.533 188.74 160.019 189.554 159.805C190.368 159.591 190.854 158.758 190.64 157.945L175.406 99.9984C175.192 99.1847 174.359 98.6984 173.545 98.9124C172.731 99.1263 172.245 99.9594 172.459 100.773L187.693 158.719Z" fill="#E6E6E6"/>
</g>
<defs>
<clipPath id="clip0_7013_221904">
<rect width="586" height="160" fill="white"/>
</clipPath>
<clipPath id="clip1_7013_221904">
<rect width="121.997" height="131.299" fill="white" transform="translate(282.543 23)"/>
</clipPath>
</defs>
</svg>
