<svg width="314" height="115" viewBox="0 0 314 115" fill="none" xmlns="http://www.w3.org/2000/svg">
<path d="M0 8C0 3.58172 3.58172 0 8 0H306C310.418 0 314 3.58172 314 8V115H0V8Z" fill="#EAEAEA"/>
<g clip-path="url(#clip0_7013_221927)">
<path d="M275.691 82.4231C275.691 88.6928 273.201 94.7058 268.767 99.1391C264.334 103.572 258.321 106.063 252.051 106.063H174.377V58.7832L252.051 58.7832C258.321 58.7832 264.334 61.2738 268.767 65.7072C273.201 70.1405 275.691 76.1534 275.691 82.4231Z" fill="#E6E6E6"/>
<path d="M165.797 67.8764H243.211C249.412 67.8764 255.359 70.3396 259.743 74.7243C264.128 79.1089 266.591 85.0557 266.591 91.2565C266.591 97.4573 264.128 103.404 259.743 107.789C255.359 112.173 249.412 114.637 243.211 114.637H165.797V67.8764ZM165.537 67.6166V114.896H243.211C249.481 114.896 255.494 112.406 259.927 107.973C264.36 103.539 266.851 97.5262 266.851 91.2565C266.851 84.9868 264.36 78.9739 259.927 74.5406C255.494 70.1072 249.481 67.6166 243.211 67.6166H165.537Z" fill="black"/>
<path d="M138 74.1114V108.402H165.537V74.1114H138Z" fill="#999CBF"/>
<path d="M151.768 93.2984V103.492H161.961V93.2984H151.768Z" fill="#FFA726"/>
<path d="M151.768 79.0211V89.2148H161.961V79.0211H151.768Z" fill="#FFA726"/>
<path d="M169.986 71.0017V111.512H178.065V71.0017H169.986Z" fill="#EF5350"/>
<path d="M182.77 91.2559H257.342" stroke="black" stroke-width="0.25978" stroke-miterlimit="10"/>
</g>
<g clip-path="url(#clip1_7013_221927)">
<path d="M235.607 49.9246C235.607 49.9246 240.002 46.3215 240.543 46.3215C241.083 46.3215 260.081 61.4043 263.11 65.3244C264.536 65.1477 267.981 64.1372 267.981 64.1372C267.981 64.1372 246.357 34.3223 243.743 34.3223C241.13 34.3223 220.285 42.8768 220.285 42.8768L222.007 48.992L235.607 49.9246Z" fill="#1F161E"/>
<path d="M184.484 34.0475C186.69 34.0475 188.479 32.2587 188.479 30.052C188.479 27.8454 186.69 26.0566 184.484 26.0566C182.277 26.0566 180.488 27.8454 180.488 30.052C180.488 32.2587 182.277 34.0475 184.484 34.0475Z" fill="#EED0C3"/>
<path d="M199.307 41.2117C199.953 41.9131 205.456 49.574 205.404 50.5456C205.352 51.5172 200.169 65.4336 199.738 65.9739C200.333 66.5662 202.759 68.0236 203.354 68.0236C203.949 68.0236 218.567 49.7897 218.567 48.5401C218.567 47.2906 209.524 32.8806 204.307 32.5117" fill="#7DBF9D"/>
<path d="M177.051 25.4635C177.051 22.0448 179.953 20.8342 181.516 20.8342C184.6 20.8342 189.208 22.237 192.596 22.237C198.348 22.237 201.816 18 205.338 18C210.952 18 213.963 21.7538 215.441 22.7903C218.428 24.8842 228.609 26.3805 228.609 33.6102C228.609 40.2319 225.43 43.8169 221.541 43.8169C217.652 43.8169 197.716 36.7535 197.716 36.7535C197.716 36.7535 191.326 34.2596 190.894 33.7167C190.463 33.1737 187.733 31.8462 187.878 27.669C187.177 27.1728 183.447 28.8172 181.327 27.5963C180.859 28.2591 180.575 29.0331 180.501 29.8408C179.986 29.8589 177.051 29.0328 177.051 25.4635Z" fill="#1F161E"/>
<path d="M179.886 43.2169C182.224 35.4547 197.949 31.7009 202.827 31.7866C207.706 31.8723 205.21 37.3952 221.095 41.7387C222.75 43.817 224.075 55.7201 222.584 59.2791H178.821C178.821 59.2791 178.551 45.6017 179.886 43.2169Z" fill="#7DBF9D"/>
<path d="M192.013 35.1465C192.553 35.8245 190.244 37.6378 189.717 36.9649L185.908 32.1798L188.207 30.3613L192.013 35.1465Z" fill="#EED0C3"/>
<path d="M263.627 64.8768C263.733 65.2457 264.261 67.446 264.679 67.7188C265.438 68.2124 269.934 66.5783 270.088 66.3004C270.241 66.0224 270.238 65.5366 270.01 65.4639C269.781 65.3912 267.848 65.5496 267.552 65.4483C267.256 65.347 266.648 64.5391 266.635 64.0117" fill="#1F161E"/>
<path d="M287.48 55.3204C287.865 55.3204 290.12 55.1412 290.507 55.4555C291.208 56.027 291.026 60.8096 290.803 61.0408C290.58 61.272 290.12 61.4174 289.98 61.22C289.839 61.0226 289.405 59.1418 289.218 58.882C289.031 58.6222 288.078 58.3001 287.571 58.4482" fill="#1F161E"/>
<path d="M181.2 32.6347C181.604 32.382 181.825 32.0067 181.693 31.7962C181.561 31.5858 181.127 31.62 180.723 31.8727C180.32 32.1253 180.099 32.5007 180.231 32.7111C180.362 32.9215 180.796 32.8873 181.2 32.6347Z" fill="#999CBF"/>
<path d="M185.79 29.7636C186.194 29.5109 186.414 29.1356 186.283 28.9251C186.151 28.7147 185.717 28.7489 185.313 29.0016C184.909 29.2542 184.689 29.6296 184.82 29.84C184.952 30.0504 185.386 30.0162 185.79 29.7636Z" fill="#999CBF"/>
<path d="M182.248 30.3535C182.233 30.6341 182.043 31.8914 182.991 31.7589" stroke="#1F161E" stroke-width="0.179248" stroke-miterlimit="10" stroke-linecap="round"/>
<path d="M185.061 31.7919C185.276 31.649 185.448 31.171 185.474 30.8125" stroke="#1F161E" stroke-width="0.179248" stroke-miterlimit="10" stroke-linecap="round"/>
<path d="M187.604 28.7338C188.184 28.7338 188.654 28.2639 188.654 27.6843C188.654 27.1046 188.184 26.6348 187.604 26.6348C187.025 26.6348 186.555 27.1046 186.555 27.6843C186.555 28.2639 187.025 28.7338 187.604 28.7338Z" fill="#EED0C3"/>
<path d="M175.523 60.3941C174.587 59.1679 174.369 56.2818 174.369 54.2737C175.039 47.813 176.707 42.1861 180.134 36.1852C180.549 35.5436 182.144 35.7488 182.44 36.1852C183.42 40.204 185.28 53.1021 179.741 60.5006C178.365 60.5006 176.681 60.3941 175.523 60.3941Z" fill="#7DBF9D"/>
<path d="M181.426 36.7109C182.46 36.7109 183.299 35.8723 183.299 34.8379C183.299 33.8034 182.46 32.9648 181.426 32.9648C180.391 32.9648 179.553 33.8034 179.553 34.8379C179.553 35.8723 180.391 36.7109 181.426 36.7109Z" fill="#EED0C3"/>
<path d="M200.488 71.257C202.047 71.257 203.312 69.9927 203.312 68.4332C203.312 66.8736 202.047 65.6094 200.488 65.6094C198.928 65.6094 197.664 66.8736 197.664 68.4332C197.664 69.9927 198.928 71.257 200.488 71.257Z" fill="#EED0C3"/>
<path d="M210.77 59.2829C214.638 54.412 218.563 49.193 218.563 48.5488C218.563 47.9487 216.443 44.2572 213.663 40.5684" stroke="#1F161E" stroke-width="0.25978" stroke-linecap="round" stroke-linejoin="round"/>
<path d="M199.307 41.2109C199.953 41.9123 205.456 49.5732 205.404 50.5448C205.375 51.0644 203.845 55.3585 202.393 59.2838" stroke="#1F161E" stroke-width="0.25978" stroke-linecap="round" stroke-linejoin="round"/>
<path d="M183.538 45.5371C183.601 50.0988 182.959 55.2918 180.559 59.2846" stroke="#1F161E" stroke-width="0.25978" stroke-linecap="round" stroke-linejoin="round"/>
<path d="M222.813 48.1348C224.003 48.1659 287.802 54.9955 287.802 54.9955V58.6584L222.598 59.2741" fill="#999CBF"/>
</g>
<defs>
<clipPath id="clip0_7013_221927">
<rect width="56.1124" height="137.683" fill="white" transform="matrix(0 -1 1 0 138 114.898)"/>
</clipPath>
<clipPath id="clip1_7013_221927">
<rect width="116.631" height="53.2548" fill="white" transform="translate(174.369 18)"/>
</clipPath>
</defs>
</svg>
