<svg width="314" height="115" viewBox="0 0 314 115" fill="none" xmlns="http://www.w3.org/2000/svg">
<path d="M0 8C0 3.58172 3.58172 0 8 0H306C310.418 0 314 3.58172 314 8V115H0V8Z" fill="#EAEAEA"/>
<g clip-path="url(#clip0_7013_221931)">
<path d="M249.852 115.002C249.884 114.315 249.904 113.626 249.904 112.925C249.904 79.8158 214.333 52.9707 170.453 52.9707C126.574 52.9707 91 79.8158 91 112.933C91 113.626 91.0208 114.315 91.0529 115.01L249.852 115.002Z" fill="#BFBFBF"/>
<path d="M295.283 115.003C295.306 114.517 295.323 114.03 295.323 113.541C295.323 90.15 268.761 71.1875 235.995 71.1875C203.23 71.1875 176.668 90.15 176.668 113.541C176.668 114.03 176.683 114.517 176.708 115.003H295.283Z" fill="#F1F1F1"/>
</g>
<g clip-path="url(#clip1_7013_221931)">
<path d="M211.682 29.8329L209.051 28.9082L207.036 34.6418L209.668 35.5664L211.682 29.8329Z" fill="#1F161E"/>
<path d="M213.426 66.4218C213.537 66.6768 214.13 68.2103 214.459 68.367C215.054 68.6484 218.134 67.0337 218.217 66.8203C218.3 66.6069 218.253 66.2538 218.079 66.2236C217.905 66.1933 216.53 66.4955 216.308 66.4521C216.085 66.4086 215.569 65.8855 215.509 65.5078" fill="#1F161E"/>
<path d="M174.848 43.2036C174.848 53.4016 178.092 55.5431 181.32 55.5431C189.495 55.5431 200.131 48.9862 200.731 48.7332C200.543 49.8059 199.351 76.9965 199.351 77.1533C199.634 77.3742 201.806 77.565 202.537 77.3742C202.726 76.7133 208.469 44.3726 208.469 43.5209C208.469 42.6692 207.974 41.3737 206.102 41.1867C205.311 41.1074 194.303 40.6504 194.303 40.6504" fill="#1F161E"/>
<path d="M202.595 35.9707C205.075 39.5589 216.147 64.6061 216.049 65.1915C215.951 65.777 213.405 67.0177 212.867 66.6835C210.584 65.2765 196.565 41.6362 196.02 41.2793C195.474 40.9224 194.656 41.0602 194.169 41.1584C192.902 39.0527 195.738 36.5524 202.595 35.9707Z" fill="#7DBF9D"/>
<path d="M191.496 15.8711C195.194 15.8711 196.257 19.3724 196.563 20.6943C197.541 24.9151 194.818 40.9542 194.503 41.3961C191.827 45.1372 176.53 45.4696 175.038 43.8493C173.546 42.229 181.393 15.8711 191.496 15.8711Z" fill="#99ABC5"/>
<path d="M200.067 76.7637C200.018 77.0375 199.648 78.6408 199.833 78.9543C200.165 79.5209 203.623 79.9118 203.812 79.7815C204.001 79.6512 204.157 79.332 204.033 79.215C203.908 79.0979 202.597 78.5729 202.437 78.4104C202.276 78.248 202.142 77.5266 202.307 77.1791" fill="#1F161E"/>
<path d="M190.942 16.6096C190.842 16.9306 193.452 17.7427 193.552 17.4235L194.564 14.1753L191.956 13.3613L190.942 16.6096Z" fill="#EED0C3"/>
<path d="M193.529 14.9439C193.274 14.8646 191.422 15.078 191.297 15.4783L191.956 13.3613C192.362 13.4879 193.529 14.9439 193.529 14.9439Z" fill="#1F161E"/>
<path d="M194.986 15.4643C197.102 15.4643 198.818 13.7488 198.818 11.6326C198.818 9.51633 197.102 7.80078 194.986 7.80078C192.87 7.80078 191.154 9.51633 191.154 11.6326C191.154 13.7488 192.87 15.4643 194.986 15.4643Z" fill="#EED0C3"/>
<path d="M198.806 13.651C198.863 13.4668 198.622 13.2278 198.268 13.1172C197.913 13.0066 197.58 13.0663 197.522 13.2505C197.465 13.4347 197.705 13.6736 198.06 13.7842C198.414 13.8949 198.748 13.8352 198.806 13.651Z" fill="#EF9A9A"/>
<path d="M194.778 12.3951C194.836 12.2109 194.595 11.972 194.241 11.8614C193.886 11.7508 193.552 11.8104 193.495 11.9946C193.437 12.1788 193.678 12.4178 194.032 12.5284C194.387 12.639 194.721 12.5793 194.778 12.3951Z" fill="#EF9A9A"/>
<path d="M196.819 12.2734C196.885 12.4812 197.277 13.3914 196.539 13.4802" stroke="#1F161E" stroke-width="0.226621" stroke-miterlimit="10" stroke-linecap="round"/>
<path d="M194.983 13.9131C194.794 13.847 194.567 13.5221 194.479 13.2559" stroke="#1F161E" stroke-width="0.226621" stroke-miterlimit="10" stroke-linecap="round"/>
<path d="M196.143 6.60523C195.133 6.4787 192.2 5.60621 191.534 5C191.218 5.16619 189.993 6.26719 188.994 7.75722L190.412 9.18304L188.62 8.35587C188.147 9.12982 187.823 9.98466 187.662 10.877C188.125 12.1253 189.577 12.639 189.851 12.673C191.617 12.8958 192.295 10.1518 193.184 9.81191C194.695 9.23214 196.474 10.7373 198.712 10.6429C199.208 9.62872 198.563 6.90928 196.143 6.60523Z" fill="#1F161E"/>
<path d="M191.472 11.8827C191.961 11.8827 192.357 11.4862 192.357 10.997C192.357 10.5079 191.961 10.1113 191.472 10.1113C190.982 10.1113 190.586 10.5079 190.586 10.997C190.586 11.4862 190.982 11.8827 191.472 11.8827Z" fill="#EED0C3"/>
<path d="M187.663 24.8525C187.474 26.0347 186.862 37.1976 188.328 38.2835C191.467 40.6083 205.961 37.7642 208.157 36.9502C208.395 36.1722 208.157 33.7001 208.157 33.7001C207.311 33.6661 196.637 33.5641 196.001 32.7559C195.364 31.9476 195.289 25.3397 195.391 24.5938" fill="#99ABC5"/>
<path d="M209.633 37.2091C210.767 37.2091 211.686 36.2901 211.686 35.1563C211.686 34.0226 210.767 33.1035 209.633 33.1035C208.499 33.1035 207.58 34.0226 207.58 35.1563C207.58 36.2901 208.499 37.2091 209.633 37.2091Z" fill="#EED0C3"/>
<path d="M196 32.7598C195.356 31.9458 195.288 25.3436 195.39 24.5977" stroke="#1F161E" stroke-width="0.18885" stroke-linecap="round" stroke-linejoin="round"/>
<path d="M194.997 39.1199C192.04 39.2842 189.455 39.1199 188.329 38.2814C187.687 37.8074 187.443 35.4033 187.385 32.75" stroke="#1F161E" stroke-width="0.18885" stroke-linecap="round" stroke-linejoin="round"/>
</g>
<path d="M114.349 77.1758C114.349 77.4724 114.515 79.3437 114.184 79.5165C113.854 79.6892 110.22 79.7944 110.054 79.6204C109.888 79.4464 109.79 79.0834 109.934 78.9795C110.079 78.8756 111.486 78.5814 111.677 78.4425C111.868 78.3036 112.132 77.5663 112.035 77.1758" fill="#1F161E"/>
<path d="M125.218 52.7154L123.168 51.9468C123.256 48.0327 124.129 39.2871 125.369 37.9865C125.659 37.6811 131.421 37.1504 132.45 37.1504C138.583 37.1504 140.401 37.8851 140.865 38.3696C142.298 39.8704 142.746 46.8324 142.746 49.2694C142.746 51.7065 136.18 52.9695 136.18 52.9695L128.484 53.5252C128.484 53.5252 126.795 53.7067 125.335 53.7969C125.304 53.3275 125.218 52.7154 125.218 52.7154Z" fill="#999CBF"/>
<path d="M119.121 54.9833C118.561 54.8093 112.993 53.8567 111.782 55.1084C110.57 56.3601 106.75 74.3059 106.75 74.7189H109.824L113.976 65.3599" fill="#1F161E"/>
<path d="M139.392 53.389C139.532 54.1212 140.371 54.9073 140.371 58.8965C140.371 64.414 136.063 64.5292 134.514 64.5292C129.695 64.5292 121.895 63.0271 121.368 62.753C121.019 63.3651 114.58 77.1476 114.552 77.4543H111.588C111.588 77.4543 113.425 56.8462 116.739 54.5042C117.816 53.7532 136.921 52.9433 139.392 53.389Z" fill="#3B7858"/>
<path d="M122.035 49.3555C122.814 49.3555 123.455 49.5495 125.217 49.9125L125.311 53.4473C123.639 52.7413 123.25 51.76 122.765 51.76C121.555 51.76 120.922 52.4146 120.207 52.4146C119.708 52.4146 118.812 52.0041 118.812 51.4458C118.812 50.2767 121.071 49.3555 122.035 49.3555Z" fill="#EED0C3"/>
<path d="M109.65 74.4707C109.65 74.7686 109.816 76.6387 109.485 76.8126C109.154 76.9866 105.52 77.0893 105.355 76.9165C105.189 76.7438 105.091 76.3796 105.235 76.2757C105.38 76.1718 106.787 75.8764 106.978 75.7387C107.169 75.601 107.433 74.8625 107.336 74.4707" fill="#1F161E"/>
<path d="M131.368 37.981C131.368 38.4542 133.98 38.4679 133.98 37.981V34.1445H131.368V37.981Z" fill="#EED0C3"/>
<path d="M132.218 35.4053C132.457 35.4053 133.98 36.11 133.98 36.5043V34.4277C133.601 34.4277 132.218 35.4053 132.218 35.4053Z" fill="#1F161E"/>
<path d="M131.715 35.5735C129.968 35.5735 128.552 34.0884 128.552 32.2565C128.552 30.4245 129.968 28.9395 131.715 28.9395C133.463 28.9395 134.879 30.4245 134.879 32.2565C134.879 34.0884 133.463 35.5735 131.715 35.5735Z" fill="#EED0C3"/>
<path d="M128.447 29.6569C128.839 30.309 129.658 30.6082 130.545 30.6082C131.3 30.6082 132.401 30.3779 133.185 30.846C133.608 31.0963 134.094 31.6659 134.193 32.8062C134.193 33.0014 134.403 33.7587 134.403 34.0028C134.403 34.1705 134.582 34.2794 134.88 34.2794C135.034 34.2794 135.338 34.0166 135.338 33.6173C135.338 33.1554 135.163 32.9914 135.163 32.5996C135.163 32.2079 135.629 31.8261 135.629 30.7371C135.629 29.1687 134.674 28.2024 133.998 28.2024C133.383 28.2024 133.189 28.3526 133.111 28.4164C133.111 26.9907 131.321 26.3398 130.604 26.3398C129.792 26.3398 129.41 26.6903 129.41 27.1334C129.41 27.8431 129.732 28.444 129.895 28.5791C129.525 28.2302 129.045 28.0379 128.547 28.0397C127.616 28.0397 127.303 28.6805 127.303 29.1186C127.303 30.0724 128.395 30.9549 128.8 30.9549C128.902 30.7278 129.022 30.51 129.159 30.304" fill="#1F161E"/>
<path d="M134.093 33.4008C133.721 33.4008 133.419 33.0841 133.419 32.6935C133.419 32.303 133.721 31.9863 134.093 31.9863C134.466 31.9863 134.768 32.303 134.768 32.6935C134.768 33.0841 134.466 33.4008 134.093 33.4008Z" fill="#F8CDBA"/>
<path d="M128.52 32.8657C128.231 32.8657 127.997 32.7379 127.997 32.5803C127.997 32.4227 128.231 32.2949 128.52 32.2949C128.809 32.2949 129.043 32.4227 129.043 32.5803C129.043 32.7379 128.809 32.8657 128.52 32.8657Z" fill="#FA9E9F"/>
<path d="M131.807 32.8657C131.518 32.8657 131.284 32.7379 131.284 32.5803C131.284 32.4227 131.518 32.2949 131.807 32.2949C132.096 32.2949 132.33 32.4227 132.33 32.5803C132.33 32.7379 132.096 32.8657 131.807 32.8657Z" fill="#EF9A9A"/>
<path d="M129.795 31.9863C129.697 32.1315 129.198 32.7461 129.726 32.9952" stroke="#1F161E" stroke-width="0.18885" stroke-miterlimit="10" stroke-linecap="round"/>
<path d="M130.778 33.7135C130.935 33.7135 131.178 33.5095 131.307 33.3242" stroke="#1F161E" stroke-width="0.18885" stroke-miterlimit="10" stroke-linecap="round"/>
<path d="M126.609 42.6211C126.371 43.1543 125.219 48.2851 125.219 49.911" stroke="#1F161E" stroke-width="0.18885" stroke-miterlimit="10" stroke-linecap="round"/>
<path d="M142.746 48.8535C142.746 54.6226 142.696 56.2962 140.486 56.2962C135.396 56.2962 127.701 51.9152 126.329 51.9152C125.119 51.9152 124.486 52.5698 123.77 52.5698C123.272 52.5698 122.374 52.158 122.374 51.601C122.374 50.4319 124.634 49.5107 125.597 49.5107C127.765 49.5107 136.423 51.7024 136.633 51.7024C136.843 51.7024 137.2 51.606 137.2 51.233C137.2 50.5558 136.778 48.9925 136.722 48.8548L142.746 48.8535Z" fill="#EED0C3"/>
<path d="M135.452 43.8223C135.597 44.2616 136.733 48.8028 136.865 49.3548" stroke="#1F161E" stroke-width="0.18885" stroke-miterlimit="10" stroke-linecap="round"/>
<path d="M116.075 53.7242H128.961L126.626 45.7037C126.568 45.5102 126.449 45.3408 126.286 45.2206C126.123 45.1005 125.926 45.0362 125.724 45.0372H114.79C114.646 45.0349 114.504 45.0662 114.375 45.1284C114.245 45.1907 114.132 45.2824 114.045 45.396C113.957 45.5097 113.897 45.6423 113.87 45.7831C113.842 45.924 113.848 46.0693 113.887 46.2075L116.075 53.7242Z" fill="black"/>
<defs>
<clipPath id="clip0_7013_221931">
<rect width="204.323" height="62.0317" fill="white" transform="translate(91 52.9688)"/>
</clipPath>
<clipPath id="clip1_7013_221931">
<rect width="43.4092" height="74.7999" fill="white" transform="translate(174.852 5)"/>
</clipPath>
</defs>
</svg>
