<svg width="440" height="160" viewBox="0 0 440 160" fill="none" xmlns="http://www.w3.org/2000/svg">
<rect width="440" height="160" fill="#EAEAEA"/>
<g clip-path="url(#clip0_7013_221872)">
<path d="M382.287 111.585C382.287 120.887 378.592 129.809 372.014 136.386C365.437 142.964 356.516 146.659 347.213 146.659H231.972V76.5117L347.213 76.5117C356.516 76.5117 365.437 80.207 372.014 86.7845C378.592 93.3621 382.287 102.283 382.287 111.585Z" fill="#E6E6E6"/>
<path d="M219.241 90.0018H334.097C343.297 90.0018 352.12 93.6565 358.626 100.162C365.131 106.667 368.786 115.49 368.786 124.69C368.786 133.89 365.131 142.713 358.626 149.218C352.12 155.724 343.297 159.378 334.097 159.378H219.241V90.0018ZM218.855 89.6164V159.764H334.097C343.4 159.764 352.321 156.068 358.898 149.491C365.476 142.913 369.171 133.992 369.171 124.69C369.171 115.388 365.476 106.467 358.898 99.8892C352.321 93.3117 343.4 89.6164 334.097 89.6164H218.855Z" fill="black"/>
<path d="M178 99.2529V150.129H218.855V99.2529H178Z" fill="#999CBF"/>
<path d="M198.428 127.72V142.844H213.552V127.72H198.428Z" fill="#FFA726"/>
<path d="M198.428 106.536V121.66H213.552V106.536H198.428Z" fill="#FFA726"/>
<path d="M225.457 94.6391V154.742H237.444V94.6391H225.457Z" fill="#EF5350"/>
<path d="M244.424 124.689H355.064" stroke="black" stroke-width="0.385425" stroke-miterlimit="10"/>
</g>
<g clip-path="url(#clip1_7013_221872)">
<path d="M322.818 63.3654C322.818 63.3654 329.34 58.0196 330.141 58.0196C330.943 58.0196 359.129 80.3973 363.623 86.2134C365.739 85.9513 370.85 84.452 370.85 84.452C370.85 84.452 338.767 40.2168 334.89 40.2168C331.012 40.2168 300.086 52.9088 300.086 52.9088L302.641 61.9817L322.818 63.3654Z" fill="#1F161E"/>
<path d="M246.969 39.8068C250.243 39.8068 252.897 37.1529 252.897 33.879C252.897 30.6052 250.243 27.9512 246.969 27.9512C243.695 27.9512 241.041 30.6052 241.041 33.879C241.041 37.1529 243.695 39.8068 246.969 39.8068Z" fill="#EED0C3"/>
<path d="M268.961 50.4372C269.921 51.4778 278.084 62.844 278.007 64.2855C277.93 65.727 270.241 86.3741 269.601 87.1758C270.483 88.0546 274.083 90.2168 274.966 90.2168C275.848 90.2168 297.536 63.1639 297.536 61.31C297.536 59.4561 284.12 38.0766 276.38 37.5293" fill="#7DBF9D"/>
<path d="M235.939 27.0732C235.939 22.0011 240.245 20.205 242.565 20.205C247.14 20.205 253.977 22.2863 259.003 22.2863C267.537 22.2863 272.682 16 277.908 16C286.237 16 290.704 21.5694 292.897 23.1072C297.33 26.2138 312.435 28.4338 312.435 39.1602C312.435 48.9846 307.717 54.3035 301.947 54.3035C296.177 54.3035 266.6 43.8238 266.6 43.8238C266.6 43.8238 257.119 40.1237 256.479 39.3182C255.839 38.5126 251.788 36.5431 252.004 30.3455C250.963 29.6093 245.429 32.0491 242.284 30.2376C241.59 31.221 241.168 32.3694 241.058 33.5677C240.295 33.5946 235.939 32.369 235.939 27.0732Z" fill="#1F161E"/>
<path d="M240.147 53.4139C243.616 41.8974 266.945 36.3281 274.184 36.4553C281.422 36.5824 277.718 44.7766 301.287 51.2209C303.742 54.3043 305.707 71.9644 303.495 77.2447H238.566C238.566 77.2447 238.166 56.9521 240.147 53.4139Z" fill="#7DBF9D"/>
<path d="M258.14 41.4374C258.941 42.4434 255.515 45.1336 254.732 44.1354L249.082 37.0359L252.493 34.3379L258.14 41.4374Z" fill="#EED0C3"/>
<path d="M364.389 85.5491C364.547 86.0964 365.329 89.3609 365.95 89.7656C367.075 90.4979 373.747 88.0736 373.974 87.6612C374.202 87.2488 374.198 86.5281 373.859 86.4202C373.519 86.3122 370.652 86.5473 370.212 86.397C369.773 86.2467 368.871 85.048 368.852 84.2656" fill="#1F161E"/>
<path d="M399.779 71.3704C400.35 71.3704 403.695 71.1045 404.269 71.5708C405.31 72.4188 405.04 79.5144 404.709 79.8575C404.377 80.2005 403.695 80.4163 403.487 80.1234C403.279 79.8305 402.635 77.04 402.358 76.6546C402.08 76.2692 400.666 75.7912 399.914 76.0109" fill="#1F161E"/>
<path d="M242.095 37.7136C242.694 37.3388 243.021 36.7819 242.826 36.4697C242.631 36.1575 241.987 36.2082 241.388 36.5831C240.788 36.9579 240.461 37.5148 240.656 37.827C240.852 38.1392 241.496 38.0884 242.095 37.7136Z" fill="#999CBF"/>
<path d="M248.905 33.4539C249.504 33.079 249.832 32.5221 249.637 32.2099C249.441 31.8977 248.797 31.9485 248.198 32.3233C247.599 32.6981 247.272 33.255 247.467 33.5672C247.662 33.8794 248.306 33.8287 248.905 33.4539Z" fill="#999CBF"/>
<path d="M243.651 34.3281C243.628 34.7444 243.347 36.6098 244.754 36.4133" stroke="#1F161E" stroke-width="0.265943" stroke-miterlimit="10" stroke-linecap="round"/>
<path d="M247.824 36.4628C248.144 36.2508 248.399 35.5417 248.437 35.0098" stroke="#1F161E" stroke-width="0.265943" stroke-miterlimit="10" stroke-linecap="round"/>
<path d="M251.598 31.9267C252.458 31.9267 253.155 31.2296 253.155 30.3696C253.155 29.5096 252.458 28.8125 251.598 28.8125C250.738 28.8125 250.041 29.5096 250.041 30.3696C250.041 31.2296 250.738 31.9267 251.598 31.9267Z" fill="#EED0C3"/>
<path d="M233.672 78.8979C232.285 77.0787 231.961 72.7966 231.961 69.8173C232.955 60.2318 235.43 51.8835 240.514 42.9802C241.13 42.0282 243.497 42.3326 243.936 42.9802C245.389 48.9427 248.149 68.079 239.932 79.0559C237.889 79.0559 235.391 78.8979 233.672 78.8979Z" fill="#7DBF9D"/>
<path d="M242.429 43.7629C243.964 43.7629 245.208 42.5187 245.208 40.984C245.208 39.4492 243.964 38.2051 242.429 38.2051C240.895 38.2051 239.65 39.4492 239.65 40.984C239.65 42.5187 240.895 43.7629 242.429 43.7629Z" fill="#EED0C3"/>
<path d="M270.711 95.0158C273.025 95.0158 274.901 93.1401 274.901 90.8263C274.901 88.5124 273.025 86.6367 270.711 86.6367C268.397 86.6367 266.521 88.5124 266.521 90.8263C266.521 93.1401 268.397 95.0158 270.711 95.0158Z" fill="#EED0C3"/>
<path d="M285.967 77.2484C291.706 70.0217 297.53 62.2785 297.53 61.3227C297.53 60.4323 294.384 54.9555 290.26 49.4824" stroke="#1F161E" stroke-width="0.385425" stroke-linecap="round" stroke-linejoin="round"/>
<path d="M268.961 50.4375C269.921 51.4781 278.084 62.8443 278.007 64.2858C277.964 65.0567 275.694 71.4277 273.54 77.2515" stroke="#1F161E" stroke-width="0.385425" stroke-linecap="round" stroke-linejoin="round"/>
<path d="M245.563 56.8555C245.656 63.6235 244.704 71.3282 241.143 77.2521" stroke="#1F161E" stroke-width="0.385425" stroke-linecap="round" stroke-linejoin="round"/>
<path d="M303.836 60.709C305.601 60.7552 400.257 70.888 400.257 70.888V76.3225L303.516 77.236" fill="#999CBF"/>
</g>
<defs>
<clipPath id="clip0_7013_221872">
<rect width="83.2517" height="204.275" fill="white" transform="matrix(0 -1 1 0 178 159.764)"/>
</clipPath>
<clipPath id="clip1_7013_221872">
<rect width="173.04" height="79.012" fill="white" transform="translate(231.959 16)"/>
</clipPath>
</defs>
</svg>
