<svg width="314" height="115" viewBox="0 0 314 115" fill="none" xmlns="http://www.w3.org/2000/svg">
<path d="M0 8C0 3.58172 3.58172 0 8 0H306C310.418 0 314 3.58172 314 8V115H0V8Z" fill="#EAEAEA"/>
<path d="M186.191 51.5725C186.742 53.2228 192.085 74.9383 193.118 75.9908C194.152 77.0433 223.092 92.0269 223.092 92.0269L221.134 96.9948C221.134 96.9948 190.807 87.3116 189.237 86.4528C187.666 85.5939 175.712 75.1067 173.887 70.6988C172.062 66.2908 184.086 51.5051 186.191 51.5725Z" fill="#1F161E"/>
<path d="M157.141 110.736C157.141 111.237 157.434 114.382 156.851 114.675C156.268 114.967 149.86 115.14 149.568 114.85C149.275 114.559 149.102 113.946 149.357 113.772C149.612 113.597 152.094 113.1 152.43 112.869C152.767 112.637 153.232 111.395 153.062 110.736" fill="#1F161E"/>
<path d="M222.872 92.5059C223.333 92.6974 226.351 93.6341 226.398 94.2846C226.444 94.9351 224.147 100.92 223.766 101.078C223.385 101.235 222.754 101.162 222.693 100.852C222.632 100.543 223.122 98.0673 223.03 97.6737C222.937 97.2801 221.977 96.3707 221.304 96.276" fill="#1F161E"/>
<path d="M158.251 39.1797C158.883 39.3607 163.865 40.6027 164.381 40.6027C164.897 40.6027 165.623 45.6148 165.105 45.5663C164.587 45.5179 158.045 43.5497 156.416 43.3961C154.786 43.2424 158.251 39.1797 158.251 39.1797Z" fill="#EED0C3"/>
<path d="M176.51 17.4726C172.789 17.1211 165.914 18.9104 163.752 20.1502C159.487 22.5858 164.404 54.0727 166.617 56.4156C168.595 57.1966 185.351 53.2581 186.193 51.5741C185.747 48.1955 179.102 36.5294 178.47 35.8979C178.891 35.4769 180.786 33.1614 180.786 33.1614C180.786 33.1614 179.08 30.8732 178.891 30.7448C179.434 30.3828 184.861 26.0948 185.162 25.8549C184.076 24.2466 177.761 17.5842 176.51 17.4726Z" fill="#999CBF"/>
<path d="M171.162 44.8096C171.455 44.0939 180.45 33.573 180.776 33.152C180.284 32.4679 179.471 31.4217 178.806 30.626C181.372 28.7525 184.127 26.6264 185.121 25.7676C185.137 25.7892 185.153 25.8117 185.167 25.8349C185.616 26.3696 189.617 32.3605 189.617 33.2025C189.617 34.0445 177.374 45.9632 175.848 46.5484C174.322 47.1336 170.872 45.5232 171.162 44.8096Z" fill="#EED0C3"/>
<path d="M169.659 48.2772C168.673 46.769 169.213 44.6706 170.865 43.5902C172.517 42.5099 174.656 42.8567 175.642 44.3649C176.628 45.8731 176.088 47.9715 174.436 49.0518C172.784 50.1322 170.645 49.7853 169.659 48.2772Z" fill="#EED0C3"/>
<path d="M156.81 43.9817C155.206 43.9817 153.905 42.6812 153.905 41.0768C153.905 39.4725 155.206 38.1719 156.81 38.1719C158.414 38.1719 159.715 39.4725 159.715 41.0768C159.715 42.6812 158.414 43.9817 156.81 43.9817Z" fill="#EED0C3"/>
<path d="M166.613 56.4138C166.613 56.4138 158.098 73.1193 156.795 76.5926C155.492 80.0659 152.314 110.953 152.314 110.953C152.314 110.953 156.557 111.454 157.696 110.953C158.835 110.452 163.567 87.9829 166.175 83.3876C170.143 76.3821 191.709 63.3267 186.19 51.5723" fill="#FFCC80"/>
<path d="M172.987 19.1851C173.086 19.7324 168.633 20.5302 168.535 19.9829L167.541 14.4404L171.993 13.6426L172.987 19.1851Z" fill="#EED0C3"/>
<path d="M169.083 15.9181C169.517 15.8402 172.517 16.5707 172.639 17.2548L171.992 13.6426C171.3 13.7668 169.083 15.9181 169.083 15.9181Z" fill="#1F161E"/>
<path d="M167.376 16.5228C163.873 16.5228 161.034 13.6832 161.034 10.1803C161.034 6.6775 163.873 3.83789 167.376 3.83789C170.879 3.83789 173.719 6.6775 173.719 10.1803C173.719 13.6832 170.879 16.5228 167.376 16.5228Z" fill="#EED0C3"/>
<path d="M160.681 12.7075C160.624 12.3928 161.068 12.0498 161.672 11.9414C162.276 11.8331 162.812 12.0003 162.868 12.315C162.925 12.6297 162.481 12.9726 161.877 13.081C161.273 13.1894 160.737 13.0222 160.681 12.7075Z" fill="#EF9A9A"/>
<path d="M167.557 11.4751C167.501 11.1604 167.945 10.8174 168.549 10.709C169.153 10.6006 169.689 10.7679 169.745 11.0826C169.802 11.3972 169.358 11.7402 168.754 11.8486C168.149 11.957 167.614 11.7897 167.557 11.4751Z" fill="#EF9A9A"/>
<path d="M164.231 10.8535C164.079 11.1798 163.248 12.5944 164.441 12.8912" stroke="#1F161E" stroke-width="0.433702" stroke-miterlimit="10" stroke-linecap="round"/>
<path d="M166.909 13.9258C167.235 13.8563 167.671 13.368 167.873 12.9512" stroke="#1F161E" stroke-width="0.433702" stroke-miterlimit="10" stroke-linecap="round"/>
<path d="M179.152 31.0532C178.571 30.4049 176.403 27.7378 175.485 26.9863" stroke="#1F161E" stroke-width="0.361419" stroke-miterlimit="10" stroke-linecap="round"/>
<path d="M166.51 1.68402C168.194 1.68402 173.191 0.858851 174.41 0C174.894 0.338909 176.679 2.39973 178.012 5.05206L175.389 7.10025L178.504 6.113C179.118 7.48152 179.475 8.95151 179.557 10.4493C178.538 12.4049 176.045 12.948 175.591 12.948C172.644 12.948 172.096 8.30222 170.707 7.56125C168.343 6.29824 165.112 8.40326 161.458 7.78439C160.868 6.02037 162.474 1.68402 166.51 1.68402Z" fill="#1F161E"/>
<path d="M173.275 11.3267C172.466 11.3267 171.81 10.6707 171.81 9.86158C171.81 9.05243 172.466 8.39648 173.275 8.39648C174.084 8.39648 174.74 9.05243 174.74 9.86158C174.74 10.6707 174.084 11.3267 173.275 11.3267Z" fill="#EED0C3"/>
<path d="M178.256 44.6848C178.795 44.1901 183.729 44.9437 184.781 47.5518C183.411 44.5501 182.127 42.0788 181.746 41.4746C181.34 41.8619 178.256 44.6848 178.256 44.6848Z" fill="#1F161E"/>
<path d="M163.056 40.7695C163.171 41.6115 162.412 44.8449 160.837 44.4281L163.719 45.2175L163.056 40.7695Z" fill="#1F161E"/>
<path d="M118.172 58.1849C124.683 59.4218 123.521 98.2741 111.025 95.9236C99.2242 93.693 110.23 56.6875 118.172 58.1849Z" fill="black"/>
<path d="M89.589 63.0025C94.7698 60.0729 116.456 87.3611 106.536 92.9701C97.1648 98.2708 83.2809 66.5695 89.589 63.0025Z" fill="#FFF3E0"/>
<path d="M115.988 114.704H102.906C102.379 114.704 101.87 114.509 101.478 114.158C101.085 113.806 100.836 113.323 100.778 112.799L99.1264 97.9658C99.0931 97.6666 99.1234 97.3636 99.2151 97.0768C99.3069 96.79 99.4581 96.5258 99.6589 96.3014C99.8597 96.077 100.106 95.8975 100.38 95.7745C100.655 95.6516 100.953 95.588 101.254 95.5879H117.571C117.871 95.5876 118.168 95.6506 118.443 95.7727C118.717 95.8949 118.962 96.0734 119.163 96.2968C119.364 96.5202 119.515 96.7833 119.608 97.0691C119.7 97.3549 119.731 97.657 119.699 97.9556L118.119 112.789C118.062 113.314 117.814 113.801 117.42 114.154C117.027 114.508 116.517 114.704 115.988 114.704Z" fill="#BFBFBF"/>
<path d="M121.848 43.06C126.806 44.5025 123.007 74.5044 113.512 71.7324C104.548 69.1249 115.814 41.3057 121.848 43.06Z" fill="#999CBF"/>
<path d="M130.023 66.9216C133.45 69.8786 119.511 92.4691 112.926 86.7949C106.707 81.46 125.84 63.3239 130.023 66.9216Z" fill="#FFF3E0"/>
<path d="M109.484 46.1816C116.906 46.1816 123.7 93.5658 109.484 93.5658C96.0592 93.5658 100.448 46.1816 109.484 46.1816Z" fill="#3B7858"/>
<path d="M122.507 92.3633H96.3975C95.6311 92.3633 95.0098 92.9846 95.0098 93.751V96.2797C95.0098 97.0461 95.6311 97.6674 96.3975 97.6674H122.507C123.273 97.6674 123.895 97.0461 123.895 96.2797V93.751C123.895 92.9846 123.273 92.3633 122.507 92.3633Z" fill="#D8D8D8"/>
<path d="M269.743 91.8919V91.5492L268.921 90.5213L267.036 88.2084L265.015 85.762C265.015 85.762 263.069 84.4154 262.568 84.1824C260.745 83.3395 258.95 82.6953 256.805 82.6953C255.486 82.6953 250.555 82.894 250.545 83.7232C250.545 84.9533 257.449 89.6099 262.513 91.8713C264.72 91.8919 269.743 91.8919 269.743 91.8919Z" fill="#1F161E"/>
<path d="M268.697 91.8911C261.67 86.4944 247.326 56.9928 251.003 46.0625C258.836 50.0543 267.429 63.8183 271.483 75.4407C271.697 76.1968 271.869 76.9644 271.997 77.7399L273.642 85.278L274.053 91.8911H268.697Z" fill="#FFF3E0"/>
<path d="M273.492 91.8918C271.121 89.9662 270.364 84.2646 270.343 82.1368C270.306 78.1655 270.916 75.2394 274.311 70.8707C277.707 66.502 276.792 59.2516 281.315 54.3655C285.838 49.4794 288.812 48.1191 294.164 48.1191C299.516 48.1191 301.212 56.7949 301.198 58.9775C301.137 67.7766 295.589 69.0204 292.211 73.2246C289.754 76.2741 289.562 78.7686 288.819 80.194C284.824 87.8658 281.589 90.7645 279.19 91.8918" fill="#7DBF9D"/>
<path d="M274.789 91.253C274.858 76.235 290.684 53.6788 294.066 50.2969" stroke="white" stroke-width="0.137057" stroke-linecap="round" stroke-linejoin="round"/>
<path d="M275.658 84.4385C273.907 82.53 272.313 77.1197 272.553 75.7148" stroke="white" stroke-width="0.137057" stroke-linecap="round" stroke-linejoin="round"/>
<path d="M271.171 90.6053C268.69 86.1989 256.921 64.7631 252.518 48.9707" stroke="white" stroke-width="0.137057" stroke-linecap="round" stroke-linejoin="round"/>
<path d="M279.192 91.8906H286.559L280.392 114.865H263.9L257.832 91.8906H279.192Z" fill="#A7532F"/>
<path d="M252.941 84.1914C256.536 84.4381 261.059 84.6026 264.266 86.7784" stroke="white" stroke-width="0.137057" stroke-linecap="round" stroke-linejoin="round"/>
</svg>
