<svg width="440" height="160" viewBox="0 0 440 160" fill="none" xmlns="http://www.w3.org/2000/svg">
<rect width="440" height="160" fill="#EAEAEA"/>
<path d="M412.752 140.303C413.297 140.303 416.507 140.104 417.052 140.561C418.034 141.389 417.665 148.179 417.35 148.517C417.036 148.855 416.372 149.038 416.177 148.756C415.982 148.473 415.405 145.78 415.147 145.418C414.888 145.056 411.964 144.448 411.236 144.647" fill="#1F161E"/>
<path d="M290.461 138.174L290.346 154.948" stroke="black" stroke-width="1.66737" stroke-miterlimit="10" stroke-linecap="round"/>
<path d="M322.331 116.578C321.751 117.668 322.212 124.136 293.922 144.256C293.338 144.503 292.815 144.873 292.387 145.34C291.96 145.808 291.638 146.362 291.443 146.965C291.443 146.965 291.881 148.556 293.122 148.134C294.363 147.713 315.72 139.852 326.293 132.402C328.99 130.564 334.42 122.823 334.42 122.823L322.331 116.578Z" fill="#F8CDBA"/>
<path d="M338.711 115.107C339.531 116.52 345.326 128.839 345.326 130.096C345.326 131.353 344.435 144.114 342.017 151.763C341.106 151.887 338.039 152.384 338.039 154.218C338.039 154.723 339.133 156.362 341.691 156.358C342.514 156.358 345.533 155.415 346.162 154.409C346.79 153.402 353.72 133.119 353.847 130.601C353.974 128.083 353.405 119.328 352.586 117.689C351.767 116.05 338.711 115.107 338.711 115.107Z" fill="#1F161E"/>
<path d="M364.397 119.559C361.656 122.363 356.934 150.586 358.509 153.923C360.085 157.261 364.397 156.799 364.397 156.799C364.397 156.799 413.07 149.544 413.686 148.788C414.303 148.032 414.438 140.506 412.93 139.48C411.423 138.453 388.972 137.244 384.863 138.191C380.754 139.138 373.705 121.484 373.705 121.484L364.397 119.559Z" fill="#1F161E"/>
<path d="M418.09 145.668C418.635 145.668 421.845 145.469 422.39 145.927C423.372 146.754 423.002 153.544 422.688 153.882C422.374 154.22 421.71 154.403 421.515 154.121C421.32 153.839 420.743 151.149 420.484 150.784C420.226 150.418 417.302 149.813 416.574 150.012" fill="#1F161E"/>
<path d="M332.962 89.936C331.737 90.1071 328.869 95.2703 330.134 103.158C325.758 108.027 325.818 110.287 321.383 118.306C323.487 119.897 332.195 125.864 332.195 125.864C332.195 125.864 338.877 116.393 339.49 116.5C341.789 117.447 356.408 121.787 369.877 121.759C372.928 121.759 387.339 105.768 386.707 104.085C386.074 102.403 356.937 86.5986 332.962 89.936Z" fill="#7DBF9D"/>
<path d="M384.937 103.639C385.967 103.957 398.673 109.605 398.514 117.056C398.307 126.579 386.365 142.538 384.937 144.364C387.634 144.443 414.866 144.125 418.279 145C419.389 145.239 418.677 149.774 418.279 150.398C417.882 151.023 392.984 157.9 363.103 159.945C361.277 160.068 360.804 157.403 360.485 156.055C360.167 154.706 365.076 129.328 370.804 119.618C371.456 118.492 384.937 103.639 384.937 103.639Z" fill="#FA9E9F"/>
<path d="M291.384 150.049C293.805 150.049 295.767 148.833 295.767 147.332C295.767 145.832 293.805 144.615 291.384 144.615C288.963 144.615 287 145.832 287 147.332C287 148.833 288.963 150.049 291.384 150.049Z" fill="#F8CDBA"/>
<path d="M315.417 83.7179C314.876 83.6702 313.067 81.4148 314.033 76.3709C315.203 74.8394 319.073 74.3541 319.204 76.0884C319.336 77.8228 317.068 83.8731 315.417 83.7179Z" fill="#1F161E"/>
<path d="M330.801 96.6422C331.946 97.2548 334.639 92.4138 333.402 91.7574L325.705 87.6562L323.1 92.545L330.801 96.6422Z" fill="#F8CDBA"/>
<path d="M330.301 90.1027C329.613 89.7407 326.61 89.7049 326.514 90.8346C326.598 89.4066 325.11 87.8831 325.719 87.6523L330.301 90.1027Z" fill="black"/>
<path d="M322.239 93.2003C326.211 93.2003 329.431 89.9803 329.431 86.0083C329.431 82.0363 326.211 78.8164 322.239 78.8164C318.267 78.8164 315.047 82.0363 315.047 86.0083C315.047 89.9803 318.267 93.2003 322.239 93.2003Z" fill="#F8CDBA"/>
<path d="M315.253 88.574C315.91 88.4837 316.405 88.1335 316.358 87.7918C316.311 87.4501 315.74 87.2463 315.083 87.3365C314.425 87.4268 313.931 87.777 313.978 88.1187C314.024 88.4604 314.595 88.6642 315.253 88.574Z" fill="#FA9E9F"/>
<path d="M322.725 87.5466C323.383 87.4564 323.877 87.1062 323.83 86.7645C323.784 86.4228 323.213 86.2189 322.555 86.3092C321.898 86.3995 321.403 86.7497 321.45 87.0914C321.497 87.4331 322.068 87.6369 322.725 87.5466Z" fill="#FA9E9F"/>
<path d="M317.892 86.2715C317.717 86.6176 316.755 88.0933 318.028 88.4911" stroke="#1F161E" stroke-width="0.383495" stroke-miterlimit="10" stroke-linecap="round"/>
<path d="M320.645 89.7076C320.999 89.648 321.492 89.1388 321.73 88.6973" stroke="#1F161E" stroke-width="0.383495" stroke-miterlimit="10" stroke-linecap="round"/>
<path d="M324.857 70.5116C334.372 70.5116 341.206 72.0749 345.662 72.0749C352.515 72.0749 357.925 69 365.606 69C369.111 69 378.093 71.9754 378.093 82.0473C378.093 87.7555 374.911 99.0924 361.279 99.0924C349.608 99.0924 347.571 94.1559 342.841 94.1559C337.853 94.1559 328.577 96.5068 327.009 90.1462C326.671 88.4556 326.289 86.3832 325.351 84.6807C320.124 82.8628 318.425 83.0219 315.971 81.566C312.415 79.8754 312.248 70.5116 324.857 70.5116Z" fill="#1F161E"/>
<path d="M326.63 87.3343C327.504 87.3343 328.213 86.6255 328.213 85.7512C328.213 84.8768 327.504 84.168 326.63 84.168C325.756 84.168 325.047 84.8768 325.047 85.7512C325.047 86.6255 325.756 87.3343 326.63 87.3343Z" fill="#F8CDBA"/>
<g clip-path="url(#clip0_7013_221866)">
<path d="M259.532 154.649C260.333 154.669 265.095 155.026 265.911 154.36C267.393 153.156 266.993 143.044 266.536 142.558C266.08 142.073 265.099 141.755 264.802 142.177C264.506 142.598 263.601 146.593 263.2 147.118C262.8 147.644 260.798 148.351 259.724 148.034" fill="#1F161E"/>
<path d="M164.391 130.429C165.492 129.124 203.184 101.126 210.612 101.27C218.041 101.415 239.778 146.63 239.365 148.152C238.953 149.673 227.448 147.176 225.806 145.791C224.164 144.406 212.691 132.235 209.839 126.082C208.718 127.711 199.483 138.437 196.724 140.167C193.965 141.898 164.391 130.429 164.391 130.429Z" fill="#1F161E"/>
<path d="M260.738 154.919C260.113 155.416 151.284 157.423 142.29 154.919C133.295 152.414 130.92 152.663 131.045 147.404C131.169 142.146 148.665 128.742 150.911 128.742C154.355 128.742 189.788 131.552 217.889 141.945C229.102 143.783 259.937 147.252 259.937 147.252C260.442 149.09 261.347 152.478 260.738 154.919Z" fill="#FFCC80"/>
<path d="M125.189 79.7802C119.322 82.3854 112.105 116.052 113.087 117.156C114.068 118.26 122.385 122.058 122.385 122.058C122.546 130.254 129.474 149.876 131.552 150.731C146.161 146.564 155.147 133.578 155.147 130.022C155.147 126.465 166.272 129.191 167.129 128.199C167.528 127.788 167.983 127.434 168.479 127.148C168.479 127.148 162.472 121.929 157.774 118.541C157.938 117.092 159.196 89.9361 157.574 87.3831C154.346 82.3212 132.501 76.5328 125.189 79.7802Z" fill="#7DBF9D"/>
<path d="M122.334 122.051C123.935 122.809 138.484 129.096 144.852 130.428" stroke="#1F161E" stroke-width="0.221049" stroke-miterlimit="10" stroke-linecap="round"/>
<path d="M131.451 100.334C130.694 101.94 126.037 111.192 126.605 112.144C127.174 113.095 153.693 125.479 156.023 126.233" stroke="#1F161E" stroke-width="0.221049" stroke-miterlimit="10" stroke-linecap="round"/>
<path d="M153.446 97.9531C153.594 101.381 153.498 118.144 152.929 124.334" stroke="#1F161E" stroke-width="0.221049" stroke-miterlimit="10" stroke-linecap="round"/>
<path d="M156.025 126.233C155.785 126.735 154.111 131.58 153.934 132.632C153.758 133.684 160.606 135.072 162.993 134.956C165.38 134.84 168.291 132.62 168.291 129.995C168.291 127.369 164.707 125.511 156.025 126.233Z" fill="#EED0C3"/>
<path d="M146.379 83.3988C146.139 84.5428 139.843 83.3145 140.096 82.0861L141.69 74.4512L147.969 75.7638L146.379 83.3988Z" fill="#EED0C3"/>
<path d="M140.739 79.0028C140.88 78.3245 142.922 76.3053 144.035 76.9476C142.67 76.1167 142.309 74.1818 141.688 74.4347L140.739 79.0028Z" fill="black"/>
<path d="M148.78 78.4355C144.177 78.4355 140.446 74.6955 140.446 70.082C140.446 65.4685 144.177 61.7285 148.78 61.7285C153.382 61.7285 157.113 65.4685 157.113 70.082C157.113 74.6955 153.382 78.4355 148.78 78.4355Z" fill="#EED0C3"/>
<path d="M156.646 73.6203C155.895 73.4631 155.352 73.0172 155.434 72.6244C155.516 72.2316 156.191 72.0406 156.942 72.1978C157.694 72.355 158.236 72.8009 158.155 73.1937C158.073 73.5865 157.398 73.7775 156.646 73.6203Z" fill="#FA9E9F"/>
<path d="M148.094 71.8293C147.342 71.6721 146.8 71.2262 146.881 70.8334C146.963 70.4406 147.638 70.2496 148.39 70.4068C149.141 70.564 149.684 71.0098 149.602 71.4026C149.52 71.7955 148.845 71.9865 148.094 71.8293Z" fill="#FA9E9F"/>
<path d="M153.786 70.7363C153.962 71.1377 154.951 72.9522 153.446 73.2813" stroke="#1F161E" stroke-width="0.277316" stroke-miterlimit="10" stroke-linecap="round"/>
<path d="M150.33 74.4947C149.93 74.3984 149.397 73.7682 149.157 73.2383" stroke="#1F161E" stroke-width="0.277316" stroke-miterlimit="10" stroke-linecap="round"/>
<path d="M141.976 63.6844C142.569 60.8464 146.958 59.5579 149.705 60.1319C154.078 61.0471 159.184 63.2308 160.001 63.7447C161.367 64.5716 161.275 66.1933 161.163 66.7232C160.702 68.931 159.613 70.1352 157.114 69.9787C157.11 69.1595 156.975 68.3463 156.713 67.5702C156.09 67.1682 155.346 66.999 154.611 67.0925C153.95 67.1808 148.264 68.5416 144.435 67.7388C143.774 68.3489 141.736 72.5116 141.68 74.4384C140.547 74.2658 139.241 70.1754 139.538 68.2365C139.649 67.5757 139.914 66.9504 140.31 66.4108C140.707 65.8712 141.224 65.4323 141.82 65.1295C141.876 64.7121 141.932 63.9092 141.976 63.6844Z" fill="black"/>
<path d="M143.726 71.2668C142.713 71.2668 141.892 70.4437 141.892 69.4283C141.892 68.413 142.713 67.5898 143.726 67.5898C144.739 67.5898 145.561 68.413 145.561 69.4283C145.561 70.4437 144.739 71.2668 143.726 71.2668Z" fill="#EED0C3"/>
</g>
<defs>
<clipPath id="clip0_7013_221866">
<rect width="153.954" height="96.1516" fill="white" transform="matrix(-1 0 0 1 266.953 60)"/>
</clipPath>
</defs>
</svg>
