<svg width="314" height="115" viewBox="0 0 314 115" fill="none" xmlns="http://www.w3.org/2000/svg">
<path d="M0 8C0 3.58172 3.58172 0 8 0H306C310.418 0 314 3.58172 314 8V115H0V8Z" fill="#EAEAEA"/>
<g clip-path="url(#clip0_7013_221933)">
<path d="M206.714 33.6094H163.754V108.317H206.714V33.6094Z" fill="#F1F1F1"/>
<path d="M236.218 33.6094H206.713V108.317H236.218V33.6094Z" fill="#EAEAEA"/>
<path d="M203.585 35.9707H166.881V39.0393H203.585V35.9707Z" fill="#EAEAEA"/>
<path d="M163.754 43.1699H199.986C200.331 43.1699 200.661 43.3067 200.904 43.5502C201.148 43.7936 201.285 44.1238 201.285 44.4682V47.4187C201.285 47.763 201.148 48.0932 200.904 48.3367C200.661 48.5801 200.331 48.7169 199.986 48.7169H163.754V43.1699Z" fill="white"/>
<path d="M197.782 43.6992H197.586C197.151 43.6992 196.799 44.0517 196.799 44.4864V47.3968C196.799 47.8316 197.151 48.184 197.586 48.184H197.782C198.217 48.184 198.569 47.8316 198.569 47.3968V44.4864C198.569 44.0517 198.217 43.6992 197.782 43.6992Z" fill="#F1F1F1"/>
<path d="M194.78 43.6992H194.584C194.149 43.6992 193.797 44.0517 193.797 44.4864V47.3968C193.797 47.8316 194.149 48.184 194.584 48.184H194.78C195.215 48.184 195.567 47.8316 195.567 47.3968V44.4864C195.567 44.0517 195.215 43.6992 194.78 43.6992Z" fill="#F1F1F1"/>
<path d="M191.776 43.6992H191.58C191.145 43.6992 190.793 44.0517 190.793 44.4864V47.3968C190.793 47.8316 191.145 48.184 191.58 48.184H191.776C192.211 48.184 192.563 47.8316 192.563 47.3968V44.4864C192.563 44.0517 192.211 43.6992 191.776 43.6992Z" fill="#F1F1F1"/>
<path d="M188.774 43.6992H188.578C188.143 43.6992 187.791 44.0517 187.791 44.4864V47.3968C187.791 47.8316 188.143 48.184 188.578 48.184H188.774C189.209 48.184 189.561 47.8316 189.561 47.3968V44.4864C189.561 44.0517 189.209 43.6992 188.774 43.6992Z" fill="#F1F1F1"/>
<path d="M185.77 43.6992H185.574C185.14 43.6992 184.787 44.0517 184.787 44.4864V47.3968C184.787 47.8316 185.14 48.184 185.574 48.184H185.77C186.205 48.184 186.557 47.8316 186.557 47.3968V44.4864C186.557 44.0517 186.205 43.6992 185.77 43.6992Z" fill="#F1F1F1"/>
<path d="M182.768 43.6992H182.572C182.138 43.6992 181.785 44.0517 181.785 44.4864V47.3968C181.785 47.8316 182.138 48.184 182.572 48.184H182.768C183.203 48.184 183.555 47.8316 183.555 47.3968V44.4864C183.555 44.0517 183.203 43.6992 182.768 43.6992Z" fill="#F1F1F1"/>
<path d="M179.764 43.6992H179.568C179.134 43.6992 178.781 44.0517 178.781 44.4864V47.3968C178.781 47.8316 179.134 48.184 179.568 48.184H179.764C180.199 48.184 180.552 47.8316 180.552 47.3968V44.4864C180.552 44.0517 180.199 43.6992 179.764 43.6992Z" fill="#F1F1F1"/>
<path d="M176.762 43.6992H176.566C176.132 43.6992 175.779 44.0517 175.779 44.4864V47.3968C175.779 47.8316 176.132 48.184 176.566 48.184H176.762C177.197 48.184 177.55 47.8316 177.55 47.3968V44.4864C177.55 44.0517 177.197 43.6992 176.762 43.6992Z" fill="#F1F1F1"/>
<path d="M173.759 43.6992H173.563C173.128 43.6992 172.775 44.0517 172.775 44.4864V47.3968C172.775 47.8316 173.128 48.184 173.563 48.184H173.759C174.193 48.184 174.546 47.8316 174.546 47.3968V44.4864C174.546 44.0517 174.193 43.6992 173.759 43.6992Z" fill="#F1F1F1"/>
<path d="M170.757 43.6992H170.561C170.126 43.6992 169.773 44.0517 169.773 44.4864V47.3968C169.773 47.8316 170.126 48.184 170.561 48.184H170.757C171.191 48.184 171.544 47.8316 171.544 47.3968V44.4864C171.544 44.0517 171.191 43.6992 170.757 43.6992Z" fill="#F1F1F1"/>
<path d="M165.76 43.1699H163.754V48.7169H165.76V43.1699Z" fill="#EAEAEA"/>
<path d="M166.703 44.2893C166.866 44.2893 166.998 44.1572 166.998 43.9943C166.998 43.8313 166.866 43.6992 166.703 43.6992C166.54 43.6992 166.408 43.8313 166.408 43.9943C166.408 44.1572 166.54 44.2893 166.703 44.2893Z" fill="#3B7858"/>
<path d="M166.703 45.637C166.866 45.637 166.998 45.5049 166.998 45.3419C166.998 45.179 166.866 45.0469 166.703 45.0469C166.54 45.0469 166.408 45.179 166.408 45.3419C166.408 45.5049 166.54 45.637 166.703 45.637Z" fill="#EF5350"/>
<path d="M166.703 46.9846C166.866 46.9846 166.998 46.8525 166.998 46.6896C166.998 46.5266 166.866 46.3945 166.703 46.3945C166.54 46.3945 166.408 46.5266 166.408 46.6896C166.408 46.8525 166.54 46.9846 166.703 46.9846Z" fill="#FFA726"/>
<path d="M163.754 51.5293H199.986C200.331 51.5293 200.661 51.6661 200.904 51.9095C201.148 52.153 201.285 52.4832 201.285 52.8275V55.7781C201.285 56.1224 201.148 56.4526 200.904 56.6961C200.661 56.9395 200.331 57.0763 199.986 57.0763H163.754V51.5293Z" fill="white"/>
<path d="M197.782 52.0605H197.586C197.151 52.0605 196.799 52.413 196.799 52.8477V55.7582C196.799 56.1929 197.151 56.5454 197.586 56.5454H197.782C198.217 56.5454 198.569 56.1929 198.569 55.7582V52.8477C198.569 52.413 198.217 52.0605 197.782 52.0605Z" fill="#F1F1F1"/>
<path d="M194.78 52.0605H194.584C194.149 52.0605 193.797 52.413 193.797 52.8477V55.7582C193.797 56.1929 194.149 56.5454 194.584 56.5454H194.78C195.215 56.5454 195.567 56.1929 195.567 55.7582V52.8477C195.567 52.413 195.215 52.0605 194.78 52.0605Z" fill="#F1F1F1"/>
<path d="M191.776 52.0605H191.58C191.145 52.0605 190.793 52.413 190.793 52.8477V55.7582C190.793 56.1929 191.145 56.5454 191.58 56.5454H191.776C192.211 56.5454 192.563 56.1929 192.563 55.7582V52.8477C192.563 52.413 192.211 52.0605 191.776 52.0605Z" fill="#F1F1F1"/>
<path d="M188.774 52.0605H188.578C188.143 52.0605 187.791 52.413 187.791 52.8477V55.7582C187.791 56.1929 188.143 56.5454 188.578 56.5454H188.774C189.209 56.5454 189.561 56.1929 189.561 55.7582V52.8477C189.561 52.413 189.209 52.0605 188.774 52.0605Z" fill="#F1F1F1"/>
<path d="M185.77 52.0605H185.574C185.14 52.0605 184.787 52.413 184.787 52.8477V55.7582C184.787 56.1929 185.14 56.5454 185.574 56.5454H185.77C186.205 56.5454 186.557 56.1929 186.557 55.7582V52.8477C186.557 52.413 186.205 52.0605 185.77 52.0605Z" fill="#F1F1F1"/>
<path d="M182.768 52.0605H182.572C182.138 52.0605 181.785 52.413 181.785 52.8477V55.7582C181.785 56.1929 182.138 56.5454 182.572 56.5454H182.768C183.203 56.5454 183.555 56.1929 183.555 55.7582V52.8477C183.555 52.413 183.203 52.0605 182.768 52.0605Z" fill="#F1F1F1"/>
<path d="M179.764 52.0605H179.568C179.134 52.0605 178.781 52.413 178.781 52.8477V55.7582C178.781 56.1929 179.134 56.5454 179.568 56.5454H179.764C180.199 56.5454 180.552 56.1929 180.552 55.7582V52.8477C180.552 52.413 180.199 52.0605 179.764 52.0605Z" fill="#F1F1F1"/>
<path d="M176.762 52.0605H176.566C176.132 52.0605 175.779 52.413 175.779 52.8477V55.7582C175.779 56.1929 176.132 56.5454 176.566 56.5454H176.762C177.197 56.5454 177.55 56.1929 177.55 55.7582V52.8477C177.55 52.413 177.197 52.0605 176.762 52.0605Z" fill="#F1F1F1"/>
<path d="M173.759 52.0605H173.563C173.128 52.0605 172.775 52.413 172.775 52.8477V55.7582C172.775 56.1929 173.128 56.5454 173.563 56.5454H173.759C174.193 56.5454 174.546 56.1929 174.546 55.7582V52.8477C174.546 52.413 174.193 52.0605 173.759 52.0605Z" fill="#F1F1F1"/>
<path d="M170.757 52.0605H170.561C170.126 52.0605 169.773 52.413 169.773 52.8477V55.7582C169.773 56.1929 170.126 56.5454 170.561 56.5454H170.757C171.191 56.5454 171.544 56.1929 171.544 55.7582V52.8477C171.544 52.413 171.191 52.0605 170.757 52.0605Z" fill="#F1F1F1"/>
<path d="M165.76 51.5293H163.754V57.0763H165.76V51.5293Z" fill="#EAEAEA"/>
<path d="M166.703 52.6507C166.866 52.6507 166.998 52.5186 166.998 52.3556C166.998 52.1926 166.866 52.0605 166.703 52.0605C166.54 52.0605 166.408 52.1926 166.408 52.3556C166.408 52.5186 166.54 52.6507 166.703 52.6507Z" fill="#3B7858"/>
<path d="M166.703 53.9964C166.866 53.9964 166.998 53.8643 166.998 53.7013C166.998 53.5383 166.866 53.4062 166.703 53.4062C166.54 53.4062 166.408 53.5383 166.408 53.7013C166.408 53.8643 166.54 53.9964 166.703 53.9964Z" fill="#EF5350"/>
<path d="M166.703 55.344C166.866 55.344 166.998 55.2119 166.998 55.049C166.998 54.886 166.866 54.7539 166.703 54.7539C166.54 54.7539 166.408 54.886 166.408 55.049C166.408 55.2119 166.54 55.344 166.703 55.344Z" fill="#FFA726"/>
<path d="M163.754 59.8887H199.986C200.331 59.8887 200.661 60.0254 200.904 60.2689C201.148 60.5124 201.285 60.8426 201.285 61.1869V64.1374C201.285 64.4818 201.148 64.812 200.904 65.0554C200.661 65.2989 200.331 65.4357 199.986 65.4357H163.754V59.8887Z" fill="white"/>
<path d="M197.782 60.4199H197.586C197.151 60.4199 196.799 60.7724 196.799 61.2071V64.1175C196.799 64.5523 197.151 64.9047 197.586 64.9047H197.782C198.217 64.9047 198.569 64.5523 198.569 64.1175V61.2071C198.569 60.7724 198.217 60.4199 197.782 60.4199Z" fill="#F1F1F1"/>
<path d="M194.78 60.4199H194.584C194.149 60.4199 193.797 60.7724 193.797 61.2071V64.1175C193.797 64.5523 194.149 64.9047 194.584 64.9047H194.78C195.215 64.9047 195.567 64.5523 195.567 64.1175V61.2071C195.567 60.7724 195.215 60.4199 194.78 60.4199Z" fill="#F1F1F1"/>
<path d="M191.776 60.4199H191.58C191.145 60.4199 190.793 60.7724 190.793 61.2071V64.1175C190.793 64.5523 191.145 64.9047 191.58 64.9047H191.776C192.211 64.9047 192.563 64.5523 192.563 64.1175V61.2071C192.563 60.7724 192.211 60.4199 191.776 60.4199Z" fill="#F1F1F1"/>
<path d="M188.774 60.4199H188.578C188.143 60.4199 187.791 60.7724 187.791 61.2071V64.1175C187.791 64.5523 188.143 64.9047 188.578 64.9047H188.774C189.209 64.9047 189.561 64.5523 189.561 64.1175V61.2071C189.561 60.7724 189.209 60.4199 188.774 60.4199Z" fill="#F1F1F1"/>
<path d="M185.77 60.4199H185.574C185.14 60.4199 184.787 60.7724 184.787 61.2071V64.1175C184.787 64.5523 185.14 64.9047 185.574 64.9047H185.77C186.205 64.9047 186.557 64.5523 186.557 64.1175V61.2071C186.557 60.7724 186.205 60.4199 185.77 60.4199Z" fill="#F1F1F1"/>
<path d="M182.768 60.4199H182.572C182.138 60.4199 181.785 60.7724 181.785 61.2071V64.1175C181.785 64.5523 182.138 64.9047 182.572 64.9047H182.768C183.203 64.9047 183.555 64.5523 183.555 64.1175V61.2071C183.555 60.7724 183.203 60.4199 182.768 60.4199Z" fill="#F1F1F1"/>
<path d="M179.764 60.4199H179.568C179.134 60.4199 178.781 60.7724 178.781 61.2071V64.1175C178.781 64.5523 179.134 64.9047 179.568 64.9047H179.764C180.199 64.9047 180.552 64.5523 180.552 64.1175V61.2071C180.552 60.7724 180.199 60.4199 179.764 60.4199Z" fill="#F1F1F1"/>
<path d="M176.762 60.4199H176.566C176.132 60.4199 175.779 60.7724 175.779 61.2071V64.1175C175.779 64.5523 176.132 64.9047 176.566 64.9047H176.762C177.197 64.9047 177.55 64.5523 177.55 64.1175V61.2071C177.55 60.7724 177.197 60.4199 176.762 60.4199Z" fill="#F1F1F1"/>
<path d="M173.759 60.4199H173.563C173.128 60.4199 172.775 60.7724 172.775 61.2071V64.1175C172.775 64.5523 173.128 64.9047 173.563 64.9047H173.759C174.193 64.9047 174.546 64.5523 174.546 64.1175V61.2071C174.546 60.7724 174.193 60.4199 173.759 60.4199Z" fill="#F1F1F1"/>
<path d="M170.757 60.4199H170.561C170.126 60.4199 169.773 60.7724 169.773 61.2071V64.1175C169.773 64.5523 170.126 64.9047 170.561 64.9047H170.757C171.191 64.9047 171.544 64.5523 171.544 64.1175V61.2071C171.544 60.7724 171.191 60.4199 170.757 60.4199Z" fill="#F1F1F1"/>
<path d="M165.76 59.8887H163.754V65.4357H165.76V59.8887Z" fill="#EAEAEA"/>
<path d="M166.703 61.01C166.866 61.01 166.998 60.8779 166.998 60.715C166.998 60.552 166.866 60.4199 166.703 60.4199C166.54 60.4199 166.408 60.552 166.408 60.715C166.408 60.8779 166.54 61.01 166.703 61.01Z" fill="#3B7858"/>
<path d="M166.703 62.3557C166.866 62.3557 166.998 62.2236 166.998 62.0607C166.998 61.8977 166.866 61.7656 166.703 61.7656C166.54 61.7656 166.408 61.8977 166.408 62.0607C166.408 62.2236 166.54 62.3557 166.703 62.3557Z" fill="#EF5350"/>
<path d="M166.703 63.7034C166.866 63.7034 166.998 63.5713 166.998 63.4083C166.998 63.2454 166.866 63.1133 166.703 63.1133C166.54 63.1133 166.408 63.2454 166.408 63.4083C166.408 63.5713 166.54 63.7034 166.703 63.7034Z" fill="#FFA726"/>
<path d="M163.754 68.248H199.986C200.331 68.248 200.661 68.3848 200.904 68.6283C201.148 68.8718 201.285 69.202 201.285 69.5463V72.4968C201.285 72.8411 201.148 73.1713 200.904 73.4148C200.661 73.6583 200.331 73.795 199.986 73.795H163.754V68.248Z" fill="white"/>
<path d="M197.782 68.7793H197.586C197.151 68.7793 196.799 69.1317 196.799 69.5665V72.4769C196.799 72.9117 197.151 73.2641 197.586 73.2641H197.782C198.217 73.2641 198.569 72.9117 198.569 72.4769V69.5665C198.569 69.1317 198.217 68.7793 197.782 68.7793Z" fill="#F1F1F1"/>
<path d="M194.78 68.7793H194.584C194.149 68.7793 193.797 69.1317 193.797 69.5665V72.4769C193.797 72.9117 194.149 73.2641 194.584 73.2641H194.78C195.215 73.2641 195.567 72.9117 195.567 72.4769V69.5665C195.567 69.1317 195.215 68.7793 194.78 68.7793Z" fill="#F1F1F1"/>
<path d="M191.776 68.7793H191.58C191.145 68.7793 190.793 69.1317 190.793 69.5665V72.4769C190.793 72.9117 191.145 73.2641 191.58 73.2641H191.776C192.211 73.2641 192.563 72.9117 192.563 72.4769V69.5665C192.563 69.1317 192.211 68.7793 191.776 68.7793Z" fill="#F1F1F1"/>
<path d="M188.774 68.7793H188.578C188.143 68.7793 187.791 69.1317 187.791 69.5665V72.4769C187.791 72.9117 188.143 73.2641 188.578 73.2641H188.774C189.209 73.2641 189.561 72.9117 189.561 72.4769V69.5665C189.561 69.1317 189.209 68.7793 188.774 68.7793Z" fill="#F1F1F1"/>
<path d="M185.77 68.7793H185.574C185.14 68.7793 184.787 69.1317 184.787 69.5665V72.4769C184.787 72.9117 185.14 73.2641 185.574 73.2641H185.77C186.205 73.2641 186.557 72.9117 186.557 72.4769V69.5665C186.557 69.1317 186.205 68.7793 185.77 68.7793Z" fill="#F1F1F1"/>
<path d="M182.768 68.7793H182.572C182.138 68.7793 181.785 69.1317 181.785 69.5665V72.4769C181.785 72.9117 182.138 73.2641 182.572 73.2641H182.768C183.203 73.2641 183.555 72.9117 183.555 72.4769V69.5665C183.555 69.1317 183.203 68.7793 182.768 68.7793Z" fill="#F1F1F1"/>
<path d="M179.764 68.7793H179.568C179.134 68.7793 178.781 69.1317 178.781 69.5665V72.4769C178.781 72.9117 179.134 73.2641 179.568 73.2641H179.764C180.199 73.2641 180.552 72.9117 180.552 72.4769V69.5665C180.552 69.1317 180.199 68.7793 179.764 68.7793Z" fill="#F1F1F1"/>
<path d="M176.762 68.7793H176.566C176.132 68.7793 175.779 69.1317 175.779 69.5665V72.4769C175.779 72.9117 176.132 73.2641 176.566 73.2641H176.762C177.197 73.2641 177.55 72.9117 177.55 72.4769V69.5665C177.55 69.1317 177.197 68.7793 176.762 68.7793Z" fill="#F1F1F1"/>
<path d="M173.759 68.7793H173.563C173.128 68.7793 172.775 69.1317 172.775 69.5665V72.4769C172.775 72.9117 173.128 73.2641 173.563 73.2641H173.759C174.193 73.2641 174.546 72.9117 174.546 72.4769V69.5665C174.546 69.1317 174.193 68.7793 173.759 68.7793Z" fill="#F1F1F1"/>
<path d="M170.757 68.7793H170.561C170.126 68.7793 169.773 69.1317 169.773 69.5665V72.4769C169.773 72.9117 170.126 73.2641 170.561 73.2641H170.757C171.191 73.2641 171.544 72.9117 171.544 72.4769V69.5665C171.544 69.1317 171.191 68.7793 170.757 68.7793Z" fill="#F1F1F1"/>
<path d="M165.76 68.248H163.754V73.795H165.76V68.248Z" fill="#EAEAEA"/>
<path d="M166.703 69.3694C166.866 69.3694 166.998 69.2373 166.998 69.0744C166.998 68.9114 166.866 68.7793 166.703 68.7793C166.54 68.7793 166.408 68.9114 166.408 69.0744C166.408 69.2373 166.54 69.3694 166.703 69.3694Z" fill="#3B7858"/>
<path d="M166.703 70.7171C166.866 70.7171 166.998 70.585 166.998 70.422C166.998 70.2591 166.866 70.127 166.703 70.127C166.54 70.127 166.408 70.2591 166.408 70.422C166.408 70.585 166.54 70.7171 166.703 70.7171Z" fill="#EF5350"/>
<path d="M166.703 72.0628C166.866 72.0628 166.998 71.9307 166.998 71.7677C166.998 71.6048 166.866 71.4727 166.703 71.4727C166.54 71.4727 166.408 71.6048 166.408 71.7677C166.408 71.9307 166.54 72.0628 166.703 72.0628Z" fill="#FFA726"/>
<path d="M163.754 76.6074H199.986C200.331 76.6074 200.661 76.7442 200.904 76.9877C201.148 77.2311 201.285 77.5613 201.285 77.9057V80.8562C201.285 81.2005 201.148 81.5307 200.904 81.7742C200.661 82.0176 200.331 82.1544 199.986 82.1544H163.754V76.6074Z" fill="white"/>
<path d="M197.782 77.1387H197.586C197.151 77.1387 196.799 77.4911 196.799 77.9259V80.8363C196.799 81.271 197.151 81.6235 197.586 81.6235H197.782C198.217 81.6235 198.569 81.271 198.569 80.8363V77.9259C198.569 77.4911 198.217 77.1387 197.782 77.1387Z" fill="#F1F1F1"/>
<path d="M194.78 77.1387H194.584C194.149 77.1387 193.797 77.4911 193.797 77.9259V80.8363C193.797 81.271 194.149 81.6235 194.584 81.6235H194.78C195.215 81.6235 195.567 81.271 195.567 80.8363V77.9259C195.567 77.4911 195.215 77.1387 194.78 77.1387Z" fill="#F1F1F1"/>
<path d="M191.776 77.1387H191.58C191.145 77.1387 190.793 77.4911 190.793 77.9259V80.8363C190.793 81.271 191.145 81.6235 191.58 81.6235H191.776C192.211 81.6235 192.563 81.271 192.563 80.8363V77.9259C192.563 77.4911 192.211 77.1387 191.776 77.1387Z" fill="#F1F1F1"/>
<path d="M188.774 77.1387H188.578C188.143 77.1387 187.791 77.4911 187.791 77.9259V80.8363C187.791 81.271 188.143 81.6235 188.578 81.6235H188.774C189.209 81.6235 189.561 81.271 189.561 80.8363V77.9259C189.561 77.4911 189.209 77.1387 188.774 77.1387Z" fill="#F1F1F1"/>
<path d="M185.77 77.1387H185.574C185.14 77.1387 184.787 77.4911 184.787 77.9259V80.8363C184.787 81.271 185.14 81.6235 185.574 81.6235H185.77C186.205 81.6235 186.557 81.271 186.557 80.8363V77.9259C186.557 77.4911 186.205 77.1387 185.77 77.1387Z" fill="#F1F1F1"/>
<path d="M182.768 77.1387H182.572C182.138 77.1387 181.785 77.4911 181.785 77.9259V80.8363C181.785 81.271 182.138 81.6235 182.572 81.6235H182.768C183.203 81.6235 183.555 81.271 183.555 80.8363V77.9259C183.555 77.4911 183.203 77.1387 182.768 77.1387Z" fill="#F1F1F1"/>
<path d="M179.764 77.1387H179.568C179.134 77.1387 178.781 77.4911 178.781 77.9259V80.8363C178.781 81.271 179.134 81.6235 179.568 81.6235H179.764C180.199 81.6235 180.552 81.271 180.552 80.8363V77.9259C180.552 77.4911 180.199 77.1387 179.764 77.1387Z" fill="#F1F1F1"/>
<path d="M176.762 77.1387H176.566C176.132 77.1387 175.779 77.4911 175.779 77.9259V80.8363C175.779 81.271 176.132 81.6235 176.566 81.6235H176.762C177.197 81.6235 177.55 81.271 177.55 80.8363V77.9259C177.55 77.4911 177.197 77.1387 176.762 77.1387Z" fill="#F1F1F1"/>
<path d="M173.759 77.1387H173.563C173.128 77.1387 172.775 77.4911 172.775 77.9259V80.8363C172.775 81.271 173.128 81.6235 173.563 81.6235H173.759C174.193 81.6235 174.546 81.271 174.546 80.8363V77.9259C174.546 77.4911 174.193 77.1387 173.759 77.1387Z" fill="#F1F1F1"/>
<path d="M170.757 77.1387H170.561C170.126 77.1387 169.773 77.4911 169.773 77.9259V80.8363C169.773 81.271 170.126 81.6235 170.561 81.6235H170.757C171.191 81.6235 171.544 81.271 171.544 80.8363V77.9259C171.544 77.4911 171.191 77.1387 170.757 77.1387Z" fill="#F1F1F1"/>
<path d="M165.76 76.6074H163.754V82.1544H165.76V76.6074Z" fill="#EAEAEA"/>
<path d="M166.703 77.7288C166.866 77.7288 166.998 77.5967 166.998 77.4337C166.998 77.2708 166.866 77.1387 166.703 77.1387C166.54 77.1387 166.408 77.2708 166.408 77.4337C166.408 77.5967 166.54 77.7288 166.703 77.7288Z" fill="#3B7858"/>
<path d="M166.703 79.0764C166.866 79.0764 166.998 78.9443 166.998 78.7814C166.998 78.6184 166.866 78.4863 166.703 78.4863C166.54 78.4863 166.408 78.6184 166.408 78.7814C166.408 78.9443 166.54 79.0764 166.703 79.0764Z" fill="#EF5350"/>
<path d="M166.703 80.4221C166.866 80.4221 166.998 80.29 166.998 80.1271C166.998 79.9641 166.866 79.832 166.703 79.832C166.54 79.832 166.408 79.9641 166.408 80.1271C166.408 80.29 166.54 80.4221 166.703 80.4221Z" fill="#FFA726"/>
<path d="M163.754 84.9668H199.986C200.331 84.9668 200.661 85.1036 200.904 85.347C201.148 85.5905 201.285 85.9207 201.285 86.265V89.2156C201.285 89.5599 201.148 89.8901 200.904 90.1336C200.661 90.377 200.331 90.5138 199.986 90.5138H163.754V84.9668Z" fill="white"/>
<path d="M197.782 85.498H197.586C197.151 85.498 196.799 85.8505 196.799 86.2853V89.1957C196.799 89.6304 197.151 89.9829 197.586 89.9829H197.782C198.217 89.9829 198.569 89.6304 198.569 89.1957V86.2853C198.569 85.8505 198.217 85.498 197.782 85.498Z" fill="#F1F1F1"/>
<path d="M194.78 85.498H194.584C194.149 85.498 193.797 85.8505 193.797 86.2853V89.1957C193.797 89.6304 194.149 89.9829 194.584 89.9829H194.78C195.215 89.9829 195.567 89.6304 195.567 89.1957V86.2853C195.567 85.8505 195.215 85.498 194.78 85.498Z" fill="#F1F1F1"/>
<path d="M191.776 85.498H191.58C191.145 85.498 190.793 85.8505 190.793 86.2853V89.1957C190.793 89.6304 191.145 89.9829 191.58 89.9829H191.776C192.211 89.9829 192.563 89.6304 192.563 89.1957V86.2853C192.563 85.8505 192.211 85.498 191.776 85.498Z" fill="#F1F1F1"/>
<path d="M188.774 85.498H188.578C188.143 85.498 187.791 85.8505 187.791 86.2853V89.1957C187.791 89.6304 188.143 89.9829 188.578 89.9829H188.774C189.209 89.9829 189.561 89.6304 189.561 89.1957V86.2853C189.561 85.8505 189.209 85.498 188.774 85.498Z" fill="#F1F1F1"/>
<path d="M185.77 85.498H185.574C185.14 85.498 184.787 85.8505 184.787 86.2853V89.1957C184.787 89.6304 185.14 89.9829 185.574 89.9829H185.77C186.205 89.9829 186.557 89.6304 186.557 89.1957V86.2853C186.557 85.8505 186.205 85.498 185.77 85.498Z" fill="#F1F1F1"/>
<path d="M182.768 85.498H182.572C182.138 85.498 181.785 85.8505 181.785 86.2853V89.1957C181.785 89.6304 182.138 89.9829 182.572 89.9829H182.768C183.203 89.9829 183.555 89.6304 183.555 89.1957V86.2853C183.555 85.8505 183.203 85.498 182.768 85.498Z" fill="#F1F1F1"/>
<path d="M179.764 85.498H179.568C179.134 85.498 178.781 85.8505 178.781 86.2853V89.1957C178.781 89.6304 179.134 89.9829 179.568 89.9829H179.764C180.199 89.9829 180.552 89.6304 180.552 89.1957V86.2853C180.552 85.8505 180.199 85.498 179.764 85.498Z" fill="#F1F1F1"/>
<path d="M176.762 85.498H176.566C176.132 85.498 175.779 85.8505 175.779 86.2853V89.1957C175.779 89.6304 176.132 89.9829 176.566 89.9829H176.762C177.197 89.9829 177.55 89.6304 177.55 89.1957V86.2853C177.55 85.8505 177.197 85.498 176.762 85.498Z" fill="#F1F1F1"/>
<path d="M173.759 85.498H173.563C173.128 85.498 172.775 85.8505 172.775 86.2853V89.1957C172.775 89.6304 173.128 89.9829 173.563 89.9829H173.759C174.193 89.9829 174.546 89.6304 174.546 89.1957V86.2853C174.546 85.8505 174.193 85.498 173.759 85.498Z" fill="#F1F1F1"/>
<path d="M170.757 85.498H170.561C170.126 85.498 169.773 85.8505 169.773 86.2853V89.1957C169.773 89.6304 170.126 89.9829 170.561 89.9829H170.757C171.191 89.9829 171.544 89.6304 171.544 89.1957V86.2853C171.544 85.8505 171.191 85.498 170.757 85.498Z" fill="#F1F1F1"/>
<path d="M165.76 84.9668H163.754V90.5138H165.76V84.9668Z" fill="#EAEAEA"/>
<path d="M166.703 86.0882C166.866 86.0882 166.998 85.9561 166.998 85.7931C166.998 85.6301 166.866 85.498 166.703 85.498C166.54 85.498 166.408 85.6301 166.408 85.7931C166.408 85.9561 166.54 86.0882 166.703 86.0882Z" fill="#3B7858"/>
<path d="M166.703 87.4358C166.866 87.4358 166.998 87.3037 166.998 87.1408C166.998 86.9778 166.866 86.8457 166.703 86.8457C166.54 86.8457 166.408 86.9778 166.408 87.1408C166.408 87.3037 166.54 87.4358 166.703 87.4358Z" fill="#EF5350"/>
<path d="M166.703 88.7815C166.866 88.7815 166.998 88.6494 166.998 88.4865C166.998 88.3235 166.866 88.1914 166.703 88.1914C166.54 88.1914 166.408 88.3235 166.408 88.4865C166.408 88.6494 166.54 88.7815 166.703 88.7815Z" fill="#FFA726"/>
<path d="M163.754 93.3281H199.986C200.331 93.3281 200.661 93.4649 200.904 93.7084C201.148 93.9518 201.285 94.282 201.285 94.6264V97.5769C201.285 97.9212 201.148 98.2514 200.904 98.4949C200.661 98.7383 200.331 98.8751 199.986 98.8751H163.754V93.3281Z" fill="white"/>
<path d="M197.782 93.8574H197.586C197.151 93.8574 196.799 94.2099 196.799 94.6446V97.555C196.799 97.9898 197.151 98.3422 197.586 98.3422H197.782C198.217 98.3422 198.569 97.9898 198.569 97.555V94.6446C198.569 94.2099 198.217 93.8574 197.782 93.8574Z" fill="#F1F1F1"/>
<path d="M194.78 93.8574H194.584C194.149 93.8574 193.797 94.2099 193.797 94.6446V97.555C193.797 97.9898 194.149 98.3422 194.584 98.3422H194.78C195.215 98.3422 195.567 97.9898 195.567 97.555V94.6446C195.567 94.2099 195.215 93.8574 194.78 93.8574Z" fill="#F1F1F1"/>
<path d="M191.776 93.8574H191.58C191.145 93.8574 190.793 94.2099 190.793 94.6446V97.555C190.793 97.9898 191.145 98.3422 191.58 98.3422H191.776C192.211 98.3422 192.563 97.9898 192.563 97.555V94.6446C192.563 94.2099 192.211 93.8574 191.776 93.8574Z" fill="#F1F1F1"/>
<path d="M188.774 93.8574H188.578C188.143 93.8574 187.791 94.2099 187.791 94.6446V97.555C187.791 97.9898 188.143 98.3422 188.578 98.3422H188.774C189.209 98.3422 189.561 97.9898 189.561 97.555V94.6446C189.561 94.2099 189.209 93.8574 188.774 93.8574Z" fill="#F1F1F1"/>
<path d="M185.77 93.8574H185.574C185.14 93.8574 184.787 94.2099 184.787 94.6446V97.555C184.787 97.9898 185.14 98.3422 185.574 98.3422H185.77C186.205 98.3422 186.557 97.9898 186.557 97.555V94.6446C186.557 94.2099 186.205 93.8574 185.77 93.8574Z" fill="#F1F1F1"/>
<path d="M182.768 93.8574H182.572C182.138 93.8574 181.785 94.2099 181.785 94.6446V97.555C181.785 97.9898 182.138 98.3422 182.572 98.3422H182.768C183.203 98.3422 183.555 97.9898 183.555 97.555V94.6446C183.555 94.2099 183.203 93.8574 182.768 93.8574Z" fill="#F1F1F1"/>
<path d="M179.764 93.8574H179.568C179.134 93.8574 178.781 94.2099 178.781 94.6446V97.555C178.781 97.9898 179.134 98.3422 179.568 98.3422H179.764C180.199 98.3422 180.552 97.9898 180.552 97.555V94.6446C180.552 94.2099 180.199 93.8574 179.764 93.8574Z" fill="#F1F1F1"/>
<path d="M176.762 93.8574H176.566C176.132 93.8574 175.779 94.2099 175.779 94.6446V97.555C175.779 97.9898 176.132 98.3422 176.566 98.3422H176.762C177.197 98.3422 177.55 97.9898 177.55 97.555V94.6446C177.55 94.2099 177.197 93.8574 176.762 93.8574Z" fill="#F1F1F1"/>
<path d="M173.759 93.8574H173.563C173.128 93.8574 172.775 94.2099 172.775 94.6446V97.555C172.775 97.9898 173.128 98.3422 173.563 98.3422H173.759C174.193 98.3422 174.546 97.9898 174.546 97.555V94.6446C174.546 94.2099 174.193 93.8574 173.759 93.8574Z" fill="#F1F1F1"/>
<path d="M170.757 93.8574H170.561C170.126 93.8574 169.773 94.2099 169.773 94.6446V97.555C169.773 97.9898 170.126 98.3422 170.561 98.3422H170.757C171.191 98.3422 171.544 97.9898 171.544 97.555V94.6446C171.544 94.2099 171.191 93.8574 170.757 93.8574Z" fill="#F1F1F1"/>
<path d="M165.76 93.3262H163.754V98.8732H165.76V93.3262Z" fill="#EAEAEA"/>
<path d="M166.703 94.4475C166.866 94.4475 166.998 94.3154 166.998 94.1525C166.998 93.9895 166.866 93.8574 166.703 93.8574C166.54 93.8574 166.408 93.9895 166.408 94.1525C166.408 94.3154 166.54 94.4475 166.703 94.4475Z" fill="#3B7858"/>
<path d="M166.703 95.7952C166.866 95.7952 166.998 95.6631 166.998 95.5001C166.998 95.3372 166.866 95.2051 166.703 95.2051C166.54 95.2051 166.408 95.3372 166.408 95.5001C166.408 95.6631 166.54 95.7952 166.703 95.7952Z" fill="#EF5350"/>
<path d="M166.703 97.1409C166.866 97.1409 166.998 97.0088 166.998 96.8458C166.998 96.6829 166.866 96.5508 166.703 96.5508C166.54 96.5508 166.408 96.6829 166.408 96.8458C166.408 97.0088 166.54 97.1409 166.703 97.1409Z" fill="#FFA726"/>
</g>
<path d="M252.352 103.705C252.352 104.148 252.557 106.748 252.196 107.193C251.537 108.003 246.026 107.785 245.762 107.534C245.497 107.282 245.327 106.748 245.554 106.586C245.781 106.424 247.957 105.924 248.254 105.708C248.551 105.492 248.926 104.394 248.756 103.818" fill="#1F161E"/>
<path d="M234.255 103.705C234.255 104.148 234.463 106.748 234.099 107.193C233.44 108.003 227.932 107.785 227.668 107.534C227.403 107.282 227.23 106.748 227.46 106.586C227.689 106.424 229.86 105.924 230.16 105.708C230.459 105.492 230.832 104.394 230.659 103.818" fill="#1F161E"/>
<path d="M228.396 56.5312C228.629 57.003 228.747 57.5228 228.742 58.0486C228.742 59.4607 227.954 60.6054 226.984 60.6054C226.015 60.6054 225.227 59.4607 225.227 58.0486C225.222 57.5228 225.34 57.003 225.572 56.5312H228.396Z" fill="#EED0C3"/>
<path d="M229.94 103.743C229.4 103.114 227.861 56.5265 227.861 56.5265L233.59 56.4023C233.59 56.4023 238.18 69.1217 238.18 69.6671C238.18 70.2125 235.828 81.0068 234.94 83.8525C234.883 85.3995 235.169 103.454 234.71 103.883C234.251 104.313 230.477 104.385 229.94 103.743Z" fill="#1F161E"/>
<path d="M232.342 57.0986C232.342 59.7688 240.982 79.1461 242.634 81.5545C243.639 84.762 247.651 103.216 248.234 103.653C248.817 104.091 252.538 104.528 252.975 103.653C253.413 102.779 247.462 60.3466 246.382 54.9764C245.302 49.6063 232.342 51.7851 232.342 57.0986Z" fill="#51698F"/>
<path d="M245.032 26.6276C243.278 24.6027 227.939 23.331 226.133 24.7377C222.488 27.5726 225.053 56.3268 225.323 57.4068C225.593 57.9467 227.483 56.8668 227.483 56.8668C227.753 57.1368 241.253 57.6768 246.382 54.9768C246.382 53.6269 245.572 47.957 245.572 47.957C246.652 47.957 249.622 47.147 250.162 46.3371C250.702 45.5271 247.098 29.0062 245.032 26.6276Z" fill="#999CBF"/>
<path d="M245.723 48.2266C244.548 48.4345 235.49 49.1067 232.347 48.8556" stroke="#1F161E" stroke-width="0.148496" stroke-miterlimit="10" stroke-linecap="round"/>
<path d="M231.87 45.878C240.442 44.0286 244.522 45.0249 241.792 36.8711" stroke="#1F161E" stroke-width="0.148496" stroke-miterlimit="10" stroke-linecap="round"/>
<path d="M227.036 35.6465C227.082 36.416 227.625 56.8922 227.625 56.8922" stroke="#1F161E" stroke-width="0.148496" stroke-miterlimit="10" stroke-linecap="round"/>
<path d="M231.731 25.1583C231.731 25.863 235.602 25.9035 235.6 25.1583V20.4551H231.731V25.1583Z" fill="#EED0C3"/>
<path d="M235.582 23.2546C235.582 22.8361 234.31 21.0461 233.573 21.2917C234.483 20.9678 235.239 20.2118 235.574 20.444L235.582 23.2546Z" fill="#1F161E"/>
<path d="M231.843 22.3128C229.068 22.3128 226.818 20.0632 226.818 17.2882C226.818 14.5132 229.068 12.2637 231.843 12.2637C234.618 12.2637 236.867 14.5132 236.867 17.2882C236.867 20.0632 234.618 22.3128 231.843 22.3128Z" fill="#EED0C3"/>
<path d="M226.37 18.9709C226.345 18.7306 226.699 18.497 227.16 18.4491C227.622 18.4012 228.016 18.5571 228.041 18.7974C228.066 19.0376 227.712 19.2713 227.251 19.3192C226.789 19.3671 226.395 19.2111 226.37 18.9709Z" fill="#EF9A9A"/>
<path d="M231.615 18.422C231.59 18.1818 231.943 17.9482 232.405 17.9002C232.866 17.8523 233.26 18.0083 233.285 18.2485C233.31 18.4888 232.956 18.7224 232.495 18.7703C232.034 18.8183 231.639 18.6623 231.615 18.422Z" fill="#EF9A9A"/>
<path d="M229.149 17.7715C229.016 18.0091 228.312 19.0269 229.197 19.3185" stroke="#1F161E" stroke-width="0.186295" stroke-miterlimit="10" stroke-linecap="round"/>
<path d="M230.993 20.2324C231.242 20.2 231.598 19.8544 231.773 19.5547" stroke="#1F161E" stroke-width="0.186295" stroke-miterlimit="10" stroke-linecap="round"/>
<path d="M235.905 17.7706C235.293 17.7706 234.798 17.275 234.798 16.6636C234.798 16.0522 235.293 15.5566 235.905 15.5566C236.516 15.5566 237.012 16.0522 237.012 16.6636C237.012 17.275 236.516 17.7706 235.905 17.7706Z" fill="#EED0C3"/>
<path d="M235.155 17.6387C235.155 19.1129 236.775 20.0687 237.331 20.0687C237.418 20.0791 237.505 20.0709 237.588 20.0446C237.671 20.0183 237.747 19.9744 237.812 19.9161C237.876 19.8577 237.928 19.7862 237.962 19.7063C237.996 19.6264 238.013 19.5401 238.012 19.4531C238.012 18.8348 237.65 18.3083 236.886 17.6387C237.026 17.4092 238.012 16.1997 238.012 14.4771C238.012 12.6709 236.902 11.1562 236.159 11.1562C235.842 11.1773 235.541 11.303 235.302 11.5135C235.064 11.724 234.902 12.0076 234.842 12.3199C234.842 9.79545 232.142 8 230.522 8C229.024 8 228.764 8.65338 228.764 9.18257C228.764 10.3462 229.682 11.5909 230.025 11.896C229.186 11.2777 227.865 10.654 226.742 10.654C226.027 10.654 225.122 10.8565 225.122 11.8366C225.122 13.6374 226.81 14.6796 227.374 14.9712C227.589 14.5517 227.861 14.1646 228.184 13.821C228.079 14.1612 228.494 14.7795 229.291 14.9172C229.75 14.9928 235.155 14.2638 235.155 17.6387Z" fill="#1F161E"/>
<path d="M224.801 50.8417H227.82C227.82 50.8417 228.74 42.2667 228.74 41.5944C228.74 40.9222 223.942 41.0059 223.942 41.5944C223.942 42.183 224.801 50.8417 224.801 50.8417Z" fill="#1F161E"/>
<path d="M226.921 44.5059C226.492 44.5059 224.038 45.0863 224.038 46.3499C224.038 47.9024 225.963 48.4315 226.341 48.4315C228.374 48.4315 228.946 48.0833 232.191 48.0833C232.191 47.7026 232.121 45.9584 231.67 45.7883C231.12 45.7964 229.556 44.5059 226.921 44.5059Z" fill="#EED0C3"/>
<g clip-path="url(#clip1_7013_221933)">
<path d="M132.529 103.758C132.51 104.042 132.323 105.705 132.56 105.999C132.993 106.531 136.781 106.504 136.968 106.351C137.155 106.197 137.282 105.855 137.13 105.748C136.978 105.64 135.496 105.271 135.303 105.129C135.11 104.987 134.871 104.271 135.001 103.9" fill="#1F161E"/>
<path d="M151.299 57.8105C151.944 59.178 157.363 74.0761 157.238 76.2483C157.113 78.4205 144.573 100.803 143.88 101.039C143.188 101.276 140.311 100.45 140.079 99.8621C139.846 99.2744 144.448 85.9166 144.573 82.496" fill="#1F161E"/>
<path d="M151.299 57.8105C150.974 59.4219 145.582 81.6432 145.582 81.6432L135.695 104.02C134.873 104.395 132.454 104.435 132.031 104.316C131.608 104.197 133.64 82.7687 134.444 79.7322C135.247 76.6957 137.362 55.6152 137.362 55.6152C137.362 55.6152 148.438 55.7862 151.299 57.8105Z" fill="#EF5350"/>
<path d="M148.629 34.0352C150.26 34.7477 160.665 39.5319 161.559 39.5319C162.453 39.5319 171.963 34.5095 172.522 34.1715C173.055 34.669 173.866 35.4526 173.669 35.708C173.472 35.9634 162.566 45.4877 161.641 45.4877C160.716 45.4877 151.349 42.8238 150.622 42.0921" fill="#303030"/>
<path d="M145.098 32.9961C154.448 31.5634 152.22 56.8519 151.3 57.8103C150.379 58.7687 137.767 56.4659 136.947 55.5593C136.127 54.6528 138.536 33.2362 145.098 32.9961Z" fill="#99ABC5"/>
<path d="M140.627 100.021C140.516 100.285 139.793 101.815 139.926 102.163C140.167 102.793 143.78 103.845 144.008 103.751C144.236 103.657 144.47 103.367 144.361 103.223C144.252 103.079 142.96 102.307 142.82 102.115C142.68 101.923 142.688 101.176 142.935 100.859" fill="#1F161E"/>
<path d="M146.742 34.3145C146.742 34.9176 143.865 34.9637 143.865 34.3145V30.2812H146.742V34.3145Z" fill="#F8CDBA"/>
<path d="M143.864 32.2258C143.864 31.9358 144.922 30.357 145.471 30.526C144.795 30.3013 144.112 30.1169 143.864 30.2725V32.2258Z" fill="black"/>
<path d="M145.77 30.6727C143.705 30.6727 142.032 29.1086 142.032 27.1791C142.032 25.2497 143.705 23.6855 145.77 23.6855C147.834 23.6855 149.508 25.2497 149.508 27.1791C149.508 29.1086 147.834 30.6727 145.77 30.6727Z" fill="#F8CDBA"/>
<path d="M149.549 27.9507C149.204 27.9507 148.924 27.8148 148.924 27.6472C148.924 27.4796 149.204 27.3438 149.549 27.3438C149.894 27.3438 150.174 27.4796 150.174 27.6472C150.174 27.8148 149.894 27.9507 149.549 27.9507Z" fill="#FA9E9F"/>
<path d="M145.627 27.9507C145.282 27.9507 145.003 27.8148 145.003 27.6472C145.003 27.4796 145.282 27.3438 145.627 27.3438C145.972 27.3438 146.252 27.4796 146.252 27.6472C146.252 27.8148 145.972 27.9507 145.627 27.9507Z" fill="#FA9E9F"/>
<path d="M148.027 27.0176C148.144 27.1731 148.744 27.8261 148.111 28.0912" stroke="#1F161E" stroke-width="0.177427" stroke-miterlimit="10" stroke-linecap="round"/>
<path d="M146.844 28.8543C146.592 28.7906 146.373 28.644 146.227 28.4414" stroke="#1F161E" stroke-width="0.177427" stroke-miterlimit="10" stroke-linecap="round"/>
<path d="M143.488 28.1145C143.033 28.1145 142.664 27.7697 142.664 27.3444C142.664 26.919 143.033 26.5742 143.488 26.5742C143.944 26.5742 144.312 26.919 144.312 27.3444C144.312 27.7697 143.944 28.1145 143.488 28.1145Z" fill="#F8CDBA"/>
<path d="M137.119 56.5579C132.974 56.4523 129.996 53.7404 129.996 46.7629C129.996 43.882 135.121 35.2086 136.139 31.932C136.665 30.24 136.241 25.2618 138.927 22.7285C140.222 21.5089 145.914 21.797 147.384 22.3713C148.853 22.9455 148.681 24.676 148.53 24.9468C148.179 24.6702 147.408 24.1094 147.271 24.1267C146.549 24.2093 144.581 26.2797 143.983 27.2304C143.498 27.9986 144.246 32.7694 143.298 34.133C142.351 35.4967 138.997 34.7803 138.997 34.7803" fill="#1F161E"/>
<path d="M145.064 43.1564C144.491 43.8267 140.258 50.9656 140.258 52.0392C140.258 53.1128 141.513 60.7222 141.764 61.091C141.191 61.4924 139.684 62.5987 139.684 62.5987C139.684 62.5987 135.094 55.0219 135.094 50.7659C135.094 49.2563 138.751 36.9875 142.268 34.1719" fill="#99ABC5"/>
<path d="M145.064 43.1562C144.491 43.8265 140.258 50.9654 140.258 52.039C140.258 52.571 140.568 54.7106 140.909 56.7771" stroke="#1F161E" stroke-width="0.257141" stroke-linecap="round" stroke-linejoin="round"/>
<path d="M143.677 32.9852C143.851 34.4026 139.427 39.3481 137.703 40.7963C135.981 38.7681 137.014 33.7438 137.014 33.7438L140.528 32.2266L143.677 32.9852Z" fill="#1F161E"/>
<path d="M139.685 22.5064C138.683 22.5064 137.871 21.6104 137.871 20.5052C137.871 19.3999 138.683 18.5039 139.685 18.5039C140.688 18.5039 141.5 19.3999 141.5 20.5052C141.5 21.6104 140.688 22.5064 139.685 22.5064Z" fill="#1F161E"/>
<path d="M150.194 36.2363C151.045 37.9822 151.571 40.2696 151.871 42.6934" stroke="#1F161E" stroke-width="0.257141" stroke-linecap="round" stroke-linejoin="round"/>
<path d="M174.277 35.634C173.311 35.634 172.528 35.0304 172.528 34.2858C172.528 33.5411 173.311 32.9375 174.277 32.9375C175.242 32.9375 176.025 33.5411 176.025 34.2858C176.025 35.0304 175.242 35.634 174.277 35.634Z" fill="#F8CDBA"/>
<path d="M173.282 30.2734L175.393 36.5115" stroke="black" stroke-width="0.771424" stroke-miterlimit="10" stroke-linecap="round"/>
</g>
<defs>
<clipPath id="clip0_7013_221933">
<rect width="72.465" height="74.7075" fill="white" transform="translate(163.752 33.6094)"/>
</clipPath>
<clipPath id="clip1_7013_221933">
<rect width="46.0283" height="87.9423" fill="white" transform="matrix(-1 0 0 1 176.027 18.5039)"/>
</clipPath>
</defs>
</svg>
