<svg width="440" height="160" viewBox="0 0 440 160" fill="none" xmlns="http://www.w3.org/2000/svg">
<rect width="440" height="160" fill="#EAEAEA"/>
<g clip-path="url(#clip0_7013_221870)">
<path d="M298.524 45.2305H237.752V150.914H298.524V45.2305Z" fill="#F1F1F1"/>
<path d="M340.263 45.2305H298.523V150.914H340.263V45.2305Z" fill="#EAEAEA"/>
<path d="M294.099 48.5703H242.176V52.9112H294.099V48.5703Z" fill="#EAEAEA"/>
<path d="M237.752 58.7539H289.008C289.495 58.7539 289.962 58.9474 290.306 59.2918C290.651 59.6362 290.844 60.1034 290.844 60.5904V64.7644C290.844 65.2514 290.651 65.7186 290.306 66.063C289.962 66.4074 289.495 66.6009 289.008 66.6009H237.752V58.7539Z" fill="white"/>
<path d="M285.891 59.5059H285.614C284.999 59.5059 284.5 60.0044 284.5 60.6195V64.7366C284.5 65.3516 284.999 65.8502 285.614 65.8502H285.891C286.506 65.8502 287.004 65.3516 287.004 64.7366V60.6195C287.004 60.0044 286.506 59.5059 285.891 59.5059Z" fill="#F1F1F1"/>
<path d="M281.643 59.5059H281.366C280.751 59.5059 280.252 60.0044 280.252 60.6195V64.7366C280.252 65.3516 280.751 65.8502 281.366 65.8502H281.643C282.258 65.8502 282.756 65.3516 282.756 64.7366V60.6195C282.756 60.0044 282.258 59.5059 281.643 59.5059Z" fill="#F1F1F1"/>
<path d="M277.395 59.5059H277.118C276.502 59.5059 276.004 60.0044 276.004 60.6195V64.7366C276.004 65.3516 276.502 65.8502 277.118 65.8502H277.395C278.01 65.8502 278.508 65.3516 278.508 64.7366V60.6195C278.508 60.0044 278.01 59.5059 277.395 59.5059Z" fill="#F1F1F1"/>
<path d="M273.147 59.5059H272.869C272.254 59.5059 271.756 60.0044 271.756 60.6195V64.7366C271.756 65.3516 272.254 65.8502 272.869 65.8502H273.147C273.762 65.8502 274.26 65.3516 274.26 64.7366V60.6195C274.26 60.0044 273.762 59.5059 273.147 59.5059Z" fill="#F1F1F1"/>
<path d="M268.899 59.5059H268.621C268.006 59.5059 267.508 60.0044 267.508 60.6195V64.7366C267.508 65.3516 268.006 65.8502 268.621 65.8502H268.899C269.514 65.8502 270.012 65.3516 270.012 64.7366V60.6195C270.012 60.0044 269.514 59.5059 268.899 59.5059Z" fill="#F1F1F1"/>
<path d="M264.651 59.5059H264.373C263.758 59.5059 263.26 60.0044 263.26 60.6195V64.7366C263.26 65.3516 263.758 65.8502 264.373 65.8502H264.651C265.266 65.8502 265.764 65.3516 265.764 64.7366V60.6195C265.764 60.0044 265.266 59.5059 264.651 59.5059Z" fill="#F1F1F1"/>
<path d="M260.401 59.5059H260.123C259.508 59.5059 259.01 60.0044 259.01 60.6195V64.7366C259.01 65.3516 259.508 65.8502 260.123 65.8502H260.401C261.016 65.8502 261.514 65.3516 261.514 64.7366V60.6195C261.514 60.0044 261.016 59.5059 260.401 59.5059Z" fill="#F1F1F1"/>
<path d="M256.154 59.5059H255.877C255.262 59.5059 254.764 60.0044 254.764 60.6195V64.7366C254.764 65.3516 255.262 65.8502 255.877 65.8502H256.154C256.769 65.8502 257.268 65.3516 257.268 64.7366V60.6195C257.268 60.0044 256.769 59.5059 256.154 59.5059Z" fill="#F1F1F1"/>
<path d="M251.904 59.5059H251.627C251.012 59.5059 250.514 60.0044 250.514 60.6195V64.7366C250.514 65.3516 251.012 65.8502 251.627 65.8502H251.904C252.519 65.8502 253.018 65.3516 253.018 64.7366V60.6195C253.018 60.0044 252.519 59.5059 251.904 59.5059Z" fill="#F1F1F1"/>
<path d="M247.658 59.5059H247.381C246.766 59.5059 246.268 60.0044 246.268 60.6195V64.7366C246.268 65.3516 246.766 65.8502 247.381 65.8502H247.658C248.273 65.8502 248.772 65.3516 248.772 64.7366V60.6195C248.772 60.0044 248.273 59.5059 247.658 59.5059Z" fill="#F1F1F1"/>
<path d="M240.59 58.7539H237.752V66.6009H240.59V58.7539Z" fill="#EAEAEA"/>
<path d="M241.925 60.3406C242.156 60.3406 242.343 60.1538 242.343 59.9233C242.343 59.6927 242.156 59.5059 241.925 59.5059C241.695 59.5059 241.508 59.6927 241.508 59.9233C241.508 60.1538 241.695 60.3406 241.925 60.3406Z" fill="#3B7858"/>
<path d="M241.925 62.2449C242.156 62.2449 242.343 62.0581 242.343 61.8275C242.343 61.597 242.156 61.4102 241.925 61.4102C241.695 61.4102 241.508 61.597 241.508 61.8275C241.508 62.0581 241.695 62.2449 241.925 62.2449Z" fill="#EF5350"/>
<path d="M241.925 64.1512C242.156 64.1512 242.343 63.9643 242.343 63.7338C242.343 63.5033 242.156 63.3164 241.925 63.3164C241.695 63.3164 241.508 63.5033 241.508 63.7338C241.508 63.9643 241.695 64.1512 241.925 64.1512Z" fill="#FFA726"/>
<path d="M237.752 70.5801H289.008C289.495 70.5801 289.962 70.7736 290.306 71.118C290.651 71.4624 290.844 71.9295 290.844 72.4166V76.5905C290.844 77.0776 290.651 77.5447 290.306 77.8891C289.962 78.2336 289.495 78.4271 289.008 78.4271H237.752V70.5801Z" fill="white"/>
<path d="M285.891 71.3301H285.614C284.999 71.3301 284.5 71.8287 284.5 72.4437V76.5608C284.5 77.1759 284.999 77.6744 285.614 77.6744H285.891C286.506 77.6744 287.004 77.1759 287.004 76.5608V72.4437C287.004 71.8287 286.506 71.3301 285.891 71.3301Z" fill="#F1F1F1"/>
<path d="M281.643 71.3301H281.366C280.751 71.3301 280.252 71.8287 280.252 72.4437V76.5608C280.252 77.1759 280.751 77.6744 281.366 77.6744H281.643C282.258 77.6744 282.756 77.1759 282.756 76.5608V72.4437C282.756 71.8287 282.258 71.3301 281.643 71.3301Z" fill="#F1F1F1"/>
<path d="M277.395 71.3301H277.118C276.502 71.3301 276.004 71.8287 276.004 72.4437V76.5608C276.004 77.1759 276.502 77.6744 277.118 77.6744H277.395C278.01 77.6744 278.508 77.1759 278.508 76.5608V72.4437C278.508 71.8287 278.01 71.3301 277.395 71.3301Z" fill="#F1F1F1"/>
<path d="M273.147 71.3301H272.869C272.254 71.3301 271.756 71.8287 271.756 72.4437V76.5608C271.756 77.1759 272.254 77.6744 272.869 77.6744H273.147C273.762 77.6744 274.26 77.1759 274.26 76.5608V72.4437C274.26 71.8287 273.762 71.3301 273.147 71.3301Z" fill="#F1F1F1"/>
<path d="M268.899 71.3301H268.621C268.006 71.3301 267.508 71.8287 267.508 72.4437V76.5608C267.508 77.1759 268.006 77.6744 268.621 77.6744H268.899C269.514 77.6744 270.012 77.1759 270.012 76.5608V72.4437C270.012 71.8287 269.514 71.3301 268.899 71.3301Z" fill="#F1F1F1"/>
<path d="M264.651 71.3301H264.373C263.758 71.3301 263.26 71.8287 263.26 72.4437V76.5608C263.26 77.1759 263.758 77.6744 264.373 77.6744H264.651C265.266 77.6744 265.764 77.1759 265.764 76.5608V72.4437C265.764 71.8287 265.266 71.3301 264.651 71.3301Z" fill="#F1F1F1"/>
<path d="M260.401 71.3301H260.123C259.508 71.3301 259.01 71.8287 259.01 72.4437V76.5608C259.01 77.1759 259.508 77.6744 260.123 77.6744H260.401C261.016 77.6744 261.514 77.1759 261.514 76.5608V72.4437C261.514 71.8287 261.016 71.3301 260.401 71.3301Z" fill="#F1F1F1"/>
<path d="M256.154 71.3301H255.877C255.262 71.3301 254.764 71.8287 254.764 72.4437V76.5608C254.764 77.1759 255.262 77.6744 255.877 77.6744H256.154C256.769 77.6744 257.268 77.1759 257.268 76.5608V72.4437C257.268 71.8287 256.769 71.3301 256.154 71.3301Z" fill="#F1F1F1"/>
<path d="M251.904 71.3301H251.627C251.012 71.3301 250.514 71.8287 250.514 72.4437V76.5608C250.514 77.1759 251.012 77.6744 251.627 77.6744H251.904C252.519 77.6744 253.018 77.1759 253.018 76.5608V72.4437C253.018 71.8287 252.519 71.3301 251.904 71.3301Z" fill="#F1F1F1"/>
<path d="M247.658 71.3301H247.381C246.766 71.3301 246.268 71.8287 246.268 72.4437V76.5608C246.268 77.1759 246.766 77.6744 247.381 77.6744H247.658C248.273 77.6744 248.772 77.1759 248.772 76.5608V72.4437C248.772 71.8287 248.273 71.3301 247.658 71.3301Z" fill="#F1F1F1"/>
<path d="M240.59 70.5801H237.752V78.4271H240.59V70.5801Z" fill="#EAEAEA"/>
<path d="M241.925 72.1649C242.156 72.1649 242.343 71.978 242.343 71.7475C242.343 71.517 242.156 71.3301 241.925 71.3301C241.695 71.3301 241.508 71.517 241.508 71.7475C241.508 71.978 241.695 72.1649 241.925 72.1649Z" fill="#3B7858"/>
<path d="M241.925 74.0711C242.156 74.0711 242.343 73.8842 242.343 73.6537C242.343 73.4232 242.156 73.2363 241.925 73.2363C241.695 73.2363 241.508 73.4232 241.508 73.6537C241.508 73.8842 241.695 74.0711 241.925 74.0711Z" fill="#EF5350"/>
<path d="M241.925 75.9774C242.156 75.9774 242.343 75.7905 242.343 75.56C242.343 75.3295 242.156 75.1426 241.925 75.1426C241.695 75.1426 241.508 75.3295 241.508 75.56C241.508 75.7905 241.695 75.9774 241.925 75.9774Z" fill="#FFA726"/>
<path d="M237.752 82.4043H289.008C289.495 82.4043 289.962 82.5978 290.306 82.9422C290.651 83.2866 290.844 83.7537 290.844 84.2408V88.4147C290.844 88.9018 290.651 89.3689 290.306 89.7134C289.962 90.0578 289.495 90.2513 289.008 90.2513H237.752V82.4043Z" fill="white"/>
<path d="M285.891 83.1562H285.614C284.999 83.1562 284.5 83.6548 284.5 84.2699V88.387C284.5 89.002 284.999 89.5006 285.614 89.5006H285.891C286.506 89.5006 287.004 89.002 287.004 88.387V84.2699C287.004 83.6548 286.506 83.1562 285.891 83.1562Z" fill="#F1F1F1"/>
<path d="M281.643 83.1562H281.366C280.751 83.1562 280.252 83.6548 280.252 84.2699V88.387C280.252 89.002 280.751 89.5006 281.366 89.5006H281.643C282.258 89.5006 282.756 89.002 282.756 88.387V84.2699C282.756 83.6548 282.258 83.1562 281.643 83.1562Z" fill="#F1F1F1"/>
<path d="M277.395 83.1562H277.118C276.502 83.1562 276.004 83.6548 276.004 84.2699V88.387C276.004 89.002 276.502 89.5006 277.118 89.5006H277.395C278.01 89.5006 278.508 89.002 278.508 88.387V84.2699C278.508 83.6548 278.01 83.1562 277.395 83.1562Z" fill="#F1F1F1"/>
<path d="M273.147 83.1562H272.869C272.254 83.1562 271.756 83.6548 271.756 84.2699V88.387C271.756 89.002 272.254 89.5006 272.869 89.5006H273.147C273.762 89.5006 274.26 89.002 274.26 88.387V84.2699C274.26 83.6548 273.762 83.1562 273.147 83.1562Z" fill="#F1F1F1"/>
<path d="M268.899 83.1562H268.621C268.006 83.1562 267.508 83.6548 267.508 84.2699V88.387C267.508 89.002 268.006 89.5006 268.621 89.5006H268.899C269.514 89.5006 270.012 89.002 270.012 88.387V84.2699C270.012 83.6548 269.514 83.1562 268.899 83.1562Z" fill="#F1F1F1"/>
<path d="M264.651 83.1562H264.373C263.758 83.1562 263.26 83.6548 263.26 84.2699V88.387C263.26 89.002 263.758 89.5006 264.373 89.5006H264.651C265.266 89.5006 265.764 89.002 265.764 88.387V84.2699C265.764 83.6548 265.266 83.1562 264.651 83.1562Z" fill="#F1F1F1"/>
<path d="M260.401 83.1562H260.123C259.508 83.1562 259.01 83.6548 259.01 84.2699V88.387C259.01 89.002 259.508 89.5006 260.123 89.5006H260.401C261.016 89.5006 261.514 89.002 261.514 88.387V84.2699C261.514 83.6548 261.016 83.1562 260.401 83.1562Z" fill="#F1F1F1"/>
<path d="M256.154 83.1562H255.877C255.262 83.1562 254.764 83.6548 254.764 84.2699V88.387C254.764 89.002 255.262 89.5006 255.877 89.5006H256.154C256.769 89.5006 257.268 89.002 257.268 88.387V84.2699C257.268 83.6548 256.769 83.1562 256.154 83.1562Z" fill="#F1F1F1"/>
<path d="M251.904 83.1562H251.627C251.012 83.1562 250.514 83.6548 250.514 84.2699V88.387C250.514 89.002 251.012 89.5006 251.627 89.5006H251.904C252.519 89.5006 253.018 89.002 253.018 88.387V84.2699C253.018 83.6548 252.519 83.1562 251.904 83.1562Z" fill="#F1F1F1"/>
<path d="M247.658 83.1562H247.381C246.766 83.1562 246.268 83.6548 246.268 84.2699V88.387C246.268 89.002 246.766 89.5006 247.381 89.5006H247.658C248.273 89.5006 248.772 89.002 248.772 88.387V84.2699C248.772 83.6548 248.273 83.1562 247.658 83.1562Z" fill="#F1F1F1"/>
<path d="M240.59 82.4043H237.752V90.2513H240.59V82.4043Z" fill="#EAEAEA"/>
<path d="M241.925 83.991C242.156 83.991 242.343 83.8042 242.343 83.5736C242.343 83.3431 242.156 83.1562 241.925 83.1562C241.695 83.1562 241.508 83.3431 241.508 83.5736C241.508 83.8042 241.695 83.991 241.925 83.991Z" fill="#3B7858"/>
<path d="M241.925 85.8953C242.156 85.8953 242.343 85.7085 242.343 85.4779C242.343 85.2474 242.156 85.0605 241.925 85.0605C241.695 85.0605 241.508 85.2474 241.508 85.4779C241.508 85.7085 241.695 85.8953 241.925 85.8953Z" fill="#EF5350"/>
<path d="M241.925 87.8035C242.156 87.8035 242.343 87.6167 242.343 87.3861C242.343 87.1556 242.156 86.9688 241.925 86.9688C241.695 86.9688 241.508 87.1556 241.508 87.3861C241.508 87.6167 241.695 87.8035 241.925 87.8035Z" fill="#FFA726"/>
<path d="M237.752 94.2305H289.008C289.495 94.2305 289.962 94.424 290.306 94.7684C290.651 95.1128 290.844 95.5799 290.844 96.067V100.241C290.844 100.728 290.651 101.195 290.306 101.54C289.962 101.884 289.495 102.077 289.008 102.077H237.752V94.2305Z" fill="white"/>
<path d="M285.891 94.9824H285.614C284.999 94.9824 284.5 95.481 284.5 96.096V100.213C284.5 100.828 284.999 101.327 285.614 101.327H285.891C286.506 101.327 287.004 100.828 287.004 100.213V96.096C287.004 95.481 286.506 94.9824 285.891 94.9824Z" fill="#F1F1F1"/>
<path d="M281.643 94.9824H281.366C280.751 94.9824 280.252 95.481 280.252 96.096V100.213C280.252 100.828 280.751 101.327 281.366 101.327H281.643C282.258 101.327 282.756 100.828 282.756 100.213V96.096C282.756 95.481 282.258 94.9824 281.643 94.9824Z" fill="#F1F1F1"/>
<path d="M277.395 94.9824H277.118C276.502 94.9824 276.004 95.481 276.004 96.096V100.213C276.004 100.828 276.502 101.327 277.118 101.327H277.395C278.01 101.327 278.508 100.828 278.508 100.213V96.096C278.508 95.481 278.01 94.9824 277.395 94.9824Z" fill="#F1F1F1"/>
<path d="M273.147 94.9824H272.869C272.254 94.9824 271.756 95.481 271.756 96.096V100.213C271.756 100.828 272.254 101.327 272.869 101.327H273.147C273.762 101.327 274.26 100.828 274.26 100.213V96.096C274.26 95.481 273.762 94.9824 273.147 94.9824Z" fill="#F1F1F1"/>
<path d="M268.899 94.9824H268.621C268.006 94.9824 267.508 95.481 267.508 96.096V100.213C267.508 100.828 268.006 101.327 268.621 101.327H268.899C269.514 101.327 270.012 100.828 270.012 100.213V96.096C270.012 95.481 269.514 94.9824 268.899 94.9824Z" fill="#F1F1F1"/>
<path d="M264.651 94.9824H264.373C263.758 94.9824 263.26 95.481 263.26 96.096V100.213C263.26 100.828 263.758 101.327 264.373 101.327H264.651C265.266 101.327 265.764 100.828 265.764 100.213V96.096C265.764 95.481 265.266 94.9824 264.651 94.9824Z" fill="#F1F1F1"/>
<path d="M260.401 94.9824H260.123C259.508 94.9824 259.01 95.481 259.01 96.096V100.213C259.01 100.828 259.508 101.327 260.123 101.327H260.401C261.016 101.327 261.514 100.828 261.514 100.213V96.096C261.514 95.481 261.016 94.9824 260.401 94.9824Z" fill="#F1F1F1"/>
<path d="M256.154 94.9824H255.877C255.262 94.9824 254.764 95.481 254.764 96.096V100.213C254.764 100.828 255.262 101.327 255.877 101.327H256.154C256.769 101.327 257.268 100.828 257.268 100.213V96.096C257.268 95.481 256.769 94.9824 256.154 94.9824Z" fill="#F1F1F1"/>
<path d="M251.904 94.9824H251.627C251.012 94.9824 250.514 95.481 250.514 96.096V100.213C250.514 100.828 251.012 101.327 251.627 101.327H251.904C252.519 101.327 253.018 100.828 253.018 100.213V96.096C253.018 95.481 252.519 94.9824 251.904 94.9824Z" fill="#F1F1F1"/>
<path d="M247.658 94.9824H247.381C246.766 94.9824 246.268 95.481 246.268 96.096V100.213C246.268 100.828 246.766 101.327 247.381 101.327H247.658C248.273 101.327 248.772 100.828 248.772 100.213V96.096C248.772 95.481 248.273 94.9824 247.658 94.9824Z" fill="#F1F1F1"/>
<path d="M240.59 94.2305H237.752V102.077H240.59V94.2305Z" fill="#EAEAEA"/>
<path d="M241.925 95.8172C242.156 95.8172 242.343 95.6303 242.343 95.3998C242.343 95.1693 242.156 94.9824 241.925 94.9824C241.695 94.9824 241.508 95.1693 241.508 95.3998C241.508 95.6303 241.695 95.8172 241.925 95.8172Z" fill="#3B7858"/>
<path d="M241.925 97.7235C242.156 97.7235 242.343 97.5366 242.343 97.3061C242.343 97.0755 242.156 96.8887 241.925 96.8887C241.695 96.8887 241.508 97.0755 241.508 97.3061C241.508 97.5366 241.695 97.7235 241.925 97.7235Z" fill="#EF5350"/>
<path d="M241.925 99.6278C242.156 99.6278 242.343 99.4409 242.343 99.2104C242.343 98.9798 242.156 98.793 241.925 98.793C241.695 98.793 241.508 98.9798 241.508 99.2104C241.508 99.4409 241.695 99.6278 241.925 99.6278Z" fill="#FFA726"/>
<path d="M237.752 106.057H289.008C289.495 106.057 289.962 106.25 290.306 106.595C290.651 106.939 290.844 107.406 290.844 107.893V112.067C290.844 112.554 290.651 113.021 290.306 113.366C289.962 113.71 289.495 113.904 289.008 113.904H237.752V106.057Z" fill="white"/>
<path d="M285.891 106.807H285.614C284.999 106.807 284.5 107.305 284.5 107.92V112.037C284.5 112.652 284.999 113.151 285.614 113.151H285.891C286.506 113.151 287.004 112.652 287.004 112.037V107.92C287.004 107.305 286.506 106.807 285.891 106.807Z" fill="#F1F1F1"/>
<path d="M281.643 106.807H281.366C280.751 106.807 280.252 107.305 280.252 107.92V112.037C280.252 112.652 280.751 113.151 281.366 113.151H281.643C282.258 113.151 282.756 112.652 282.756 112.037V107.92C282.756 107.305 282.258 106.807 281.643 106.807Z" fill="#F1F1F1"/>
<path d="M277.395 106.807H277.118C276.502 106.807 276.004 107.305 276.004 107.92V112.037C276.004 112.652 276.502 113.151 277.118 113.151H277.395C278.01 113.151 278.508 112.652 278.508 112.037V107.92C278.508 107.305 278.01 106.807 277.395 106.807Z" fill="#F1F1F1"/>
<path d="M273.147 106.807H272.869C272.254 106.807 271.756 107.305 271.756 107.92V112.037C271.756 112.652 272.254 113.151 272.869 113.151H273.147C273.762 113.151 274.26 112.652 274.26 112.037V107.92C274.26 107.305 273.762 106.807 273.147 106.807Z" fill="#F1F1F1"/>
<path d="M268.899 106.807H268.621C268.006 106.807 267.508 107.305 267.508 107.92V112.037C267.508 112.652 268.006 113.151 268.621 113.151H268.899C269.514 113.151 270.012 112.652 270.012 112.037V107.92C270.012 107.305 269.514 106.807 268.899 106.807Z" fill="#F1F1F1"/>
<path d="M264.651 106.807H264.373C263.758 106.807 263.26 107.305 263.26 107.92V112.037C263.26 112.652 263.758 113.151 264.373 113.151H264.651C265.266 113.151 265.764 112.652 265.764 112.037V107.92C265.764 107.305 265.266 106.807 264.651 106.807Z" fill="#F1F1F1"/>
<path d="M260.401 106.807H260.123C259.508 106.807 259.01 107.305 259.01 107.92V112.037C259.01 112.652 259.508 113.151 260.123 113.151H260.401C261.016 113.151 261.514 112.652 261.514 112.037V107.92C261.514 107.305 261.016 106.807 260.401 106.807Z" fill="#F1F1F1"/>
<path d="M256.154 106.807H255.877C255.262 106.807 254.764 107.305 254.764 107.92V112.037C254.764 112.652 255.262 113.151 255.877 113.151H256.154C256.769 113.151 257.268 112.652 257.268 112.037V107.92C257.268 107.305 256.769 106.807 256.154 106.807Z" fill="#F1F1F1"/>
<path d="M251.904 106.807H251.627C251.012 106.807 250.514 107.305 250.514 107.92V112.037C250.514 112.652 251.012 113.151 251.627 113.151H251.904C252.519 113.151 253.018 112.652 253.018 112.037V107.92C253.018 107.305 252.519 106.807 251.904 106.807Z" fill="#F1F1F1"/>
<path d="M247.658 106.807H247.381C246.766 106.807 246.268 107.305 246.268 107.92V112.037C246.268 112.652 246.766 113.151 247.381 113.151H247.658C248.273 113.151 248.772 112.652 248.772 112.037V107.92C248.772 107.305 248.273 106.807 247.658 106.807Z" fill="#F1F1F1"/>
<path d="M240.59 106.057H237.752V113.904H240.59V106.057Z" fill="#EAEAEA"/>
<path d="M241.925 107.641C242.156 107.641 242.343 107.455 242.343 107.224C242.343 106.994 242.156 106.807 241.925 106.807C241.695 106.807 241.508 106.994 241.508 107.224C241.508 107.455 241.695 107.641 241.925 107.641Z" fill="#3B7858"/>
<path d="M241.925 109.55C242.156 109.55 242.343 109.363 242.343 109.132C242.343 108.902 242.156 108.715 241.925 108.715C241.695 108.715 241.508 108.902 241.508 109.132C241.508 109.363 241.695 109.55 241.925 109.55Z" fill="#EF5350"/>
<path d="M241.925 111.454C242.156 111.454 242.343 111.267 242.343 111.037C242.343 110.806 242.156 110.619 241.925 110.619C241.695 110.619 241.508 110.806 241.508 111.037C241.508 111.267 241.695 111.454 241.925 111.454Z" fill="#FFA726"/>
<path d="M237.752 117.881H289.008C289.495 117.881 289.962 118.074 290.306 118.419C290.651 118.763 290.844 119.23 290.844 119.717V123.891C290.844 124.378 290.651 124.846 290.306 125.19C289.962 125.534 289.495 125.728 289.008 125.728H237.752V117.881Z" fill="white"/>
<path d="M285.891 118.633H285.614C284.999 118.633 284.5 119.131 284.5 119.746V123.864C284.5 124.479 284.999 124.977 285.614 124.977H285.891C286.506 124.977 287.004 124.479 287.004 123.864V119.746C287.004 119.131 286.506 118.633 285.891 118.633Z" fill="#F1F1F1"/>
<path d="M281.643 118.633H281.366C280.751 118.633 280.252 119.131 280.252 119.746V123.864C280.252 124.479 280.751 124.977 281.366 124.977H281.643C282.258 124.977 282.756 124.479 282.756 123.864V119.746C282.756 119.131 282.258 118.633 281.643 118.633Z" fill="#F1F1F1"/>
<path d="M277.395 118.633H277.118C276.502 118.633 276.004 119.131 276.004 119.746V123.864C276.004 124.479 276.502 124.977 277.118 124.977H277.395C278.01 124.977 278.508 124.479 278.508 123.864V119.746C278.508 119.131 278.01 118.633 277.395 118.633Z" fill="#F1F1F1"/>
<path d="M273.147 118.633H272.869C272.254 118.633 271.756 119.131 271.756 119.746V123.864C271.756 124.479 272.254 124.977 272.869 124.977H273.147C273.762 124.977 274.26 124.479 274.26 123.864V119.746C274.26 119.131 273.762 118.633 273.147 118.633Z" fill="#F1F1F1"/>
<path d="M268.899 118.633H268.621C268.006 118.633 267.508 119.131 267.508 119.746V123.864C267.508 124.479 268.006 124.977 268.621 124.977H268.899C269.514 124.977 270.012 124.479 270.012 123.864V119.746C270.012 119.131 269.514 118.633 268.899 118.633Z" fill="#F1F1F1"/>
<path d="M264.651 118.633H264.373C263.758 118.633 263.26 119.131 263.26 119.746V123.864C263.26 124.479 263.758 124.977 264.373 124.977H264.651C265.266 124.977 265.764 124.479 265.764 123.864V119.746C265.764 119.131 265.266 118.633 264.651 118.633Z" fill="#F1F1F1"/>
<path d="M260.401 118.633H260.123C259.508 118.633 259.01 119.131 259.01 119.746V123.864C259.01 124.479 259.508 124.977 260.123 124.977H260.401C261.016 124.977 261.514 124.479 261.514 123.864V119.746C261.514 119.131 261.016 118.633 260.401 118.633Z" fill="#F1F1F1"/>
<path d="M256.154 118.633H255.877C255.262 118.633 254.764 119.131 254.764 119.746V123.864C254.764 124.479 255.262 124.977 255.877 124.977H256.154C256.769 124.977 257.268 124.479 257.268 123.864V119.746C257.268 119.131 256.769 118.633 256.154 118.633Z" fill="#F1F1F1"/>
<path d="M251.904 118.633H251.627C251.012 118.633 250.514 119.131 250.514 119.746V123.864C250.514 124.479 251.012 124.977 251.627 124.977H251.904C252.519 124.977 253.018 124.479 253.018 123.864V119.746C253.018 119.131 252.519 118.633 251.904 118.633Z" fill="#F1F1F1"/>
<path d="M247.658 118.633H247.381C246.766 118.633 246.268 119.131 246.268 119.746V123.864C246.268 124.479 246.766 124.977 247.381 124.977H247.658C248.273 124.977 248.772 124.479 248.772 123.864V119.746C248.772 119.131 248.273 118.633 247.658 118.633Z" fill="#F1F1F1"/>
<path d="M240.59 117.881H237.752V125.728H240.59V117.881Z" fill="#EAEAEA"/>
<path d="M241.925 119.468C242.156 119.468 242.343 119.281 242.343 119.05C242.343 118.82 242.156 118.633 241.925 118.633C241.695 118.633 241.508 118.82 241.508 119.05C241.508 119.281 241.695 119.468 241.925 119.468Z" fill="#3B7858"/>
<path d="M241.925 121.374C242.156 121.374 242.343 121.187 242.343 120.956C242.343 120.726 242.156 120.539 241.925 120.539C241.695 120.539 241.508 120.726 241.508 120.956C241.508 121.187 241.695 121.374 241.925 121.374Z" fill="#EF5350"/>
<path d="M241.925 123.28C242.156 123.28 242.343 123.093 242.343 122.863C242.343 122.632 242.156 122.445 241.925 122.445C241.695 122.445 241.508 122.632 241.508 122.863C241.508 123.093 241.695 123.28 241.925 123.28Z" fill="#FFA726"/>
<path d="M237.752 129.711H289.008C289.495 129.711 289.962 129.904 290.306 130.249C290.651 130.593 290.844 131.06 290.844 131.547V135.721C290.844 136.208 290.651 136.676 290.306 137.02C289.962 137.364 289.495 137.558 289.008 137.558H237.752V129.711Z" fill="white"/>
<path d="M285.891 130.459H285.614C284.999 130.459 284.5 130.958 284.5 131.573V135.69C284.5 136.305 284.999 136.803 285.614 136.803H285.891C286.506 136.803 287.004 136.305 287.004 135.69V131.573C287.004 130.958 286.506 130.459 285.891 130.459Z" fill="#F1F1F1"/>
<path d="M281.643 130.459H281.366C280.751 130.459 280.252 130.958 280.252 131.573V135.69C280.252 136.305 280.751 136.803 281.366 136.803H281.643C282.258 136.803 282.756 136.305 282.756 135.69V131.573C282.756 130.958 282.258 130.459 281.643 130.459Z" fill="#F1F1F1"/>
<path d="M277.395 130.459H277.118C276.502 130.459 276.004 130.958 276.004 131.573V135.69C276.004 136.305 276.502 136.803 277.118 136.803H277.395C278.01 136.803 278.508 136.305 278.508 135.69V131.573C278.508 130.958 278.01 130.459 277.395 130.459Z" fill="#F1F1F1"/>
<path d="M273.147 130.459H272.869C272.254 130.459 271.756 130.958 271.756 131.573V135.69C271.756 136.305 272.254 136.803 272.869 136.803H273.147C273.762 136.803 274.26 136.305 274.26 135.69V131.573C274.26 130.958 273.762 130.459 273.147 130.459Z" fill="#F1F1F1"/>
<path d="M268.899 130.459H268.621C268.006 130.459 267.508 130.958 267.508 131.573V135.69C267.508 136.305 268.006 136.803 268.621 136.803H268.899C269.514 136.803 270.012 136.305 270.012 135.69V131.573C270.012 130.958 269.514 130.459 268.899 130.459Z" fill="#F1F1F1"/>
<path d="M264.651 130.459H264.373C263.758 130.459 263.26 130.958 263.26 131.573V135.69C263.26 136.305 263.758 136.803 264.373 136.803H264.651C265.266 136.803 265.764 136.305 265.764 135.69V131.573C265.764 130.958 265.266 130.459 264.651 130.459Z" fill="#F1F1F1"/>
<path d="M260.401 130.459H260.123C259.508 130.459 259.01 130.958 259.01 131.573V135.69C259.01 136.305 259.508 136.803 260.123 136.803H260.401C261.016 136.803 261.514 136.305 261.514 135.69V131.573C261.514 130.958 261.016 130.459 260.401 130.459Z" fill="#F1F1F1"/>
<path d="M256.154 130.459H255.877C255.262 130.459 254.764 130.958 254.764 131.573V135.69C254.764 136.305 255.262 136.803 255.877 136.803H256.154C256.769 136.803 257.268 136.305 257.268 135.69V131.573C257.268 130.958 256.769 130.459 256.154 130.459Z" fill="#F1F1F1"/>
<path d="M251.904 130.459H251.627C251.012 130.459 250.514 130.958 250.514 131.573V135.69C250.514 136.305 251.012 136.803 251.627 136.803H251.904C252.519 136.803 253.018 136.305 253.018 135.69V131.573C253.018 130.958 252.519 130.459 251.904 130.459Z" fill="#F1F1F1"/>
<path d="M247.658 130.459H247.381C246.766 130.459 246.268 130.958 246.268 131.573V135.69C246.268 136.305 246.766 136.803 247.381 136.803H247.658C248.273 136.803 248.772 136.305 248.772 135.69V131.573C248.772 130.958 248.273 130.459 247.658 130.459Z" fill="#F1F1F1"/>
<path d="M240.59 129.707H237.752V137.554H240.59V129.707Z" fill="#EAEAEA"/>
<path d="M241.925 131.294C242.156 131.294 242.343 131.107 242.343 130.876C242.343 130.646 242.156 130.459 241.925 130.459C241.695 130.459 241.508 130.646 241.508 130.876C241.508 131.107 241.695 131.294 241.925 131.294Z" fill="#3B7858"/>
<path d="M241.925 133.2C242.156 133.2 242.343 133.013 242.343 132.783C242.343 132.552 242.156 132.365 241.925 132.365C241.695 132.365 241.508 132.552 241.508 132.783C241.508 133.013 241.695 133.2 241.925 133.2Z" fill="#EF5350"/>
<path d="M241.925 135.104C242.156 135.104 242.343 134.917 242.343 134.687C242.343 134.456 242.156 134.27 241.925 134.27C241.695 134.27 241.508 134.456 241.508 134.687C241.508 134.917 241.695 135.104 241.925 135.104Z" fill="#FFA726"/>
</g>
<path d="M363.086 144.387C363.086 145.013 363.376 148.691 362.864 149.321C361.933 150.467 354.137 150.158 353.763 149.803C353.389 149.447 353.148 148.691 353.469 148.462C353.79 148.233 356.868 147.526 357.288 147.221C357.708 146.915 358.239 145.361 357.999 144.547" fill="#1F161E"/>
<path d="M337.485 144.387C337.485 145.013 337.779 148.691 337.263 149.321C336.331 150.467 328.54 150.158 328.165 149.803C327.791 149.447 327.547 148.691 327.871 148.462C328.196 148.233 331.267 147.526 331.691 147.221C332.115 146.915 332.642 145.361 332.397 144.547" fill="#1F161E"/>
<path d="M329.196 77.6543C329.525 78.3217 329.693 79.0569 329.685 79.8008C329.685 81.7984 328.57 83.4178 327.199 83.4178C325.828 83.4178 324.712 81.7984 324.712 79.8008C324.705 79.0569 324.873 78.3217 325.201 77.6543H329.196Z" fill="#EED0C3"/>
<path d="M331.38 144.44C330.616 143.55 328.439 77.6464 328.439 77.6464L336.544 77.4707C336.544 77.4707 343.037 95.4639 343.037 96.2354C343.037 97.007 339.71 112.277 338.454 116.303C338.374 118.491 338.778 144.032 338.129 144.639C337.48 145.246 332.14 145.349 331.38 144.44Z" fill="#1F161E"/>
<path d="M334.78 78.4547C334.78 82.2321 347.002 109.644 349.339 113.051C350.76 117.588 356.436 143.694 357.261 144.313C358.086 144.931 363.349 145.55 363.968 144.313C364.586 143.075 356.168 83.0494 354.641 75.4526C353.113 67.8558 334.78 70.9381 334.78 78.4547Z" fill="#51698F"/>
<path d="M352.731 35.3494C350.248 32.4848 328.55 30.6859 325.995 32.6758C320.839 36.6862 324.467 77.3629 324.849 78.8906C325.231 79.6545 327.904 78.1267 327.904 78.1267C328.286 78.5087 347.383 79.2726 354.64 75.4532C354.64 73.5435 353.494 65.5227 353.494 65.5227C355.022 65.5227 359.224 64.3769 359.987 63.2311C360.751 62.0852 355.652 38.7143 352.731 35.3494Z" fill="#999CBF"/>
<path d="M353.709 65.9043C352.048 66.1984 339.233 67.1494 334.788 66.7942" stroke="#1F161E" stroke-width="0.210067" stroke-miterlimit="10" stroke-linecap="round"/>
<path d="M334.111 62.5814C346.237 59.9651 352.009 61.3745 348.147 49.8398" stroke="#1F161E" stroke-width="0.210067" stroke-miterlimit="10" stroke-linecap="round"/>
<path d="M327.275 48.1113C327.34 49.1999 328.107 78.1662 328.107 78.1662" stroke="#1F161E" stroke-width="0.210067" stroke-miterlimit="10" stroke-linecap="round"/>
<path d="M333.914 33.2725C333.914 34.2694 339.391 34.3267 339.387 33.2725V26.6191H333.914V33.2725Z" fill="#EED0C3"/>
<path d="M339.363 30.5787C339.363 29.9867 337.564 27.4544 336.522 27.802C337.809 27.3436 338.878 26.2742 339.352 26.6027L339.363 30.5787Z" fill="#1F161E"/>
<path d="M334.072 29.2471C330.146 29.2471 326.964 26.0648 326.964 22.1392C326.964 18.2136 330.146 15.0312 334.072 15.0312C337.997 15.0312 341.18 18.2136 341.18 22.1392C341.18 26.0648 337.997 29.2471 334.072 29.2471Z" fill="#EED0C3"/>
<path d="M326.331 24.5187C326.296 24.1788 326.796 23.8483 327.448 23.7805C328.101 23.7127 328.659 23.9333 328.694 24.2732C328.729 24.6131 328.229 24.9436 327.576 25.0114C326.924 25.0792 326.366 24.8586 326.331 24.5187Z" fill="#EF9A9A"/>
<path d="M333.751 23.7433C333.716 23.4034 334.216 23.0729 334.868 23.0051C335.521 22.9374 336.079 23.158 336.114 23.4978C336.149 23.8377 335.649 24.1682 334.996 24.236C334.344 24.3038 333.786 24.0832 333.751 23.7433Z" fill="#EF9A9A"/>
<path d="M330.261 22.8223C330.074 23.1584 329.077 24.5983 330.33 25.0108" stroke="#1F161E" stroke-width="0.263539" stroke-miterlimit="10" stroke-linecap="round"/>
<path d="M332.871 26.3063C333.222 26.2605 333.726 25.7716 333.975 25.3477" stroke="#1F161E" stroke-width="0.263539" stroke-miterlimit="10" stroke-linecap="round"/>
<path d="M339.819 22.8214C338.954 22.8214 338.253 22.1203 338.253 21.2554C338.253 20.3906 338.954 19.6895 339.819 19.6895C340.684 19.6895 341.385 20.3906 341.385 21.2554C341.385 22.1203 340.684 22.8214 339.819 22.8214Z" fill="#EED0C3"/>
<path d="M338.76 22.6353C338.76 24.7207 341.051 26.0727 341.838 26.0727C341.96 26.0875 342.084 26.0759 342.202 26.0387C342.319 26.0014 342.427 25.9394 342.518 25.8569C342.609 25.7743 342.682 25.6731 342.73 25.5601C342.779 25.4471 342.803 25.325 342.801 25.2019C342.801 24.3273 342.289 23.5825 341.208 22.6353C341.407 22.3106 342.801 20.5995 342.801 18.1628C342.801 15.6076 341.231 13.4649 340.18 13.4649C339.732 13.4947 339.305 13.6725 338.968 13.9703C338.631 14.2681 338.402 14.6693 338.317 15.1111C338.317 11.5399 334.497 9 332.206 9C330.086 9 329.719 9.9243 329.719 10.6729C329.719 12.3191 331.018 14.0798 331.503 14.5114C330.315 13.6368 328.447 12.7545 326.858 12.7545C325.846 12.7545 324.567 13.0409 324.567 14.4274C324.567 16.9749 326.954 18.4492 327.752 18.8617C328.056 18.2683 328.442 17.7206 328.898 17.2346C328.749 17.7159 329.337 18.5905 330.464 18.7853C331.113 18.8923 338.76 17.861 338.76 22.6353Z" fill="#1F161E"/>
<path d="M324.111 69.6065H328.381C328.381 69.6065 329.684 57.4761 329.684 56.5251C329.684 55.574 322.897 55.6924 322.897 56.5251C322.897 57.3577 324.111 69.6065 324.111 69.6065Z" fill="#1F161E"/>
<path d="M327.111 60.6426C326.504 60.6426 323.032 61.4638 323.032 63.2512C323.032 65.4474 325.755 66.196 326.29 66.196C329.166 66.196 329.975 65.7033 334.566 65.7033C334.566 65.1648 334.467 62.6974 333.829 62.4568C333.05 62.4683 330.839 60.6426 327.111 60.6426Z" fill="#EED0C3"/>
<g clip-path="url(#clip1_7013_221870)">
<path d="M193.581 144.461C193.555 144.863 193.29 147.216 193.625 147.632C194.238 148.384 199.596 148.346 199.861 148.129C200.125 147.911 200.305 147.428 200.09 147.276C199.875 147.124 197.779 146.602 197.506 146.401C197.233 146.2 196.895 145.186 197.078 144.662" fill="#1F161E"/>
<path d="M220.135 79.4648C221.047 81.3993 228.713 102.475 228.536 105.548C228.359 108.62 210.62 140.284 209.64 140.618C208.66 140.952 204.59 139.784 204.262 138.952C203.933 138.121 210.442 119.225 210.62 114.386" fill="#1F161E"/>
<path d="M220.135 79.4648C219.675 81.7444 212.047 113.179 212.047 113.179L198.061 144.835C196.898 145.364 193.477 145.421 192.878 145.253C192.279 145.085 195.154 114.772 196.291 110.476C197.427 106.181 200.419 76.3594 200.419 76.3594C200.419 76.3594 216.088 76.6012 220.135 79.4648Z" fill="#EF5350"/>
<path d="M216.356 45.832C218.665 46.84 233.383 53.6079 234.648 53.6079C235.913 53.6079 249.367 46.5031 250.157 46.0249C250.91 46.7286 252.059 47.8371 251.779 48.1985C251.5 48.5598 236.072 62.0332 234.764 62.0332C233.456 62.0332 220.205 58.2648 219.176 57.2296" fill="#303030"/>
<path d="M211.362 44.3623C224.589 42.3354 221.438 78.1094 220.136 79.4652C218.833 80.8209 200.992 77.5633 199.832 76.2809C198.672 74.9985 202.08 44.7019 211.362 44.3623Z" fill="#99ABC5"/>
<path d="M205.038 139.178C204.881 139.55 203.858 141.715 204.047 142.207C204.387 143.098 209.498 144.587 209.82 144.454C210.143 144.321 210.475 143.911 210.32 143.707C210.166 143.503 208.338 142.411 208.14 142.139C207.942 141.868 207.954 140.811 208.303 140.362" fill="#1F161E"/>
<path d="M213.689 46.2251C213.689 47.0782 209.62 47.1434 209.62 46.2251V40.5195H213.689V46.2251Z" fill="#F8CDBA"/>
<path d="M209.617 43.2725C209.617 42.8622 211.114 40.6289 211.891 40.868C210.934 40.5501 209.969 40.2892 209.617 40.5093V43.2725Z" fill="black"/>
<path d="M212.312 41.0737C209.391 41.0737 207.024 38.861 207.024 36.1316C207.024 33.4021 209.391 31.1895 212.312 31.1895C215.232 31.1895 217.6 33.4021 217.6 36.1316C217.6 38.861 215.232 41.0737 212.312 41.0737Z" fill="#F8CDBA"/>
<path d="M217.659 37.2238C217.171 37.2238 216.775 37.0316 216.775 36.7945C216.775 36.5574 217.171 36.3652 217.659 36.3652C218.147 36.3652 218.543 36.5574 218.543 36.7945C218.543 37.0316 218.147 37.2238 217.659 37.2238Z" fill="#FA9E9F"/>
<path d="M212.11 37.2238C211.622 37.2238 211.227 37.0316 211.227 36.7945C211.227 36.5574 211.622 36.3652 212.11 36.3652C212.598 36.3652 212.994 36.5574 212.994 36.7945C212.994 37.0316 212.598 37.2238 212.11 37.2238Z" fill="#FA9E9F"/>
<path d="M215.504 35.9043C215.67 36.1244 216.519 37.0481 215.623 37.4231" stroke="#1F161E" stroke-width="0.250995" stroke-miterlimit="10" stroke-linecap="round"/>
<path d="M213.832 38.5002C213.475 38.4101 213.166 38.2026 212.96 37.916" stroke="#1F161E" stroke-width="0.250995" stroke-miterlimit="10" stroke-linecap="round"/>
<path d="M209.086 37.4544C208.442 37.4544 207.92 36.9666 207.92 36.3649C207.92 35.7632 208.442 35.2754 209.086 35.2754C209.73 35.2754 210.252 35.7632 210.252 36.3649C210.252 36.9666 209.73 37.4544 209.086 37.4544Z" fill="#F8CDBA"/>
<path d="M200.076 77.6918C194.212 77.5423 190 73.706 190 63.8354C190 59.7599 197.25 47.4902 198.689 42.8551C199.433 40.4615 198.835 33.4192 202.634 29.8355C204.466 28.1102 212.518 28.5178 214.597 29.3301C216.675 30.1425 216.431 32.5905 216.219 32.9736C215.722 32.5823 214.632 31.789 214.437 31.8134C213.417 31.9303 210.632 34.8591 209.786 36.204C209.1 37.2908 210.158 44.0397 208.818 45.9687C207.477 47.8978 202.733 46.8843 202.733 46.8843" fill="#1F161E"/>
<path d="M211.314 58.7333C210.503 59.6815 204.515 69.7804 204.515 71.2992C204.515 72.8179 206.291 83.5825 206.646 84.1041C205.835 84.672 203.704 86.2369 203.704 86.2369C203.704 86.2369 197.209 75.5186 197.209 69.4978C197.209 67.3623 202.384 50.0065 207.358 46.0234" fill="#99ABC5"/>
<path d="M211.314 58.7344C210.503 59.6826 204.515 69.7815 204.515 71.3002C204.515 72.0528 204.954 75.0795 205.436 78.0029" stroke="#1F161E" stroke-width="0.363761" stroke-linecap="round" stroke-linejoin="round"/>
<path d="M209.352 44.3447C209.599 46.3498 203.34 53.3459 200.901 55.3945C198.465 52.5254 199.927 45.4179 199.927 45.4179L204.899 43.2715L209.352 44.3447Z" fill="#1F161E"/>
<path d="M203.705 29.5215C202.287 29.5215 201.138 28.254 201.138 26.6904C201.138 25.1269 202.287 23.8594 203.705 23.8594C205.122 23.8594 206.271 25.1269 206.271 26.6904C206.271 28.254 205.122 29.5215 203.705 29.5215Z" fill="#1F161E"/>
<path d="M218.571 48.9453C219.775 51.415 220.519 54.6509 220.943 58.0797" stroke="#1F161E" stroke-width="0.363761" stroke-linecap="round" stroke-linejoin="round"/>
<path d="M252.639 48.0919C251.273 48.0919 250.165 47.238 250.165 46.1846C250.165 45.1313 251.273 44.2773 252.639 44.2773C254.006 44.2773 255.113 45.1313 255.113 46.1846C255.113 47.238 254.006 48.0919 252.639 48.0919Z" fill="#F8CDBA"/>
<path d="M251.231 40.5098L254.217 49.3344" stroke="black" stroke-width="1.09128" stroke-miterlimit="10" stroke-linecap="round"/>
</g>
<defs>
<clipPath id="clip0_7013_221870">
<rect width="102.512" height="105.684" fill="white" transform="translate(237.748 45.2305)"/>
</clipPath>
<clipPath id="clip1_7013_221870">
<rect width="65.1132" height="124.406" fill="white" transform="matrix(-1 0 0 1 255.113 23.8594)"/>
</clipPath>
</defs>
</svg>
