<svg width="586" height="160" viewBox="0 0 586 160" fill="none" xmlns="http://www.w3.org/2000/svg">
<rect width="586" height="160" fill="#EAEAEA"/>
<path d="M187.095 96.9453H391.419C393.465 96.9453 395.491 97.3483 397.381 98.1312C399.271 98.9141 400.989 100.062 402.435 101.508C403.882 102.955 405.029 104.672 405.812 106.562C406.595 108.453 406.998 110.478 406.998 112.524V159.793H171.516V112.524C171.516 108.392 173.157 104.43 176.079 101.508C179 98.5867 182.963 96.9453 187.095 96.9453Z" fill="#E6E6E6"/>
<path d="M352.672 84.4286L350.821 6.71673C350.735 3.02411 347.793 3.02411 347.707 6.71673L345.855 84.4286H352.672Z" fill="#999999"/>
<path d="M319.815 84.4286L317.963 6.71673C317.877 3.02411 314.936 3.02411 314.85 6.71673L312.998 84.4286H319.815Z" fill="#999999"/>
<path d="M183.428 84.4289L181.577 6.71706C181.49 3.02183 178.559 3.02183 178.463 6.71445L176.611 84.4263L183.428 84.4289Z" fill="#999999"/>
<path d="M174.579 84.4297H378.904C383.036 84.4297 386.998 86.071 389.92 88.9926C392.841 91.9142 394.483 95.8768 394.483 100.009V147.277H159V100.009C159 95.8768 160.641 91.9142 163.563 88.9926C166.485 86.071 170.447 84.4297 174.579 84.4297Z" stroke="black" stroke-width="0.521556" stroke-miterlimit="10"/>
<path d="M237.38 113.115H191.973C189.029 113.115 186.643 115.502 186.643 118.446V120.302C186.643 123.246 189.029 125.633 191.973 125.633H237.38C240.323 125.633 242.71 123.246 242.71 120.302V118.446C242.71 115.502 240.323 113.115 237.38 113.115Z" fill="#999CBF"/>
<path d="M324.089 113.115H305.282C303.274 113.115 301.646 114.743 301.646 116.75V121.997C301.646 124.005 303.274 125.633 305.282 125.633H324.089C326.097 125.633 327.724 124.005 327.724 121.997V116.75C327.724 114.743 326.097 113.115 324.089 113.115Z" fill="#99ABC5"/>
<path d="M355.12 113.115H336.313C334.305 113.115 332.678 114.743 332.678 116.75V121.997C332.678 124.005 334.305 125.633 336.313 125.633H355.12C357.128 125.633 358.756 124.005 358.756 121.997V116.75C358.756 114.743 357.128 113.115 355.12 113.115Z" fill="#99ABC5"/>
<g clip-path="url(#clip0_7013_221900)">
<path d="M219.872 88.3553C219.384 88.3675 216.484 88.5846 215.986 88.1797C215.084 87.4478 215.327 81.3026 215.606 81.0074C215.884 80.7122 216.481 80.5195 216.662 80.7757C216.842 81.0318 217.394 83.4591 217.638 83.7787C217.882 84.0983 219.101 84.5277 219.755 84.3349" fill="#1F161E"/>
<path d="M277.831 73.6352C277.16 72.8424 254.199 55.8266 249.674 55.9144C245.148 56.0022 231.907 83.4812 232.158 84.4058C232.409 85.3303 239.418 83.813 240.418 82.9713C241.418 82.1297 248.408 74.733 250.145 70.9932C250.828 71.9836 256.453 78.5021 258.134 79.5535C259.815 80.605 277.831 73.6352 277.831 73.6352Z" fill="#1F161E"/>
<path d="M219.137 88.5176C219.518 88.8201 285.815 90.0399 291.294 88.5176C296.773 86.9953 298.22 87.1466 298.144 83.9508C298.069 80.755 287.41 72.6094 286.042 72.6094C283.944 72.6094 262.359 74.3171 245.241 80.633C238.41 81.7503 219.625 83.8581 219.625 83.8581C219.318 84.9754 218.767 87.0344 219.137 88.5176Z" fill="#7DBF9D"/>
<path d="M301.711 42.8559C305.285 44.4391 309.681 64.8995 309.084 65.5704C308.486 66.2413 303.419 68.5491 303.419 68.5491C303.321 73.5306 299.101 85.4551 297.835 85.9747C288.935 83.4425 283.461 75.5506 283.461 73.3891C283.461 71.2277 276.684 72.8841 276.162 72.2816C275.919 72.0318 275.642 71.8167 275.34 71.6424C275.34 71.6424 278.999 68.471 281.861 66.4121C281.761 65.5314 280.995 49.0279 281.983 47.4764C283.949 44.4001 297.257 40.8823 301.711 42.8559Z" fill="#999CBF"/>
<path d="M303.45 68.543C302.474 69.004 293.611 72.8244 289.732 73.6343" stroke="#1F161E" stroke-width="0.134175" stroke-miterlimit="10" stroke-linecap="round"/>
<path d="M297.897 55.3457C298.358 56.3215 301.195 61.9446 300.849 62.5228C300.502 63.101 284.348 70.627 282.928 71.0856" stroke="#1F161E" stroke-width="0.134175" stroke-miterlimit="10" stroke-linecap="round"/>
<path d="M284.499 53.8984C284.409 55.9818 284.467 66.1693 284.813 69.9311" stroke="#1F161E" stroke-width="0.134175" stroke-miterlimit="10" stroke-linecap="round"/>
<path d="M282.927 71.0857C283.074 71.3906 284.093 74.3352 284.201 74.9743C284.308 75.6135 280.137 76.4576 278.683 76.3868C277.229 76.3161 275.455 74.967 275.455 73.3715C275.455 71.7761 277.638 70.6466 282.927 71.0857Z" fill="#EED0C3"/>
<path d="M288.804 45.053C288.951 45.7482 292.786 45.0017 292.632 44.2552L291.661 39.6152L287.836 40.413L288.804 45.053Z" fill="#EED0C3"/>
<path d="M292.238 42.3817C292.153 41.9694 290.909 40.7424 290.23 41.1327C291.062 40.6277 291.282 39.4518 291.66 39.6055L292.238 42.3817Z" fill="black"/>
<path d="M287.34 42.0381C290.144 42.0381 292.417 39.7652 292.417 36.9614C292.417 34.1577 290.144 31.8848 287.34 31.8848C284.537 31.8848 282.264 34.1577 282.264 36.9614C282.264 39.7652 284.537 42.0381 287.34 42.0381Z" fill="#EED0C3"/>
<path d="M282.548 39.1095C283.006 39.014 283.336 38.743 283.287 38.5043C283.237 38.2656 282.825 38.1495 282.368 38.245C281.91 38.3405 281.579 38.6115 281.629 38.8502C281.679 39.0889 282.091 39.205 282.548 39.1095Z" fill="#999CBF"/>
<path d="M287.757 38.0216C288.215 37.9261 288.545 37.6551 288.496 37.4164C288.446 37.1777 288.034 37.0616 287.577 37.1571C287.119 37.2526 286.788 37.5236 286.838 37.7623C286.888 38.001 287.299 38.1171 287.757 38.0216Z" fill="#999CBF"/>
<path d="M284.291 37.3594C284.184 37.6033 283.582 38.706 284.499 38.906" stroke="#1F161E" stroke-width="0.168328" stroke-miterlimit="10" stroke-linecap="round"/>
<path d="M286.396 39.6425C286.64 39.5839 286.965 39.2009 287.111 38.8789" stroke="#1F161E" stroke-width="0.168328" stroke-miterlimit="10" stroke-linecap="round"/>
<path d="M291.485 33.0724C291.124 31.3476 288.45 30.5645 286.777 30.9134C284.113 31.4696 281.002 32.7967 280.505 33.109C279.673 33.6115 279.729 34.5971 279.797 34.9191C280.078 36.2608 280.741 36.9927 282.264 36.8976C282.266 36.3997 282.348 35.9055 282.507 35.4338C282.887 35.1895 283.34 35.0867 283.788 35.1435C284.191 35.1972 287.655 36.0242 289.987 35.5363C290.39 35.9071 291.631 38.4369 291.666 39.6079C292.356 39.503 293.151 37.0171 292.971 35.8388C292.903 35.4372 292.742 35.0572 292.5 34.7292C292.259 34.4013 291.943 34.1346 291.58 33.9506C291.546 33.6969 291.512 33.209 291.485 33.0724Z" fill="black"/>
<path d="M290.418 37.6799C291.035 37.6799 291.535 37.1797 291.535 36.5626C291.535 35.9455 291.035 35.4453 290.418 35.4453C289.801 35.4453 289.301 35.9455 289.301 36.5626C289.301 37.1797 289.801 37.6799 290.418 37.6799Z" fill="#EED0C3"/>
</g>
<defs>
<clipPath id="clip0_7013_221900">
<rect width="93.7856" height="58.4342" fill="white" transform="translate(215.354 30.832)"/>
</clipPath>
</defs>
</svg>
