<svg width="440" height="160" viewBox="0 0 440 160" fill="none" xmlns="http://www.w3.org/2000/svg">
<g clip-path="url(#clip0_7013_221871)">
<rect width="440" height="160" fill="#EAEAEA"/>
<g clip-path="url(#clip1_7013_221871)">
<path d="M366.459 168.971C366.506 167.965 366.536 166.956 366.536 165.931C366.536 117.48 314.481 78.1953 250.269 78.1953C186.058 78.1953 134 117.48 134 165.942C134 166.956 134.03 167.965 134.077 168.982L366.459 168.971Z" fill="#BFBFBF"/>
<path d="M432.943 168.971C432.976 168.261 433.001 167.548 433.001 166.832C433.001 132.603 394.131 104.854 346.183 104.854C298.235 104.854 259.365 132.603 259.365 166.832C259.365 167.548 259.387 168.261 259.423 168.971H432.943Z" fill="#F1F1F1"/>
</g>
<g clip-path="url(#clip2_7013_221871)">
<path d="M310.607 44.3414L306.756 42.9883L303.808 51.3786L307.659 52.7317L310.607 44.3414Z" fill="#1F161E"/>
<path d="M313.156 97.8825C313.319 98.2556 314.187 100.5 314.668 100.729C315.538 101.141 320.046 98.7779 320.167 98.4656C320.289 98.1533 320.22 97.6365 319.966 97.5923C319.711 97.5481 317.7 97.9903 317.373 97.9267C317.047 97.8631 316.293 97.0976 316.204 96.5449" fill="#1F161E"/>
<path d="M256.703 63.9043C256.703 78.8277 261.451 81.9616 266.174 81.9616C278.137 81.9616 293.702 72.3664 294.581 71.9961C294.304 73.5658 292.561 113.356 292.561 113.585C292.975 113.909 296.153 114.188 297.223 113.909C297.499 112.941 305.903 65.615 305.903 64.3686C305.903 63.1222 305.179 61.2264 302.44 60.9528C301.282 60.8368 285.174 60.168 285.174 60.168" fill="#1F161E"/>
<path d="M297.308 53.3223C300.936 58.5731 317.139 95.2264 316.996 96.0832C316.852 96.9399 313.127 98.7555 312.339 98.2664C308.998 96.2075 288.484 61.613 287.685 61.0907C286.886 60.5684 285.69 60.7701 284.977 60.9138C283.122 57.8324 287.273 54.1734 297.308 53.3223Z" fill="#7DBF9D"/>
<path d="M281.065 23.9062C286.476 23.9062 288.032 29.0299 288.479 30.9644C289.911 37.141 285.926 60.6121 285.464 61.2588C281.548 66.7335 259.163 67.2199 256.98 64.8487C254.797 62.4775 266.279 23.9062 281.065 23.9062Z" fill="#99ABC5"/>
<path d="M293.607 113.016C293.536 113.416 292.994 115.763 293.265 116.221C293.751 117.05 298.811 117.623 299.088 117.432C299.364 117.241 299.593 116.774 299.411 116.603C299.229 116.431 297.311 115.663 297.076 115.425C296.841 115.188 296.645 114.132 296.885 113.624" fill="#1F161E"/>
<path d="M280.254 24.9877C280.108 25.4575 283.927 26.6459 284.073 26.1788L285.555 21.4255L281.738 20.2344L280.254 24.9877Z" fill="#EED0C3"/>
<path d="M284.04 22.5503C283.667 22.4342 280.956 22.7465 280.773 23.3323L281.738 20.2344C282.332 20.4195 284.04 22.5503 284.04 22.5503Z" fill="#1F161E"/>
<path d="M286.172 23.3123C289.269 23.3123 291.779 20.8018 291.779 17.705C291.779 14.6081 289.269 12.0977 286.172 12.0977C283.075 12.0977 280.564 14.6081 280.564 17.705C280.564 20.8018 283.075 23.3123 286.172 23.3123Z" fill="#EED0C3"/>
<path d="M291.763 20.6586C291.847 20.3891 291.495 20.0393 290.976 19.8775C290.457 19.7156 289.969 19.8029 289.885 20.0725C289.801 20.342 290.153 20.6918 290.672 20.8536C291.19 21.0155 291.679 20.9282 291.763 20.6586Z" fill="#EF9A9A"/>
<path d="M285.869 18.8207C285.953 18.5512 285.6 18.2015 285.082 18.0396C284.563 17.8778 284.074 17.9651 283.99 18.2346C283.906 18.5041 284.258 18.8539 284.777 19.0157C285.296 19.1776 285.784 19.0903 285.869 18.8207Z" fill="#EF9A9A"/>
<path d="M288.854 18.6426C288.951 18.9466 289.526 20.2786 288.445 20.4085" stroke="#1F161E" stroke-width="0.33163" stroke-miterlimit="10" stroke-linecap="round"/>
<path d="M286.168 21.0438C285.891 20.947 285.56 20.4717 285.43 20.082" stroke="#1F161E" stroke-width="0.33163" stroke-miterlimit="10" stroke-linecap="round"/>
<path d="M287.868 10.349C286.39 10.1639 282.098 8.88711 281.122 8C280.661 8.2432 278.867 9.85436 277.405 12.0348L279.481 14.1213L276.858 12.9109C276.167 14.0435 275.692 15.2944 275.457 16.6003C276.134 18.427 278.259 19.1787 278.66 19.2284C281.244 19.5545 282.236 15.539 283.538 15.0416C285.749 14.1932 288.352 16.3958 291.627 16.2576C292.354 14.7735 291.408 10.794 287.868 10.349Z" fill="#1F161E"/>
<path d="M281.03 18.0727C281.746 18.0727 282.327 17.4924 282.327 16.7766C282.327 16.0608 281.746 15.4805 281.03 15.4805C280.315 15.4805 279.734 16.0608 279.734 16.7766C279.734 17.4924 280.315 18.0727 281.03 18.0727Z" fill="#EED0C3"/>
<path d="M275.457 37.0505C275.18 38.7805 274.285 55.116 276.43 56.7051C281.023 60.107 302.233 55.9451 305.447 54.754C305.795 53.6154 305.447 49.9979 305.447 49.9979C304.209 49.9481 288.589 49.7989 287.658 48.6161C286.727 47.4333 286.616 37.7635 286.765 36.6719" fill="#99ABC5"/>
<path d="M307.608 55.133C309.267 55.133 310.612 53.7881 310.612 52.129C310.612 50.4699 309.267 49.125 307.608 49.125C305.948 49.125 304.604 50.4699 304.604 52.129C304.604 53.7881 305.948 55.133 307.608 55.133Z" fill="#EED0C3"/>
<path d="M287.656 48.6239C286.714 47.4328 286.614 37.7713 286.763 36.6797" stroke="#1F161E" stroke-width="0.276358" stroke-linecap="round" stroke-linejoin="round"/>
<path d="M286.189 57.9329C281.861 58.1733 278.078 57.9329 276.431 56.7059C275.491 56.0122 275.134 52.4942 275.049 48.6113" stroke="#1F161E" stroke-width="0.276358" stroke-linecap="round" stroke-linejoin="round"/>
</g>
<path d="M168.168 113.621C168.168 114.055 168.41 116.794 167.927 117.046C167.443 117.299 162.125 117.453 161.882 117.198C161.639 116.944 161.496 116.413 161.707 116.261C161.919 116.109 163.978 115.678 164.258 115.475C164.537 115.271 164.923 114.193 164.782 113.621" fill="#1F161E"/>
<path d="M184.072 77.8242L181.073 76.6995C181.202 70.9718 182.479 58.1736 184.294 56.2705C184.718 55.8235 193.149 55.0469 194.655 55.0469C203.631 55.0469 206.292 56.1221 206.969 56.831C209.068 59.0272 209.723 69.2152 209.723 72.7815C209.723 76.3479 200.114 78.1961 200.114 78.1961L188.852 79.0093C188.852 79.0093 186.38 79.2749 184.243 79.4068C184.198 78.7199 184.072 77.8242 184.072 77.8242Z" fill="#999CBF"/>
<path d="M175.15 81.1456C174.331 80.891 166.183 79.4971 164.41 81.3288C162.637 83.1605 157.047 109.422 157.047 110.026H161.545L167.621 96.3305" fill="#1F161E"/>
<path d="M204.816 78.8092C205.02 79.8808 206.248 81.0311 206.248 86.8688C206.248 94.943 199.943 95.1115 197.677 95.1115C190.625 95.1115 179.21 92.9134 178.44 92.5123C177.928 93.408 168.507 113.577 168.465 114.026H164.127C164.127 114.026 166.816 83.8684 171.665 80.4413C173.241 79.3423 201.199 78.1572 204.816 78.8092Z" fill="#3B7858"/>
<path d="M179.415 72.9082C180.556 72.9082 181.494 73.1921 184.073 73.7233L184.209 78.8961C181.763 77.863 181.194 76.4269 180.484 76.4269C178.713 76.4269 177.787 77.3849 176.741 77.3849C176.011 77.3849 174.699 76.7841 174.699 75.9672C174.699 74.2563 178.006 72.9082 179.415 72.9082Z" fill="#EED0C3"/>
<path d="M161.291 109.664C161.291 110.1 161.533 112.837 161.05 113.091C160.566 113.346 155.248 113.496 155.005 113.243C154.762 112.99 154.619 112.457 154.83 112.305C155.042 112.153 157.101 111.721 157.381 111.52C157.66 111.318 158.047 110.237 157.905 109.664" fill="#1F161E"/>
<path d="M193.072 56.2626C193.072 56.955 196.895 56.9752 196.895 56.2626V50.6484H193.072V56.2626Z" fill="#EED0C3"/>
<path d="M194.316 52.4931C194.665 52.4931 196.895 53.5243 196.895 54.1013V51.0625C196.339 51.0625 194.316 52.4931 194.316 52.4931Z" fill="#1F161E"/>
<path d="M193.58 52.7413C191.023 52.7413 188.95 50.5681 188.95 47.8872C188.95 45.2064 191.023 43.0332 193.58 43.0332C196.136 43.0332 198.209 45.2064 198.209 47.8872C198.209 50.5681 196.136 52.7413 193.58 52.7413Z" fill="#EED0C3"/>
<path d="M188.799 44.0826C189.372 45.0369 190.57 45.4747 191.868 45.4747C192.974 45.4747 194.585 45.1376 195.733 45.8227C196.351 46.189 197.062 47.0225 197.207 48.6911C197.207 48.9769 197.514 50.0851 197.514 50.4423C197.514 50.6877 197.777 50.8471 198.213 50.8471C198.439 50.8471 198.882 50.4624 198.882 49.8781C198.882 49.2022 198.627 48.9622 198.627 48.3889C198.627 47.8156 199.309 47.2569 199.309 45.6633C199.309 43.3682 197.911 41.9541 196.922 41.9541C196.023 41.9541 195.738 42.1739 195.624 42.2673C195.624 40.181 193.004 39.2285 191.956 39.2285C190.768 39.2285 190.209 39.7414 190.209 40.3898C190.209 41.4284 190.679 42.3076 190.918 42.5054C190.377 41.9947 189.674 41.7133 188.946 41.716C187.583 41.716 187.125 42.6538 187.125 43.2949C187.125 44.6907 188.722 45.982 189.316 45.982C189.465 45.6497 189.64 45.331 189.84 45.0295" fill="#1F161E"/>
<path d="M197.062 49.564C196.517 49.564 196.075 49.1006 196.075 48.5291C196.075 47.9575 196.517 47.4941 197.062 47.4941C197.607 47.4941 198.049 47.9575 198.049 48.5291C198.049 49.1006 197.607 49.564 197.062 49.564Z" fill="#F8CDBA"/>
<path d="M188.905 48.7767C188.482 48.7767 188.14 48.5897 188.14 48.359C188.14 48.1284 188.482 47.9414 188.905 47.9414C189.327 47.9414 189.67 48.1284 189.67 48.359C189.67 48.5897 189.327 48.7767 188.905 48.7767Z" fill="#FA9E9F"/>
<path d="M193.715 48.7767C193.293 48.7767 192.95 48.5897 192.95 48.359C192.95 48.1284 193.293 47.9414 193.715 47.9414C194.138 47.9414 194.48 48.1284 194.48 48.359C194.48 48.5897 194.138 48.7767 193.715 48.7767Z" fill="#EF9A9A"/>
<path d="M190.771 47.4941C190.628 47.7066 189.898 48.606 190.67 48.9705" stroke="#1F161E" stroke-width="0.276358" stroke-miterlimit="10" stroke-linecap="round"/>
<path d="M192.21 50.0189C192.441 50.0189 192.796 49.7203 192.984 49.4492" stroke="#1F161E" stroke-width="0.276358" stroke-miterlimit="10" stroke-linecap="round"/>
<path d="M186.107 63.0547C185.758 63.835 184.072 71.3432 184.072 73.7226" stroke="#1F161E" stroke-width="0.276358" stroke-miterlimit="10" stroke-linecap="round"/>
<path d="M209.723 72.1758C209.723 80.6181 209.649 83.0671 206.416 83.0671C198.967 83.0671 187.706 76.6562 185.699 76.6562C183.927 76.6562 183.001 77.6141 181.953 77.6141C181.225 77.6141 179.911 77.0115 179.911 76.1964C179.911 74.4856 183.218 73.1374 184.628 73.1374C187.8 73.1374 200.469 76.3448 200.776 76.3448C201.084 76.3448 201.606 76.2037 201.606 75.6579C201.606 74.6669 200.99 72.3791 200.908 72.1776L209.723 72.1758Z" fill="#EED0C3"/>
<path d="M199.049 64.8125C199.262 65.4554 200.923 72.1009 201.117 72.9087" stroke="#1F161E" stroke-width="0.276358" stroke-miterlimit="10" stroke-linecap="round"/>
<path d="M170.693 79.3004H189.549L186.133 67.5634C186.047 67.2802 185.873 67.0322 185.635 66.8564C185.396 66.6806 185.108 66.5865 184.812 66.5881H168.811C168.601 66.5847 168.393 66.6304 168.204 66.7216C168.014 66.8127 167.849 66.9468 167.721 67.1131C167.592 67.2795 167.505 67.4735 167.465 67.6796C167.425 67.8858 167.434 68.0984 167.49 68.3006L170.693 79.3004Z" fill="black"/>
</g>
<defs>
<clipPath id="clip0_7013_221871">
<rect width="440" height="160" fill="white"/>
</clipPath>
<clipPath id="clip1_7013_221871">
<rect width="299" height="90.7753" fill="white" transform="translate(134 78.1953)"/>
</clipPath>
<clipPath id="clip2_7013_221871">
<rect width="63.5237" height="109.46" fill="white" transform="translate(256.703 8)"/>
</clipPath>
</defs>
</svg>
