<svg width="314" height="115" viewBox="0 0 314 115" fill="none" xmlns="http://www.w3.org/2000/svg">
<g clip-path="url(#clip0_7013_221925)">
<path d="M0 8C0 3.58172 3.58172 0 8 0H306C310.418 0 314 3.58172 314 8V115H0V8Z" fill="#EAEAEA"/>
<g clip-path="url(#clip1_7013_221925)">
<path d="M295.342 95.3289C297.235 95.3289 299.051 96.0855 300.39 97.4324C301.729 98.7793 302.481 100.606 302.481 102.511C302.481 104.416 301.729 106.242 300.39 107.589C299.051 108.936 297.235 109.693 295.342 109.693H14.3282C12.4347 109.693 10.6188 108.936 9.27995 107.589C7.94108 106.242 7.18891 104.416 7.18891 102.511C7.18891 100.606 7.94108 98.7793 9.27995 97.4324C10.6188 96.0855 12.4347 95.3289 14.3282 95.3289H295.342ZM295.342 93.8008H14.3282C12.0319 93.8008 9.8296 94.7185 8.20586 96.3519C6.58213 97.9854 5.66992 100.201 5.66992 102.511C5.66992 104.821 6.58213 107.036 8.20586 108.67C9.8296 110.303 12.0319 111.221 14.3282 111.221H295.342C297.638 111.221 299.84 110.303 301.464 108.67C303.088 107.036 304 104.821 304 102.511C304 100.201 303.088 97.9854 301.464 96.3519C299.84 94.7185 297.638 93.8008 295.342 93.8008Z" fill="#51698F"/>
<path d="M14.9355 102.51H226.379" stroke="#D6B689" stroke-width="24.6845" stroke-miterlimit="10" stroke-linecap="round"/>
<path d="M244.304 65.3789H213.316V81.5766H244.304V65.3789Z" fill="#999CBF"/>
<path fill-rule="evenodd" clip-rule="evenodd" d="M228.877 89.9626L234.43 80.2012H223.326L228.877 89.9626Z" fill="#999CBF"/>
<path d="M226.644 69.2363C227.957 69.2363 228.792 70.1532 228.792 71.2656C228.792 72.3781 227.957 73.2705 226.644 73.2705C225.332 73.2705 224.518 72.3811 224.518 71.2656C224.518 70.1501 225.341 69.2363 226.644 69.2363ZM230.928 69.3555H232.097L227 77.3627H225.845L230.928 69.3555ZM226.644 70.5077C226.274 70.5077 225.976 70.7247 225.976 71.2656C225.963 71.3597 225.97 71.4555 225.998 71.5462C226.026 71.6368 226.074 71.7201 226.138 71.79C226.202 71.8599 226.281 71.9146 226.368 71.9502C226.456 71.9859 226.55 72.0015 226.644 71.9961C226.74 72.0031 226.836 71.9888 226.925 71.9541C227.014 71.9193 227.095 71.865 227.161 71.7952C227.227 71.7253 227.277 71.6415 227.307 71.5499C227.336 71.4584 227.346 71.3613 227.334 71.2656C227.348 71.1682 227.341 71.0687 227.313 70.9744C227.284 70.8802 227.235 70.7935 227.169 70.7208C227.103 70.6482 227.021 70.5913 226.931 70.5544C226.84 70.5175 226.742 70.5016 226.644 70.5077ZM231.262 73.4752C232.562 73.4752 233.388 74.3738 233.388 75.5015C233.388 76.6292 232.553 77.5063 231.262 77.5063C229.971 77.5063 229.135 76.6201 229.135 75.5015C229.135 74.3829 229.962 73.4752 231.262 73.4752ZM231.262 74.7466C230.879 74.7466 230.581 74.9636 230.581 75.5015C230.567 75.5969 230.574 75.6945 230.602 75.7868C230.631 75.8791 230.679 75.9637 230.745 76.0343C230.81 76.1049 230.891 76.1596 230.98 76.1944C231.07 76.2291 231.166 76.243 231.262 76.235C231.358 76.2427 231.454 76.2287 231.544 76.194C231.634 76.1593 231.715 76.1047 231.781 76.0344C231.847 75.964 231.897 75.8796 231.927 75.7874C231.956 75.6952 231.965 75.5975 231.952 75.5015C231.966 75.4043 231.958 75.3052 231.929 75.2113C231.901 75.1174 231.852 75.0311 231.785 74.9588C231.719 74.8865 231.638 74.8299 231.548 74.7932C231.457 74.7565 231.359 74.7406 231.262 74.7466Z" fill="white"/>
</g>
<g clip-path="url(#clip2_7013_221925)">
<path d="M146.904 82.5579C146.904 82.5579 151.523 78.7882 152.091 78.7882C152.659 78.7882 172.625 94.5682 175.809 98.6695C177.307 98.4847 180.928 97.4274 180.928 97.4274C180.928 97.4274 158.201 66.2344 155.455 66.2344C152.708 66.2344 130.801 75.1843 130.801 75.1843L132.611 81.5822L146.904 82.5579Z" fill="#1F161E"/>
<path d="M93.1717 65.9461C95.4908 65.9461 97.3708 64.0746 97.3708 61.766C97.3708 59.4574 95.4908 57.5859 93.1717 57.5859C90.8527 57.5859 88.9727 59.4574 88.9727 61.766C88.9727 64.0746 90.8527 65.9461 93.1717 65.9461Z" fill="#EED0C3"/>
<path d="M108.754 73.442C109.434 74.1758 115.216 82.1909 115.162 83.2073C115.107 84.2238 109.66 98.7835 109.207 99.3488C109.832 99.9685 112.382 101.493 113.008 101.493C113.633 101.493 128.996 82.4164 128.996 81.1091C128.996 79.8018 119.492 64.7258 114.01 64.3398" fill="#FB8C00"/>
<path d="M85.3594 56.9667C85.3594 53.3899 88.409 52.1234 90.0526 52.1234C93.2934 52.1234 98.1368 53.5911 101.697 53.5911C107.742 53.5911 111.387 49.1582 115.089 49.1582C120.989 49.1582 124.153 53.0855 125.707 54.17C128.846 56.3606 139.546 57.9261 139.546 65.4899C139.546 72.4178 136.204 76.1685 132.117 76.1685C128.03 76.1685 107.078 68.7786 107.078 68.7786C107.078 68.7786 100.362 66.1694 99.9087 65.6014C99.4555 65.0333 96.5861 63.6445 96.739 59.2741C96.0018 58.755 92.0812 60.4754 89.8533 59.198C89.3622 59.8915 89.0628 60.7013 88.9851 61.5463C88.4445 61.5653 85.3594 60.701 85.3594 56.9667Z" fill="#1F161E"/>
<path d="M88.3422 75.5402C90.7994 67.4192 107.325 63.4919 112.453 63.5816C117.58 63.6713 114.956 69.4495 131.652 73.9938C133.391 76.1681 134.783 88.6214 133.216 92.3449H87.2228C87.2228 92.3449 86.9388 78.0352 88.3422 75.5402Z" fill="#FB8C00"/>
<path d="M101.086 67.0962C101.654 67.8055 99.2267 69.7026 98.6724 68.9987L94.6699 63.9924L97.0862 62.0898L101.086 67.0962Z" fill="#EED0C3"/>
<path d="M176.352 98.2019C176.464 98.5879 177.018 100.89 177.457 101.175C178.255 101.692 182.981 99.9821 183.142 99.6913C183.303 99.4005 183.3 98.8923 183.06 98.8162C182.819 98.7401 180.788 98.9059 180.477 98.7999C180.166 98.6939 179.527 97.8486 179.513 97.2969" fill="#1F161E"/>
<path d="M201.42 88.2036C201.824 88.2036 204.194 88.0161 204.601 88.345C205.338 88.9429 205.147 93.9465 204.912 94.1884C204.677 94.4303 204.194 94.5825 204.046 94.3759C203.899 94.1694 203.443 92.2016 203.246 91.9298C203.05 91.6581 202.048 91.321 201.515 91.476" fill="#1F161E"/>
<path d="M89.7206 64.4691C90.145 64.2048 90.3769 63.812 90.2386 63.5919C90.1002 63.3717 89.644 63.4075 89.2196 63.6718C88.7952 63.9361 88.5633 64.3289 88.7017 64.549C88.84 64.7692 89.2962 64.7334 89.7206 64.4691Z" fill="#EF9A9A"/>
<path d="M94.5468 61.4651C94.9712 61.2008 95.2031 60.8081 95.0647 60.588C94.9264 60.3678 94.4702 60.4036 94.0458 60.6679C93.6214 60.9322 93.3895 61.325 93.5278 61.5451C93.6662 61.7652 94.1224 61.7295 94.5468 61.4651Z" fill="#EF9A9A"/>
<path d="M90.8238 62.082C90.8074 62.3756 90.6081 63.691 91.6046 63.5524" stroke="#1F161E" stroke-width="0.404678" stroke-miterlimit="10" stroke-linecap="round"/>
<path d="M93.7812 63.5871C94.0079 63.4377 94.1881 62.9376 94.2154 62.5625" stroke="#1F161E" stroke-width="0.404678" stroke-miterlimit="10" stroke-linecap="round"/>
<path d="M96.4546 60.3874C97.0638 60.3874 97.5576 59.8958 97.5576 59.2894C97.5576 58.683 97.0638 58.1914 96.4546 58.1914C95.8454 58.1914 95.3516 58.683 95.3516 59.2894C95.3516 59.8958 95.8454 60.3874 96.4546 60.3874Z" fill="#EED0C3"/>
<path d="M83.7552 93.5105C82.7723 92.2276 82.543 89.2081 82.543 87.1072C83.2474 80.3478 85.0002 74.4609 88.6013 68.1826C89.0382 67.5113 90.7145 67.726 91.0258 68.1826C92.0551 72.3871 94.0099 85.8814 88.1891 93.6219C86.7421 93.6219 84.9729 93.5105 83.7552 93.5105Z" fill="#FB8C00"/>
<path d="M89.9587 68.7356C91.0459 68.7356 91.9272 67.8582 91.9272 66.776C91.9272 65.6937 91.0459 64.8164 89.9587 64.8164C88.8716 64.8164 87.9902 65.6937 87.9902 66.776C87.9902 67.8582 88.8716 68.7356 89.9587 68.7356Z" fill="#EED0C3"/>
<path d="M109.993 104.877C111.632 104.877 112.961 103.555 112.961 101.923C112.961 100.291 111.632 98.9688 109.993 98.9688C108.354 98.9688 107.025 100.291 107.025 101.923C107.025 103.555 108.354 104.877 109.993 104.877Z" fill="#EED0C3"/>
<path d="M120.799 92.3472C124.864 87.2511 128.99 81.7909 128.99 81.1169C128.99 80.4891 126.762 76.627 123.84 72.7676" stroke="#1F161E" stroke-width="0.586489" stroke-linecap="round" stroke-linejoin="round"/>
<path d="M108.754 73.4434C109.434 74.1772 115.216 82.1922 115.162 83.2087C115.132 83.7523 113.524 88.2449 111.997 92.3516" stroke="#1F161E" stroke-width="0.586489" stroke-linecap="round" stroke-linejoin="round"/>
<path d="M92.1784 77.9688C92.244 82.7413 91.5696 88.1744 89.0469 92.3518" stroke="#1F161E" stroke-width="0.586489" stroke-linecap="round" stroke-linejoin="round"/>
<path d="M133.457 80.6855C134.708 80.7182 201.759 87.8635 201.759 87.8635V91.6957L133.23 92.3398" fill="#EF9A9A"/>
</g>
<g clip-path="url(#clip3_7013_221925)">
<path d="M62.2737 59.9818L58.8848 58.791L56.2904 66.1746L59.6793 67.3654L62.2737 59.9818Z" fill="#1F161E"/>
<path d="M64.5195 107.097C64.663 107.425 65.4267 109.4 65.8498 109.602C66.6159 109.964 70.5825 107.885 70.6895 107.61C70.7965 107.335 70.7357 106.881 70.5119 106.842C70.2882 106.803 68.5177 107.192 68.2307 107.136C67.9438 107.08 67.2798 106.406 67.202 105.92" fill="#1F161E"/>
<path d="M14.8379 77.1962C14.8379 90.329 19.016 93.0868 23.1723 93.0868C33.7004 93.0868 47.3973 84.643 48.1707 84.3171C47.9275 85.6985 46.3929 120.714 46.3929 120.916C46.7577 121.201 49.5545 121.446 50.4956 121.201C50.7388 120.349 58.1345 78.7016 58.1345 77.6048C58.1345 76.508 57.4973 74.8397 55.0872 74.5989C54.0682 74.4967 39.8922 73.9082 39.8922 73.9082" fill="#1F161E"/>
<path d="M50.5716 67.8848C53.7648 72.5055 68.0235 104.761 67.8971 105.515C67.7706 106.269 64.4923 107.867 63.7992 107.436C60.8589 105.624 42.8063 75.1807 42.1035 74.7211C41.4006 74.2614 40.3476 74.439 39.7201 74.5654C38.0883 71.8538 41.7411 68.6338 50.5716 67.8848Z" fill="#7DBF9D"/>
<path d="M36.2755 41.998C41.0373 41.998 42.4065 46.5069 42.8005 48.2093C44.0603 53.6448 40.5534 74.2997 40.1472 74.8687C36.7011 79.6865 17.002 80.1145 15.0808 78.0279C13.1595 75.9412 23.2644 41.998 36.2755 41.998Z" fill="#99ABC5"/>
<path d="M35.5622 42.9486C35.4333 43.3621 38.7943 44.4078 38.9232 43.9968L40.2268 39.8138L36.8682 38.7656L35.5622 42.9486Z" fill="#EED0C3"/>
<path d="M38.8941 40.8036C38.5658 40.7015 36.18 40.9763 36.0195 41.4919L36.8683 38.7656C37.3912 38.9286 38.8941 40.8036 38.8941 40.8036Z" fill="#1F161E"/>
<path d="M40.7704 41.4764C43.4957 41.4764 45.7049 39.2672 45.7049 36.5419C45.7049 33.8167 43.4957 31.6074 40.7704 31.6074C38.0452 31.6074 35.8359 33.8167 35.8359 36.5419C35.8359 39.2672 38.0452 41.4764 40.7704 41.4764Z" fill="#EED0C3"/>
<path d="M45.6913 39.141C45.7653 38.9038 45.4553 38.596 44.9988 38.4536C44.5424 38.3112 44.1123 38.388 44.0383 38.6252C43.9643 38.8624 44.2743 39.1702 44.7308 39.3126C45.1872 39.455 45.6173 39.3782 45.6913 39.141Z" fill="#EF9A9A"/>
<path d="M40.5038 37.5238C40.5778 37.2866 40.2678 36.9788 39.8113 36.8364C39.3549 36.694 38.9248 36.7708 38.8508 37.008C38.7768 37.2452 39.0868 37.553 39.5433 37.6954C39.9997 37.8378 40.4298 37.761 40.5038 37.5238Z" fill="#EF9A9A"/>
<path d="M43.1334 37.3652C43.2185 37.6328 43.7243 38.805 42.7734 38.9193" stroke="#1F161E" stroke-width="0.291838" stroke-miterlimit="10" stroke-linecap="round"/>
<path d="M40.7685 39.4791C40.5253 39.394 40.2334 38.9757 40.1191 38.6328" stroke="#1F161E" stroke-width="0.291838" stroke-miterlimit="10" stroke-linecap="round"/>
<path d="M42.2638 30.0672C40.9627 29.9042 37.1859 28.7807 36.3274 28C35.9212 28.214 34.3429 29.6319 33.0563 31.5507L34.8828 33.3868L32.5748 32.3216C31.9666 33.3183 31.5485 34.4192 31.3418 35.5683C31.9376 37.1759 33.8078 37.8374 34.1605 37.8812C36.4344 38.1681 37.3075 34.6345 38.4529 34.1967C40.3985 33.4501 42.6894 35.3884 45.5713 35.2668C46.2109 33.9608 45.3792 30.4587 42.2638 30.0672Z" fill="#1F161E"/>
<path d="M36.248 36.8652C36.878 36.8652 37.3886 36.3545 37.3886 35.7246C37.3886 35.0946 36.878 34.584 36.248 34.584C35.6181 34.584 35.1074 35.0946 35.1074 35.7246C35.1074 36.3545 35.6181 36.8652 36.248 36.8652Z" fill="#EED0C3"/>
<path d="M31.3418 53.5656C31.0986 55.088 30.3106 69.4635 32.1978 70.8619C36.2398 73.8556 54.9053 70.1931 57.7337 69.1449C58.0401 68.1429 57.7337 64.9594 57.7337 64.9594C56.6441 64.9157 42.8986 64.7843 42.079 63.7435C41.2594 62.7026 41.1621 54.1931 41.2935 53.2324" fill="#99ABC5"/>
<path d="M59.6338 69.4766C61.0938 69.4766 62.2774 68.293 62.2774 66.833C62.2774 65.373 61.0938 64.1895 59.6338 64.1895C58.1738 64.1895 56.9902 65.373 56.9902 66.833C56.9902 68.293 58.1738 69.4766 59.6338 69.4766Z" fill="#EED0C3"/>
<path d="M42.0753 63.7493C41.246 62.7011 41.1584 54.1989 41.2898 53.2383" stroke="#1F161E" stroke-width="0.243198" stroke-linecap="round" stroke-linejoin="round"/>
<path d="M40.7838 71.9414C36.9753 72.1529 33.6459 71.9414 32.1965 70.8616C31.3696 70.2511 31.0559 67.1552 30.9805 63.7383" stroke="#1F161E" stroke-width="0.243198" stroke-linecap="round" stroke-linejoin="round"/>
</g>
</g>
<defs>
<clipPath id="clip0_7013_221925">
<path d="M0 8C0 3.58172 3.58172 0 8 0H306C310.418 0 314 3.58172 314 8V115H0V8Z" fill="white"/>
</clipPath>
<clipPath id="clip1_7013_221925">
<rect width="298.33" height="45.8427" fill="white" transform="translate(5.66992 65.3789)"/>
</clipPath>
<clipPath id="clip2_7013_221925">
<rect width="122.576" height="55.7165" fill="white" transform="translate(82.5449 49.1582)"/>
</clipPath>
<clipPath id="clip3_7013_221925">
<rect width="55.9016" height="96.326" fill="white" transform="translate(14.8359 28)"/>
</clipPath>
</defs>
</svg>
