<svg width="586" height="160" viewBox="0 0 586 160" fill="none" xmlns="http://www.w3.org/2000/svg">
<rect width="586" height="160" fill="#EAEAEA"/>
<g clip-path="url(#clip0_7013_221896)">
<path d="M520.724 118.467C523.408 118.467 525.983 119.54 527.881 121.45C529.78 123.36 530.846 125.95 530.846 128.651C530.846 131.352 529.78 133.942 527.881 135.851C525.983 137.761 523.408 138.834 520.724 138.834H122.276C119.592 138.834 117.017 137.761 115.119 135.851C113.22 133.942 112.154 131.352 112.154 128.651C112.154 125.95 113.22 123.36 115.119 121.45C117.017 119.54 119.592 118.467 122.276 118.467H520.724ZM520.724 116.301H122.276C119.021 116.301 115.898 117.602 113.596 119.918C111.293 122.234 110 125.375 110 128.651C110 131.926 111.293 135.067 113.596 137.384C115.898 139.7 119.021 141.001 122.276 141.001H520.724C523.979 141.001 527.102 139.7 529.404 137.384C531.707 135.067 533 131.926 533 128.651C533 125.375 531.707 122.234 529.404 119.918C527.102 117.602 523.979 116.301 520.724 116.301Z" fill="#51698F"/>
<path d="M123.139 128.65H422.943" stroke="#D6B689" stroke-width="35" stroke-miterlimit="10" stroke-linecap="round"/>
<path d="M448.357 76H404.42V98.9667H448.357V76Z" fill="#999CBF"/>
<path fill-rule="evenodd" clip-rule="evenodd" d="M426.483 110.858L434.357 97.0176H418.613L426.483 110.858Z" fill="#999CBF"/>
<path d="M423.318 81.4688C425.179 81.4688 426.363 82.7688 426.363 84.3461C426.363 85.9234 425.179 87.1887 423.318 87.1887C421.457 87.1887 420.303 85.9278 420.303 84.3461C420.303 82.7644 421.47 81.4688 423.318 81.4688ZM429.392 81.6378H431.05L423.822 92.9911H422.185L429.392 81.6378ZM423.318 83.2714C422.792 83.2714 422.37 83.5791 422.37 84.3461C422.352 84.4794 422.363 84.6153 422.402 84.7438C422.442 84.8724 422.51 84.9905 422.601 85.0896C422.691 85.1886 422.803 85.2662 422.927 85.3168C423.051 85.3673 423.184 85.3895 423.318 85.3817C423.453 85.3918 423.589 85.3715 423.716 85.3222C423.843 85.2729 423.957 85.196 424.051 85.0969C424.144 84.9978 424.215 84.879 424.257 84.7492C424.3 84.6194 424.313 84.4817 424.296 84.3461C424.317 84.208 424.307 84.0669 424.266 83.9332C424.226 83.7996 424.156 83.6767 424.062 83.5736C423.968 83.4706 423.853 83.3899 423.724 83.3376C423.595 83.2853 423.457 83.2627 423.318 83.2714ZM429.865 87.4791C431.709 87.4791 432.881 88.7531 432.881 90.3521C432.881 91.9511 431.696 93.1948 429.865 93.1948C428.035 93.1948 426.85 91.9381 426.85 90.3521C426.85 88.7661 428.022 87.4791 429.865 87.4791ZM429.865 89.2817C429.323 89.2817 428.901 89.5894 428.901 90.3521C428.88 90.4874 428.89 90.6257 428.93 90.7566C428.97 90.8874 429.039 91.0074 429.132 91.1075C429.225 91.2076 429.339 91.2852 429.466 91.3345C429.593 91.3838 429.73 91.4035 429.865 91.3921C430.002 91.4031 430.138 91.3832 430.266 91.334C430.393 91.2848 430.508 91.2074 430.602 91.1076C430.696 91.0078 430.766 90.8882 430.808 90.7574C430.85 90.6267 430.862 90.4882 430.843 90.3521C430.863 90.2143 430.853 90.0737 430.812 89.9406C430.771 89.8075 430.701 89.6852 430.608 89.5826C430.514 89.4801 430.399 89.3998 430.27 89.3478C430.142 89.2957 430.004 89.2732 429.865 89.2817Z" fill="white"/>
</g>
<g clip-path="url(#clip1_7013_221896)">
<path d="M310.258 100.358C310.258 100.358 316.808 95.0129 317.613 95.0129C318.418 95.0129 346.728 117.387 351.242 123.202C353.367 122.94 358.5 121.441 358.5 121.441C358.5 121.441 326.277 77.2129 322.382 77.2129C318.488 77.2129 287.426 89.903 287.426 89.903L289.992 98.9745L310.258 100.358Z" fill="#1F161E"/>
<path d="M234.075 76.805C237.363 76.805 240.029 74.1514 240.029 70.8781C240.029 67.6047 237.363 64.9512 234.075 64.9512C230.787 64.9512 228.121 67.6047 228.121 70.8781C228.121 74.1514 230.787 76.805 234.075 76.805Z" fill="#EED0C3"/>
<path d="M256.164 87.4332C257.128 88.4737 265.327 99.8382 265.25 101.279C265.172 102.721 257.449 123.365 256.807 124.166C257.693 125.045 261.309 127.207 262.195 127.207C263.082 127.207 284.865 100.158 284.865 98.3044C284.865 96.4508 271.389 75.0746 263.616 74.5273" fill="#FB8C00"/>
<path d="M222.998 64.0716C222.998 59.0001 227.322 57.2043 229.653 57.2043C234.248 57.2043 241.115 59.2853 246.163 59.2853C254.734 59.2853 259.902 53 265.151 53C273.517 53 278.003 58.5685 280.206 60.1061C284.658 63.2122 299.829 65.4319 299.829 76.1566C299.829 85.9796 295.091 91.2977 289.296 91.2977C283.501 91.2977 253.793 80.8196 253.793 80.8196C253.793 80.8196 244.27 77.12 243.628 76.3146C242.985 75.5092 238.916 73.54 239.133 67.3433C238.088 66.6073 232.529 69.0466 229.37 67.2354C228.674 68.2187 228.249 69.3669 228.139 70.565C227.372 70.592 222.998 69.3665 222.998 64.0716Z" fill="#1F161E"/>
<path d="M227.224 90.4074C230.708 78.8927 254.14 73.3242 261.41 73.4513C268.68 73.5785 264.96 81.7714 288.632 88.2147C291.098 91.2976 293.073 108.955 290.851 114.235H225.637C225.637 114.235 225.234 93.9451 227.224 90.4074Z" fill="#FB8C00"/>
<path d="M245.295 78.4344C246.1 79.4402 242.658 82.13 241.872 81.1319L236.197 74.0335L239.623 71.3359L245.295 78.4344Z" fill="#EED0C3"/>
<path d="M352.012 122.539C352.17 123.086 352.956 126.35 353.58 126.755C354.71 127.487 361.411 125.063 361.639 124.651C361.868 124.239 361.864 123.518 361.523 123.41C361.183 123.302 358.302 123.537 357.861 123.387C357.42 123.237 356.514 122.038 356.495 121.256" fill="#1F161E"/>
<path d="M387.557 108.363C388.13 108.363 391.49 108.097 392.067 108.563C393.112 109.411 392.841 116.505 392.508 116.848C392.175 117.191 391.49 117.407 391.281 117.114C391.072 116.821 390.425 114.031 390.146 113.646C389.868 113.261 388.447 112.783 387.692 113.002" fill="#1F161E"/>
<path d="M229.179 74.7096C229.781 74.3349 230.109 73.778 229.913 73.4659C229.717 73.1537 229.07 73.2045 228.468 73.5793C227.867 73.954 227.538 74.5109 227.734 74.823C227.93 75.1352 228.577 75.0844 229.179 74.7096Z" fill="#EF9A9A"/>
<path d="M236.023 70.4518C236.624 70.0771 236.953 69.5202 236.757 69.2081C236.561 68.8959 235.914 68.9467 235.312 69.3214C234.71 69.6962 234.382 70.253 234.578 70.5652C234.774 70.8773 235.421 70.8266 236.023 70.4518Z" fill="#EF9A9A"/>
<path d="M230.743 71.3242C230.72 71.7404 230.437 73.6056 231.85 73.409" stroke="#1F161E" stroke-width="0.573789" stroke-miterlimit="10" stroke-linecap="round"/>
<path d="M234.936 73.4587C235.257 73.2467 235.512 72.5377 235.551 72.0059" stroke="#1F161E" stroke-width="0.573789" stroke-miterlimit="10" stroke-linecap="round"/>
<path d="M238.726 68.9223C239.59 68.9223 240.29 68.2253 240.29 67.3655C240.29 66.5056 239.59 65.8086 238.726 65.8086C237.862 65.8086 237.162 66.5056 237.162 67.3655C237.162 68.2253 237.862 68.9223 238.726 68.9223Z" fill="#EED0C3"/>
<path d="M220.721 115.888C219.327 114.069 219.002 109.788 219.002 106.809C220.001 97.2251 222.486 88.8781 227.592 79.9762C228.211 79.0243 230.588 79.3287 231.03 79.9762C232.489 85.9378 235.261 105.071 227.008 116.046C224.956 116.046 222.447 115.888 220.721 115.888Z" fill="#FB8C00"/>
<path d="M229.516 80.7581C231.057 80.7581 232.307 79.5142 232.307 77.9797C232.307 76.4451 231.057 75.2012 229.516 75.2012C227.974 75.2012 226.725 76.4451 226.725 77.9797C226.725 79.5142 227.974 80.7581 229.516 80.7581Z" fill="#EED0C3"/>
<path d="M257.923 132.005C260.247 132.005 262.131 130.129 262.131 127.816C262.131 125.502 260.247 123.627 257.923 123.627C255.599 123.627 253.715 125.502 253.715 127.816C253.715 130.129 255.599 132.005 257.923 132.005Z" fill="#EED0C3"/>
<path d="M273.244 114.238C279.008 107.013 284.858 99.2707 284.858 98.315C284.858 97.4248 281.699 91.9488 277.557 86.4766" stroke="#1F161E" stroke-width="0.831579" stroke-linecap="round" stroke-linejoin="round"/>
<path d="M256.164 87.4316C257.128 88.4721 265.327 99.8366 265.25 101.278C265.207 102.049 262.927 108.419 260.763 114.242" stroke="#1F161E" stroke-width="0.831579" stroke-linecap="round" stroke-linejoin="round"/>
<path d="M232.663 93.8496C232.756 100.617 231.8 108.32 228.223 114.243" stroke="#1F161E" stroke-width="0.831579" stroke-linecap="round" stroke-linejoin="round"/>
<path d="M291.192 97.7031C292.965 97.7494 388.037 107.881 388.037 107.881V113.314L290.871 114.228" fill="#EF9A9A"/>
</g>
<g clip-path="url(#clip2_7013_221896)">
<path d="M190.26 68.3446L185.455 66.6562L181.777 77.1254L186.582 78.8138L190.26 68.3446Z" fill="#1F161E"/>
<path d="M193.441 135.151C193.645 135.617 194.728 138.417 195.328 138.703C196.414 139.217 202.038 136.269 202.19 135.879C202.341 135.489 202.255 134.845 201.938 134.789C201.621 134.734 199.11 135.286 198.703 135.207C198.297 135.127 197.355 134.172 197.245 133.482" fill="#1F161E"/>
<path d="M123 92.7558C123 111.377 128.924 115.287 134.817 115.287C149.745 115.287 169.166 103.315 170.262 102.852C169.917 104.811 167.742 154.46 167.742 154.746C168.259 155.149 172.224 155.498 173.559 155.149C173.904 153.942 184.39 94.8903 184.39 93.3352C184.39 91.78 183.487 89.4144 180.069 89.0731C178.624 88.9282 158.524 88.0938 158.524 88.0938" fill="#1F161E"/>
<path d="M173.665 79.5527C178.192 86.1045 198.41 131.839 198.231 132.908C198.051 133.977 193.403 136.243 192.42 135.632C188.251 133.063 162.654 89.8976 161.658 89.2459C160.661 88.5942 159.168 88.8459 158.279 89.0252C155.965 85.1803 161.144 80.6148 173.665 79.5527Z" fill="#7DBF9D"/>
<path d="M153.397 42.8477C160.149 42.8477 162.09 49.2408 162.649 51.6546C164.435 59.3615 159.462 88.6479 158.887 89.4548C154 96.2859 126.069 96.8928 123.345 93.9341C120.621 90.9755 134.949 42.8477 153.397 42.8477Z" fill="#99ABC5"/>
<path d="M169.049 154.035C168.959 154.535 168.283 157.463 168.621 158.035C169.228 159.07 175.542 159.783 175.887 159.546C176.232 159.308 176.518 158.725 176.29 158.511C176.063 158.297 173.67 157.339 173.376 157.042C173.083 156.746 172.839 155.428 173.139 154.794" fill="#1F161E"/>
<path d="M152.386 44.1967C152.203 44.7829 156.969 46.2657 157.152 45.6829L159 39.7518L154.238 38.2656L152.386 44.1967Z" fill="#EED0C3"/>
<path d="M157.111 41.1553C156.646 41.0105 153.263 41.4001 153.035 42.1312L154.239 38.2656C154.98 38.4967 157.111 41.1553 157.111 41.1553Z" fill="#1F161E"/>
<path d="M159.77 42.1065C163.634 42.1065 166.767 38.974 166.767 35.1099C166.767 31.2458 163.634 28.1133 159.77 28.1133C155.906 28.1133 152.773 31.2458 152.773 35.1099C152.773 38.974 155.906 42.1065 159.77 42.1065Z" fill="#EED0C3"/>
<path d="M166.747 38.7962C166.852 38.4599 166.412 38.0235 165.765 37.8215C165.118 37.6196 164.508 37.7285 164.403 38.0649C164.298 38.4012 164.738 38.8375 165.385 39.0395C166.032 39.2414 166.642 39.1325 166.747 38.7962Z" fill="#EF9A9A"/>
<path d="M159.391 36.5013C159.496 36.1649 159.057 35.7286 158.409 35.5266C157.762 35.3247 157.152 35.4336 157.047 35.7699C156.942 36.1063 157.382 36.5426 158.029 36.7446C158.676 36.9465 159.286 36.8376 159.391 36.5013Z" fill="#EF9A9A"/>
<path d="M163.118 36.2793C163.238 36.6586 163.956 38.3207 162.607 38.4828" stroke="#1F161E" stroke-width="0.413795" stroke-miterlimit="10" stroke-linecap="round"/>
<path d="M159.766 39.2762C159.422 39.1555 159.008 38.5624 158.846 38.0762" stroke="#1F161E" stroke-width="0.413795" stroke-miterlimit="10" stroke-linecap="round"/>
<path d="M161.887 25.931C160.042 25.7 154.687 24.1069 153.469 23C152.894 23.3034 150.656 25.3138 148.831 28.0345L151.421 30.638L148.149 29.1276C147.286 30.5408 146.693 32.1017 146.4 33.7311C147.245 36.0104 149.897 36.9483 150.397 37.0104C153.621 37.4173 154.859 32.4069 156.483 31.7863C159.242 30.7276 162.49 33.4759 166.576 33.3035C167.483 31.4518 166.304 26.4862 161.887 25.931Z" fill="#1F161E"/>
<path d="M153.356 35.5685C154.249 35.5685 154.973 34.8444 154.973 33.9512C154.973 33.0581 154.249 32.334 153.356 32.334C152.462 32.334 151.738 33.0581 151.738 33.9512C151.738 34.8444 152.462 35.5685 153.356 35.5685Z" fill="#EED0C3"/>
<path d="M146.399 59.2478C146.054 61.4064 144.937 81.7893 147.613 83.7721C153.344 88.0169 179.81 82.8238 183.82 81.3376C184.255 79.9169 183.82 75.4031 183.82 75.4031C182.275 75.341 162.785 75.1548 161.623 73.6789C160.461 72.203 160.323 60.1375 160.51 58.7754" fill="#99ABC5"/>
<path d="M186.518 81.811C188.588 81.811 190.266 80.1329 190.266 78.0627C190.266 75.9926 188.588 74.3145 186.518 74.3145C184.448 74.3145 182.77 75.9926 182.77 78.0627C182.77 80.1329 184.448 81.811 186.518 81.811Z" fill="#EED0C3"/>
<path d="M161.622 73.6906C160.446 72.2044 160.322 60.1492 160.508 58.7871" stroke="#1F161E" stroke-width="0.344829" stroke-linecap="round" stroke-linejoin="round"/>
<path d="M159.791 85.303C154.391 85.603 149.67 85.303 147.615 83.7719C146.442 82.9064 145.998 78.5167 145.891 73.6719" stroke="#1F161E" stroke-width="0.344829" stroke-linecap="round" stroke-linejoin="round"/>
</g>
<defs>
<clipPath id="clip0_7013_221896">
<rect width="423" height="65" fill="white" transform="translate(110 76)"/>
</clipPath>
<clipPath id="clip1_7013_221896">
<rect width="173.8" height="79" fill="white" transform="translate(219 53)"/>
</clipPath>
<clipPath id="clip2_7013_221896">
<rect width="79.2625" height="136.58" fill="white" transform="translate(123 23)"/>
</clipPath>
</defs>
</svg>
