<svg width="958" height="140" xmlns="http://www.w3.org/2000/svg"><g fill="#FFF" fill-rule="evenodd"><path d="M233.7 43.6c-3.1.2-5.3.2-8.8.2-3.2 0-6.4-.1-9.2-.2-.8.2-.9 1.7-.2 2.3l1.7.2c2.1.3 3.4.9 4.1 2.2 1.5 2.4 1.6 10.1 1.6 16.3V75c0 12.6-4.5 20.8-15.4 20.8-11.5 0-15-9.6-15-21.1v-19c0-8.8.7-9.1 4.6-9.6l1.8-.2c.6-.6.5-2-.2-2.3-3.7.2-7.4.2-11.1.2-3.7 0-7.4-.1-10.7-.2-.7.3-.7 1.7-.2 2.3l1.4.2c3.9.7 4.6.8 4.6 9.6v21.1c0 8.4 1.7 14.2 5.5 17.8 3.8 3.7 9.3 5.3 17.1 5.3 5.7 0 12-1.6 16.3-6.2 4.3-4.6 5.5-11.6 5.5-19.2v-9.9c0-6.6 0-13.9 1.2-16.3.6-1.3 2.1-1.7 3.7-2l1.8-.4c.7-.6.6-1.9-.1-2.3zM259.2 93.6c-1.3.9-2.3 1.5-4 1.5-5.3 0-6.1-4.6-6.1-9.9V72.4c0-2.7.1-2.8 1.6-2.8h7.9c.7-.4 1-1.2 1.1-2.2 0-.8-.2-1.5-.7-1.7h-8.2c-1.6 0-1.6-.2-1.6-1.6v-5c-.4-.7-1.6-.9-2.3-.4-1.2 2.2-3 4-4.6 5.1-1.8 1.3-3.7 2.4-6.6 3.5-.7.5-.6 1.8.2 2.2h2.9c1.3 0 1.5.1 1.5 3v16.8c0 5.8 1.4 10.4 9.3 10.4 5.1 0 8.9-2.2 10.5-4.6.3-.8-.2-1.5-.9-1.5z"/><path d="M299.3 95.2c-1.4 0-2-2.6-2-10.1V52c0-3.6.1-8.7.2-12-.2-.4-.7-.7-1.2-.7-3.3 1.3-7.6 3.1-10.9 4-.6.2-.5 1.6 0 1.9l1.2.7c1.7 1.2 1.9 1.7 1.9 7.2V64c0 .9-.2 1.2-.5 1.3-1.1-.3-2.7-.6-4.8-.6-10.4 0-19.9 7.1-19.9 19.1 0 8.3 5.9 15.9 15.4 15.9 4 0 7.1-1.9 9.5-3.7l.4.1c.2.4.2 1.1.1 2.3l-.2 1.2c.2.5.6.8 1 .9 3-1.3 8.9-2.7 13.1-3.2.9-.5.7-2.5.1-3-1.2.7-2.5.9-3.4.9zm-10.7-4.5c0 1.2-.2 1.9-.6 2.3-.7.7-2.9 1.8-4.9 1.8-5.9 0-10.4-5.6-10.4-14.2 0-7 3.6-12.5 9.2-12.5 2.6 0 4.4 1.2 5.6 2.8.8 1.2 1.1 2.3 1.1 4v15.8zM339.3 94.5c-.2 0-1.4.9-2.8.9-3 0-4.2-2.5-4-7.3l.6-12.9c.3-7.3-3.7-10.4-10.3-10.4-4.2 0-10.2 2.8-12.8 5.2-2.7 2.6-3.2 4.3-3.2 5.3 0 .7.5 1.3 1.6 1.3 1.8 0 4.1-.7 5.3-1.5.9-.6 1.4-1.4 1.6-3 .3-2.4 2.1-3.7 4.4-3.7 4.1 0 5.2 3.7 5.1 7.9l-.1 2.2c0 .8-.2 1.6-1.9 2.2-3.1 1.2-6.2 2.3-9.1 3.3-5.7 2-6.9 4.7-6.9 7.7 0 4.2 2.8 8.1 8.5 8.1 3 0 5.5-1.2 7.1-2.2 1.2-.7 1.8-1.2 2.2-1.2.4 0 .7.4 1.3 1 1.6 1.7 3.9 2.3 6 2.3 2.6 0 6.6-1.3 8.3-3.7.1-.6-.5-1.5-.9-1.5zm-15.1-3.3c-.1 2-1 4-4 4-3.2 0-4.6-2.7-4.6-4.8 0-3.6 2.2-4.7 4.5-5.6 1.5-.6 3-1 3.7-1 .4 0 .7.5.7 1.4l-.3 6z" fill-rule="nonzero"/><path d="M380.7 96.2c-2.8-.3-3.2-1.3-3.2-7.5V75.9c0-6.5-3.2-11.1-9.9-11.1-5.1 0-7.5 2-11.4 4.2-.5-.1-.7-.2-.7-.8 0-.7 0-2.2.2-3.8-.2-.3-.5-.7-1.1-.7-2.7 1.5-7.2 3.5-10.8 4.5-.3.4-.3 1.6-.1 1.9l1 .6c2.1 1.2 2.1 2.2 2.1 6v12.2c0 6.1-.3 7.1-3.2 7.5l-1.8.2c-.6.6-.5 2.1.2 2.4 3.5-.2 6.3-.2 9-.2 3.1 0 5.9.1 8.8.2.7-.3.7-1.8.2-2.4l-1.2-.2c-2.8-.4-3.2-1.4-3.2-7.6V77.6c0-3.1.1-3.8 1.2-5.3.8-1.2 2.9-2.6 5.5-2.6 5 0 6.6 3.3 6.6 7.6v11.5c0 6.1-.3 7.1-3.2 7.6l-1.2.2c-.6.6-.5 2.1.2 2.4 2.9-.2 5.7-.2 8.5-.2 3.1 0 5.9.1 9.4.2.7-.3.7-1.8.2-2.4l-2.1-.4zM425.6 96.2c-2.8-.3-3.2-1.3-3.2-7.5V75.9c0-6.5-3.2-11.1-9.9-11.1-5.1 0-7.5 2-11.4 4.2-.5-.1-.7-.2-.7-.8 0-.7 0-2.2.2-3.8-.2-.3-.5-.7-1.1-.7-2.7 1.5-7.2 3.5-10.8 4.5-.3.4-.3 1.6-.1 1.9l1 .6c2.1 1.2 2.1 2.2 2.1 6v12.2c0 6.1-.3 7.1-3.2 7.5l-1.8.2c-.6.6-.5 2.1.2 2.4 3.5-.2 6.3-.2 9-.2 3.1 0 5.9.1 8.8.2.7-.3.7-1.8.2-2.4l-1.2-.2c-2.8-.4-3.2-1.4-3.2-7.6V77.6c0-3.1.1-3.8 1.2-5.3.8-1.2 2.9-2.6 5.5-2.6 5 0 6.6 3.3 6.6 7.6v11.5c0 6.1-.3 7.1-3.2 7.6l-1.2.2c-.6.6-.5 2.1.2 2.4 2.9-.2 5.7-.2 8.5-.2 3.1 0 5.9.1 9.4.2.7-.3.7-1.8.2-2.4l-2.1-.4zM448.6 96.3c-2.8-.5-3.2-1.3-3.2-7.5V74.5c0-3.4.1-7.4.2-10.1-.2-.4-.7-.6-1.2-.7-2.3 1.4-6.5 3.2-10.8 4.5-.3.4-.3 1.6-.1 1.9l1 .6c2.1 1.2 2.1 2.2 2.1 6v12.2c0 6.1-.3 7-3.2 7.5l-1.5.2c-.6.6-.5 2.1.2 2.4 3.2-.2 6-.2 8.7-.2 3.1 0 5.9.1 9 .2.7-.3.7-1.8.2-2.4l-1.4-.3z"/><ellipse cx="441" cy="48.5" rx="5.1" ry="5"/><path d="M493.4 96.2c-2.8-.3-3.2-1.3-3.2-7.5V75.9c0-6.5-3.2-11.1-9.9-11.1-5.1 0-7.5 2-11.4 4.2-.5-.1-.7-.2-.7-.8 0-.7 0-2.2.2-3.8-.2-.3-.5-.7-1.1-.7-2.7 1.5-7.2 3.5-10.8 4.5-.3.4-.3 1.6-.1 1.9l1 .6c2.1 1.2 2.1 2.2 2.1 6v12.2c0 6.1-.3 7.1-3.2 7.5l-1.8.2c-.6.6-.5 2.1.2 2.4 3.5-.2 6.3-.2 9-.2 3.1 0 5.9.1 8.8.2.7-.3.7-1.8.2-2.4l-1.2-.2c-2.8-.4-3.2-1.4-3.2-7.6V77.6c0-3.1.1-3.8 1.2-5.3.8-1.2 2.9-2.6 5.5-2.6 5 0 6.6 3.3 6.6 7.6v11.5c0 6.1-.3 7.1-3.2 7.6l-1.2.2c-.6.6-.5 2.1.2 2.4 2.9-.2 5.7-.2 8.5-.2 3.1 0 5.9.1 9.4.2.7-.3.7-1.8.2-2.4l-2.1-.4z"/><path d="M536.7 69.2c0-.7-.3-1.2-.7-1.5h-8.1c-1 0-1.9-.4-3.7-1.2-2.2-1.1-5.1-1.7-8.4-1.7-9 0-15.2 5.6-15.2 13.1 0 5.4 3.3 8.7 6.1 9.9.3.2.3.7.3.9 0 1.2-4.1 3.7-5.3 4.4-1 .6-1.3 1.2-1.3 2.1 0 3.2 2.6 5.9 5.5 6.9.7.2.2 1.3-.5 1.8-1.2 1.1-4.4 2.9-5.1 3.7-1 1.2-1.2 2.3-1.2 3.6 0 4.3 3.8 9.8 15.5 9.8 7.1 0 12.4-2.5 16.1-5.5 2.2-1.7 5.2-5.8 5.2-10.1 0-9-7.6-10-13.5-10-3.6 0-6.7.2-9.1.2-3.4 0-4.6-1.6-4.6-3.2 0-1.5 1.2-2.6 2.6-3.2 1.1.2 2.2.3 3.2.3 10.5 0 15.2-6.7 15.2-13.7 0-1.8-.2-2.7-.4-3.6h6.1c.7-.3 1.3-1.3 1.3-3zm-26.9 34.5c1-.7 2.7-1 5.6-1h4.7c5.1 0 9 2.1 9 6.3 0 4.8-4 7.7-11 7.7-6.4 0-10.9-3.3-10.9-8.4.1-2 1.2-3.5 2.6-4.6zm6.3-17.5c-3.2 0-6.1-3.4-6.1-9.8 0-5.7 2.6-8.5 5.5-8.5 3.7 0 6.1 4.1 6.1 9.7 0 5.8-2.4 8.6-5.5 8.6z" fill-rule="nonzero"/><path d="M553.6 77.9c-3.2-1.5-5.6-3.2-5.6-5.6 0-2.4 2-4.3 4.6-4.3 3.2 0 5.9 3.2 7.1 7 .6.5 2 .2 2.2-.4 0-3.7-.4-6.3-1.2-8.1-1.2-.7-4.3-1.7-7.7-1.7-6.9 0-12.4 3.8-12.4 10.3 0 5.3 4.5 8.4 8.8 10.5 2.9 1.4 5.6 3.4 5.6 6.5 0 2.9-2.1 4.6-4.6 4.6-4.4 0-7.5-4.4-9-9-.6-.6-1.8-.5-2.3.2-.2 3.6.3 7.8 1.2 9.4 2.7 2 6.1 2.7 9.5 2.7 6.6 0 12.9-3.2 12.9-10.4.1-6.7-4.6-9.6-9.1-11.7z"/><path d="M604.2 95.2c-1.4 0-2-2.6-2-10.1V52c0-3.6.1-8.7.2-12-.2-.4-.7-.7-1.2-.7-3.3 1.3-7.6 3.1-10.9 4-.6.2-.5 1.6 0 1.9l1.2.7c1.7 1.2 1.9 1.7 1.9 7.2V64c0 .9-.2 1.2-.5 1.3-1.1-.3-2.7-.6-4.8-.6-10.4 0-19.9 7.1-19.9 19.1 0 8.3 5.9 15.9 15.4 15.9 4 0 7.1-1.9 9.5-3.7l.4.1c.2.4.2 1.1.1 2.3l-.2 1.2c.2.5.6.8 1 .9 3-1.3 8.9-2.7 13.1-3.2.9-.5.7-2.5.1-3-1.1.7-2.5.9-3.4.9zm-10.7-4.5c0 1.2-.2 1.9-.6 2.3-.7.7-2.9 1.8-4.9 1.8-5.9 0-10.4-5.6-10.4-14.2 0-7 3.6-12.5 9.2-12.5 2.6 0 4.4 1.2 5.6 2.8.8 1.2 1.1 2.3 1.1 4v15.8z" fill-rule="nonzero"/><path d="M628.2 96.3c-2.8-.5-3.2-1.3-3.2-7.5V74.5c0-3.4.1-7.4.2-10.1-.2-.4-.7-.6-1.2-.7-2.3 1.4-6.5 3.2-10.8 4.5-.3.4-.3 1.6-.1 1.9l1 .6c2.1 1.2 2.1 2.2 2.1 6v12.2c0 6.1-.3 7-3.2 7.5l-1.5.2c-.6.6-.5 2.1.2 2.4 3.2-.2 6-.2 8.7-.2 3.1 0 5.9.1 9 .2.7-.3.7-1.8.2-2.4l-1.4-.3z"/><ellipse cx="620.6" cy="48.5" rx="5.1" ry="5"/><path d="M656.7 64.8c-2.8 0-5.6 2.5-8.1 4.3-.5 0-.8-.4-.8-1 0-.7.1-2.2.2-3.7-.2-.5-.7-.7-1.2-.7-2.5 1.5-6.9 3.3-10.5 4.5-.3.4-.3 1.6-.1 1.9l1 .6c2.1 1.2 2.1 2.2 2.1 6v12.2c0 6.1-.3 7-3.2 7.5l-1.5.2c-.6.6-.5 2.1.2 2.4 3.2-.2 5.9-.2 8.6-.2 3.1 0 5.9.1 10.9.2.7-.3.7-1.8.2-2.4l-3.2-.3c-2.9-.3-3.2-1.2-3.2-7.4V77.4c0-4.1.5-6 2.4-6 .5 0 1.9.2 4 1.6.7.4 1.4.7 2.2.7 2.2 0 4.6-1.6 4.6-4.8-.1-2.2-1.7-4.1-4.6-4.1z"/><path d="M690.6 89.3c-1.9 3.1-4.6 4.1-8 4.1-7.4 0-12.5-6-12.5-13.4 0-1 .2-1.1 1.7-1.1h14.4c3.3 0 5.2-.3 5.7-1.1.3-.7.4-1.2.4-1.9 0-7.2-6.3-11.2-12.4-11.2-11.1 0-17.5 9-17.5 18.4 0 9.5 6.4 16.6 16 16.6 5.1 0 11.2-2.5 14-9.1 0-.7-.9-1.5-1.8-1.3zm-11.7-21.4c3.6 0 5.5 2.4 5.5 5.4 0 .7-.3 1.4-.8 1.7-.6.3-1.7.6-4.1.6H672c-1 0-1.2-.2-1.2-.6 0-1.7 2.6-7.1 8.1-7.1z" fill-rule="nonzero"/><path d="M736.4 96.4c-1.5-.2-3.2-.7-4.7-2.2-3-2.8-8.5-10.6-11.9-15.3-.4-.5-.5-1.1 0-1.7 1.3-1.4 4.1-3.8 7.1-6.4 1.9-1.7 3.3-2.3 6.1-2.8l1.5-.2c.6-.7.6-2.2-.2-2.5-4.4.5-9.3.7-12.9.7H719c-.9.4-.9 1.9-.2 2.5l2.2.2c1 .1 1.3.4 1.3.8s-.7 1.3-2.4 3.2l-3.2 3.6c-2.4 2.6-4 3.2-5.4 3.2-1.6 0-1.8-.2-1.8-1.2V52c0-3.6.1-8.7.2-12-.2-.4-.7-.7-1.2-.7-3.4 1.3-7.7 3.1-10.9 4-.6.2-.5 1.6 0 1.9l.9.6c2.1 1.3 2.2 1.8 2.2 7.4v35.6c0 6.1-.3 7.1-3.2 7.5l-1.7.2c-.6.6-.5 2.1.2 2.4 3.4-.2 6.2-.2 8.9-.2 3.1 0 5.9.1 9.4.2.7-.3.7-1.8.2-2.4l-1.8-.2c-2.8-.4-3.2-1.3-3.2-7.5v-4c0-2.2.2-2.6 1.2-2.6.5 0 1.6.2 2.6 1.7l6.8 9.5c.7 1 1 1.6 1 2 0 .4-.7.8-1.6 1l-.8.1c-.7.6-.7 2 .2 2.4 3.4-.2 5.6-.2 9-.2 3.4 0 6.5.1 9.2.2.7-.3.7-1.7.2-2.4l-.9-.1zM761 93.6c-1.3.9-2.3 1.5-4 1.5-5.3 0-6.1-4.6-6.1-9.9V72.4c0-2.7.1-2.8 1.6-2.8h7.9c.7-.4 1-1.2 1.1-2.2 0-.8-.2-1.5-.7-1.7h-8.2c-1.6 0-1.6-.2-1.6-1.6v-5c-.4-.7-1.6-.9-2.3-.4-1.2 2.2-3 4-4.6 5.1-1.8 1.3-3.7 2.4-6.6 3.5-.7.5-.6 1.8.2 2.2h2.9c1.3 0 1.5.1 1.5 3v16.8c0 5.8 1.4 10.4 9.3 10.4 5.1 0 8.9-2.2 10.5-4.6.4-.8-.1-1.5-.9-1.5z"/><path d="M783.3 64.8c-9.7 0-18.2 7-18.2 18.1 0 10.9 8 16.9 17.5 16.9 9.9 0 18.2-6.1 18.2-17.9 0-10.8-8.1-17.1-17.5-17.1zm.4 31.7c-6 0-8.7-7.3-8.7-14.9 0-9.2 3.3-13.5 7.6-13.5 6.1 0 8.5 8.2 8.5 15.2 0 6.4-1.7 13.2-7.4 13.2z" fill-rule="nonzero"/><path d="M828.9 64.8c-2.8 0-5.6 2.5-8.1 4.3-.5 0-.8-.4-.8-1 0-.7.1-2.2.2-3.7-.2-.5-.7-.7-1.2-.7-2.5 1.5-6.9 3.3-10.5 4.5-.3.4-.3 1.6-.1 1.9l1 .6c2.1 1.2 2.1 2.2 2.1 6v12.2c0 6.1-.3 7-3.2 7.5l-1.5.2c-.6.6-.5 2.1.2 2.4 3.2-.2 5.9-.2 8.6-.2 3.1 0 5.9.1 10.9.2.7-.3.7-1.8.2-2.4l-3.2-.3c-2.9-.3-3.2-1.2-3.2-7.4V77.4c0-4.1.5-6 2.4-6 .5 0 1.9.2 4 1.6.7.4 1.4.7 2.2.7 2.2 0 4.6-1.6 4.6-4.8 0-2.2-1.7-4.1-4.6-4.1z"/><path d="M869 94.5c-.2 0-1.4.9-2.8.9-3 0-4.2-2.5-4-7.3l.6-12.9c.3-7.3-3.7-10.4-10.3-10.4-4.2 0-10.2 2.8-12.8 5.2-2.7 2.6-3.2 4.3-3.2 5.3 0 .7.5 1.3 1.6 1.3 1.8 0 4.1-.7 5.3-1.5.9-.6 1.4-1.4 1.6-3 .3-2.4 2.1-3.7 4.4-3.7 4.1 0 5.2 3.7 5.1 7.9l-.1 2.2c0 .8-.2 1.6-1.9 2.2-3.1 1.2-6.2 2.3-9.1 3.3-5.7 2-6.9 4.7-6.9 7.7 0 4.2 2.8 8.1 8.5 8.1 3 0 5.5-1.2 7.1-2.2 1.2-.7 1.8-1.2 2.2-1.2.4 0 .7.4 1.3 1 1.6 1.7 3.9 2.3 6 2.3 2.6 0 6.6-1.3 8.3-3.7.1-.6-.5-1.5-.9-1.5zm-15.1-3.3c-.1 2-1 4-4 4-3.2 0-4.6-2.7-4.6-4.8 0-3.6 2.2-4.7 4.5-5.6 1.5-.6 3-1 3.7-1 .4 0 .7.5.7 1.4l-.3 6z" fill-rule="nonzero"/><path d="M895 93.6c-1.3.9-2.3 1.5-4 1.5-5.3 0-6.1-4.6-6.1-9.9V72.4c0-2.7.1-2.8 1.6-2.8h7.9c.7-.4 1-1.2 1.1-2.2 0-.8-.2-1.5-.7-1.7h-8.2c-1.6 0-1.6-.2-1.6-1.6v-5c-.4-.7-1.6-.9-2.3-.4-1.2 2.2-3 4-4.6 5.1-1.8 1.3-3.7 2.4-6.6 3.5-.7.5-.6 1.8.2 2.2h2.9c1.3 0 1.5.1 1.5 3v16.8c0 5.8 1.4 10.4 9.3 10.4 5.1 0 8.9-2.2 10.5-4.6.3-.8-.2-1.5-.9-1.5z"/><path d="M927.3 89.3c-1.9 3.1-4.6 4.1-8 4.1-7.4 0-12.5-6-12.5-13.4 0-1 .2-1.1 1.7-1.1h14.4c3.3 0 5.2-.3 5.7-1.1.3-.7.4-1.2.4-1.9 0-7.2-6.3-11.2-12.4-11.2-11.1 0-17.5 9-17.5 18.4 0 9.5 6.4 16.6 16 16.6 5.1 0 11.2-2.5 14-9.1 0-.7-.9-1.5-1.8-1.3zm-11.7-21.4c3.6 0 5.5 2.4 5.5 5.4 0 .7-.3 1.4-.8 1.7-.6.3-1.7.6-4.1.6h-7.6c-1 0-1.2-.2-1.2-.6.1-1.7 2.7-7.1 8.2-7.1z" fill-rule="nonzero"/><path d="M956.9 93.6c-1.3.9-2.3 1.5-4 1.5-5.3 0-6.1-4.6-6.1-9.9V72.4c0-2.7.1-2.8 1.6-2.8h7.9c.7-.4 1-1.2 1.1-2.2 0-.8-.2-1.5-.7-1.7h-8.2c-1.6 0-1.6-.2-1.6-1.6v-5c-.4-.7-1.6-.9-2.3-.4-1.2 2.2-3 4-4.6 5.1-1.8 1.3-3.7 2.4-6.6 3.5-.7.5-.6 1.8.2 2.2h2.9c1.3 0 1.5.1 1.5 3v16.8c0 5.8 1.4 10.4 9.3 10.4 5.1 0 8.9-2.2 10.5-4.6.3-.8-.2-1.5-.9-1.5z"/><path d="M129.3 41.6c-2.8-6.4-6.4-12.4-10.8-17.6 4.9-5.2 9.5-10.7 13.7-16.4l-8.9-6.5c-3.9 5.3-8.1 10.3-12.6 15.1C99 6.1 83.9 0 67.5 0 32.2 0 3.2 28.1.3 63.9c-.1.6-.1 1.2-.1 1.8C0 67.1 0 68.6 0 70c0 .9 0 1.9.1 2.8v1.1c0 .3 0 .6.1.9.2 3 .6 6 1.1 8.9 6.2 32 33.5 56.2 66.2 56.2s60-24.2 66.2-56.2c.3-1.5.5-3 .7-4.4.4-3.1.6-6.2.6-9.4 0-7.2-1-14.1-3-20.6-.7-2.6-1.7-5.2-2.7-7.7zm-9.4 6.1C96 62.1 68.1 70.3 38.2 70.3c12.9-3.1 25.4-7.7 37.1-13.8 12.7-6.6 24.6-15 35.2-24.8 3.9 4.8 7.1 10.2 9.4 16zM67.5 11c13.3 0 25.6 4.9 35.3 12.9-9.8 9-20.8 16.7-32.6 22.9C52 56.3 31.9 62 11.3 63.5 14.5 34 38.5 11 67.5 11zm0 118c-26.6 0-49-19.3-55-45.2h109.9c-5.9 25.9-28.2 45.2-54.9 45.2zM124 72.8H80.9c14.7-3.9 28.6-9.7 41.4-17.3 1.1 4.6 1.7 9.5 1.7 14.5.1.9 0 1.9 0 2.8z" fill-rule="nonzero"/></g></svg>