<?xml version="1.0" encoding="UTF-8"?>
<svg width="958px" height="140px" viewBox="0 0 958 140" version="1.1" xmlns="http://www.w3.org/2000/svg" xmlns:xlink="http://www.w3.org/1999/xlink">
    <!-- Generator: Sketch 52.5 (67469) - http://www.bohemiancoding.com/sketch -->
    <title>atoms/logo/white</title>
    <desc>Created with Sketch.</desc>
    <g id="Symbols" stroke="none" stroke-width="1" fill="none" fill-rule="evenodd">
        <g id="atoms/logo/white" fill="#FFFFFF">
            <g>
                <path d="M233.7,43.6 C230.6,43.8 228.4,43.8 224.9,43.8 C221.7,43.8 218.5,43.7 215.7,43.6 C214.9,43.8 214.8,45.3 215.5,45.9 L217.2,46.1 C219.3,46.4 220.6,47 221.3,48.3 C222.8,50.7 222.9,58.4 222.9,64.6 L222.9,75 C222.9,87.6 218.4,95.8 207.5,95.8 C196,95.8 192.5,86.2 192.5,74.7 L192.5,55.7 C192.5,46.9 193.2,46.6 197.1,46.1 L198.9,45.9 C199.5,45.3 199.4,43.9 198.7,43.6 C195,43.8 191.3,43.8 187.6,43.8 C183.9,43.8 180.2,43.7 176.9,43.6 C176.2,43.9 176.2,45.3 176.7,45.9 L178.1,46.1 C182,46.8 182.7,46.9 182.7,55.7 L182.7,76.8 C182.7,85.2 184.4,91 188.2,94.6 C192,98.3 197.5,99.9 205.3,99.9 C211,99.9 217.3,98.3 221.6,93.7 C225.9,89.1 227.1,82.1 227.1,74.5 L227.1,64.6 C227.1,58 227.1,50.7 228.3,48.3 C228.9,47 230.4,46.6 232,46.3 L233.8,45.9 C234.5,45.3 234.4,44 233.7,43.6 Z" id="Path"></path>
                <path d="M259.2,93.6 C257.9,94.5 256.9,95.1 255.2,95.1 C249.9,95.1 249.1,90.5 249.1,85.2 L249.1,72.4 C249.1,69.7 249.2,69.6 250.7,69.6 L258.6,69.6 C259.3,69.2 259.6,68.4 259.7,67.4 C259.7,66.6 259.5,65.9 259,65.7 L250.8,65.7 C249.2,65.7 249.2,65.5 249.2,64.1 L249.2,59.1 C248.8,58.4 247.6,58.2 246.9,58.7 C245.7,60.9 243.9,62.7 242.3,63.8 C240.5,65.1 238.6,66.2 235.7,67.3 C235,67.8 235.1,69.1 235.9,69.5 L238.8,69.5 C240.1,69.5 240.3,69.6 240.3,72.5 L240.3,89.3 C240.3,95.1 241.7,99.7 249.6,99.7 C254.7,99.7 258.5,97.5 260.1,95.1 C260.4,94.3 259.9,93.6 259.2,93.6 Z" id="Path"></path>
                <path d="M299.3,95.2 C297.9,95.2 297.3,92.6 297.3,85.1 L297.3,52 C297.3,48.4 297.4,43.3 297.5,40 C297.3,39.6 296.8,39.3 296.3,39.3 C293,40.6 288.7,42.4 285.4,43.3 C284.8,43.5 284.9,44.9 285.4,45.2 L286.6,45.9 C288.3,47.1 288.5,47.6 288.5,53.1 L288.5,64 C288.5,64.9 288.3,65.2 288,65.3 C286.9,65 285.3,64.7 283.2,64.7 C272.8,64.7 263.3,71.8 263.3,83.8 C263.3,92.1 269.2,99.7 278.7,99.7 C282.7,99.7 285.8,97.8 288.2,96 L288.6,96.1 C288.8,96.5 288.8,97.2 288.7,98.4 L288.5,99.6 C288.7,100.1 289.1,100.4 289.5,100.5 C292.5,99.2 298.4,97.8 302.6,97.3 C303.5,96.8 303.3,94.8 302.7,94.3 C301.5,95 300.2,95.2 299.3,95.2 Z M288.6,90.7 C288.6,91.9 288.4,92.6 288,93 C287.3,93.7 285.1,94.8 283.1,94.8 C277.2,94.8 272.7,89.2 272.7,80.6 C272.7,73.6 276.3,68.1 281.9,68.1 C284.5,68.1 286.3,69.3 287.5,70.9 C288.3,72.1 288.6,73.2 288.6,74.9 L288.6,90.7 Z" id="Shape" fill-rule="nonzero"></path>
                <path d="M339.3,94.5 C339.1,94.5 337.9,95.4 336.5,95.4 C333.5,95.4 332.3,92.9 332.5,88.1 L333.1,75.2 C333.4,67.9 329.4,64.8 322.8,64.8 C318.6,64.8 312.6,67.6 310,70 C307.3,72.6 306.8,74.3 306.8,75.3 C306.8,76 307.3,76.6 308.4,76.6 C310.2,76.6 312.5,75.9 313.7,75.1 C314.6,74.5 315.1,73.7 315.3,72.1 C315.6,69.7 317.4,68.4 319.7,68.4 C323.8,68.4 324.9,72.1 324.8,76.3 L324.7,78.5 C324.7,79.3 324.5,80.1 322.8,80.7 C319.7,81.9 316.6,83 313.7,84 C308,86 306.8,88.7 306.8,91.7 C306.8,95.9 309.6,99.8 315.3,99.8 C318.3,99.8 320.8,98.6 322.4,97.6 C323.6,96.9 324.2,96.4 324.6,96.4 C325,96.4 325.3,96.8 325.9,97.4 C327.5,99.1 329.8,99.7 331.9,99.7 C334.5,99.7 338.5,98.4 340.2,96 C340.3,95.4 339.7,94.5 339.3,94.5 Z M324.2,91.2 C324.1,93.2 323.2,95.2 320.2,95.2 C317,95.2 315.6,92.5 315.6,90.4 C315.6,86.8 317.8,85.7 320.1,84.8 C321.6,84.2 323.1,83.8 323.8,83.8 C324.2,83.8 324.5,84.3 324.5,85.2 L324.2,91.2 Z" id="Shape" fill-rule="nonzero"></path>
                <path d="M380.7,96.2 C377.9,95.9 377.5,94.9 377.5,88.7 L377.5,75.9 C377.5,69.4 374.3,64.8 367.6,64.8 C362.5,64.8 360.1,66.8 356.2,69 C355.7,68.9 355.5,68.8 355.5,68.2 C355.5,67.5 355.5,66 355.7,64.4 C355.5,64.1 355.2,63.7 354.6,63.7 C351.9,65.2 347.4,67.2 343.8,68.2 C343.5,68.6 343.5,69.8 343.7,70.1 L344.7,70.7 C346.8,71.9 346.8,72.9 346.8,76.7 L346.8,88.9 C346.8,95 346.5,96 343.6,96.4 L341.8,96.6 C341.2,97.2 341.3,98.7 342,99 C345.5,98.8 348.3,98.8 351,98.8 C354.1,98.8 356.9,98.9 359.8,99 C360.5,98.7 360.5,97.2 360,96.6 L358.8,96.4 C356,96 355.6,95 355.6,88.8 L355.6,77.6 C355.6,74.5 355.7,73.8 356.8,72.3 C357.6,71.1 359.7,69.7 362.3,69.7 C367.3,69.7 368.9,73 368.9,77.3 L368.9,88.8 C368.9,94.9 368.6,95.9 365.7,96.4 L364.5,96.6 C363.9,97.2 364,98.7 364.7,99 C367.6,98.8 370.4,98.8 373.2,98.8 C376.3,98.8 379.1,98.9 382.6,99 C383.3,98.7 383.3,97.2 382.8,96.6 L380.7,96.2 Z" id="Path"></path>
                <path d="M425.6,96.2 C422.8,95.9 422.4,94.9 422.4,88.7 L422.4,75.9 C422.4,69.4 419.2,64.8 412.5,64.8 C407.4,64.8 405,66.8 401.1,69 C400.6,68.9 400.4,68.8 400.4,68.2 C400.4,67.5 400.4,66 400.6,64.4 C400.4,64.1 400.1,63.7 399.5,63.7 C396.8,65.2 392.3,67.2 388.7,68.2 C388.4,68.6 388.4,69.8 388.6,70.1 L389.6,70.7 C391.7,71.9 391.7,72.9 391.7,76.7 L391.7,88.9 C391.7,95 391.4,96 388.5,96.4 L386.7,96.6 C386.1,97.2 386.2,98.7 386.9,99 C390.4,98.8 393.2,98.8 395.9,98.8 C399,98.8 401.8,98.9 404.7,99 C405.4,98.7 405.4,97.2 404.9,96.6 L403.7,96.4 C400.9,96 400.5,95 400.5,88.8 L400.5,77.6 C400.5,74.5 400.6,73.8 401.7,72.3 C402.5,71.1 404.6,69.7 407.2,69.7 C412.2,69.7 413.8,73 413.8,77.3 L413.8,88.8 C413.8,94.9 413.5,95.9 410.6,96.4 L409.4,96.6 C408.8,97.2 408.9,98.7 409.6,99 C412.5,98.8 415.3,98.8 418.1,98.8 C421.2,98.8 424,98.9 427.5,99 C428.2,98.7 428.2,97.2 427.7,96.6 L425.6,96.2 Z" id="Path"></path>
                <path d="M448.6,96.3 C445.8,95.8 445.4,95 445.4,88.8 L445.4,74.5 C445.4,71.1 445.5,67.1 445.6,64.4 C445.4,64 444.9,63.8 444.4,63.7 C442.1,65.1 437.9,66.9 433.6,68.2 C433.3,68.6 433.3,69.8 433.5,70.1 L434.5,70.7 C436.6,71.9 436.6,72.9 436.6,76.7 L436.6,88.9 C436.6,95 436.3,95.9 433.4,96.4 L431.9,96.6 C431.3,97.2 431.4,98.7 432.1,99 C435.3,98.8 438.1,98.8 440.8,98.8 C443.9,98.8 446.7,98.9 449.8,99 C450.5,98.7 450.5,97.2 450,96.6 L448.6,96.3 Z" id="Path"></path>
                <ellipse id="Oval" cx="441" cy="48.5" rx="5.1" ry="5"></ellipse>
                <path d="M493.4,96.2 C490.6,95.9 490.2,94.9 490.2,88.7 L490.2,75.9 C490.2,69.4 487,64.8 480.3,64.8 C475.2,64.8 472.8,66.8 468.9,69 C468.4,68.9 468.2,68.8 468.2,68.2 C468.2,67.5 468.2,66 468.4,64.4 C468.2,64.1 467.9,63.7 467.3,63.7 C464.6,65.2 460.1,67.2 456.5,68.2 C456.2,68.6 456.2,69.8 456.4,70.1 L457.4,70.7 C459.5,71.9 459.5,72.9 459.5,76.7 L459.5,88.9 C459.5,95 459.2,96 456.3,96.4 L454.5,96.6 C453.9,97.2 454,98.7 454.7,99 C458.2,98.8 461,98.8 463.7,98.8 C466.8,98.8 469.6,98.9 472.5,99 C473.2,98.7 473.2,97.2 472.7,96.6 L471.5,96.4 C468.7,96 468.3,95 468.3,88.8 L468.3,77.6 C468.3,74.5 468.4,73.8 469.5,72.3 C470.3,71.1 472.4,69.7 475,69.7 C480,69.7 481.6,73 481.6,77.3 L481.6,88.8 C481.6,94.9 481.3,95.9 478.4,96.4 L477.2,96.6 C476.6,97.2 476.7,98.7 477.4,99 C480.3,98.8 483.1,98.8 485.9,98.8 C489,98.8 491.8,98.9 495.3,99 C496,98.7 496,97.2 495.5,96.6 L493.4,96.2 Z" id="Path"></path>
                <path d="M536.7,69.2 C536.7,68.5 536.4,68 536,67.7 L527.9,67.7 C526.9,67.7 526,67.3 524.2,66.5 C522,65.4 519.1,64.8 515.8,64.8 C506.8,64.8 500.6,70.4 500.6,77.9 C500.6,83.3 503.9,86.6 506.7,87.8 C507,88 507,88.5 507,88.7 C507,89.9 502.9,92.4 501.7,93.1 C500.7,93.7 500.4,94.3 500.4,95.2 C500.4,98.4 503,101.1 505.9,102.1 C506.6,102.3 506.1,103.4 505.4,103.9 C504.2,105 501,106.8 500.3,107.6 C499.3,108.8 499.1,109.9 499.1,111.2 C499.1,115.5 502.9,121 514.6,121 C521.7,121 527,118.5 530.7,115.5 C532.9,113.8 535.9,109.7 535.9,105.4 C535.9,96.4 528.3,95.4 522.4,95.4 C518.8,95.4 515.7,95.6 513.3,95.6 C509.9,95.6 508.7,94 508.7,92.4 C508.7,90.9 509.9,89.8 511.3,89.2 C512.4,89.4 513.5,89.5 514.5,89.5 C525,89.5 529.7,82.8 529.7,75.8 C529.7,74 529.5,73.1 529.3,72.2 L535.4,72.2 C536.1,71.9 536.7,70.9 536.7,69.2 Z M509.8,103.7 C510.8,103 512.5,102.7 515.4,102.7 L520.1,102.7 C525.2,102.7 529.1,104.8 529.1,109 C529.1,113.8 525.1,116.7 518.1,116.7 C511.7,116.7 507.2,113.4 507.2,108.3 C507.3,106.3 508.4,104.8 509.8,103.7 Z M516.1,86.2 C512.9,86.2 510,82.8 510,76.4 C510,70.7 512.6,67.9 515.5,67.9 C519.2,67.9 521.6,72 521.6,77.6 C521.6,83.4 519.2,86.2 516.1,86.2 Z" id="Shape" fill-rule="nonzero"></path>
                <path d="M553.6,77.9 C550.4,76.4 548,74.7 548,72.3 C548,69.9 550,68 552.6,68 C555.8,68 558.5,71.2 559.7,75 C560.3,75.5 561.7,75.2 561.9,74.6 C561.9,70.9 561.5,68.3 560.7,66.5 C559.5,65.8 556.4,64.8 553,64.8 C546.1,64.8 540.6,68.6 540.6,75.1 C540.6,80.4 545.1,83.5 549.4,85.6 C552.3,87 555,89 555,92.1 C555,95 552.9,96.7 550.4,96.7 C546,96.7 542.9,92.3 541.4,87.7 C540.8,87.1 539.6,87.2 539.1,87.9 C538.9,91.5 539.4,95.7 540.3,97.3 C543,99.3 546.4,100 549.8,100 C556.4,100 562.7,96.8 562.7,89.6 C562.8,82.9 558.1,80 553.6,77.9 Z" id="Path"></path>
                <path d="M604.2,95.2 C602.8,95.2 602.2,92.6 602.2,85.1 L602.2,52 C602.2,48.4 602.3,43.3 602.4,40 C602.2,39.6 601.7,39.3 601.2,39.3 C597.9,40.6 593.6,42.4 590.3,43.3 C589.7,43.5 589.8,44.9 590.3,45.2 L591.5,45.9 C593.2,47.1 593.4,47.6 593.4,53.1 L593.4,64 C593.4,64.9 593.2,65.2 592.9,65.3 C591.8,65 590.2,64.7 588.1,64.7 C577.7,64.7 568.2,71.8 568.2,83.8 C568.2,92.1 574.1,99.7 583.6,99.7 C587.6,99.7 590.7,97.8 593.1,96 L593.5,96.1 C593.7,96.5 593.7,97.2 593.6,98.4 L593.4,99.6 C593.6,100.1 594,100.4 594.4,100.5 C597.4,99.2 603.3,97.8 607.5,97.3 C608.4,96.8 608.2,94.8 607.6,94.3 C606.5,95 605.1,95.2 604.2,95.2 Z M593.5,90.7 C593.5,91.9 593.3,92.6 592.9,93 C592.2,93.7 590,94.8 588,94.8 C582.1,94.8 577.6,89.2 577.6,80.6 C577.6,73.6 581.2,68.1 586.8,68.1 C589.4,68.1 591.2,69.3 592.4,70.9 C593.2,72.1 593.5,73.2 593.5,74.9 L593.5,90.7 Z" id="Shape" fill-rule="nonzero"></path>
                <path d="M628.2,96.3 C625.4,95.8 625,95 625,88.8 L625,74.5 C625,71.1 625.1,67.1 625.2,64.4 C625,64 624.5,63.8 624,63.7 C621.7,65.1 617.5,66.9 613.2,68.2 C612.9,68.6 612.9,69.8 613.1,70.1 L614.1,70.7 C616.2,71.9 616.2,72.9 616.2,76.7 L616.2,88.9 C616.2,95 615.9,95.9 613,96.4 L611.5,96.6 C610.9,97.2 611,98.7 611.7,99 C614.9,98.8 617.7,98.8 620.4,98.8 C623.5,98.8 626.3,98.9 629.4,99 C630.1,98.7 630.1,97.2 629.6,96.6 L628.2,96.3 Z" id="Path"></path>
                <ellipse id="Oval" cx="620.6" cy="48.5" rx="5.1" ry="5"></ellipse>
                <path d="M656.7,64.8 C653.9,64.8 651.1,67.3 648.6,69.1 C648.1,69.1 647.8,68.7 647.8,68.1 C647.8,67.4 647.9,65.9 648,64.4 C647.8,63.9 647.3,63.7 646.8,63.7 C644.3,65.2 639.9,67 636.3,68.2 C636,68.6 636,69.8 636.2,70.1 L637.2,70.7 C639.3,71.9 639.3,72.9 639.3,76.7 L639.3,88.9 C639.3,95 639,95.9 636.1,96.4 L634.6,96.6 C634,97.2 634.1,98.7 634.8,99 C638,98.8 640.7,98.8 643.4,98.8 C646.5,98.8 649.3,98.9 654.3,99 C655,98.7 655,97.2 654.5,96.6 L651.3,96.3 C648.4,96 648.1,95.1 648.1,88.9 L648.1,77.4 C648.1,73.3 648.6,71.4 650.5,71.4 C651,71.4 652.4,71.6 654.5,73 C655.2,73.4 655.9,73.7 656.7,73.7 C658.9,73.7 661.3,72.1 661.3,68.9 C661.2,66.7 659.6,64.8 656.7,64.8 Z" id="Path"></path>
                <path d="M690.6,89.3 C688.7,92.4 686,93.4 682.6,93.4 C675.2,93.4 670.1,87.4 670.1,80 C670.1,79 670.3,78.9 671.8,78.9 L686.2,78.9 C689.5,78.9 691.4,78.6 691.9,77.8 C692.2,77.1 692.3,76.6 692.3,75.9 C692.3,68.7 686,64.7 679.9,64.7 C668.8,64.7 662.4,73.7 662.4,83.1 C662.4,92.6 668.8,99.7 678.4,99.7 C683.5,99.7 689.6,97.2 692.4,90.6 C692.4,89.9 691.5,89.1 690.6,89.3 Z M678.9,67.9 C682.5,67.9 684.4,70.3 684.4,73.3 C684.4,74 684.1,74.7 683.6,75 C683,75.3 681.9,75.6 679.5,75.6 L672,75.6 C671,75.6 670.8,75.4 670.8,75 C670.8,73.3 673.4,67.9 678.9,67.9 Z" id="Shape" fill-rule="nonzero"></path>
                <path d="M736.4,96.4 C734.9,96.2 733.2,95.7 731.7,94.2 C728.7,91.4 723.2,83.6 719.8,78.9 C719.4,78.4 719.3,77.8 719.8,77.2 C721.1,75.8 723.9,73.4 726.9,70.8 C728.8,69.1 730.2,68.5 733,68 L734.5,67.8 C735.1,67.1 735.1,65.6 734.3,65.3 C729.9,65.8 725,66 721.4,66 L719,66 C718.1,66.4 718.1,67.9 718.8,68.5 L721,68.7 C722,68.8 722.3,69.1 722.3,69.5 C722.3,69.9 721.6,70.8 719.9,72.7 L716.7,76.3 C714.3,78.9 712.7,79.5 711.3,79.5 C709.7,79.5 709.5,79.3 709.5,78.3 L709.5,52 C709.5,48.4 709.6,43.3 709.7,40 C709.5,39.6 709,39.3 708.5,39.3 C705.1,40.6 700.8,42.4 697.6,43.3 C697,43.5 697.1,44.9 697.6,45.2 L698.5,45.8 C700.6,47.1 700.7,47.6 700.7,53.2 L700.7,88.8 C700.7,94.9 700.4,95.9 697.5,96.3 L695.8,96.5 C695.2,97.1 695.3,98.6 696,98.9 C699.4,98.7 702.2,98.7 704.9,98.7 C708,98.7 710.8,98.8 714.3,98.9 C715,98.6 715,97.1 714.5,96.5 L712.7,96.3 C709.9,95.9 709.5,95 709.5,88.8 L709.5,84.8 C709.5,82.6 709.7,82.2 710.7,82.2 C711.2,82.2 712.3,82.4 713.3,83.9 L720.1,93.4 C720.8,94.4 721.1,95 721.1,95.4 C721.1,95.8 720.4,96.2 719.5,96.4 L718.7,96.5 C718,97.1 718,98.5 718.9,98.9 C722.3,98.7 724.5,98.7 727.9,98.7 C731.3,98.7 734.4,98.8 737.1,98.9 C737.8,98.6 737.8,97.2 737.3,96.5 L736.4,96.4 Z" id="Path"></path>
                <path d="M761,93.6 C759.7,94.5 758.7,95.1 757,95.1 C751.7,95.1 750.9,90.5 750.9,85.2 L750.9,72.4 C750.9,69.7 751,69.6 752.5,69.6 L760.4,69.6 C761.1,69.2 761.4,68.4 761.5,67.4 C761.5,66.6 761.3,65.9 760.8,65.7 L752.6,65.7 C751,65.7 751,65.5 751,64.1 L751,59.1 C750.6,58.4 749.4,58.2 748.7,58.7 C747.5,60.9 745.7,62.7 744.1,63.8 C742.3,65.1 740.4,66.2 737.5,67.3 C736.8,67.8 736.9,69.1 737.7,69.5 L740.6,69.5 C741.9,69.5 742.1,69.6 742.1,72.5 L742.1,89.3 C742.1,95.1 743.5,99.7 751.4,99.7 C756.5,99.7 760.3,97.5 761.9,95.1 C762.3,94.3 761.8,93.6 761,93.6 Z" id="Path"></path>
                <path d="M783.3,64.8 C773.6,64.8 765.1,71.8 765.1,82.9 C765.1,93.8 773.1,99.8 782.6,99.8 C792.5,99.8 800.8,93.7 800.8,81.9 C800.8,71.1 792.7,64.8 783.3,64.8 Z M783.7,96.5 C777.7,96.5 775,89.2 775,81.6 C775,72.4 778.3,68.1 782.6,68.1 C788.7,68.1 791.1,76.3 791.1,83.3 C791.1,89.7 789.4,96.5 783.7,96.5 Z" id="Shape" fill-rule="nonzero"></path>
                <path d="M828.9,64.8 C826.1,64.8 823.3,67.3 820.8,69.1 C820.3,69.1 820,68.7 820,68.1 C820,67.4 820.1,65.9 820.2,64.4 C820,63.9 819.5,63.7 819,63.7 C816.5,65.2 812.1,67 808.5,68.2 C808.2,68.6 808.2,69.8 808.4,70.1 L809.4,70.7 C811.5,71.9 811.5,72.9 811.5,76.7 L811.5,88.9 C811.5,95 811.2,95.9 808.3,96.4 L806.8,96.6 C806.2,97.2 806.3,98.7 807,99 C810.2,98.8 812.9,98.8 815.6,98.8 C818.7,98.8 821.5,98.9 826.5,99 C827.2,98.7 827.2,97.2 826.7,96.6 L823.5,96.3 C820.6,96 820.3,95.1 820.3,88.9 L820.3,77.4 C820.3,73.3 820.8,71.4 822.7,71.4 C823.2,71.4 824.6,71.6 826.7,73 C827.4,73.4 828.1,73.7 828.9,73.7 C831.1,73.7 833.5,72.1 833.5,68.9 C833.5,66.7 831.8,64.8 828.9,64.8 Z" id="Path"></path>
                <path d="M869,94.5 C868.8,94.5 867.6,95.4 866.2,95.4 C863.2,95.4 862,92.9 862.2,88.1 L862.8,75.2 C863.1,67.9 859.1,64.8 852.5,64.8 C848.3,64.8 842.3,67.6 839.7,70 C837,72.6 836.5,74.3 836.5,75.3 C836.5,76 837,76.6 838.1,76.6 C839.9,76.6 842.2,75.9 843.4,75.1 C844.3,74.5 844.8,73.7 845,72.1 C845.3,69.7 847.1,68.4 849.4,68.4 C853.5,68.4 854.6,72.1 854.5,76.3 L854.4,78.5 C854.4,79.3 854.2,80.1 852.5,80.7 C849.4,81.9 846.3,83 843.4,84 C837.7,86 836.5,88.7 836.5,91.7 C836.5,95.9 839.3,99.8 845,99.8 C848,99.8 850.5,98.6 852.1,97.6 C853.3,96.9 853.9,96.4 854.3,96.4 C854.7,96.4 855,96.8 855.6,97.4 C857.2,99.1 859.5,99.7 861.6,99.7 C864.2,99.7 868.2,98.4 869.9,96 C870,95.4 869.4,94.5 869,94.5 Z M853.9,91.2 C853.8,93.2 852.9,95.2 849.9,95.2 C846.7,95.2 845.3,92.5 845.3,90.4 C845.3,86.8 847.5,85.7 849.8,84.8 C851.3,84.2 852.8,83.8 853.5,83.8 C853.9,83.8 854.2,84.3 854.2,85.2 L853.9,91.2 Z" id="Shape" fill-rule="nonzero"></path>
                <path d="M895,93.6 C893.7,94.5 892.7,95.1 891,95.1 C885.7,95.1 884.9,90.5 884.9,85.2 L884.9,72.4 C884.9,69.7 885,69.6 886.5,69.6 L894.4,69.6 C895.1,69.2 895.4,68.4 895.5,67.4 C895.5,66.6 895.3,65.9 894.8,65.7 L886.6,65.7 C885,65.7 885,65.5 885,64.1 L885,59.1 C884.6,58.4 883.4,58.2 882.7,58.7 C881.5,60.9 879.7,62.7 878.1,63.8 C876.3,65.1 874.4,66.2 871.5,67.3 C870.8,67.8 870.9,69.1 871.7,69.5 L874.6,69.5 C875.9,69.5 876.1,69.6 876.1,72.5 L876.1,89.3 C876.1,95.1 877.5,99.7 885.4,99.7 C890.5,99.7 894.3,97.5 895.9,95.1 C896.2,94.3 895.7,93.6 895,93.6 Z" id="Path"></path>
                <path d="M927.3,89.3 C925.4,92.4 922.7,93.4 919.3,93.4 C911.9,93.4 906.8,87.4 906.8,80 C906.8,79 907,78.9 908.5,78.9 L922.9,78.9 C926.2,78.9 928.1,78.6 928.6,77.8 C928.9,77.1 929,76.6 929,75.9 C929,68.7 922.7,64.7 916.6,64.7 C905.5,64.7 899.1,73.7 899.1,83.1 C899.1,92.6 905.5,99.7 915.1,99.7 C920.2,99.7 926.3,97.2 929.1,90.6 C929.1,89.9 928.2,89.1 927.3,89.3 Z M915.6,67.9 C919.2,67.9 921.1,70.3 921.1,73.3 C921.1,74 920.8,74.7 920.3,75 C919.7,75.3 918.6,75.6 916.2,75.6 L908.6,75.6 C907.6,75.6 907.4,75.4 907.4,75 C907.5,73.3 910.1,67.9 915.6,67.9 Z" id="Shape" fill-rule="nonzero"></path>
                <path d="M956.9,93.6 C955.6,94.5 954.6,95.1 952.9,95.1 C947.6,95.1 946.8,90.5 946.8,85.2 L946.8,72.4 C946.8,69.7 946.9,69.6 948.4,69.6 L956.3,69.6 C957,69.2 957.3,68.4 957.4,67.4 C957.4,66.6 957.2,65.9 956.7,65.7 L948.5,65.7 C946.9,65.7 946.9,65.5 946.9,64.1 L946.9,59.1 C946.5,58.4 945.3,58.2 944.6,58.7 C943.4,60.9 941.6,62.7 940,63.8 C938.2,65.1 936.3,66.2 933.4,67.3 C932.7,67.8 932.8,69.1 933.6,69.5 L936.5,69.5 C937.8,69.5 938,69.6 938,72.5 L938,89.3 C938,95.1 939.4,99.7 947.3,99.7 C952.4,99.7 956.2,97.5 957.8,95.1 C958.1,94.3 957.6,93.6 956.9,93.6 Z" id="Path"></path>
                <path d="M129.3,41.6 C126.5,35.2 122.9,29.2 118.5,24 C123.4,18.8 128,13.3 132.2,7.6 L123.3,1.1 C119.4,6.4 115.2,11.4 110.7,16.2 C99,6.1 83.9,0 67.5,0 C32.2,0 3.2,28.1 0.3,63.9 C0.2,64.5 0.2,65.1 0.2,65.7 C0,67.1 0,68.6 0,70 C0,70.9 0,71.9 0.1,72.8 C0.1,73.2 0.1,73.6 0.1,73.9 C0.1,74.2 0.1,74.5 0.2,74.8 C0.4,77.8 0.8,80.8 1.3,83.7 C7.5,115.7 34.8,139.9 67.5,139.9 C100.2,139.9 127.5,115.7 133.7,83.7 C134,82.2 134.2,80.7 134.4,79.3 C134.8,76.2 135,73.1 135,69.9 C135,62.7 134,55.8 132,49.3 C131.3,46.7 130.3,44.1 129.3,41.6 Z M119.9,47.7 C96,62.1 68.1,70.3 38.2,70.3 C51.1,67.2 63.6,62.6 75.3,56.5 C88,49.9 99.9,41.5 110.5,31.7 C114.4,36.5 117.6,41.9 119.9,47.7 Z M67.5,11 C80.8,11 93.1,15.9 102.8,23.9 C93,32.9 82,40.6 70.2,46.8 C52,56.3 31.9,62 11.3,63.5 C14.5,34 38.5,11 67.5,11 Z M67.5,129 C40.9,129 18.5,109.7 12.5,83.8 L122.4,83.8 C116.5,109.7 94.2,129 67.5,129 Z M124,72.8 L80.9,72.8 C95.6,68.9 109.5,63.1 122.3,55.5 C123.4,60.1 124,65 124,70 C124.1,70.9 124,71.9 124,72.8 Z" id="Shape" fill-rule="nonzero"></path>
            </g>
        </g>
    </g>
</svg>