<svg width="219" height="32" xmlns="http://www.w3.org/2000/svg"><g fill="#373737" fill-rule="evenodd"><path d="M53.424 9.966c-.709.045-1.211.045-2.012.045-.731 0-1.463-.022-2.103-.045-.183.045-.205.388-.045.525l.388.046c.48.069.777.206.937.503.343.549.366 2.309.366 3.726v2.377c0 2.88-1.028 4.754-3.52 4.754-2.63 0-3.43-2.194-3.43-4.823v-4.343c0-2.011.16-2.08 1.052-2.194l.412-.046c.137-.137.114-.457-.046-.525a46.98 46.98 0 0 1-2.537.045c-.846 0-1.692-.022-2.446-.045-.16.068-.16.388-.046.525l.32.046c.891.16 1.051.183 1.051 2.194v4.823c0 1.92.39 3.246 1.258 4.069.868.846 2.126 1.211 3.909 1.211 1.303 0 2.743-.365 3.726-1.417.983-1.051 1.257-2.651 1.257-4.388v-2.263c0-1.509 0-3.177.275-3.726.137-.297.48-.389.845-.457l.412-.092c.16-.137.137-.434-.023-.525zM59.253 21.394c-.297.206-.525.343-.914.343-1.212 0-1.394-1.051-1.394-2.263V16.55c0-.618.022-.64.365-.64h1.806c.16-.092.229-.275.252-.503 0-.183-.046-.343-.16-.389h-1.875c-.366 0-.366-.046-.366-.366V13.51c-.091-.16-.365-.206-.525-.092a3.509 3.509 0 0 1-1.052 1.166 6.128 6.128 0 0 1-1.509.8c-.16.114-.137.411.046.503h.663c.297 0 .343.023.343.685v3.84c0 1.326.32 2.378 2.126 2.378 1.166 0 2.034-.503 2.4-1.052.069-.183-.046-.343-.206-.343z"/><path d="M68.42 21.76c-.32 0-.457-.594-.457-2.309v-7.565c0-.823.023-1.989.046-2.743a.317.317 0 0 0-.274-.16c-.755.297-1.738.708-2.492.914-.137.046-.115.366 0 .434l.274.16c.389.275.434.389.434 1.646v2.492c0 .205-.045.274-.114.297a4.155 4.155 0 0 0-1.097-.137c-2.378 0-4.55 1.622-4.55 4.365 0 1.897 1.35 3.635 3.521 3.635.915 0 1.623-.435 2.172-.846l.091.023c.046.091.046.251.023.525l-.046.275a.337.337 0 0 0 .23.205c.685-.297 2.034-.617 2.994-.731.205-.114.16-.571.023-.686-.275.16-.572.206-.778.206zm-2.446-1.029c0 .275-.045.435-.137.526-.16.16-.663.412-1.12.412-1.349 0-2.377-1.28-2.377-3.246 0-1.6.823-2.857 2.103-2.857.594 0 1.006.274 1.28.64.183.274.251.525.251.914v3.611zM77.564 21.6c-.045 0-.32.206-.64.206-.685 0-.96-.572-.914-1.669l.137-2.948c.069-1.669-.846-2.378-2.355-2.378-.96 0-2.331.64-2.926 1.189-.617.594-.731.983-.731 1.211 0 .16.114.298.366.298.411 0 .937-.16 1.211-.343.206-.137.32-.32.366-.686.069-.549.48-.846 1.006-.846.937 0 1.189.846 1.166 1.806l-.023.503c0 .183-.046.366-.435.503-.708.274-1.417.525-2.08.754-1.303.457-1.577 1.074-1.577 1.76 0 .96.64 1.851 1.943 1.851.686 0 1.257-.274 1.623-.502.274-.16.412-.275.503-.275.091 0 .16.092.297.229.366.388.892.526 1.372.526.594 0 1.509-.298 1.897-.846.023-.137-.114-.343-.206-.343zm-3.451-.754c-.023.457-.23.914-.915.914-.731 0-1.051-.617-1.051-1.097 0-.823.502-1.074 1.028-1.28.343-.137.686-.229.846-.229.092 0 .16.115.16.32l-.068 1.372z" fill-rule="nonzero"/><path d="M87.028 21.989c-.64-.069-.731-.298-.731-1.715V17.35c0-1.486-.732-2.538-2.263-2.538-1.166 0-1.715.458-2.606.96-.115-.022-.16-.045-.16-.182 0-.16 0-.503.045-.869-.045-.069-.114-.16-.251-.16-.617.343-1.646.8-2.469 1.029-.068.091-.068.365-.023.434l.229.137c.48.274.48.503.48 1.371v2.789c0 1.394-.069 1.623-.732 1.714l-.411.046c-.137.137-.114.48.046.549.8-.046 1.44-.046 2.057-.046.709 0 1.349.023 2.012.046.16-.069.16-.412.045-.549l-.274-.046c-.64-.091-.731-.32-.731-1.737v-2.56c0-.708.022-.868.274-1.211.183-.275.663-.595 1.257-.595 1.143 0 1.509.755 1.509 1.738v2.628c0 1.394-.069 1.623-.732 1.737l-.274.046c-.137.137-.114.48.046.549.663-.046 1.303-.046 1.943-.046.709 0 1.349.023 2.149.046.16-.069.16-.412.046-.549l-.48-.091zM97.293 21.989c-.64-.069-.732-.298-.732-1.715V17.35c0-1.486-.731-2.538-2.263-2.538-1.166 0-1.714.458-2.606.96-.114-.022-.16-.045-.16-.182 0-.16 0-.503.046-.869-.046-.069-.115-.16-.252-.16-.617.343-1.646.8-2.469 1.029-.068.091-.068.365-.023.434l.229.137c.48.274.48.503.48 1.371v2.789c0 1.394-.068 1.623-.731 1.714l-.412.046c-.137.137-.114.48.046.549.8-.046 1.44-.046 2.057-.046.709 0 1.349.023 2.012.046.16-.069.16-.412.046-.549l-.275-.046c-.64-.091-.731-.32-.731-1.737v-2.56c0-.708.023-.868.274-1.211.183-.275.663-.595 1.257-.595 1.143 0 1.51.755 1.51 1.738v2.628c0 1.394-.07 1.623-.732 1.737l-.275.046c-.137.137-.114.48.046.549.663-.046 1.303-.046 1.943-.046.709 0 1.349.023 2.149.046.16-.069.16-.412.046-.549l-.48-.091zM102.55 22.011c-.64-.114-.731-.297-.731-1.714V17.03c0-.778.023-1.692.046-2.309-.046-.091-.16-.137-.275-.16-.525.32-1.486.731-2.468 1.029-.07.091-.07.365-.023.434l.228.137c.48.274.48.503.48 1.371v2.789c0 1.394-.068 1.6-.731 1.714l-.343.046c-.137.137-.114.48.046.549.731-.046 1.371-.046 1.988-.046.71 0 1.35.023 2.058.046.16-.069.16-.412.046-.549l-.32-.069z"/><ellipse cx="100.813" cy="11.086" rx="1.166" ry="1.143"/><path d="M112.792 21.989c-.64-.069-.732-.298-.732-1.715V17.35c0-1.486-.731-2.538-2.263-2.538-1.166 0-1.714.458-2.606.96-.114-.022-.16-.045-.16-.182 0-.16 0-.503.046-.869-.046-.069-.114-.16-.252-.16-.617.343-1.646.8-2.469 1.029-.068.091-.068.365-.022.434l.228.137c.48.274.48.503.48 1.371v2.789c0 1.394-.068 1.623-.731 1.714l-.412.046c-.137.137-.114.48.046.549.8-.046 1.44-.046 2.057-.046.71 0 1.35.023 2.012.046.16-.069.16-.412.046-.549l-.275-.046c-.64-.091-.731-.32-.731-1.737v-2.56c0-.708.023-.868.274-1.211.183-.275.663-.595 1.258-.595 1.143 0 1.508.755 1.508 1.738v2.628c0 1.394-.068 1.623-.731 1.737l-.274.046c-.138.137-.115.48.045.549.663-.046 1.303-.046 1.943-.046.709 0 1.35.023 2.15.046.16-.069.16-.412.045-.549l-.48-.091z"/><path d="M122.69 15.817a.413.413 0 0 0-.16-.343h-1.851c-.229 0-.435-.091-.846-.274-.503-.251-1.166-.389-1.92-.389-2.058 0-3.475 1.28-3.475 2.995 0 1.234.754 1.988 1.394 2.263.069.045.069.16.069.205 0 .275-.937.846-1.212 1.006-.228.137-.297.274-.297.48 0 .731.594 1.349 1.257 1.577.16.046.046.297-.114.412-.274.251-1.006.662-1.166.845-.228.275-.274.526-.274.823 0 .983.869 2.24 3.543 2.24 1.623 0 2.835-.571 3.68-1.257.504-.389 1.19-1.326 1.19-2.309 0-2.057-1.738-2.285-3.087-2.285-.823 0-1.531.045-2.08.045-.777 0-1.052-.365-1.052-.731 0-.343.275-.594.595-.731.251.045.503.068.731.068 2.4 0 3.475-1.531 3.475-3.131 0-.412-.046-.617-.091-.823h1.394c.16-.069.297-.297.297-.686zm-6.15 7.886c.23-.16.618-.229 1.281-.229h1.075c1.165 0 2.057.48 2.057 1.44 0 1.097-.914 1.76-2.515 1.76-1.463 0-2.491-.754-2.491-1.92.022-.457.274-.8.594-1.051zm1.441-4c-.731 0-1.394-.777-1.394-2.24 0-1.303.594-1.943 1.257-1.943.846 0 1.394.937 1.394 2.217 0 1.326-.548 1.966-1.257 1.966z" fill-rule="nonzero"/><path d="M126.554 17.806c-.732-.343-1.28-.732-1.28-1.28 0-.549.457-.983 1.051-.983.732 0 1.349.731 1.623 1.6.137.114.457.046.503-.092 0-.845-.091-1.44-.274-1.851-.275-.16-.983-.389-1.76-.389-1.578 0-2.835.869-2.835 2.355 0 1.211 1.029 1.92 2.012 2.4.662.32 1.28.777 1.28 1.485 0 .663-.48 1.052-1.052 1.052-1.006 0-1.714-1.006-2.057-2.057-.137-.137-.412-.115-.526.045-.046.823.069 1.783.274 2.149.617.457 1.395.617 2.172.617 1.509 0 2.949-.731 2.949-2.377.023-1.531-1.052-2.194-2.08-2.674z"/><path d="M138.12 21.76c-.32 0-.456-.594-.456-2.309v-7.565c0-.823.023-1.989.045-2.743a.317.317 0 0 0-.274-.16c-.754.297-1.737.708-2.492.914-.137.046-.114.366 0 .434l.275.16c.388.275.434.389.434 1.646v2.492c0 .205-.046.274-.114.297a4.155 4.155 0 0 0-1.098-.137c-2.377 0-4.549 1.622-4.549 4.365 0 1.897 1.349 3.635 3.52 3.635.915 0 1.624-.435 2.172-.846l.092.023c.046.091.046.251.023.525l-.046.275a.337.337 0 0 0 .229.205c.685-.297 2.034-.617 2.994-.731.206-.114.16-.571.023-.686-.251.16-.571.206-.777.206zm-2.445-1.029c0 .275-.046.435-.137.526-.16.16-.663.412-1.12.412-1.35 0-2.378-1.28-2.378-3.246 0-1.6.823-2.857 2.103-2.857.595 0 1.006.274 1.28.64.183.274.252.525.252.914v3.611z" fill-rule="nonzero"/><path d="M143.607 22.011c-.64-.114-.731-.297-.731-1.714V17.03c0-.778.023-1.692.046-2.309-.046-.091-.16-.137-.275-.16-.526.32-1.486.731-2.469 1.029-.068.091-.068.365-.023.434l.229.137c.48.274.48.503.48 1.371v2.789c0 1.394-.068 1.6-.731 1.714l-.343.046c-.137.137-.115.48.045.549.732-.046 1.372-.046 1.99-.046.708 0 1.348.023 2.057.046.16-.069.16-.412.045-.549l-.32-.069z"/><ellipse cx="141.87" cy="11.086" rx="1.166" ry="1.143"/><path d="M150.122 14.811c-.64 0-1.28.572-1.851.983-.115 0-.183-.091-.183-.228 0-.16.023-.503.046-.846-.046-.114-.16-.16-.275-.16-.571.343-1.577.754-2.4 1.029-.069.091-.069.365-.023.434l.229.137c.48.274.48.503.48 1.371v2.789c0 1.394-.069 1.6-.732 1.714l-.343.046c-.137.137-.114.48.046.549.732-.046 1.349-.046 1.966-.046.709 0 1.349.023 2.492.046.16-.069.16-.412.046-.549l-.732-.069c-.663-.068-.732-.274-.732-1.691v-2.629c0-.937.115-1.371.55-1.371.113 0 .433.046.914.366.16.091.32.16.502.16.503 0 1.052-.366 1.052-1.097-.023-.503-.389-.938-1.052-.938z"/><path d="M157.872 20.411c-.434.709-1.052.938-1.829.938-1.691 0-2.857-1.372-2.857-3.063 0-.229.045-.252.388-.252h3.292c.755 0 1.189-.068 1.303-.251a.99.99 0 0 0 .092-.434c0-1.646-1.44-2.56-2.835-2.56-2.537 0-4 2.057-4 4.205 0 2.172 1.463 3.795 3.657 3.795 1.166 0 2.56-.572 3.2-2.08 0-.16-.205-.343-.411-.298zm-2.675-4.891c.823 0 1.258.549 1.258 1.234 0 .16-.069.32-.183.389-.137.068-.389.137-.937.137h-1.715c-.229 0-.274-.046-.274-.137 0-.389.594-1.623 1.851-1.623z" fill-rule="nonzero"/><path d="M168.342 22.034c-.343-.045-.732-.16-1.074-.503-.686-.64-1.944-2.422-2.72-3.497-.092-.114-.115-.251 0-.388.296-.32.936-.869 1.622-1.463.435-.389.755-.526 1.395-.64l.343-.046c.137-.16.137-.503-.046-.571-1.006.114-2.126.16-2.95.16h-.548c-.205.091-.205.434-.045.571l.503.046c.228.023.297.091.297.183 0 .091-.16.297-.549.731l-.731.823c-.55.594-.915.731-1.235.731-.366 0-.411-.045-.411-.274v-6.011c0-.823.022-1.989.045-2.743a.317.317 0 0 0-.274-.16c-.777.297-1.76.708-2.492.914-.137.046-.114.366 0 .434l.206.138c.48.297.503.411.503 1.691v8.137c0 1.394-.069 1.623-.732 1.714l-.388.046c-.137.137-.115.48.045.549.778-.046 1.418-.046 2.035-.046.709 0 1.349.023 2.149.046.16-.069.16-.412.046-.549l-.412-.046c-.64-.091-.731-.297-.731-1.714v-.914c0-.503.045-.594.274-.594.114 0 .366.045.594.388l1.555 2.172c.16.228.228.365.228.457 0 .091-.16.183-.365.228l-.183.023c-.16.137-.16.457.045.549.778-.046 1.28-.046 2.058-.046.777 0 1.486.023 2.103.046.16-.069.16-.389.046-.549l-.206-.023zM173.966 21.394c-.298.206-.526.343-.915.343-1.211 0-1.394-1.051-1.394-2.263V16.55c0-.618.023-.64.365-.64h1.806c.16-.092.229-.275.252-.503 0-.183-.046-.343-.16-.389h-1.875c-.365 0-.365-.046-.365-.366V13.51c-.092-.16-.366-.206-.526-.092a3.509 3.509 0 0 1-1.052 1.166 6.128 6.128 0 0 1-1.509.8c-.16.114-.137.411.046.503h.663c.297 0 .343.023.343.685v3.84c0 1.326.32 2.378 2.126 2.378 1.166 0 2.035-.503 2.4-1.052.092-.183-.023-.343-.205-.343z"/><path d="M179.063 14.811c-2.217 0-4.16 1.6-4.16 4.138 0 2.491 1.829 3.862 4 3.862 2.263 0 4.16-1.394 4.16-4.091 0-2.469-1.85-3.909-4-3.909zm.092 7.246c-1.372 0-1.989-1.668-1.989-3.406 0-2.102.754-3.085 1.737-3.085 1.395 0 1.943 1.874 1.943 3.474 0 1.463-.388 3.017-1.691 3.017z" fill-rule="nonzero"/><path d="M189.488 14.811c-.64 0-1.28.572-1.852.983-.114 0-.183-.091-.183-.228 0-.16.023-.503.046-.846-.046-.114-.16-.16-.275-.16-.571.343-1.577.754-2.4 1.029-.068.091-.068.365-.023.434l.229.137c.48.274.48.503.48 1.371v2.789c0 1.394-.069 1.6-.732 1.714l-.343.046c-.137.137-.114.48.046.549.732-.046 1.349-.046 1.966-.046.709 0 1.349.023 2.492.046.16-.069.16-.412.046-.549l-.732-.069c-.663-.068-.731-.274-.731-1.691v-2.629c0-.937.114-1.371.548-1.371.115 0 .435.046.915.366.16.091.32.16.503.16.503 0 1.051-.366 1.051-1.097 0-.503-.388-.938-1.051-.938z"/><path d="M198.654 21.6c-.045 0-.32.206-.64.206-.685 0-.96-.572-.914-1.669l.137-2.948c.069-1.669-.846-2.378-2.354-2.378-.96 0-2.332.64-2.927 1.189-.617.594-.731.983-.731 1.211 0 .16.114.298.366.298.411 0 .937-.16 1.211-.343.206-.137.32-.32.366-.686.069-.549.48-.846 1.006-.846.937 0 1.189.846 1.166 1.806l-.023.503c0 .183-.046.366-.434.503-.71.274-1.418.525-2.08.754-1.304.457-1.578 1.074-1.578 1.76 0 .96.64 1.851 1.943 1.851.686 0 1.257-.274 1.623-.502.274-.16.412-.275.503-.275.091 0 .16.092.297.229.366.388.892.526 1.372.526.594 0 1.509-.298 1.897-.846.023-.137-.114-.343-.206-.343zm-3.451-.754c-.023.457-.229.914-.915.914-.731 0-1.051-.617-1.051-1.097 0-.823.503-1.074 1.028-1.28.343-.137.686-.229.846-.229.092 0 .16.115.16.32l-.068 1.372z" fill-rule="nonzero"/><path d="M204.598 21.394c-.297.206-.526.343-.914.343-1.212 0-1.395-1.051-1.395-2.263V16.55c0-.618.023-.64.366-.64h1.806c.16-.092.229-.275.251-.503 0-.183-.045-.343-.16-.389h-1.874c-.366 0-.366-.046-.366-.366V13.51c-.091-.16-.366-.206-.526-.092a3.509 3.509 0 0 1-1.051 1.166 6.128 6.128 0 0 1-1.509.8c-.16.114-.137.411.046.503h.663c.297 0 .343.023.343.685v3.84c0 1.326.32 2.378 2.126 2.378 1.165 0 2.034-.503 2.4-1.052.068-.183-.046-.343-.206-.343z"/><path d="M211.982 20.411c-.434.709-1.052.938-1.829.938-1.692 0-2.857-1.372-2.857-3.063 0-.229.045-.252.388-.252h3.292c.754 0 1.189-.068 1.303-.251a.99.99 0 0 0 .092-.434c0-1.646-1.44-2.56-2.835-2.56-2.538 0-4 2.057-4 4.205 0 2.172 1.462 3.795 3.657 3.795 1.166 0 2.56-.572 3.2-2.08 0-.16-.205-.343-.411-.298zm-2.675-4.891c.823 0 1.258.549 1.258 1.234 0 .16-.069.32-.183.389-.137.068-.389.137-.938.137h-1.737c-.229 0-.274-.046-.274-.137.023-.389.617-1.623 1.874-1.623z" fill-rule="nonzero"/><path d="M218.749 21.394c-.298.206-.526.343-.915.343-1.211 0-1.394-1.051-1.394-2.263V16.55c0-.618.023-.64.365-.64h1.806c.16-.092.229-.275.252-.503 0-.183-.046-.343-.16-.389h-1.875c-.365 0-.365-.046-.365-.366V13.51c-.092-.16-.366-.206-.526-.092a3.509 3.509 0 0 1-1.052 1.166 6.128 6.128 0 0 1-1.509.8c-.16.114-.137.411.046.503h.663c.297 0 .343.023.343.685v3.84c0 1.326.32 2.378 2.126 2.378 1.166 0 2.035-.503 2.4-1.052.069-.183-.045-.343-.205-.343z"/><path d="M29.558 9.509c-.64-1.463-1.463-2.835-2.469-4.023a40.6 40.6 0 0 0 3.132-3.749L28.187.251a37.765 37.765 0 0 1-2.88 3.452C22.631 1.394 19.18 0 15.43 0 7.36 0 .73 6.423.069 14.606c-.023.137-.023.274-.023.411C0 15.337 0 15.68 0 16c0 .206 0 .434.023.64v.251c0 .069 0 .138.023.206.045.686.137 1.372.251 2.034 1.418 7.315 7.658 12.846 15.134 12.846 7.475 0 13.716-5.531 15.133-12.846.069-.342.114-.685.16-1.005.091-.709.137-1.417.137-2.149 0-1.646-.228-3.223-.686-4.708-.16-.595-.388-1.189-.617-1.76zm-2.149 1.394c-5.463 3.291-11.841 5.166-18.676 5.166a37.104 37.104 0 0 0 8.48-3.155 37.096 37.096 0 0 0 8.047-5.668 13.991 13.991 0 0 1 2.15 3.657zM15.431 2.514c3.04 0 5.852 1.12 8.07 2.949a35.297 35.297 0 0 1-7.453 5.234 34.56 34.56 0 0 1-13.465 3.817c.732-6.743 6.218-12 12.848-12zm0 26.972c-6.081 0-11.202-4.412-12.573-10.332H27.98c-1.349 5.92-6.447 10.332-12.55 10.332zM28.347 16.64h-9.853a37.177 37.177 0 0 0 9.464-3.954A14.3 14.3 0 0 1 28.347 16c.022.206 0 .434 0 .64z" fill-rule="nonzero"/></g></svg>