<svg id="Layer_1" data-name="Layer 1" xmlns="http://www.w3.org/2000/svg" viewBox="0 0 841.89 595.28"><defs><style>.cls-1{fill:#00586f;}.cls-2{fill:#cfb400;}</style></defs><polygon class="cls-1" points="409.53 233.93 409.56 306.1 348.42 233.96 324.36 233.97 324.42 372.22 359.81 372.21 359.78 300.04 420.92 372.18 444.97 372.17 444.92 233.92 409.53 233.93"/><rect class="cls-1" x="478.82" y="233.9" width="35.39" height="138.26"/><polygon class="cls-1" points="659.87 233.83 543.46 233.87 543.47 269.27 583.98 269.26 584.02 372.11 619.39 372.1 619.35 269.24 659.88 269.23 659.87 233.83"/><path class="cls-2" d="M246.52,314.35A14.51,14.51,0,1,1,232,299.79a14.52,14.52,0,0,1,14.51,14.56"/><path class="cls-1" d="M256.58,234l0,78.82v1.52a24.61,24.61,0,1,1-49.22,0v-1.52l0-78.82H172l0,83.78c0,30.76,17.44,55.77,60,55.76s60-25.05,60-55.8L292,234Z"/></svg>