<svg width="314" height="115" viewBox="0 0 314 115" fill="none" xmlns="http://www.w3.org/2000/svg">
<path d="M0 8C0 3.58172 3.58172 0 8 0H306C310.418 0 314 3.58172 314 8V115H0V8Z" fill="#FFCC80"/>
<path d="M151.128 91.3172C157.409 91.3172 162.501 90.1916 162.501 88.8031C162.501 87.4146 157.409 86.2891 151.128 86.2891C144.846 86.2891 139.754 87.4146 139.754 88.8031C139.754 90.1916 144.846 91.3172 151.128 91.3172Z" fill="black"/>
<path d="M151.127 88.8027L144.738 108.798" stroke="black" stroke-width="0.720878" stroke-miterlimit="10" stroke-linecap="round"/>
<path d="M151.127 88.8027L157.516 108.798" stroke="black" stroke-width="0.720878" stroke-miterlimit="10" stroke-linecap="round"/>
<path d="M146.836 102.233L153.958 97.666" stroke="black" stroke-width="0.360439" stroke-miterlimit="10" stroke-linecap="round"/>
<path d="M148.266 97.666L155.39 102.233" stroke="black" stroke-width="0.360439" stroke-miterlimit="10" stroke-linecap="round"/>
<path d="M178.727 106.414C178.727 106.841 178.476 109.535 178.976 109.784C179.475 110.033 184.963 110.184 185.211 109.934C185.46 109.683 185.609 109.161 185.391 109.011C185.173 108.861 183.049 108.438 182.76 108.238C182.472 108.038 182.074 106.976 182.22 106.414" fill="#1F161E"/>
<path d="M162.321 71.1935L165.41 70.0851C165.277 64.4497 163.959 51.8577 162.089 49.9853C161.649 49.5473 152.951 48.7832 151.4 48.7832C142.14 48.7832 139.393 49.8393 138.696 50.5385C136.533 52.7012 135.859 62.7214 135.859 66.2303C135.859 69.7391 145.771 71.5593 145.771 71.5593L157.39 72.3577C157.39 72.3577 159.938 72.6208 162.143 72.7506C162.191 72.0748 162.321 71.1935 162.321 71.1935Z" fill="#EBEEF3"/>
<path d="M171.523 74.4617C172.369 74.2112 180.774 72.8397 182.605 74.6419C184.436 76.4441 190.2 102.282 190.2 102.877H185.559L179.295 89.3947" fill="#1F161E"/>
<path d="M140.921 72.1646C140.71 73.2189 139.443 74.3506 139.443 80.0942C139.443 88.0365 145.949 88.2041 148.285 88.2041C155.562 88.2041 167.336 86.0415 168.131 85.645C168.659 86.5281 178.378 106.37 178.423 106.814H182.898C182.898 106.814 180.124 77.1278 175.12 73.7613C173.494 72.68 144.654 71.523 140.921 72.1646Z" fill="#546B7D"/>
<path d="M167.125 66.3555C165.95 66.3555 164.98 66.6348 162.32 67.1574L162.182 72.2468C164.705 71.2304 165.29 69.8175 166.022 69.8175C167.85 69.8175 168.805 70.76 169.884 70.76C170.638 70.76 171.993 70.1689 171.993 69.3651C171.993 67.6819 168.581 66.3555 167.125 66.3555Z" fill="#EED0C3"/>
<path d="M185.823 102.52C185.823 102.948 185.572 105.641 186.071 105.891C186.571 106.142 192.058 106.29 192.307 106.041C192.556 105.792 192.705 105.268 192.487 105.118C192.269 104.969 190.144 104.543 189.856 104.343C189.568 104.143 189.169 103.082 189.315 102.52" fill="#1F161E"/>
<path d="M153.037 49.9826C153.037 50.662 149.092 50.6818 149.092 49.9826V44.457H153.037V49.9826Z" fill="#EED0C3"/>
<path d="M151.752 46.278C151.391 46.278 149.092 47.2944 149.092 47.8621V44.8633C149.665 44.8633 151.752 46.278 151.752 46.278Z" fill="#1F161E"/>
<path d="M152.514 46.5126C155.152 46.5126 157.29 44.3744 157.29 41.7368C157.29 39.0991 155.152 36.9609 152.514 36.9609C149.876 36.9609 147.738 39.0991 147.738 41.7368C147.738 44.3744 149.876 46.5126 152.514 46.5126Z" fill="#EED0C3"/>
<path d="M157.443 37.9874C156.852 38.9263 155.615 39.357 154.276 39.357C153.135 39.357 151.474 39.0254 150.292 39.6994C149.652 40.0599 148.918 40.8799 148.771 42.5217C148.771 42.8028 148.452 43.8932 148.452 44.2446C148.452 44.4843 148.181 44.6411 147.731 44.6411C147.498 44.6411 147.039 44.2644 147.039 43.6895C147.039 43.0245 147.304 42.7884 147.304 42.2243C147.304 41.6602 146.613 41.1178 146.613 39.5499C146.613 37.2917 148.055 35.9004 149.075 35.9004C150.005 35.9004 150.297 36.1167 150.414 36.2086C150.414 34.1559 153.117 33.2188 154.19 33.2188C155.415 33.2188 155.992 33.7216 155.992 34.3613C155.992 35.3814 155.505 36.2482 155.258 36.4429C155.817 35.9401 156.543 35.6633 157.295 35.6661C158.699 35.6661 159.171 36.5889 159.171 37.2196C159.171 38.5911 157.526 39.8616 156.913 39.8616C156.759 39.5355 156.578 39.2227 156.372 38.9263" fill="#1F161E"/>
<path d="M157.336 42.6128C157.772 42.6128 158.126 42.4288 158.126 42.2019C158.126 41.975 157.772 41.791 157.336 41.791C156.9 41.791 156.547 41.975 156.547 42.2019C156.547 42.4288 156.9 42.6128 157.336 42.6128Z" fill="#FA9E9F"/>
<path d="M152.371 42.6128C152.807 42.6128 153.161 42.4288 153.161 42.2019C153.161 41.975 152.807 41.791 152.371 41.791C151.935 41.791 151.582 41.975 151.582 42.2019C151.582 42.4288 151.935 42.6128 152.371 42.6128Z" fill="#FA9E9F"/>
<path d="M155.41 41.3496C155.558 41.5605 156.311 42.4453 155.516 42.804" stroke="#1F161E" stroke-width="0.18022" stroke-miterlimit="10" stroke-linecap="round"/>
<path d="M153.924 43.8378C153.686 43.8378 153.32 43.5423 153.127 43.2773" stroke="#1F161E" stroke-width="0.18022" stroke-miterlimit="10" stroke-linecap="round"/>
<path d="M135.859 65.6367C135.859 73.943 135.937 76.3526 139.271 76.3526C146.955 76.3526 158.572 70.0449 160.643 70.0449C162.472 70.0449 163.428 70.9892 164.507 70.9892C165.259 70.9892 166.614 70.3963 166.614 69.5943C166.614 67.9093 163.202 66.5829 161.748 66.5829C158.473 66.5829 145.406 69.7403 145.087 69.7403C144.768 69.7403 144.231 69.6015 144.231 69.0645C144.231 68.0895 144.869 65.8368 144.951 65.6403L135.859 65.6367Z" fill="#EED0C3"/>
<path d="M185.051 70.9935H168.379L171.399 60.6056C171.475 60.355 171.629 60.1355 171.84 59.9799C172.05 59.8243 172.305 59.741 172.567 59.7423H186.714C186.9 59.7393 187.084 59.7798 187.252 59.8605C187.419 59.9412 187.565 60.0598 187.679 60.2071C187.792 60.3543 187.87 60.526 187.905 60.7084C187.94 60.8909 187.933 61.0791 187.882 61.258L185.051 70.9935Z" fill="black"/>
<path d="M205.465 109.471C205.595 109.964 206.099 110.259 206.592 110.129C207.085 110 207.379 109.495 207.25 109.002L198.023 73.9058C197.893 73.4129 197.389 73.1184 196.896 73.248C196.403 73.3776 196.108 73.8822 196.238 74.375L205.465 109.471Z" fill="#999999"/>
<path d="M196.146 74.3773C196.275 73.8844 195.981 73.3798 195.488 73.2502C194.995 73.1207 194.491 73.4152 194.361 73.908L185.134 109.004C185.005 109.497 185.299 110.002 185.792 110.131C186.285 110.261 186.789 109.966 186.919 109.474L196.146 74.3773Z" fill="#999999"/>
<path d="M183.415 74.3792C183.545 73.8863 183.25 73.3818 182.758 73.2522C182.265 73.1226 181.76 73.4171 181.631 73.91L172.404 109.006C172.274 109.499 172.569 110.004 173.061 110.133C173.554 110.263 174.059 109.968 174.188 109.476L183.415 74.3792Z" fill="#BFBFBF"/>
<path d="M192.574 109.473C192.704 109.966 193.208 110.261 193.701 110.131C194.194 110.002 194.489 109.497 194.359 109.004L185.132 73.9077C185.003 73.4149 184.498 73.1204 184.005 73.25C183.512 73.3795 183.218 73.8841 183.347 74.377L192.574 109.473Z" fill="#BFBFBF"/>
<path d="M131.501 74.3017C131.628 73.8074 131.331 73.3034 130.836 73.176C130.342 73.0486 129.838 73.346 129.711 73.8404L120.638 109.041C120.511 109.535 120.809 110.039 121.303 110.166C121.797 110.294 122.301 109.996 122.429 109.502L131.501 74.3017Z" fill="#999999"/>
<path d="M140.518 109.338C140.646 109.832 141.15 110.13 141.644 110.002C142.138 109.875 142.436 109.371 142.308 108.876L133.236 73.6761C133.109 73.1818 132.605 72.8844 132.11 73.0118C131.616 73.1392 131.319 73.6432 131.446 74.1375L140.518 109.338Z" fill="#999999"/>
<path d="M201.831 71.5156H112.592C112.141 71.5156 111.775 71.8811 111.775 72.332V73.4296C111.775 73.8804 112.141 74.246 112.592 74.246H201.831C202.282 74.246 202.647 73.8804 202.647 73.4296V72.332C202.647 71.8811 202.282 71.5156 201.831 71.5156Z" fill="#BFBFBF"/>
<path d="M118.245 74.3792C118.375 73.8864 118.081 73.3818 117.588 73.2522C117.095 73.1226 116.59 73.4171 116.461 73.91L107.234 109.006C107.104 109.499 107.399 110.004 107.891 110.133C108.384 110.263 108.889 109.968 109.018 109.476L118.245 74.3792Z" fill="#BFBFBF"/>
<path d="M127.408 109.473C127.538 109.966 128.042 110.261 128.535 110.131C129.028 110.002 129.323 109.497 129.193 109.004L119.966 73.9077C119.837 73.4149 119.332 73.1204 118.839 73.25C118.346 73.3795 118.052 73.8841 118.181 74.377L127.408 109.473Z" fill="#BFBFBF"/>
<g clip-path="url(#clip0_7013_221928)">
<path d="M270.91 17.0898H175.574V79.8062H270.91V17.0898Z" stroke="black" stroke-width="0.18022" stroke-miterlimit="10"/>
<path d="M175.574 20.4238H270.91" stroke="black" stroke-width="0.18022" stroke-miterlimit="10"/>
<path d="M263.703 26.0117H182.779V54.6666H263.703V26.0117Z" fill="#BFBFBF"/>
<path d="M201.346 35.7617H245.139" stroke="black" stroke-width="0.18022" stroke-miterlimit="10"/>
<path d="M201.346 59.25H245.139" stroke="black" stroke-width="0.18022" stroke-miterlimit="10"/>
<path d="M201.346 63.5742H245.139" stroke="black" stroke-width="0.18022" stroke-miterlimit="10"/>
<path d="M201.346 67.9004H245.139" stroke="black" stroke-width="0.18022" stroke-miterlimit="10"/>
<path d="M201.346 72.2246H245.139" stroke="black" stroke-width="0.18022" stroke-miterlimit="10"/>
<path d="M177.647 19.6122C178.095 19.6122 178.458 19.2491 178.458 18.8012C178.458 18.3533 178.095 17.9902 177.647 17.9902C177.199 17.9902 176.836 18.3533 176.836 18.8012C176.836 19.2491 177.199 19.6122 177.647 19.6122Z" fill="#EF5350"/>
<path d="M180.44 19.6122C180.888 19.6122 181.251 19.2491 181.251 18.8012C181.251 18.3533 180.888 17.9902 180.44 17.9902C179.992 17.9902 179.629 18.3533 179.629 18.8012C179.629 19.2491 179.992 19.6122 180.44 19.6122Z" fill="#51698F"/>
<path d="M183.233 19.6122C183.681 19.6122 184.044 19.2491 184.044 18.8012C184.044 18.3533 183.681 17.9902 183.233 17.9902C182.785 17.9902 182.422 18.3533 182.422 18.8012C182.422 19.2491 182.785 19.6122 183.233 19.6122Z" fill="#7DBF9D"/>
<path d="M222.175 40.3379H212.16V43.7891H222.175V40.3379Z" fill="#E3F2EB"/>
<path d="M234.323 40.3379H224.309V43.7891H234.323V40.3379Z" fill="#E3F2EB"/>
</g>
<defs>
<clipPath id="clip0_7013_221928">
<rect width="95.5163" height="62.8966" fill="white" transform="translate(175.484 17)"/>
</clipPath>
</defs>
</svg>
