<svg width="586" height="160" viewBox="0 0 586 160" fill="none" xmlns="http://www.w3.org/2000/svg">
<rect width="586" height="160" fill="#FFCC80"/>
<path d="M225.652 131.571C234.998 131.571 242.574 129.896 242.574 127.83C242.574 125.764 234.998 124.09 225.652 124.09C216.307 124.09 208.73 125.764 208.73 127.83C208.73 129.896 216.307 131.571 225.652 131.571Z" fill="black"/>
<path d="M225.652 127.828L216.146 157.577" stroke="black" stroke-width="1.07253" stroke-miterlimit="10" stroke-linecap="round"/>
<path d="M225.652 127.828L235.158 157.577" stroke="black" stroke-width="1.07253" stroke-miterlimit="10" stroke-linecap="round"/>
<path d="M219.268 147.81L229.864 141.016" stroke="black" stroke-width="0.536263" stroke-miterlimit="10" stroke-linecap="round"/>
<path d="M221.396 141.016L231.996 147.81" stroke="black" stroke-width="0.536263" stroke-miterlimit="10" stroke-linecap="round"/>
<path d="M266.717 154.031C266.717 154.667 266.344 158.675 267.087 159.045C267.829 159.415 275.994 159.641 276.364 159.268C276.734 158.895 276.956 158.118 276.632 157.895C276.308 157.672 273.146 157.042 272.717 156.745C272.288 156.447 271.696 154.868 271.913 154.031" fill="#1F161E"/>
<path d="M242.305 101.629L246.901 99.9802C246.703 91.5958 244.743 72.8614 241.959 70.0755C241.305 69.424 228.365 68.2871 226.057 68.2871C212.28 68.2871 208.194 69.8584 207.156 70.8987C203.938 74.1163 202.936 89.0244 202.936 94.2449C202.936 99.4654 217.683 102.174 217.683 102.174L234.969 103.361C234.969 103.361 238.761 103.753 242.04 103.946C242.112 102.94 242.305 101.629 242.305 101.629Z" fill="#EBEEF3"/>
<path d="M256 106.492C257.258 106.12 269.763 104.079 272.487 106.76C275.212 109.442 283.786 147.884 283.786 148.768H276.882L267.562 128.71" fill="#1F161E"/>
<path d="M210.468 103.073C210.154 104.641 208.27 106.325 208.27 114.871C208.27 126.687 217.949 126.936 221.424 126.936C232.251 126.936 249.768 123.719 250.951 123.129C251.736 124.443 266.197 153.964 266.264 154.624H272.921C272.921 154.624 268.795 110.457 261.349 105.448C258.93 103.84 216.021 102.118 210.468 103.073Z" fill="#546B7D"/>
<path d="M249.454 94.4336C247.706 94.4336 246.264 94.8492 242.306 95.6268L242.1 103.199C245.853 101.687 246.725 99.5844 247.813 99.5844C250.532 99.5844 251.953 100.987 253.56 100.987C254.68 100.987 256.697 100.107 256.697 98.9114C256.697 96.407 251.621 94.4336 249.454 94.4336Z" fill="#EED0C3"/>
<path d="M277.273 148.236C277.273 148.874 276.9 152.88 277.643 153.253C278.386 153.626 286.551 153.846 286.921 153.476C287.291 153.106 287.513 152.325 287.189 152.103C286.864 151.88 283.703 151.247 283.274 150.95C282.845 150.652 282.252 149.073 282.47 148.236" fill="#1F161E"/>
<path d="M228.494 70.0705C228.494 71.0814 222.625 71.1109 222.625 70.0705V61.8496H228.494V70.0705Z" fill="#EED0C3"/>
<path d="M226.583 64.5619C226.046 64.5619 222.625 66.0741 222.625 66.9187V62.457C223.478 62.457 226.583 64.5619 226.583 64.5619Z" fill="#1F161E"/>
<path d="M227.717 64.9102C231.641 64.9102 234.822 61.729 234.822 57.8047C234.822 53.8805 231.641 50.6992 227.717 50.6992C223.793 50.6992 220.611 53.8805 220.611 57.8047C220.611 61.729 223.793 64.9102 227.717 64.9102Z" fill="#EED0C3"/>
<path d="M235.05 52.2276C234.17 53.6245 232.331 54.2654 230.338 54.2654C228.641 54.2654 226.169 53.772 224.41 54.7748C223.458 55.3111 222.367 56.5311 222.147 58.9738C222.147 59.392 221.672 61.0142 221.672 61.5371C221.672 61.8937 221.27 62.127 220.6 62.127C220.254 62.127 219.57 61.5666 219.57 60.7113C219.57 59.7218 219.964 59.3706 219.964 58.5313C219.964 57.6921 218.938 56.885 218.938 54.5523C218.938 51.1926 221.083 49.1226 222.6 49.1226C223.984 49.1226 224.418 49.4444 224.592 49.5811C224.592 46.5271 228.614 45.1328 230.21 45.1328C232.033 45.1328 232.891 45.8809 232.891 46.8328C232.891 48.3504 232.167 49.6401 231.8 49.9297C232.631 49.1817 233.711 48.7698 234.83 48.774C236.918 48.774 237.621 50.1469 237.621 51.0853C237.621 53.1258 235.173 55.0161 234.261 55.0161C234.032 54.5309 233.763 54.0655 233.457 53.6245" fill="#1F161E"/>
<path d="M234.891 59.1074C235.54 59.1074 236.066 58.8337 236.066 58.4961C236.066 58.1585 235.54 57.8848 234.891 57.8848C234.243 57.8848 233.717 58.1585 233.717 58.4961C233.717 58.8337 234.243 59.1074 234.891 59.1074Z" fill="#FA9E9F"/>
<path d="M227.504 59.1074C228.153 59.1074 228.679 58.8337 228.679 58.4961C228.679 58.1585 228.153 57.8848 227.504 57.8848C226.856 57.8848 226.33 58.1585 226.33 58.4961C226.33 58.8337 226.856 59.1074 227.504 59.1074Z" fill="#FA9E9F"/>
<path d="M232.023 57.2266C232.243 57.5403 233.364 58.8568 232.182 59.3904" stroke="#1F161E" stroke-width="0.268131" stroke-miterlimit="10" stroke-linecap="round"/>
<path d="M229.814 60.9276C229.46 60.9276 228.916 60.4879 228.629 60.0938" stroke="#1F161E" stroke-width="0.268131" stroke-miterlimit="10" stroke-linecap="round"/>
<path d="M202.936 93.3613C202.936 105.72 203.051 109.304 208.011 109.304C219.444 109.304 236.728 99.9198 239.809 99.9198C242.531 99.9198 243.952 101.325 245.558 101.325C246.676 101.325 248.692 100.443 248.692 99.2495C248.692 96.7425 243.616 94.769 241.453 94.769C236.581 94.769 217.138 99.4667 216.664 99.4667C216.189 99.4667 215.39 99.2602 215.39 98.4612C215.39 97.0106 216.339 93.659 216.463 93.3667L202.936 93.3613Z" fill="#EED0C3"/>
<path d="M276.125 101.333H251.32L255.814 85.8783C255.926 85.5054 256.156 85.1789 256.469 84.9474C256.783 84.7159 257.162 84.5919 257.552 84.594H278.6C278.876 84.5895 279.15 84.6497 279.399 84.7698C279.648 84.8898 279.866 85.0664 280.035 85.2854C280.203 85.5044 280.319 85.7599 280.371 86.0313C280.424 86.3028 280.412 86.5828 280.337 86.849L276.125 101.333Z" fill="black"/>
<path d="M306.497 158.581C306.69 159.315 307.441 159.753 308.174 159.56C308.908 159.367 309.346 158.616 309.153 157.883L295.425 105.667C295.232 104.933 294.481 104.495 293.748 104.688C293.015 104.881 292.577 105.632 292.769 106.365L306.497 158.581Z" fill="#999999"/>
<path d="M292.631 106.366C292.823 105.632 292.385 104.882 291.652 104.689C290.919 104.496 290.168 104.934 289.975 105.668L276.247 157.884C276.054 158.617 276.493 159.368 277.226 159.561C277.959 159.754 278.71 159.315 278.903 158.582L292.631 106.366Z" fill="#999999"/>
<path d="M273.691 106.368C273.884 105.634 273.446 104.884 272.712 104.691C271.979 104.498 271.228 104.936 271.036 105.67L257.308 157.886C257.115 158.619 257.553 159.37 258.286 159.563C259.02 159.756 259.77 159.317 259.963 158.584L273.691 106.368Z" fill="#BFBFBF"/>
<path d="M287.318 158.583C287.511 159.317 288.261 159.755 288.995 159.562C289.728 159.369 290.166 158.618 289.973 157.885L276.245 105.669C276.052 104.935 275.302 104.497 274.568 104.69C273.835 104.883 273.397 105.634 273.59 106.367L287.318 158.583Z" fill="#BFBFBF"/>
<path d="M196.453 106.254C196.642 105.519 196.2 104.769 195.464 104.58C194.729 104.39 193.979 104.833 193.79 105.568L180.292 157.939C180.102 158.675 180.545 159.425 181.28 159.614C182.016 159.804 182.766 159.361 182.955 158.626L196.453 106.254Z" fill="#999999"/>
<path d="M209.868 158.382C210.058 159.118 210.808 159.56 211.543 159.371C212.279 159.181 212.721 158.431 212.532 157.696L199.034 105.324C198.845 104.589 198.095 104.146 197.359 104.336C196.624 104.526 196.181 105.275 196.371 106.011L209.868 158.382Z" fill="#999999"/>
<path d="M301.089 102.109H168.318C167.647 102.109 167.104 102.653 167.104 103.324V104.957C167.104 105.628 167.647 106.172 168.318 106.172H301.089C301.76 106.172 302.303 105.628 302.303 104.957V103.324C302.303 102.653 301.76 102.109 301.089 102.109Z" fill="#BFBFBF"/>
<path d="M176.732 106.37C176.925 105.636 176.487 104.886 175.753 104.693C175.02 104.5 174.27 104.938 174.077 105.671L160.349 157.888C160.156 158.621 160.594 159.372 161.327 159.565C162.061 159.758 162.811 159.319 163.004 158.586L176.732 106.37Z" fill="#BFBFBF"/>
<path d="M190.363 158.583C190.555 159.317 191.306 159.755 192.039 159.562C192.773 159.369 193.211 158.618 193.018 157.885L179.29 105.669C179.097 104.935 178.347 104.497 177.613 104.69C176.88 104.883 176.442 105.634 176.635 106.367L190.363 158.583Z" fill="#BFBFBF"/>
<g clip-path="url(#clip0_7013_221908)">
<path d="M403.867 21.1348H262.025V114.445H403.867V21.1348Z" stroke="black" stroke-width="0.268131" stroke-miterlimit="10"/>
<path d="M262.025 26.0938H403.867" stroke="black" stroke-width="0.268131" stroke-miterlimit="10"/>
<path d="M393.143 34.4062H272.744V77.0391H393.143V34.4062Z" fill="#BFBFBF"/>
<path d="M300.367 48.916H365.523" stroke="black" stroke-width="0.268131" stroke-miterlimit="10"/>
<path d="M300.367 83.8574H365.523" stroke="black" stroke-width="0.268131" stroke-miterlimit="10"/>
<path d="M300.367 90.293H365.523" stroke="black" stroke-width="0.268131" stroke-miterlimit="10"/>
<path d="M300.367 96.7285H365.523" stroke="black" stroke-width="0.268131" stroke-miterlimit="10"/>
<path d="M300.367 103.164H365.523" stroke="black" stroke-width="0.268131" stroke-miterlimit="10"/>
<path d="M265.109 24.8878C265.775 24.8878 266.316 24.3476 266.316 23.6812C266.316 23.0148 265.775 22.4746 265.109 22.4746C264.443 22.4746 263.902 23.0148 263.902 23.6812C263.902 24.3476 264.443 24.8878 265.109 24.8878Z" fill="#EF5350"/>
<path d="M269.263 24.8878C269.93 24.8878 270.47 24.3476 270.47 23.6812C270.47 23.0148 269.93 22.4746 269.263 22.4746C268.597 22.4746 268.057 23.0148 268.057 23.6812C268.057 24.3476 268.597 24.8878 269.263 24.8878Z" fill="#51698F"/>
<path d="M273.419 24.8878C274.086 24.8878 274.626 24.3476 274.626 23.6812C274.626 23.0148 274.086 22.4746 273.419 22.4746C272.753 22.4746 272.213 23.0148 272.213 23.6812C272.213 24.3476 272.753 24.8878 273.419 24.8878Z" fill="#7DBF9D"/>
<path d="M331.357 55.7227H316.457V60.8574H331.357V55.7227Z" fill="#E3F2EB"/>
<path d="M349.433 55.7227H334.533V60.8574H349.433V55.7227Z" fill="#E3F2EB"/>
</g>
<defs>
<clipPath id="clip0_7013_221908">
<rect width="142.11" height="93.5779" fill="white" transform="translate(261.891 21)"/>
</clipPath>
</defs>
</svg>
