<svg width="440" height="160" viewBox="0 0 440 160" fill="none" xmlns="http://www.w3.org/2000/svg">
<g clip-path="url(#clip0_8997_281114)">
<path d="M337.952 147.125C337.952 147.727 338.231 151.262 337.74 151.868C336.844 152.969 329.351 152.672 328.992 152.33C328.632 151.989 328.401 151.262 328.709 151.042C329.017 150.822 331.976 150.143 332.38 149.849C332.784 149.555 333.294 148.061 333.063 147.279" fill="#1F161E"/>
<path d="M313.346 147.125C313.346 147.727 313.628 151.262 313.133 151.868C312.237 152.969 304.748 152.672 304.388 152.33C304.029 151.989 303.794 151.262 304.106 151.042C304.418 150.822 307.369 150.143 307.777 149.849C308.184 149.555 308.691 148.061 308.456 147.279" fill="#1F161E"/>
<path d="M305.378 82.9863C305.693 83.6278 305.854 84.3344 305.847 85.0494C305.847 86.9694 304.776 88.5259 303.458 88.5259C302.14 88.5259 301.068 86.9694 301.068 85.0494C301.061 84.3344 301.222 83.6278 301.538 82.9863H305.378Z" fill="#FFEBEE"/>
<path d="M307.48 147.176C306.746 146.32 304.653 82.9775 304.653 82.9775L312.443 82.8086C312.443 82.8086 318.684 100.103 318.684 100.844C318.684 101.586 315.486 116.262 314.278 120.132C314.201 122.235 314.59 146.783 313.966 147.367C313.342 147.95 308.21 148.049 307.48 147.176Z" fill="#1F161E"/>
<path d="M310.747 83.7573C310.747 87.3879 322.494 113.735 324.741 117.009C326.107 121.37 331.562 146.461 332.355 147.056C333.148 147.651 338.206 148.245 338.801 147.056C339.396 145.867 331.305 88.1735 329.836 80.8719C328.368 73.5703 310.747 76.5328 310.747 83.7573Z" fill="#546B7D"/>
<path d="M327.998 42.3261C325.612 39.5728 304.757 37.8438 302.301 39.7564C297.345 43.6109 300.833 82.7069 301.2 84.1753C301.567 84.9095 304.137 83.4411 304.137 83.4411C304.504 83.8082 322.859 84.5424 329.833 80.8714C329.833 79.0359 328.732 71.3269 328.732 71.3269C330.201 71.3269 334.239 70.2256 334.973 69.1243C335.707 68.023 330.806 45.5602 327.998 42.3261Z" fill="#7DBF9D"/>
<path d="M328.938 71.6934C327.341 71.976 315.024 72.8901 310.751 72.5487" stroke="#1F161E" stroke-width="0.55" stroke-miterlimit="10" stroke-linecap="round"/>
<path d="M310.105 68.5003C321.76 65.9857 327.307 67.3403 323.596 56.2539" stroke="#1F161E" stroke-width="0.55" stroke-miterlimit="10" stroke-linecap="round"/>
<path d="M303.532 54.5918C303.594 55.638 304.332 83.4788 304.332 83.4788" stroke="#1F161E" stroke-width="0.55" stroke-miterlimit="10" stroke-linecap="round"/>
<path d="M309.911 40.3285C309.911 41.2866 315.176 41.3416 315.172 40.3285V33.9336H309.911V40.3285Z" fill="#FFEBEE"/>
<path d="M315.152 37.7421C315.152 37.1731 313.423 34.7392 312.421 35.0733C313.658 34.6327 314.686 33.6049 315.141 33.9206L315.152 37.7421Z" fill="#1F161E"/>
<path d="M310.067 36.4603C306.294 36.4603 303.235 33.4016 303.235 29.6286C303.235 25.8555 306.294 22.7969 310.067 22.7969C313.84 22.7969 316.898 25.8555 316.898 29.6286C316.898 33.4016 313.84 36.4603 310.067 36.4603Z" fill="#FFEBEE"/>
<path d="M302.624 31.9159C302.591 31.5892 303.071 31.2715 303.699 31.2064C304.326 31.1413 304.862 31.3533 304.896 31.68C304.93 32.0066 304.449 32.3243 303.821 32.3894C303.194 32.4546 302.658 32.2426 302.624 31.9159Z" fill="#FA9E9F"/>
<path d="M309.757 31.1698C309.723 30.8431 310.204 30.5254 310.831 30.4603C311.459 30.3952 311.994 30.6072 312.028 30.9339C312.062 31.2606 311.581 31.5782 310.954 31.6433C310.327 31.7085 309.791 31.4965 309.757 31.1698Z" fill="#FA9E9F"/>
<path d="M306.403 30.2852C306.223 30.6082 305.265 31.9922 306.469 32.3886" stroke="#1F161E" stroke-width="0.69" stroke-miterlimit="10" stroke-linecap="round"/>
<path d="M308.912 33.6324C309.249 33.5883 309.734 33.1184 309.973 32.7109" stroke="#1F161E" stroke-width="0.69" stroke-miterlimit="10" stroke-linecap="round"/>
<path d="M315.589 30.2856C314.757 30.2856 314.084 29.6117 314.084 28.7805C314.084 27.9492 314.757 27.2754 315.589 27.2754C316.42 27.2754 317.094 27.9492 317.094 28.7805C317.094 29.6117 316.42 30.2856 315.589 30.2856Z" fill="#FFEBEE"/>
<path d="M314.569 30.1054C314.569 32.1098 316.772 33.4093 317.528 33.4093C317.645 33.4235 317.764 33.4124 317.877 33.3766C317.99 33.3408 318.094 33.2812 318.181 33.2018C318.269 33.1225 318.339 33.0252 318.386 32.9166C318.432 32.808 318.455 32.6906 318.453 32.5723C318.453 31.7317 317.961 31.0158 316.922 30.1054C317.113 29.7934 318.453 28.1488 318.453 25.8067C318.453 23.3508 316.944 21.2914 315.935 21.2914C315.503 21.3201 315.093 21.4909 314.769 21.7772C314.445 22.0634 314.225 22.449 314.143 22.8736C314.143 19.4412 310.472 17 308.27 17C306.232 17 305.88 17.8884 305.88 18.6079C305.88 20.1901 307.128 21.8824 307.594 22.2972C306.452 21.4566 304.657 20.6086 303.13 20.6086C302.157 20.6086 300.928 20.8839 300.928 22.2165C300.928 24.665 303.222 26.082 303.989 26.4785C304.281 25.9082 304.652 25.3817 305.091 24.9146C304.947 25.3772 305.513 26.2178 306.596 26.4051C307.22 26.5079 314.569 25.5167 314.569 30.1054Z" fill="#1F161E"/>
<path d="M300.492 75.2499H304.596C304.596 75.2499 305.848 63.5909 305.848 62.6768C305.848 61.7627 299.324 61.8765 299.324 62.6768C299.324 63.4771 300.492 75.2499 300.492 75.2499Z" fill="#1F161E"/>
<path d="M303.373 66.6348C302.79 66.6348 299.453 67.424 299.453 69.142C299.453 71.2529 302.07 71.9724 302.584 71.9724C305.348 71.9724 306.127 71.4988 310.539 71.4988C310.539 70.9812 310.444 68.6098 309.831 68.3785C309.082 68.3895 306.956 66.6348 303.373 66.6348Z" fill="#FFEBEE"/>
<path d="M287.097 151.387C287.831 152.222 288.734 152.892 289.747 153.35C290.76 153.809 291.859 154.047 292.971 154.048H351.159C352.263 154.047 353.354 153.812 354.36 153.36C355.367 152.908 356.266 152.248 357 151.423" stroke="#999999" stroke-width="4" stroke-linecap="round" stroke-linejoin="round"/>
<path d="M345.166 160.279C343.8 160.279 342.692 159.171 342.692 157.804C342.692 156.438 343.8 155.33 345.166 155.33C346.533 155.33 347.641 156.438 347.641 157.804C347.641 159.171 346.533 160.279 345.166 160.279Z" fill="#737373"/>
<path d="M298.932 160.279C297.566 160.279 296.458 159.171 296.458 157.804C296.458 156.438 297.566 155.33 298.932 155.33C300.298 155.33 301.406 156.438 301.406 157.804C301.406 159.171 300.298 160.279 298.932 160.279Z" fill="#737373"/>
<g clip-path="url(#clip1_8997_281114)">
<path d="M256.32 145.643L241.75 75.2188" stroke="#999999" stroke-width="4" stroke-linecap="round" stroke-linejoin="round"/>
<path d="M216.614 78.8511C218.068 80.2514 221.225 85.1755 222.71 85.1755C226.829 85.1755 239.439 77.4508 240.302 75.3273C240.521 74.7456 239.036 73.2591 238.624 73.2591C238.212 73.2591 230.862 77.6693 226.35 77.26C223.89 77.0384 222.261 72.1358 219.605 69.2891" fill="#1F161E"/>
<path d="M139.652 84.412C139.345 84.0673 137.71 81.95 137.122 81.8699C136.065 81.7099 132.032 85.6861 132.001 86.0616C131.97 86.437 132.216 86.9602 132.499 86.9264C132.782 86.8925 134.78 85.7661 135.152 85.7292C135.524 85.6923 136.569 86.2647 136.843 86.8279" fill="#1F161E"/>
<path d="M217.471 86.7695C218.759 87.9513 232.078 113.36 232.078 116.622C232.078 119.884 221.387 144.342 220.492 144.865C219.598 145.388 216.957 144.969 216.284 144.234C215.611 143.498 219.665 117.25 219.665 117.25L199.869 96.8824L217.471 86.7695Z" fill="#1F161E"/>
<path d="M201.646 77.004C200.204 77.8564 179.43 89.6035 173.734 94.897C170.642 94.0845 140.046 83.4115 139.641 83.6546C139.235 83.8977 136.222 86.2213 136.222 86.7691C136.222 87.3169 167.617 112.494 176.086 112.494C179.178 112.494 208.876 95.097 217.462 86.7691C218.328 82.1066 205.636 74.6404 201.646 77.004Z" fill="#FFCC80"/>
<path d="M214.978 59.9117C211.852 58.8069 201.674 76.2229 201.674 77.0046C201.674 77.7863 216.048 86.8743 217.502 86.7697C218.956 86.6651 229.715 65.1221 214.978 59.9117Z" fill="#999CBF"/>
<path d="M224.961 53.3868C225.383 53.3498 226.781 51.6048 226.034 47.7025C225.13 46.5176 222.136 46.1422 222.038 47.484C221.94 48.8258 223.676 53.5068 224.961 53.3868Z" fill="#1F161E"/>
<path d="M218.691 64.1225C218.587 64.895 214.339 64.3687 214.452 63.5408L215.159 58.3828L219.398 58.9645L218.691 64.1225Z" fill="#FFEBEE"/>
<path d="M214.738 61.4626C214.8 61.004 216.066 59.5668 216.838 59.9423C215.888 59.4529 215.559 58.185 215.159 58.3819L214.738 61.4626Z" fill="black"/>
<path d="M219.679 60.7242C216.609 60.7242 214.121 58.233 214.121 55.1599C214.121 52.0869 216.609 49.5957 219.679 49.5957C222.748 49.5957 225.236 52.0869 225.236 55.1599C225.236 58.233 222.748 60.7242 219.679 60.7242Z" fill="#FFEBEE"/>
<path d="M225.045 56.979C224.538 56.9072 224.156 56.6347 224.194 56.3705C224.231 56.1063 224.673 55.9503 225.18 56.0222C225.688 56.0941 226.069 56.3665 226.032 56.6308C225.995 56.895 225.553 57.0509 225.045 56.979Z" fill="#FA9E9F"/>
<path d="M219.301 56.3485C218.793 56.2786 218.41 56.0077 218.446 55.7433C218.483 55.479 218.924 55.3213 219.432 55.3911C219.94 55.461 220.322 55.7319 220.286 55.9963C220.25 56.2606 219.808 56.4183 219.301 56.3485Z" fill="#FA9E9F"/>
<path d="M223.037 55.3633C223.176 55.631 223.917 56.7851 222.927 57.0713" stroke="#1F161E" stroke-width="0.69" stroke-miterlimit="10" stroke-linecap="round"/>
<path d="M220.914 58.0219C220.637 57.9758 220.259 57.5818 220.075 57.2402" stroke="#1F161E" stroke-width="0.69" stroke-miterlimit="10" stroke-linecap="round"/>
<path d="M217.658 43.1695C210.302 43.1695 205.02 44.379 201.581 44.379C196.284 44.379 192.104 42 186.165 42C183.459 42 176.534 44.302 176.534 52.0944C176.534 56.5107 178.993 65.2818 189.528 65.2818C198.547 65.2818 200.117 61.4626 203.775 61.4626C207.63 61.4626 214.799 63.2814 216.007 58.3604C216.271 57.0524 216.566 55.449 217.289 54.1318C221.313 52.7253 222.619 52.8484 224.522 51.722C227.27 50.4141 227.402 43.1695 217.658 43.1695Z" fill="#1F161E"/>
<path d="M216.284 56.1841C215.609 56.1841 215.061 55.6357 215.061 54.9592C215.061 54.2828 215.609 53.7344 216.284 53.7344C216.96 53.7344 217.508 54.2828 217.508 54.9592C217.508 55.6357 216.96 56.1841 216.284 56.1841Z" fill="#FFEBEE"/>
<path d="M216.567 144.086C216.468 144.529 215.767 147.114 216.047 147.637C216.554 148.579 222.152 149.435 222.466 149.232C222.779 149.029 223.059 148.524 222.862 148.308C222.665 148.093 220.569 147.17 220.317 146.899C220.065 146.628 219.896 145.437 220.182 144.883" fill="#1F161E"/>
<path d="M250.113 151.691H192.968" stroke="#999999" stroke-width="4" stroke-linecap="round" stroke-linejoin="round"/>
<path d="M242.18 74.6694L238.021 71.998" stroke="#737373" stroke-width="4" stroke-miterlimit="10" stroke-linecap="round"/>
<path d="M240.845 75.0463C239.551 75.0463 238.503 74.4483 238.503 73.7107C238.503 72.973 239.551 72.375 240.845 72.375C242.139 72.375 243.188 72.973 243.188 73.7107C243.188 74.4483 242.139 75.0463 240.845 75.0463Z" fill="#FFEBEE"/>
<path d="M242.669 76.5541C241.376 76.5541 240.327 75.9561 240.327 75.2185C240.327 74.4808 241.376 73.8828 242.669 73.8828C243.963 73.8828 245.012 74.4808 245.012 75.2185C245.012 75.9561 243.963 76.5541 242.669 76.5541Z" fill="#FFEBEE"/>
<path d="M246.633 77.5275L243.494 75.5117" stroke="#737373" stroke-width="4" stroke-miterlimit="10" stroke-linecap="round"/>
<path d="M215.061 79.2177C216.515 80.6149 222.657 86.4099 224.136 86.4099C228.255 86.4099 240.861 78.6852 241.728 76.5617C241.946 75.9801 240.462 74.4936 240.05 74.4936C239.638 74.4936 230.65 79.2392 226.137 78.8207C223.678 78.5991 218.925 69.9573 216.269 67.1074" fill="#999CBF"/>
<path d="M256.75 158.381C253.085 158.381 250.113 155.406 250.113 151.736C250.113 148.067 253.085 145.092 256.75 145.092C260.415 145.092 263.387 148.067 263.387 151.736C263.387 155.406 260.415 158.381 256.75 158.381Z" stroke="#737373" stroke-width="4" stroke-miterlimit="10"/>
<path d="M186.332 158.381C182.667 158.381 179.695 155.406 179.695 151.736C179.695 148.067 182.667 145.092 186.332 145.092C189.997 145.092 192.969 148.067 192.969 151.736C192.969 155.406 189.997 158.381 186.332 158.381Z" stroke="#737373" stroke-width="4" stroke-miterlimit="10"/>
<path d="M222.463 75.3463C221.35 73.8876 220.087 72.041 219.008 70.4961" stroke="#1F161E" stroke-linecap="round" stroke-linejoin="round"/>
<path d="M215.06 79.2168C215.788 79.9154 217.685 81.7127 219.588 83.3377" stroke="#1F161E" stroke-linecap="round" stroke-linejoin="round"/>
<path d="M216.754 81.0078C217.169 81.3864 219.312 84.4331 218.688 85.3595C219.484 83.8915 219.705 83.436 219.705 83.436" fill="#1F161E"/>
</g>
</g>
<defs>
<clipPath id="clip0_8997_281114">
<rect width="440" height="160" fill="white"/>
</clipPath>
<clipPath id="clip1_8997_281114">
<rect width="132" height="117" fill="white" transform="matrix(-1 0 0 1 264 42)"/>
</clipPath>
</defs>
</svg>
