<svg width="586" height="160" viewBox="0 0 586 160" fill="none" xmlns="http://www.w3.org/2000/svg">
<path d="M144.626 85.0874C153.176 86.7119 151.65 137.737 135.239 134.65C119.741 131.72 134.195 83.1209 144.626 85.0874Z" fill="black"/>
<path d="M107.087 91.413C113.891 87.5656 142.371 123.403 129.344 130.77C117.036 137.731 98.8024 96.0975 107.087 91.413Z" fill="#FFF3E0"/>
<path d="M141.759 159.312H124.578C123.886 159.312 123.219 159.057 122.703 158.595C122.188 158.133 121.86 157.498 121.784 156.81L119.615 137.33C119.571 136.937 119.611 136.539 119.731 136.162C119.852 135.786 120.051 135.439 120.314 135.144C120.578 134.849 120.901 134.614 121.262 134.452C121.623 134.291 122.014 134.207 122.409 134.207H143.838C144.232 134.207 144.623 134.289 144.983 134.45C145.343 134.61 145.666 134.845 145.929 135.138C146.193 135.431 146.392 135.777 146.513 136.152C146.634 136.528 146.675 136.924 146.632 137.316L144.558 156.797C144.484 157.487 144.157 158.126 143.64 158.59C143.124 159.055 142.454 159.312 141.759 159.312Z" fill="#BFBFBF"/>
<path d="M149.453 65.2236C155.965 67.1181 150.974 106.52 138.505 102.879C126.733 99.4547 141.529 62.9196 149.453 65.2236Z" fill="#999CBF"/>
<path d="M160.19 96.5606C164.69 100.444 146.384 130.112 137.735 122.66C129.568 115.654 154.696 91.8356 160.19 96.5606Z" fill="#FFF3E0"/>
<path d="M133.214 69.3223C142.961 69.3223 151.884 131.552 133.214 131.552C115.583 131.552 121.348 69.3223 133.214 69.3223Z" fill="#3B7858"/>
<path d="M150.317 129.973H116.028C115.021 129.973 114.205 130.789 114.205 131.795V135.116C114.205 136.123 115.021 136.939 116.028 136.939H150.317C151.324 136.939 152.14 136.123 152.14 135.116V131.795C152.14 130.789 151.324 129.973 150.317 129.973Z" fill="#D8D8D8"/>
<path d="M343.686 129.355V128.905L342.606 127.555L340.131 124.518L337.476 121.305C337.476 121.305 334.92 119.536 334.263 119.23C331.869 118.123 329.511 117.277 326.694 117.277C324.962 117.277 318.486 117.538 318.473 118.627C318.473 120.243 327.54 126.358 334.191 129.328C337.089 129.355 343.686 129.355 343.686 129.355Z" fill="#1F161E"/>
<path d="M342.313 129.355C333.084 122.267 314.247 83.5228 319.076 69.168C329.362 74.4104 340.648 92.4867 345.972 107.75C346.253 108.743 346.479 109.751 346.647 110.77L348.807 120.67L349.347 129.355H342.313Z" fill="#FFF3E0"/>
<path d="M348.612 129.354C345.498 126.825 344.504 119.337 344.477 116.543C344.427 111.327 345.228 107.484 349.688 101.747C354.147 96.0094 352.946 86.4875 358.886 80.0706C364.825 73.6537 368.731 71.8672 375.76 71.8672C382.789 71.8672 385.017 83.261 384.999 86.1275C384.918 97.6833 377.632 99.3168 373.195 104.838C369.969 108.843 369.717 112.119 368.74 113.991C363.493 124.066 359.246 127.873 356.096 129.354" fill="#7DBF9D"/>
<path d="M350.314 128.518C350.404 108.795 371.19 79.1719 375.631 74.7305" stroke="white" stroke-width="0.4" stroke-linecap="round" stroke-linejoin="round"/>
<path d="M351.452 119.568C349.153 117.062 347.06 109.956 347.375 108.111" stroke="white" stroke-width="0.4" stroke-linecap="round" stroke-linejoin="round"/>
<path d="M345.562 127.667C342.304 121.88 326.847 93.7285 321.064 72.9883" stroke="white" stroke-width="0.4" stroke-linecap="round" stroke-linejoin="round"/>
<path d="M356.096 129.354H365.77L357.671 159.526H336.012L328.043 129.354H356.096Z" fill="#A7532F"/>
<path d="M321.617 119.244C326.338 119.568 332.278 119.784 336.489 122.642" stroke="white" stroke-width="0.4" stroke-linecap="round" stroke-linejoin="round"/>
<g clip-path="url(#clip0_8997_281165)">
<path d="M246.665 88.1523C246.873 88.7497 248.892 91.5473 249.649 92.7845C250.406 94.0217 251.677 97.6614 250.562 98.2588C249.447 98.8562 247.579 98.4188 246.987 96.5026C246.395 94.5864 244.387 90.2677 243.685 89.321C242.983 88.3743 246.665 88.1523 246.665 88.1523Z" fill="#EED0C3"/>
<path d="M170.891 31.3002C169.913 30.3666 161.992 22 161.914 22C161.176 22.1795 160.692 22.5386 161.228 23.3057C161.436 23.6028 162.69 24.9967 164.153 26.5701C163.716 26.9404 163.402 27.4368 163.255 27.9921C163.108 28.5473 163.135 29.1345 163.332 29.674C163.528 30.2135 163.885 30.6793 164.354 31.0081C164.823 31.337 165.382 31.513 165.954 31.5124C166.181 31.51 166.407 31.4804 166.627 31.4242L167.884 32.9226L169.753 32.1587L169.503 31.8812L170.891 31.3002Z" fill="#EED0C3"/>
<path d="M183.215 128.164C183.238 128.582 183.986 132.013 183.654 132.444C183.053 133.227 177.856 133.162 177.599 132.93C177.342 132.698 177.17 132.196 177.378 132.039C177.586 131.882 179.627 131.35 179.893 131.141C180.16 130.932 180.495 129.878 180.319 129.329" fill="#1F161E"/>
<path d="M219.236 78.9277C221.511 80.5338 244.263 148.083 243.892 149.154C243.522 150.225 240.928 150.819 239.992 150.225C239.056 149.631 221.384 117.486 220.435 116.533C219.486 115.58 205.617 101.06 203.722 95.3442C201.827 89.6283 219.236 78.9277 219.236 78.9277Z" fill="#1F161E"/>
<path d="M216.067 75.0879C217.507 75.8452 221.69 79.9844 221.69 84.3881C221.69 96.8286 210.314 99.3389 206.258 99.267C202.201 99.1952 185.44 99.8971 179.095 97.7524C179.368 100.165 181.497 121.932 183.486 128.271C183.005 129.165 180.502 129.955 180.054 129.577C176.453 126.639 165.827 95.6012 166.032 93.4206C166.494 88.4979 213.431 75.7277 216.067 75.0879Z" fill="#FFA726"/>
<path d="M202.252 53.4497C202.048 54.3442 206.942 55.5553 207.167 54.5923L208.551 48.5924L203.637 47.4629L202.252 53.4497Z" fill="#EED0C3"/>
<path d="M207.723 52.1765C207.846 51.6412 207.056 49.5193 206.049 49.614C207.297 49.4704 208.194 48.2071 208.552 48.5923L207.723 52.1765Z" fill="black"/>
<path d="M204.928 49.7088C208.546 49.7088 211.48 46.7624 211.48 43.1278C211.48 39.4933 208.546 36.5469 204.928 36.5469C201.309 36.5469 198.375 39.4933 198.375 43.1278C198.375 46.7624 201.309 49.7088 204.928 49.7088Z" fill="#EED0C3"/>
<path d="M199.34 42.7318C199.411 42.4244 198.992 42.0644 198.405 41.9276C197.817 41.7908 197.283 41.9291 197.212 42.2365C197.141 42.5438 197.56 42.9039 198.148 43.0406C198.735 43.1774 199.269 43.0391 199.34 42.7318Z" fill="#FA9E9F"/>
<path d="M206.032 44.2884C206.103 43.9811 205.684 43.621 205.096 43.4843C204.509 43.3475 203.975 43.4857 203.904 43.7931C203.833 44.1005 204.252 44.4605 204.839 44.5973C205.427 44.7341 205.961 44.5958 206.032 44.2884Z" fill="#FA9E9F"/>
<path d="M201.142 41.9355C200.875 42.1738 199.578 43.1336 200.544 43.8713" stroke="#1F161E" stroke-width="0.69" stroke-miterlimit="10" stroke-linecap="round"/>
<path d="M202.367 45.771C202.692 45.833 203.274 45.5588 203.619 45.2617" stroke="#1F161E" stroke-width="0.69" stroke-miterlimit="10" stroke-linecap="round"/>
<path d="M208.129 42.1438C208.145 40.6585 202.961 37.2309 200.465 38.2984C201.619 37.2315 203.117 36.6162 204.685 36.5641C206.253 36.5121 207.788 37.0269 209.01 38.0149C210.232 39.0029 211.061 40.3986 211.345 41.9482C211.63 43.4978 211.351 45.0985 210.56 46.4593C209.858 45.8293 208.129 43.5442 208.129 42.1438Z" fill="black"/>
<path d="M209.488 45.2913C210.285 45.2913 210.931 44.6424 210.931 43.842C210.931 43.0415 210.285 42.3926 209.488 42.3926C208.691 42.3926 208.045 43.0415 208.045 43.842C208.045 44.6424 208.691 45.2913 209.488 45.2913Z" fill="#EED0C3"/>
<path d="M170.364 30.8145C171.06 31.4282 184.86 45.132 187.191 45.7C195.044 47.6129 220.454 55.2548 229.119 62.2503C238.168 67.8454 247.776 87.5589 247.428 88.2575C247.08 88.9561 243.242 90.6209 242.458 90.2716C241.675 89.9223 230.949 75.0107 229.292 74.0608C227.634 73.1108 214.734 66.7159 214.734 66.7159C215.341 68.2045 217.087 74.5112 216.824 75.3861C216.56 76.2609 210.941 80.0574 200.696 80.991C199.649 80.3773 196.597 62.6028 196.597 62.6028C194.416 61.6235 179.985 53.9098 176.806 49.9045C175.574 48.3506 166.256 33.9678 166.256 33.2562C166.256 32.5446 170.364 30.8145 170.364 30.8145Z" fill="#EF5350"/>
<path d="M203.413 66.0233C202.506 65.6512 196.652 62.5859 196.652 62.5859" stroke="#1F161E" stroke-width="0.55" stroke-miterlimit="10" stroke-linecap="round"/>
<path d="M208.725 52.623C209.342 53.3771 213.717 62.4782 214.734 66.8263" stroke="#1F161E" stroke-width="0.55" stroke-miterlimit="10" stroke-linecap="round"/>
<path d="M243.401 149.088C243.755 149.414 244.613 150.86 244.655 151.399C244.866 153.978 242.087 157.996 241.639 158C240.339 158 239.666 157.308 239.666 156.498C239.666 155.688 240.641 154.699 240.641 154.157C240.641 153.616 240.521 150.377 240.43 149.897" fill="#1F161E"/>
</g>
<g clip-path="url(#clip1_8997_281165)">
<path d="M311.489 154.262C311.522 154.763 311.855 157.694 311.434 158.212C310.662 159.15 303.914 159.102 303.581 158.832C303.248 158.561 303.021 157.958 303.292 157.769C303.563 157.579 306.202 156.929 306.547 156.679C306.891 156.428 307.315 155.166 307.085 154.512" fill="#1F161E"/>
<path d="M278.049 73.2793C276.899 75.6895 267.245 101.948 267.469 105.776C267.692 109.605 290.032 149.055 291.265 149.471C292.499 149.887 297.625 148.432 298.038 147.396C298.452 146.36 290.255 122.817 290.032 116.788" fill="#1F161E"/>
<path d="M278.049 73.2793C278.627 76.1194 288.234 115.285 288.234 115.285L305.847 154.725C307.312 155.385 311.621 155.456 312.375 155.246C313.129 155.036 309.508 117.269 308.077 111.917C306.645 106.565 302.878 69.4102 302.878 69.4102C302.878 69.4102 283.145 69.7114 278.049 73.2793Z" fill="#3B7858"/>
<path d="M282.808 31.375C279.901 32.6309 261.366 41.0631 259.773 41.0631C258.18 41.0631 241.237 32.2111 240.241 31.6153C239.293 32.4921 237.847 33.8732 238.198 34.3234C238.55 34.7736 257.979 51.5603 259.627 51.5603C261.274 51.5603 277.961 46.8652 279.257 45.5755" fill="#303030"/>
<path d="M289.099 29.5448C272.441 27.0195 276.409 71.591 278.05 73.2802C279.69 74.9693 302.158 70.9106 303.618 69.3128C305.079 67.7151 300.788 29.9679 289.099 29.5448Z" fill="#A0B1BF"/>
<path d="M297.061 147.678C297.258 148.141 298.547 150.839 298.309 151.452C297.881 152.562 291.444 154.417 291.038 154.252C290.632 154.086 290.214 153.575 290.408 153.321C290.602 153.067 292.905 151.706 293.154 151.367C293.403 151.029 293.388 149.712 292.949 149.154" fill="#1F161E"/>
<path d="M286.166 31.8665C286.166 32.9294 291.291 33.0107 291.291 31.8665V24.7578H286.166V31.8665Z" fill="#F8CDBA"/>
<path d="M291.295 28.1869C291.295 27.6757 289.409 24.8932 288.432 25.1911C289.636 24.795 290.852 24.47 291.295 24.7442V28.1869Z" fill="black"/>
<path d="M287.902 25.4478C291.58 25.4478 294.561 22.691 294.561 19.2903C294.561 15.8896 291.58 13.1328 287.902 13.1328C284.224 13.1328 281.242 15.8896 281.242 19.2903C281.242 22.691 284.224 25.4478 287.902 25.4478Z" fill="#F8CDBA"/>
<path d="M281.17 20.6517C281.784 20.6517 282.283 20.4123 282.283 20.1169C282.283 19.8215 281.784 19.582 281.17 19.582C280.555 19.582 280.057 19.8215 280.057 20.1169C280.057 20.4123 280.555 20.6517 281.17 20.6517Z" fill="#FA9E9F"/>
<path d="M288.154 20.6517C288.769 20.6517 289.267 20.4123 289.267 20.1169C289.267 19.8215 288.769 19.582 288.154 19.582C287.539 19.582 287.041 19.8215 287.041 20.1169C287.041 20.4123 287.539 20.6517 288.154 20.6517Z" fill="#FA9E9F"/>
<path d="M283.881 19.0059C283.673 19.2801 282.604 20.431 283.731 20.8981" stroke="#1F161E" stroke-width="0.69" stroke-miterlimit="10" stroke-linecap="round"/>
<path d="M285.986 22.2415C286.435 22.1292 286.825 21.8708 287.085 21.5137" stroke="#1F161E" stroke-width="0.69" stroke-miterlimit="10" stroke-linecap="round"/>
<path d="M291.966 20.9395C292.777 20.9395 293.434 20.3317 293.434 19.582C293.434 18.8323 292.777 18.2246 291.966 18.2246C291.155 18.2246 290.498 18.8323 290.498 19.582C290.498 20.3317 291.155 20.9395 291.966 20.9395Z" fill="#F8CDBA"/>
<path d="M303.31 71.0732C310.695 70.887 315.999 66.1072 315.999 53.8092C315.999 48.7316 306.869 33.4445 305.057 27.6695C304.119 24.6872 304.873 15.9131 300.089 11.4482C297.782 9.29862 287.641 9.80638 285.023 10.8185C282.406 11.8307 282.713 14.8806 282.98 15.3579C283.606 14.8705 284.979 13.882 285.225 13.9125C286.51 14.0581 290.017 17.7072 291.082 19.3828C291.946 20.7368 290.614 29.1454 292.301 31.5488C293.989 33.9522 299.964 32.6896 299.964 32.6896" fill="#1F161E"/>
<path d="M289.158 47.4507C290.18 48.6321 297.721 61.2145 297.721 63.1068C297.721 64.999 295.484 78.4108 295.038 79.0607C296.059 79.7682 298.743 81.718 298.743 81.718C298.743 81.718 306.922 68.3638 306.922 60.8624C306.922 58.2017 300.405 36.5778 294.141 31.6152" fill="#A0B1BF"/>
<path d="M289.158 47.4512C290.18 48.6326 297.721 61.215 297.721 63.1072C297.721 64.0449 297.169 67.8159 296.561 71.4582" stroke="#1F161E" stroke-linecap="round" stroke-linejoin="round"/>
<path d="M291.628 29.5227C291.317 32.0209 299.199 40.7375 302.271 43.2898C305.339 39.7152 303.497 30.8598 303.497 30.8598L297.237 28.1855L291.628 29.5227Z" fill="#1F161E"/>
<path d="M298.742 11.0545C300.528 11.0545 301.975 9.47532 301.975 7.52727C301.975 5.57921 300.528 4 298.742 4C296.957 4 295.51 5.57921 295.51 7.52727C295.51 9.47532 296.957 11.0545 298.742 11.0545Z" fill="#1F161E"/>
<path d="M280.019 35.2539C278.503 38.331 277.566 42.3626 277.031 46.6346" stroke="#1F161E" stroke-linecap="round" stroke-linejoin="round"/>
<path d="M237.116 34.1921C238.836 34.1921 240.231 33.1282 240.231 31.8158C240.231 30.5034 238.836 29.4395 237.116 29.4395C235.395 29.4395 234 30.5034 234 31.8158C234 33.1282 235.395 34.1921 237.116 34.1921Z" fill="#F8CDBA"/>
<path d="M238.887 24.7441L235.127 35.7389" stroke="black" stroke-width="3" stroke-miterlimit="10" stroke-linecap="round"/>
</g>
<defs>
<clipPath id="clip0_8997_281165">
<rect width="90" height="136" fill="white" transform="translate(161 22)"/>
</clipPath>
<clipPath id="clip1_8997_281165">
<rect width="82" height="155" fill="white" transform="translate(234 4)"/>
</clipPath>
</defs>
</svg>
